<svg xmlns="http://www.w3.org/2000/svg" xmlns:xlink="http://www.w3.org/1999/xlink" viewBox="0 0 240 240" enable-background="new 0 0 240 240" width="240" height="240"><defs><path id="2" d="m0 0h240v240h-240z"/><clipPath id="1"><use xlink:href="#2"/></clipPath></defs><path fill="#e6f6fe" d="m0 0h240v240h-240z"/><g fill="none" stroke="#88d6f3" stroke-width=".5" stroke-miterlimit="10"><path clip-path="url(#1)" d="m194 15h36v9.3h-36z"/><path clip-path="url(#1)" d="m200.4 19.1v-4.1"/><path clip-path="url(#1)" d="m206.2 15v1.7"/><path clip-path="url(#1)" d="m217.8 15v1.7"/><path clip-path="url(#1)" d="m212 19.1v-4.1"/><path clip-path="url(#1)" d="m223.6 19.1v-4.1"/></g><g clip-path="url(#1)"><path fill="none" stroke="#88d6f3" stroke-width=".5" stroke-miterlimit="10" d="m9.2 203.3h-5.5"/></g><g fill="none" stroke="#88d6f3" stroke-width=".5" stroke-miterlimit="10"><path clip-path="url(#1)" d="m3.7 203.3l2.5 7.3h.5l2.5-7.3v-23.5h-5.5z"/><path clip-path="url(#1)" d="m9.2 184.7h-5.5"/><path clip-path="url(#1)" d="m9.2 182.5h-5.5"/><path clip-path="url(#1)" d="m5.1 207.4l1.3-.8 1.4.8"/><g clip-path="url(#1)"><path d="m172.8 200.7h-1.4v2.1l-1.3.4-1.4-1.3-1.7 1.7 1.3 1.4-.4 1.3h-2.1v2.7h2.1l.4 1.4-1.3 1.3 1.7 1.8 1.4-1.3 1.3.4v2h1.4 1.3v-2l1.4-.4 1.3 1.3 1.8-1.8-1.3-1.3.4-1.4h2v-2.7h-2l-.4-1.3 1.3-1.4-1.8-1.7-1.3 1.3-1.4-.4v-2.1z"/><circle cx="172.8" cy="207.7" r="1.3"/></g><path clip-path="url(#1)" d="m162.3 211.2c-.6-4.7 1.3-10.3 6.9-12.8 4.4-2 12.3-2 16.4 1.8 3.6 3.3 4.4 8 4.4 8s.4 1.7.4 2.3c0 .6-.6.8-.5 1.1.1.3.8 1.1 1.3 2 .5.9 1.9 2.9 1.9 3.4 0 .5-.3.7-1 .9-.6.2-1.1.4-1.2.6-.1.2.3 1 .3 1.5 0 .4-.1.5-.5.6-.4.2-1 .2-1 .2s1.4.3 1.2.8c-.1.6-1 .7-1 1.2 0 .2.7 1.4.6 2.5-.1 1.5-1.5 2.2-3.8 1.8-2.1-.3-3.1-.7-3.4.5-.2.7-.2 2-.5 3.4 0 .1 0 .1 0 .2h-16.4c.7-1.3 1.6-3.3 1.6-5.9 0-1.8-.2-4.5-1.5-5.9-1.6-1.9-3.7-4.4-4.2-8.2z"/><g clip-path="url(#1)"><path d="m169 154.6h41.3v27.3h-41.3z"/><path d="m183 189.9h13.3"/><path d="m189.7 189.9v-8"/></g><path clip-path="url(#1)" d="m169 176.6h42"/><path clip-path="url(#1)" d="m137.4 19.5h14.3v-19.5h-28.7v19.5h7.9v5.5z"/><g clip-path="url(#1)"><circle cx="6.4" cy="52.2" r="13.4"/><path d="m15.7 61.6l4.1 4"/><path transform="matrix(.7071-.7071.7071.7071-43.23 39.543)" d="m23.3 63h5.7v18h-5.7z"/></g></g><g clip-path="url(#1)"><circle fill="none" stroke="#88d6f3" stroke-width=".5" stroke-miterlimit="10" cx="246.4" cy="52.2" r="13.4"/></g><g fill="none" stroke="#88d6f3" stroke-width=".5" stroke-miterlimit="10"><g clip-path="url(#1)"><path d="m36 41.5h24.9v15.5h-24.9z"/><path d="m40.1 41.5v-8.3c0-4.6 3.7-8.3 8.3-8.3s8.3 3.7 8.3 8.3v8.3"/><circle cx="48.4" cy="48.7" r="2.1"/><path d="m48.4 50.8v2.1"/></g><circle clip-path="url(#1)" cx="54.4" cy="83.6" r="12.1"/><circle clip-path="url(#1)" cx="54.4" cy="83.6" r="5.9"/><path clip-path="url(#1)" d="m52.1 78.1v-6.6"/><path clip-path="url(#1)" d="m56.8 78.1v-6.6"/><path clip-path="url(#1)" d="m52.1 95.6v-6.6"/><path clip-path="url(#1)" d="m56.8 95.6v-6.6"/><path clip-path="url(#1)" d="m59.9 81.2h6.6"/><path clip-path="url(#1)" d="m59.9 85.9h6.6"/><path clip-path="url(#1)" d="m42.4 81.2h6.6"/><path clip-path="url(#1)" d="m42.4 85.9h6.6"/><path clip-path="url(#1)" d="m-11.9 131.1h20.3v2.3h-20.3z"/><path clip-path="url(#1)" d="m-11.9 163.7h20.3v2.3h-20.3z"/><path clip-path="url(#1)" d="m-9.6 163.7c0 0 0-4.5 0-7.9s16.3-10.7 16.3-14.1c0-1.1 0-8.5 0-8.5"/><path clip-path="url(#1)" d="m6.7 163.7c0 0 0-4.5 0-7.9s-16.3-10.7-16.3-14.1c0-1.1 0-8.5 0-8.5"/><path clip-path="url(#1)" d="m228 131.1h20.3v2.3h-20.3z"/><path clip-path="url(#1)" d="m228 163.7h20.3v2.3h-20.3z"/><path clip-path="url(#1)" d="m230.3 163.7c0 0 0-4.5 0-7.9s16.3-10.7 16.3-14.1c0-1.1 0-8.5 0-8.5"/><path clip-path="url(#1)" d="m246.6 163.7c0 0 0-4.5 0-7.9s-16.3-10.7-16.3-14.1c0-1.1 0-8.5 0-8.5"/><path clip-path="url(#1)" d="m47.1-11.3h12.1v26.4l-6.1-6-6 6z"/><path clip-path="url(#1)" d="m47 228.7h12.1v26.4l-6-6.1-6.1 6.1z"/><path clip-path="url(#1)" d="m0-12.9h29.6v39.8h-29.6z"/><path clip-path="url(#1)" d="m5.1 26.9v-39.2"/><path clip-path="url(#1)" d="m8.4 0h17.9"/><path clip-path="url(#1)" d="m0 227h29.6v39.8h-29.6z"/><path clip-path="url(#1)" d="m5.1 266.9v-39.2"/><path clip-path="url(#1)" d="m8.4 236h17.9"/><path clip-path="url(#1)" d="m8.4 239.9h17.9"/><path clip-path="url(#1)" stroke-linejoin="bevel" d="m115.2 103.4l-18.6 21.7 9.3 1.3-7 16.5 20.5-21.4-9.3-1.3z"/><g clip-path="url(#1)"><path d="m202 58.4l-.6 3.2 3.1-.7 9.6-9.5-2.6-2.6z"/><path d="m212.2 53.3l-2.6-2.5"/></g><path clip-path="url(#1)" d="m202 37.4h-8.3v35h28v-35h-8.3"/><path clip-path="url(#1)" d="m210.3 35.5v-2.5h-5.1v2.5h-2.6l-1.2 5.1h12.7l-1.3-5.1z"/><path clip-path="url(#1)" d="m138.9 38.9c5.4 5.4 5.4 14.3 0 19.7-5.4 5.4-14.3 5.4-19.7 0-5.4-5.4-5.4-14.3 0-19.7 5.4-5.5 14.2-5.5 19.7 0z"/><path clip-path="url(#1)" d="m128.1 53.7v1.8"/><path clip-path="url(#1)" d="m125.4 43.8c0-1.4.9-2.3 3.6-2.3 2.3 0 3.6 1.4 3.6 3.2s-2.7 3.2-2.7 3.2-1.8.9-1.8 3.6v.5"/><path clip-path="url(#1)" d="m36.1 138.2c-9.8 0-18.5 8.7-18.5 18.5 0 9.8 8.7 18.5 18.5 18.5 6.9 0 8.9-2.7 8.9-2.7"/><circle clip-path="url(#1)" cx="36.1" cy="156.7" r="13.7"/><path clip-path="url(#1)" d="m36.1 174.5v6.9"/><path clip-path="url(#1)" d="m43 180.7h-13.7"/><g clip-path="url(#1)"><path d="m163.3 61.8h17.2v33.3h-24.7v-25.8z"/><path d="m155.8 69.3h7.5v-7.5"/></g><path clip-path="url(#1)" stroke-linejoin="bevel" d="m163.3 80.6l3.8 3.8 6.9-7"/><path clip-path="url(#1)" d="m84.2 83.3v2.7h12.3v-2.8c3.3-2.1 5.6-5.8 5.6-10 0-6.5-5.2-11.7-11.7-11.7s-11.7 5.2-11.7 11.7c-.1 4.2 2.1 8 5.5 10.1z"/><path clip-path="url(#1)" d="m88.1 86l-1.7-11.1"/><path clip-path="url(#1)" d="m92.6 86l1.6-11.1"/><path clip-path="url(#1)" d="m86.4 75.4l2.3 1.7 1.6-1.7 1.7 1.7 2.2-1.7"/><path clip-path="url(#1)" d="m84.2 86h12.3v3.3h-12.3z"/><path clip-path="url(#1)" d="m85.3 89.4h10v3.3h-10z"/><path clip-path="url(#1)" d="m86.4 92.7h7.8v3.3h-7.8z"/><path clip-path="url(#1)" d="m97.9 60.8l4.3-7.8"/><path clip-path="url(#1)" d="m102.9 65.7l4.6-3.5"/><path clip-path="url(#1)" d="m82.9 60.8l-4.3-7.8"/><path clip-path="url(#1)" d="m77.9 65.7l-4.6-3.5"/><path clip-path="url(#1)" d="m90.3 59.4v-9.9"/><g clip-path="url(#1)"><path d="m113.9 184.2c5.6 5.6 5.6 14.8 0 20.4-5.6 5.6-14.8 5.6-20.4 0-5.6-5.6-5.6-14.8 0-20.4 5.6-5.6 14.7-5.6 20.4 0z"/><path d="m103.7 180v-3.1h3.1"/><path d="m100.6 176.9h3.1"/><path d="m103.7 208.9v-2.1"/><path d="m103.7 182v-2"/><path d="m89.2 194.4h2.1"/><path d="m116.1 194.4h2"/><path d="m94.7 185.4l1.4 1.5"/><path d="m111.2 201.9l1.5 1.5"/><path d="m112.7 185.4l-1.5 1.5"/><path d="m96.1 201.9l-1.4 1.5"/><path d="m103.7 187.2v6.2"/><circle cx="103.7" cy="194.4" r="1.5"/></g><g clip-path="url(#1)"><path d="m75.2 105.9h-18.2"/><path d="m53.1 105.9h-7.1v31.1h40.2v-31.1h-7.2"/><path d="m53.1 103.3h3.9v5.2h-3.9z"/><path d="m75.2 103.3h3.9v5.2h-3.9z"/></g><path clip-path="url(#1)" d="m46 111.1h40.2"/><path clip-path="url(#1)" stroke-linejoin="round" d="m66.1 127.3l-4 2.6 1.4-4.6-3.9-2.6h4.7l1.8-5.1 1.9 5.1h4.6l-3.9 2.6 1.2 4.6z"/><path clip-path="url(#1)" d="m70.4 239.6v-30.7l30.8 30.7z"/><path clip-path="url(#1)" d="m77 235.1v-12.1l12.1 12.1z"/><path clip-path="url(#1)" d="m73.9 219h-3"/><path clip-path="url(#1)" d="m72.9 223h-2"/><path clip-path="url(#1)" d="m73.9 227h-3"/><path clip-path="url(#1)" d="m72.9 231.1h-2"/><path clip-path="url(#1)" d="m73.9 235.1h-3"/><path clip-path="url(#1)" d="m82.5 208.4l-3 3 18.1 18.2 4.1 1-1-4.1z"/><path clip-path="url(#1)" d="m82.5 214.4l3-3"/><path clip-path="url(#1)" d="m217.4 0h-33.2l-5.4 2.7 5.4 2.6h33.2z"/><path clip-path="url(#1)" d="m214.7 5.3v2.7h-6.6"/><path clip-path="url(#1)" d="m144 104l-10.4-12.5"/><path clip-path="url(#1)" d="m120.6 75.8l-4.4 3.7 1.5 1.8 3.7-.1 5.4 8.4-2.6 5.1 1.8 3.1 7.6-6.3"/><path clip-path="url(#1)" d="m120.6 75.8l4.5-3.7 1.5 1.8-.8 3.6 7.2 6.9 5.5-1.5 2.7 2.3-7.6 6.3"/><circle clip-path="url(#1)" cx="177.2" cy="22.1" r="6.7"/><circle clip-path="url(#1)" cx="154.9" cy="38.3" r="5.6"/><circle clip-path="url(#1)" cx="175.6" cy="45.5" r="4.5"/><path clip-path="url(#1)" d="m171.1 45l-11.1-4.5"/><path clip-path="url(#1)" d="m159.4 34.4l12.3-7.8"/><path clip-path="url(#1)" d="m128.6 151.3h13.4"/><path clip-path="url(#1)" d="m128.6 157.3h13.4"/><path clip-path="url(#1)" d="m128.6 163.4h13.4"/><path clip-path="url(#1)" d="m128.6 169.5h13.4"/><path clip-path="url(#1)" d="m126.2 151.3h-2.5"/><path clip-path="url(#1)" d="m126.2 157.3h-2.5"/><path clip-path="url(#1)" d="m126.2 163.4h-2.5"/><path clip-path="url(#1)" d="m126.2 169.5h-2.5"/><path clip-path="url(#1)" d="m127.4 141.5h-7.9v33.5h26.8v-33.5h-7.9"/><path clip-path="url(#1)" d="m135.3 139.7v-2.4h-4.9v2.4h-2.4l-1.2 4.9h12.2l-1.3-4.9z"/><g clip-path="url(#1)"><path d="m130.8 188.4h20v38.8h-20z"/><path d="m138.3 190.9h5"/><path d="m130.8 219.7h20"/><path d="m130.8 193.4h20"/><circle stroke-linejoin="bevel" cx="140.8" cy="223.4" r="1.2"/></g><g clip-path="url(#1)"><path d="m135.2 209.7l-.7 3.1 3.2-.6 9.3-9.4-2.5-2.5z"/><path d="m145.2 204.7l-2.5-2.5"/></g><g clip-path="url(#1)"><path d="m213 195.6h18.3v35.5h-26.4v-27.5z"/><path d="m204.9 203.6h8.1v-8"/><path d="m218.1 203h8"/><path d="m210.1 208.7h16"/><path d="m210.1 214.5h16"/><path d="m210.1 220.2h16"/><path d="m210.1 225.9h16"/></g><g clip-path="url(#1)"><path d="m70.7 149.4l18.1 18.1-11.4 11.5-18.1-18.1v-11.5z"/><path d="m75.1 149.4l18.1 18.1-11.4 11.5"/><circle cx="66.4" cy="156.5" r="2.7"/></g><path clip-path="url(#1)" d="m183.9 114.8l-23.4 6.7-23.1-5.7 22.6-7.3z"/><path clip-path="url(#1)" d="m144.7 117.6l.4 12.3c0 0 14 3.6 30.4 0v-12.7"/><path clip-path="url(#1)" d="m160 115l-9.2 4.1v14.2"/><path clip-path="url(#1)" d="m196.7 135.9l1.9 1.9"/><path transform="matrix(.7071-.7071.7071.7071-40.729 184.34)" clip-path="url(#1)" d="m200.6 136.3h3.2v10h-3.2z"/><path clip-path="url(#1)" d="m187.8 129.2l2.2-2.2-3.7-2.3-.8.8z"/><path clip-path="url(#1)" d="m193.7 132.9l-4.8-4.8"/><path clip-path="url(#1)" d="m205 127.9l-3 1.4-1.5-1.5 1.3-3c-3.7 0-4.7 1.8-4.7 3.7v1.5l-12.5 12.7-.7 2.2.8.7 2.3-.6 12.7-12.5h1.5c1.9.1 3.8-.9 3.8-4.6z"/></g><path clip-path="url(#1)" fill="none" stroke="#88d6f3" stroke-width=".5" stroke-miterlimit="10" d="m198.6 83.6c0 0-16 25.4 13.6 36.4 0 0 28.9-7.9 13.6-36.4 0 0-9.8 3.3-13.8-1.8 0 0-3.8 4.8-13.4 1.8z" id="0"/><use xlink:href="#0"/><g fill="none" stroke="#88d6f3" stroke-width=".5" stroke-miterlimit="10"><path clip-path="url(#1)" d="m201.8 87.7c0 0-12.2 19.4 10.3 27.8 0 0 22-6 10.4-27.8 0 0-7.4 2.5-10.5-1.4.1 0-2.8 3.7-10.2 1.4z"/><path clip-path="url(#1)" stroke-linejoin="bevel" d="m33.7 210.8l5.4-5.5 5.5 5.5"/></g><g clip-path="url(#1)"><path fill="none" stroke="#88d6f3" stroke-width=".5" stroke-miterlimit="10" d="m39.1 205.3v21.9"/></g><g fill="none" stroke="#88d6f3" stroke-width=".5" stroke-miterlimit="10"><path clip-path="url(#1)" d="m33.7 216.3h-15.7v-24.6h42.3v24.6h-15.7"/><g clip-path="url(#1)"><path d="m69.9 7.3v30.4l19.6 2.6 19.6-2.6v-30.4l-19.6 2.6z"/><path d="m89.5 40.3v-30.4"/><path d="m73.7 13.7l12 1.2"/><path d="m73.7 20l12 1.3"/><path d="m73.7 26.3l12 1.3"/><path d="m73.7 32.7l12 1.2"/><path d="m105.3 13.7l-12 1.2"/><path d="m105.3 20l-12 1.3"/><path d="m105.3 26.3l-12 1.3"/><path d="m105.3 32.7l-12 1.2"/></g><path clip-path="url(#1)" d="m1.9 96.3h33.5v4.9h-33.5z"/><path clip-path="url(#1)" d="m4.6 101.1h28.1v16.7h-28.1z"/><path clip-path="url(#1)" d="m18.6 117.9v-21.6"/><path clip-path="url(#1)" d="m18.6 96.3c0 0-7 .1-7-4.9 0-3.8 7-2.2 7 1.1 0 3.3 0 3.8 0 3.8z"/><path clip-path="url(#1)" d="m18.6 96.3c0 0 7 .1 7-4.9 0-3.8-7-2.2-7 1.1 0 3.3 0 3.8 0 3.8z"/></g></svg>