<?xml version="1.0" encoding="UTF-8" standalone="no"?>
<!DOCTYPE svg PUBLIC "-//W3C//DTD SVG 1.1//EN"
 "http://www.w3.org/Graphics/SVG/1.1/DTD/svg11.dtd">
<!-- Generated by graphviz version 2.38.0 (20140413.2041)
 -->
<!-- Title: controllers_diagram Pages: 1 -->
<svg width="1384pt" height="1367pt"
 viewBox="0.00 0.00 1383.50 1367.00" xmlns="http://www.w3.org/2000/svg" xmlns:xlink="http://www.w3.org/1999/xlink">
<g id="graph0" class="graph" transform="scale(1 1) rotate(0) translate(575.5 747.5)">
<title>controllers_diagram</title>
<polygon fill="none" stroke="none" points="-575.5,619.5 -575.5,-747.5 808,-747.5 808,619.5 -575.5,619.5"/>
<!-- _diagram_info -->
<g id="node1" class="node"><title>_diagram_info</title>
<text text-anchor="start" x="206" y="-85.6" font-family="Times,serif" font-size="13.00">Controllers diagram</text>
<text text-anchor="start" x="206" y="-71.6" font-family="Times,serif" font-size="13.00">Date: Jun 16 2016 &#45; 18:15</text>
<text text-anchor="start" x="206" y="-57.6" font-family="Times,serif" font-size="13.00">Migration version: 20160614025321</text>
<text text-anchor="start" x="206" y="-43.6" font-family="Times,serif" font-size="13.00">Generated by RailRoady 1.4.2</text>
<text text-anchor="start" x="206" y="-29.6" font-family="Times,serif" font-size="13.00">http://railroady.prestonlee.com</text>
</g>
<!-- HomeController -->
<g id="node2" class="node"><title>HomeController</title>
<path fill="none" stroke="black" d="M-559.5,197.5C-559.5,197.5 -452.5,197.5 -452.5,197.5 -446.5,197.5 -440.5,191.5 -440.5,185.5 -440.5,185.5 -440.5,56.5 -440.5,56.5 -440.5,50.5 -446.5,44.5 -452.5,44.5 -452.5,44.5 -559.5,44.5 -559.5,44.5 -565.5,44.5 -571.5,50.5 -571.5,56.5 -571.5,56.5 -571.5,185.5 -571.5,185.5 -571.5,191.5 -565.5,197.5 -559.5,197.5"/>
<text text-anchor="middle" x="-506" y="59.7" font-family="Times,serif" font-size="14.00">HomeController</text>
<polyline fill="none" stroke="black" points="-571.5,67.5 -440.5,67.5 "/>
<text text-anchor="start" x="-563.5" y="82.7" font-family="Times,serif" font-size="14.00">devise_mapping</text>
<text text-anchor="start" x="-563.5" y="97.7" font-family="Times,serif" font-size="14.00">index</text>
<text text-anchor="start" x="-563.5" y="112.7" font-family="Times,serif" font-size="14.00">payments</text>
<text text-anchor="start" x="-563.5" y="127.7" font-family="Times,serif" font-size="14.00">resource</text>
<text text-anchor="start" x="-563.5" y="142.7" font-family="Times,serif" font-size="14.00">resource_name</text>
<polyline fill="none" stroke="black" points="-571.5,150.5 -440.5,150.5 "/>
<polyline fill="none" stroke="black" points="-571.5,174.5 -440.5,174.5 "/>
<text text-anchor="start" x="-563.5" y="189.7" font-family="Times,serif" font-size="14.00">_layout</text>
</g>
<!-- Student::CourseTestUserController -->
<g id="node3" class="node"><title>Student::CourseTestUserController</title>
<path fill="none" stroke="black" d="M210.5,198C210.5,198 457.5,198 457.5,198 463.5,198 469.5,192 469.5,186 469.5,186 469.5,42 469.5,42 469.5,36 463.5,30 457.5,30 457.5,30 210.5,30 210.5,30 204.5,30 198.5,36 198.5,42 198.5,42 198.5,186 198.5,186 198.5,192 204.5,198 210.5,198"/>
<text text-anchor="middle" x="334" y="45.2" font-family="Times,serif" font-size="14.00">Student::CourseTestUserController</text>
<polyline fill="none" stroke="black" points="198.5,53 469.5,53 "/>
<text text-anchor="start" x="206.5" y="68.2" font-family="Times,serif" font-size="14.00">create</text>
<text text-anchor="start" x="206.5" y="83.2" font-family="Times,serif" font-size="14.00">edit</text>
<text text-anchor="start" x="206.5" y="98.2" font-family="Times,serif" font-size="14.00">new</text>
<text text-anchor="start" x="206.5" y="113.2" font-family="Times,serif" font-size="14.00">update</text>
<polyline fill="none" stroke="black" points="198.5,121 469.5,121 "/>
<polyline fill="none" stroke="black" points="198.5,145 469.5,145 "/>
<text text-anchor="start" x="206.5" y="160.2" font-family="Times,serif" font-size="14.00">_layout</text>
<text text-anchor="start" x="206.5" y="175.2" font-family="Times,serif" font-size="14.00">set_course_test_user</text>
<text text-anchor="start" x="206.5" y="190.2" font-family="Times,serif" font-size="14.00">set_init_sources</text>
</g>
<!-- Student::TestsController -->
<g id="node4" class="node"><title>Student::TestsController</title>
<path fill="none" stroke="black" d="M-383.5,263C-383.5,263 -210.5,263 -210.5,263 -204.5,263 -198.5,257 -198.5,251 -198.5,251 -198.5,47 -198.5,47 -198.5,41 -204.5,35 -210.5,35 -210.5,35 -383.5,35 -383.5,35 -389.5,35 -395.5,41 -395.5,47 -395.5,47 -395.5,251 -395.5,251 -395.5,257 -389.5,263 -383.5,263"/>
<text text-anchor="middle" x="-297" y="50.2" font-family="Times,serif" font-size="14.00">Student::TestsController</text>
<polyline fill="none" stroke="black" points="-395.5,58 -198.5,58 "/>
<text text-anchor="start" x="-387.5" y="73.2" font-family="Times,serif" font-size="14.00">create</text>
<text text-anchor="start" x="-387.5" y="88.2" font-family="Times,serif" font-size="14.00">destroy</text>
<text text-anchor="start" x="-387.5" y="103.2" font-family="Times,serif" font-size="14.00">edit</text>
<text text-anchor="start" x="-387.5" y="118.2" font-family="Times,serif" font-size="14.00">index</text>
<text text-anchor="start" x="-387.5" y="133.2" font-family="Times,serif" font-size="14.00">new</text>
<text text-anchor="start" x="-387.5" y="148.2" font-family="Times,serif" font-size="14.00">show</text>
<text text-anchor="start" x="-387.5" y="163.2" font-family="Times,serif" font-size="14.00">update</text>
<polyline fill="none" stroke="black" points="-395.5,171 -198.5,171 "/>
<polyline fill="none" stroke="black" points="-395.5,195 -198.5,195 "/>
<text text-anchor="start" x="-387.5" y="210.2" font-family="Times,serif" font-size="14.00">_layout</text>
<text text-anchor="start" x="-387.5" y="225.2" font-family="Times,serif" font-size="14.00">load_course</text>
<text text-anchor="start" x="-387.5" y="240.2" font-family="Times,serif" font-size="14.00">set_test</text>
<text text-anchor="start" x="-387.5" y="255.2" font-family="Times,serif" font-size="14.00">test_params</text>
</g>
<!-- Student::ResourcesController -->
<g id="node5" class="node"><title>Student::ResourcesController</title>
<path fill="none" stroke="black" d="M-142,373C-142,373 64,373 64,373 70,373 76,367 76,361 76,361 76,187 76,187 76,181 70,175 64,175 64,175 -142,175 -142,175 -148,175 -154,181 -154,187 -154,187 -154,361 -154,361 -154,367 -148,373 -142,373"/>
<text text-anchor="middle" x="-39" y="190.2" font-family="Times,serif" font-size="14.00">Student::ResourcesController</text>
<polyline fill="none" stroke="black" points="-154,198 76,198 "/>
<text text-anchor="start" x="-146" y="213.2" font-family="Times,serif" font-size="14.00">index</text>
<text text-anchor="start" x="-146" y="228.2" font-family="Times,serif" font-size="14.00">show</text>
<text text-anchor="start" x="-146" y="243.2" font-family="Times,serif" font-size="14.00">update</text>
<polyline fill="none" stroke="black" points="-154,251 76,251 "/>
<polyline fill="none" stroke="black" points="-154,275 76,275 "/>
<text text-anchor="start" x="-146" y="290.2" font-family="Times,serif" font-size="14.00">_layout</text>
<text text-anchor="start" x="-146" y="305.2" font-family="Times,serif" font-size="14.00">completed?</text>
<text text-anchor="start" x="-146" y="320.2" font-family="Times,serif" font-size="14.00">create_resource_progress</text>
<text text-anchor="start" x="-146" y="335.2" font-family="Times,serif" font-size="14.00">destroy_answers</text>
<text text-anchor="start" x="-146" y="350.2" font-family="Times,serif" font-size="14.00">resource_params</text>
<text text-anchor="start" x="-146" y="365.2" font-family="Times,serif" font-size="14.00">set_resource</text>
</g>
<!-- Student::CoursesController -->
<g id="node6" class="node"><title>Student::CoursesController</title>
<path fill="none" stroke="black" d="M-76.5,-440.5C-76.5,-440.5 112.5,-440.5 112.5,-440.5 118.5,-440.5 124.5,-446.5 124.5,-452.5 124.5,-452.5 124.5,-641.5 124.5,-641.5 124.5,-647.5 118.5,-653.5 112.5,-653.5 112.5,-653.5 -76.5,-653.5 -76.5,-653.5 -82.5,-653.5 -88.5,-647.5 -88.5,-641.5 -88.5,-641.5 -88.5,-452.5 -88.5,-452.5 -88.5,-446.5 -82.5,-440.5 -76.5,-440.5"/>
<text text-anchor="middle" x="18" y="-638.3" font-family="Times,serif" font-size="14.00">Student::CoursesController</text>
<polyline fill="none" stroke="black" points="-88.5,-630.5 124.5,-630.5 "/>
<text text-anchor="start" x="-80.5" y="-615.3" font-family="Times,serif" font-size="14.00">create</text>
<text text-anchor="start" x="-80.5" y="-600.3" font-family="Times,serif" font-size="14.00">destroy</text>
<text text-anchor="start" x="-80.5" y="-585.3" font-family="Times,serif" font-size="14.00">edit</text>
<text text-anchor="start" x="-80.5" y="-570.3" font-family="Times,serif" font-size="14.00">index</text>
<text text-anchor="start" x="-80.5" y="-555.3" font-family="Times,serif" font-size="14.00">new</text>
<text text-anchor="start" x="-80.5" y="-540.3" font-family="Times,serif" font-size="14.00">show</text>
<text text-anchor="start" x="-80.5" y="-525.3" font-family="Times,serif" font-size="14.00">update</text>
<polyline fill="none" stroke="black" points="-88.5,-517.5 124.5,-517.5 "/>
<polyline fill="none" stroke="black" points="-88.5,-493.5 124.5,-493.5 "/>
<text text-anchor="start" x="-80.5" y="-478.3" font-family="Times,serif" font-size="14.00">_layout</text>
<text text-anchor="start" x="-80.5" y="-463.3" font-family="Times,serif" font-size="14.00">course_params</text>
<text text-anchor="start" x="-80.5" y="-448.3" font-family="Times,serif" font-size="14.00">set_course</text>
</g>
<!-- SessionsController -->
<g id="node7" class="node"><title>SessionsController</title>
<path fill="none" stroke="black" d="M584.5,439C584.5,439 711.5,439 711.5,439 717.5,439 723.5,433 723.5,427 723.5,427 723.5,357 723.5,357 723.5,351 717.5,345 711.5,345 711.5,345 584.5,345 584.5,345 578.5,345 572.5,351 572.5,357 572.5,357 572.5,427 572.5,427 572.5,433 578.5,439 584.5,439"/>
<text text-anchor="middle" x="648" y="360.2" font-family="Times,serif" font-size="14.00">SessionsController</text>
<polyline fill="none" stroke="black" points="572.5,368 723.5,368 "/>
<polyline fill="none" stroke="black" points="572.5,392 723.5,392 "/>
<polyline fill="none" stroke="black" points="572.5,416 723.5,416 "/>
<text text-anchor="start" x="580.5" y="431.2" font-family="Times,serif" font-size="14.00">_layout</text>
</g>
<!-- SimulatorsController -->
<g id="node8" class="node"><title>SimulatorsController</title>
<path fill="none" stroke="black" d="M-317.5,-330.5C-317.5,-330.5 -132.5,-330.5 -132.5,-330.5 -126.5,-330.5 -120.5,-336.5 -120.5,-342.5 -120.5,-342.5 -120.5,-561.5 -120.5,-561.5 -120.5,-567.5 -126.5,-573.5 -132.5,-573.5 -132.5,-573.5 -317.5,-573.5 -317.5,-573.5 -323.5,-573.5 -329.5,-567.5 -329.5,-561.5 -329.5,-561.5 -329.5,-342.5 -329.5,-342.5 -329.5,-336.5 -323.5,-330.5 -317.5,-330.5"/>
<text text-anchor="middle" x="-225" y="-558.3" font-family="Times,serif" font-size="14.00">SimulatorsController</text>
<polyline fill="none" stroke="black" points="-329.5,-550.5 -120.5,-550.5 "/>
<text text-anchor="start" x="-321.5" y="-535.3" font-family="Times,serif" font-size="14.00">create</text>
<text text-anchor="start" x="-321.5" y="-520.3" font-family="Times,serif" font-size="14.00">delete</text>
<text text-anchor="start" x="-321.5" y="-505.3" font-family="Times,serif" font-size="14.00">filter_chart</text>
<text text-anchor="start" x="-321.5" y="-490.3" font-family="Times,serif" font-size="14.00">finish_simulator</text>
<text text-anchor="start" x="-321.5" y="-475.3" font-family="Times,serif" font-size="14.00">index</text>
<text text-anchor="start" x="-321.5" y="-460.3" font-family="Times,serif" font-size="14.00">new</text>
<text text-anchor="start" x="-321.5" y="-445.3" font-family="Times,serif" font-size="14.00">pause_simulator</text>
<text text-anchor="start" x="-321.5" y="-430.3" font-family="Times,serif" font-size="14.00">show</text>
<text text-anchor="start" x="-321.5" y="-415.3" font-family="Times,serif" font-size="14.00">show_answered_questions</text>
<text text-anchor="start" x="-321.5" y="-400.3" font-family="Times,serif" font-size="14.00">update</text>
<polyline fill="none" stroke="black" points="-329.5,-392.5 -120.5,-392.5 "/>
<polyline fill="none" stroke="black" points="-329.5,-368.5 -120.5,-368.5 "/>
<text text-anchor="start" x="-321.5" y="-353.3" font-family="Times,serif" font-size="14.00">_layout</text>
<text text-anchor="start" x="-321.5" y="-338.3" font-family="Times,serif" font-size="14.00">simulator_params</text>
</g>
<!-- SchoolsController -->
<g id="node9" class="node"><title>SchoolsController</title>
<path fill="none" stroke="black" d="M518.5,197.5C518.5,197.5 637.5,197.5 637.5,197.5 643.5,197.5 649.5,191.5 649.5,185.5 649.5,185.5 649.5,-3.5 649.5,-3.5 649.5,-9.5 643.5,-15.5 637.5,-15.5 637.5,-15.5 518.5,-15.5 518.5,-15.5 512.5,-15.5 506.5,-9.5 506.5,-3.5 506.5,-3.5 506.5,185.5 506.5,185.5 506.5,191.5 512.5,197.5 518.5,197.5"/>
<text text-anchor="middle" x="578" y="-0.3" font-family="Times,serif" font-size="14.00">SchoolsController</text>
<polyline fill="none" stroke="black" points="506.5,7.5 649.5,7.5 "/>
<text text-anchor="start" x="514.5" y="22.7" font-family="Times,serif" font-size="14.00">create</text>
<text text-anchor="start" x="514.5" y="37.7" font-family="Times,serif" font-size="14.00">destroy</text>
<text text-anchor="start" x="514.5" y="52.7" font-family="Times,serif" font-size="14.00">edit</text>
<text text-anchor="start" x="514.5" y="67.7" font-family="Times,serif" font-size="14.00">index</text>
<text text-anchor="start" x="514.5" y="82.7" font-family="Times,serif" font-size="14.00">new</text>
<text text-anchor="start" x="514.5" y="97.7" font-family="Times,serif" font-size="14.00">show</text>
<text text-anchor="start" x="514.5" y="112.7" font-family="Times,serif" font-size="14.00">update</text>
<polyline fill="none" stroke="black" points="506.5,120.5 649.5,120.5 "/>
<polyline fill="none" stroke="black" points="506.5,144.5 649.5,144.5 "/>
<text text-anchor="start" x="514.5" y="159.7" font-family="Times,serif" font-size="14.00">_layout</text>
<text text-anchor="start" x="514.5" y="174.7" font-family="Times,serif" font-size="14.00">school_params</text>
<text text-anchor="start" x="514.5" y="189.7" font-family="Times,serif" font-size="14.00">set_school</text>
</g>
<!-- AnsweredQuestionsController -->
<g id="node10" class="node"><title>AnsweredQuestionsController</title>
<path fill="none" stroke="black" d="M-76.5,-177C-76.5,-177 130.5,-177 130.5,-177 136.5,-177 142.5,-183 142.5,-189 142.5,-189 142.5,-393 142.5,-393 142.5,-399 136.5,-405 130.5,-405 130.5,-405 -76.5,-405 -76.5,-405 -82.5,-405 -88.5,-399 -88.5,-393 -88.5,-393 -88.5,-189 -88.5,-189 -88.5,-183 -82.5,-177 -76.5,-177"/>
<text text-anchor="middle" x="27" y="-389.8" font-family="Times,serif" font-size="14.00">AnsweredQuestionsController</text>
<polyline fill="none" stroke="black" points="-88.5,-382 142.5,-382 "/>
<text text-anchor="start" x="-80.5" y="-366.8" font-family="Times,serif" font-size="14.00">create</text>
<text text-anchor="start" x="-80.5" y="-351.8" font-family="Times,serif" font-size="14.00">delete</text>
<text text-anchor="start" x="-80.5" y="-336.8" font-family="Times,serif" font-size="14.00">edit</text>
<text text-anchor="start" x="-80.5" y="-321.8" font-family="Times,serif" font-size="14.00">index</text>
<text text-anchor="start" x="-80.5" y="-306.8" font-family="Times,serif" font-size="14.00">new</text>
<text text-anchor="start" x="-80.5" y="-291.8" font-family="Times,serif" font-size="14.00">show</text>
<text text-anchor="start" x="-80.5" y="-276.8" font-family="Times,serif" font-size="14.00">update</text>
<polyline fill="none" stroke="black" points="-88.5,-269 142.5,-269 "/>
<polyline fill="none" stroke="black" points="-88.5,-245 142.5,-245 "/>
<text text-anchor="start" x="-80.5" y="-229.8" font-family="Times,serif" font-size="14.00">_layout</text>
<text text-anchor="start" x="-80.5" y="-214.8" font-family="Times,serif" font-size="14.00">answer_is_correct</text>
<text text-anchor="start" x="-80.5" y="-199.8" font-family="Times,serif" font-size="14.00">answered_question_params</text>
<text text-anchor="start" x="-80.5" y="-184.8" font-family="Times,serif" font-size="14.00">get_category_and_sub</text>
</g>
<!-- LiveClassesController -->
<g id="node11" class="node"><title>LiveClassesController</title>
<path fill="none" stroke="black" d="M56,593.5C56,593.5 204,593.5 204,593.5 210,593.5 216,587.5 216,581.5 216,581.5 216,512.5 216,512.5 216,506.5 210,500.5 204,500.5 204,500.5 56,500.5 56,500.5 50,500.5 44,506.5 44,512.5 44,512.5 44,581.5 44,581.5 44,587.5 50,593.5 56,593.5"/>
<text text-anchor="middle" x="130" y="515.7" font-family="Times,serif" font-size="14.00">LiveClassesController</text>
<polyline fill="none" stroke="black" points="44,523.5 216,523.5 "/>
<text text-anchor="start" x="52" y="538.7" font-family="Times,serif" font-size="14.00">index</text>
<polyline fill="none" stroke="black" points="44,546.5 216,546.5 "/>
<polyline fill="none" stroke="black" points="44,570.5 216,570.5 "/>
<text text-anchor="start" x="52" y="585.7" font-family="Times,serif" font-size="14.00">_layout</text>
</g>
<!-- OmniauthCallbacksController -->
<g id="node12" class="node"><title>OmniauthCallbacksController</title>
<path fill="none" stroke="black" d="M518,-331C518,-331 718,-331 718,-331 724,-331 730,-337 730,-343 730,-343 730,-427 730,-427 730,-433 724,-439 718,-439 718,-439 518,-439 518,-439 512,-439 506,-433 506,-427 506,-427 506,-343 506,-343 506,-337 512,-331 518,-331"/>
<text text-anchor="middle" x="618" y="-423.8" font-family="Times,serif" font-size="14.00">OmniauthCallbacksController</text>
<polyline fill="none" stroke="black" points="506,-416 730,-416 "/>
<text text-anchor="start" x="514" y="-400.8" font-family="Times,serif" font-size="14.00">facebook</text>
<text text-anchor="start" x="514" y="-385.8" font-family="Times,serif" font-size="14.00">failure</text>
<polyline fill="none" stroke="black" points="506,-378 730,-378 "/>
<polyline fill="none" stroke="black" points="506,-354 730,-354 "/>
<text text-anchor="start" x="514" y="-338.8" font-family="Times,serif" font-size="14.00">_layout</text>
</g>
<!-- CategoriesController -->
<g id="node13" class="node"><title>CategoriesController</title>
<path fill="none" stroke="black" d="M495.5,-485C495.5,-485 638.5,-485 638.5,-485 644.5,-485 650.5,-491 650.5,-497 650.5,-497 650.5,-731 650.5,-731 650.5,-737 644.5,-743 638.5,-743 638.5,-743 495.5,-743 495.5,-743 489.5,-743 483.5,-737 483.5,-731 483.5,-731 483.5,-497 483.5,-497 483.5,-491 489.5,-485 495.5,-485"/>
<text text-anchor="middle" x="567" y="-727.8" font-family="Times,serif" font-size="14.00">CategoriesController</text>
<polyline fill="none" stroke="black" points="483.5,-720 650.5,-720 "/>
<text text-anchor="start" x="491.5" y="-704.8" font-family="Times,serif" font-size="14.00">create</text>
<text text-anchor="start" x="491.5" y="-689.8" font-family="Times,serif" font-size="14.00">delete</text>
<text text-anchor="start" x="491.5" y="-674.8" font-family="Times,serif" font-size="14.00">devise_mapping</text>
<text text-anchor="start" x="491.5" y="-659.8" font-family="Times,serif" font-size="14.00">edit</text>
<text text-anchor="start" x="491.5" y="-644.8" font-family="Times,serif" font-size="14.00">filter_chart</text>
<text text-anchor="start" x="491.5" y="-629.8" font-family="Times,serif" font-size="14.00">index</text>
<text text-anchor="start" x="491.5" y="-614.8" font-family="Times,serif" font-size="14.00">new</text>
<text text-anchor="start" x="491.5" y="-599.8" font-family="Times,serif" font-size="14.00">resource</text>
<text text-anchor="start" x="491.5" y="-584.8" font-family="Times,serif" font-size="14.00">resource_name</text>
<text text-anchor="start" x="491.5" y="-569.8" font-family="Times,serif" font-size="14.00">show</text>
<text text-anchor="start" x="491.5" y="-554.8" font-family="Times,serif" font-size="14.00">update</text>
<polyline fill="none" stroke="black" points="483.5,-547 650.5,-547 "/>
<polyline fill="none" stroke="black" points="483.5,-523 650.5,-523 "/>
<text text-anchor="start" x="491.5" y="-507.8" font-family="Times,serif" font-size="14.00">_layout</text>
<text text-anchor="start" x="491.5" y="-492.8" font-family="Times,serif" font-size="14.00">category_params</text>
</g>
<!-- TasksController -->
<g id="node14" class="node"><title>TasksController</title>
<path fill="none" stroke="black" d="M-559.5,-0.5C-559.5,-0.5 -452.5,-0.5 -452.5,-0.5 -446.5,-0.5 -440.5,-6.5 -440.5,-12.5 -440.5,-12.5 -440.5,-201.5 -440.5,-201.5 -440.5,-207.5 -446.5,-213.5 -452.5,-213.5 -452.5,-213.5 -559.5,-213.5 -559.5,-213.5 -565.5,-213.5 -571.5,-207.5 -571.5,-201.5 -571.5,-201.5 -571.5,-12.5 -571.5,-12.5 -571.5,-6.5 -565.5,-0.5 -559.5,-0.5"/>
<text text-anchor="middle" x="-506" y="-198.3" font-family="Times,serif" font-size="14.00">TasksController</text>
<polyline fill="none" stroke="black" points="-571.5,-190.5 -440.5,-190.5 "/>
<text text-anchor="start" x="-563.5" y="-175.3" font-family="Times,serif" font-size="14.00">create</text>
<text text-anchor="start" x="-563.5" y="-160.3" font-family="Times,serif" font-size="14.00">destroy</text>
<text text-anchor="start" x="-563.5" y="-145.3" font-family="Times,serif" font-size="14.00">edit</text>
<text text-anchor="start" x="-563.5" y="-130.3" font-family="Times,serif" font-size="14.00">index</text>
<text text-anchor="start" x="-563.5" y="-115.3" font-family="Times,serif" font-size="14.00">new</text>
<text text-anchor="start" x="-563.5" y="-100.3" font-family="Times,serif" font-size="14.00">show</text>
<text text-anchor="start" x="-563.5" y="-85.3" font-family="Times,serif" font-size="14.00">update</text>
<polyline fill="none" stroke="black" points="-571.5,-77.5 -440.5,-77.5 "/>
<polyline fill="none" stroke="black" points="-571.5,-53.5 -440.5,-53.5 "/>
<text text-anchor="start" x="-563.5" y="-38.3" font-family="Times,serif" font-size="14.00">_layout</text>
<text text-anchor="start" x="-563.5" y="-23.3" font-family="Times,serif" font-size="14.00">set_task</text>
<text text-anchor="start" x="-563.5" y="-8.3" font-family="Times,serif" font-size="14.00">task_params</text>
</g>
<!-- SimulatorAnsweredQuestionsController -->
<g id="node15" class="node"><title>SimulatorAnsweredQuestionsController</title>
<path fill="none" stroke="black" d="M-142,131C-142,131 136,131 136,131 142,131 148,125 148,119 148,119 148,-115 148,-115 148,-121 142,-127 136,-127 136,-127 -142,-127 -142,-127 -148,-127 -154,-121 -154,-115 -154,-115 -154,119 -154,119 -154,125 -148,131 -142,131"/>
<text text-anchor="middle" x="-3" y="-111.8" font-family="Times,serif" font-size="14.00">SimulatorAnsweredQuestionsController</text>
<polyline fill="none" stroke="black" points="-154,-104 148,-104 "/>
<text text-anchor="start" x="-146" y="-88.8" font-family="Times,serif" font-size="14.00">create</text>
<text text-anchor="start" x="-146" y="-73.8" font-family="Times,serif" font-size="14.00">delete</text>
<text text-anchor="start" x="-146" y="-58.8" font-family="Times,serif" font-size="14.00">edit</text>
<text text-anchor="start" x="-146" y="-43.8" font-family="Times,serif" font-size="14.00">index</text>
<text text-anchor="start" x="-146" y="-28.8" font-family="Times,serif" font-size="14.00">new</text>
<text text-anchor="start" x="-146" y="-13.8" font-family="Times,serif" font-size="14.00">show</text>
<text text-anchor="start" x="-146" y="1.2" font-family="Times,serif" font-size="14.00">update</text>
<polyline fill="none" stroke="black" points="-154,9 148,9 "/>
<polyline fill="none" stroke="black" points="-154,33 148,33 "/>
<text text-anchor="start" x="-146" y="48.2" font-family="Times,serif" font-size="14.00">_layout</text>
<text text-anchor="start" x="-146" y="63.2" font-family="Times,serif" font-size="14.00">answer_status</text>
<text text-anchor="start" x="-146" y="78.2" font-family="Times,serif" font-size="14.00">answered_question_params</text>
<text text-anchor="start" x="-146" y="93.2" font-family="Times,serif" font-size="14.00">get_clue_class</text>
<text text-anchor="start" x="-146" y="108.2" font-family="Times,serif" font-size="14.00">get_simulator_and_question</text>
<text text-anchor="start" x="-146" y="123.2" font-family="Times,serif" font-size="14.00">show_answered_question</text>
</g>
<!-- UniversitiesController -->
<g id="node16" class="node"><title>UniversitiesController</title>
<path fill="none" stroke="black" d="M276,-484.5C276,-484.5 430,-484.5 430,-484.5 436,-484.5 442,-490.5 442,-496.5 442,-496.5 442,-685.5 442,-685.5 442,-691.5 436,-697.5 430,-697.5 430,-697.5 276,-697.5 276,-697.5 270,-697.5 264,-691.5 264,-685.5 264,-685.5 264,-496.5 264,-496.5 264,-490.5 270,-484.5 276,-484.5"/>
<text text-anchor="middle" x="353" y="-682.3" font-family="Times,serif" font-size="14.00">UniversitiesController</text>
<polyline fill="none" stroke="black" points="264,-674.5 442,-674.5 "/>
<text text-anchor="start" x="272" y="-659.3" font-family="Times,serif" font-size="14.00">create</text>
<text text-anchor="start" x="272" y="-644.3" font-family="Times,serif" font-size="14.00">destroy</text>
<text text-anchor="start" x="272" y="-629.3" font-family="Times,serif" font-size="14.00">edit</text>
<text text-anchor="start" x="272" y="-614.3" font-family="Times,serif" font-size="14.00">index</text>
<text text-anchor="start" x="272" y="-599.3" font-family="Times,serif" font-size="14.00">new</text>
<text text-anchor="start" x="272" y="-584.3" font-family="Times,serif" font-size="14.00">show</text>
<text text-anchor="start" x="272" y="-569.3" font-family="Times,serif" font-size="14.00">update</text>
<polyline fill="none" stroke="black" points="264,-561.5 442,-561.5 "/>
<polyline fill="none" stroke="black" points="264,-537.5 442,-537.5 "/>
<text text-anchor="start" x="272" y="-522.3" font-family="Times,serif" font-size="14.00">_layout</text>
<text text-anchor="start" x="272" y="-507.3" font-family="Times,serif" font-size="14.00">set_university</text>
<text text-anchor="start" x="272" y="-492.3" font-family="Times,serif" font-size="14.00">university_params</text>
</g>
<!-- PointsController -->
<g id="node17" class="node"><title>PointsController</title>
<path fill="none" stroke="black" d="M276.5,615C276.5,615 387.5,615 387.5,615 393.5,615 399.5,609 399.5,603 399.5,603 399.5,519 399.5,519 399.5,513 393.5,507 387.5,507 387.5,507 276.5,507 276.5,507 270.5,507 264.5,513 264.5,519 264.5,519 264.5,603 264.5,603 264.5,609 270.5,615 276.5,615"/>
<text text-anchor="middle" x="332" y="522.2" font-family="Times,serif" font-size="14.00">PointsController</text>
<polyline fill="none" stroke="black" points="264.5,530 399.5,530 "/>
<text text-anchor="start" x="272.5" y="545.2" font-family="Times,serif" font-size="14.00">create</text>
<polyline fill="none" stroke="black" points="264.5,553 399.5,553 "/>
<polyline fill="none" stroke="black" points="264.5,577 399.5,577 "/>
<text text-anchor="start" x="272.5" y="592.2" font-family="Times,serif" font-size="14.00">_layout</text>
<text text-anchor="start" x="272.5" y="607.2" font-family="Times,serif" font-size="14.00">point_params</text>
</g>
<!-- ApplicationController -->
<g id="node18" class="node"><title>ApplicationController</title>
<path fill="none" stroke="black" d="M-449.5,461.5C-449.5,461.5 -246.5,461.5 -246.5,461.5 -240.5,461.5 -234.5,455.5 -234.5,449.5 -234.5,449.5 -234.5,320.5 -234.5,320.5 -234.5,314.5 -240.5,308.5 -246.5,308.5 -246.5,308.5 -449.5,308.5 -449.5,308.5 -455.5,308.5 -461.5,314.5 -461.5,320.5 -461.5,320.5 -461.5,449.5 -461.5,449.5 -461.5,455.5 -455.5,461.5 -449.5,461.5"/>
<text text-anchor="middle" x="-348" y="323.7" font-family="Times,serif" font-size="14.00">ApplicationController</text>
<polyline fill="none" stroke="black" points="-461.5,331.5 -234.5,331.5 "/>
<text text-anchor="start" x="-453.5" y="346.7" font-family="Times,serif" font-size="14.00">calculate_license_countdown</text>
<text text-anchor="start" x="-453.5" y="361.7" font-family="Times,serif" font-size="14.00">check_license</text>
<text text-anchor="start" x="-453.5" y="376.7" font-family="Times,serif" font-size="14.00">raise_not_found!</text>
<text text-anchor="start" x="-453.5" y="391.7" font-family="Times,serif" font-size="14.00">render_404</text>
<text text-anchor="start" x="-453.5" y="406.7" font-family="Times,serif" font-size="14.00">render_js_only</text>
<polyline fill="none" stroke="black" points="-461.5,414.5 -234.5,414.5 "/>
<polyline fill="none" stroke="black" points="-461.5,438.5 -234.5,438.5 "/>
<text text-anchor="start" x="-453.5" y="453.7" font-family="Times,serif" font-size="14.00">_layout</text>
</g>
<!-- CareersController -->
<g id="node19" class="node"><title>CareersController</title>
<path fill="none" stroke="black" d="M518,-66.5C518,-66.5 640,-66.5 640,-66.5 646,-66.5 652,-72.5 652,-78.5 652,-78.5 652,-267.5 652,-267.5 652,-273.5 646,-279.5 640,-279.5 640,-279.5 518,-279.5 518,-279.5 512,-279.5 506,-273.5 506,-267.5 506,-267.5 506,-78.5 506,-78.5 506,-72.5 512,-66.5 518,-66.5"/>
<text text-anchor="middle" x="579" y="-264.3" font-family="Times,serif" font-size="14.00">CareersController</text>
<polyline fill="none" stroke="black" points="506,-256.5 652,-256.5 "/>
<text text-anchor="start" x="514" y="-241.3" font-family="Times,serif" font-size="14.00">create</text>
<text text-anchor="start" x="514" y="-226.3" font-family="Times,serif" font-size="14.00">destroy</text>
<text text-anchor="start" x="514" y="-211.3" font-family="Times,serif" font-size="14.00">edit</text>
<text text-anchor="start" x="514" y="-196.3" font-family="Times,serif" font-size="14.00">index</text>
<text text-anchor="start" x="514" y="-181.3" font-family="Times,serif" font-size="14.00">new</text>
<text text-anchor="start" x="514" y="-166.3" font-family="Times,serif" font-size="14.00">show</text>
<text text-anchor="start" x="514" y="-151.3" font-family="Times,serif" font-size="14.00">update</text>
<polyline fill="none" stroke="black" points="506,-143.5 652,-143.5 "/>
<polyline fill="none" stroke="black" points="506,-119.5 652,-119.5 "/>
<text text-anchor="start" x="514" y="-104.3" font-family="Times,serif" font-size="14.00">_layout</text>
<text text-anchor="start" x="514" y="-89.3" font-family="Times,serif" font-size="14.00">career_params</text>
<text text-anchor="start" x="514" y="-74.3" font-family="Times,serif" font-size="14.00">set_career</text>
</g>
<!-- SubCategoriesController -->
<g id="node20" class="node"><title>SubCategoriesController</title>
<path fill="none" stroke="black" d="M-383.5,-1C-383.5,-1 -198.5,-1 -198.5,-1 -192.5,-1 -186.5,-7 -186.5,-13 -186.5,-13 -186.5,-217 -186.5,-217 -186.5,-223 -192.5,-229 -198.5,-229 -198.5,-229 -383.5,-229 -383.5,-229 -389.5,-229 -395.5,-223 -395.5,-217 -395.5,-217 -395.5,-13 -395.5,-13 -395.5,-7 -389.5,-1 -383.5,-1"/>
<text text-anchor="middle" x="-291" y="-213.8" font-family="Times,serif" font-size="14.00">SubCategoriesController</text>
<polyline fill="none" stroke="black" points="-395.5,-206 -186.5,-206 "/>
<text text-anchor="start" x="-387.5" y="-190.8" font-family="Times,serif" font-size="14.00">create</text>
<text text-anchor="start" x="-387.5" y="-175.8" font-family="Times,serif" font-size="14.00">delete</text>
<text text-anchor="start" x="-387.5" y="-160.8" font-family="Times,serif" font-size="14.00">edit</text>
<text text-anchor="start" x="-387.5" y="-145.8" font-family="Times,serif" font-size="14.00">index</text>
<text text-anchor="start" x="-387.5" y="-130.8" font-family="Times,serif" font-size="14.00">new</text>
<text text-anchor="start" x="-387.5" y="-115.8" font-family="Times,serif" font-size="14.00">show</text>
<text text-anchor="start" x="-387.5" y="-100.8" font-family="Times,serif" font-size="14.00">show_answered_questions</text>
<text text-anchor="start" x="-387.5" y="-85.8" font-family="Times,serif" font-size="14.00">update</text>
<polyline fill="none" stroke="black" points="-395.5,-78 -186.5,-78 "/>
<polyline fill="none" stroke="black" points="-395.5,-54 -186.5,-54 "/>
<text text-anchor="start" x="-387.5" y="-38.8" font-family="Times,serif" font-size="14.00">_layout</text>
<text text-anchor="start" x="-387.5" y="-23.8" font-family="Times,serif" font-size="14.00">get_category</text>
<text text-anchor="start" x="-387.5" y="-8.8" font-family="Times,serif" font-size="14.00">sub_category_params</text>
</g>
<!-- RegistrationsController -->
<g id="node21" class="node"><title>RegistrationsController</title>
<path fill="none" stroke="black" d="M-186,549.5C-186,549.5 -18,549.5 -18,549.5 -12,549.5 -6,543.5 -6,537.5 -6,537.5 -6,438.5 -6,438.5 -6,432.5 -12,426.5 -18,426.5 -18,426.5 -186,426.5 -186,426.5 -192,426.5 -198,432.5 -198,438.5 -198,438.5 -198,537.5 -198,537.5 -198,543.5 -192,549.5 -186,549.5"/>
<text text-anchor="middle" x="-102" y="441.7" font-family="Times,serif" font-size="14.00">RegistrationsController</text>
<polyline fill="none" stroke="black" points="-198,449.5 -6,449.5 "/>
<polyline fill="none" stroke="black" points="-198,473.5 -6,473.5 "/>
<text text-anchor="start" x="-190" y="488.7" font-family="Times,serif" font-size="14.00">account_update_params</text>
<text text-anchor="start" x="-190" y="503.7" font-family="Times,serif" font-size="14.00">sign_up_params</text>
<text text-anchor="start" x="-190" y="518.7" font-family="Times,serif" font-size="14.00">update_resource</text>
<polyline fill="none" stroke="black" points="-198,526.5 -6,526.5 "/>
<text text-anchor="start" x="-190" y="541.7" font-family="Times,serif" font-size="14.00">_layout</text>
</g>
<!-- TutorialsController -->
<g id="node22" class="node"><title>TutorialsController</title>
<path fill="none" stroke="black" d="M-516,-528.5C-516,-528.5 -384,-528.5 -384,-528.5 -378,-528.5 -372,-534.5 -372,-540.5 -372,-540.5 -372,-729.5 -372,-729.5 -372,-735.5 -378,-741.5 -384,-741.5 -384,-741.5 -516,-741.5 -516,-741.5 -522,-741.5 -528,-735.5 -528,-729.5 -528,-729.5 -528,-540.5 -528,-540.5 -528,-534.5 -522,-528.5 -516,-528.5"/>
<text text-anchor="middle" x="-450" y="-726.3" font-family="Times,serif" font-size="14.00">TutorialsController</text>
<polyline fill="none" stroke="black" points="-528,-718.5 -372,-718.5 "/>
<text text-anchor="start" x="-520" y="-703.3" font-family="Times,serif" font-size="14.00">create</text>
<text text-anchor="start" x="-520" y="-688.3" font-family="Times,serif" font-size="14.00">destroy</text>
<text text-anchor="start" x="-520" y="-673.3" font-family="Times,serif" font-size="14.00">edit</text>
<text text-anchor="start" x="-520" y="-658.3" font-family="Times,serif" font-size="14.00">index</text>
<text text-anchor="start" x="-520" y="-643.3" font-family="Times,serif" font-size="14.00">new</text>
<text text-anchor="start" x="-520" y="-628.3" font-family="Times,serif" font-size="14.00">show</text>
<text text-anchor="start" x="-520" y="-613.3" font-family="Times,serif" font-size="14.00">update</text>
<polyline fill="none" stroke="black" points="-528,-605.5 -372,-605.5 "/>
<polyline fill="none" stroke="black" points="-528,-581.5 -372,-581.5 "/>
<text text-anchor="start" x="-520" y="-566.3" font-family="Times,serif" font-size="14.00">_layout</text>
<text text-anchor="start" x="-520" y="-551.3" font-family="Times,serif" font-size="14.00">set_tutorial</text>
<text text-anchor="start" x="-520" y="-536.3" font-family="Times,serif" font-size="14.00">tutorial_params</text>
</g>
<!-- QuestionsController -->
<g id="node23" class="node"><title>QuestionsController</title>
<path fill="none" stroke="black" d="M122,461C122,461 280,461 280,461 286,461 292,455 292,449 292,449 292,245 292,245 292,239 286,233 280,233 280,233 122,233 122,233 116,233 110,239 110,245 110,245 110,449 110,449 110,455 116,461 122,461"/>
<text text-anchor="middle" x="201" y="248.2" font-family="Times,serif" font-size="14.00">QuestionsController</text>
<polyline fill="none" stroke="black" points="110,256 292,256 "/>
<text text-anchor="start" x="118" y="271.2" font-family="Times,serif" font-size="14.00">create</text>
<text text-anchor="start" x="118" y="286.2" font-family="Times,serif" font-size="14.00">delete</text>
<text text-anchor="start" x="118" y="301.2" font-family="Times,serif" font-size="14.00">edit</text>
<text text-anchor="start" x="118" y="316.2" font-family="Times,serif" font-size="14.00">index</text>
<text text-anchor="start" x="118" y="331.2" font-family="Times,serif" font-size="14.00">new</text>
<text text-anchor="start" x="118" y="346.2" font-family="Times,serif" font-size="14.00">show</text>
<text text-anchor="start" x="118" y="361.2" font-family="Times,serif" font-size="14.00">update</text>
<polyline fill="none" stroke="black" points="110,369 292,369 "/>
<polyline fill="none" stroke="black" points="110,393 292,393 "/>
<text text-anchor="start" x="118" y="408.2" font-family="Times,serif" font-size="14.00">_layout</text>
<text text-anchor="start" x="118" y="423.2" font-family="Times,serif" font-size="14.00">get_category_and_sub</text>
<text text-anchor="start" x="118" y="438.2" font-family="Times,serif" font-size="14.00">question_params</text>
<text text-anchor="start" x="118" y="453.2" font-family="Times,serif" font-size="14.00">show_questions_index</text>
</g>
<!-- ChoicesController -->
<g id="node24" class="node"><title>ChoicesController</title>
<path fill="none" stroke="black" d="M188.5,-177C188.5,-177 451.5,-177 451.5,-177 457.5,-177 463.5,-183 463.5,-189 463.5,-189 463.5,-423 463.5,-423 463.5,-429 457.5,-435 451.5,-435 451.5,-435 188.5,-435 188.5,-435 182.5,-435 176.5,-429 176.5,-423 176.5,-423 176.5,-189 176.5,-189 176.5,-183 182.5,-177 188.5,-177"/>
<text text-anchor="middle" x="320" y="-419.8" font-family="Times,serif" font-size="14.00">ChoicesController</text>
<polyline fill="none" stroke="black" points="176.5,-412 463.5,-412 "/>
<text text-anchor="start" x="184.5" y="-396.8" font-family="Times,serif" font-size="14.00">create</text>
<text text-anchor="start" x="184.5" y="-381.8" font-family="Times,serif" font-size="14.00">delete</text>
<text text-anchor="start" x="184.5" y="-366.8" font-family="Times,serif" font-size="14.00">edit</text>
<text text-anchor="start" x="184.5" y="-351.8" font-family="Times,serif" font-size="14.00">index</text>
<text text-anchor="start" x="184.5" y="-336.8" font-family="Times,serif" font-size="14.00">new</text>
<text text-anchor="start" x="184.5" y="-321.8" font-family="Times,serif" font-size="14.00">show</text>
<text text-anchor="start" x="184.5" y="-306.8" font-family="Times,serif" font-size="14.00">update</text>
<polyline fill="none" stroke="black" points="176.5,-299 463.5,-299 "/>
<polyline fill="none" stroke="black" points="176.5,-275 463.5,-275 "/>
<text text-anchor="start" x="184.5" y="-259.8" font-family="Times,serif" font-size="14.00">_layout</text>
<text text-anchor="start" x="184.5" y="-244.8" font-family="Times,serif" font-size="14.00">choice_params</text>
<text text-anchor="start" x="184.5" y="-229.8" font-family="Times,serif" font-size="14.00">get_category_and_sub_and_question</text>
<text text-anchor="start" x="184.5" y="-214.8" font-family="Times,serif" font-size="14.00">show_choices_index</text>
<text text-anchor="start" x="184.5" y="-199.8" font-family="Times,serif" font-size="14.00">update_choice</text>
<text text-anchor="start" x="184.5" y="-184.8" font-family="Times,serif" font-size="14.00">update_if_correct_choice</text>
</g>
<!-- Backend::DashboardController -->
<g id="node25" class="node"><title>Backend::DashboardController</title>
<path fill="none" stroke="black" d="M584,571.5C584,571.5 792,571.5 792,571.5 798,571.5 804,565.5 804,559.5 804,559.5 804,490.5 804,490.5 804,484.5 798,478.5 792,478.5 792,478.5 584,478.5 584,478.5 578,478.5 572,484.5 572,490.5 572,490.5 572,559.5 572,559.5 572,565.5 578,571.5 584,571.5"/>
<text text-anchor="middle" x="688" y="493.7" font-family="Times,serif" font-size="14.00">Backend::DashboardController</text>
<polyline fill="none" stroke="black" points="572,501.5 804,501.5 "/>
<text text-anchor="start" x="580" y="516.7" font-family="Times,serif" font-size="14.00">index</text>
<polyline fill="none" stroke="black" points="572,524.5 804,524.5 "/>
<polyline fill="none" stroke="black" points="572,548.5 804,548.5 "/>
<text text-anchor="start" x="580" y="563.7" font-family="Times,serif" font-size="14.00">_layout</text>
</g>
<!-- Backend::BlogsController -->
<g id="node26" class="node"><title>Backend::BlogsController</title>
<path fill="none" stroke="black" d="M342,461.5C342,461.5 514,461.5 514,461.5 520,461.5 526,455.5 526,449.5 526,449.5 526,260.5 526,260.5 526,254.5 520,248.5 514,248.5 514,248.5 342,248.5 342,248.5 336,248.5 330,254.5 330,260.5 330,260.5 330,449.5 330,449.5 330,455.5 336,461.5 342,461.5"/>
<text text-anchor="middle" x="428" y="263.7" font-family="Times,serif" font-size="14.00">Backend::BlogsController</text>
<polyline fill="none" stroke="black" points="330,271.5 526,271.5 "/>
<text text-anchor="start" x="338" y="286.7" font-family="Times,serif" font-size="14.00">create</text>
<text text-anchor="start" x="338" y="301.7" font-family="Times,serif" font-size="14.00">destroy</text>
<text text-anchor="start" x="338" y="316.7" font-family="Times,serif" font-size="14.00">edit</text>
<text text-anchor="start" x="338" y="331.7" font-family="Times,serif" font-size="14.00">index</text>
<text text-anchor="start" x="338" y="346.7" font-family="Times,serif" font-size="14.00">new</text>
<text text-anchor="start" x="338" y="361.7" font-family="Times,serif" font-size="14.00">show</text>
<text text-anchor="start" x="338" y="376.7" font-family="Times,serif" font-size="14.00">update</text>
<polyline fill="none" stroke="black" points="330,384.5 526,384.5 "/>
<polyline fill="none" stroke="black" points="330,408.5 526,408.5 "/>
<text text-anchor="start" x="338" y="423.7" font-family="Times,serif" font-size="14.00">_layout</text>
<text text-anchor="start" x="338" y="438.7" font-family="Times,serif" font-size="14.00">blog_params</text>
<text text-anchor="start" x="338" y="453.7" font-family="Times,serif" font-size="14.00">set_blog</text>
</g>
<!-- SectionsController -->
<g id="node27" class="node"><title>SectionsController</title>
<path fill="none" stroke="black" d="M-515.5,-264.5C-515.5,-264.5 -388.5,-264.5 -388.5,-264.5 -382.5,-264.5 -376.5,-270.5 -376.5,-276.5 -376.5,-276.5 -376.5,-465.5 -376.5,-465.5 -376.5,-471.5 -382.5,-477.5 -388.5,-477.5 -388.5,-477.5 -515.5,-477.5 -515.5,-477.5 -521.5,-477.5 -527.5,-471.5 -527.5,-465.5 -527.5,-465.5 -527.5,-276.5 -527.5,-276.5 -527.5,-270.5 -521.5,-264.5 -515.5,-264.5"/>
<text text-anchor="middle" x="-452" y="-462.3" font-family="Times,serif" font-size="14.00">SectionsController</text>
<polyline fill="none" stroke="black" points="-527.5,-454.5 -376.5,-454.5 "/>
<text text-anchor="start" x="-519.5" y="-439.3" font-family="Times,serif" font-size="14.00">create</text>
<text text-anchor="start" x="-519.5" y="-424.3" font-family="Times,serif" font-size="14.00">destroy</text>
<text text-anchor="start" x="-519.5" y="-409.3" font-family="Times,serif" font-size="14.00">edit</text>
<text text-anchor="start" x="-519.5" y="-394.3" font-family="Times,serif" font-size="14.00">index</text>
<text text-anchor="start" x="-519.5" y="-379.3" font-family="Times,serif" font-size="14.00">new</text>
<text text-anchor="start" x="-519.5" y="-364.3" font-family="Times,serif" font-size="14.00">show</text>
<text text-anchor="start" x="-519.5" y="-349.3" font-family="Times,serif" font-size="14.00">update</text>
<polyline fill="none" stroke="black" points="-527.5,-341.5 -376.5,-341.5 "/>
<polyline fill="none" stroke="black" points="-527.5,-317.5 -376.5,-317.5 "/>
<text text-anchor="start" x="-519.5" y="-302.3" font-family="Times,serif" font-size="14.00">_layout</text>
<text text-anchor="start" x="-519.5" y="-287.3" font-family="Times,serif" font-size="14.00">section_params</text>
<text text-anchor="start" x="-519.5" y="-272.3" font-family="Times,serif" font-size="14.00">set_section</text>
</g>
</g>
</svg>
