<?xml version="1.0" encoding="UTF-8" standalone="no"?>
<!DOCTYPE svg PUBLIC "-//W3C//DTD SVG 1.1//EN"
 "http://www.w3.org/Graphics/SVG/1.1/DTD/svg11.dtd">
<!-- Generated by graphviz version 2.38.0 (20140413.2041)
 -->
<!-- Title: controllers_diagram Pages: 1 -->
<svg width="1523pt" height="1372pt"
 viewBox="0.00 0.00 1522.50 1371.50" xmlns="http://www.w3.org/2000/svg" xmlns:xlink="http://www.w3.org/1999/xlink">
<g id="graph0" class="graph" transform="scale(1 1) rotate(0) translate(642.5 752)">
<title>controllers_diagram</title>
<polygon fill="none" stroke="none" points="-642.5,619.5 -642.5,-752 880,-752 880,619.5 -642.5,619.5"/>
<!-- _diagram_info -->
<g id="node1" class="node"><title>_diagram_info</title>
<text text-anchor="start" x="646" y="-415.6" font-family="Times,serif" font-size="13.00">Controllers diagram</text>
<text text-anchor="start" x="646" y="-401.6" font-family="Times,serif" font-size="13.00">Date: Oct 04 2016 &#45; 09:31</text>
<text text-anchor="start" x="646" y="-387.6" font-family="Times,serif" font-size="13.00">Migration version: 20160916144827</text>
<text text-anchor="start" x="646" y="-373.6" font-family="Times,serif" font-size="13.00">Generated by RailRoady 1.5.1</text>
<text text-anchor="start" x="646" y="-359.6" font-family="Times,serif" font-size="13.00">http://railroady.prestonlee.com</text>
</g>
<!-- HomeController -->
<g id="node2" class="node"><title>HomeController</title>
<path fill="none" stroke="black" d="M-559.5,307C-559.5,307 -452.5,307 -452.5,307 -446.5,307 -440.5,301 -440.5,295 -440.5,295 -440.5,181 -440.5,181 -440.5,175 -446.5,169 -452.5,169 -452.5,169 -559.5,169 -559.5,169 -565.5,169 -571.5,175 -571.5,181 -571.5,181 -571.5,295 -571.5,295 -571.5,301 -565.5,307 -559.5,307"/>
<text text-anchor="middle" x="-506" y="184.2" font-family="Times,serif" font-size="14.00">HomeController</text>
<polyline fill="none" stroke="black" points="-571.5,192 -440.5,192 "/>
<text text-anchor="start" x="-563.5" y="207.2" font-family="Times,serif" font-size="14.00">devise_mapping</text>
<text text-anchor="start" x="-563.5" y="222.2" font-family="Times,serif" font-size="14.00">index</text>
<text text-anchor="start" x="-563.5" y="237.2" font-family="Times,serif" font-size="14.00">resource</text>
<text text-anchor="start" x="-563.5" y="252.2" font-family="Times,serif" font-size="14.00">resource_name</text>
<polyline fill="none" stroke="black" points="-571.5,260 -440.5,260 "/>
<polyline fill="none" stroke="black" points="-571.5,284 -440.5,284 "/>
<text text-anchor="start" x="-563.5" y="299.2" font-family="Times,serif" font-size="14.00">_layout</text>
</g>
<!-- EventsController -->
<g id="node3" class="node"><title>EventsController</title>
<path fill="none" stroke="black" d="M-76,-440.5C-76,-440.5 40,-440.5 40,-440.5 46,-440.5 52,-446.5 52,-452.5 52,-452.5 52,-641.5 52,-641.5 52,-647.5 46,-653.5 40,-653.5 40,-653.5 -76,-653.5 -76,-653.5 -82,-653.5 -88,-647.5 -88,-641.5 -88,-641.5 -88,-452.5 -88,-452.5 -88,-446.5 -82,-440.5 -76,-440.5"/>
<text text-anchor="middle" x="-18" y="-638.3" font-family="Times,serif" font-size="14.00">EventsController</text>
<polyline fill="none" stroke="black" points="-88,-630.5 52,-630.5 "/>
<text text-anchor="start" x="-80" y="-615.3" font-family="Times,serif" font-size="14.00">create</text>
<text text-anchor="start" x="-80" y="-600.3" font-family="Times,serif" font-size="14.00">destroy</text>
<text text-anchor="start" x="-80" y="-585.3" font-family="Times,serif" font-size="14.00">edit</text>
<text text-anchor="start" x="-80" y="-570.3" font-family="Times,serif" font-size="14.00">index</text>
<text text-anchor="start" x="-80" y="-555.3" font-family="Times,serif" font-size="14.00">new</text>
<text text-anchor="start" x="-80" y="-540.3" font-family="Times,serif" font-size="14.00">show</text>
<text text-anchor="start" x="-80" y="-525.3" font-family="Times,serif" font-size="14.00">update</text>
<polyline fill="none" stroke="black" points="-88,-517.5 52,-517.5 "/>
<polyline fill="none" stroke="black" points="-88,-493.5 52,-493.5 "/>
<text text-anchor="start" x="-80" y="-478.3" font-family="Times,serif" font-size="14.00">_layout</text>
<text text-anchor="start" x="-80" y="-463.3" font-family="Times,serif" font-size="14.00">event_params</text>
<text text-anchor="start" x="-80" y="-448.3" font-family="Times,serif" font-size="14.00">set_event</text>
</g>
<!-- Student::CourseUserTestsController -->
<g id="node4" class="node"><title>Student::CourseUserTestsController</title>
<path fill="none" stroke="black" d="M188,-132.5C188,-132.5 442,-132.5 442,-132.5 448,-132.5 454,-138.5 454,-144.5 454,-144.5 454,-303.5 454,-303.5 454,-309.5 448,-315.5 442,-315.5 442,-315.5 188,-315.5 188,-315.5 182,-315.5 176,-309.5 176,-303.5 176,-303.5 176,-144.5 176,-144.5 176,-138.5 182,-132.5 188,-132.5"/>
<text text-anchor="middle" x="315" y="-300.3" font-family="Times,serif" font-size="14.00">Student::CourseUserTestsController</text>
<polyline fill="none" stroke="black" points="176,-292.5 454,-292.5 "/>
<text text-anchor="start" x="184" y="-277.3" font-family="Times,serif" font-size="14.00">edit</text>
<text text-anchor="start" x="184" y="-262.3" font-family="Times,serif" font-size="14.00">new</text>
<text text-anchor="start" x="184" y="-247.3" font-family="Times,serif" font-size="14.00">update</text>
<polyline fill="none" stroke="black" points="176,-239.5 454,-239.5 "/>
<polyline fill="none" stroke="black" points="176,-215.5 454,-215.5 "/>
<text text-anchor="start" x="184" y="-200.3" font-family="Times,serif" font-size="14.00">_layout</text>
<text text-anchor="start" x="184" y="-185.3" font-family="Times,serif" font-size="14.00">course_user_test_params</text>
<text text-anchor="start" x="184" y="-170.3" font-family="Times,serif" font-size="14.00">load_course_user_test</text>
<text text-anchor="start" x="184" y="-155.3" font-family="Times,serif" font-size="14.00">set_answers</text>
<text text-anchor="start" x="184" y="-140.3" font-family="Times,serif" font-size="14.00">set_course_user_test</text>
</g>
<!-- Student::TestsController -->
<g id="node5" class="node"><title>Student::TestsController</title>
<path fill="none" stroke="black" d="M650.5,-463C650.5,-463 823.5,-463 823.5,-463 829.5,-463 835.5,-469 835.5,-475 835.5,-475 835.5,-559 835.5,-559 835.5,-565 829.5,-571 823.5,-571 823.5,-571 650.5,-571 650.5,-571 644.5,-571 638.5,-565 638.5,-559 638.5,-559 638.5,-475 638.5,-475 638.5,-469 644.5,-463 650.5,-463"/>
<text text-anchor="middle" x="737" y="-555.8" font-family="Times,serif" font-size="14.00">Student::TestsController</text>
<polyline fill="none" stroke="black" points="638.5,-548 835.5,-548 "/>
<text text-anchor="start" x="646.5" y="-532.8" font-family="Times,serif" font-size="14.00">index</text>
<polyline fill="none" stroke="black" points="638.5,-525 835.5,-525 "/>
<polyline fill="none" stroke="black" points="638.5,-501 835.5,-501 "/>
<text text-anchor="start" x="646.5" y="-485.8" font-family="Times,serif" font-size="14.00">_layout</text>
<text text-anchor="start" x="646.5" y="-470.8" font-family="Times,serif" font-size="14.00">load_course</text>
</g>
<!-- Student::ProgressController -->
<g id="node6" class="node"><title>Student::ProgressController</title>
<path fill="none" stroke="black" d="M-604.5,-441C-604.5,-441 -407.5,-441 -407.5,-441 -401.5,-441 -395.5,-447 -395.5,-453 -395.5,-453 -395.5,-537 -395.5,-537 -395.5,-543 -401.5,-549 -407.5,-549 -407.5,-549 -604.5,-549 -604.5,-549 -610.5,-549 -616.5,-543 -616.5,-537 -616.5,-537 -616.5,-453 -616.5,-453 -616.5,-447 -610.5,-441 -604.5,-441"/>
<text text-anchor="middle" x="-506" y="-533.8" font-family="Times,serif" font-size="14.00">Student::ProgressController</text>
<polyline fill="none" stroke="black" points="-616.5,-526 -395.5,-526 "/>
<text text-anchor="start" x="-608.5" y="-510.8" font-family="Times,serif" font-size="14.00">index</text>
<polyline fill="none" stroke="black" points="-616.5,-503 -395.5,-503 "/>
<polyline fill="none" stroke="black" points="-616.5,-479 -395.5,-479 "/>
<text text-anchor="start" x="-608.5" y="-463.8" font-family="Times,serif" font-size="14.00">_layout</text>
<text text-anchor="start" x="-608.5" y="-448.8" font-family="Times,serif" font-size="14.00">set_data</text>
</g>
<!-- Student::LiveClassesController -->
<g id="node7" class="node"><title>Student::LiveClassesController</title>
<path fill="none" stroke="black" d="M583.5,593C583.5,593 798.5,593 798.5,593 804.5,593 810.5,587 810.5,581 810.5,581 810.5,497 810.5,497 810.5,491 804.5,485 798.5,485 798.5,485 583.5,485 583.5,485 577.5,485 571.5,491 571.5,497 571.5,497 571.5,581 571.5,581 571.5,587 577.5,593 583.5,593"/>
<text text-anchor="middle" x="691" y="500.2" font-family="Times,serif" font-size="14.00">Student::LiveClassesController</text>
<polyline fill="none" stroke="black" points="571.5,508 810.5,508 "/>
<text text-anchor="start" x="579.5" y="523.2" font-family="Times,serif" font-size="14.00">index</text>
<polyline fill="none" stroke="black" points="571.5,531 810.5,531 "/>
<polyline fill="none" stroke="black" points="571.5,555 810.5,555 "/>
<text text-anchor="start" x="579.5" y="570.2" font-family="Times,serif" font-size="14.00">_layout</text>
<text text-anchor="start" x="579.5" y="585.2" font-family="Times,serif" font-size="14.00">set_data</text>
</g>
<!-- Student::CategoriesController -->
<g id="node8" class="node"><title>Student::CategoriesController</title>
<path fill="none" stroke="black" d="M364,-352.5C364,-352.5 574,-352.5 574,-352.5 580,-352.5 586,-358.5 586,-364.5 586,-364.5 586,-553.5 586,-553.5 586,-559.5 580,-565.5 574,-565.5 574,-565.5 364,-565.5 364,-565.5 358,-565.5 352,-559.5 352,-553.5 352,-553.5 352,-364.5 352,-364.5 352,-358.5 358,-352.5 364,-352.5"/>
<text text-anchor="middle" x="469" y="-550.3" font-family="Times,serif" font-size="14.00">Student::CategoriesController</text>
<polyline fill="none" stroke="black" points="352,-542.5 586,-542.5 "/>
<text text-anchor="start" x="360" y="-527.3" font-family="Times,serif" font-size="14.00">create</text>
<text text-anchor="start" x="360" y="-512.3" font-family="Times,serif" font-size="14.00">delete</text>
<text text-anchor="start" x="360" y="-497.3" font-family="Times,serif" font-size="14.00">edit</text>
<text text-anchor="start" x="360" y="-482.3" font-family="Times,serif" font-size="14.00">index</text>
<text text-anchor="start" x="360" y="-467.3" font-family="Times,serif" font-size="14.00">new</text>
<text text-anchor="start" x="360" y="-452.3" font-family="Times,serif" font-size="14.00">show</text>
<text text-anchor="start" x="360" y="-437.3" font-family="Times,serif" font-size="14.00">update</text>
<polyline fill="none" stroke="black" points="352,-429.5 586,-429.5 "/>
<polyline fill="none" stroke="black" points="352,-405.5 586,-405.5 "/>
<text text-anchor="start" x="360" y="-390.3" font-family="Times,serif" font-size="14.00">_layout</text>
<text text-anchor="start" x="360" y="-375.3" font-family="Times,serif" font-size="14.00">category_params</text>
<text text-anchor="start" x="360" y="-360.3" font-family="Times,serif" font-size="14.00">set_data</text>
</g>
<!-- Student::ResourcesController -->
<g id="node9" class="node"><title>Student::ResourcesController</title>
<path fill="none" stroke="black" d="M-98,373C-98,373 108,373 108,373 114,373 120,367 120,361 120,361 120,187 120,187 120,181 114,175 108,175 108,175 -98,175 -98,175 -104,175 -110,181 -110,187 -110,187 -110,361 -110,361 -110,367 -104,373 -98,373"/>
<text text-anchor="middle" x="5" y="190.2" font-family="Times,serif" font-size="14.00">Student::ResourcesController</text>
<polyline fill="none" stroke="black" points="-110,198 120,198 "/>
<text text-anchor="start" x="-102" y="213.2" font-family="Times,serif" font-size="14.00">show</text>
<text text-anchor="start" x="-102" y="228.2" font-family="Times,serif" font-size="14.00">update</text>
<polyline fill="none" stroke="black" points="-110,236 120,236 "/>
<polyline fill="none" stroke="black" points="-110,260 120,260 "/>
<text text-anchor="start" x="-102" y="275.2" font-family="Times,serif" font-size="14.00">_layout</text>
<text text-anchor="start" x="-102" y="290.2" font-family="Times,serif" font-size="14.00">completed?</text>
<text text-anchor="start" x="-102" y="305.2" font-family="Times,serif" font-size="14.00">create_resource_progress</text>
<text text-anchor="start" x="-102" y="320.2" font-family="Times,serif" font-size="14.00">destroy_answers</text>
<text text-anchor="start" x="-102" y="335.2" font-family="Times,serif" font-size="14.00">resource_params</text>
<text text-anchor="start" x="-102" y="350.2" font-family="Times,serif" font-size="14.00">set_data</text>
<text text-anchor="start" x="-102" y="365.2" font-family="Times,serif" font-size="14.00">set_resource</text>
</g>
<!-- Student::SubCategoriesController -->
<g id="node10" class="node"><title>Student::SubCategoriesController</title>
<path fill="none" stroke="black" d="M628,-616.5C628,-616.5 864,-616.5 864,-616.5 870,-616.5 876,-622.5 876,-628.5 876,-628.5 876,-697.5 876,-697.5 876,-703.5 870,-709.5 864,-709.5 864,-709.5 628,-709.5 628,-709.5 622,-709.5 616,-703.5 616,-697.5 616,-697.5 616,-628.5 616,-628.5 616,-622.5 622,-616.5 628,-616.5"/>
<text text-anchor="middle" x="746" y="-694.3" font-family="Times,serif" font-size="14.00">Student::SubCategoriesController</text>
<polyline fill="none" stroke="black" points="616,-686.5 876,-686.5 "/>
<text text-anchor="start" x="624" y="-671.3" font-family="Times,serif" font-size="14.00">show</text>
<polyline fill="none" stroke="black" points="616,-663.5 876,-663.5 "/>
<polyline fill="none" stroke="black" points="616,-639.5 876,-639.5 "/>
<text text-anchor="start" x="624" y="-624.3" font-family="Times,serif" font-size="14.00">_layout</text>
</g>
<!-- Student::CoursesController -->
<g id="node11" class="node"><title>Student::CoursesController</title>
<path fill="none" stroke="black" d="M55.5,615C55.5,615 244.5,615 244.5,615 250.5,615 256.5,609 256.5,603 256.5,603 256.5,489 256.5,489 256.5,483 250.5,477 244.5,477 244.5,477 55.5,477 55.5,477 49.5,477 43.5,483 43.5,489 43.5,489 43.5,603 43.5,603 43.5,609 49.5,615 55.5,615"/>
<text text-anchor="middle" x="150" y="492.2" font-family="Times,serif" font-size="14.00">Student::CoursesController</text>
<polyline fill="none" stroke="black" points="43.5,500 256.5,500 "/>
<text text-anchor="start" x="51.5" y="515.2" font-family="Times,serif" font-size="14.00">index</text>
<text text-anchor="start" x="51.5" y="530.2" font-family="Times,serif" font-size="14.00">show</text>
<polyline fill="none" stroke="black" points="43.5,538 256.5,538 "/>
<polyline fill="none" stroke="black" points="43.5,562 256.5,562 "/>
<text text-anchor="start" x="51.5" y="577.2" font-family="Times,serif" font-size="14.00">_layout</text>
<text text-anchor="start" x="51.5" y="592.2" font-family="Times,serif" font-size="14.00">set_course</text>
<text text-anchor="start" x="51.5" y="607.2" font-family="Times,serif" font-size="14.00">set_course_user</text>
</g>
<!-- Student::TutorialsController -->
<g id="node12" class="node"><title>Student::TutorialsController</title>
<path fill="none" stroke="black" d="M-340.5,-353C-340.5,-353 -141.5,-353 -141.5,-353 -135.5,-353 -129.5,-359 -129.5,-365 -129.5,-365 -129.5,-569 -129.5,-569 -129.5,-575 -135.5,-581 -141.5,-581 -141.5,-581 -340.5,-581 -340.5,-581 -346.5,-581 -352.5,-575 -352.5,-569 -352.5,-569 -352.5,-365 -352.5,-365 -352.5,-359 -346.5,-353 -340.5,-353"/>
<text text-anchor="middle" x="-241" y="-565.8" font-family="Times,serif" font-size="14.00">Student::TutorialsController</text>
<polyline fill="none" stroke="black" points="-352.5,-558 -129.5,-558 "/>
<text text-anchor="start" x="-344.5" y="-542.8" font-family="Times,serif" font-size="14.00">create</text>
<text text-anchor="start" x="-344.5" y="-527.8" font-family="Times,serif" font-size="14.00">destroy</text>
<text text-anchor="start" x="-344.5" y="-512.8" font-family="Times,serif" font-size="14.00">edit</text>
<text text-anchor="start" x="-344.5" y="-497.8" font-family="Times,serif" font-size="14.00">index</text>
<text text-anchor="start" x="-344.5" y="-482.8" font-family="Times,serif" font-size="14.00">new</text>
<text text-anchor="start" x="-344.5" y="-467.8" font-family="Times,serif" font-size="14.00">show</text>
<text text-anchor="start" x="-344.5" y="-452.8" font-family="Times,serif" font-size="14.00">update</text>
<polyline fill="none" stroke="black" points="-352.5,-445 -129.5,-445 "/>
<polyline fill="none" stroke="black" points="-352.5,-421 -129.5,-421 "/>
<text text-anchor="start" x="-344.5" y="-405.8" font-family="Times,serif" font-size="14.00">_layout</text>
<text text-anchor="start" x="-344.5" y="-390.8" font-family="Times,serif" font-size="14.00">set_data</text>
<text text-anchor="start" x="-344.5" y="-375.8" font-family="Times,serif" font-size="14.00">set_tutorial</text>
<text text-anchor="start" x="-344.5" y="-360.8" font-family="Times,serif" font-size="14.00">tutorial_params</text>
</g>
<!-- Student::StudentController -->
<g id="node13" class="node"><title>Student::StudentController</title>
<path fill="none" stroke="black" d="M320.5,615C320.5,615 511.5,615 511.5,615 517.5,615 523.5,609 523.5,603 523.5,603 523.5,489 523.5,489 523.5,483 517.5,477 511.5,477 511.5,477 320.5,477 320.5,477 314.5,477 308.5,483 308.5,489 308.5,489 308.5,603 308.5,603 308.5,609 314.5,615 320.5,615"/>
<text text-anchor="middle" x="416" y="492.2" font-family="Times,serif" font-size="14.00">Student::StudentController</text>
<polyline fill="none" stroke="black" points="308.5,500 523.5,500 "/>
<text text-anchor="start" x="316.5" y="515.2" font-family="Times,serif" font-size="14.00">check_plan</text>
<text text-anchor="start" x="316.5" y="530.2" font-family="Times,serif" font-size="14.00">course_user</text>
<text text-anchor="start" x="316.5" y="545.2" font-family="Times,serif" font-size="14.00">redirect_if_premium_plan</text>
<text text-anchor="start" x="316.5" y="560.2" font-family="Times,serif" font-size="14.00">update_tests_data</text>
<polyline fill="none" stroke="black" points="308.5,568 523.5,568 "/>
<polyline fill="none" stroke="black" points="308.5,592 523.5,592 "/>
<text text-anchor="start" x="316.5" y="607.2" font-family="Times,serif" font-size="14.00">_layout</text>
</g>
<!-- Student::StatisticsController -->
<g id="node14" class="node"><title>Student::StatisticsController</title>
<path fill="none" stroke="black" d="M364.5,-617C364.5,-617 567.5,-617 567.5,-617 573.5,-617 579.5,-623 579.5,-629 579.5,-629 579.5,-713 579.5,-713 579.5,-719 573.5,-725 567.5,-725 567.5,-725 364.5,-725 364.5,-725 358.5,-725 352.5,-719 352.5,-713 352.5,-713 352.5,-629 352.5,-629 352.5,-623 358.5,-617 364.5,-617"/>
<text text-anchor="middle" x="466" y="-709.8" font-family="Times,serif" font-size="14.00">Student::StatisticsController</text>
<polyline fill="none" stroke="black" points="352.5,-702 579.5,-702 "/>
<text text-anchor="start" x="360.5" y="-686.8" font-family="Times,serif" font-size="14.00">index</text>
<polyline fill="none" stroke="black" points="352.5,-679 579.5,-679 "/>
<polyline fill="none" stroke="black" points="352.5,-655 579.5,-655 "/>
<text text-anchor="start" x="360.5" y="-639.8" font-family="Times,serif" font-size="14.00">_layout</text>
<text text-anchor="start" x="360.5" y="-624.8" font-family="Times,serif" font-size="14.00">set_data</text>
</g>
<!-- Student::AnswersController -->
<g id="node15" class="node"><title>Student::AnswersController</title>
<path fill="none" stroke="black" d="M-340,-616.5C-340,-616.5 -146,-616.5 -146,-616.5 -140,-616.5 -134,-622.5 -134,-628.5 -134,-628.5 -134,-727.5 -134,-727.5 -134,-733.5 -140,-739.5 -146,-739.5 -146,-739.5 -340,-739.5 -340,-739.5 -346,-739.5 -352,-733.5 -352,-727.5 -352,-727.5 -352,-628.5 -352,-628.5 -352,-622.5 -346,-616.5 -340,-616.5"/>
<text text-anchor="middle" x="-243" y="-724.3" font-family="Times,serif" font-size="14.00">Student::AnswersController</text>
<polyline fill="none" stroke="black" points="-352,-716.5 -134,-716.5 "/>
<text text-anchor="start" x="-344" y="-701.3" font-family="Times,serif" font-size="14.00">create</text>
<polyline fill="none" stroke="black" points="-352,-693.5 -134,-693.5 "/>
<polyline fill="none" stroke="black" points="-352,-669.5 -134,-669.5 "/>
<text text-anchor="start" x="-344" y="-654.3" font-family="Times,serif" font-size="14.00">_layout</text>
<text text-anchor="start" x="-344" y="-639.3" font-family="Times,serif" font-size="14.00">answer_params</text>
<text text-anchor="start" x="-344" y="-624.3" font-family="Times,serif" font-size="14.00">set_data</text>
</g>
<!-- Users::SessionsController -->
<g id="node16" class="node"><title>Users::SessionsController</title>
<path fill="none" stroke="black" d="M-626,-155C-626,-155 -450,-155 -450,-155 -444,-155 -438,-161 -438,-167 -438,-167 -438,-251 -438,-251 -438,-257 -444,-263 -450,-263 -450,-263 -626,-263 -626,-263 -632,-263 -638,-257 -638,-251 -638,-251 -638,-167 -638,-167 -638,-161 -632,-155 -626,-155"/>
<text text-anchor="middle" x="-538" y="-247.8" font-family="Times,serif" font-size="14.00">Users::SessionsController</text>
<polyline fill="none" stroke="black" points="-638,-240 -438,-240 "/>
<text text-anchor="start" x="-630" y="-224.8" font-family="Times,serif" font-size="14.00">destroy</text>
<text text-anchor="start" x="-630" y="-209.8" font-family="Times,serif" font-size="14.00">new</text>
<polyline fill="none" stroke="black" points="-638,-202 -438,-202 "/>
<polyline fill="none" stroke="black" points="-638,-178 -438,-178 "/>
<text text-anchor="start" x="-630" y="-162.8" font-family="Times,serif" font-size="14.00">_layout</text>
</g>
<!-- Users::OmniauthCallbacksController -->
<g id="node17" class="node"><title>Users::OmniauthCallbacksController</title>
<path fill="none" stroke="black" d="M-538,549C-538,549 -288,549 -288,549 -282,549 -276,543 -276,537 -276,537 -276,453 -276,453 -276,447 -282,441 -288,441 -288,441 -538,441 -538,441 -544,441 -550,447 -550,453 -550,453 -550,537 -550,537 -550,543 -544,549 -538,549"/>
<text text-anchor="middle" x="-413" y="456.2" font-family="Times,serif" font-size="14.00">Users::OmniauthCallbacksController</text>
<polyline fill="none" stroke="black" points="-550,464 -276,464 "/>
<text text-anchor="start" x="-542" y="479.2" font-family="Times,serif" font-size="14.00">facebook</text>
<text text-anchor="start" x="-542" y="494.2" font-family="Times,serif" font-size="14.00">failure</text>
<polyline fill="none" stroke="black" points="-550,502 -276,502 "/>
<polyline fill="none" stroke="black" points="-550,526 -276,526 "/>
<text text-anchor="start" x="-542" y="541.2" font-family="Times,serif" font-size="14.00">_layout</text>
</g>
<!-- Users::RegistrationsController -->
<g id="node18" class="node"><title>Users::RegistrationsController</title>
<path fill="none" stroke="black" d="M-230,593.5C-230,593.5 -16,593.5 -16,593.5 -10,593.5 -4,587.5 -4,581.5 -4,581.5 -4,452.5 -4,452.5 -4,446.5 -10,440.5 -16,440.5 -16,440.5 -230,440.5 -230,440.5 -236,440.5 -242,446.5 -242,452.5 -242,452.5 -242,581.5 -242,581.5 -242,587.5 -236,593.5 -230,593.5"/>
<text text-anchor="middle" x="-123" y="455.7" font-family="Times,serif" font-size="14.00">Users::RegistrationsController</text>
<polyline fill="none" stroke="black" points="-242,463.5 -4,463.5 "/>
<polyline fill="none" stroke="black" points="-242,487.5 -4,487.5 "/>
<text text-anchor="start" x="-234" y="502.7" font-family="Times,serif" font-size="14.00">account_update_params</text>
<text text-anchor="start" x="-234" y="517.7" font-family="Times,serif" font-size="14.00">after_sign_up_path_for</text>
<text text-anchor="start" x="-234" y="532.7" font-family="Times,serif" font-size="14.00">after_update_path_for</text>
<text text-anchor="start" x="-234" y="547.7" font-family="Times,serif" font-size="14.00">sign_up_params</text>
<text text-anchor="start" x="-234" y="562.7" font-family="Times,serif" font-size="14.00">update_resource</text>
<polyline fill="none" stroke="black" points="-242,570.5 -4,570.5 "/>
<text text-anchor="start" x="-234" y="585.7" font-family="Times,serif" font-size="14.00">_layout</text>
</g>
<!-- Users::PasswordsController -->
<g id="node19" class="node"><title>Users::PasswordsController</title>
<path fill="none" stroke="black" d="M-471.5,131.5C-471.5,131.5 -212.5,131.5 -212.5,131.5 -206.5,131.5 -200.5,125.5 -200.5,119.5 -200.5,119.5 -200.5,50.5 -200.5,50.5 -200.5,44.5 -206.5,38.5 -212.5,38.5 -212.5,38.5 -471.5,38.5 -471.5,38.5 -477.5,38.5 -483.5,44.5 -483.5,50.5 -483.5,50.5 -483.5,119.5 -483.5,119.5 -483.5,125.5 -477.5,131.5 -471.5,131.5"/>
<text text-anchor="middle" x="-342" y="53.7" font-family="Times,serif" font-size="14.00">Users::PasswordsController</text>
<polyline fill="none" stroke="black" points="-483.5,61.5 -200.5,61.5 "/>
<polyline fill="none" stroke="black" points="-483.5,85.5 -200.5,85.5 "/>
<text text-anchor="start" x="-475.5" y="100.7" font-family="Times,serif" font-size="14.00">after_resetting_password_path_for</text>
<polyline fill="none" stroke="black" points="-483.5,108.5 -200.5,108.5 "/>
<text text-anchor="start" x="-475.5" y="123.7" font-family="Times,serif" font-size="14.00">_layout</text>
</g>
<!-- PaymentsController -->
<g id="node20" class="node"><title>PaymentsController</title>
<path fill="none" stroke="black" d="M694.5,439.5C694.5,439.5 831.5,439.5 831.5,439.5 837.5,439.5 843.5,433.5 843.5,427.5 843.5,427.5 843.5,358.5 843.5,358.5 843.5,352.5 837.5,346.5 831.5,346.5 831.5,346.5 694.5,346.5 694.5,346.5 688.5,346.5 682.5,352.5 682.5,358.5 682.5,358.5 682.5,427.5 682.5,427.5 682.5,433.5 688.5,439.5 694.5,439.5"/>
<text text-anchor="middle" x="763" y="361.7" font-family="Times,serif" font-size="14.00">PaymentsController</text>
<polyline fill="none" stroke="black" points="682.5,369.5 843.5,369.5 "/>
<text text-anchor="start" x="690.5" y="384.7" font-family="Times,serif" font-size="14.00">index</text>
<polyline fill="none" stroke="black" points="682.5,392.5 843.5,392.5 "/>
<polyline fill="none" stroke="black" points="682.5,416.5 843.5,416.5 "/>
<text text-anchor="start" x="690.5" y="431.7" font-family="Times,serif" font-size="14.00">_layout</text>
</g>
<!-- ApplicationController -->
<g id="node21" class="node"><title>ApplicationController</title>
<path fill="none" stroke="black" d="M-582,-594.5C-582,-594.5 -416,-594.5 -416,-594.5 -410,-594.5 -404,-600.5 -404,-606.5 -404,-606.5 -404,-735.5 -404,-735.5 -404,-741.5 -410,-747.5 -416,-747.5 -416,-747.5 -582,-747.5 -582,-747.5 -588,-747.5 -594,-741.5 -594,-735.5 -594,-735.5 -594,-606.5 -594,-606.5 -594,-600.5 -588,-594.5 -582,-594.5"/>
<text text-anchor="middle" x="-499" y="-732.3" font-family="Times,serif" font-size="14.00">ApplicationController</text>
<polyline fill="none" stroke="black" points="-594,-724.5 -404,-724.5 "/>
<text text-anchor="start" x="-586" y="-709.3" font-family="Times,serif" font-size="14.00">after_sign_in_path_for</text>
<text text-anchor="start" x="-586" y="-694.3" font-family="Times,serif" font-size="14.00">raise_not_found!</text>
<text text-anchor="start" x="-586" y="-679.3" font-family="Times,serif" font-size="14.00">render_404</text>
<text text-anchor="start" x="-586" y="-664.3" font-family="Times,serif" font-size="14.00">render_js_only</text>
<text text-anchor="start" x="-586" y="-649.3" font-family="Times,serif" font-size="14.00">set_current_user</text>
<polyline fill="none" stroke="black" points="-594,-641.5 -404,-641.5 "/>
<polyline fill="none" stroke="black" points="-594,-617.5 -404,-617.5 "/>
<text text-anchor="start" x="-586" y="-602.3" font-family="Times,serif" font-size="14.00">_layout</text>
</g>
<!-- Backend::SchoolsController -->
<g id="node22" class="node"><title>Backend::SchoolsController</title>
<path fill="none" stroke="black" d="M-383.5,-0.5C-383.5,-0.5 -196.5,-0.5 -196.5,-0.5 -190.5,-0.5 -184.5,-6.5 -184.5,-12.5 -184.5,-12.5 -184.5,-201.5 -184.5,-201.5 -184.5,-207.5 -190.5,-213.5 -196.5,-213.5 -196.5,-213.5 -383.5,-213.5 -383.5,-213.5 -389.5,-213.5 -395.5,-207.5 -395.5,-201.5 -395.5,-201.5 -395.5,-12.5 -395.5,-12.5 -395.5,-6.5 -389.5,-0.5 -383.5,-0.5"/>
<text text-anchor="middle" x="-290" y="-198.3" font-family="Times,serif" font-size="14.00">Backend::SchoolsController</text>
<polyline fill="none" stroke="black" points="-395.5,-190.5 -184.5,-190.5 "/>
<text text-anchor="start" x="-387.5" y="-175.3" font-family="Times,serif" font-size="14.00">create</text>
<text text-anchor="start" x="-387.5" y="-160.3" font-family="Times,serif" font-size="14.00">destroy</text>
<text text-anchor="start" x="-387.5" y="-145.3" font-family="Times,serif" font-size="14.00">edit</text>
<text text-anchor="start" x="-387.5" y="-130.3" font-family="Times,serif" font-size="14.00">index</text>
<text text-anchor="start" x="-387.5" y="-115.3" font-family="Times,serif" font-size="14.00">new</text>
<text text-anchor="start" x="-387.5" y="-100.3" font-family="Times,serif" font-size="14.00">show</text>
<text text-anchor="start" x="-387.5" y="-85.3" font-family="Times,serif" font-size="14.00">update</text>
<polyline fill="none" stroke="black" points="-395.5,-77.5 -184.5,-77.5 "/>
<polyline fill="none" stroke="black" points="-395.5,-53.5 -184.5,-53.5 "/>
<text text-anchor="start" x="-387.5" y="-38.3" font-family="Times,serif" font-size="14.00">_layout</text>
<text text-anchor="start" x="-387.5" y="-23.3" font-family="Times,serif" font-size="14.00">school_params</text>
<text text-anchor="start" x="-387.5" y="-8.3" font-family="Times,serif" font-size="14.00">set_school</text>
</g>
<!-- Backend::CategoriesController -->
<g id="node23" class="node"><title>Backend::CategoriesController</title>
<path fill="none" stroke="black" d="M188.5,175C188.5,175 399.5,175 399.5,175 405.5,175 411.5,169 411.5,163 411.5,163 411.5,-71 411.5,-71 411.5,-77 405.5,-83 399.5,-83 399.5,-83 188.5,-83 188.5,-83 182.5,-83 176.5,-77 176.5,-71 176.5,-71 176.5,163 176.5,163 176.5,169 182.5,175 188.5,175"/>
<text text-anchor="middle" x="294" y="-67.8" font-family="Times,serif" font-size="14.00">Backend::CategoriesController</text>
<polyline fill="none" stroke="black" points="176.5,-60 411.5,-60 "/>
<text text-anchor="start" x="184.5" y="-44.8" font-family="Times,serif" font-size="14.00">create</text>
<text text-anchor="start" x="184.5" y="-29.8" font-family="Times,serif" font-size="14.00">delete</text>
<text text-anchor="start" x="184.5" y="-14.8" font-family="Times,serif" font-size="14.00">devise_mapping</text>
<text text-anchor="start" x="184.5" y="0.2" font-family="Times,serif" font-size="14.00">edit</text>
<text text-anchor="start" x="184.5" y="15.2" font-family="Times,serif" font-size="14.00">filter_chart</text>
<text text-anchor="start" x="184.5" y="30.2" font-family="Times,serif" font-size="14.00">index</text>
<text text-anchor="start" x="184.5" y="45.2" font-family="Times,serif" font-size="14.00">new</text>
<text text-anchor="start" x="184.5" y="60.2" font-family="Times,serif" font-size="14.00">resource</text>
<text text-anchor="start" x="184.5" y="75.2" font-family="Times,serif" font-size="14.00">resource_name</text>
<text text-anchor="start" x="184.5" y="90.2" font-family="Times,serif" font-size="14.00">show</text>
<text text-anchor="start" x="184.5" y="105.2" font-family="Times,serif" font-size="14.00">update</text>
<polyline fill="none" stroke="black" points="176.5,113 411.5,113 "/>
<polyline fill="none" stroke="black" points="176.5,137 411.5,137 "/>
<text text-anchor="start" x="184.5" y="152.2" font-family="Times,serif" font-size="14.00">_layout</text>
<text text-anchor="start" x="184.5" y="167.2" font-family="Times,serif" font-size="14.00">category_params</text>
</g>
<!-- Backend::TasksController -->
<g id="node24" class="node"><title>Backend::TasksController</title>
<path fill="none" stroke="black" d="M474,175.5C474,175.5 648,175.5 648,175.5 654,175.5 660,169.5 660,163.5 660,163.5 660,-25.5 660,-25.5 660,-31.5 654,-37.5 648,-37.5 648,-37.5 474,-37.5 474,-37.5 468,-37.5 462,-31.5 462,-25.5 462,-25.5 462,163.5 462,163.5 462,169.5 468,175.5 474,175.5"/>
<text text-anchor="middle" x="561" y="-22.3" font-family="Times,serif" font-size="14.00">Backend::TasksController</text>
<polyline fill="none" stroke="black" points="462,-14.5 660,-14.5 "/>
<text text-anchor="start" x="470" y="0.7" font-family="Times,serif" font-size="14.00">create</text>
<text text-anchor="start" x="470" y="15.7" font-family="Times,serif" font-size="14.00">destroy</text>
<text text-anchor="start" x="470" y="30.7" font-family="Times,serif" font-size="14.00">edit</text>
<text text-anchor="start" x="470" y="45.7" font-family="Times,serif" font-size="14.00">index</text>
<text text-anchor="start" x="470" y="60.7" font-family="Times,serif" font-size="14.00">new</text>
<text text-anchor="start" x="470" y="75.7" font-family="Times,serif" font-size="14.00">show</text>
<text text-anchor="start" x="470" y="90.7" font-family="Times,serif" font-size="14.00">update</text>
<polyline fill="none" stroke="black" points="462,98.5 660,98.5 "/>
<polyline fill="none" stroke="black" points="462,122.5 660,122.5 "/>
<text text-anchor="start" x="470" y="137.7" font-family="Times,serif" font-size="14.00">_layout</text>
<text text-anchor="start" x="470" y="152.7" font-family="Times,serif" font-size="14.00">set_task</text>
<text text-anchor="start" x="470" y="167.7" font-family="Times,serif" font-size="14.00">task_params</text>
</g>
<!-- Backend::UniversitiesController -->
<g id="node25" class="node"><title>Backend::UniversitiesController</title>
<path fill="none" stroke="black" d="M-383.5,395.5C-383.5,395.5 -162.5,395.5 -162.5,395.5 -156.5,395.5 -150.5,389.5 -150.5,383.5 -150.5,383.5 -150.5,194.5 -150.5,194.5 -150.5,188.5 -156.5,182.5 -162.5,182.5 -162.5,182.5 -383.5,182.5 -383.5,182.5 -389.5,182.5 -395.5,188.5 -395.5,194.5 -395.5,194.5 -395.5,383.5 -395.5,383.5 -395.5,389.5 -389.5,395.5 -383.5,395.5"/>
<text text-anchor="middle" x="-273" y="197.7" font-family="Times,serif" font-size="14.00">Backend::UniversitiesController</text>
<polyline fill="none" stroke="black" points="-395.5,205.5 -150.5,205.5 "/>
<text text-anchor="start" x="-387.5" y="220.7" font-family="Times,serif" font-size="14.00">create</text>
<text text-anchor="start" x="-387.5" y="235.7" font-family="Times,serif" font-size="14.00">destroy</text>
<text text-anchor="start" x="-387.5" y="250.7" font-family="Times,serif" font-size="14.00">edit</text>
<text text-anchor="start" x="-387.5" y="265.7" font-family="Times,serif" font-size="14.00">index</text>
<text text-anchor="start" x="-387.5" y="280.7" font-family="Times,serif" font-size="14.00">new</text>
<text text-anchor="start" x="-387.5" y="295.7" font-family="Times,serif" font-size="14.00">show</text>
<text text-anchor="start" x="-387.5" y="310.7" font-family="Times,serif" font-size="14.00">update</text>
<polyline fill="none" stroke="black" points="-395.5,318.5 -150.5,318.5 "/>
<polyline fill="none" stroke="black" points="-395.5,342.5 -150.5,342.5 "/>
<text text-anchor="start" x="-387.5" y="357.7" font-family="Times,serif" font-size="14.00">_layout</text>
<text text-anchor="start" x="-387.5" y="372.7" font-family="Times,serif" font-size="14.00">set_university</text>
<text text-anchor="start" x="-387.5" y="387.7" font-family="Times,serif" font-size="14.00">university_params</text>
</g>
<!-- Backend::PointsController -->
<g id="node26" class="node"><title>Backend::PointsController</title>
<path fill="none" stroke="black" d="M-626.5,-1C-626.5,-1 -447.5,-1 -447.5,-1 -441.5,-1 -435.5,-7 -435.5,-13 -435.5,-13 -435.5,-97 -435.5,-97 -435.5,-103 -441.5,-109 -447.5,-109 -447.5,-109 -626.5,-109 -626.5,-109 -632.5,-109 -638.5,-103 -638.5,-97 -638.5,-97 -638.5,-13 -638.5,-13 -638.5,-7 -632.5,-1 -626.5,-1"/>
<text text-anchor="middle" x="-537" y="-93.8" font-family="Times,serif" font-size="14.00">Backend::PointsController</text>
<polyline fill="none" stroke="black" points="-638.5,-86 -435.5,-86 "/>
<text text-anchor="start" x="-630.5" y="-70.8" font-family="Times,serif" font-size="14.00">create</text>
<polyline fill="none" stroke="black" points="-638.5,-63 -435.5,-63 "/>
<polyline fill="none" stroke="black" points="-638.5,-39 -435.5,-39 "/>
<text text-anchor="start" x="-630.5" y="-23.8" font-family="Times,serif" font-size="14.00">_layout</text>
<text text-anchor="start" x="-630.5" y="-8.8" font-family="Times,serif" font-size="14.00">point_params</text>
</g>
<!-- Backend::DashboardController -->
<g id="node27" class="node"><title>Backend::DashboardController</title>
<path fill="none" stroke="black" d="M-604,-308.5C-604,-308.5 -396,-308.5 -396,-308.5 -390,-308.5 -384,-314.5 -384,-320.5 -384,-320.5 -384,-389.5 -384,-389.5 -384,-395.5 -390,-401.5 -396,-401.5 -396,-401.5 -604,-401.5 -604,-401.5 -610,-401.5 -616,-395.5 -616,-389.5 -616,-389.5 -616,-320.5 -616,-320.5 -616,-314.5 -610,-308.5 -604,-308.5"/>
<text text-anchor="middle" x="-500" y="-386.3" font-family="Times,serif" font-size="14.00">Backend::DashboardController</text>
<polyline fill="none" stroke="black" points="-616,-378.5 -384,-378.5 "/>
<text text-anchor="start" x="-608" y="-363.3" font-family="Times,serif" font-size="14.00">index</text>
<polyline fill="none" stroke="black" points="-616,-355.5 -384,-355.5 "/>
<polyline fill="none" stroke="black" points="-616,-331.5 -384,-331.5 "/>
<text text-anchor="start" x="-608" y="-316.3" font-family="Times,serif" font-size="14.00">_layout</text>
</g>
<!-- Backend::CareersController -->
<g id="node28" class="node"><title>Backend::CareersController</title>
<path fill="none" stroke="black" d="M165.5,439.5C165.5,439.5 354.5,439.5 354.5,439.5 360.5,439.5 366.5,433.5 366.5,427.5 366.5,427.5 366.5,238.5 366.5,238.5 366.5,232.5 360.5,226.5 354.5,226.5 354.5,226.5 165.5,226.5 165.5,226.5 159.5,226.5 153.5,232.5 153.5,238.5 153.5,238.5 153.5,427.5 153.5,427.5 153.5,433.5 159.5,439.5 165.5,439.5"/>
<text text-anchor="middle" x="260" y="241.7" font-family="Times,serif" font-size="14.00">Backend::CareersController</text>
<polyline fill="none" stroke="black" points="153.5,249.5 366.5,249.5 "/>
<text text-anchor="start" x="161.5" y="264.7" font-family="Times,serif" font-size="14.00">create</text>
<text text-anchor="start" x="161.5" y="279.7" font-family="Times,serif" font-size="14.00">destroy</text>
<text text-anchor="start" x="161.5" y="294.7" font-family="Times,serif" font-size="14.00">edit</text>
<text text-anchor="start" x="161.5" y="309.7" font-family="Times,serif" font-size="14.00">index</text>
<text text-anchor="start" x="161.5" y="324.7" font-family="Times,serif" font-size="14.00">new</text>
<text text-anchor="start" x="161.5" y="339.7" font-family="Times,serif" font-size="14.00">show</text>
<text text-anchor="start" x="161.5" y="354.7" font-family="Times,serif" font-size="14.00">update</text>
<polyline fill="none" stroke="black" points="153.5,362.5 366.5,362.5 "/>
<polyline fill="none" stroke="black" points="153.5,386.5 366.5,386.5 "/>
<text text-anchor="start" x="161.5" y="401.7" font-family="Times,serif" font-size="14.00">_layout</text>
<text text-anchor="start" x="161.5" y="416.7" font-family="Times,serif" font-size="14.00">career_params</text>
<text text-anchor="start" x="161.5" y="431.7" font-family="Times,serif" font-size="14.00">set_career</text>
</g>
<!-- Backend::BlogsController -->
<g id="node29" class="node"><title>Backend::BlogsController</title>
<path fill="none" stroke="black" d="M518,-88.5C518,-88.5 690,-88.5 690,-88.5 696,-88.5 702,-94.5 702,-100.5 702,-100.5 702,-289.5 702,-289.5 702,-295.5 696,-301.5 690,-301.5 690,-301.5 518,-301.5 518,-301.5 512,-301.5 506,-295.5 506,-289.5 506,-289.5 506,-100.5 506,-100.5 506,-94.5 512,-88.5 518,-88.5"/>
<text text-anchor="middle" x="604" y="-286.3" font-family="Times,serif" font-size="14.00">Backend::BlogsController</text>
<polyline fill="none" stroke="black" points="506,-278.5 702,-278.5 "/>
<text text-anchor="start" x="514" y="-263.3" font-family="Times,serif" font-size="14.00">create</text>
<text text-anchor="start" x="514" y="-248.3" font-family="Times,serif" font-size="14.00">destroy</text>
<text text-anchor="start" x="514" y="-233.3" font-family="Times,serif" font-size="14.00">edit</text>
<text text-anchor="start" x="514" y="-218.3" font-family="Times,serif" font-size="14.00">index</text>
<text text-anchor="start" x="514" y="-203.3" font-family="Times,serif" font-size="14.00">new</text>
<text text-anchor="start" x="514" y="-188.3" font-family="Times,serif" font-size="14.00">show</text>
<text text-anchor="start" x="514" y="-173.3" font-family="Times,serif" font-size="14.00">update</text>
<polyline fill="none" stroke="black" points="506,-165.5 702,-165.5 "/>
<polyline fill="none" stroke="black" points="506,-141.5 702,-141.5 "/>
<text text-anchor="start" x="514" y="-126.3" font-family="Times,serif" font-size="14.00">_layout</text>
<text text-anchor="start" x="514" y="-111.3" font-family="Times,serif" font-size="14.00">blog_params</text>
<text text-anchor="start" x="514" y="-96.3" font-family="Times,serif" font-size="14.00">set_blog</text>
</g>
<!-- Backend::TutorialsController -->
<g id="node30" class="node"><title>Backend::TutorialsController</title>
<path fill="none" stroke="black" d="M430,439.5C430,439.5 630,439.5 630,439.5 636,439.5 642,433.5 642,427.5 642,427.5 642,238.5 642,238.5 642,232.5 636,226.5 630,226.5 630,226.5 430,226.5 430,226.5 424,226.5 418,232.5 418,238.5 418,238.5 418,427.5 418,427.5 418,433.5 424,439.5 430,439.5"/>
<text text-anchor="middle" x="530" y="241.7" font-family="Times,serif" font-size="14.00">Backend::TutorialsController</text>
<polyline fill="none" stroke="black" points="418,249.5 642,249.5 "/>
<text text-anchor="start" x="426" y="264.7" font-family="Times,serif" font-size="14.00">create</text>
<text text-anchor="start" x="426" y="279.7" font-family="Times,serif" font-size="14.00">destroy</text>
<text text-anchor="start" x="426" y="294.7" font-family="Times,serif" font-size="14.00">edit</text>
<text text-anchor="start" x="426" y="309.7" font-family="Times,serif" font-size="14.00">index</text>
<text text-anchor="start" x="426" y="324.7" font-family="Times,serif" font-size="14.00">new</text>
<text text-anchor="start" x="426" y="339.7" font-family="Times,serif" font-size="14.00">show</text>
<text text-anchor="start" x="426" y="354.7" font-family="Times,serif" font-size="14.00">update</text>
<polyline fill="none" stroke="black" points="418,362.5 642,362.5 "/>
<polyline fill="none" stroke="black" points="418,386.5 642,386.5 "/>
<text text-anchor="start" x="426" y="401.7" font-family="Times,serif" font-size="14.00">_layout</text>
<text text-anchor="start" x="426" y="416.7" font-family="Times,serif" font-size="14.00">set_tutorial</text>
<text text-anchor="start" x="426" y="431.7" font-family="Times,serif" font-size="14.00">tutorial_params</text>
</g>
<!-- Backend::QuestionsController -->
<g id="node31" class="node"><title>Backend::QuestionsController</title>
<path fill="none" stroke="black" d="M-76,-177C-76,-177 128,-177 128,-177 134,-177 140,-183 140,-189 140,-189 140,-393 140,-393 140,-399 134,-405 128,-405 128,-405 -76,-405 -76,-405 -82,-405 -88,-399 -88,-393 -88,-393 -88,-189 -88,-189 -88,-183 -82,-177 -76,-177"/>
<text text-anchor="middle" x="26" y="-389.8" font-family="Times,serif" font-size="14.00">Backend::QuestionsController</text>
<polyline fill="none" stroke="black" points="-88,-382 140,-382 "/>
<text text-anchor="start" x="-80" y="-366.8" font-family="Times,serif" font-size="14.00">create</text>
<text text-anchor="start" x="-80" y="-351.8" font-family="Times,serif" font-size="14.00">delete</text>
<text text-anchor="start" x="-80" y="-336.8" font-family="Times,serif" font-size="14.00">edit</text>
<text text-anchor="start" x="-80" y="-321.8" font-family="Times,serif" font-size="14.00">index</text>
<text text-anchor="start" x="-80" y="-306.8" font-family="Times,serif" font-size="14.00">new</text>
<text text-anchor="start" x="-80" y="-291.8" font-family="Times,serif" font-size="14.00">show</text>
<text text-anchor="start" x="-80" y="-276.8" font-family="Times,serif" font-size="14.00">update</text>
<polyline fill="none" stroke="black" points="-88,-269 140,-269 "/>
<polyline fill="none" stroke="black" points="-88,-245 140,-245 "/>
<text text-anchor="start" x="-80" y="-229.8" font-family="Times,serif" font-size="14.00">_layout</text>
<text text-anchor="start" x="-80" y="-214.8" font-family="Times,serif" font-size="14.00">get_category_and_sub</text>
<text text-anchor="start" x="-80" y="-199.8" font-family="Times,serif" font-size="14.00">question_params</text>
<text text-anchor="start" x="-80" y="-184.8" font-family="Times,serif" font-size="14.00">show_questions_index</text>
</g>
<!-- Backend::ChoicesController -->
<g id="node32" class="node"><title>Backend::ChoicesController</title>
<path fill="none" stroke="black" d="M-141.5,131C-141.5,131 121.5,131 121.5,131 127.5,131 133.5,125 133.5,119 133.5,119 133.5,-115 133.5,-115 133.5,-121 127.5,-127 121.5,-127 121.5,-127 -141.5,-127 -141.5,-127 -147.5,-127 -153.5,-121 -153.5,-115 -153.5,-115 -153.5,119 -153.5,119 -153.5,125 -147.5,131 -141.5,131"/>
<text text-anchor="middle" x="-10" y="-111.8" font-family="Times,serif" font-size="14.00">Backend::ChoicesController</text>
<polyline fill="none" stroke="black" points="-153.5,-104 133.5,-104 "/>
<text text-anchor="start" x="-145.5" y="-88.8" font-family="Times,serif" font-size="14.00">create</text>
<text text-anchor="start" x="-145.5" y="-73.8" font-family="Times,serif" font-size="14.00">delete</text>
<text text-anchor="start" x="-145.5" y="-58.8" font-family="Times,serif" font-size="14.00">edit</text>
<text text-anchor="start" x="-145.5" y="-43.8" font-family="Times,serif" font-size="14.00">index</text>
<text text-anchor="start" x="-145.5" y="-28.8" font-family="Times,serif" font-size="14.00">new</text>
<text text-anchor="start" x="-145.5" y="-13.8" font-family="Times,serif" font-size="14.00">show</text>
<text text-anchor="start" x="-145.5" y="1.2" font-family="Times,serif" font-size="14.00">update</text>
<polyline fill="none" stroke="black" points="-153.5,9 133.5,9 "/>
<polyline fill="none" stroke="black" points="-153.5,33 133.5,33 "/>
<text text-anchor="start" x="-145.5" y="48.2" font-family="Times,serif" font-size="14.00">_layout</text>
<text text-anchor="start" x="-145.5" y="63.2" font-family="Times,serif" font-size="14.00">choice_params</text>
<text text-anchor="start" x="-145.5" y="78.2" font-family="Times,serif" font-size="14.00">get_category_and_sub_and_question</text>
<text text-anchor="start" x="-145.5" y="93.2" font-family="Times,serif" font-size="14.00">show_choices_index</text>
<text text-anchor="start" x="-145.5" y="108.2" font-family="Times,serif" font-size="14.00">update_choice</text>
<text text-anchor="start" x="-145.5" y="123.2" font-family="Times,serif" font-size="14.00">update_if_correct_choice</text>
</g>
<!-- Backend::SectionsController -->
<g id="node33" class="node"><title>Backend::SectionsController</title>
<path fill="none" stroke="black" d="M100,-440.5C100,-440.5 294,-440.5 294,-440.5 300,-440.5 306,-446.5 306,-452.5 306,-452.5 306,-641.5 306,-641.5 306,-647.5 300,-653.5 294,-653.5 294,-653.5 100,-653.5 100,-653.5 94,-653.5 88,-647.5 88,-641.5 88,-641.5 88,-452.5 88,-452.5 88,-446.5 94,-440.5 100,-440.5"/>
<text text-anchor="middle" x="197" y="-638.3" font-family="Times,serif" font-size="14.00">Backend::SectionsController</text>
<polyline fill="none" stroke="black" points="88,-630.5 306,-630.5 "/>
<text text-anchor="start" x="96" y="-615.3" font-family="Times,serif" font-size="14.00">create</text>
<text text-anchor="start" x="96" y="-600.3" font-family="Times,serif" font-size="14.00">destroy</text>
<text text-anchor="start" x="96" y="-585.3" font-family="Times,serif" font-size="14.00">edit</text>
<text text-anchor="start" x="96" y="-570.3" font-family="Times,serif" font-size="14.00">index</text>
<text text-anchor="start" x="96" y="-555.3" font-family="Times,serif" font-size="14.00">new</text>
<text text-anchor="start" x="96" y="-540.3" font-family="Times,serif" font-size="14.00">show</text>
<text text-anchor="start" x="96" y="-525.3" font-family="Times,serif" font-size="14.00">update</text>
<polyline fill="none" stroke="black" points="88,-517.5 306,-517.5 "/>
<polyline fill="none" stroke="black" points="88,-493.5 306,-493.5 "/>
<text text-anchor="start" x="96" y="-478.3" font-family="Times,serif" font-size="14.00">_layout</text>
<text text-anchor="start" x="96" y="-463.3" font-family="Times,serif" font-size="14.00">section_params</text>
<text text-anchor="start" x="96" y="-448.3" font-family="Times,serif" font-size="14.00">set_section</text>
</g>
</g>
</svg>
