<?xml version="1.0" encoding="UTF-8" standalone="no"?>
<!DOCTYPE svg PUBLIC "-//W3C//DTD SVG 1.1//EN"
 "http://www.w3.org/Graphics/SVG/1.1/DTD/svg11.dtd">
<!-- Generated by graphviz version 2.38.0 (20140413.2041)
 -->
<!-- Title: controllers_diagram Pages: 1 -->
<svg width="1454pt" height="1460pt"
 viewBox="0.00 0.00 1454.00 1460.00" xmlns="http://www.w3.org/2000/svg" xmlns:xlink="http://www.w3.org/1999/xlink">
<g id="graph0" class="graph" transform="scale(1 1) rotate(0) translate(598 818)">
<title>controllers_diagram</title>
<polygon fill="none" stroke="none" points="-598,642 -598,-818 856,-818 856,642 -598,642"/>
<!-- _diagram_info -->
<g id="node1" class="node"><title>_diagram_info</title>
<text text-anchor="start" x="-388" y="442.4" font-family="Times,serif" font-size="13.00">Controllers diagram</text>
<text text-anchor="start" x="-388" y="456.4" font-family="Times,serif" font-size="13.00">Date: Jul 21 2016 &#45; 08:14</text>
<text text-anchor="start" x="-388" y="470.4" font-family="Times,serif" font-size="13.00">Migration version: 20160721110348</text>
<text text-anchor="start" x="-388" y="484.4" font-family="Times,serif" font-size="13.00">Generated by RailRoady 1.5.1</text>
<text text-anchor="start" x="-388" y="498.4" font-family="Times,serif" font-size="13.00">http://railroady.prestonlee.com</text>
</g>
<!-- HomeController -->
<g id="node2" class="node"><title>HomeController</title>
<path fill="none" stroke="black" d="M-185.5,-660.5C-185.5,-660.5 -78.5,-660.5 -78.5,-660.5 -72.5,-660.5 -66.5,-666.5 -66.5,-672.5 -66.5,-672.5 -66.5,-801.5 -66.5,-801.5 -66.5,-807.5 -72.5,-813.5 -78.5,-813.5 -78.5,-813.5 -185.5,-813.5 -185.5,-813.5 -191.5,-813.5 -197.5,-807.5 -197.5,-801.5 -197.5,-801.5 -197.5,-672.5 -197.5,-672.5 -197.5,-666.5 -191.5,-660.5 -185.5,-660.5"/>
<text text-anchor="middle" x="-132" y="-798.3" font-family="Times,serif" font-size="14.00">HomeController</text>
<polyline fill="none" stroke="black" points="-197.5,-790.5 -66.5,-790.5 "/>
<text text-anchor="start" x="-189.5" y="-775.3" font-family="Times,serif" font-size="14.00">devise_mapping</text>
<text text-anchor="start" x="-189.5" y="-760.3" font-family="Times,serif" font-size="14.00">index</text>
<text text-anchor="start" x="-189.5" y="-745.3" font-family="Times,serif" font-size="14.00">payments</text>
<text text-anchor="start" x="-189.5" y="-730.3" font-family="Times,serif" font-size="14.00">resource</text>
<text text-anchor="start" x="-189.5" y="-715.3" font-family="Times,serif" font-size="14.00">resource_name</text>
<polyline fill="none" stroke="black" points="-197.5,-707.5 -66.5,-707.5 "/>
<polyline fill="none" stroke="black" points="-197.5,-683.5 -66.5,-683.5 "/>
<text text-anchor="start" x="-189.5" y="-668.3" font-family="Times,serif" font-size="14.00">_layout</text>
</g>
<!-- Student::CourseUserTestsController -->
<g id="node3" class="node"><title>Student::CourseUserTestsController</title>
<path fill="none" stroke="black" d="M-142,-177C-142,-177 112,-177 112,-177 118,-177 124,-183 124,-189 124,-189 124,-363 124,-363 124,-369 118,-375 112,-375 112,-375 -142,-375 -142,-375 -148,-375 -154,-369 -154,-363 -154,-363 -154,-189 -154,-189 -154,-183 -148,-177 -142,-177"/>
<text text-anchor="middle" x="-15" y="-359.8" font-family="Times,serif" font-size="14.00">Student::CourseUserTestsController</text>
<polyline fill="none" stroke="black" points="-154,-352 124,-352 "/>
<text text-anchor="start" x="-146" y="-336.8" font-family="Times,serif" font-size="14.00">edit</text>
<text text-anchor="start" x="-146" y="-321.8" font-family="Times,serif" font-size="14.00">index</text>
<text text-anchor="start" x="-146" y="-306.8" font-family="Times,serif" font-size="14.00">new</text>
<text text-anchor="start" x="-146" y="-291.8" font-family="Times,serif" font-size="14.00">update</text>
<polyline fill="none" stroke="black" points="-154,-284 124,-284 "/>
<polyline fill="none" stroke="black" points="-154,-260 124,-260 "/>
<text text-anchor="start" x="-146" y="-244.8" font-family="Times,serif" font-size="14.00">_layout</text>
<text text-anchor="start" x="-146" y="-229.8" font-family="Times,serif" font-size="14.00">course_user_test_params</text>
<text text-anchor="start" x="-146" y="-214.8" font-family="Times,serif" font-size="14.00">load_course_user_test</text>
<text text-anchor="start" x="-146" y="-199.8" font-family="Times,serif" font-size="14.00">set_answers</text>
<text text-anchor="start" x="-146" y="-184.8" font-family="Times,serif" font-size="14.00">set_course_user_test</text>
</g>
<!-- Student::TestsController -->
<g id="node4" class="node"><title>Student::TestsController</title>
<path fill="none" stroke="black" d="M-9.5,-661C-9.5,-661 163.5,-661 163.5,-661 169.5,-661 175.5,-667 175.5,-673 175.5,-673 175.5,-757 175.5,-757 175.5,-763 169.5,-769 163.5,-769 163.5,-769 -9.5,-769 -9.5,-769 -15.5,-769 -21.5,-763 -21.5,-757 -21.5,-757 -21.5,-673 -21.5,-673 -21.5,-667 -15.5,-661 -9.5,-661"/>
<text text-anchor="middle" x="77" y="-753.8" font-family="Times,serif" font-size="14.00">Student::TestsController</text>
<polyline fill="none" stroke="black" points="-21.5,-746 175.5,-746 "/>
<text text-anchor="start" x="-13.5" y="-730.8" font-family="Times,serif" font-size="14.00">index</text>
<polyline fill="none" stroke="black" points="-21.5,-723 175.5,-723 "/>
<polyline fill="none" stroke="black" points="-21.5,-699 175.5,-699 "/>
<text text-anchor="start" x="-13.5" y="-683.8" font-family="Times,serif" font-size="14.00">_layout</text>
<text text-anchor="start" x="-13.5" y="-668.8" font-family="Times,serif" font-size="14.00">load_course</text>
</g>
<!-- Student::ProgressController -->
<g id="node5" class="node"><title>Student::ProgressController</title>
<path fill="none" stroke="black" d="M-98.5,549C-98.5,549 98.5,549 98.5,549 104.5,549 110.5,543 110.5,537 110.5,537 110.5,453 110.5,453 110.5,447 104.5,441 98.5,441 98.5,441 -98.5,441 -98.5,441 -104.5,441 -110.5,447 -110.5,453 -110.5,453 -110.5,537 -110.5,537 -110.5,543 -104.5,549 -98.5,549"/>
<text text-anchor="middle" x="0" y="456.2" font-family="Times,serif" font-size="14.00">Student::ProgressController</text>
<polyline fill="none" stroke="black" points="-110.5,464 110.5,464 "/>
<text text-anchor="start" x="-102.5" y="479.2" font-family="Times,serif" font-size="14.00">index</text>
<polyline fill="none" stroke="black" points="-110.5,487 110.5,487 "/>
<polyline fill="none" stroke="black" points="-110.5,511 110.5,511 "/>
<text text-anchor="start" x="-102.5" y="526.2" font-family="Times,serif" font-size="14.00">_layout</text>
<text text-anchor="start" x="-102.5" y="541.2" font-family="Times,serif" font-size="14.00">set_data</text>
</g>
<!-- Student::LiveClassesController -->
<g id="node6" class="node"><title>Student::LiveClassesController</title>
<path fill="none" stroke="black" d="M165.5,593.5C165.5,593.5 380.5,593.5 380.5,593.5 386.5,593.5 392.5,587.5 392.5,581.5 392.5,581.5 392.5,512.5 392.5,512.5 392.5,506.5 386.5,500.5 380.5,500.5 380.5,500.5 165.5,500.5 165.5,500.5 159.5,500.5 153.5,506.5 153.5,512.5 153.5,512.5 153.5,581.5 153.5,581.5 153.5,587.5 159.5,593.5 165.5,593.5"/>
<text text-anchor="middle" x="273" y="515.7" font-family="Times,serif" font-size="14.00">Student::LiveClassesController</text>
<polyline fill="none" stroke="black" points="153.5,523.5 392.5,523.5 "/>
<text text-anchor="start" x="161.5" y="538.7" font-family="Times,serif" font-size="14.00">index</text>
<polyline fill="none" stroke="black" points="153.5,546.5 392.5,546.5 "/>
<polyline fill="none" stroke="black" points="153.5,570.5 392.5,570.5 "/>
<text text-anchor="start" x="161.5" y="585.7" font-family="Times,serif" font-size="14.00">_layout</text>
</g>
<!-- Student::CategoriesController -->
<g id="node7" class="node"><title>Student::CategoriesController</title>
<path fill="none" stroke="black" d="M-384,395.5C-384,395.5 -174,395.5 -174,395.5 -168,395.5 -162,389.5 -162,383.5 -162,383.5 -162,194.5 -162,194.5 -162,188.5 -168,182.5 -174,182.5 -174,182.5 -384,182.5 -384,182.5 -390,182.5 -396,188.5 -396,194.5 -396,194.5 -396,383.5 -396,383.5 -396,389.5 -390,395.5 -384,395.5"/>
<text text-anchor="middle" x="-279" y="197.7" font-family="Times,serif" font-size="14.00">Student::CategoriesController</text>
<polyline fill="none" stroke="black" points="-396,205.5 -162,205.5 "/>
<text text-anchor="start" x="-388" y="220.7" font-family="Times,serif" font-size="14.00">create</text>
<text text-anchor="start" x="-388" y="235.7" font-family="Times,serif" font-size="14.00">delete</text>
<text text-anchor="start" x="-388" y="250.7" font-family="Times,serif" font-size="14.00">edit</text>
<text text-anchor="start" x="-388" y="265.7" font-family="Times,serif" font-size="14.00">index</text>
<text text-anchor="start" x="-388" y="280.7" font-family="Times,serif" font-size="14.00">new</text>
<text text-anchor="start" x="-388" y="295.7" font-family="Times,serif" font-size="14.00">show</text>
<text text-anchor="start" x="-388" y="310.7" font-family="Times,serif" font-size="14.00">update</text>
<polyline fill="none" stroke="black" points="-396,318.5 -162,318.5 "/>
<polyline fill="none" stroke="black" points="-396,342.5 -162,342.5 "/>
<text text-anchor="start" x="-388" y="357.7" font-family="Times,serif" font-size="14.00">_layout</text>
<text text-anchor="start" x="-388" y="372.7" font-family="Times,serif" font-size="14.00">category_params</text>
<text text-anchor="start" x="-388" y="387.7" font-family="Times,serif" font-size="14.00">set_data</text>
</g>
<!-- Student::ResourcesController -->
<g id="node8" class="node"><title>Student::ResourcesController</title>
<path fill="none" stroke="black" d="M-76,-419C-76,-419 130,-419 130,-419 136,-419 142,-425 142,-431 142,-431 142,-605 142,-605 142,-611 136,-617 130,-617 130,-617 -76,-617 -76,-617 -82,-617 -88,-611 -88,-605 -88,-605 -88,-431 -88,-431 -88,-425 -82,-419 -76,-419"/>
<text text-anchor="middle" x="27" y="-601.8" font-family="Times,serif" font-size="14.00">Student::ResourcesController</text>
<polyline fill="none" stroke="black" points="-88,-594 142,-594 "/>
<text text-anchor="start" x="-80" y="-578.8" font-family="Times,serif" font-size="14.00">show</text>
<text text-anchor="start" x="-80" y="-563.8" font-family="Times,serif" font-size="14.00">update</text>
<polyline fill="none" stroke="black" points="-88,-556 142,-556 "/>
<polyline fill="none" stroke="black" points="-88,-532 142,-532 "/>
<text text-anchor="start" x="-80" y="-516.8" font-family="Times,serif" font-size="14.00">_layout</text>
<text text-anchor="start" x="-80" y="-501.8" font-family="Times,serif" font-size="14.00">completed?</text>
<text text-anchor="start" x="-80" y="-486.8" font-family="Times,serif" font-size="14.00">create_resource_progress</text>
<text text-anchor="start" x="-80" y="-471.8" font-family="Times,serif" font-size="14.00">destroy_answers</text>
<text text-anchor="start" x="-80" y="-456.8" font-family="Times,serif" font-size="14.00">resource_params</text>
<text text-anchor="start" x="-80" y="-441.8" font-family="Times,serif" font-size="14.00">set_data</text>
<text text-anchor="start" x="-80" y="-426.8" font-family="Times,serif" font-size="14.00">set_resource</text>
</g>
<!-- Student::CoursesController -->
<g id="node9" class="node"><title>Student::CoursesController</title>
<path fill="none" stroke="black" d="M517.5,-111C517.5,-111 706.5,-111 706.5,-111 712.5,-111 718.5,-117 718.5,-123 718.5,-123 718.5,-237 718.5,-237 718.5,-243 712.5,-249 706.5,-249 706.5,-249 517.5,-249 517.5,-249 511.5,-249 505.5,-243 505.5,-237 505.5,-237 505.5,-123 505.5,-123 505.5,-117 511.5,-111 517.5,-111"/>
<text text-anchor="middle" x="612" y="-233.8" font-family="Times,serif" font-size="14.00">Student::CoursesController</text>
<polyline fill="none" stroke="black" points="505.5,-226 718.5,-226 "/>
<text text-anchor="start" x="513.5" y="-210.8" font-family="Times,serif" font-size="14.00">index</text>
<text text-anchor="start" x="513.5" y="-195.8" font-family="Times,serif" font-size="14.00">show</text>
<polyline fill="none" stroke="black" points="505.5,-188 718.5,-188 "/>
<polyline fill="none" stroke="black" points="505.5,-164 718.5,-164 "/>
<text text-anchor="start" x="513.5" y="-148.8" font-family="Times,serif" font-size="14.00">_layout</text>
<text text-anchor="start" x="513.5" y="-133.8" font-family="Times,serif" font-size="14.00">set_course</text>
<text text-anchor="start" x="513.5" y="-118.8" font-family="Times,serif" font-size="14.00">set_course_user</text>
</g>
<!-- Student::TutorialsController -->
<g id="node10" class="node"><title>Student::TutorialsController</title>
<path fill="none" stroke="black" d="M-98.5,395C-98.5,395 100.5,395 100.5,395 106.5,395 112.5,389 112.5,383 112.5,383 112.5,179 112.5,179 112.5,173 106.5,167 100.5,167 100.5,167 -98.5,167 -98.5,167 -104.5,167 -110.5,173 -110.5,179 -110.5,179 -110.5,383 -110.5,383 -110.5,389 -104.5,395 -98.5,395"/>
<text text-anchor="middle" x="1" y="182.2" font-family="Times,serif" font-size="14.00">Student::TutorialsController</text>
<polyline fill="none" stroke="black" points="-110.5,190 112.5,190 "/>
<text text-anchor="start" x="-102.5" y="205.2" font-family="Times,serif" font-size="14.00">create</text>
<text text-anchor="start" x="-102.5" y="220.2" font-family="Times,serif" font-size="14.00">destroy</text>
<text text-anchor="start" x="-102.5" y="235.2" font-family="Times,serif" font-size="14.00">edit</text>
<text text-anchor="start" x="-102.5" y="250.2" font-family="Times,serif" font-size="14.00">index</text>
<text text-anchor="start" x="-102.5" y="265.2" font-family="Times,serif" font-size="14.00">new</text>
<text text-anchor="start" x="-102.5" y="280.2" font-family="Times,serif" font-size="14.00">show</text>
<text text-anchor="start" x="-102.5" y="295.2" font-family="Times,serif" font-size="14.00">update</text>
<polyline fill="none" stroke="black" points="-110.5,303 112.5,303 "/>
<polyline fill="none" stroke="black" points="-110.5,327 112.5,327 "/>
<text text-anchor="start" x="-102.5" y="342.2" font-family="Times,serif" font-size="14.00">_layout</text>
<text text-anchor="start" x="-102.5" y="357.2" font-family="Times,serif" font-size="14.00">set_data</text>
<text text-anchor="start" x="-102.5" y="372.2" font-family="Times,serif" font-size="14.00">set_tutorial</text>
<text text-anchor="start" x="-102.5" y="387.2" font-family="Times,serif" font-size="14.00">tutorial_params</text>
</g>
<!-- Student::StudentController -->
<g id="node11" class="node"><title>Student::StudentController</title>
<path fill="none" stroke="black" d="M518.5,-287C518.5,-287 709.5,-287 709.5,-287 715.5,-287 721.5,-293 721.5,-299 721.5,-299 721.5,-413 721.5,-413 721.5,-419 715.5,-425 709.5,-425 709.5,-425 518.5,-425 518.5,-425 512.5,-425 506.5,-419 506.5,-413 506.5,-413 506.5,-299 506.5,-299 506.5,-293 512.5,-287 518.5,-287"/>
<text text-anchor="middle" x="614" y="-409.8" font-family="Times,serif" font-size="14.00">Student::StudentController</text>
<polyline fill="none" stroke="black" points="506.5,-402 721.5,-402 "/>
<text text-anchor="start" x="514.5" y="-386.8" font-family="Times,serif" font-size="14.00">check_plan</text>
<text text-anchor="start" x="514.5" y="-371.8" font-family="Times,serif" font-size="14.00">course_user</text>
<text text-anchor="start" x="514.5" y="-356.8" font-family="Times,serif" font-size="14.00">redirect_if_premium_plan</text>
<text text-anchor="start" x="514.5" y="-341.8" font-family="Times,serif" font-size="14.00">update_tests_data</text>
<polyline fill="none" stroke="black" points="506.5,-334 721.5,-334 "/>
<polyline fill="none" stroke="black" points="506.5,-310 721.5,-310 "/>
<text text-anchor="start" x="514.5" y="-294.8" font-family="Times,serif" font-size="14.00">_layout</text>
</g>
<!-- SessionsController -->
<g id="node12" class="node"><title>SessionsController</title>
<path fill="none" stroke="black" d="M-339.5,131C-339.5,131 -212.5,131 -212.5,131 -206.5,131 -200.5,125 -200.5,119 -200.5,119 -200.5,49 -200.5,49 -200.5,43 -206.5,37 -212.5,37 -212.5,37 -339.5,37 -339.5,37 -345.5,37 -351.5,43 -351.5,49 -351.5,49 -351.5,119 -351.5,119 -351.5,125 -345.5,131 -339.5,131"/>
<text text-anchor="middle" x="-276" y="52.2" font-family="Times,serif" font-size="14.00">SessionsController</text>
<polyline fill="none" stroke="black" points="-351.5,60 -200.5,60 "/>
<polyline fill="none" stroke="black" points="-351.5,84 -200.5,84 "/>
<polyline fill="none" stroke="black" points="-351.5,108 -200.5,108 "/>
<text text-anchor="start" x="-343.5" y="123.2" font-family="Times,serif" font-size="14.00">_layout</text>
</g>
<!-- SimulatorsController -->
<g id="node13" class="node"><title>SimulatorsController</title>
<path fill="none" stroke="black" d="M-383.5,-0.5C-383.5,-0.5 -198.5,-0.5 -198.5,-0.5 -192.5,-0.5 -186.5,-6.5 -186.5,-12.5 -186.5,-12.5 -186.5,-231.5 -186.5,-231.5 -186.5,-237.5 -192.5,-243.5 -198.5,-243.5 -198.5,-243.5 -383.5,-243.5 -383.5,-243.5 -389.5,-243.5 -395.5,-237.5 -395.5,-231.5 -395.5,-231.5 -395.5,-12.5 -395.5,-12.5 -395.5,-6.5 -389.5,-0.5 -383.5,-0.5"/>
<text text-anchor="middle" x="-291" y="-228.3" font-family="Times,serif" font-size="14.00">SimulatorsController</text>
<polyline fill="none" stroke="black" points="-395.5,-220.5 -186.5,-220.5 "/>
<text text-anchor="start" x="-387.5" y="-205.3" font-family="Times,serif" font-size="14.00">create</text>
<text text-anchor="start" x="-387.5" y="-190.3" font-family="Times,serif" font-size="14.00">delete</text>
<text text-anchor="start" x="-387.5" y="-175.3" font-family="Times,serif" font-size="14.00">filter_chart</text>
<text text-anchor="start" x="-387.5" y="-160.3" font-family="Times,serif" font-size="14.00">finish_simulator</text>
<text text-anchor="start" x="-387.5" y="-145.3" font-family="Times,serif" font-size="14.00">index</text>
<text text-anchor="start" x="-387.5" y="-130.3" font-family="Times,serif" font-size="14.00">new</text>
<text text-anchor="start" x="-387.5" y="-115.3" font-family="Times,serif" font-size="14.00">pause_simulator</text>
<text text-anchor="start" x="-387.5" y="-100.3" font-family="Times,serif" font-size="14.00">show</text>
<text text-anchor="start" x="-387.5" y="-85.3" font-family="Times,serif" font-size="14.00">show_answered_questions</text>
<text text-anchor="start" x="-387.5" y="-70.3" font-family="Times,serif" font-size="14.00">update</text>
<polyline fill="none" stroke="black" points="-395.5,-62.5 -186.5,-62.5 "/>
<polyline fill="none" stroke="black" points="-395.5,-38.5 -186.5,-38.5 "/>
<text text-anchor="start" x="-387.5" y="-23.3" font-family="Times,serif" font-size="14.00">_layout</text>
<text text-anchor="start" x="-387.5" y="-8.3" font-family="Times,serif" font-size="14.00">simulator_params</text>
</g>
<!-- SchoolsController -->
<g id="node14" class="node"><title>SchoolsController</title>
<path fill="none" stroke="black" d="M-559.5,-0.5C-559.5,-0.5 -440.5,-0.5 -440.5,-0.5 -434.5,-0.5 -428.5,-6.5 -428.5,-12.5 -428.5,-12.5 -428.5,-201.5 -428.5,-201.5 -428.5,-207.5 -434.5,-213.5 -440.5,-213.5 -440.5,-213.5 -559.5,-213.5 -559.5,-213.5 -565.5,-213.5 -571.5,-207.5 -571.5,-201.5 -571.5,-201.5 -571.5,-12.5 -571.5,-12.5 -571.5,-6.5 -565.5,-0.5 -559.5,-0.5"/>
<text text-anchor="middle" x="-500" y="-198.3" font-family="Times,serif" font-size="14.00">SchoolsController</text>
<polyline fill="none" stroke="black" points="-571.5,-190.5 -428.5,-190.5 "/>
<text text-anchor="start" x="-563.5" y="-175.3" font-family="Times,serif" font-size="14.00">create</text>
<text text-anchor="start" x="-563.5" y="-160.3" font-family="Times,serif" font-size="14.00">destroy</text>
<text text-anchor="start" x="-563.5" y="-145.3" font-family="Times,serif" font-size="14.00">edit</text>
<text text-anchor="start" x="-563.5" y="-130.3" font-family="Times,serif" font-size="14.00">index</text>
<text text-anchor="start" x="-563.5" y="-115.3" font-family="Times,serif" font-size="14.00">new</text>
<text text-anchor="start" x="-563.5" y="-100.3" font-family="Times,serif" font-size="14.00">show</text>
<text text-anchor="start" x="-563.5" y="-85.3" font-family="Times,serif" font-size="14.00">update</text>
<polyline fill="none" stroke="black" points="-571.5,-77.5 -428.5,-77.5 "/>
<polyline fill="none" stroke="black" points="-571.5,-53.5 -428.5,-53.5 "/>
<text text-anchor="start" x="-563.5" y="-38.3" font-family="Times,serif" font-size="14.00">_layout</text>
<text text-anchor="start" x="-563.5" y="-23.3" font-family="Times,serif" font-size="14.00">school_params</text>
<text text-anchor="start" x="-563.5" y="-8.3" font-family="Times,serif" font-size="14.00">set_school</text>
</g>
<!-- AnsweredQuestionsController -->
<g id="node15" class="node"><title>AnsweredQuestionsController</title>
<path fill="none" stroke="black" d="M209.5,197C209.5,197 416.5,197 416.5,197 422.5,197 428.5,191 428.5,185 428.5,185 428.5,-19 428.5,-19 428.5,-25 422.5,-31 416.5,-31 416.5,-31 209.5,-31 209.5,-31 203.5,-31 197.5,-25 197.5,-19 197.5,-19 197.5,185 197.5,185 197.5,191 203.5,197 209.5,197"/>
<text text-anchor="middle" x="313" y="-15.8" font-family="Times,serif" font-size="14.00">AnsweredQuestionsController</text>
<polyline fill="none" stroke="black" points="197.5,-8 428.5,-8 "/>
<text text-anchor="start" x="205.5" y="7.2" font-family="Times,serif" font-size="14.00">create</text>
<text text-anchor="start" x="205.5" y="22.2" font-family="Times,serif" font-size="14.00">delete</text>
<text text-anchor="start" x="205.5" y="37.2" font-family="Times,serif" font-size="14.00">edit</text>
<text text-anchor="start" x="205.5" y="52.2" font-family="Times,serif" font-size="14.00">index</text>
<text text-anchor="start" x="205.5" y="67.2" font-family="Times,serif" font-size="14.00">new</text>
<text text-anchor="start" x="205.5" y="82.2" font-family="Times,serif" font-size="14.00">show</text>
<text text-anchor="start" x="205.5" y="97.2" font-family="Times,serif" font-size="14.00">update</text>
<polyline fill="none" stroke="black" points="197.5,105 428.5,105 "/>
<polyline fill="none" stroke="black" points="197.5,129 428.5,129 "/>
<text text-anchor="start" x="205.5" y="144.2" font-family="Times,serif" font-size="14.00">_layout</text>
<text text-anchor="start" x="205.5" y="159.2" font-family="Times,serif" font-size="14.00">answer_is_correct</text>
<text text-anchor="start" x="205.5" y="174.2" font-family="Times,serif" font-size="14.00">answered_question_params</text>
<text text-anchor="start" x="205.5" y="189.2" font-family="Times,serif" font-size="14.00">get_category_and_sub</text>
</g>
<!-- OmniauthCallbacksController -->
<g id="node16" class="node"><title>OmniauthCallbacksController</title>
<path fill="none" stroke="black" d="M452,615C452,615 652,615 652,615 658,615 664,609 664,603 664,603 664,519 664,519 664,513 658,507 652,507 652,507 452,507 452,507 446,507 440,513 440,519 440,519 440,603 440,603 440,609 446,615 452,615"/>
<text text-anchor="middle" x="552" y="522.2" font-family="Times,serif" font-size="14.00">OmniauthCallbacksController</text>
<polyline fill="none" stroke="black" points="440,530 664,530 "/>
<text text-anchor="start" x="448" y="545.2" font-family="Times,serif" font-size="14.00">facebook</text>
<text text-anchor="start" x="448" y="560.2" font-family="Times,serif" font-size="14.00">failure</text>
<polyline fill="none" stroke="black" points="440,568 664,568 "/>
<polyline fill="none" stroke="black" points="440,592 664,592 "/>
<text text-anchor="start" x="448" y="607.2" font-family="Times,serif" font-size="14.00">_layout</text>
</g>
<!-- CategoriesController -->
<g id="node17" class="node"><title>CategoriesController</title>
<path fill="none" stroke="black" d="M473.5,461C473.5,461 616.5,461 616.5,461 622.5,461 628.5,455 628.5,449 628.5,449 628.5,215 628.5,215 628.5,209 622.5,203 616.5,203 616.5,203 473.5,203 473.5,203 467.5,203 461.5,209 461.5,215 461.5,215 461.5,449 461.5,449 461.5,455 467.5,461 473.5,461"/>
<text text-anchor="middle" x="545" y="218.2" font-family="Times,serif" font-size="14.00">CategoriesController</text>
<polyline fill="none" stroke="black" points="461.5,226 628.5,226 "/>
<text text-anchor="start" x="469.5" y="241.2" font-family="Times,serif" font-size="14.00">create</text>
<text text-anchor="start" x="469.5" y="256.2" font-family="Times,serif" font-size="14.00">delete</text>
<text text-anchor="start" x="469.5" y="271.2" font-family="Times,serif" font-size="14.00">devise_mapping</text>
<text text-anchor="start" x="469.5" y="286.2" font-family="Times,serif" font-size="14.00">edit</text>
<text text-anchor="start" x="469.5" y="301.2" font-family="Times,serif" font-size="14.00">filter_chart</text>
<text text-anchor="start" x="469.5" y="316.2" font-family="Times,serif" font-size="14.00">index</text>
<text text-anchor="start" x="469.5" y="331.2" font-family="Times,serif" font-size="14.00">new</text>
<text text-anchor="start" x="469.5" y="346.2" font-family="Times,serif" font-size="14.00">resource</text>
<text text-anchor="start" x="469.5" y="361.2" font-family="Times,serif" font-size="14.00">resource_name</text>
<text text-anchor="start" x="469.5" y="376.2" font-family="Times,serif" font-size="14.00">show</text>
<text text-anchor="start" x="469.5" y="391.2" font-family="Times,serif" font-size="14.00">update</text>
<polyline fill="none" stroke="black" points="461.5,399 628.5,399 "/>
<polyline fill="none" stroke="black" points="461.5,423 628.5,423 "/>
<text text-anchor="start" x="469.5" y="438.2" font-family="Times,serif" font-size="14.00">_layout</text>
<text text-anchor="start" x="469.5" y="453.2" font-family="Times,serif" font-size="14.00">category_params</text>
</g>
<!-- TasksController -->
<g id="node18" class="node"><title>TasksController</title>
<path fill="none" stroke="black" d="M-559.5,-330.5C-559.5,-330.5 -452.5,-330.5 -452.5,-330.5 -446.5,-330.5 -440.5,-336.5 -440.5,-342.5 -440.5,-342.5 -440.5,-531.5 -440.5,-531.5 -440.5,-537.5 -446.5,-543.5 -452.5,-543.5 -452.5,-543.5 -559.5,-543.5 -559.5,-543.5 -565.5,-543.5 -571.5,-537.5 -571.5,-531.5 -571.5,-531.5 -571.5,-342.5 -571.5,-342.5 -571.5,-336.5 -565.5,-330.5 -559.5,-330.5"/>
<text text-anchor="middle" x="-506" y="-528.3" font-family="Times,serif" font-size="14.00">TasksController</text>
<polyline fill="none" stroke="black" points="-571.5,-520.5 -440.5,-520.5 "/>
<text text-anchor="start" x="-563.5" y="-505.3" font-family="Times,serif" font-size="14.00">create</text>
<text text-anchor="start" x="-563.5" y="-490.3" font-family="Times,serif" font-size="14.00">destroy</text>
<text text-anchor="start" x="-563.5" y="-475.3" font-family="Times,serif" font-size="14.00">edit</text>
<text text-anchor="start" x="-563.5" y="-460.3" font-family="Times,serif" font-size="14.00">index</text>
<text text-anchor="start" x="-563.5" y="-445.3" font-family="Times,serif" font-size="14.00">new</text>
<text text-anchor="start" x="-563.5" y="-430.3" font-family="Times,serif" font-size="14.00">show</text>
<text text-anchor="start" x="-563.5" y="-415.3" font-family="Times,serif" font-size="14.00">update</text>
<polyline fill="none" stroke="black" points="-571.5,-407.5 -440.5,-407.5 "/>
<polyline fill="none" stroke="black" points="-571.5,-383.5 -440.5,-383.5 "/>
<text text-anchor="start" x="-563.5" y="-368.3" font-family="Times,serif" font-size="14.00">_layout</text>
<text text-anchor="start" x="-563.5" y="-353.3" font-family="Times,serif" font-size="14.00">set_task</text>
<text text-anchor="start" x="-563.5" y="-338.3" font-family="Times,serif" font-size="14.00">task_params</text>
</g>
<!-- SimulatorAnsweredQuestionsController -->
<g id="node19" class="node"><title>SimulatorAnsweredQuestionsController</title>
<path fill="none" stroke="black" d="M-142,131C-142,131 136,131 136,131 142,131 148,125 148,119 148,119 148,-115 148,-115 148,-121 142,-127 136,-127 136,-127 -142,-127 -142,-127 -148,-127 -154,-121 -154,-115 -154,-115 -154,119 -154,119 -154,125 -148,131 -142,131"/>
<text text-anchor="middle" x="-3" y="-111.8" font-family="Times,serif" font-size="14.00">SimulatorAnsweredQuestionsController</text>
<polyline fill="none" stroke="black" points="-154,-104 148,-104 "/>
<text text-anchor="start" x="-146" y="-88.8" font-family="Times,serif" font-size="14.00">create</text>
<text text-anchor="start" x="-146" y="-73.8" font-family="Times,serif" font-size="14.00">delete</text>
<text text-anchor="start" x="-146" y="-58.8" font-family="Times,serif" font-size="14.00">edit</text>
<text text-anchor="start" x="-146" y="-43.8" font-family="Times,serif" font-size="14.00">index</text>
<text text-anchor="start" x="-146" y="-28.8" font-family="Times,serif" font-size="14.00">new</text>
<text text-anchor="start" x="-146" y="-13.8" font-family="Times,serif" font-size="14.00">show</text>
<text text-anchor="start" x="-146" y="1.2" font-family="Times,serif" font-size="14.00">update</text>
<polyline fill="none" stroke="black" points="-154,9 148,9 "/>
<polyline fill="none" stroke="black" points="-154,33 148,33 "/>
<text text-anchor="start" x="-146" y="48.2" font-family="Times,serif" font-size="14.00">_layout</text>
<text text-anchor="start" x="-146" y="63.2" font-family="Times,serif" font-size="14.00">answer_status</text>
<text text-anchor="start" x="-146" y="78.2" font-family="Times,serif" font-size="14.00">answered_question_params</text>
<text text-anchor="start" x="-146" y="93.2" font-family="Times,serif" font-size="14.00">get_clue_class</text>
<text text-anchor="start" x="-146" y="108.2" font-family="Times,serif" font-size="14.00">get_simulator_and_question</text>
<text text-anchor="start" x="-146" y="123.2" font-family="Times,serif" font-size="14.00">show_answered_question</text>
</g>
<!-- UniversitiesController -->
<g id="node20" class="node"><title>UniversitiesController</title>
<path fill="none" stroke="black" d="M496,-484.5C496,-484.5 650,-484.5 650,-484.5 656,-484.5 662,-490.5 662,-496.5 662,-496.5 662,-685.5 662,-685.5 662,-691.5 656,-697.5 650,-697.5 650,-697.5 496,-697.5 496,-697.5 490,-697.5 484,-691.5 484,-685.5 484,-685.5 484,-496.5 484,-496.5 484,-490.5 490,-484.5 496,-484.5"/>
<text text-anchor="middle" x="573" y="-682.3" font-family="Times,serif" font-size="14.00">UniversitiesController</text>
<polyline fill="none" stroke="black" points="484,-674.5 662,-674.5 "/>
<text text-anchor="start" x="492" y="-659.3" font-family="Times,serif" font-size="14.00">create</text>
<text text-anchor="start" x="492" y="-644.3" font-family="Times,serif" font-size="14.00">destroy</text>
<text text-anchor="start" x="492" y="-629.3" font-family="Times,serif" font-size="14.00">edit</text>
<text text-anchor="start" x="492" y="-614.3" font-family="Times,serif" font-size="14.00">index</text>
<text text-anchor="start" x="492" y="-599.3" font-family="Times,serif" font-size="14.00">new</text>
<text text-anchor="start" x="492" y="-584.3" font-family="Times,serif" font-size="14.00">show</text>
<text text-anchor="start" x="492" y="-569.3" font-family="Times,serif" font-size="14.00">update</text>
<polyline fill="none" stroke="black" points="484,-561.5 662,-561.5 "/>
<polyline fill="none" stroke="black" points="484,-537.5 662,-537.5 "/>
<text text-anchor="start" x="492" y="-522.3" font-family="Times,serif" font-size="14.00">_layout</text>
<text text-anchor="start" x="492" y="-507.3" font-family="Times,serif" font-size="14.00">set_university</text>
<text text-anchor="start" x="492" y="-492.3" font-family="Times,serif" font-size="14.00">university_params</text>
</g>
<!-- PointsController -->
<g id="node21" class="node"><title>PointsController</title>
<path fill="none" stroke="black" d="M-361.5,-661C-361.5,-661 -250.5,-661 -250.5,-661 -244.5,-661 -238.5,-667 -238.5,-673 -238.5,-673 -238.5,-757 -238.5,-757 -238.5,-763 -244.5,-769 -250.5,-769 -250.5,-769 -361.5,-769 -361.5,-769 -367.5,-769 -373.5,-763 -373.5,-757 -373.5,-757 -373.5,-673 -373.5,-673 -373.5,-667 -367.5,-661 -361.5,-661"/>
<text text-anchor="middle" x="-306" y="-753.8" font-family="Times,serif" font-size="14.00">PointsController</text>
<polyline fill="none" stroke="black" points="-373.5,-746 -238.5,-746 "/>
<text text-anchor="start" x="-365.5" y="-730.8" font-family="Times,serif" font-size="14.00">create</text>
<polyline fill="none" stroke="black" points="-373.5,-723 -238.5,-723 "/>
<polyline fill="none" stroke="black" points="-373.5,-699 -238.5,-699 "/>
<text text-anchor="start" x="-365.5" y="-683.8" font-family="Times,serif" font-size="14.00">_layout</text>
<text text-anchor="start" x="-365.5" y="-668.8" font-family="Times,serif" font-size="14.00">point_params</text>
</g>
<!-- ApplicationController -->
<g id="node22" class="node"><title>ApplicationController</title>
<path fill="none" stroke="black" d="M232.5,-484.5C232.5,-484.5 435.5,-484.5 435.5,-484.5 441.5,-484.5 447.5,-490.5 447.5,-496.5 447.5,-496.5 447.5,-625.5 447.5,-625.5 447.5,-631.5 441.5,-637.5 435.5,-637.5 435.5,-637.5 232.5,-637.5 232.5,-637.5 226.5,-637.5 220.5,-631.5 220.5,-625.5 220.5,-625.5 220.5,-496.5 220.5,-496.5 220.5,-490.5 226.5,-484.5 232.5,-484.5"/>
<text text-anchor="middle" x="334" y="-622.3" font-family="Times,serif" font-size="14.00">ApplicationController</text>
<polyline fill="none" stroke="black" points="220.5,-614.5 447.5,-614.5 "/>
<text text-anchor="start" x="228.5" y="-599.3" font-family="Times,serif" font-size="14.00">calculate_license_countdown</text>
<text text-anchor="start" x="228.5" y="-584.3" font-family="Times,serif" font-size="14.00">check_license</text>
<text text-anchor="start" x="228.5" y="-569.3" font-family="Times,serif" font-size="14.00">raise_not_found!</text>
<text text-anchor="start" x="228.5" y="-554.3" font-family="Times,serif" font-size="14.00">render_404</text>
<text text-anchor="start" x="228.5" y="-539.3" font-family="Times,serif" font-size="14.00">render_js_only</text>
<polyline fill="none" stroke="black" points="220.5,-531.5 447.5,-531.5 "/>
<polyline fill="none" stroke="black" points="220.5,-507.5 447.5,-507.5 "/>
<text text-anchor="start" x="228.5" y="-492.3" font-family="Times,serif" font-size="14.00">_layout</text>
</g>
<!-- CareersController -->
<g id="node23" class="node"><title>CareersController</title>
<path fill="none" stroke="black" d="M-582,263.5C-582,263.5 -460,263.5 -460,263.5 -454,263.5 -448,257.5 -448,251.5 -448,251.5 -448,62.5 -448,62.5 -448,56.5 -454,50.5 -460,50.5 -460,50.5 -582,50.5 -582,50.5 -588,50.5 -594,56.5 -594,62.5 -594,62.5 -594,251.5 -594,251.5 -594,257.5 -588,263.5 -582,263.5"/>
<text text-anchor="middle" x="-521" y="65.7" font-family="Times,serif" font-size="14.00">CareersController</text>
<polyline fill="none" stroke="black" points="-594,73.5 -448,73.5 "/>
<text text-anchor="start" x="-586" y="88.7" font-family="Times,serif" font-size="14.00">create</text>
<text text-anchor="start" x="-586" y="103.7" font-family="Times,serif" font-size="14.00">destroy</text>
<text text-anchor="start" x="-586" y="118.7" font-family="Times,serif" font-size="14.00">edit</text>
<text text-anchor="start" x="-586" y="133.7" font-family="Times,serif" font-size="14.00">index</text>
<text text-anchor="start" x="-586" y="148.7" font-family="Times,serif" font-size="14.00">new</text>
<text text-anchor="start" x="-586" y="163.7" font-family="Times,serif" font-size="14.00">show</text>
<text text-anchor="start" x="-586" y="178.7" font-family="Times,serif" font-size="14.00">update</text>
<polyline fill="none" stroke="black" points="-594,186.5 -448,186.5 "/>
<polyline fill="none" stroke="black" points="-594,210.5 -448,210.5 "/>
<text text-anchor="start" x="-586" y="225.7" font-family="Times,serif" font-size="14.00">_layout</text>
<text text-anchor="start" x="-586" y="240.7" font-family="Times,serif" font-size="14.00">career_params</text>
<text text-anchor="start" x="-586" y="255.7" font-family="Times,serif" font-size="14.00">set_career</text>
</g>
<!-- SubCategoriesController -->
<g id="node24" class="node"><title>SubCategoriesController</title>
<path fill="none" stroke="black" d="M-383.5,-397C-383.5,-397 -198.5,-397 -198.5,-397 -192.5,-397 -186.5,-403 -186.5,-409 -186.5,-409 -186.5,-613 -186.5,-613 -186.5,-619 -192.5,-625 -198.5,-625 -198.5,-625 -383.5,-625 -383.5,-625 -389.5,-625 -395.5,-619 -395.5,-613 -395.5,-613 -395.5,-409 -395.5,-409 -395.5,-403 -389.5,-397 -383.5,-397"/>
<text text-anchor="middle" x="-291" y="-609.8" font-family="Times,serif" font-size="14.00">SubCategoriesController</text>
<polyline fill="none" stroke="black" points="-395.5,-602 -186.5,-602 "/>
<text text-anchor="start" x="-387.5" y="-586.8" font-family="Times,serif" font-size="14.00">create</text>
<text text-anchor="start" x="-387.5" y="-571.8" font-family="Times,serif" font-size="14.00">delete</text>
<text text-anchor="start" x="-387.5" y="-556.8" font-family="Times,serif" font-size="14.00">edit</text>
<text text-anchor="start" x="-387.5" y="-541.8" font-family="Times,serif" font-size="14.00">index</text>
<text text-anchor="start" x="-387.5" y="-526.8" font-family="Times,serif" font-size="14.00">new</text>
<text text-anchor="start" x="-387.5" y="-511.8" font-family="Times,serif" font-size="14.00">show</text>
<text text-anchor="start" x="-387.5" y="-496.8" font-family="Times,serif" font-size="14.00">show_answered_questions</text>
<text text-anchor="start" x="-387.5" y="-481.8" font-family="Times,serif" font-size="14.00">update</text>
<polyline fill="none" stroke="black" points="-395.5,-474 -186.5,-474 "/>
<polyline fill="none" stroke="black" points="-395.5,-450 -186.5,-450 "/>
<text text-anchor="start" x="-387.5" y="-434.8" font-family="Times,serif" font-size="14.00">_layout</text>
<text text-anchor="start" x="-387.5" y="-419.8" font-family="Times,serif" font-size="14.00">get_category</text>
<text text-anchor="start" x="-387.5" y="-404.8" font-family="Times,serif" font-size="14.00">sub_category_params</text>
</g>
<!-- RegistrationsController -->
<g id="node25" class="node"><title>RegistrationsController</title>
<path fill="none" stroke="black" d="M672,461.5C672,461.5 840,461.5 840,461.5 846,461.5 852,455.5 852,449.5 852,449.5 852,350.5 852,350.5 852,344.5 846,338.5 840,338.5 840,338.5 672,338.5 672,338.5 666,338.5 660,344.5 660,350.5 660,350.5 660,449.5 660,449.5 660,455.5 666,461.5 672,461.5"/>
<text text-anchor="middle" x="756" y="353.7" font-family="Times,serif" font-size="14.00">RegistrationsController</text>
<polyline fill="none" stroke="black" points="660,361.5 852,361.5 "/>
<polyline fill="none" stroke="black" points="660,385.5 852,385.5 "/>
<text text-anchor="start" x="668" y="400.7" font-family="Times,serif" font-size="14.00">account_update_params</text>
<text text-anchor="start" x="668" y="415.7" font-family="Times,serif" font-size="14.00">sign_up_params</text>
<text text-anchor="start" x="668" y="430.7" font-family="Times,serif" font-size="14.00">update_resource</text>
<polyline fill="none" stroke="black" points="660,438.5 852,438.5 "/>
<text text-anchor="start" x="668" y="453.7" font-family="Times,serif" font-size="14.00">_layout</text>
</g>
<!-- TutorialsController -->
<g id="node26" class="node"><title>TutorialsController</title>
<path fill="none" stroke="black" d="M-582,527.5C-582,527.5 -450,527.5 -450,527.5 -444,527.5 -438,521.5 -438,515.5 -438,515.5 -438,326.5 -438,326.5 -438,320.5 -444,314.5 -450,314.5 -450,314.5 -582,314.5 -582,314.5 -588,314.5 -594,320.5 -594,326.5 -594,326.5 -594,515.5 -594,515.5 -594,521.5 -588,527.5 -582,527.5"/>
<text text-anchor="middle" x="-516" y="329.7" font-family="Times,serif" font-size="14.00">TutorialsController</text>
<polyline fill="none" stroke="black" points="-594,337.5 -438,337.5 "/>
<text text-anchor="start" x="-586" y="352.7" font-family="Times,serif" font-size="14.00">create</text>
<text text-anchor="start" x="-586" y="367.7" font-family="Times,serif" font-size="14.00">destroy</text>
<text text-anchor="start" x="-586" y="382.7" font-family="Times,serif" font-size="14.00">edit</text>
<text text-anchor="start" x="-586" y="397.7" font-family="Times,serif" font-size="14.00">index</text>
<text text-anchor="start" x="-586" y="412.7" font-family="Times,serif" font-size="14.00">new</text>
<text text-anchor="start" x="-586" y="427.7" font-family="Times,serif" font-size="14.00">show</text>
<text text-anchor="start" x="-586" y="442.7" font-family="Times,serif" font-size="14.00">update</text>
<polyline fill="none" stroke="black" points="-594,450.5 -438,450.5 "/>
<polyline fill="none" stroke="black" points="-594,474.5 -438,474.5 "/>
<text text-anchor="start" x="-586" y="489.7" font-family="Times,serif" font-size="14.00">_layout</text>
<text text-anchor="start" x="-586" y="504.7" font-family="Times,serif" font-size="14.00">set_tutorial</text>
<text text-anchor="start" x="-586" y="519.7" font-family="Times,serif" font-size="14.00">tutorial_params</text>
</g>
<!-- QuestionsController -->
<g id="node27" class="node"><title>QuestionsController</title>
<path fill="none" stroke="black" d="M166,461C166,461 324,461 324,461 330,461 336,455 336,449 336,449 336,245 336,245 336,239 330,233 324,233 324,233 166,233 166,233 160,233 154,239 154,245 154,245 154,449 154,449 154,455 160,461 166,461"/>
<text text-anchor="middle" x="245" y="248.2" font-family="Times,serif" font-size="14.00">QuestionsController</text>
<polyline fill="none" stroke="black" points="154,256 336,256 "/>
<text text-anchor="start" x="162" y="271.2" font-family="Times,serif" font-size="14.00">create</text>
<text text-anchor="start" x="162" y="286.2" font-family="Times,serif" font-size="14.00">delete</text>
<text text-anchor="start" x="162" y="301.2" font-family="Times,serif" font-size="14.00">edit</text>
<text text-anchor="start" x="162" y="316.2" font-family="Times,serif" font-size="14.00">index</text>
<text text-anchor="start" x="162" y="331.2" font-family="Times,serif" font-size="14.00">new</text>
<text text-anchor="start" x="162" y="346.2" font-family="Times,serif" font-size="14.00">show</text>
<text text-anchor="start" x="162" y="361.2" font-family="Times,serif" font-size="14.00">update</text>
<polyline fill="none" stroke="black" points="154,369 336,369 "/>
<polyline fill="none" stroke="black" points="154,393 336,393 "/>
<text text-anchor="start" x="162" y="408.2" font-family="Times,serif" font-size="14.00">_layout</text>
<text text-anchor="start" x="162" y="423.2" font-family="Times,serif" font-size="14.00">get_category_and_sub</text>
<text text-anchor="start" x="162" y="438.2" font-family="Times,serif" font-size="14.00">question_params</text>
<text text-anchor="start" x="162" y="453.2" font-family="Times,serif" font-size="14.00">show_questions_index</text>
</g>
<!-- ChoicesController -->
<g id="node28" class="node"><title>ChoicesController</title>
<path fill="none" stroke="black" d="M188.5,-177C188.5,-177 451.5,-177 451.5,-177 457.5,-177 463.5,-183 463.5,-189 463.5,-189 463.5,-423 463.5,-423 463.5,-429 457.5,-435 451.5,-435 451.5,-435 188.5,-435 188.5,-435 182.5,-435 176.5,-429 176.5,-423 176.5,-423 176.5,-189 176.5,-189 176.5,-183 182.5,-177 188.5,-177"/>
<text text-anchor="middle" x="320" y="-419.8" font-family="Times,serif" font-size="14.00">ChoicesController</text>
<polyline fill="none" stroke="black" points="176.5,-412 463.5,-412 "/>
<text text-anchor="start" x="184.5" y="-396.8" font-family="Times,serif" font-size="14.00">create</text>
<text text-anchor="start" x="184.5" y="-381.8" font-family="Times,serif" font-size="14.00">delete</text>
<text text-anchor="start" x="184.5" y="-366.8" font-family="Times,serif" font-size="14.00">edit</text>
<text text-anchor="start" x="184.5" y="-351.8" font-family="Times,serif" font-size="14.00">index</text>
<text text-anchor="start" x="184.5" y="-336.8" font-family="Times,serif" font-size="14.00">new</text>
<text text-anchor="start" x="184.5" y="-321.8" font-family="Times,serif" font-size="14.00">show</text>
<text text-anchor="start" x="184.5" y="-306.8" font-family="Times,serif" font-size="14.00">update</text>
<polyline fill="none" stroke="black" points="176.5,-299 463.5,-299 "/>
<polyline fill="none" stroke="black" points="176.5,-275 463.5,-275 "/>
<text text-anchor="start" x="184.5" y="-259.8" font-family="Times,serif" font-size="14.00">_layout</text>
<text text-anchor="start" x="184.5" y="-244.8" font-family="Times,serif" font-size="14.00">choice_params</text>
<text text-anchor="start" x="184.5" y="-229.8" font-family="Times,serif" font-size="14.00">get_category_and_sub_and_question</text>
<text text-anchor="start" x="184.5" y="-214.8" font-family="Times,serif" font-size="14.00">show_choices_index</text>
<text text-anchor="start" x="184.5" y="-199.8" font-family="Times,serif" font-size="14.00">update_choice</text>
<text text-anchor="start" x="184.5" y="-184.8" font-family="Times,serif" font-size="14.00">update_if_correct_choice</text>
</g>
<!-- Backend::DashboardController -->
<g id="node29" class="node"><title>Backend::DashboardController</title>
<path fill="none" stroke="black" d="M-384,637.5C-384,637.5 -176,637.5 -176,637.5 -170,637.5 -164,631.5 -164,625.5 -164,625.5 -164,556.5 -164,556.5 -164,550.5 -170,544.5 -176,544.5 -176,544.5 -384,544.5 -384,544.5 -390,544.5 -396,550.5 -396,556.5 -396,556.5 -396,625.5 -396,625.5 -396,631.5 -390,637.5 -384,637.5"/>
<text text-anchor="middle" x="-280" y="559.7" font-family="Times,serif" font-size="14.00">Backend::DashboardController</text>
<polyline fill="none" stroke="black" points="-396,567.5 -164,567.5 "/>
<text text-anchor="start" x="-388" y="582.7" font-family="Times,serif" font-size="14.00">index</text>
<polyline fill="none" stroke="black" points="-396,590.5 -164,590.5 "/>
<polyline fill="none" stroke="black" points="-396,614.5 -164,614.5 "/>
<text text-anchor="start" x="-388" y="629.7" font-family="Times,serif" font-size="14.00">_layout</text>
</g>
<!-- Backend::BlogsController -->
<g id="node30" class="node"><title>Backend::BlogsController</title>
<path fill="none" stroke="black" d="M474,153.5C474,153.5 646,153.5 646,153.5 652,153.5 658,147.5 658,141.5 658,141.5 658,-47.5 658,-47.5 658,-53.5 652,-59.5 646,-59.5 646,-59.5 474,-59.5 474,-59.5 468,-59.5 462,-53.5 462,-47.5 462,-47.5 462,141.5 462,141.5 462,147.5 468,153.5 474,153.5"/>
<text text-anchor="middle" x="560" y="-44.3" font-family="Times,serif" font-size="14.00">Backend::BlogsController</text>
<polyline fill="none" stroke="black" points="462,-36.5 658,-36.5 "/>
<text text-anchor="start" x="470" y="-21.3" font-family="Times,serif" font-size="14.00">create</text>
<text text-anchor="start" x="470" y="-6.3" font-family="Times,serif" font-size="14.00">destroy</text>
<text text-anchor="start" x="470" y="8.7" font-family="Times,serif" font-size="14.00">edit</text>
<text text-anchor="start" x="470" y="23.7" font-family="Times,serif" font-size="14.00">index</text>
<text text-anchor="start" x="470" y="38.7" font-family="Times,serif" font-size="14.00">new</text>
<text text-anchor="start" x="470" y="53.7" font-family="Times,serif" font-size="14.00">show</text>
<text text-anchor="start" x="470" y="68.7" font-family="Times,serif" font-size="14.00">update</text>
<polyline fill="none" stroke="black" points="462,76.5 658,76.5 "/>
<polyline fill="none" stroke="black" points="462,100.5 658,100.5 "/>
<text text-anchor="start" x="470" y="115.7" font-family="Times,serif" font-size="14.00">_layout</text>
<text text-anchor="start" x="470" y="130.7" font-family="Times,serif" font-size="14.00">blog_params</text>
<text text-anchor="start" x="470" y="145.7" font-family="Times,serif" font-size="14.00">set_blog</text>
</g>
<!-- SectionsController -->
<g id="node31" class="node"><title>SectionsController</title>
<path fill="none" stroke="black" d="M-581.5,-594.5C-581.5,-594.5 -454.5,-594.5 -454.5,-594.5 -448.5,-594.5 -442.5,-600.5 -442.5,-606.5 -442.5,-606.5 -442.5,-795.5 -442.5,-795.5 -442.5,-801.5 -448.5,-807.5 -454.5,-807.5 -454.5,-807.5 -581.5,-807.5 -581.5,-807.5 -587.5,-807.5 -593.5,-801.5 -593.5,-795.5 -593.5,-795.5 -593.5,-606.5 -593.5,-606.5 -593.5,-600.5 -587.5,-594.5 -581.5,-594.5"/>
<text text-anchor="middle" x="-518" y="-792.3" font-family="Times,serif" font-size="14.00">SectionsController</text>
<polyline fill="none" stroke="black" points="-593.5,-784.5 -442.5,-784.5 "/>
<text text-anchor="start" x="-585.5" y="-769.3" font-family="Times,serif" font-size="14.00">create</text>
<text text-anchor="start" x="-585.5" y="-754.3" font-family="Times,serif" font-size="14.00">destroy</text>
<text text-anchor="start" x="-585.5" y="-739.3" font-family="Times,serif" font-size="14.00">edit</text>
<text text-anchor="start" x="-585.5" y="-724.3" font-family="Times,serif" font-size="14.00">index</text>
<text text-anchor="start" x="-585.5" y="-709.3" font-family="Times,serif" font-size="14.00">new</text>
<text text-anchor="start" x="-585.5" y="-694.3" font-family="Times,serif" font-size="14.00">show</text>
<text text-anchor="start" x="-585.5" y="-679.3" font-family="Times,serif" font-size="14.00">update</text>
<polyline fill="none" stroke="black" points="-593.5,-671.5 -442.5,-671.5 "/>
<polyline fill="none" stroke="black" points="-593.5,-647.5 -442.5,-647.5 "/>
<text text-anchor="start" x="-585.5" y="-632.3" font-family="Times,serif" font-size="14.00">_layout</text>
<text text-anchor="start" x="-585.5" y="-617.3" font-family="Times,serif" font-size="14.00">section_params</text>
<text text-anchor="start" x="-585.5" y="-602.3" font-family="Times,serif" font-size="14.00">set_section</text>
</g>
</g>
</svg>
