<?xml version="1.0" encoding="UTF-8" standalone="no"?>
<!DOCTYPE svg PUBLIC "-//W3C//DTD SVG 1.1//EN"
 "http://www.w3.org/Graphics/SVG/1.1/DTD/svg11.dtd">
<!-- Generated by graphviz version 2.38.0 (20140413.2041)
 -->
<!-- Title: controllers_diagram Pages: 1 -->
<svg width="1553pt" height="1393pt"
 viewBox="0.00 0.00 1553.00 1393.00" xmlns="http://www.w3.org/2000/svg" xmlns:xlink="http://www.w3.org/1999/xlink">
<g id="graph0" class="graph" transform="scale(1 1) rotate(0) translate(664.5 773.5)">
<title>controllers_diagram</title>
<polygon fill="none" stroke="none" points="-664.5,619.5 -664.5,-773.5 888.5,-773.5 888.5,619.5 -664.5,619.5"/>
<!-- _diagram_info -->
<g id="node1" class="node"><title>_diagram_info</title>
<text text-anchor="start" x="-630" y="-393.6" font-family="Times,serif" font-size="13.00">Controllers diagram</text>
<text text-anchor="start" x="-630" y="-379.6" font-family="Times,serif" font-size="13.00">Date: Sep 08 2016 &#45; 11:57</text>
<text text-anchor="start" x="-630" y="-365.6" font-family="Times,serif" font-size="13.00">Migration version: 20160908152902</text>
<text text-anchor="start" x="-630" y="-351.6" font-family="Times,serif" font-size="13.00">Generated by RailRoady 1.5.1</text>
<text text-anchor="start" x="-630" y="-337.6" font-family="Times,serif" font-size="13.00">http://railroady.prestonlee.com</text>
</g>
<!-- HomeController -->
<g id="node2" class="node"><title>HomeController</title>
<path fill="none" stroke="black" d="M-647.5,131C-647.5,131 -540.5,131 -540.5,131 -534.5,131 -528.5,125 -528.5,119 -528.5,119 -528.5,5 -528.5,5 -528.5,-1 -534.5,-7 -540.5,-7 -540.5,-7 -647.5,-7 -647.5,-7 -653.5,-7 -659.5,-1 -659.5,5 -659.5,5 -659.5,119 -659.5,119 -659.5,125 -653.5,131 -647.5,131"/>
<text text-anchor="middle" x="-594" y="8.2" font-family="Times,serif" font-size="14.00">HomeController</text>
<polyline fill="none" stroke="black" points="-659.5,16 -528.5,16 "/>
<text text-anchor="start" x="-651.5" y="31.2" font-family="Times,serif" font-size="14.00">devise_mapping</text>
<text text-anchor="start" x="-651.5" y="46.2" font-family="Times,serif" font-size="14.00">index</text>
<text text-anchor="start" x="-651.5" y="61.2" font-family="Times,serif" font-size="14.00">resource</text>
<text text-anchor="start" x="-651.5" y="76.2" font-family="Times,serif" font-size="14.00">resource_name</text>
<polyline fill="none" stroke="black" points="-659.5,84 -528.5,84 "/>
<polyline fill="none" stroke="black" points="-659.5,108 -528.5,108 "/>
<text text-anchor="start" x="-651.5" y="123.2" font-family="Times,serif" font-size="14.00">_layout</text>
</g>
<!-- EventsController -->
<g id="node3" class="node"><title>EventsController</title>
<path fill="none" stroke="black" d="M-76,-440.5C-76,-440.5 40,-440.5 40,-440.5 46,-440.5 52,-446.5 52,-452.5 52,-452.5 52,-641.5 52,-641.5 52,-647.5 46,-653.5 40,-653.5 40,-653.5 -76,-653.5 -76,-653.5 -82,-653.5 -88,-647.5 -88,-641.5 -88,-641.5 -88,-452.5 -88,-452.5 -88,-446.5 -82,-440.5 -76,-440.5"/>
<text text-anchor="middle" x="-18" y="-638.3" font-family="Times,serif" font-size="14.00">EventsController</text>
<polyline fill="none" stroke="black" points="-88,-630.5 52,-630.5 "/>
<text text-anchor="start" x="-80" y="-615.3" font-family="Times,serif" font-size="14.00">create</text>
<text text-anchor="start" x="-80" y="-600.3" font-family="Times,serif" font-size="14.00">destroy</text>
<text text-anchor="start" x="-80" y="-585.3" font-family="Times,serif" font-size="14.00">edit</text>
<text text-anchor="start" x="-80" y="-570.3" font-family="Times,serif" font-size="14.00">index</text>
<text text-anchor="start" x="-80" y="-555.3" font-family="Times,serif" font-size="14.00">new</text>
<text text-anchor="start" x="-80" y="-540.3" font-family="Times,serif" font-size="14.00">show</text>
<text text-anchor="start" x="-80" y="-525.3" font-family="Times,serif" font-size="14.00">update</text>
<polyline fill="none" stroke="black" points="-88,-517.5 52,-517.5 "/>
<polyline fill="none" stroke="black" points="-88,-493.5 52,-493.5 "/>
<text text-anchor="start" x="-80" y="-478.3" font-family="Times,serif" font-size="14.00">_layout</text>
<text text-anchor="start" x="-80" y="-463.3" font-family="Times,serif" font-size="14.00">event_params</text>
<text text-anchor="start" x="-80" y="-448.3" font-family="Times,serif" font-size="14.00">set_event</text>
</g>
<!-- Student::CourseUserTestsController -->
<g id="node4" class="node"><title>Student::CourseUserTestsController</title>
<path fill="none" stroke="black" d="M188,-132.5C188,-132.5 442,-132.5 442,-132.5 448,-132.5 454,-138.5 454,-144.5 454,-144.5 454,-303.5 454,-303.5 454,-309.5 448,-315.5 442,-315.5 442,-315.5 188,-315.5 188,-315.5 182,-315.5 176,-309.5 176,-303.5 176,-303.5 176,-144.5 176,-144.5 176,-138.5 182,-132.5 188,-132.5"/>
<text text-anchor="middle" x="315" y="-300.3" font-family="Times,serif" font-size="14.00">Student::CourseUserTestsController</text>
<polyline fill="none" stroke="black" points="176,-292.5 454,-292.5 "/>
<text text-anchor="start" x="184" y="-277.3" font-family="Times,serif" font-size="14.00">edit</text>
<text text-anchor="start" x="184" y="-262.3" font-family="Times,serif" font-size="14.00">new</text>
<text text-anchor="start" x="184" y="-247.3" font-family="Times,serif" font-size="14.00">update</text>
<polyline fill="none" stroke="black" points="176,-239.5 454,-239.5 "/>
<polyline fill="none" stroke="black" points="176,-215.5 454,-215.5 "/>
<text text-anchor="start" x="184" y="-200.3" font-family="Times,serif" font-size="14.00">_layout</text>
<text text-anchor="start" x="184" y="-185.3" font-family="Times,serif" font-size="14.00">course_user_test_params</text>
<text text-anchor="start" x="184" y="-170.3" font-family="Times,serif" font-size="14.00">load_course_user_test</text>
<text text-anchor="start" x="184" y="-155.3" font-family="Times,serif" font-size="14.00">set_answers</text>
<text text-anchor="start" x="184" y="-140.3" font-family="Times,serif" font-size="14.00">set_course_user_test</text>
</g>
<!-- Student::TestsController -->
<g id="node5" class="node"><title>Student::TestsController</title>
<path fill="none" stroke="black" d="M-625.5,-45C-625.5,-45 -452.5,-45 -452.5,-45 -446.5,-45 -440.5,-51 -440.5,-57 -440.5,-57 -440.5,-141 -440.5,-141 -440.5,-147 -446.5,-153 -452.5,-153 -452.5,-153 -625.5,-153 -625.5,-153 -631.5,-153 -637.5,-147 -637.5,-141 -637.5,-141 -637.5,-57 -637.5,-57 -637.5,-51 -631.5,-45 -625.5,-45"/>
<text text-anchor="middle" x="-539" y="-137.8" font-family="Times,serif" font-size="14.00">Student::TestsController</text>
<polyline fill="none" stroke="black" points="-637.5,-130 -440.5,-130 "/>
<text text-anchor="start" x="-629.5" y="-114.8" font-family="Times,serif" font-size="14.00">index</text>
<polyline fill="none" stroke="black" points="-637.5,-107 -440.5,-107 "/>
<polyline fill="none" stroke="black" points="-637.5,-83 -440.5,-83 "/>
<text text-anchor="start" x="-629.5" y="-67.8" font-family="Times,serif" font-size="14.00">_layout</text>
<text text-anchor="start" x="-629.5" y="-52.8" font-family="Times,serif" font-size="14.00">load_course</text>
</g>
<!-- Student::ProgressController -->
<g id="node6" class="node"><title>Student::ProgressController</title>
<path fill="none" stroke="black" d="M-648.5,-661C-648.5,-661 -451.5,-661 -451.5,-661 -445.5,-661 -439.5,-667 -439.5,-673 -439.5,-673 -439.5,-757 -439.5,-757 -439.5,-763 -445.5,-769 -451.5,-769 -451.5,-769 -648.5,-769 -648.5,-769 -654.5,-769 -660.5,-763 -660.5,-757 -660.5,-757 -660.5,-673 -660.5,-673 -660.5,-667 -654.5,-661 -648.5,-661"/>
<text text-anchor="middle" x="-550" y="-753.8" font-family="Times,serif" font-size="14.00">Student::ProgressController</text>
<polyline fill="none" stroke="black" points="-660.5,-746 -439.5,-746 "/>
<text text-anchor="start" x="-652.5" y="-730.8" font-family="Times,serif" font-size="14.00">index</text>
<polyline fill="none" stroke="black" points="-660.5,-723 -439.5,-723 "/>
<polyline fill="none" stroke="black" points="-660.5,-699 -439.5,-699 "/>
<text text-anchor="start" x="-652.5" y="-683.8" font-family="Times,serif" font-size="14.00">_layout</text>
<text text-anchor="start" x="-652.5" y="-668.8" font-family="Times,serif" font-size="14.00">set_data</text>
</g>
<!-- Student::LiveClassesController -->
<g id="node7" class="node"><title>Student::LiveClassesController</title>
<path fill="none" stroke="black" d="M583.5,593C583.5,593 798.5,593 798.5,593 804.5,593 810.5,587 810.5,581 810.5,581 810.5,497 810.5,497 810.5,491 804.5,485 798.5,485 798.5,485 583.5,485 583.5,485 577.5,485 571.5,491 571.5,497 571.5,497 571.5,581 571.5,581 571.5,587 577.5,593 583.5,593"/>
<text text-anchor="middle" x="691" y="500.2" font-family="Times,serif" font-size="14.00">Student::LiveClassesController</text>
<polyline fill="none" stroke="black" points="571.5,508 810.5,508 "/>
<text text-anchor="start" x="579.5" y="523.2" font-family="Times,serif" font-size="14.00">index</text>
<polyline fill="none" stroke="black" points="571.5,531 810.5,531 "/>
<polyline fill="none" stroke="black" points="571.5,555 810.5,555 "/>
<text text-anchor="start" x="579.5" y="570.2" font-family="Times,serif" font-size="14.00">_layout</text>
<text text-anchor="start" x="579.5" y="585.2" font-family="Times,serif" font-size="14.00">set_data</text>
</g>
<!-- Student::PaymentsController -->
<g id="node8" class="node"><title>Student::PaymentsController</title>
<path fill="none" stroke="black" d="M628,-617C628,-617 832,-617 832,-617 838,-617 844,-623 844,-629 844,-629 844,-713 844,-713 844,-719 838,-725 832,-725 832,-725 628,-725 628,-725 622,-725 616,-719 616,-713 616,-713 616,-629 616,-629 616,-623 622,-617 628,-617"/>
<text text-anchor="middle" x="730" y="-709.8" font-family="Times,serif" font-size="14.00">Student::PaymentsController</text>
<polyline fill="none" stroke="black" points="616,-702 844,-702 "/>
<text text-anchor="start" x="624" y="-686.8" font-family="Times,serif" font-size="14.00">index</text>
<polyline fill="none" stroke="black" points="616,-679 844,-679 "/>
<polyline fill="none" stroke="black" points="616,-655 844,-655 "/>
<text text-anchor="start" x="624" y="-639.8" font-family="Times,serif" font-size="14.00">_layout</text>
<text text-anchor="start" x="624" y="-624.8" font-family="Times,serif" font-size="14.00">set_data</text>
</g>
<!-- Student::CategoriesController -->
<g id="node9" class="node"><title>Student::CategoriesController</title>
<path fill="none" stroke="black" d="M364,-352.5C364,-352.5 574,-352.5 574,-352.5 580,-352.5 586,-358.5 586,-364.5 586,-364.5 586,-553.5 586,-553.5 586,-559.5 580,-565.5 574,-565.5 574,-565.5 364,-565.5 364,-565.5 358,-565.5 352,-559.5 352,-553.5 352,-553.5 352,-364.5 352,-364.5 352,-358.5 358,-352.5 364,-352.5"/>
<text text-anchor="middle" x="469" y="-550.3" font-family="Times,serif" font-size="14.00">Student::CategoriesController</text>
<polyline fill="none" stroke="black" points="352,-542.5 586,-542.5 "/>
<text text-anchor="start" x="360" y="-527.3" font-family="Times,serif" font-size="14.00">create</text>
<text text-anchor="start" x="360" y="-512.3" font-family="Times,serif" font-size="14.00">delete</text>
<text text-anchor="start" x="360" y="-497.3" font-family="Times,serif" font-size="14.00">edit</text>
<text text-anchor="start" x="360" y="-482.3" font-family="Times,serif" font-size="14.00">index</text>
<text text-anchor="start" x="360" y="-467.3" font-family="Times,serif" font-size="14.00">new</text>
<text text-anchor="start" x="360" y="-452.3" font-family="Times,serif" font-size="14.00">show</text>
<text text-anchor="start" x="360" y="-437.3" font-family="Times,serif" font-size="14.00">update</text>
<polyline fill="none" stroke="black" points="352,-429.5 586,-429.5 "/>
<polyline fill="none" stroke="black" points="352,-405.5 586,-405.5 "/>
<text text-anchor="start" x="360" y="-390.3" font-family="Times,serif" font-size="14.00">_layout</text>
<text text-anchor="start" x="360" y="-375.3" font-family="Times,serif" font-size="14.00">category_params</text>
<text text-anchor="start" x="360" y="-360.3" font-family="Times,serif" font-size="14.00">set_data</text>
</g>
<!-- Student::ResourcesController -->
<g id="node10" class="node"><title>Student::ResourcesController</title>
<path fill="none" stroke="black" d="M-98,373C-98,373 108,373 108,373 114,373 120,367 120,361 120,361 120,187 120,187 120,181 114,175 108,175 108,175 -98,175 -98,175 -104,175 -110,181 -110,187 -110,187 -110,361 -110,361 -110,367 -104,373 -98,373"/>
<text text-anchor="middle" x="5" y="190.2" font-family="Times,serif" font-size="14.00">Student::ResourcesController</text>
<polyline fill="none" stroke="black" points="-110,198 120,198 "/>
<text text-anchor="start" x="-102" y="213.2" font-family="Times,serif" font-size="14.00">show</text>
<text text-anchor="start" x="-102" y="228.2" font-family="Times,serif" font-size="14.00">update</text>
<polyline fill="none" stroke="black" points="-110,236 120,236 "/>
<polyline fill="none" stroke="black" points="-110,260 120,260 "/>
<text text-anchor="start" x="-102" y="275.2" font-family="Times,serif" font-size="14.00">_layout</text>
<text text-anchor="start" x="-102" y="290.2" font-family="Times,serif" font-size="14.00">completed?</text>
<text text-anchor="start" x="-102" y="305.2" font-family="Times,serif" font-size="14.00">create_resource_progress</text>
<text text-anchor="start" x="-102" y="320.2" font-family="Times,serif" font-size="14.00">destroy_answers</text>
<text text-anchor="start" x="-102" y="335.2" font-family="Times,serif" font-size="14.00">resource_params</text>
<text text-anchor="start" x="-102" y="350.2" font-family="Times,serif" font-size="14.00">set_data</text>
<text text-anchor="start" x="-102" y="365.2" font-family="Times,serif" font-size="14.00">set_resource</text>
</g>
<!-- Student::SubCategoriesController -->
<g id="node11" class="node"><title>Student::SubCategoriesController</title>
<path fill="none" stroke="black" d="M-384,-616.5C-384,-616.5 -148,-616.5 -148,-616.5 -142,-616.5 -136,-622.5 -136,-628.5 -136,-628.5 -136,-697.5 -136,-697.5 -136,-703.5 -142,-709.5 -148,-709.5 -148,-709.5 -384,-709.5 -384,-709.5 -390,-709.5 -396,-703.5 -396,-697.5 -396,-697.5 -396,-628.5 -396,-628.5 -396,-622.5 -390,-616.5 -384,-616.5"/>
<text text-anchor="middle" x="-266" y="-694.3" font-family="Times,serif" font-size="14.00">Student::SubCategoriesController</text>
<polyline fill="none" stroke="black" points="-396,-686.5 -136,-686.5 "/>
<text text-anchor="start" x="-388" y="-671.3" font-family="Times,serif" font-size="14.00">show</text>
<polyline fill="none" stroke="black" points="-396,-663.5 -136,-663.5 "/>
<polyline fill="none" stroke="black" points="-396,-639.5 -136,-639.5 "/>
<text text-anchor="start" x="-388" y="-624.3" font-family="Times,serif" font-size="14.00">_layout</text>
</g>
<!-- Student::CoursesController -->
<g id="node12" class="node"><title>Student::CoursesController</title>
<path fill="none" stroke="black" d="M55.5,615C55.5,615 244.5,615 244.5,615 250.5,615 256.5,609 256.5,603 256.5,603 256.5,489 256.5,489 256.5,483 250.5,477 244.5,477 244.5,477 55.5,477 55.5,477 49.5,477 43.5,483 43.5,489 43.5,489 43.5,603 43.5,603 43.5,609 49.5,615 55.5,615"/>
<text text-anchor="middle" x="150" y="492.2" font-family="Times,serif" font-size="14.00">Student::CoursesController</text>
<polyline fill="none" stroke="black" points="43.5,500 256.5,500 "/>
<text text-anchor="start" x="51.5" y="515.2" font-family="Times,serif" font-size="14.00">index</text>
<text text-anchor="start" x="51.5" y="530.2" font-family="Times,serif" font-size="14.00">show</text>
<polyline fill="none" stroke="black" points="43.5,538 256.5,538 "/>
<polyline fill="none" stroke="black" points="43.5,562 256.5,562 "/>
<text text-anchor="start" x="51.5" y="577.2" font-family="Times,serif" font-size="14.00">_layout</text>
<text text-anchor="start" x="51.5" y="592.2" font-family="Times,serif" font-size="14.00">set_course</text>
<text text-anchor="start" x="51.5" y="607.2" font-family="Times,serif" font-size="14.00">set_course_user</text>
</g>
<!-- Student::TutorialsController -->
<g id="node13" class="node"><title>Student::TutorialsController</title>
<path fill="none" stroke="black" d="M-340.5,-353C-340.5,-353 -141.5,-353 -141.5,-353 -135.5,-353 -129.5,-359 -129.5,-365 -129.5,-365 -129.5,-569 -129.5,-569 -129.5,-575 -135.5,-581 -141.5,-581 -141.5,-581 -340.5,-581 -340.5,-581 -346.5,-581 -352.5,-575 -352.5,-569 -352.5,-569 -352.5,-365 -352.5,-365 -352.5,-359 -346.5,-353 -340.5,-353"/>
<text text-anchor="middle" x="-241" y="-565.8" font-family="Times,serif" font-size="14.00">Student::TutorialsController</text>
<polyline fill="none" stroke="black" points="-352.5,-558 -129.5,-558 "/>
<text text-anchor="start" x="-344.5" y="-542.8" font-family="Times,serif" font-size="14.00">create</text>
<text text-anchor="start" x="-344.5" y="-527.8" font-family="Times,serif" font-size="14.00">destroy</text>
<text text-anchor="start" x="-344.5" y="-512.8" font-family="Times,serif" font-size="14.00">edit</text>
<text text-anchor="start" x="-344.5" y="-497.8" font-family="Times,serif" font-size="14.00">index</text>
<text text-anchor="start" x="-344.5" y="-482.8" font-family="Times,serif" font-size="14.00">new</text>
<text text-anchor="start" x="-344.5" y="-467.8" font-family="Times,serif" font-size="14.00">show</text>
<text text-anchor="start" x="-344.5" y="-452.8" font-family="Times,serif" font-size="14.00">update</text>
<polyline fill="none" stroke="black" points="-352.5,-445 -129.5,-445 "/>
<polyline fill="none" stroke="black" points="-352.5,-421 -129.5,-421 "/>
<text text-anchor="start" x="-344.5" y="-405.8" font-family="Times,serif" font-size="14.00">_layout</text>
<text text-anchor="start" x="-344.5" y="-390.8" font-family="Times,serif" font-size="14.00">set_data</text>
<text text-anchor="start" x="-344.5" y="-375.8" font-family="Times,serif" font-size="14.00">set_tutorial</text>
<text text-anchor="start" x="-344.5" y="-360.8" font-family="Times,serif" font-size="14.00">tutorial_params</text>
</g>
<!-- Student::StudentController -->
<g id="node14" class="node"><title>Student::StudentController</title>
<path fill="none" stroke="black" d="M320.5,615C320.5,615 511.5,615 511.5,615 517.5,615 523.5,609 523.5,603 523.5,603 523.5,489 523.5,489 523.5,483 517.5,477 511.5,477 511.5,477 320.5,477 320.5,477 314.5,477 308.5,483 308.5,489 308.5,489 308.5,603 308.5,603 308.5,609 314.5,615 320.5,615"/>
<text text-anchor="middle" x="416" y="492.2" font-family="Times,serif" font-size="14.00">Student::StudentController</text>
<polyline fill="none" stroke="black" points="308.5,500 523.5,500 "/>
<text text-anchor="start" x="316.5" y="515.2" font-family="Times,serif" font-size="14.00">check_plan</text>
<text text-anchor="start" x="316.5" y="530.2" font-family="Times,serif" font-size="14.00">course_user</text>
<text text-anchor="start" x="316.5" y="545.2" font-family="Times,serif" font-size="14.00">redirect_if_premium_plan</text>
<text text-anchor="start" x="316.5" y="560.2" font-family="Times,serif" font-size="14.00">update_tests_data</text>
<polyline fill="none" stroke="black" points="308.5,568 523.5,568 "/>
<polyline fill="none" stroke="black" points="308.5,592 523.5,592 "/>
<text text-anchor="start" x="316.5" y="607.2" font-family="Times,serif" font-size="14.00">_layout</text>
</g>
<!-- Student::StatisticsController -->
<g id="node15" class="node"><title>Student::StatisticsController</title>
<path fill="none" stroke="black" d="M364.5,-617C364.5,-617 567.5,-617 567.5,-617 573.5,-617 579.5,-623 579.5,-629 579.5,-629 579.5,-713 579.5,-713 579.5,-719 573.5,-725 567.5,-725 567.5,-725 364.5,-725 364.5,-725 358.5,-725 352.5,-719 352.5,-713 352.5,-713 352.5,-629 352.5,-629 352.5,-623 358.5,-617 364.5,-617"/>
<text text-anchor="middle" x="466" y="-709.8" font-family="Times,serif" font-size="14.00">Student::StatisticsController</text>
<polyline fill="none" stroke="black" points="352.5,-702 579.5,-702 "/>
<text text-anchor="start" x="360.5" y="-686.8" font-family="Times,serif" font-size="14.00">index</text>
<polyline fill="none" stroke="black" points="352.5,-679 579.5,-679 "/>
<polyline fill="none" stroke="black" points="352.5,-655 579.5,-655 "/>
<text text-anchor="start" x="360.5" y="-639.8" font-family="Times,serif" font-size="14.00">_layout</text>
<text text-anchor="start" x="360.5" y="-624.8" font-family="Times,serif" font-size="14.00">set_data</text>
</g>
<!-- Student::AnswersController -->
<g id="node16" class="node"><title>Student::AnswersController</title>
<path fill="none" stroke="black" d="M-604,-440.5C-604,-440.5 -410,-440.5 -410,-440.5 -404,-440.5 -398,-446.5 -398,-452.5 -398,-452.5 -398,-551.5 -398,-551.5 -398,-557.5 -404,-563.5 -410,-563.5 -410,-563.5 -604,-563.5 -604,-563.5 -610,-563.5 -616,-557.5 -616,-551.5 -616,-551.5 -616,-452.5 -616,-452.5 -616,-446.5 -610,-440.5 -604,-440.5"/>
<text text-anchor="middle" x="-507" y="-548.3" font-family="Times,serif" font-size="14.00">Student::AnswersController</text>
<polyline fill="none" stroke="black" points="-616,-540.5 -398,-540.5 "/>
<text text-anchor="start" x="-608" y="-525.3" font-family="Times,serif" font-size="14.00">create</text>
<polyline fill="none" stroke="black" points="-616,-517.5 -398,-517.5 "/>
<polyline fill="none" stroke="black" points="-616,-493.5 -398,-493.5 "/>
<text text-anchor="start" x="-608" y="-478.3" font-family="Times,serif" font-size="14.00">_layout</text>
<text text-anchor="start" x="-608" y="-463.3" font-family="Times,serif" font-size="14.00">answer_params</text>
<text text-anchor="start" x="-608" y="-448.3" font-family="Times,serif" font-size="14.00">set_data</text>
</g>
<!-- Users::SessionsController -->
<g id="node17" class="node"><title>Users::SessionsController</title>
<path fill="none" stroke="black" d="M-626,285C-626,285 -450,285 -450,285 -444,285 -438,279 -438,273 -438,273 -438,189 -438,189 -438,183 -444,177 -450,177 -450,177 -626,177 -626,177 -632,177 -638,183 -638,189 -638,189 -638,273 -638,273 -638,279 -632,285 -626,285"/>
<text text-anchor="middle" x="-538" y="192.2" font-family="Times,serif" font-size="14.00">Users::SessionsController</text>
<polyline fill="none" stroke="black" points="-638,200 -438,200 "/>
<text text-anchor="start" x="-630" y="215.2" font-family="Times,serif" font-size="14.00">destroy</text>
<text text-anchor="start" x="-630" y="230.2" font-family="Times,serif" font-size="14.00">new</text>
<polyline fill="none" stroke="black" points="-638,238 -438,238 "/>
<polyline fill="none" stroke="black" points="-638,262 -438,262 "/>
<text text-anchor="start" x="-630" y="277.2" font-family="Times,serif" font-size="14.00">_layout</text>
</g>
<!-- Users::OmniauthCallbacksController -->
<g id="node18" class="node"><title>Users::OmniauthCallbacksController</title>
<path fill="none" stroke="black" d="M-538,549C-538,549 -288,549 -288,549 -282,549 -276,543 -276,537 -276,537 -276,453 -276,453 -276,447 -282,441 -288,441 -288,441 -538,441 -538,441 -544,441 -550,447 -550,453 -550,453 -550,537 -550,537 -550,543 -544,549 -538,549"/>
<text text-anchor="middle" x="-413" y="456.2" font-family="Times,serif" font-size="14.00">Users::OmniauthCallbacksController</text>
<polyline fill="none" stroke="black" points="-550,464 -276,464 "/>
<text text-anchor="start" x="-542" y="479.2" font-family="Times,serif" font-size="14.00">facebook</text>
<text text-anchor="start" x="-542" y="494.2" font-family="Times,serif" font-size="14.00">failure</text>
<polyline fill="none" stroke="black" points="-550,502 -276,502 "/>
<polyline fill="none" stroke="black" points="-550,526 -276,526 "/>
<text text-anchor="start" x="-542" y="541.2" font-family="Times,serif" font-size="14.00">_layout</text>
</g>
<!-- Users::RegistrationsController -->
<g id="node19" class="node"><title>Users::RegistrationsController</title>
<path fill="none" stroke="black" d="M-230,593.5C-230,593.5 -16,593.5 -16,593.5 -10,593.5 -4,587.5 -4,581.5 -4,581.5 -4,452.5 -4,452.5 -4,446.5 -10,440.5 -16,440.5 -16,440.5 -230,440.5 -230,440.5 -236,440.5 -242,446.5 -242,452.5 -242,452.5 -242,581.5 -242,581.5 -242,587.5 -236,593.5 -230,593.5"/>
<text text-anchor="middle" x="-123" y="455.7" font-family="Times,serif" font-size="14.00">Users::RegistrationsController</text>
<polyline fill="none" stroke="black" points="-242,463.5 -4,463.5 "/>
<polyline fill="none" stroke="black" points="-242,487.5 -4,487.5 "/>
<text text-anchor="start" x="-234" y="502.7" font-family="Times,serif" font-size="14.00">account_update_params</text>
<text text-anchor="start" x="-234" y="517.7" font-family="Times,serif" font-size="14.00">after_sign_up_path_for</text>
<text text-anchor="start" x="-234" y="532.7" font-family="Times,serif" font-size="14.00">after_update_path_for</text>
<text text-anchor="start" x="-234" y="547.7" font-family="Times,serif" font-size="14.00">sign_up_params</text>
<text text-anchor="start" x="-234" y="562.7" font-family="Times,serif" font-size="14.00">update_resource</text>
<polyline fill="none" stroke="black" points="-242,570.5 -4,570.5 "/>
<text text-anchor="start" x="-234" y="585.7" font-family="Times,serif" font-size="14.00">_layout</text>
</g>
<!-- Users::PasswordsController -->
<g id="node20" class="node"><title>Users::PasswordsController</title>
<path fill="none" stroke="black" d="M-471.5,131.5C-471.5,131.5 -212.5,131.5 -212.5,131.5 -206.5,131.5 -200.5,125.5 -200.5,119.5 -200.5,119.5 -200.5,50.5 -200.5,50.5 -200.5,44.5 -206.5,38.5 -212.5,38.5 -212.5,38.5 -471.5,38.5 -471.5,38.5 -477.5,38.5 -483.5,44.5 -483.5,50.5 -483.5,50.5 -483.5,119.5 -483.5,119.5 -483.5,125.5 -477.5,131.5 -471.5,131.5"/>
<text text-anchor="middle" x="-342" y="53.7" font-family="Times,serif" font-size="14.00">Users::PasswordsController</text>
<polyline fill="none" stroke="black" points="-483.5,61.5 -200.5,61.5 "/>
<polyline fill="none" stroke="black" points="-483.5,85.5 -200.5,85.5 "/>
<text text-anchor="start" x="-475.5" y="100.7" font-family="Times,serif" font-size="14.00">after_resetting_password_path_for</text>
<polyline fill="none" stroke="black" points="-483.5,108.5 -200.5,108.5 "/>
<text text-anchor="start" x="-475.5" y="123.7" font-family="Times,serif" font-size="14.00">_layout</text>
</g>
<!-- ApplicationController -->
<g id="node21" class="node"><title>ApplicationController</title>
<path fill="none" stroke="black" d="M650,-352.5C650,-352.5 816,-352.5 816,-352.5 822,-352.5 828,-358.5 828,-364.5 828,-364.5 828,-493.5 828,-493.5 828,-499.5 822,-505.5 816,-505.5 816,-505.5 650,-505.5 650,-505.5 644,-505.5 638,-499.5 638,-493.5 638,-493.5 638,-364.5 638,-364.5 638,-358.5 644,-352.5 650,-352.5"/>
<text text-anchor="middle" x="733" y="-490.3" font-family="Times,serif" font-size="14.00">ApplicationController</text>
<polyline fill="none" stroke="black" points="638,-482.5 828,-482.5 "/>
<text text-anchor="start" x="646" y="-467.3" font-family="Times,serif" font-size="14.00">after_sign_in_path_for</text>
<text text-anchor="start" x="646" y="-452.3" font-family="Times,serif" font-size="14.00">raise_not_found!</text>
<text text-anchor="start" x="646" y="-437.3" font-family="Times,serif" font-size="14.00">render_404</text>
<text text-anchor="start" x="646" y="-422.3" font-family="Times,serif" font-size="14.00">render_js_only</text>
<text text-anchor="start" x="646" y="-407.3" font-family="Times,serif" font-size="14.00">set_current_user</text>
<polyline fill="none" stroke="black" points="638,-399.5 828,-399.5 "/>
<polyline fill="none" stroke="black" points="638,-375.5 828,-375.5 "/>
<text text-anchor="start" x="646" y="-360.3" font-family="Times,serif" font-size="14.00">_layout</text>
</g>
<!-- Backend::SchoolsController -->
<g id="node22" class="node"><title>Backend::SchoolsController</title>
<path fill="none" stroke="black" d="M-383.5,-0.5C-383.5,-0.5 -196.5,-0.5 -196.5,-0.5 -190.5,-0.5 -184.5,-6.5 -184.5,-12.5 -184.5,-12.5 -184.5,-201.5 -184.5,-201.5 -184.5,-207.5 -190.5,-213.5 -196.5,-213.5 -196.5,-213.5 -383.5,-213.5 -383.5,-213.5 -389.5,-213.5 -395.5,-207.5 -395.5,-201.5 -395.5,-201.5 -395.5,-12.5 -395.5,-12.5 -395.5,-6.5 -389.5,-0.5 -383.5,-0.5"/>
<text text-anchor="middle" x="-290" y="-198.3" font-family="Times,serif" font-size="14.00">Backend::SchoolsController</text>
<polyline fill="none" stroke="black" points="-395.5,-190.5 -184.5,-190.5 "/>
<text text-anchor="start" x="-387.5" y="-175.3" font-family="Times,serif" font-size="14.00">create</text>
<text text-anchor="start" x="-387.5" y="-160.3" font-family="Times,serif" font-size="14.00">destroy</text>
<text text-anchor="start" x="-387.5" y="-145.3" font-family="Times,serif" font-size="14.00">edit</text>
<text text-anchor="start" x="-387.5" y="-130.3" font-family="Times,serif" font-size="14.00">index</text>
<text text-anchor="start" x="-387.5" y="-115.3" font-family="Times,serif" font-size="14.00">new</text>
<text text-anchor="start" x="-387.5" y="-100.3" font-family="Times,serif" font-size="14.00">show</text>
<text text-anchor="start" x="-387.5" y="-85.3" font-family="Times,serif" font-size="14.00">update</text>
<polyline fill="none" stroke="black" points="-395.5,-77.5 -184.5,-77.5 "/>
<polyline fill="none" stroke="black" points="-395.5,-53.5 -184.5,-53.5 "/>
<text text-anchor="start" x="-387.5" y="-38.3" font-family="Times,serif" font-size="14.00">_layout</text>
<text text-anchor="start" x="-387.5" y="-23.3" font-family="Times,serif" font-size="14.00">school_params</text>
<text text-anchor="start" x="-387.5" y="-8.3" font-family="Times,serif" font-size="14.00">set_school</text>
</g>
<!-- Backend::CategoriesController -->
<g id="node23" class="node"><title>Backend::CategoriesController</title>
<path fill="none" stroke="black" d="M188.5,175C188.5,175 399.5,175 399.5,175 405.5,175 411.5,169 411.5,163 411.5,163 411.5,-71 411.5,-71 411.5,-77 405.5,-83 399.5,-83 399.5,-83 188.5,-83 188.5,-83 182.5,-83 176.5,-77 176.5,-71 176.5,-71 176.5,163 176.5,163 176.5,169 182.5,175 188.5,175"/>
<text text-anchor="middle" x="294" y="-67.8" font-family="Times,serif" font-size="14.00">Backend::CategoriesController</text>
<polyline fill="none" stroke="black" points="176.5,-60 411.5,-60 "/>
<text text-anchor="start" x="184.5" y="-44.8" font-family="Times,serif" font-size="14.00">create</text>
<text text-anchor="start" x="184.5" y="-29.8" font-family="Times,serif" font-size="14.00">delete</text>
<text text-anchor="start" x="184.5" y="-14.8" font-family="Times,serif" font-size="14.00">devise_mapping</text>
<text text-anchor="start" x="184.5" y="0.2" font-family="Times,serif" font-size="14.00">edit</text>
<text text-anchor="start" x="184.5" y="15.2" font-family="Times,serif" font-size="14.00">filter_chart</text>
<text text-anchor="start" x="184.5" y="30.2" font-family="Times,serif" font-size="14.00">index</text>
<text text-anchor="start" x="184.5" y="45.2" font-family="Times,serif" font-size="14.00">new</text>
<text text-anchor="start" x="184.5" y="60.2" font-family="Times,serif" font-size="14.00">resource</text>
<text text-anchor="start" x="184.5" y="75.2" font-family="Times,serif" font-size="14.00">resource_name</text>
<text text-anchor="start" x="184.5" y="90.2" font-family="Times,serif" font-size="14.00">show</text>
<text text-anchor="start" x="184.5" y="105.2" font-family="Times,serif" font-size="14.00">update</text>
<polyline fill="none" stroke="black" points="176.5,113 411.5,113 "/>
<polyline fill="none" stroke="black" points="176.5,137 411.5,137 "/>
<text text-anchor="start" x="184.5" y="152.2" font-family="Times,serif" font-size="14.00">_layout</text>
<text text-anchor="start" x="184.5" y="167.2" font-family="Times,serif" font-size="14.00">category_params</text>
</g>
<!-- Backend::TasksController -->
<g id="node24" class="node"><title>Backend::TasksController</title>
<path fill="none" stroke="black" d="M474,175.5C474,175.5 648,175.5 648,175.5 654,175.5 660,169.5 660,163.5 660,163.5 660,-25.5 660,-25.5 660,-31.5 654,-37.5 648,-37.5 648,-37.5 474,-37.5 474,-37.5 468,-37.5 462,-31.5 462,-25.5 462,-25.5 462,163.5 462,163.5 462,169.5 468,175.5 474,175.5"/>
<text text-anchor="middle" x="561" y="-22.3" font-family="Times,serif" font-size="14.00">Backend::TasksController</text>
<polyline fill="none" stroke="black" points="462,-14.5 660,-14.5 "/>
<text text-anchor="start" x="470" y="0.7" font-family="Times,serif" font-size="14.00">create</text>
<text text-anchor="start" x="470" y="15.7" font-family="Times,serif" font-size="14.00">destroy</text>
<text text-anchor="start" x="470" y="30.7" font-family="Times,serif" font-size="14.00">edit</text>
<text text-anchor="start" x="470" y="45.7" font-family="Times,serif" font-size="14.00">index</text>
<text text-anchor="start" x="470" y="60.7" font-family="Times,serif" font-size="14.00">new</text>
<text text-anchor="start" x="470" y="75.7" font-family="Times,serif" font-size="14.00">show</text>
<text text-anchor="start" x="470" y="90.7" font-family="Times,serif" font-size="14.00">update</text>
<polyline fill="none" stroke="black" points="462,98.5 660,98.5 "/>
<polyline fill="none" stroke="black" points="462,122.5 660,122.5 "/>
<text text-anchor="start" x="470" y="137.7" font-family="Times,serif" font-size="14.00">_layout</text>
<text text-anchor="start" x="470" y="152.7" font-family="Times,serif" font-size="14.00">set_task</text>
<text text-anchor="start" x="470" y="167.7" font-family="Times,serif" font-size="14.00">task_params</text>
</g>
<!-- Backend::UniversitiesController -->
<g id="node25" class="node"><title>Backend::UniversitiesController</title>
<path fill="none" stroke="black" d="M-383.5,395.5C-383.5,395.5 -162.5,395.5 -162.5,395.5 -156.5,395.5 -150.5,389.5 -150.5,383.5 -150.5,383.5 -150.5,194.5 -150.5,194.5 -150.5,188.5 -156.5,182.5 -162.5,182.5 -162.5,182.5 -383.5,182.5 -383.5,182.5 -389.5,182.5 -395.5,188.5 -395.5,194.5 -395.5,194.5 -395.5,383.5 -395.5,383.5 -395.5,389.5 -389.5,395.5 -383.5,395.5"/>
<text text-anchor="middle" x="-273" y="197.7" font-family="Times,serif" font-size="14.00">Backend::UniversitiesController</text>
<polyline fill="none" stroke="black" points="-395.5,205.5 -150.5,205.5 "/>
<text text-anchor="start" x="-387.5" y="220.7" font-family="Times,serif" font-size="14.00">create</text>
<text text-anchor="start" x="-387.5" y="235.7" font-family="Times,serif" font-size="14.00">destroy</text>
<text text-anchor="start" x="-387.5" y="250.7" font-family="Times,serif" font-size="14.00">edit</text>
<text text-anchor="start" x="-387.5" y="265.7" font-family="Times,serif" font-size="14.00">index</text>
<text text-anchor="start" x="-387.5" y="280.7" font-family="Times,serif" font-size="14.00">new</text>
<text text-anchor="start" x="-387.5" y="295.7" font-family="Times,serif" font-size="14.00">show</text>
<text text-anchor="start" x="-387.5" y="310.7" font-family="Times,serif" font-size="14.00">update</text>
<polyline fill="none" stroke="black" points="-395.5,318.5 -150.5,318.5 "/>
<polyline fill="none" stroke="black" points="-395.5,342.5 -150.5,342.5 "/>
<text text-anchor="start" x="-387.5" y="357.7" font-family="Times,serif" font-size="14.00">_layout</text>
<text text-anchor="start" x="-387.5" y="372.7" font-family="Times,serif" font-size="14.00">set_university</text>
<text text-anchor="start" x="-387.5" y="387.7" font-family="Times,serif" font-size="14.00">university_params</text>
</g>
<!-- Backend::PointsController -->
<g id="node26" class="node"><title>Backend::PointsController</title>
<path fill="none" stroke="black" d="M693.5,439C693.5,439 872.5,439 872.5,439 878.5,439 884.5,433 884.5,427 884.5,427 884.5,343 884.5,343 884.5,337 878.5,331 872.5,331 872.5,331 693.5,331 693.5,331 687.5,331 681.5,337 681.5,343 681.5,343 681.5,427 681.5,427 681.5,433 687.5,439 693.5,439"/>
<text text-anchor="middle" x="783" y="346.2" font-family="Times,serif" font-size="14.00">Backend::PointsController</text>
<polyline fill="none" stroke="black" points="681.5,354 884.5,354 "/>
<text text-anchor="start" x="689.5" y="369.2" font-family="Times,serif" font-size="14.00">create</text>
<polyline fill="none" stroke="black" points="681.5,377 884.5,377 "/>
<polyline fill="none" stroke="black" points="681.5,401 884.5,401 "/>
<text text-anchor="start" x="689.5" y="416.2" font-family="Times,serif" font-size="14.00">_layout</text>
<text text-anchor="start" x="689.5" y="431.2" font-family="Times,serif" font-size="14.00">point_params</text>
</g>
<!-- Backend::DashboardController -->
<g id="node27" class="node"><title>Backend::DashboardController</title>
<path fill="none" stroke="black" d="M-648,-198.5C-648,-198.5 -440,-198.5 -440,-198.5 -434,-198.5 -428,-204.5 -428,-210.5 -428,-210.5 -428,-279.5 -428,-279.5 -428,-285.5 -434,-291.5 -440,-291.5 -440,-291.5 -648,-291.5 -648,-291.5 -654,-291.5 -660,-285.5 -660,-279.5 -660,-279.5 -660,-210.5 -660,-210.5 -660,-204.5 -654,-198.5 -648,-198.5"/>
<text text-anchor="middle" x="-544" y="-276.3" font-family="Times,serif" font-size="14.00">Backend::DashboardController</text>
<polyline fill="none" stroke="black" points="-660,-268.5 -428,-268.5 "/>
<text text-anchor="start" x="-652" y="-253.3" font-family="Times,serif" font-size="14.00">index</text>
<polyline fill="none" stroke="black" points="-660,-245.5 -428,-245.5 "/>
<polyline fill="none" stroke="black" points="-660,-221.5 -428,-221.5 "/>
<text text-anchor="start" x="-652" y="-206.3" font-family="Times,serif" font-size="14.00">_layout</text>
</g>
<!-- Backend::CareersController -->
<g id="node28" class="node"><title>Backend::CareersController</title>
<path fill="none" stroke="black" d="M165.5,439.5C165.5,439.5 354.5,439.5 354.5,439.5 360.5,439.5 366.5,433.5 366.5,427.5 366.5,427.5 366.5,238.5 366.5,238.5 366.5,232.5 360.5,226.5 354.5,226.5 354.5,226.5 165.5,226.5 165.5,226.5 159.5,226.5 153.5,232.5 153.5,238.5 153.5,238.5 153.5,427.5 153.5,427.5 153.5,433.5 159.5,439.5 165.5,439.5"/>
<text text-anchor="middle" x="260" y="241.7" font-family="Times,serif" font-size="14.00">Backend::CareersController</text>
<polyline fill="none" stroke="black" points="153.5,249.5 366.5,249.5 "/>
<text text-anchor="start" x="161.5" y="264.7" font-family="Times,serif" font-size="14.00">create</text>
<text text-anchor="start" x="161.5" y="279.7" font-family="Times,serif" font-size="14.00">destroy</text>
<text text-anchor="start" x="161.5" y="294.7" font-family="Times,serif" font-size="14.00">edit</text>
<text text-anchor="start" x="161.5" y="309.7" font-family="Times,serif" font-size="14.00">index</text>
<text text-anchor="start" x="161.5" y="324.7" font-family="Times,serif" font-size="14.00">new</text>
<text text-anchor="start" x="161.5" y="339.7" font-family="Times,serif" font-size="14.00">show</text>
<text text-anchor="start" x="161.5" y="354.7" font-family="Times,serif" font-size="14.00">update</text>
<polyline fill="none" stroke="black" points="153.5,362.5 366.5,362.5 "/>
<polyline fill="none" stroke="black" points="153.5,386.5 366.5,386.5 "/>
<text text-anchor="start" x="161.5" y="401.7" font-family="Times,serif" font-size="14.00">_layout</text>
<text text-anchor="start" x="161.5" y="416.7" font-family="Times,serif" font-size="14.00">career_params</text>
<text text-anchor="start" x="161.5" y="431.7" font-family="Times,serif" font-size="14.00">set_career</text>
</g>
<!-- Backend::BlogsController -->
<g id="node29" class="node"><title>Backend::BlogsController</title>
<path fill="none" stroke="black" d="M518,-88.5C518,-88.5 690,-88.5 690,-88.5 696,-88.5 702,-94.5 702,-100.5 702,-100.5 702,-289.5 702,-289.5 702,-295.5 696,-301.5 690,-301.5 690,-301.5 518,-301.5 518,-301.5 512,-301.5 506,-295.5 506,-289.5 506,-289.5 506,-100.5 506,-100.5 506,-94.5 512,-88.5 518,-88.5"/>
<text text-anchor="middle" x="604" y="-286.3" font-family="Times,serif" font-size="14.00">Backend::BlogsController</text>
<polyline fill="none" stroke="black" points="506,-278.5 702,-278.5 "/>
<text text-anchor="start" x="514" y="-263.3" font-family="Times,serif" font-size="14.00">create</text>
<text text-anchor="start" x="514" y="-248.3" font-family="Times,serif" font-size="14.00">destroy</text>
<text text-anchor="start" x="514" y="-233.3" font-family="Times,serif" font-size="14.00">edit</text>
<text text-anchor="start" x="514" y="-218.3" font-family="Times,serif" font-size="14.00">index</text>
<text text-anchor="start" x="514" y="-203.3" font-family="Times,serif" font-size="14.00">new</text>
<text text-anchor="start" x="514" y="-188.3" font-family="Times,serif" font-size="14.00">show</text>
<text text-anchor="start" x="514" y="-173.3" font-family="Times,serif" font-size="14.00">update</text>
<polyline fill="none" stroke="black" points="506,-165.5 702,-165.5 "/>
<polyline fill="none" stroke="black" points="506,-141.5 702,-141.5 "/>
<text text-anchor="start" x="514" y="-126.3" font-family="Times,serif" font-size="14.00">_layout</text>
<text text-anchor="start" x="514" y="-111.3" font-family="Times,serif" font-size="14.00">blog_params</text>
<text text-anchor="start" x="514" y="-96.3" font-family="Times,serif" font-size="14.00">set_blog</text>
</g>
<!-- Backend::TutorialsController -->
<g id="node30" class="node"><title>Backend::TutorialsController</title>
<path fill="none" stroke="black" d="M430,439.5C430,439.5 630,439.5 630,439.5 636,439.5 642,433.5 642,427.5 642,427.5 642,238.5 642,238.5 642,232.5 636,226.5 630,226.5 630,226.5 430,226.5 430,226.5 424,226.5 418,232.5 418,238.5 418,238.5 418,427.5 418,427.5 418,433.5 424,439.5 430,439.5"/>
<text text-anchor="middle" x="530" y="241.7" font-family="Times,serif" font-size="14.00">Backend::TutorialsController</text>
<polyline fill="none" stroke="black" points="418,249.5 642,249.5 "/>
<text text-anchor="start" x="426" y="264.7" font-family="Times,serif" font-size="14.00">create</text>
<text text-anchor="start" x="426" y="279.7" font-family="Times,serif" font-size="14.00">destroy</text>
<text text-anchor="start" x="426" y="294.7" font-family="Times,serif" font-size="14.00">edit</text>
<text text-anchor="start" x="426" y="309.7" font-family="Times,serif" font-size="14.00">index</text>
<text text-anchor="start" x="426" y="324.7" font-family="Times,serif" font-size="14.00">new</text>
<text text-anchor="start" x="426" y="339.7" font-family="Times,serif" font-size="14.00">show</text>
<text text-anchor="start" x="426" y="354.7" font-family="Times,serif" font-size="14.00">update</text>
<polyline fill="none" stroke="black" points="418,362.5 642,362.5 "/>
<polyline fill="none" stroke="black" points="418,386.5 642,386.5 "/>
<text text-anchor="start" x="426" y="401.7" font-family="Times,serif" font-size="14.00">_layout</text>
<text text-anchor="start" x="426" y="416.7" font-family="Times,serif" font-size="14.00">set_tutorial</text>
<text text-anchor="start" x="426" y="431.7" font-family="Times,serif" font-size="14.00">tutorial_params</text>
</g>
<!-- Backend::QuestionsController -->
<g id="node31" class="node"><title>Backend::QuestionsController</title>
<path fill="none" stroke="black" d="M-76,-177C-76,-177 128,-177 128,-177 134,-177 140,-183 140,-189 140,-189 140,-393 140,-393 140,-399 134,-405 128,-405 128,-405 -76,-405 -76,-405 -82,-405 -88,-399 -88,-393 -88,-393 -88,-189 -88,-189 -88,-183 -82,-177 -76,-177"/>
<text text-anchor="middle" x="26" y="-389.8" font-family="Times,serif" font-size="14.00">Backend::QuestionsController</text>
<polyline fill="none" stroke="black" points="-88,-382 140,-382 "/>
<text text-anchor="start" x="-80" y="-366.8" font-family="Times,serif" font-size="14.00">create</text>
<text text-anchor="start" x="-80" y="-351.8" font-family="Times,serif" font-size="14.00">delete</text>
<text text-anchor="start" x="-80" y="-336.8" font-family="Times,serif" font-size="14.00">edit</text>
<text text-anchor="start" x="-80" y="-321.8" font-family="Times,serif" font-size="14.00">index</text>
<text text-anchor="start" x="-80" y="-306.8" font-family="Times,serif" font-size="14.00">new</text>
<text text-anchor="start" x="-80" y="-291.8" font-family="Times,serif" font-size="14.00">show</text>
<text text-anchor="start" x="-80" y="-276.8" font-family="Times,serif" font-size="14.00">update</text>
<polyline fill="none" stroke="black" points="-88,-269 140,-269 "/>
<polyline fill="none" stroke="black" points="-88,-245 140,-245 "/>
<text text-anchor="start" x="-80" y="-229.8" font-family="Times,serif" font-size="14.00">_layout</text>
<text text-anchor="start" x="-80" y="-214.8" font-family="Times,serif" font-size="14.00">get_category_and_sub</text>
<text text-anchor="start" x="-80" y="-199.8" font-family="Times,serif" font-size="14.00">question_params</text>
<text text-anchor="start" x="-80" y="-184.8" font-family="Times,serif" font-size="14.00">show_questions_index</text>
</g>
<!-- Backend::ChoicesController -->
<g id="node32" class="node"><title>Backend::ChoicesController</title>
<path fill="none" stroke="black" d="M-141.5,131C-141.5,131 121.5,131 121.5,131 127.5,131 133.5,125 133.5,119 133.5,119 133.5,-115 133.5,-115 133.5,-121 127.5,-127 121.5,-127 121.5,-127 -141.5,-127 -141.5,-127 -147.5,-127 -153.5,-121 -153.5,-115 -153.5,-115 -153.5,119 -153.5,119 -153.5,125 -147.5,131 -141.5,131"/>
<text text-anchor="middle" x="-10" y="-111.8" font-family="Times,serif" font-size="14.00">Backend::ChoicesController</text>
<polyline fill="none" stroke="black" points="-153.5,-104 133.5,-104 "/>
<text text-anchor="start" x="-145.5" y="-88.8" font-family="Times,serif" font-size="14.00">create</text>
<text text-anchor="start" x="-145.5" y="-73.8" font-family="Times,serif" font-size="14.00">delete</text>
<text text-anchor="start" x="-145.5" y="-58.8" font-family="Times,serif" font-size="14.00">edit</text>
<text text-anchor="start" x="-145.5" y="-43.8" font-family="Times,serif" font-size="14.00">index</text>
<text text-anchor="start" x="-145.5" y="-28.8" font-family="Times,serif" font-size="14.00">new</text>
<text text-anchor="start" x="-145.5" y="-13.8" font-family="Times,serif" font-size="14.00">show</text>
<text text-anchor="start" x="-145.5" y="1.2" font-family="Times,serif" font-size="14.00">update</text>
<polyline fill="none" stroke="black" points="-153.5,9 133.5,9 "/>
<polyline fill="none" stroke="black" points="-153.5,33 133.5,33 "/>
<text text-anchor="start" x="-145.5" y="48.2" font-family="Times,serif" font-size="14.00">_layout</text>
<text text-anchor="start" x="-145.5" y="63.2" font-family="Times,serif" font-size="14.00">choice_params</text>
<text text-anchor="start" x="-145.5" y="78.2" font-family="Times,serif" font-size="14.00">get_category_and_sub_and_question</text>
<text text-anchor="start" x="-145.5" y="93.2" font-family="Times,serif" font-size="14.00">show_choices_index</text>
<text text-anchor="start" x="-145.5" y="108.2" font-family="Times,serif" font-size="14.00">update_choice</text>
<text text-anchor="start" x="-145.5" y="123.2" font-family="Times,serif" font-size="14.00">update_if_correct_choice</text>
</g>
<!-- Backend::SectionsController -->
<g id="node33" class="node"><title>Backend::SectionsController</title>
<path fill="none" stroke="black" d="M100,-440.5C100,-440.5 294,-440.5 294,-440.5 300,-440.5 306,-446.5 306,-452.5 306,-452.5 306,-641.5 306,-641.5 306,-647.5 300,-653.5 294,-653.5 294,-653.5 100,-653.5 100,-653.5 94,-653.5 88,-647.5 88,-641.5 88,-641.5 88,-452.5 88,-452.5 88,-446.5 94,-440.5 100,-440.5"/>
<text text-anchor="middle" x="197" y="-638.3" font-family="Times,serif" font-size="14.00">Backend::SectionsController</text>
<polyline fill="none" stroke="black" points="88,-630.5 306,-630.5 "/>
<text text-anchor="start" x="96" y="-615.3" font-family="Times,serif" font-size="14.00">create</text>
<text text-anchor="start" x="96" y="-600.3" font-family="Times,serif" font-size="14.00">destroy</text>
<text text-anchor="start" x="96" y="-585.3" font-family="Times,serif" font-size="14.00">edit</text>
<text text-anchor="start" x="96" y="-570.3" font-family="Times,serif" font-size="14.00">index</text>
<text text-anchor="start" x="96" y="-555.3" font-family="Times,serif" font-size="14.00">new</text>
<text text-anchor="start" x="96" y="-540.3" font-family="Times,serif" font-size="14.00">show</text>
<text text-anchor="start" x="96" y="-525.3" font-family="Times,serif" font-size="14.00">update</text>
<polyline fill="none" stroke="black" points="88,-517.5 306,-517.5 "/>
<polyline fill="none" stroke="black" points="88,-493.5 306,-493.5 "/>
<text text-anchor="start" x="96" y="-478.3" font-family="Times,serif" font-size="14.00">_layout</text>
<text text-anchor="start" x="96" y="-463.3" font-family="Times,serif" font-size="14.00">section_params</text>
<text text-anchor="start" x="96" y="-448.3" font-family="Times,serif" font-size="14.00">set_section</text>
</g>
</g>
</svg>
