<?xml version="1.0" encoding="UTF-8" standalone="no"?>
<!DOCTYPE svg PUBLIC "-//W3C//DTD SVG 1.1//EN"
 "http://www.w3.org/Graphics/SVG/1.1/DTD/svg11.dtd">
<!-- Generated by graphviz version 2.38.0 (20140413.2041)
 -->
<!-- Title: controllers_diagram Pages: 1 -->
<svg width="1220pt" height="1322pt"
 viewBox="0.00 0.00 1219.50 1322.00" xmlns="http://www.w3.org/2000/svg" xmlns:xlink="http://www.w3.org/1999/xlink">
<g id="graph0" class="graph" transform="scale(1 1) rotate(0) translate(553.5 746)">
<title>controllers_diagram</title>
<polygon fill="none" stroke="none" points="-553.5,576 -553.5,-746 666,-746 666,576 -553.5,576"/>
<!-- _diagram_info -->
<g id="node1" class="node"><title>_diagram_info</title>
<text text-anchor="start" x="-432" y="46.4" font-family="Times,serif" font-size="13.00">Controllers diagram</text>
<text text-anchor="start" x="-432" y="60.4" font-family="Times,serif" font-size="13.00">Date: Jun 02 2016 &#45; 16:52</text>
<text text-anchor="start" x="-432" y="74.4" font-family="Times,serif" font-size="13.00">Migration version: 20160602202339</text>
<text text-anchor="start" x="-432" y="88.4" font-family="Times,serif" font-size="13.00">Generated by RailRoady 1.4.2</text>
<text text-anchor="start" x="-432" y="102.4" font-family="Times,serif" font-size="13.00">http://railroady.prestonlee.com</text>
</g>
<!-- HomeController -->
<g id="node2" class="node"><title>HomeController</title>
<path fill="none" stroke="black" d="M-537.5,307.5C-537.5,307.5 -430.5,307.5 -430.5,307.5 -424.5,307.5 -418.5,301.5 -418.5,295.5 -418.5,295.5 -418.5,166.5 -418.5,166.5 -418.5,160.5 -424.5,154.5 -430.5,154.5 -430.5,154.5 -537.5,154.5 -537.5,154.5 -543.5,154.5 -549.5,160.5 -549.5,166.5 -549.5,166.5 -549.5,295.5 -549.5,295.5 -549.5,301.5 -543.5,307.5 -537.5,307.5"/>
<text text-anchor="middle" x="-484" y="169.7" font-family="Times,serif" font-size="14.00">HomeController</text>
<polyline fill="none" stroke="black" points="-549.5,177.5 -418.5,177.5 "/>
<text text-anchor="start" x="-541.5" y="192.7" font-family="Times,serif" font-size="14.00">devise_mapping</text>
<text text-anchor="start" x="-541.5" y="207.7" font-family="Times,serif" font-size="14.00">index</text>
<text text-anchor="start" x="-541.5" y="222.7" font-family="Times,serif" font-size="14.00">payments</text>
<text text-anchor="start" x="-541.5" y="237.7" font-family="Times,serif" font-size="14.00">resource</text>
<text text-anchor="start" x="-541.5" y="252.7" font-family="Times,serif" font-size="14.00">resource_name</text>
<polyline fill="none" stroke="black" points="-549.5,260.5 -418.5,260.5 "/>
<polyline fill="none" stroke="black" points="-549.5,284.5 -418.5,284.5 "/>
<text text-anchor="start" x="-541.5" y="299.7" font-family="Times,serif" font-size="14.00">_layout</text>
</g>
<!-- Student::TestsController -->
<g id="node3" class="node"><title>Student::TestsController</title>
<path fill="none" stroke="black" d="M452.5,439.5C452.5,439.5 625.5,439.5 625.5,439.5 631.5,439.5 637.5,433.5 637.5,427.5 637.5,427.5 637.5,238.5 637.5,238.5 637.5,232.5 631.5,226.5 625.5,226.5 625.5,226.5 452.5,226.5 452.5,226.5 446.5,226.5 440.5,232.5 440.5,238.5 440.5,238.5 440.5,427.5 440.5,427.5 440.5,433.5 446.5,439.5 452.5,439.5"/>
<text text-anchor="middle" x="539" y="241.7" font-family="Times,serif" font-size="14.00">Student::TestsController</text>
<polyline fill="none" stroke="black" points="440.5,249.5 637.5,249.5 "/>
<text text-anchor="start" x="448.5" y="264.7" font-family="Times,serif" font-size="14.00">create</text>
<text text-anchor="start" x="448.5" y="279.7" font-family="Times,serif" font-size="14.00">destroy</text>
<text text-anchor="start" x="448.5" y="294.7" font-family="Times,serif" font-size="14.00">edit</text>
<text text-anchor="start" x="448.5" y="309.7" font-family="Times,serif" font-size="14.00">index</text>
<text text-anchor="start" x="448.5" y="324.7" font-family="Times,serif" font-size="14.00">new</text>
<text text-anchor="start" x="448.5" y="339.7" font-family="Times,serif" font-size="14.00">show</text>
<text text-anchor="start" x="448.5" y="354.7" font-family="Times,serif" font-size="14.00">update</text>
<polyline fill="none" stroke="black" points="440.5,362.5 637.5,362.5 "/>
<polyline fill="none" stroke="black" points="440.5,386.5 637.5,386.5 "/>
<text text-anchor="start" x="448.5" y="401.7" font-family="Times,serif" font-size="14.00">_layout</text>
<text text-anchor="start" x="448.5" y="416.7" font-family="Times,serif" font-size="14.00">course_params</text>
<text text-anchor="start" x="448.5" y="431.7" font-family="Times,serif" font-size="14.00">set_course</text>
</g>
<!-- Student::ResourcesController -->
<g id="node4" class="node"><title>Student::ResourcesController</title>
<path fill="none" stroke="black" d="M-362,373C-362,373 -156,373 -156,373 -150,373 -144,367 -144,361 -144,361 -144,187 -144,187 -144,181 -150,175 -156,175 -156,175 -362,175 -362,175 -368,175 -374,181 -374,187 -374,187 -374,361 -374,361 -374,367 -368,373 -362,373"/>
<text text-anchor="middle" x="-259" y="190.2" font-family="Times,serif" font-size="14.00">Student::ResourcesController</text>
<polyline fill="none" stroke="black" points="-374,198 -144,198 "/>
<text text-anchor="start" x="-366" y="213.2" font-family="Times,serif" font-size="14.00">index</text>
<text text-anchor="start" x="-366" y="228.2" font-family="Times,serif" font-size="14.00">show</text>
<text text-anchor="start" x="-366" y="243.2" font-family="Times,serif" font-size="14.00">update</text>
<polyline fill="none" stroke="black" points="-374,251 -144,251 "/>
<polyline fill="none" stroke="black" points="-374,275 -144,275 "/>
<text text-anchor="start" x="-366" y="290.2" font-family="Times,serif" font-size="14.00">_layout</text>
<text text-anchor="start" x="-366" y="305.2" font-family="Times,serif" font-size="14.00">completed?</text>
<text text-anchor="start" x="-366" y="320.2" font-family="Times,serif" font-size="14.00">create_resource_progress</text>
<text text-anchor="start" x="-366" y="335.2" font-family="Times,serif" font-size="14.00">destroy_answers</text>
<text text-anchor="start" x="-366" y="350.2" font-family="Times,serif" font-size="14.00">resource_params</text>
<text text-anchor="start" x="-366" y="365.2" font-family="Times,serif" font-size="14.00">set_resource</text>
</g>
<!-- Student::CoursesController -->
<g id="node5" class="node"><title>Student::CoursesController</title>
<path fill="none" stroke="black" d="M-98.5,395.5C-98.5,395.5 90.5,395.5 90.5,395.5 96.5,395.5 102.5,389.5 102.5,383.5 102.5,383.5 102.5,194.5 102.5,194.5 102.5,188.5 96.5,182.5 90.5,182.5 90.5,182.5 -98.5,182.5 -98.5,182.5 -104.5,182.5 -110.5,188.5 -110.5,194.5 -110.5,194.5 -110.5,383.5 -110.5,383.5 -110.5,389.5 -104.5,395.5 -98.5,395.5"/>
<text text-anchor="middle" x="-4" y="197.7" font-family="Times,serif" font-size="14.00">Student::CoursesController</text>
<polyline fill="none" stroke="black" points="-110.5,205.5 102.5,205.5 "/>
<text text-anchor="start" x="-102.5" y="220.7" font-family="Times,serif" font-size="14.00">create</text>
<text text-anchor="start" x="-102.5" y="235.7" font-family="Times,serif" font-size="14.00">destroy</text>
<text text-anchor="start" x="-102.5" y="250.7" font-family="Times,serif" font-size="14.00">edit</text>
<text text-anchor="start" x="-102.5" y="265.7" font-family="Times,serif" font-size="14.00">index</text>
<text text-anchor="start" x="-102.5" y="280.7" font-family="Times,serif" font-size="14.00">new</text>
<text text-anchor="start" x="-102.5" y="295.7" font-family="Times,serif" font-size="14.00">show</text>
<text text-anchor="start" x="-102.5" y="310.7" font-family="Times,serif" font-size="14.00">update</text>
<polyline fill="none" stroke="black" points="-110.5,318.5 102.5,318.5 "/>
<polyline fill="none" stroke="black" points="-110.5,342.5 102.5,342.5 "/>
<text text-anchor="start" x="-102.5" y="357.7" font-family="Times,serif" font-size="14.00">_layout</text>
<text text-anchor="start" x="-102.5" y="372.7" font-family="Times,serif" font-size="14.00">course_params</text>
<text text-anchor="start" x="-102.5" y="387.7" font-family="Times,serif" font-size="14.00">set_course</text>
</g>
<!-- SessionsController -->
<g id="node6" class="node"><title>SessionsController</title>
<path fill="none" stroke="black" d="M518.5,-353C518.5,-353 645.5,-353 645.5,-353 651.5,-353 657.5,-359 657.5,-365 657.5,-365 657.5,-435 657.5,-435 657.5,-441 651.5,-447 645.5,-447 645.5,-447 518.5,-447 518.5,-447 512.5,-447 506.5,-441 506.5,-435 506.5,-435 506.5,-365 506.5,-365 506.5,-359 512.5,-353 518.5,-353"/>
<text text-anchor="middle" x="582" y="-431.8" font-family="Times,serif" font-size="14.00">SessionsController</text>
<polyline fill="none" stroke="black" points="506.5,-424 657.5,-424 "/>
<polyline fill="none" stroke="black" points="506.5,-400 657.5,-400 "/>
<polyline fill="none" stroke="black" points="506.5,-376 657.5,-376 "/>
<text text-anchor="start" x="514.5" y="-360.8" font-family="Times,serif" font-size="14.00">_layout</text>
</g>
<!-- SimulatorsController -->
<g id="node7" class="node"><title>SimulatorsController</title>
<path fill="none" stroke="black" d="M210.5,197.5C210.5,197.5 395.5,197.5 395.5,197.5 401.5,197.5 407.5,191.5 407.5,185.5 407.5,185.5 407.5,-33.5 407.5,-33.5 407.5,-39.5 401.5,-45.5 395.5,-45.5 395.5,-45.5 210.5,-45.5 210.5,-45.5 204.5,-45.5 198.5,-39.5 198.5,-33.5 198.5,-33.5 198.5,185.5 198.5,185.5 198.5,191.5 204.5,197.5 210.5,197.5"/>
<text text-anchor="middle" x="303" y="-30.3" font-family="Times,serif" font-size="14.00">SimulatorsController</text>
<polyline fill="none" stroke="black" points="198.5,-22.5 407.5,-22.5 "/>
<text text-anchor="start" x="206.5" y="-7.3" font-family="Times,serif" font-size="14.00">create</text>
<text text-anchor="start" x="206.5" y="7.7" font-family="Times,serif" font-size="14.00">delete</text>
<text text-anchor="start" x="206.5" y="22.7" font-family="Times,serif" font-size="14.00">filter_chart</text>
<text text-anchor="start" x="206.5" y="37.7" font-family="Times,serif" font-size="14.00">finish_simulator</text>
<text text-anchor="start" x="206.5" y="52.7" font-family="Times,serif" font-size="14.00">index</text>
<text text-anchor="start" x="206.5" y="67.7" font-family="Times,serif" font-size="14.00">new</text>
<text text-anchor="start" x="206.5" y="82.7" font-family="Times,serif" font-size="14.00">pause_simulator</text>
<text text-anchor="start" x="206.5" y="97.7" font-family="Times,serif" font-size="14.00">show</text>
<text text-anchor="start" x="206.5" y="112.7" font-family="Times,serif" font-size="14.00">show_answered_questions</text>
<text text-anchor="start" x="206.5" y="127.7" font-family="Times,serif" font-size="14.00">update</text>
<polyline fill="none" stroke="black" points="198.5,135.5 407.5,135.5 "/>
<polyline fill="none" stroke="black" points="198.5,159.5 407.5,159.5 "/>
<text text-anchor="start" x="206.5" y="174.7" font-family="Times,serif" font-size="14.00">_layout</text>
<text text-anchor="start" x="206.5" y="189.7" font-family="Times,serif" font-size="14.00">simulator_params</text>
</g>
<!-- SchoolsController -->
<g id="node8" class="node"><title>SchoolsController</title>
<path fill="none" stroke="black" d="M496.5,-484.5C496.5,-484.5 615.5,-484.5 615.5,-484.5 621.5,-484.5 627.5,-490.5 627.5,-496.5 627.5,-496.5 627.5,-685.5 627.5,-685.5 627.5,-691.5 621.5,-697.5 615.5,-697.5 615.5,-697.5 496.5,-697.5 496.5,-697.5 490.5,-697.5 484.5,-691.5 484.5,-685.5 484.5,-685.5 484.5,-496.5 484.5,-496.5 484.5,-490.5 490.5,-484.5 496.5,-484.5"/>
<text text-anchor="middle" x="556" y="-682.3" font-family="Times,serif" font-size="14.00">SchoolsController</text>
<polyline fill="none" stroke="black" points="484.5,-674.5 627.5,-674.5 "/>
<text text-anchor="start" x="492.5" y="-659.3" font-family="Times,serif" font-size="14.00">create</text>
<text text-anchor="start" x="492.5" y="-644.3" font-family="Times,serif" font-size="14.00">destroy</text>
<text text-anchor="start" x="492.5" y="-629.3" font-family="Times,serif" font-size="14.00">edit</text>
<text text-anchor="start" x="492.5" y="-614.3" font-family="Times,serif" font-size="14.00">index</text>
<text text-anchor="start" x="492.5" y="-599.3" font-family="Times,serif" font-size="14.00">new</text>
<text text-anchor="start" x="492.5" y="-584.3" font-family="Times,serif" font-size="14.00">show</text>
<text text-anchor="start" x="492.5" y="-569.3" font-family="Times,serif" font-size="14.00">update</text>
<polyline fill="none" stroke="black" points="484.5,-561.5 627.5,-561.5 "/>
<polyline fill="none" stroke="black" points="484.5,-537.5 627.5,-537.5 "/>
<text text-anchor="start" x="492.5" y="-522.3" font-family="Times,serif" font-size="14.00">_layout</text>
<text text-anchor="start" x="492.5" y="-507.3" font-family="Times,serif" font-size="14.00">school_params</text>
<text text-anchor="start" x="492.5" y="-492.3" font-family="Times,serif" font-size="14.00">set_school</text>
</g>
<!-- AnsweredQuestionsController -->
<g id="node9" class="node"><title>AnsweredQuestionsController</title>
<path fill="none" stroke="black" d="M-76.5,-177C-76.5,-177 130.5,-177 130.5,-177 136.5,-177 142.5,-183 142.5,-189 142.5,-189 142.5,-393 142.5,-393 142.5,-399 136.5,-405 130.5,-405 130.5,-405 -76.5,-405 -76.5,-405 -82.5,-405 -88.5,-399 -88.5,-393 -88.5,-393 -88.5,-189 -88.5,-189 -88.5,-183 -82.5,-177 -76.5,-177"/>
<text text-anchor="middle" x="27" y="-389.8" font-family="Times,serif" font-size="14.00">AnsweredQuestionsController</text>
<polyline fill="none" stroke="black" points="-88.5,-382 142.5,-382 "/>
<text text-anchor="start" x="-80.5" y="-366.8" font-family="Times,serif" font-size="14.00">create</text>
<text text-anchor="start" x="-80.5" y="-351.8" font-family="Times,serif" font-size="14.00">delete</text>
<text text-anchor="start" x="-80.5" y="-336.8" font-family="Times,serif" font-size="14.00">edit</text>
<text text-anchor="start" x="-80.5" y="-321.8" font-family="Times,serif" font-size="14.00">index</text>
<text text-anchor="start" x="-80.5" y="-306.8" font-family="Times,serif" font-size="14.00">new</text>
<text text-anchor="start" x="-80.5" y="-291.8" font-family="Times,serif" font-size="14.00">show</text>
<text text-anchor="start" x="-80.5" y="-276.8" font-family="Times,serif" font-size="14.00">update</text>
<polyline fill="none" stroke="black" points="-88.5,-269 142.5,-269 "/>
<polyline fill="none" stroke="black" points="-88.5,-245 142.5,-245 "/>
<text text-anchor="start" x="-80.5" y="-229.8" font-family="Times,serif" font-size="14.00">_layout</text>
<text text-anchor="start" x="-80.5" y="-214.8" font-family="Times,serif" font-size="14.00">answer_is_correct</text>
<text text-anchor="start" x="-80.5" y="-199.8" font-family="Times,serif" font-size="14.00">answered_question_params</text>
<text text-anchor="start" x="-80.5" y="-184.8" font-family="Times,serif" font-size="14.00">get_category_and_sub</text>
</g>
<!-- LiveClassesController -->
<g id="node10" class="node"><title>LiveClassesController</title>
<path fill="none" stroke="black" d="M-252,527.5C-252,527.5 -104,527.5 -104,527.5 -98,527.5 -92,521.5 -92,515.5 -92,515.5 -92,446.5 -92,446.5 -92,440.5 -98,434.5 -104,434.5 -104,434.5 -252,434.5 -252,434.5 -258,434.5 -264,440.5 -264,446.5 -264,446.5 -264,515.5 -264,515.5 -264,521.5 -258,527.5 -252,527.5"/>
<text text-anchor="middle" x="-178" y="449.7" font-family="Times,serif" font-size="14.00">LiveClassesController</text>
<polyline fill="none" stroke="black" points="-264,457.5 -92,457.5 "/>
<text text-anchor="start" x="-256" y="472.7" font-family="Times,serif" font-size="14.00">index</text>
<polyline fill="none" stroke="black" points="-264,480.5 -92,480.5 "/>
<polyline fill="none" stroke="black" points="-264,504.5 -92,504.5 "/>
<text text-anchor="start" x="-256" y="519.7" font-family="Times,serif" font-size="14.00">_layout</text>
</g>
<!-- OmniauthCallbacksController -->
<g id="node11" class="node"><title>OmniauthCallbacksController</title>
<path fill="none" stroke="black" d="M-516,527C-516,527 -316,527 -316,527 -310,527 -304,521 -304,515 -304,515 -304,431 -304,431 -304,425 -310,419 -316,419 -316,419 -516,419 -516,419 -522,419 -528,425 -528,431 -528,431 -528,515 -528,515 -528,521 -522,527 -516,527"/>
<text text-anchor="middle" x="-416" y="434.2" font-family="Times,serif" font-size="14.00">OmniauthCallbacksController</text>
<polyline fill="none" stroke="black" points="-528,442 -304,442 "/>
<text text-anchor="start" x="-520" y="457.2" font-family="Times,serif" font-size="14.00">facebook</text>
<text text-anchor="start" x="-520" y="472.2" font-family="Times,serif" font-size="14.00">failure</text>
<polyline fill="none" stroke="black" points="-528,480 -304,480 "/>
<polyline fill="none" stroke="black" points="-528,504 -304,504 "/>
<text text-anchor="start" x="-520" y="519.2" font-family="Times,serif" font-size="14.00">_layout</text>
</g>
<!-- CategoriesController -->
<g id="node12" class="node"><title>CategoriesController</title>
<path fill="none" stroke="black" d="M-340.5,-1C-340.5,-1 -197.5,-1 -197.5,-1 -191.5,-1 -185.5,-7 -185.5,-13 -185.5,-13 -185.5,-247 -185.5,-247 -185.5,-253 -191.5,-259 -197.5,-259 -197.5,-259 -340.5,-259 -340.5,-259 -346.5,-259 -352.5,-253 -352.5,-247 -352.5,-247 -352.5,-13 -352.5,-13 -352.5,-7 -346.5,-1 -340.5,-1"/>
<text text-anchor="middle" x="-269" y="-243.8" font-family="Times,serif" font-size="14.00">CategoriesController</text>
<polyline fill="none" stroke="black" points="-352.5,-236 -185.5,-236 "/>
<text text-anchor="start" x="-344.5" y="-220.8" font-family="Times,serif" font-size="14.00">create</text>
<text text-anchor="start" x="-344.5" y="-205.8" font-family="Times,serif" font-size="14.00">delete</text>
<text text-anchor="start" x="-344.5" y="-190.8" font-family="Times,serif" font-size="14.00">devise_mapping</text>
<text text-anchor="start" x="-344.5" y="-175.8" font-family="Times,serif" font-size="14.00">edit</text>
<text text-anchor="start" x="-344.5" y="-160.8" font-family="Times,serif" font-size="14.00">filter_chart</text>
<text text-anchor="start" x="-344.5" y="-145.8" font-family="Times,serif" font-size="14.00">index</text>
<text text-anchor="start" x="-344.5" y="-130.8" font-family="Times,serif" font-size="14.00">new</text>
<text text-anchor="start" x="-344.5" y="-115.8" font-family="Times,serif" font-size="14.00">resource</text>
<text text-anchor="start" x="-344.5" y="-100.8" font-family="Times,serif" font-size="14.00">resource_name</text>
<text text-anchor="start" x="-344.5" y="-85.8" font-family="Times,serif" font-size="14.00">show</text>
<text text-anchor="start" x="-344.5" y="-70.8" font-family="Times,serif" font-size="14.00">update</text>
<polyline fill="none" stroke="black" points="-352.5,-63 -185.5,-63 "/>
<polyline fill="none" stroke="black" points="-352.5,-39 -185.5,-39 "/>
<text text-anchor="start" x="-344.5" y="-23.8" font-family="Times,serif" font-size="14.00">_layout</text>
<text text-anchor="start" x="-344.5" y="-8.8" font-family="Times,serif" font-size="14.00">category_params</text>
</g>
<!-- TasksController -->
<g id="node13" class="node"><title>TasksController</title>
<path fill="none" stroke="black" d="M-515.5,-0.5C-515.5,-0.5 -408.5,-0.5 -408.5,-0.5 -402.5,-0.5 -396.5,-6.5 -396.5,-12.5 -396.5,-12.5 -396.5,-201.5 -396.5,-201.5 -396.5,-207.5 -402.5,-213.5 -408.5,-213.5 -408.5,-213.5 -515.5,-213.5 -515.5,-213.5 -521.5,-213.5 -527.5,-207.5 -527.5,-201.5 -527.5,-201.5 -527.5,-12.5 -527.5,-12.5 -527.5,-6.5 -521.5,-0.5 -515.5,-0.5"/>
<text text-anchor="middle" x="-462" y="-198.3" font-family="Times,serif" font-size="14.00">TasksController</text>
<polyline fill="none" stroke="black" points="-527.5,-190.5 -396.5,-190.5 "/>
<text text-anchor="start" x="-519.5" y="-175.3" font-family="Times,serif" font-size="14.00">create</text>
<text text-anchor="start" x="-519.5" y="-160.3" font-family="Times,serif" font-size="14.00">destroy</text>
<text text-anchor="start" x="-519.5" y="-145.3" font-family="Times,serif" font-size="14.00">edit</text>
<text text-anchor="start" x="-519.5" y="-130.3" font-family="Times,serif" font-size="14.00">index</text>
<text text-anchor="start" x="-519.5" y="-115.3" font-family="Times,serif" font-size="14.00">new</text>
<text text-anchor="start" x="-519.5" y="-100.3" font-family="Times,serif" font-size="14.00">show</text>
<text text-anchor="start" x="-519.5" y="-85.3" font-family="Times,serif" font-size="14.00">update</text>
<polyline fill="none" stroke="black" points="-527.5,-77.5 -396.5,-77.5 "/>
<polyline fill="none" stroke="black" points="-527.5,-53.5 -396.5,-53.5 "/>
<text text-anchor="start" x="-519.5" y="-38.3" font-family="Times,serif" font-size="14.00">_layout</text>
<text text-anchor="start" x="-519.5" y="-23.3" font-family="Times,serif" font-size="14.00">set_task</text>
<text text-anchor="start" x="-519.5" y="-8.3" font-family="Times,serif" font-size="14.00">task_params</text>
</g>
<!-- SimulatorAnsweredQuestionsController -->
<g id="node14" class="node"><title>SimulatorAnsweredQuestionsController</title>
<path fill="none" stroke="black" d="M-142,131C-142,131 136,131 136,131 142,131 148,125 148,119 148,119 148,-115 148,-115 148,-121 142,-127 136,-127 136,-127 -142,-127 -142,-127 -148,-127 -154,-121 -154,-115 -154,-115 -154,119 -154,119 -154,125 -148,131 -142,131"/>
<text text-anchor="middle" x="-3" y="-111.8" font-family="Times,serif" font-size="14.00">SimulatorAnsweredQuestionsController</text>
<polyline fill="none" stroke="black" points="-154,-104 148,-104 "/>
<text text-anchor="start" x="-146" y="-88.8" font-family="Times,serif" font-size="14.00">create</text>
<text text-anchor="start" x="-146" y="-73.8" font-family="Times,serif" font-size="14.00">delete</text>
<text text-anchor="start" x="-146" y="-58.8" font-family="Times,serif" font-size="14.00">edit</text>
<text text-anchor="start" x="-146" y="-43.8" font-family="Times,serif" font-size="14.00">index</text>
<text text-anchor="start" x="-146" y="-28.8" font-family="Times,serif" font-size="14.00">new</text>
<text text-anchor="start" x="-146" y="-13.8" font-family="Times,serif" font-size="14.00">show</text>
<text text-anchor="start" x="-146" y="1.2" font-family="Times,serif" font-size="14.00">update</text>
<polyline fill="none" stroke="black" points="-154,9 148,9 "/>
<polyline fill="none" stroke="black" points="-154,33 148,33 "/>
<text text-anchor="start" x="-146" y="48.2" font-family="Times,serif" font-size="14.00">_layout</text>
<text text-anchor="start" x="-146" y="63.2" font-family="Times,serif" font-size="14.00">answer_status</text>
<text text-anchor="start" x="-146" y="78.2" font-family="Times,serif" font-size="14.00">answered_question_params</text>
<text text-anchor="start" x="-146" y="93.2" font-family="Times,serif" font-size="14.00">get_clue_class</text>
<text text-anchor="start" x="-146" y="108.2" font-family="Times,serif" font-size="14.00">get_simulator_and_question</text>
<text text-anchor="start" x="-146" y="123.2" font-family="Times,serif" font-size="14.00">show_answered_question</text>
</g>
<!-- UniversitiesController -->
<g id="node15" class="node"><title>UniversitiesController</title>
<path fill="none" stroke="black" d="M-32,-440.5C-32,-440.5 122,-440.5 122,-440.5 128,-440.5 134,-446.5 134,-452.5 134,-452.5 134,-641.5 134,-641.5 134,-647.5 128,-653.5 122,-653.5 122,-653.5 -32,-653.5 -32,-653.5 -38,-653.5 -44,-647.5 -44,-641.5 -44,-641.5 -44,-452.5 -44,-452.5 -44,-446.5 -38,-440.5 -32,-440.5"/>
<text text-anchor="middle" x="45" y="-638.3" font-family="Times,serif" font-size="14.00">UniversitiesController</text>
<polyline fill="none" stroke="black" points="-44,-630.5 134,-630.5 "/>
<text text-anchor="start" x="-36" y="-615.3" font-family="Times,serif" font-size="14.00">create</text>
<text text-anchor="start" x="-36" y="-600.3" font-family="Times,serif" font-size="14.00">destroy</text>
<text text-anchor="start" x="-36" y="-585.3" font-family="Times,serif" font-size="14.00">edit</text>
<text text-anchor="start" x="-36" y="-570.3" font-family="Times,serif" font-size="14.00">index</text>
<text text-anchor="start" x="-36" y="-555.3" font-family="Times,serif" font-size="14.00">new</text>
<text text-anchor="start" x="-36" y="-540.3" font-family="Times,serif" font-size="14.00">show</text>
<text text-anchor="start" x="-36" y="-525.3" font-family="Times,serif" font-size="14.00">update</text>
<polyline fill="none" stroke="black" points="-44,-517.5 134,-517.5 "/>
<polyline fill="none" stroke="black" points="-44,-493.5 134,-493.5 "/>
<text text-anchor="start" x="-36" y="-478.3" font-family="Times,serif" font-size="14.00">_layout</text>
<text text-anchor="start" x="-36" y="-463.3" font-family="Times,serif" font-size="14.00">set_university</text>
<text text-anchor="start" x="-36" y="-448.3" font-family="Times,serif" font-size="14.00">university_params</text>
</g>
<!-- PointsController -->
<g id="node16" class="node"><title>PointsController</title>
<path fill="none" stroke="black" d="M254.5,549C254.5,549 365.5,549 365.5,549 371.5,549 377.5,543 377.5,537 377.5,537 377.5,453 377.5,453 377.5,447 371.5,441 365.5,441 365.5,441 254.5,441 254.5,441 248.5,441 242.5,447 242.5,453 242.5,453 242.5,537 242.5,537 242.5,543 248.5,549 254.5,549"/>
<text text-anchor="middle" x="310" y="456.2" font-family="Times,serif" font-size="14.00">PointsController</text>
<polyline fill="none" stroke="black" points="242.5,464 377.5,464 "/>
<text text-anchor="start" x="250.5" y="479.2" font-family="Times,serif" font-size="14.00">create</text>
<polyline fill="none" stroke="black" points="242.5,487 377.5,487 "/>
<polyline fill="none" stroke="black" points="242.5,511 377.5,511 "/>
<text text-anchor="start" x="250.5" y="526.2" font-family="Times,serif" font-size="14.00">_layout</text>
<text text-anchor="start" x="250.5" y="541.2" font-family="Times,serif" font-size="14.00">point_params</text>
</g>
<!-- ApplicationController -->
<g id="node17" class="node"><title>ApplicationController</title>
<path fill="none" stroke="black" d="M166.5,395.5C166.5,395.5 369.5,395.5 369.5,395.5 375.5,395.5 381.5,389.5 381.5,383.5 381.5,383.5 381.5,254.5 381.5,254.5 381.5,248.5 375.5,242.5 369.5,242.5 369.5,242.5 166.5,242.5 166.5,242.5 160.5,242.5 154.5,248.5 154.5,254.5 154.5,254.5 154.5,383.5 154.5,383.5 154.5,389.5 160.5,395.5 166.5,395.5"/>
<text text-anchor="middle" x="268" y="257.7" font-family="Times,serif" font-size="14.00">ApplicationController</text>
<polyline fill="none" stroke="black" points="154.5,265.5 381.5,265.5 "/>
<text text-anchor="start" x="162.5" y="280.7" font-family="Times,serif" font-size="14.00">calculate_license_countdown</text>
<text text-anchor="start" x="162.5" y="295.7" font-family="Times,serif" font-size="14.00">check_license</text>
<text text-anchor="start" x="162.5" y="310.7" font-family="Times,serif" font-size="14.00">raise_not_found!</text>
<text text-anchor="start" x="162.5" y="325.7" font-family="Times,serif" font-size="14.00">render_404</text>
<text text-anchor="start" x="162.5" y="340.7" font-family="Times,serif" font-size="14.00">render_js_only</text>
<polyline fill="none" stroke="black" points="154.5,348.5 381.5,348.5 "/>
<polyline fill="none" stroke="black" points="154.5,372.5 381.5,372.5 "/>
<text text-anchor="start" x="162.5" y="387.7" font-family="Times,serif" font-size="14.00">_layout</text>
</g>
<!-- CareersController -->
<g id="node18" class="node"><title>CareersController</title>
<path fill="none" stroke="black" d="M298,-484.5C298,-484.5 420,-484.5 420,-484.5 426,-484.5 432,-490.5 432,-496.5 432,-496.5 432,-685.5 432,-685.5 432,-691.5 426,-697.5 420,-697.5 420,-697.5 298,-697.5 298,-697.5 292,-697.5 286,-691.5 286,-685.5 286,-685.5 286,-496.5 286,-496.5 286,-490.5 292,-484.5 298,-484.5"/>
<text text-anchor="middle" x="359" y="-682.3" font-family="Times,serif" font-size="14.00">CareersController</text>
<polyline fill="none" stroke="black" points="286,-674.5 432,-674.5 "/>
<text text-anchor="start" x="294" y="-659.3" font-family="Times,serif" font-size="14.00">create</text>
<text text-anchor="start" x="294" y="-644.3" font-family="Times,serif" font-size="14.00">destroy</text>
<text text-anchor="start" x="294" y="-629.3" font-family="Times,serif" font-size="14.00">edit</text>
<text text-anchor="start" x="294" y="-614.3" font-family="Times,serif" font-size="14.00">index</text>
<text text-anchor="start" x="294" y="-599.3" font-family="Times,serif" font-size="14.00">new</text>
<text text-anchor="start" x="294" y="-584.3" font-family="Times,serif" font-size="14.00">show</text>
<text text-anchor="start" x="294" y="-569.3" font-family="Times,serif" font-size="14.00">update</text>
<polyline fill="none" stroke="black" points="286,-561.5 432,-561.5 "/>
<polyline fill="none" stroke="black" points="286,-537.5 432,-537.5 "/>
<text text-anchor="start" x="294" y="-522.3" font-family="Times,serif" font-size="14.00">_layout</text>
<text text-anchor="start" x="294" y="-507.3" font-family="Times,serif" font-size="14.00">career_params</text>
<text text-anchor="start" x="294" y="-492.3" font-family="Times,serif" font-size="14.00">set_career</text>
</g>
<!-- SubCategoriesController -->
<g id="node19" class="node"><title>SubCategoriesController</title>
<path fill="none" stroke="black" d="M-317.5,-331C-317.5,-331 -132.5,-331 -132.5,-331 -126.5,-331 -120.5,-337 -120.5,-343 -120.5,-343 -120.5,-547 -120.5,-547 -120.5,-553 -126.5,-559 -132.5,-559 -132.5,-559 -317.5,-559 -317.5,-559 -323.5,-559 -329.5,-553 -329.5,-547 -329.5,-547 -329.5,-343 -329.5,-343 -329.5,-337 -323.5,-331 -317.5,-331"/>
<text text-anchor="middle" x="-225" y="-543.8" font-family="Times,serif" font-size="14.00">SubCategoriesController</text>
<polyline fill="none" stroke="black" points="-329.5,-536 -120.5,-536 "/>
<text text-anchor="start" x="-321.5" y="-520.8" font-family="Times,serif" font-size="14.00">create</text>
<text text-anchor="start" x="-321.5" y="-505.8" font-family="Times,serif" font-size="14.00">delete</text>
<text text-anchor="start" x="-321.5" y="-490.8" font-family="Times,serif" font-size="14.00">edit</text>
<text text-anchor="start" x="-321.5" y="-475.8" font-family="Times,serif" font-size="14.00">index</text>
<text text-anchor="start" x="-321.5" y="-460.8" font-family="Times,serif" font-size="14.00">new</text>
<text text-anchor="start" x="-321.5" y="-445.8" font-family="Times,serif" font-size="14.00">show</text>
<text text-anchor="start" x="-321.5" y="-430.8" font-family="Times,serif" font-size="14.00">show_answered_questions</text>
<text text-anchor="start" x="-321.5" y="-415.8" font-family="Times,serif" font-size="14.00">update</text>
<polyline fill="none" stroke="black" points="-329.5,-408 -120.5,-408 "/>
<polyline fill="none" stroke="black" points="-329.5,-384 -120.5,-384 "/>
<text text-anchor="start" x="-321.5" y="-368.8" font-family="Times,serif" font-size="14.00">_layout</text>
<text text-anchor="start" x="-321.5" y="-353.8" font-family="Times,serif" font-size="14.00">get_category</text>
<text text-anchor="start" x="-321.5" y="-338.8" font-family="Times,serif" font-size="14.00">sub_category_params</text>
</g>
<!-- RegistrationsController -->
<g id="node20" class="node"><title>RegistrationsController</title>
<path fill="none" stroke="black" d="M12,571.5C12,571.5 180,571.5 180,571.5 186,571.5 192,565.5 192,559.5 192,559.5 192,460.5 192,460.5 192,454.5 186,448.5 180,448.5 180,448.5 12,448.5 12,448.5 6,448.5 0,454.5 0,460.5 0,460.5 0,559.5 0,559.5 0,565.5 6,571.5 12,571.5"/>
<text text-anchor="middle" x="96" y="463.7" font-family="Times,serif" font-size="14.00">RegistrationsController</text>
<polyline fill="none" stroke="black" points="0,471.5 192,471.5 "/>
<polyline fill="none" stroke="black" points="0,495.5 192,495.5 "/>
<text text-anchor="start" x="8" y="510.7" font-family="Times,serif" font-size="14.00">account_update_params</text>
<text text-anchor="start" x="8" y="525.7" font-family="Times,serif" font-size="14.00">sign_up_params</text>
<text text-anchor="start" x="8" y="540.7" font-family="Times,serif" font-size="14.00">update_resource</text>
<polyline fill="none" stroke="black" points="0,548.5 192,548.5 "/>
<text text-anchor="start" x="8" y="563.7" font-family="Times,serif" font-size="14.00">_layout</text>
</g>
<!-- BlogsController -->
<g id="node21" class="node"><title>BlogsController</title>
<path fill="none" stroke="black" d="M-516,-264.5C-516,-264.5 -412,-264.5 -412,-264.5 -406,-264.5 -400,-270.5 -400,-276.5 -400,-276.5 -400,-465.5 -400,-465.5 -400,-471.5 -406,-477.5 -412,-477.5 -412,-477.5 -516,-477.5 -516,-477.5 -522,-477.5 -528,-471.5 -528,-465.5 -528,-465.5 -528,-276.5 -528,-276.5 -528,-270.5 -522,-264.5 -516,-264.5"/>
<text text-anchor="middle" x="-464" y="-462.3" font-family="Times,serif" font-size="14.00">BlogsController</text>
<polyline fill="none" stroke="black" points="-528,-454.5 -400,-454.5 "/>
<text text-anchor="start" x="-520" y="-439.3" font-family="Times,serif" font-size="14.00">create</text>
<text text-anchor="start" x="-520" y="-424.3" font-family="Times,serif" font-size="14.00">destroy</text>
<text text-anchor="start" x="-520" y="-409.3" font-family="Times,serif" font-size="14.00">edit</text>
<text text-anchor="start" x="-520" y="-394.3" font-family="Times,serif" font-size="14.00">index</text>
<text text-anchor="start" x="-520" y="-379.3" font-family="Times,serif" font-size="14.00">new</text>
<text text-anchor="start" x="-520" y="-364.3" font-family="Times,serif" font-size="14.00">show</text>
<text text-anchor="start" x="-520" y="-349.3" font-family="Times,serif" font-size="14.00">update</text>
<polyline fill="none" stroke="black" points="-528,-341.5 -400,-341.5 "/>
<polyline fill="none" stroke="black" points="-528,-317.5 -400,-317.5 "/>
<text text-anchor="start" x="-520" y="-302.3" font-family="Times,serif" font-size="14.00">_layout</text>
<text text-anchor="start" x="-520" y="-287.3" font-family="Times,serif" font-size="14.00">blog_params</text>
<text text-anchor="start" x="-520" y="-272.3" font-family="Times,serif" font-size="14.00">set_blog</text>
</g>
<!-- TutorialsController -->
<g id="node22" class="node"><title>TutorialsController</title>
<path fill="none" stroke="black" d="M518,-88.5C518,-88.5 650,-88.5 650,-88.5 656,-88.5 662,-94.5 662,-100.5 662,-100.5 662,-289.5 662,-289.5 662,-295.5 656,-301.5 650,-301.5 650,-301.5 518,-301.5 518,-301.5 512,-301.5 506,-295.5 506,-289.5 506,-289.5 506,-100.5 506,-100.5 506,-94.5 512,-88.5 518,-88.5"/>
<text text-anchor="middle" x="584" y="-286.3" font-family="Times,serif" font-size="14.00">TutorialsController</text>
<polyline fill="none" stroke="black" points="506,-278.5 662,-278.5 "/>
<text text-anchor="start" x="514" y="-263.3" font-family="Times,serif" font-size="14.00">create</text>
<text text-anchor="start" x="514" y="-248.3" font-family="Times,serif" font-size="14.00">destroy</text>
<text text-anchor="start" x="514" y="-233.3" font-family="Times,serif" font-size="14.00">edit</text>
<text text-anchor="start" x="514" y="-218.3" font-family="Times,serif" font-size="14.00">index</text>
<text text-anchor="start" x="514" y="-203.3" font-family="Times,serif" font-size="14.00">new</text>
<text text-anchor="start" x="514" y="-188.3" font-family="Times,serif" font-size="14.00">show</text>
<text text-anchor="start" x="514" y="-173.3" font-family="Times,serif" font-size="14.00">update</text>
<polyline fill="none" stroke="black" points="506,-165.5 662,-165.5 "/>
<polyline fill="none" stroke="black" points="506,-141.5 662,-141.5 "/>
<text text-anchor="start" x="514" y="-126.3" font-family="Times,serif" font-size="14.00">_layout</text>
<text text-anchor="start" x="514" y="-111.3" font-family="Times,serif" font-size="14.00">set_tutorial</text>
<text text-anchor="start" x="514" y="-96.3" font-family="Times,serif" font-size="14.00">tutorial_params</text>
</g>
<!-- QuestionsController -->
<g id="node23" class="node"><title>QuestionsController</title>
<path fill="none" stroke="black" d="M452,175C452,175 610,175 610,175 616,175 622,169 622,163 622,163 622,-41 622,-41 622,-47 616,-53 610,-53 610,-53 452,-53 452,-53 446,-53 440,-47 440,-41 440,-41 440,163 440,163 440,169 446,175 452,175"/>
<text text-anchor="middle" x="531" y="-37.8" font-family="Times,serif" font-size="14.00">QuestionsController</text>
<polyline fill="none" stroke="black" points="440,-30 622,-30 "/>
<text text-anchor="start" x="448" y="-14.8" font-family="Times,serif" font-size="14.00">create</text>
<text text-anchor="start" x="448" y="0.2" font-family="Times,serif" font-size="14.00">delete</text>
<text text-anchor="start" x="448" y="15.2" font-family="Times,serif" font-size="14.00">edit</text>
<text text-anchor="start" x="448" y="30.2" font-family="Times,serif" font-size="14.00">index</text>
<text text-anchor="start" x="448" y="45.2" font-family="Times,serif" font-size="14.00">new</text>
<text text-anchor="start" x="448" y="60.2" font-family="Times,serif" font-size="14.00">show</text>
<text text-anchor="start" x="448" y="75.2" font-family="Times,serif" font-size="14.00">update</text>
<polyline fill="none" stroke="black" points="440,83 622,83 "/>
<polyline fill="none" stroke="black" points="440,107 622,107 "/>
<text text-anchor="start" x="448" y="122.2" font-family="Times,serif" font-size="14.00">_layout</text>
<text text-anchor="start" x="448" y="137.2" font-family="Times,serif" font-size="14.00">get_category_and_sub</text>
<text text-anchor="start" x="448" y="152.2" font-family="Times,serif" font-size="14.00">question_params</text>
<text text-anchor="start" x="448" y="167.2" font-family="Times,serif" font-size="14.00">show_questions_index</text>
</g>
<!-- ChoicesController -->
<g id="node24" class="node"><title>ChoicesController</title>
<path fill="none" stroke="black" d="M188.5,-177C188.5,-177 451.5,-177 451.5,-177 457.5,-177 463.5,-183 463.5,-189 463.5,-189 463.5,-423 463.5,-423 463.5,-429 457.5,-435 451.5,-435 451.5,-435 188.5,-435 188.5,-435 182.5,-435 176.5,-429 176.5,-423 176.5,-423 176.5,-189 176.5,-189 176.5,-183 182.5,-177 188.5,-177"/>
<text text-anchor="middle" x="320" y="-419.8" font-family="Times,serif" font-size="14.00">ChoicesController</text>
<polyline fill="none" stroke="black" points="176.5,-412 463.5,-412 "/>
<text text-anchor="start" x="184.5" y="-396.8" font-family="Times,serif" font-size="14.00">create</text>
<text text-anchor="start" x="184.5" y="-381.8" font-family="Times,serif" font-size="14.00">delete</text>
<text text-anchor="start" x="184.5" y="-366.8" font-family="Times,serif" font-size="14.00">edit</text>
<text text-anchor="start" x="184.5" y="-351.8" font-family="Times,serif" font-size="14.00">index</text>
<text text-anchor="start" x="184.5" y="-336.8" font-family="Times,serif" font-size="14.00">new</text>
<text text-anchor="start" x="184.5" y="-321.8" font-family="Times,serif" font-size="14.00">show</text>
<text text-anchor="start" x="184.5" y="-306.8" font-family="Times,serif" font-size="14.00">update</text>
<polyline fill="none" stroke="black" points="176.5,-299 463.5,-299 "/>
<polyline fill="none" stroke="black" points="176.5,-275 463.5,-275 "/>
<text text-anchor="start" x="184.5" y="-259.8" font-family="Times,serif" font-size="14.00">_layout</text>
<text text-anchor="start" x="184.5" y="-244.8" font-family="Times,serif" font-size="14.00">choice_params</text>
<text text-anchor="start" x="184.5" y="-229.8" font-family="Times,serif" font-size="14.00">get_category_and_sub_and_question</text>
<text text-anchor="start" x="184.5" y="-214.8" font-family="Times,serif" font-size="14.00">show_choices_index</text>
<text text-anchor="start" x="184.5" y="-199.8" font-family="Times,serif" font-size="14.00">update_choice</text>
<text text-anchor="start" x="184.5" y="-184.8" font-family="Times,serif" font-size="14.00">update_if_correct_choice</text>
</g>
<!-- SectionsController -->
<g id="node25" class="node"><title>SectionsController</title>
<path fill="none" stroke="black" d="M-515.5,-528.5C-515.5,-528.5 -388.5,-528.5 -388.5,-528.5 -382.5,-528.5 -376.5,-534.5 -376.5,-540.5 -376.5,-540.5 -376.5,-729.5 -376.5,-729.5 -376.5,-735.5 -382.5,-741.5 -388.5,-741.5 -388.5,-741.5 -515.5,-741.5 -515.5,-741.5 -521.5,-741.5 -527.5,-735.5 -527.5,-729.5 -527.5,-729.5 -527.5,-540.5 -527.5,-540.5 -527.5,-534.5 -521.5,-528.5 -515.5,-528.5"/>
<text text-anchor="middle" x="-452" y="-726.3" font-family="Times,serif" font-size="14.00">SectionsController</text>
<polyline fill="none" stroke="black" points="-527.5,-718.5 -376.5,-718.5 "/>
<text text-anchor="start" x="-519.5" y="-703.3" font-family="Times,serif" font-size="14.00">create</text>
<text text-anchor="start" x="-519.5" y="-688.3" font-family="Times,serif" font-size="14.00">destroy</text>
<text text-anchor="start" x="-519.5" y="-673.3" font-family="Times,serif" font-size="14.00">edit</text>
<text text-anchor="start" x="-519.5" y="-658.3" font-family="Times,serif" font-size="14.00">index</text>
<text text-anchor="start" x="-519.5" y="-643.3" font-family="Times,serif" font-size="14.00">new</text>
<text text-anchor="start" x="-519.5" y="-628.3" font-family="Times,serif" font-size="14.00">show</text>
<text text-anchor="start" x="-519.5" y="-613.3" font-family="Times,serif" font-size="14.00">update</text>
<polyline fill="none" stroke="black" points="-527.5,-605.5 -376.5,-605.5 "/>
<polyline fill="none" stroke="black" points="-527.5,-581.5 -376.5,-581.5 "/>
<text text-anchor="start" x="-519.5" y="-566.3" font-family="Times,serif" font-size="14.00">_layout</text>
<text text-anchor="start" x="-519.5" y="-551.3" font-family="Times,serif" font-size="14.00">section_params</text>
<text text-anchor="start" x="-519.5" y="-536.3" font-family="Times,serif" font-size="14.00">set_section</text>
</g>
</g>
</svg>
