<?xml version="1.0" encoding="UTF-8" standalone="no"?>
<!DOCTYPE svg PUBLIC "-//W3C//DTD SVG 1.1//EN"
 "http://www.w3.org/Graphics/SVG/1.1/DTD/svg11.dtd">
<!-- Generated by graphviz version 2.36.0 (20140111.2315)
 -->
<!-- Title: controllers_diagram Pages: 1 -->
<svg width="984pt" height="1042pt"
 viewBox="0.00 0.00 984.00 1042.00" xmlns="http://www.w3.org/2000/svg" xmlns:xlink="http://www.w3.org/1999/xlink">
<g id="graph0" class="graph" transform="scale(1 1) rotate(0) translate(4 1038)">
<title>controllers_diagram</title>
<polygon fill="none" stroke="none" points="-4,4 -4,-1038 980,-1038 980,4 -4,4"/>
<!-- _diagram_info -->
<g id="node1" class="node"><title>_diagram_info</title>
<text text-anchor="start" x="548" y="-203.6" font-family="Times,serif" font-size="13.00">Controllers diagram</text>
<text text-anchor="start" x="548" y="-189.6" font-family="Times,serif" font-size="13.00">Date: Apr 29 2016 &#45; 20:10</text>
<text text-anchor="start" x="548" y="-175.6" font-family="Times,serif" font-size="13.00">Migration version: 20160428023020</text>
<text text-anchor="start" x="548" y="-161.6" font-family="Times,serif" font-size="13.00">Generated by RailRoady 1.4.2</text>
<text text-anchor="start" x="548" y="-147.6" font-family="Times,serif" font-size="13.00">http://railroady.prestonlee.com</text>
</g>
<!-- CareersController -->
<g id="node2" class="node"><title>CareersController</title>
<path fill="none" stroke="black" d="M232,-20.5C232,-20.5 321,-20.5 321,-20.5 327,-20.5 333,-26.5 333,-32.5 333,-32.5 333,-221.5 333,-221.5 333,-227.5 327,-233.5 321,-233.5 321,-233.5 232,-233.5 232,-233.5 226,-233.5 220,-227.5 220,-221.5 220,-221.5 220,-32.5 220,-32.5 220,-26.5 226,-20.5 232,-20.5"/>
<text text-anchor="middle" x="276.5" y="-218.3" font-family="Times,serif" font-size="14.00">CareersController</text>
<polyline fill="none" stroke="black" points="220,-210.5 333,-210.5 "/>
<text text-anchor="start" x="228" y="-195.3" font-family="Times,serif" font-size="14.00">create</text>
<text text-anchor="start" x="228" y="-180.3" font-family="Times,serif" font-size="14.00">destroy</text>
<text text-anchor="start" x="228" y="-165.3" font-family="Times,serif" font-size="14.00">edit</text>
<text text-anchor="start" x="228" y="-150.3" font-family="Times,serif" font-size="14.00">index</text>
<text text-anchor="start" x="228" y="-135.3" font-family="Times,serif" font-size="14.00">new</text>
<text text-anchor="start" x="228" y="-120.3" font-family="Times,serif" font-size="14.00">show</text>
<text text-anchor="start" x="228" y="-105.3" font-family="Times,serif" font-size="14.00">update</text>
<polyline fill="none" stroke="black" points="220,-97.5 333,-97.5 "/>
<polyline fill="none" stroke="black" points="220,-73.5 333,-73.5 "/>
<text text-anchor="start" x="228" y="-58.3" font-family="Times,serif" font-size="14.00">_layout</text>
<text text-anchor="start" x="228" y="-43.3" font-family="Times,serif" font-size="14.00">career_params</text>
<text text-anchor="start" x="228" y="-28.3" font-family="Times,serif" font-size="14.00">set_career</text>
</g>
<!-- SchoolsController -->
<g id="node3" class="node"><title>SchoolsController</title>
<path fill="none" stroke="black" d="M392,-20.5C392,-20.5 483,-20.5 483,-20.5 489,-20.5 495,-26.5 495,-32.5 495,-32.5 495,-221.5 495,-221.5 495,-227.5 489,-233.5 483,-233.5 483,-233.5 392,-233.5 392,-233.5 386,-233.5 380,-227.5 380,-221.5 380,-221.5 380,-32.5 380,-32.5 380,-26.5 386,-20.5 392,-20.5"/>
<text text-anchor="middle" x="437.5" y="-218.3" font-family="Times,serif" font-size="14.00">SchoolsController</text>
<polyline fill="none" stroke="black" points="380,-210.5 495,-210.5 "/>
<text text-anchor="start" x="388" y="-195.3" font-family="Times,serif" font-size="14.00">create</text>
<text text-anchor="start" x="388" y="-180.3" font-family="Times,serif" font-size="14.00">destroy</text>
<text text-anchor="start" x="388" y="-165.3" font-family="Times,serif" font-size="14.00">edit</text>
<text text-anchor="start" x="388" y="-150.3" font-family="Times,serif" font-size="14.00">index</text>
<text text-anchor="start" x="388" y="-135.3" font-family="Times,serif" font-size="14.00">new</text>
<text text-anchor="start" x="388" y="-120.3" font-family="Times,serif" font-size="14.00">show</text>
<text text-anchor="start" x="388" y="-105.3" font-family="Times,serif" font-size="14.00">update</text>
<polyline fill="none" stroke="black" points="380,-97.5 495,-97.5 "/>
<polyline fill="none" stroke="black" points="380,-73.5 495,-73.5 "/>
<text text-anchor="start" x="388" y="-58.3" font-family="Times,serif" font-size="14.00">_layout</text>
<text text-anchor="start" x="388" y="-43.3" font-family="Times,serif" font-size="14.00">school_params</text>
<text text-anchor="start" x="388" y="-28.3" font-family="Times,serif" font-size="14.00">set_school</text>
</g>
<!-- ChoicesController -->
<g id="node4" class="node"><title>ChoicesController</title>
<path fill="none" stroke="black" d="M552,-260.5C552,-260.5 745,-260.5 745,-260.5 751,-260.5 757,-266.5 757,-272.5 757,-272.5 757,-506.5 757,-506.5 757,-512.5 751,-518.5 745,-518.5 745,-518.5 552,-518.5 552,-518.5 546,-518.5 540,-512.5 540,-506.5 540,-506.5 540,-272.5 540,-272.5 540,-266.5 546,-260.5 552,-260.5"/>
<text text-anchor="middle" x="648.5" y="-503.3" font-family="Times,serif" font-size="14.00">ChoicesController</text>
<polyline fill="none" stroke="black" points="540,-495.5 757,-495.5 "/>
<text text-anchor="start" x="548" y="-480.3" font-family="Times,serif" font-size="14.00">create</text>
<text text-anchor="start" x="548" y="-465.3" font-family="Times,serif" font-size="14.00">delete</text>
<text text-anchor="start" x="548" y="-450.3" font-family="Times,serif" font-size="14.00">edit</text>
<text text-anchor="start" x="548" y="-435.3" font-family="Times,serif" font-size="14.00">index</text>
<text text-anchor="start" x="548" y="-420.3" font-family="Times,serif" font-size="14.00">new</text>
<text text-anchor="start" x="548" y="-405.3" font-family="Times,serif" font-size="14.00">show</text>
<text text-anchor="start" x="548" y="-390.3" font-family="Times,serif" font-size="14.00">update</text>
<polyline fill="none" stroke="black" points="540,-382.5 757,-382.5 "/>
<polyline fill="none" stroke="black" points="540,-358.5 757,-358.5 "/>
<text text-anchor="start" x="548" y="-343.3" font-family="Times,serif" font-size="14.00">_layout</text>
<text text-anchor="start" x="548" y="-328.3" font-family="Times,serif" font-size="14.00">choice_params</text>
<text text-anchor="start" x="548" y="-313.3" font-family="Times,serif" font-size="14.00">get_category_and_sub_and_question</text>
<text text-anchor="start" x="548" y="-298.3" font-family="Times,serif" font-size="14.00">show_choices_index</text>
<text text-anchor="start" x="548" y="-283.3" font-family="Times,serif" font-size="14.00">update_choice</text>
<text text-anchor="start" x="548" y="-268.3" font-family="Times,serif" font-size="14.00">update_if_correct_choice</text>
</g>
<!-- RegistrationsController -->
<g id="node5" class="node"><title>RegistrationsController</title>
<path fill="none" stroke="black" d="M12,-640.5C12,-640.5 136,-640.5 136,-640.5 142,-640.5 148,-646.5 148,-652.5 148,-652.5 148,-751.5 148,-751.5 148,-757.5 142,-763.5 136,-763.5 136,-763.5 12,-763.5 12,-763.5 6,-763.5 0,-757.5 0,-751.5 0,-751.5 0,-652.5 0,-652.5 0,-646.5 6,-640.5 12,-640.5"/>
<text text-anchor="middle" x="74" y="-748.3" font-family="Times,serif" font-size="14.00">RegistrationsController</text>
<polyline fill="none" stroke="black" points="0,-740.5 148,-740.5 "/>
<polyline fill="none" stroke="black" points="0,-716.5 148,-716.5 "/>
<text text-anchor="start" x="8" y="-701.3" font-family="Times,serif" font-size="14.00">account_update_params</text>
<text text-anchor="start" x="8" y="-686.3" font-family="Times,serif" font-size="14.00">sign_up_params</text>
<text text-anchor="start" x="8" y="-671.3" font-family="Times,serif" font-size="14.00">update_resource</text>
<polyline fill="none" stroke="black" points="0,-663.5 148,-663.5 "/>
<text text-anchor="start" x="8" y="-648.3" font-family="Times,serif" font-size="14.00">_layout</text>
</g>
<!-- TutorialsController -->
<g id="node6" class="node"><title>TutorialsController</title>
<path fill="none" stroke="black" d="M792,-820.5C792,-820.5 889,-820.5 889,-820.5 895,-820.5 901,-826.5 901,-832.5 901,-832.5 901,-1021.5 901,-1021.5 901,-1027.5 895,-1033.5 889,-1033.5 889,-1033.5 792,-1033.5 792,-1033.5 786,-1033.5 780,-1027.5 780,-1021.5 780,-1021.5 780,-832.5 780,-832.5 780,-826.5 786,-820.5 792,-820.5"/>
<text text-anchor="middle" x="840.5" y="-1018.3" font-family="Times,serif" font-size="14.00">TutorialsController</text>
<polyline fill="none" stroke="black" points="780,-1010.5 901,-1010.5 "/>
<text text-anchor="start" x="788" y="-995.3" font-family="Times,serif" font-size="14.00">create</text>
<text text-anchor="start" x="788" y="-980.3" font-family="Times,serif" font-size="14.00">destroy</text>
<text text-anchor="start" x="788" y="-965.3" font-family="Times,serif" font-size="14.00">edit</text>
<text text-anchor="start" x="788" y="-950.3" font-family="Times,serif" font-size="14.00">index</text>
<text text-anchor="start" x="788" y="-935.3" font-family="Times,serif" font-size="14.00">new</text>
<text text-anchor="start" x="788" y="-920.3" font-family="Times,serif" font-size="14.00">show</text>
<text text-anchor="start" x="788" y="-905.3" font-family="Times,serif" font-size="14.00">update</text>
<polyline fill="none" stroke="black" points="780,-897.5 901,-897.5 "/>
<polyline fill="none" stroke="black" points="780,-873.5 901,-873.5 "/>
<text text-anchor="start" x="788" y="-858.3" font-family="Times,serif" font-size="14.00">_layout</text>
<text text-anchor="start" x="788" y="-843.3" font-family="Times,serif" font-size="14.00">set_tutorial</text>
<text text-anchor="start" x="788" y="-828.3" font-family="Times,serif" font-size="14.00">tutorial_params</text>
</g>
<!-- SessionsController -->
<g id="node7" class="node"><title>SessionsController</title>
<path fill="none" stroke="black" d="M412,-880.5C412,-880.5 507,-880.5 507,-880.5 513,-880.5 519,-886.5 519,-892.5 519,-892.5 519,-962.5 519,-962.5 519,-968.5 513,-974.5 507,-974.5 507,-974.5 412,-974.5 412,-974.5 406,-974.5 400,-968.5 400,-962.5 400,-962.5 400,-892.5 400,-892.5 400,-886.5 406,-880.5 412,-880.5"/>
<text text-anchor="middle" x="459.5" y="-959.3" font-family="Times,serif" font-size="14.00">SessionsController</text>
<polyline fill="none" stroke="black" points="400,-951.5 519,-951.5 "/>
<polyline fill="none" stroke="black" points="400,-927.5 519,-927.5 "/>
<polyline fill="none" stroke="black" points="400,-903.5 519,-903.5 "/>
<text text-anchor="start" x="408" y="-888.3" font-family="Times,serif" font-size="14.00">_layout</text>
</g>
<!-- PointsController -->
<g id="node8" class="node"><title>PointsController</title>
<path fill="none" stroke="black" d="M552,-0.5C552,-0.5 634,-0.5 634,-0.5 640,-0.5 646,-6.5 646,-12.5 646,-12.5 646,-96.5 646,-96.5 646,-102.5 640,-108.5 634,-108.5 634,-108.5 552,-108.5 552,-108.5 546,-108.5 540,-102.5 540,-96.5 540,-96.5 540,-12.5 540,-12.5 540,-6.5 546,-0.5 552,-0.5"/>
<text text-anchor="middle" x="593" y="-93.3" font-family="Times,serif" font-size="14.00">PointsController</text>
<polyline fill="none" stroke="black" points="540,-85.5 646,-85.5 "/>
<text text-anchor="start" x="548" y="-70.3" font-family="Times,serif" font-size="14.00">create</text>
<polyline fill="none" stroke="black" points="540,-62.5 646,-62.5 "/>
<polyline fill="none" stroke="black" points="540,-38.5 646,-38.5 "/>
<text text-anchor="start" x="548" y="-23.3" font-family="Times,serif" font-size="14.00">_layout</text>
<text text-anchor="start" x="548" y="-8.3" font-family="Times,serif" font-size="14.00">point_params</text>
</g>
<!-- OmniauthCallbacksController -->
<g id="node9" class="node"><title>OmniauthCallbacksController</title>
<path fill="none" stroke="black" d="M572,-820.5C572,-820.5 728,-820.5 728,-820.5 734,-820.5 740,-826.5 740,-832.5 740,-832.5 740,-916.5 740,-916.5 740,-922.5 734,-928.5 728,-928.5 728,-928.5 572,-928.5 572,-928.5 566,-928.5 560,-922.5 560,-916.5 560,-916.5 560,-832.5 560,-832.5 560,-826.5 566,-820.5 572,-820.5"/>
<text text-anchor="middle" x="650" y="-913.3" font-family="Times,serif" font-size="14.00">OmniauthCallbacksController</text>
<polyline fill="none" stroke="black" points="560,-905.5 740,-905.5 "/>
<text text-anchor="start" x="568" y="-890.3" font-family="Times,serif" font-size="14.00">facebook</text>
<text text-anchor="start" x="568" y="-875.3" font-family="Times,serif" font-size="14.00">failure</text>
<polyline fill="none" stroke="black" points="560,-867.5 740,-867.5 "/>
<polyline fill="none" stroke="black" points="560,-843.5 740,-843.5 "/>
<text text-anchor="start" x="568" y="-828.3" font-family="Times,serif" font-size="14.00">_layout</text>
</g>
<!-- AnsweredQuestionsController -->
<g id="node10" class="node"><title>AnsweredQuestionsController</title>
<path fill="none" stroke="black" d="M552,-560.5C552,-560.5 709,-560.5 709,-560.5 715,-560.5 721,-566.5 721,-572.5 721,-572.5 721,-776.5 721,-776.5 721,-782.5 715,-788.5 709,-788.5 709,-788.5 552,-788.5 552,-788.5 546,-788.5 540,-782.5 540,-776.5 540,-776.5 540,-572.5 540,-572.5 540,-566.5 546,-560.5 552,-560.5"/>
<text text-anchor="middle" x="630.5" y="-773.3" font-family="Times,serif" font-size="14.00">AnsweredQuestionsController</text>
<polyline fill="none" stroke="black" points="540,-765.5 721,-765.5 "/>
<text text-anchor="start" x="548" y="-750.3" font-family="Times,serif" font-size="14.00">create</text>
<text text-anchor="start" x="548" y="-735.3" font-family="Times,serif" font-size="14.00">delete</text>
<text text-anchor="start" x="548" y="-720.3" font-family="Times,serif" font-size="14.00">edit</text>
<text text-anchor="start" x="548" y="-705.3" font-family="Times,serif" font-size="14.00">index</text>
<text text-anchor="start" x="548" y="-690.3" font-family="Times,serif" font-size="14.00">new</text>
<text text-anchor="start" x="548" y="-675.3" font-family="Times,serif" font-size="14.00">show</text>
<text text-anchor="start" x="548" y="-660.3" font-family="Times,serif" font-size="14.00">update</text>
<polyline fill="none" stroke="black" points="540,-652.5 721,-652.5 "/>
<polyline fill="none" stroke="black" points="540,-628.5 721,-628.5 "/>
<text text-anchor="start" x="548" y="-613.3" font-family="Times,serif" font-size="14.00">_layout</text>
<text text-anchor="start" x="548" y="-598.3" font-family="Times,serif" font-size="14.00">answer_is_correct</text>
<text text-anchor="start" x="548" y="-583.3" font-family="Times,serif" font-size="14.00">answered_question_params</text>
<text text-anchor="start" x="548" y="-568.3" font-family="Times,serif" font-size="14.00">get_category_and_sub</text>
</g>
<!-- CategoriesController -->
<g id="node11" class="node"><title>CategoriesController</title>
<path fill="none" stroke="black" d="M392,-580.5C392,-580.5 498,-580.5 498,-580.5 504,-580.5 510,-586.5 510,-592.5 510,-592.5 510,-826.5 510,-826.5 510,-832.5 504,-838.5 498,-838.5 498,-838.5 392,-838.5 392,-838.5 386,-838.5 380,-832.5 380,-826.5 380,-826.5 380,-592.5 380,-592.5 380,-586.5 386,-580.5 392,-580.5"/>
<text text-anchor="middle" x="445" y="-823.3" font-family="Times,serif" font-size="14.00">CategoriesController</text>
<polyline fill="none" stroke="black" points="380,-815.5 510,-815.5 "/>
<text text-anchor="start" x="388" y="-800.3" font-family="Times,serif" font-size="14.00">create</text>
<text text-anchor="start" x="388" y="-785.3" font-family="Times,serif" font-size="14.00">delete</text>
<text text-anchor="start" x="388" y="-770.3" font-family="Times,serif" font-size="14.00">devise_mapping</text>
<text text-anchor="start" x="388" y="-755.3" font-family="Times,serif" font-size="14.00">edit</text>
<text text-anchor="start" x="388" y="-740.3" font-family="Times,serif" font-size="14.00">filter_chart</text>
<text text-anchor="start" x="388" y="-725.3" font-family="Times,serif" font-size="14.00">index</text>
<text text-anchor="start" x="388" y="-710.3" font-family="Times,serif" font-size="14.00">new</text>
<text text-anchor="start" x="388" y="-695.3" font-family="Times,serif" font-size="14.00">resource</text>
<text text-anchor="start" x="388" y="-680.3" font-family="Times,serif" font-size="14.00">resource_name</text>
<text text-anchor="start" x="388" y="-665.3" font-family="Times,serif" font-size="14.00">show</text>
<text text-anchor="start" x="388" y="-650.3" font-family="Times,serif" font-size="14.00">update</text>
<polyline fill="none" stroke="black" points="380,-642.5 510,-642.5 "/>
<polyline fill="none" stroke="black" points="380,-618.5 510,-618.5 "/>
<text text-anchor="start" x="388" y="-603.3" font-family="Times,serif" font-size="14.00">_layout</text>
<text text-anchor="start" x="388" y="-588.3" font-family="Times,serif" font-size="14.00">category_params</text>
</g>
<!-- QuestionsController -->
<g id="node12" class="node"><title>QuestionsController</title>
<path fill="none" stroke="black" d="M52,-80.5C52,-80.5 168,-80.5 168,-80.5 174,-80.5 180,-86.5 180,-92.5 180,-92.5 180,-296.5 180,-296.5 180,-302.5 174,-308.5 168,-308.5 168,-308.5 52,-308.5 52,-308.5 46,-308.5 40,-302.5 40,-296.5 40,-296.5 40,-92.5 40,-92.5 40,-86.5 46,-80.5 52,-80.5"/>
<text text-anchor="middle" x="110" y="-293.3" font-family="Times,serif" font-size="14.00">QuestionsController</text>
<polyline fill="none" stroke="black" points="40,-285.5 180,-285.5 "/>
<text text-anchor="start" x="48" y="-270.3" font-family="Times,serif" font-size="14.00">create</text>
<text text-anchor="start" x="48" y="-255.3" font-family="Times,serif" font-size="14.00">delete</text>
<text text-anchor="start" x="48" y="-240.3" font-family="Times,serif" font-size="14.00">edit</text>
<text text-anchor="start" x="48" y="-225.3" font-family="Times,serif" font-size="14.00">index</text>
<text text-anchor="start" x="48" y="-210.3" font-family="Times,serif" font-size="14.00">new</text>
<text text-anchor="start" x="48" y="-195.3" font-family="Times,serif" font-size="14.00">show</text>
<text text-anchor="start" x="48" y="-180.3" font-family="Times,serif" font-size="14.00">update</text>
<polyline fill="none" stroke="black" points="40,-172.5 180,-172.5 "/>
<polyline fill="none" stroke="black" points="40,-148.5 180,-148.5 "/>
<text text-anchor="start" x="48" y="-133.3" font-family="Times,serif" font-size="14.00">_layout</text>
<text text-anchor="start" x="48" y="-118.3" font-family="Times,serif" font-size="14.00">get_category_and_sub</text>
<text text-anchor="start" x="48" y="-103.3" font-family="Times,serif" font-size="14.00">question_params</text>
<text text-anchor="start" x="48" y="-88.3" font-family="Times,serif" font-size="14.00">show_questions_index</text>
</g>
<!-- SimulatorAnsweredQuestionsController -->
<g id="node13" class="node"><title>SimulatorAnsweredQuestionsController</title>
<path fill="none" stroke="black" d="M272,-280.5C272,-280.5 483,-280.5 483,-280.5 489,-280.5 495,-286.5 495,-292.5 495,-292.5 495,-526.5 495,-526.5 495,-532.5 489,-538.5 483,-538.5 483,-538.5 272,-538.5 272,-538.5 266,-538.5 260,-532.5 260,-526.5 260,-526.5 260,-292.5 260,-292.5 260,-286.5 266,-280.5 272,-280.5"/>
<text text-anchor="middle" x="377.5" y="-523.3" font-family="Times,serif" font-size="14.00">SimulatorAnsweredQuestionsController</text>
<polyline fill="none" stroke="black" points="260,-515.5 495,-515.5 "/>
<text text-anchor="start" x="268" y="-500.3" font-family="Times,serif" font-size="14.00">create</text>
<text text-anchor="start" x="268" y="-485.3" font-family="Times,serif" font-size="14.00">delete</text>
<text text-anchor="start" x="268" y="-470.3" font-family="Times,serif" font-size="14.00">edit</text>
<text text-anchor="start" x="268" y="-455.3" font-family="Times,serif" font-size="14.00">index</text>
<text text-anchor="start" x="268" y="-440.3" font-family="Times,serif" font-size="14.00">new</text>
<text text-anchor="start" x="268" y="-425.3" font-family="Times,serif" font-size="14.00">show</text>
<text text-anchor="start" x="268" y="-410.3" font-family="Times,serif" font-size="14.00">update</text>
<polyline fill="none" stroke="black" points="260,-402.5 495,-402.5 "/>
<polyline fill="none" stroke="black" points="260,-378.5 495,-378.5 "/>
<text text-anchor="start" x="268" y="-363.3" font-family="Times,serif" font-size="14.00">_layout</text>
<text text-anchor="start" x="268" y="-348.3" font-family="Times,serif" font-size="14.00">answer_status</text>
<text text-anchor="start" x="268" y="-333.3" font-family="Times,serif" font-size="14.00">answered_question_params</text>
<text text-anchor="start" x="268" y="-318.3" font-family="Times,serif" font-size="14.00">get_clue_class</text>
<text text-anchor="start" x="268" y="-303.3" font-family="Times,serif" font-size="14.00">get_simulator_and_question</text>
<text text-anchor="start" x="268" y="-288.3" font-family="Times,serif" font-size="14.00">show_answered_question</text>
</g>
<!-- Student::CoursesController -->
<g id="node14" class="node"><title>Student::CoursesController</title>
<path fill="none" stroke="black" d="M772,-560.5C772,-560.5 912,-560.5 912,-560.5 918,-560.5 924,-566.5 924,-572.5 924,-572.5 924,-761.5 924,-761.5 924,-767.5 918,-773.5 912,-773.5 912,-773.5 772,-773.5 772,-773.5 766,-773.5 760,-767.5 760,-761.5 760,-761.5 760,-572.5 760,-572.5 760,-566.5 766,-560.5 772,-560.5"/>
<text text-anchor="middle" x="842" y="-758.3" font-family="Times,serif" font-size="14.00">Student::CoursesController</text>
<polyline fill="none" stroke="black" points="760,-750.5 924,-750.5 "/>
<text text-anchor="start" x="768" y="-735.3" font-family="Times,serif" font-size="14.00">create</text>
<text text-anchor="start" x="768" y="-720.3" font-family="Times,serif" font-size="14.00">destroy</text>
<text text-anchor="start" x="768" y="-705.3" font-family="Times,serif" font-size="14.00">edit</text>
<text text-anchor="start" x="768" y="-690.3" font-family="Times,serif" font-size="14.00">index</text>
<text text-anchor="start" x="768" y="-675.3" font-family="Times,serif" font-size="14.00">new</text>
<text text-anchor="start" x="768" y="-660.3" font-family="Times,serif" font-size="14.00">show</text>
<text text-anchor="start" x="768" y="-645.3" font-family="Times,serif" font-size="14.00">update</text>
<polyline fill="none" stroke="black" points="760,-637.5 924,-637.5 "/>
<polyline fill="none" stroke="black" points="760,-613.5 924,-613.5 "/>
<text text-anchor="start" x="768" y="-598.3" font-family="Times,serif" font-size="14.00">_layout</text>
<text text-anchor="start" x="768" y="-583.3" font-family="Times,serif" font-size="14.00">course_params</text>
<text text-anchor="start" x="768" y="-568.3" font-family="Times,serif" font-size="14.00">set_course</text>
</g>
<!-- ApplicationController -->
<g id="node15" class="node"><title>ApplicationController</title>
<path fill="none" stroke="black" d="M812,-0.5C812,-0.5 964,-0.5 964,-0.5 970,-0.5 976,-6.5 976,-12.5 976,-12.5 976,-111.5 976,-111.5 976,-117.5 970,-123.5 964,-123.5 964,-123.5 812,-123.5 812,-123.5 806,-123.5 800,-117.5 800,-111.5 800,-111.5 800,-12.5 800,-12.5 800,-6.5 806,-0.5 812,-0.5"/>
<text text-anchor="middle" x="888" y="-108.3" font-family="Times,serif" font-size="14.00">ApplicationController</text>
<polyline fill="none" stroke="black" points="800,-100.5 976,-100.5 "/>
<text text-anchor="start" x="808" y="-85.3" font-family="Times,serif" font-size="14.00">calculate_license_countdown</text>
<text text-anchor="start" x="808" y="-70.3" font-family="Times,serif" font-size="14.00">check_license</text>
<text text-anchor="start" x="808" y="-55.3" font-family="Times,serif" font-size="14.00">render_js_only</text>
<polyline fill="none" stroke="black" points="800,-47.5 976,-47.5 "/>
<polyline fill="none" stroke="black" points="800,-23.5 976,-23.5 "/>
<text text-anchor="start" x="808" y="-8.3" font-family="Times,serif" font-size="14.00">_layout</text>
</g>
<!-- LiveClassesController -->
<g id="node16" class="node"><title>LiveClassesController</title>
<path fill="none" stroke="black" d="M812,-360.5C812,-360.5 925,-360.5 925,-360.5 931,-360.5 937,-366.5 937,-372.5 937,-372.5 937,-441.5 937,-441.5 937,-447.5 931,-453.5 925,-453.5 925,-453.5 812,-453.5 812,-453.5 806,-453.5 800,-447.5 800,-441.5 800,-441.5 800,-372.5 800,-372.5 800,-366.5 806,-360.5 812,-360.5"/>
<text text-anchor="middle" x="868.5" y="-438.3" font-family="Times,serif" font-size="14.00">LiveClassesController</text>
<polyline fill="none" stroke="black" points="800,-430.5 937,-430.5 "/>
<text text-anchor="start" x="808" y="-415.3" font-family="Times,serif" font-size="14.00">index</text>
<polyline fill="none" stroke="black" points="800,-407.5 937,-407.5 "/>
<polyline fill="none" stroke="black" points="800,-383.5 937,-383.5 "/>
<text text-anchor="start" x="808" y="-368.3" font-family="Times,serif" font-size="14.00">_layout</text>
</g>
<!-- HomeController -->
<g id="node17" class="node"><title>HomeController</title>
<path fill="none" stroke="black" d="M812,-160.5C812,-160.5 894,-160.5 894,-160.5 900,-160.5 906,-166.5 906,-172.5 906,-172.5 906,-301.5 906,-301.5 906,-307.5 900,-313.5 894,-313.5 894,-313.5 812,-313.5 812,-313.5 806,-313.5 800,-307.5 800,-301.5 800,-301.5 800,-172.5 800,-172.5 800,-166.5 806,-160.5 812,-160.5"/>
<text text-anchor="middle" x="853" y="-298.3" font-family="Times,serif" font-size="14.00">HomeController</text>
<polyline fill="none" stroke="black" points="800,-290.5 906,-290.5 "/>
<text text-anchor="start" x="808" y="-275.3" font-family="Times,serif" font-size="14.00">devise_mapping</text>
<text text-anchor="start" x="808" y="-260.3" font-family="Times,serif" font-size="14.00">index</text>
<text text-anchor="start" x="808" y="-245.3" font-family="Times,serif" font-size="14.00">payments</text>
<text text-anchor="start" x="808" y="-230.3" font-family="Times,serif" font-size="14.00">resource</text>
<text text-anchor="start" x="808" y="-215.3" font-family="Times,serif" font-size="14.00">resource_name</text>
<polyline fill="none" stroke="black" points="800,-207.5 906,-207.5 "/>
<polyline fill="none" stroke="black" points="800,-183.5 906,-183.5 "/>
<text text-anchor="start" x="808" y="-168.3" font-family="Times,serif" font-size="14.00">_layout</text>
</g>
<!-- UniversitiesController -->
<g id="node18" class="node"><title>UniversitiesController</title>
<path fill="none" stroke="black" d="M12,-800.5C12,-800.5 125,-800.5 125,-800.5 131,-800.5 137,-806.5 137,-812.5 137,-812.5 137,-1001.5 137,-1001.5 137,-1007.5 131,-1013.5 125,-1013.5 125,-1013.5 12,-1013.5 12,-1013.5 6,-1013.5 0,-1007.5 0,-1001.5 0,-1001.5 0,-812.5 0,-812.5 0,-806.5 6,-800.5 12,-800.5"/>
<text text-anchor="middle" x="68.5" y="-998.3" font-family="Times,serif" font-size="14.00">UniversitiesController</text>
<polyline fill="none" stroke="black" points="0,-990.5 137,-990.5 "/>
<text text-anchor="start" x="8" y="-975.3" font-family="Times,serif" font-size="14.00">create</text>
<text text-anchor="start" x="8" y="-960.3" font-family="Times,serif" font-size="14.00">destroy</text>
<text text-anchor="start" x="8" y="-945.3" font-family="Times,serif" font-size="14.00">edit</text>
<text text-anchor="start" x="8" y="-930.3" font-family="Times,serif" font-size="14.00">index</text>
<text text-anchor="start" x="8" y="-915.3" font-family="Times,serif" font-size="14.00">new</text>
<text text-anchor="start" x="8" y="-900.3" font-family="Times,serif" font-size="14.00">show</text>
<text text-anchor="start" x="8" y="-885.3" font-family="Times,serif" font-size="14.00">update</text>
<polyline fill="none" stroke="black" points="0,-877.5 137,-877.5 "/>
<polyline fill="none" stroke="black" points="0,-853.5 137,-853.5 "/>
<text text-anchor="start" x="8" y="-838.3" font-family="Times,serif" font-size="14.00">_layout</text>
<text text-anchor="start" x="8" y="-823.3" font-family="Times,serif" font-size="14.00">set_university</text>
<text text-anchor="start" x="8" y="-808.3" font-family="Times,serif" font-size="14.00">university_params</text>
</g>
<!-- SubCategoriesController -->
<g id="node19" class="node"><title>SubCategoriesController</title>
<path fill="none" stroke="black" d="M192,-620.5C192,-620.5 329,-620.5 329,-620.5 335,-620.5 341,-626.5 341,-632.5 341,-632.5 341,-836.5 341,-836.5 341,-842.5 335,-848.5 329,-848.5 329,-848.5 192,-848.5 192,-848.5 186,-848.5 180,-842.5 180,-836.5 180,-836.5 180,-632.5 180,-632.5 180,-626.5 186,-620.5 192,-620.5"/>
<text text-anchor="middle" x="260.5" y="-833.3" font-family="Times,serif" font-size="14.00">SubCategoriesController</text>
<polyline fill="none" stroke="black" points="180,-825.5 341,-825.5 "/>
<text text-anchor="start" x="188" y="-810.3" font-family="Times,serif" font-size="14.00">create</text>
<text text-anchor="start" x="188" y="-795.3" font-family="Times,serif" font-size="14.00">delete</text>
<text text-anchor="start" x="188" y="-780.3" font-family="Times,serif" font-size="14.00">edit</text>
<text text-anchor="start" x="188" y="-765.3" font-family="Times,serif" font-size="14.00">index</text>
<text text-anchor="start" x="188" y="-750.3" font-family="Times,serif" font-size="14.00">new</text>
<text text-anchor="start" x="188" y="-735.3" font-family="Times,serif" font-size="14.00">show</text>
<text text-anchor="start" x="188" y="-720.3" font-family="Times,serif" font-size="14.00">show_answered_questions</text>
<text text-anchor="start" x="188" y="-705.3" font-family="Times,serif" font-size="14.00">update</text>
<polyline fill="none" stroke="black" points="180,-697.5 341,-697.5 "/>
<polyline fill="none" stroke="black" points="180,-673.5 341,-673.5 "/>
<text text-anchor="start" x="188" y="-658.3" font-family="Times,serif" font-size="14.00">_layout</text>
<text text-anchor="start" x="188" y="-643.3" font-family="Times,serif" font-size="14.00">get_category</text>
<text text-anchor="start" x="188" y="-628.3" font-family="Times,serif" font-size="14.00">sub_category_params</text>
</g>
<!-- SimulatorsController -->
<g id="node20" class="node"><title>SimulatorsController</title>
<path fill="none" stroke="black" d="M72,-340.5C72,-340.5 209,-340.5 209,-340.5 215,-340.5 221,-346.5 221,-352.5 221,-352.5 221,-571.5 221,-571.5 221,-577.5 215,-583.5 209,-583.5 209,-583.5 72,-583.5 72,-583.5 66,-583.5 60,-577.5 60,-571.5 60,-571.5 60,-352.5 60,-352.5 60,-346.5 66,-340.5 72,-340.5"/>
<text text-anchor="middle" x="140.5" y="-568.3" font-family="Times,serif" font-size="14.00">SimulatorsController</text>
<polyline fill="none" stroke="black" points="60,-560.5 221,-560.5 "/>
<text text-anchor="start" x="68" y="-545.3" font-family="Times,serif" font-size="14.00">create</text>
<text text-anchor="start" x="68" y="-530.3" font-family="Times,serif" font-size="14.00">delete</text>
<text text-anchor="start" x="68" y="-515.3" font-family="Times,serif" font-size="14.00">filter_chart</text>
<text text-anchor="start" x="68" y="-500.3" font-family="Times,serif" font-size="14.00">finish_simulator</text>
<text text-anchor="start" x="68" y="-485.3" font-family="Times,serif" font-size="14.00">index</text>
<text text-anchor="start" x="68" y="-470.3" font-family="Times,serif" font-size="14.00">new</text>
<text text-anchor="start" x="68" y="-455.3" font-family="Times,serif" font-size="14.00">pause_simulator</text>
<text text-anchor="start" x="68" y="-440.3" font-family="Times,serif" font-size="14.00">show</text>
<text text-anchor="start" x="68" y="-425.3" font-family="Times,serif" font-size="14.00">show_answered_questions</text>
<text text-anchor="start" x="68" y="-410.3" font-family="Times,serif" font-size="14.00">update</text>
<polyline fill="none" stroke="black" points="60,-402.5 221,-402.5 "/>
<polyline fill="none" stroke="black" points="60,-378.5 221,-378.5 "/>
<text text-anchor="start" x="68" y="-363.3" font-family="Times,serif" font-size="14.00">_layout</text>
<text text-anchor="start" x="68" y="-348.3" font-family="Times,serif" font-size="14.00">simulator_params</text>
</g>
</g>
</svg>
