<?xml version="1.0" encoding="UTF-8" standalone="no"?>
<!DOCTYPE svg PUBLIC "-//W3C//DTD SVG 1.1//EN"
 "http://www.w3.org/Graphics/SVG/1.1/DTD/svg11.dtd">
<!-- Generated by graphviz version 2.36.0 (20140111.2315)
 -->
<!-- Title: controllers_diagram Pages: 1 -->
<svg width="876pt" height="843pt"
 viewBox="0.00 0.00 876.00 843.00" xmlns="http://www.w3.org/2000/svg" xmlns:xlink="http://www.w3.org/1999/xlink">
<g id="graph0" class="graph" transform="scale(1 1) rotate(0) translate(4 839)">
<title>controllers_diagram</title>
<polygon fill="none" stroke="none" points="-4,4 -4,-839 872,-839 872,4 -4,4"/>
<!-- _diagram_info -->
<g id="node1" class="node"><title>_diagram_info</title>
<text text-anchor="start" x="188" y="-143.6" font-family="Times,serif" font-size="13.00">Controllers diagram</text>
<text text-anchor="start" x="188" y="-129.6" font-family="Times,serif" font-size="13.00">Date: Apr 05 2016 &#45; 20:32</text>
<text text-anchor="start" x="188" y="-115.6" font-family="Times,serif" font-size="13.00">Migration version: 20160307003117</text>
<text text-anchor="start" x="188" y="-101.6" font-family="Times,serif" font-size="13.00">Generated by RailRoady 1.4.2</text>
<text text-anchor="start" x="188" y="-87.6" font-family="Times,serif" font-size="13.00">http://railroady.prestonlee.com</text>
</g>
<!-- ChoicesController -->
<g id="node2" class="node"><title>ChoicesController</title>
<path fill="none" stroke="black" d="M512,-180.5C512,-180.5 705,-180.5 705,-180.5 711,-180.5 717,-186.5 717,-192.5 717,-192.5 717,-426.5 717,-426.5 717,-432.5 711,-438.5 705,-438.5 705,-438.5 512,-438.5 512,-438.5 506,-438.5 500,-432.5 500,-426.5 500,-426.5 500,-192.5 500,-192.5 500,-186.5 506,-180.5 512,-180.5"/>
<text text-anchor="middle" x="608.5" y="-423.3" font-family="Times,serif" font-size="14.00">ChoicesController</text>
<polyline fill="none" stroke="black" points="500,-415.5 717,-415.5 "/>
<text text-anchor="start" x="508" y="-400.3" font-family="Times,serif" font-size="14.00">create</text>
<text text-anchor="start" x="508" y="-385.3" font-family="Times,serif" font-size="14.00">delete</text>
<text text-anchor="start" x="508" y="-370.3" font-family="Times,serif" font-size="14.00">edit</text>
<text text-anchor="start" x="508" y="-355.3" font-family="Times,serif" font-size="14.00">index</text>
<text text-anchor="start" x="508" y="-340.3" font-family="Times,serif" font-size="14.00">new</text>
<text text-anchor="start" x="508" y="-325.3" font-family="Times,serif" font-size="14.00">show</text>
<text text-anchor="start" x="508" y="-310.3" font-family="Times,serif" font-size="14.00">update</text>
<polyline fill="none" stroke="black" points="500,-302.5 717,-302.5 "/>
<polyline fill="none" stroke="black" points="500,-278.5 717,-278.5 "/>
<text text-anchor="start" x="508" y="-263.3" font-family="Times,serif" font-size="14.00">_layout</text>
<text text-anchor="start" x="508" y="-248.3" font-family="Times,serif" font-size="14.00">choice_params</text>
<text text-anchor="start" x="508" y="-233.3" font-family="Times,serif" font-size="14.00">get_category_and_sub_and_question</text>
<text text-anchor="start" x="508" y="-218.3" font-family="Times,serif" font-size="14.00">show_choices_index</text>
<text text-anchor="start" x="508" y="-203.3" font-family="Times,serif" font-size="14.00">update_choice</text>
<text text-anchor="start" x="508" y="-188.3" font-family="Times,serif" font-size="14.00">update_if_correct_choice</text>
</g>
<!-- RegistrationsController -->
<g id="node3" class="node"><title>RegistrationsController</title>
<path fill="none" stroke="black" d="M732,-480.5C732,-480.5 856,-480.5 856,-480.5 862,-480.5 868,-486.5 868,-492.5 868,-492.5 868,-591.5 868,-591.5 868,-597.5 862,-603.5 856,-603.5 856,-603.5 732,-603.5 732,-603.5 726,-603.5 720,-597.5 720,-591.5 720,-591.5 720,-492.5 720,-492.5 720,-486.5 726,-480.5 732,-480.5"/>
<text text-anchor="middle" x="794" y="-588.3" font-family="Times,serif" font-size="14.00">RegistrationsController</text>
<polyline fill="none" stroke="black" points="720,-580.5 868,-580.5 "/>
<polyline fill="none" stroke="black" points="720,-556.5 868,-556.5 "/>
<text text-anchor="start" x="728" y="-541.3" font-family="Times,serif" font-size="14.00">account_update_params</text>
<text text-anchor="start" x="728" y="-526.3" font-family="Times,serif" font-size="14.00">sign_up_params</text>
<text text-anchor="start" x="728" y="-511.3" font-family="Times,serif" font-size="14.00">update_resource</text>
<polyline fill="none" stroke="black" points="720,-503.5 868,-503.5 "/>
<text text-anchor="start" x="728" y="-488.3" font-family="Times,serif" font-size="14.00">_layout</text>
</g>
<!-- SessionsController -->
<g id="node4" class="node"><title>SessionsController</title>
<path fill="none" stroke="black" d="M572,-740.5C572,-740.5 667,-740.5 667,-740.5 673,-740.5 679,-746.5 679,-752.5 679,-752.5 679,-822.5 679,-822.5 679,-828.5 673,-834.5 667,-834.5 667,-834.5 572,-834.5 572,-834.5 566,-834.5 560,-828.5 560,-822.5 560,-822.5 560,-752.5 560,-752.5 560,-746.5 566,-740.5 572,-740.5"/>
<text text-anchor="middle" x="619.5" y="-819.3" font-family="Times,serif" font-size="14.00">SessionsController</text>
<polyline fill="none" stroke="black" points="560,-811.5 679,-811.5 "/>
<polyline fill="none" stroke="black" points="560,-787.5 679,-787.5 "/>
<polyline fill="none" stroke="black" points="560,-763.5 679,-763.5 "/>
<text text-anchor="start" x="568" y="-748.3" font-family="Times,serif" font-size="14.00">_layout</text>
</g>
<!-- PointsController -->
<g id="node5" class="node"><title>PointsController</title>
<path fill="none" stroke="black" d="M12,-540.5C12,-540.5 94,-540.5 94,-540.5 100,-540.5 106,-546.5 106,-552.5 106,-552.5 106,-636.5 106,-636.5 106,-642.5 100,-648.5 94,-648.5 94,-648.5 12,-648.5 12,-648.5 6,-648.5 5.68434e-14,-642.5 5.68434e-14,-636.5 5.68434e-14,-636.5 5.68434e-14,-552.5 5.68434e-14,-552.5 5.68434e-14,-546.5 6,-540.5 12,-540.5"/>
<text text-anchor="middle" x="53" y="-633.3" font-family="Times,serif" font-size="14.00">PointsController</text>
<polyline fill="none" stroke="black" points="5.68434e-14,-625.5 106,-625.5 "/>
<text text-anchor="start" x="8" y="-610.3" font-family="Times,serif" font-size="14.00">create</text>
<polyline fill="none" stroke="black" points="5.68434e-14,-602.5 106,-602.5 "/>
<polyline fill="none" stroke="black" points="5.68434e-14,-578.5 106,-578.5 "/>
<text text-anchor="start" x="8" y="-563.3" font-family="Times,serif" font-size="14.00">_layout</text>
<text text-anchor="start" x="8" y="-548.3" font-family="Times,serif" font-size="14.00">point_params</text>
</g>
<!-- OmniauthCallbacksController -->
<g id="node6" class="node"><title>OmniauthCallbacksController</title>
<path fill="none" stroke="black" d="M452,-40.5C452,-40.5 608,-40.5 608,-40.5 614,-40.5 620,-46.5 620,-52.5 620,-52.5 620,-136.5 620,-136.5 620,-142.5 614,-148.5 608,-148.5 608,-148.5 452,-148.5 452,-148.5 446,-148.5 440,-142.5 440,-136.5 440,-136.5 440,-52.5 440,-52.5 440,-46.5 446,-40.5 452,-40.5"/>
<text text-anchor="middle" x="530" y="-133.3" font-family="Times,serif" font-size="14.00">OmniauthCallbacksController</text>
<polyline fill="none" stroke="black" points="440,-125.5 620,-125.5 "/>
<text text-anchor="start" x="448" y="-110.3" font-family="Times,serif" font-size="14.00">facebook</text>
<text text-anchor="start" x="448" y="-95.3" font-family="Times,serif" font-size="14.00">failure</text>
<polyline fill="none" stroke="black" points="440,-87.5 620,-87.5 "/>
<polyline fill="none" stroke="black" points="440,-63.5 620,-63.5 "/>
<text text-anchor="start" x="448" y="-48.3" font-family="Times,serif" font-size="14.00">_layout</text>
</g>
<!-- AnsweredQuestionsController -->
<g id="node7" class="node"><title>AnsweredQuestionsController</title>
<path fill="none" stroke="black" d="M512,-480.5C512,-480.5 669,-480.5 669,-480.5 675,-480.5 681,-486.5 681,-492.5 681,-492.5 681,-696.5 681,-696.5 681,-702.5 675,-708.5 669,-708.5 669,-708.5 512,-708.5 512,-708.5 506,-708.5 500,-702.5 500,-696.5 500,-696.5 500,-492.5 500,-492.5 500,-486.5 506,-480.5 512,-480.5"/>
<text text-anchor="middle" x="590.5" y="-693.3" font-family="Times,serif" font-size="14.00">AnsweredQuestionsController</text>
<polyline fill="none" stroke="black" points="500,-685.5 681,-685.5 "/>
<text text-anchor="start" x="508" y="-670.3" font-family="Times,serif" font-size="14.00">create</text>
<text text-anchor="start" x="508" y="-655.3" font-family="Times,serif" font-size="14.00">delete</text>
<text text-anchor="start" x="508" y="-640.3" font-family="Times,serif" font-size="14.00">edit</text>
<text text-anchor="start" x="508" y="-625.3" font-family="Times,serif" font-size="14.00">index</text>
<text text-anchor="start" x="508" y="-610.3" font-family="Times,serif" font-size="14.00">new</text>
<text text-anchor="start" x="508" y="-595.3" font-family="Times,serif" font-size="14.00">show</text>
<text text-anchor="start" x="508" y="-580.3" font-family="Times,serif" font-size="14.00">update</text>
<polyline fill="none" stroke="black" points="500,-572.5 681,-572.5 "/>
<polyline fill="none" stroke="black" points="500,-548.5 681,-548.5 "/>
<text text-anchor="start" x="508" y="-533.3" font-family="Times,serif" font-size="14.00">_layout</text>
<text text-anchor="start" x="508" y="-518.3" font-family="Times,serif" font-size="14.00">answer_is_correct</text>
<text text-anchor="start" x="508" y="-503.3" font-family="Times,serif" font-size="14.00">answered_question_params</text>
<text text-anchor="start" x="508" y="-488.3" font-family="Times,serif" font-size="14.00">get_category_and_sub</text>
</g>
<!-- CategoriesController -->
<g id="node8" class="node"><title>CategoriesController</title>
<path fill="none" stroke="black" d="M352,-500.5C352,-500.5 458,-500.5 458,-500.5 464,-500.5 470,-506.5 470,-512.5 470,-512.5 470,-746.5 470,-746.5 470,-752.5 464,-758.5 458,-758.5 458,-758.5 352,-758.5 352,-758.5 346,-758.5 340,-752.5 340,-746.5 340,-746.5 340,-512.5 340,-512.5 340,-506.5 346,-500.5 352,-500.5"/>
<text text-anchor="middle" x="405" y="-743.3" font-family="Times,serif" font-size="14.00">CategoriesController</text>
<polyline fill="none" stroke="black" points="340,-735.5 470,-735.5 "/>
<text text-anchor="start" x="348" y="-720.3" font-family="Times,serif" font-size="14.00">create</text>
<text text-anchor="start" x="348" y="-705.3" font-family="Times,serif" font-size="14.00">delete</text>
<text text-anchor="start" x="348" y="-690.3" font-family="Times,serif" font-size="14.00">devise_mapping</text>
<text text-anchor="start" x="348" y="-675.3" font-family="Times,serif" font-size="14.00">edit</text>
<text text-anchor="start" x="348" y="-660.3" font-family="Times,serif" font-size="14.00">filter_chart</text>
<text text-anchor="start" x="348" y="-645.3" font-family="Times,serif" font-size="14.00">index</text>
<text text-anchor="start" x="348" y="-630.3" font-family="Times,serif" font-size="14.00">new</text>
<text text-anchor="start" x="348" y="-615.3" font-family="Times,serif" font-size="14.00">resource</text>
<text text-anchor="start" x="348" y="-600.3" font-family="Times,serif" font-size="14.00">resource_name</text>
<text text-anchor="start" x="348" y="-585.3" font-family="Times,serif" font-size="14.00">show</text>
<text text-anchor="start" x="348" y="-570.3" font-family="Times,serif" font-size="14.00">update</text>
<polyline fill="none" stroke="black" points="340,-562.5 470,-562.5 "/>
<polyline fill="none" stroke="black" points="340,-538.5 470,-538.5 "/>
<text text-anchor="start" x="348" y="-523.3" font-family="Times,serif" font-size="14.00">_layout</text>
<text text-anchor="start" x="348" y="-508.3" font-family="Times,serif" font-size="14.00">category_params</text>
</g>
<!-- QuestionsController -->
<g id="node9" class="node"><title>QuestionsController</title>
<path fill="none" stroke="black" d="M12,-0.5C12,-0.5 128,-0.5 128,-0.5 134,-0.5 140,-6.5 140,-12.5 140,-12.5 140,-216.5 140,-216.5 140,-222.5 134,-228.5 128,-228.5 128,-228.5 12,-228.5 12,-228.5 6,-228.5 5.68434e-14,-222.5 5.68434e-14,-216.5 5.68434e-14,-216.5 5.68434e-14,-12.5 5.68434e-14,-12.5 5.68434e-14,-6.5 6,-0.5 12,-0.5"/>
<text text-anchor="middle" x="70" y="-213.3" font-family="Times,serif" font-size="14.00">QuestionsController</text>
<polyline fill="none" stroke="black" points="5.68434e-14,-205.5 140,-205.5 "/>
<text text-anchor="start" x="8" y="-190.3" font-family="Times,serif" font-size="14.00">create</text>
<text text-anchor="start" x="8" y="-175.3" font-family="Times,serif" font-size="14.00">delete</text>
<text text-anchor="start" x="8" y="-160.3" font-family="Times,serif" font-size="14.00">edit</text>
<text text-anchor="start" x="8" y="-145.3" font-family="Times,serif" font-size="14.00">index</text>
<text text-anchor="start" x="8" y="-130.3" font-family="Times,serif" font-size="14.00">new</text>
<text text-anchor="start" x="8" y="-115.3" font-family="Times,serif" font-size="14.00">show</text>
<text text-anchor="start" x="8" y="-100.3" font-family="Times,serif" font-size="14.00">update</text>
<polyline fill="none" stroke="black" points="5.68434e-14,-92.5 140,-92.5 "/>
<polyline fill="none" stroke="black" points="5.68434e-14,-68.5 140,-68.5 "/>
<text text-anchor="start" x="8" y="-53.3" font-family="Times,serif" font-size="14.00">_layout</text>
<text text-anchor="start" x="8" y="-38.3" font-family="Times,serif" font-size="14.00">get_category_and_sub</text>
<text text-anchor="start" x="8" y="-23.3" font-family="Times,serif" font-size="14.00">question_params</text>
<text text-anchor="start" x="8" y="-8.3" font-family="Times,serif" font-size="14.00">show_questions_index</text>
</g>
<!-- SimulatorAnsweredQuestionsController -->
<g id="node10" class="node"><title>SimulatorAnsweredQuestionsController</title>
<path fill="none" stroke="black" d="M232,-200.5C232,-200.5 443,-200.5 443,-200.5 449,-200.5 455,-206.5 455,-212.5 455,-212.5 455,-446.5 455,-446.5 455,-452.5 449,-458.5 443,-458.5 443,-458.5 232,-458.5 232,-458.5 226,-458.5 220,-452.5 220,-446.5 220,-446.5 220,-212.5 220,-212.5 220,-206.5 226,-200.5 232,-200.5"/>
<text text-anchor="middle" x="337.5" y="-443.3" font-family="Times,serif" font-size="14.00">SimulatorAnsweredQuestionsController</text>
<polyline fill="none" stroke="black" points="220,-435.5 455,-435.5 "/>
<text text-anchor="start" x="228" y="-420.3" font-family="Times,serif" font-size="14.00">create</text>
<text text-anchor="start" x="228" y="-405.3" font-family="Times,serif" font-size="14.00">delete</text>
<text text-anchor="start" x="228" y="-390.3" font-family="Times,serif" font-size="14.00">edit</text>
<text text-anchor="start" x="228" y="-375.3" font-family="Times,serif" font-size="14.00">index</text>
<text text-anchor="start" x="228" y="-360.3" font-family="Times,serif" font-size="14.00">new</text>
<text text-anchor="start" x="228" y="-345.3" font-family="Times,serif" font-size="14.00">show</text>
<text text-anchor="start" x="228" y="-330.3" font-family="Times,serif" font-size="14.00">update</text>
<polyline fill="none" stroke="black" points="220,-322.5 455,-322.5 "/>
<polyline fill="none" stroke="black" points="220,-298.5 455,-298.5 "/>
<text text-anchor="start" x="228" y="-283.3" font-family="Times,serif" font-size="14.00">_layout</text>
<text text-anchor="start" x="228" y="-268.3" font-family="Times,serif" font-size="14.00">answer_status</text>
<text text-anchor="start" x="228" y="-253.3" font-family="Times,serif" font-size="14.00">answered_question_params</text>
<text text-anchor="start" x="228" y="-238.3" font-family="Times,serif" font-size="14.00">get_clue_class</text>
<text text-anchor="start" x="228" y="-223.3" font-family="Times,serif" font-size="14.00">get_simulator_and_question</text>
<text text-anchor="start" x="228" y="-208.3" font-family="Times,serif" font-size="14.00">show_answered_question</text>
</g>
<!-- ApplicationController -->
<g id="node11" class="node"><title>ApplicationController</title>
<path fill="none" stroke="black" d="M672,-20.5C672,-20.5 824,-20.5 824,-20.5 830,-20.5 836,-26.5 836,-32.5 836,-32.5 836,-131.5 836,-131.5 836,-137.5 830,-143.5 824,-143.5 824,-143.5 672,-143.5 672,-143.5 666,-143.5 660,-137.5 660,-131.5 660,-131.5 660,-32.5 660,-32.5 660,-26.5 666,-20.5 672,-20.5"/>
<text text-anchor="middle" x="748" y="-128.3" font-family="Times,serif" font-size="14.00">ApplicationController</text>
<polyline fill="none" stroke="black" points="660,-120.5 836,-120.5 "/>
<text text-anchor="start" x="668" y="-105.3" font-family="Times,serif" font-size="14.00">calculate_license_countdown</text>
<text text-anchor="start" x="668" y="-90.3" font-family="Times,serif" font-size="14.00">check_license</text>
<text text-anchor="start" x="668" y="-75.3" font-family="Times,serif" font-size="14.00">render_js_only</text>
<polyline fill="none" stroke="black" points="660,-67.5 836,-67.5 "/>
<polyline fill="none" stroke="black" points="660,-43.5 836,-43.5 "/>
<text text-anchor="start" x="668" y="-28.3" font-family="Times,serif" font-size="14.00">_layout</text>
</g>
<!-- LiveClassesController -->
<g id="node12" class="node"><title>LiveClassesController</title>
<path fill="none" stroke="black" d="M732,-640.5C732,-640.5 845,-640.5 845,-640.5 851,-640.5 857,-646.5 857,-652.5 857,-652.5 857,-721.5 857,-721.5 857,-727.5 851,-733.5 845,-733.5 845,-733.5 732,-733.5 732,-733.5 726,-733.5 720,-727.5 720,-721.5 720,-721.5 720,-652.5 720,-652.5 720,-646.5 726,-640.5 732,-640.5"/>
<text text-anchor="middle" x="788.5" y="-718.3" font-family="Times,serif" font-size="14.00">LiveClassesController</text>
<polyline fill="none" stroke="black" points="720,-710.5 857,-710.5 "/>
<text text-anchor="start" x="728" y="-695.3" font-family="Times,serif" font-size="14.00">index</text>
<polyline fill="none" stroke="black" points="720,-687.5 857,-687.5 "/>
<polyline fill="none" stroke="black" points="720,-663.5 857,-663.5 "/>
<text text-anchor="start" x="728" y="-648.3" font-family="Times,serif" font-size="14.00">_layout</text>
</g>
<!-- HomeController -->
<g id="node13" class="node"><title>HomeController</title>
<path fill="none" stroke="black" d="M12,-680.5C12,-680.5 94,-680.5 94,-680.5 100,-680.5 106,-686.5 106,-692.5 106,-692.5 106,-821.5 106,-821.5 106,-827.5 100,-833.5 94,-833.5 94,-833.5 12,-833.5 12,-833.5 6,-833.5 5.68434e-14,-827.5 5.68434e-14,-821.5 5.68434e-14,-821.5 5.68434e-14,-692.5 5.68434e-14,-692.5 5.68434e-14,-686.5 6,-680.5 12,-680.5"/>
<text text-anchor="middle" x="53" y="-818.3" font-family="Times,serif" font-size="14.00">HomeController</text>
<polyline fill="none" stroke="black" points="5.68434e-14,-810.5 106,-810.5 "/>
<text text-anchor="start" x="8" y="-795.3" font-family="Times,serif" font-size="14.00">devise_mapping</text>
<text text-anchor="start" x="8" y="-780.3" font-family="Times,serif" font-size="14.00">index</text>
<text text-anchor="start" x="8" y="-765.3" font-family="Times,serif" font-size="14.00">payments</text>
<text text-anchor="start" x="8" y="-750.3" font-family="Times,serif" font-size="14.00">resource</text>
<text text-anchor="start" x="8" y="-735.3" font-family="Times,serif" font-size="14.00">resource_name</text>
<polyline fill="none" stroke="black" points="5.68434e-14,-727.5 106,-727.5 "/>
<polyline fill="none" stroke="black" points="5.68434e-14,-703.5 106,-703.5 "/>
<text text-anchor="start" x="8" y="-688.3" font-family="Times,serif" font-size="14.00">_layout</text>
</g>
<!-- SubCategoriesController -->
<g id="node14" class="node"><title>SubCategoriesController</title>
<path fill="none" stroke="black" d="M152,-540.5C152,-540.5 289,-540.5 289,-540.5 295,-540.5 301,-546.5 301,-552.5 301,-552.5 301,-756.5 301,-756.5 301,-762.5 295,-768.5 289,-768.5 289,-768.5 152,-768.5 152,-768.5 146,-768.5 140,-762.5 140,-756.5 140,-756.5 140,-552.5 140,-552.5 140,-546.5 146,-540.5 152,-540.5"/>
<text text-anchor="middle" x="220.5" y="-753.3" font-family="Times,serif" font-size="14.00">SubCategoriesController</text>
<polyline fill="none" stroke="black" points="140,-745.5 301,-745.5 "/>
<text text-anchor="start" x="148" y="-730.3" font-family="Times,serif" font-size="14.00">create</text>
<text text-anchor="start" x="148" y="-715.3" font-family="Times,serif" font-size="14.00">delete</text>
<text text-anchor="start" x="148" y="-700.3" font-family="Times,serif" font-size="14.00">edit</text>
<text text-anchor="start" x="148" y="-685.3" font-family="Times,serif" font-size="14.00">index</text>
<text text-anchor="start" x="148" y="-670.3" font-family="Times,serif" font-size="14.00">new</text>
<text text-anchor="start" x="148" y="-655.3" font-family="Times,serif" font-size="14.00">show</text>
<text text-anchor="start" x="148" y="-640.3" font-family="Times,serif" font-size="14.00">show_answered_questions</text>
<text text-anchor="start" x="148" y="-625.3" font-family="Times,serif" font-size="14.00">update</text>
<polyline fill="none" stroke="black" points="140,-617.5 301,-617.5 "/>
<polyline fill="none" stroke="black" points="140,-593.5 301,-593.5 "/>
<text text-anchor="start" x="148" y="-578.3" font-family="Times,serif" font-size="14.00">_layout</text>
<text text-anchor="start" x="148" y="-563.3" font-family="Times,serif" font-size="14.00">get_category</text>
<text text-anchor="start" x="148" y="-548.3" font-family="Times,serif" font-size="14.00">sub_category_params</text>
</g>
<!-- SimulatorsController -->
<g id="node15" class="node"><title>SimulatorsController</title>
<path fill="none" stroke="black" d="M32,-260.5C32,-260.5 169,-260.5 169,-260.5 175,-260.5 181,-266.5 181,-272.5 181,-272.5 181,-491.5 181,-491.5 181,-497.5 175,-503.5 169,-503.5 169,-503.5 32,-503.5 32,-503.5 26,-503.5 20,-497.5 20,-491.5 20,-491.5 20,-272.5 20,-272.5 20,-266.5 26,-260.5 32,-260.5"/>
<text text-anchor="middle" x="100.5" y="-488.3" font-family="Times,serif" font-size="14.00">SimulatorsController</text>
<polyline fill="none" stroke="black" points="20,-480.5 181,-480.5 "/>
<text text-anchor="start" x="28" y="-465.3" font-family="Times,serif" font-size="14.00">create</text>
<text text-anchor="start" x="28" y="-450.3" font-family="Times,serif" font-size="14.00">delete</text>
<text text-anchor="start" x="28" y="-435.3" font-family="Times,serif" font-size="14.00">filter_chart</text>
<text text-anchor="start" x="28" y="-420.3" font-family="Times,serif" font-size="14.00">finish_simulator</text>
<text text-anchor="start" x="28" y="-405.3" font-family="Times,serif" font-size="14.00">index</text>
<text text-anchor="start" x="28" y="-390.3" font-family="Times,serif" font-size="14.00">new</text>
<text text-anchor="start" x="28" y="-375.3" font-family="Times,serif" font-size="14.00">pause_simulator</text>
<text text-anchor="start" x="28" y="-360.3" font-family="Times,serif" font-size="14.00">show</text>
<text text-anchor="start" x="28" y="-345.3" font-family="Times,serif" font-size="14.00">show_answered_questions</text>
<text text-anchor="start" x="28" y="-330.3" font-family="Times,serif" font-size="14.00">update</text>
<polyline fill="none" stroke="black" points="20,-322.5 181,-322.5 "/>
<polyline fill="none" stroke="black" points="20,-298.5 181,-298.5 "/>
<text text-anchor="start" x="28" y="-283.3" font-family="Times,serif" font-size="14.00">_layout</text>
<text text-anchor="start" x="28" y="-268.3" font-family="Times,serif" font-size="14.00">simulator_params</text>
</g>
</g>
</svg>
