<?xml version="1.0" encoding="UTF-8" standalone="no"?>
<!DOCTYPE svg PUBLIC "-//W3C//DTD SVG 1.1//EN"
 "http://www.w3.org/Graphics/SVG/1.1/DTD/svg11.dtd">
<!-- Generated by graphviz version 2.38.0 (20140413.2041)
 -->
<!-- Title: controllers_diagram Pages: 1 -->
<svg width="1362pt" height="1418pt"
 viewBox="0.00 0.00 1362.00 1417.50" xmlns="http://www.w3.org/2000/svg" xmlns:xlink="http://www.w3.org/1999/xlink">
<g id="graph0" class="graph" transform="scale(1 1) rotate(0) translate(624.5 816)">
<title>controllers_diagram</title>
<polygon fill="none" stroke="none" points="-624.5,601.5 -624.5,-816 737.5,-816 737.5,601.5 -624.5,601.5"/>
<!-- _diagram_info -->
<g id="node1" class="node"><title>_diagram_info</title>
<text text-anchor="start" x="-429" y="-362.6" font-family="Times,serif" font-size="13.00">Controllers diagram</text>
<text text-anchor="start" x="-429" y="-348.6" font-family="Times,serif" font-size="13.00">Date: Jun 17 2016 &#45; 17:30</text>
<text text-anchor="start" x="-429" y="-334.6" font-family="Times,serif" font-size="13.00">Migration version: 20160614025321</text>
<text text-anchor="start" x="-429" y="-320.6" font-family="Times,serif" font-size="13.00">Generated by RailRoady 1.4.2</text>
<text text-anchor="start" x="-429" y="-306.6" font-family="Times,serif" font-size="13.00">http://railroady.prestonlee.com</text>
</g>
<!-- HomeController -->
<g id="node2" class="node"><title>HomeController</title>
<path fill="none" stroke="black" d="M-608.5,-391.5C-608.5,-391.5 -501.5,-391.5 -501.5,-391.5 -495.5,-391.5 -489.5,-397.5 -489.5,-403.5 -489.5,-403.5 -489.5,-532.5 -489.5,-532.5 -489.5,-538.5 -495.5,-544.5 -501.5,-544.5 -501.5,-544.5 -608.5,-544.5 -608.5,-544.5 -614.5,-544.5 -620.5,-538.5 -620.5,-532.5 -620.5,-532.5 -620.5,-403.5 -620.5,-403.5 -620.5,-397.5 -614.5,-391.5 -608.5,-391.5"/>
<text text-anchor="middle" x="-555" y="-529.3" font-family="Times,serif" font-size="14.00">HomeController</text>
<polyline fill="none" stroke="black" points="-620.5,-521.5 -489.5,-521.5 "/>
<text text-anchor="start" x="-612.5" y="-506.3" font-family="Times,serif" font-size="14.00">devise_mapping</text>
<text text-anchor="start" x="-612.5" y="-491.3" font-family="Times,serif" font-size="14.00">index</text>
<text text-anchor="start" x="-612.5" y="-476.3" font-family="Times,serif" font-size="14.00">payments</text>
<text text-anchor="start" x="-612.5" y="-461.3" font-family="Times,serif" font-size="14.00">resource</text>
<text text-anchor="start" x="-612.5" y="-446.3" font-family="Times,serif" font-size="14.00">resource_name</text>
<polyline fill="none" stroke="black" points="-620.5,-438.5 -489.5,-438.5 "/>
<polyline fill="none" stroke="black" points="-620.5,-414.5 -489.5,-414.5 "/>
<text text-anchor="start" x="-612.5" y="-399.3" font-family="Times,serif" font-size="14.00">_layout</text>
</g>
<!-- Student::CourseUserTestsController -->
<g id="node3" class="node"><title>Student::CourseUserTestsController</title>
<path fill="none" stroke="black" d="M-149,-162C-149,-162 105,-162 105,-162 111,-162 117,-168 117,-174 117,-174 117,-378 117,-378 117,-384 111,-390 105,-390 105,-390 -149,-390 -149,-390 -155,-390 -161,-384 -161,-378 -161,-378 -161,-174 -161,-174 -161,-168 -155,-162 -149,-162"/>
<text text-anchor="middle" x="-22" y="-374.8" font-family="Times,serif" font-size="14.00">Student::CourseUserTestsController</text>
<polyline fill="none" stroke="black" points="-161,-367 117,-367 "/>
<text text-anchor="start" x="-153" y="-351.8" font-family="Times,serif" font-size="14.00">create</text>
<text text-anchor="start" x="-153" y="-336.8" font-family="Times,serif" font-size="14.00">destroy</text>
<text text-anchor="start" x="-153" y="-321.8" font-family="Times,serif" font-size="14.00">edit</text>
<text text-anchor="start" x="-153" y="-306.8" font-family="Times,serif" font-size="14.00">index</text>
<text text-anchor="start" x="-153" y="-291.8" font-family="Times,serif" font-size="14.00">new</text>
<text text-anchor="start" x="-153" y="-276.8" font-family="Times,serif" font-size="14.00">show</text>
<text text-anchor="start" x="-153" y="-261.8" font-family="Times,serif" font-size="14.00">update</text>
<polyline fill="none" stroke="black" points="-161,-254 117,-254 "/>
<polyline fill="none" stroke="black" points="-161,-230 117,-230 "/>
<text text-anchor="start" x="-153" y="-214.8" font-family="Times,serif" font-size="14.00">_layout</text>
<text text-anchor="start" x="-153" y="-199.8" font-family="Times,serif" font-size="14.00">course_user_test_params</text>
<text text-anchor="start" x="-153" y="-184.8" font-family="Times,serif" font-size="14.00">load_course_user_test</text>
<text text-anchor="start" x="-153" y="-169.8" font-family="Times,serif" font-size="14.00">set_course_user_test</text>
</g>
<!-- Student::TestsController -->
<g id="node4" class="node"><title>Student::TestsController</title>
<path fill="none" stroke="black" d="M-378.5,-1C-378.5,-1 -205.5,-1 -205.5,-1 -199.5,-1 -193.5,-7 -193.5,-13 -193.5,-13 -193.5,-217 -193.5,-217 -193.5,-223 -199.5,-229 -205.5,-229 -205.5,-229 -378.5,-229 -378.5,-229 -384.5,-229 -390.5,-223 -390.5,-217 -390.5,-217 -390.5,-13 -390.5,-13 -390.5,-7 -384.5,-1 -378.5,-1"/>
<text text-anchor="middle" x="-292" y="-213.8" font-family="Times,serif" font-size="14.00">Student::TestsController</text>
<polyline fill="none" stroke="black" points="-390.5,-206 -193.5,-206 "/>
<text text-anchor="start" x="-382.5" y="-190.8" font-family="Times,serif" font-size="14.00">create</text>
<text text-anchor="start" x="-382.5" y="-175.8" font-family="Times,serif" font-size="14.00">destroy</text>
<text text-anchor="start" x="-382.5" y="-160.8" font-family="Times,serif" font-size="14.00">edit</text>
<text text-anchor="start" x="-382.5" y="-145.8" font-family="Times,serif" font-size="14.00">index</text>
<text text-anchor="start" x="-382.5" y="-130.8" font-family="Times,serif" font-size="14.00">new</text>
<text text-anchor="start" x="-382.5" y="-115.8" font-family="Times,serif" font-size="14.00">show</text>
<text text-anchor="start" x="-382.5" y="-100.8" font-family="Times,serif" font-size="14.00">update</text>
<polyline fill="none" stroke="black" points="-390.5,-93 -193.5,-93 "/>
<polyline fill="none" stroke="black" points="-390.5,-69 -193.5,-69 "/>
<text text-anchor="start" x="-382.5" y="-53.8" font-family="Times,serif" font-size="14.00">_layout</text>
<text text-anchor="start" x="-382.5" y="-38.8" font-family="Times,serif" font-size="14.00">load_course</text>
<text text-anchor="start" x="-382.5" y="-23.8" font-family="Times,serif" font-size="14.00">set_test</text>
<text text-anchor="start" x="-382.5" y="-8.8" font-family="Times,serif" font-size="14.00">test_params</text>
</g>
<!-- Student::ResourcesController -->
<g id="node5" class="node"><title>Student::ResourcesController</title>
<path fill="none" stroke="black" d="M-126,390C-126,390 80,390 80,390 86,390 92,384 92,378 92,378 92,204 92,204 92,198 86,192 80,192 80,192 -126,192 -126,192 -132,192 -138,198 -138,204 -138,204 -138,378 -138,378 -138,384 -132,390 -126,390"/>
<text text-anchor="middle" x="-23" y="207.2" font-family="Times,serif" font-size="14.00">Student::ResourcesController</text>
<polyline fill="none" stroke="black" points="-138,215 92,215 "/>
<text text-anchor="start" x="-130" y="230.2" font-family="Times,serif" font-size="14.00">index</text>
<text text-anchor="start" x="-130" y="245.2" font-family="Times,serif" font-size="14.00">show</text>
<text text-anchor="start" x="-130" y="260.2" font-family="Times,serif" font-size="14.00">update</text>
<polyline fill="none" stroke="black" points="-138,268 92,268 "/>
<polyline fill="none" stroke="black" points="-138,292 92,292 "/>
<text text-anchor="start" x="-130" y="307.2" font-family="Times,serif" font-size="14.00">_layout</text>
<text text-anchor="start" x="-130" y="322.2" font-family="Times,serif" font-size="14.00">completed?</text>
<text text-anchor="start" x="-130" y="337.2" font-family="Times,serif" font-size="14.00">create_resource_progress</text>
<text text-anchor="start" x="-130" y="352.2" font-family="Times,serif" font-size="14.00">destroy_answers</text>
<text text-anchor="start" x="-130" y="367.2" font-family="Times,serif" font-size="14.00">resource_params</text>
<text text-anchor="start" x="-130" y="382.2" font-family="Times,serif" font-size="14.00">set_resource</text>
</g>
<!-- Student::CoursesController -->
<g id="node6" class="node"><title>Student::CoursesController</title>
<path fill="none" stroke="black" d="M149.5,436.5C149.5,436.5 338.5,436.5 338.5,436.5 344.5,436.5 350.5,430.5 350.5,424.5 350.5,424.5 350.5,235.5 350.5,235.5 350.5,229.5 344.5,223.5 338.5,223.5 338.5,223.5 149.5,223.5 149.5,223.5 143.5,223.5 137.5,229.5 137.5,235.5 137.5,235.5 137.5,424.5 137.5,424.5 137.5,430.5 143.5,436.5 149.5,436.5"/>
<text text-anchor="middle" x="244" y="238.7" font-family="Times,serif" font-size="14.00">Student::CoursesController</text>
<polyline fill="none" stroke="black" points="137.5,246.5 350.5,246.5 "/>
<text text-anchor="start" x="145.5" y="261.7" font-family="Times,serif" font-size="14.00">create</text>
<text text-anchor="start" x="145.5" y="276.7" font-family="Times,serif" font-size="14.00">destroy</text>
<text text-anchor="start" x="145.5" y="291.7" font-family="Times,serif" font-size="14.00">edit</text>
<text text-anchor="start" x="145.5" y="306.7" font-family="Times,serif" font-size="14.00">index</text>
<text text-anchor="start" x="145.5" y="321.7" font-family="Times,serif" font-size="14.00">new</text>
<text text-anchor="start" x="145.5" y="336.7" font-family="Times,serif" font-size="14.00">show</text>
<text text-anchor="start" x="145.5" y="351.7" font-family="Times,serif" font-size="14.00">update</text>
<polyline fill="none" stroke="black" points="137.5,359.5 350.5,359.5 "/>
<polyline fill="none" stroke="black" points="137.5,383.5 350.5,383.5 "/>
<text text-anchor="start" x="145.5" y="398.7" font-family="Times,serif" font-size="14.00">_layout</text>
<text text-anchor="start" x="145.5" y="413.7" font-family="Times,serif" font-size="14.00">course_params</text>
<text text-anchor="start" x="145.5" y="428.7" font-family="Times,serif" font-size="14.00">set_course</text>
</g>
<!-- SessionsController -->
<g id="node7" class="node"><title>SessionsController</title>
<path fill="none" stroke="black" d="M426.5,574C426.5,574 553.5,574 553.5,574 559.5,574 565.5,568 565.5,562 565.5,562 565.5,492 565.5,492 565.5,486 559.5,480 553.5,480 553.5,480 426.5,480 426.5,480 420.5,480 414.5,486 414.5,492 414.5,492 414.5,562 414.5,562 414.5,568 420.5,574 426.5,574"/>
<text text-anchor="middle" x="490" y="495.2" font-family="Times,serif" font-size="14.00">SessionsController</text>
<polyline fill="none" stroke="black" points="414.5,503 565.5,503 "/>
<polyline fill="none" stroke="black" points="414.5,527 565.5,527 "/>
<polyline fill="none" stroke="black" points="414.5,551 565.5,551 "/>
<text text-anchor="start" x="422.5" y="566.2" font-family="Times,serif" font-size="14.00">_layout</text>
</g>
<!-- SimulatorsController -->
<g id="node8" class="node"><title>SimulatorsController</title>
<path fill="none" stroke="black" d="M196.5,183.5C196.5,183.5 381.5,183.5 381.5,183.5 387.5,183.5 393.5,177.5 393.5,171.5 393.5,171.5 393.5,-47.5 393.5,-47.5 393.5,-53.5 387.5,-59.5 381.5,-59.5 381.5,-59.5 196.5,-59.5 196.5,-59.5 190.5,-59.5 184.5,-53.5 184.5,-47.5 184.5,-47.5 184.5,171.5 184.5,171.5 184.5,177.5 190.5,183.5 196.5,183.5"/>
<text text-anchor="middle" x="289" y="-44.3" font-family="Times,serif" font-size="14.00">SimulatorsController</text>
<polyline fill="none" stroke="black" points="184.5,-36.5 393.5,-36.5 "/>
<text text-anchor="start" x="192.5" y="-21.3" font-family="Times,serif" font-size="14.00">create</text>
<text text-anchor="start" x="192.5" y="-6.3" font-family="Times,serif" font-size="14.00">delete</text>
<text text-anchor="start" x="192.5" y="8.7" font-family="Times,serif" font-size="14.00">filter_chart</text>
<text text-anchor="start" x="192.5" y="23.7" font-family="Times,serif" font-size="14.00">finish_simulator</text>
<text text-anchor="start" x="192.5" y="38.7" font-family="Times,serif" font-size="14.00">index</text>
<text text-anchor="start" x="192.5" y="53.7" font-family="Times,serif" font-size="14.00">new</text>
<text text-anchor="start" x="192.5" y="68.7" font-family="Times,serif" font-size="14.00">pause_simulator</text>
<text text-anchor="start" x="192.5" y="83.7" font-family="Times,serif" font-size="14.00">show</text>
<text text-anchor="start" x="192.5" y="98.7" font-family="Times,serif" font-size="14.00">show_answered_questions</text>
<text text-anchor="start" x="192.5" y="113.7" font-family="Times,serif" font-size="14.00">update</text>
<polyline fill="none" stroke="black" points="184.5,121.5 393.5,121.5 "/>
<polyline fill="none" stroke="black" points="184.5,145.5 393.5,145.5 "/>
<text text-anchor="start" x="192.5" y="160.7" font-family="Times,serif" font-size="14.00">_layout</text>
<text text-anchor="start" x="192.5" y="175.7" font-family="Times,serif" font-size="14.00">simulator_params</text>
</g>
<!-- SchoolsController -->
<g id="node9" class="node"><title>SchoolsController</title>
<path fill="none" stroke="black" d="M-585.5,505.5C-585.5,505.5 -466.5,505.5 -466.5,505.5 -460.5,505.5 -454.5,499.5 -454.5,493.5 -454.5,493.5 -454.5,304.5 -454.5,304.5 -454.5,298.5 -460.5,292.5 -466.5,292.5 -466.5,292.5 -585.5,292.5 -585.5,292.5 -591.5,292.5 -597.5,298.5 -597.5,304.5 -597.5,304.5 -597.5,493.5 -597.5,493.5 -597.5,499.5 -591.5,505.5 -585.5,505.5"/>
<text text-anchor="middle" x="-526" y="307.7" font-family="Times,serif" font-size="14.00">SchoolsController</text>
<polyline fill="none" stroke="black" points="-597.5,315.5 -454.5,315.5 "/>
<text text-anchor="start" x="-589.5" y="330.7" font-family="Times,serif" font-size="14.00">create</text>
<text text-anchor="start" x="-589.5" y="345.7" font-family="Times,serif" font-size="14.00">destroy</text>
<text text-anchor="start" x="-589.5" y="360.7" font-family="Times,serif" font-size="14.00">edit</text>
<text text-anchor="start" x="-589.5" y="375.7" font-family="Times,serif" font-size="14.00">index</text>
<text text-anchor="start" x="-589.5" y="390.7" font-family="Times,serif" font-size="14.00">new</text>
<text text-anchor="start" x="-589.5" y="405.7" font-family="Times,serif" font-size="14.00">show</text>
<text text-anchor="start" x="-589.5" y="420.7" font-family="Times,serif" font-size="14.00">update</text>
<polyline fill="none" stroke="black" points="-597.5,428.5 -454.5,428.5 "/>
<polyline fill="none" stroke="black" points="-597.5,452.5 -454.5,452.5 "/>
<text text-anchor="start" x="-589.5" y="467.7" font-family="Times,serif" font-size="14.00">_layout</text>
<text text-anchor="start" x="-589.5" y="482.7" font-family="Times,serif" font-size="14.00">school_params</text>
<text text-anchor="start" x="-589.5" y="497.7" font-family="Times,serif" font-size="14.00">set_school</text>
</g>
<!-- AnsweredQuestionsController -->
<g id="node10" class="node"><title>AnsweredQuestionsController</title>
<path fill="none" stroke="black" d="M-402.5,413C-402.5,413 -195.5,413 -195.5,413 -189.5,413 -183.5,407 -183.5,401 -183.5,401 -183.5,197 -183.5,197 -183.5,191 -189.5,185 -195.5,185 -195.5,185 -402.5,185 -402.5,185 -408.5,185 -414.5,191 -414.5,197 -414.5,197 -414.5,401 -414.5,401 -414.5,407 -408.5,413 -402.5,413"/>
<text text-anchor="middle" x="-299" y="200.2" font-family="Times,serif" font-size="14.00">AnsweredQuestionsController</text>
<polyline fill="none" stroke="black" points="-414.5,208 -183.5,208 "/>
<text text-anchor="start" x="-406.5" y="223.2" font-family="Times,serif" font-size="14.00">create</text>
<text text-anchor="start" x="-406.5" y="238.2" font-family="Times,serif" font-size="14.00">delete</text>
<text text-anchor="start" x="-406.5" y="253.2" font-family="Times,serif" font-size="14.00">edit</text>
<text text-anchor="start" x="-406.5" y="268.2" font-family="Times,serif" font-size="14.00">index</text>
<text text-anchor="start" x="-406.5" y="283.2" font-family="Times,serif" font-size="14.00">new</text>
<text text-anchor="start" x="-406.5" y="298.2" font-family="Times,serif" font-size="14.00">show</text>
<text text-anchor="start" x="-406.5" y="313.2" font-family="Times,serif" font-size="14.00">update</text>
<polyline fill="none" stroke="black" points="-414.5,321 -183.5,321 "/>
<polyline fill="none" stroke="black" points="-414.5,345 -183.5,345 "/>
<text text-anchor="start" x="-406.5" y="360.2" font-family="Times,serif" font-size="14.00">_layout</text>
<text text-anchor="start" x="-406.5" y="375.2" font-family="Times,serif" font-size="14.00">answer_is_correct</text>
<text text-anchor="start" x="-406.5" y="390.2" font-family="Times,serif" font-size="14.00">answered_question_params</text>
<text text-anchor="start" x="-406.5" y="405.2" font-family="Times,serif" font-size="14.00">get_category_and_sub</text>
</g>
<!-- LiveClassesController -->
<g id="node11" class="node"><title>LiveClassesController</title>
<path fill="none" stroke="black" d="M-356,137.5C-356,137.5 -208,137.5 -208,137.5 -202,137.5 -196,131.5 -196,125.5 -196,125.5 -196,56.5 -196,56.5 -196,50.5 -202,44.5 -208,44.5 -208,44.5 -356,44.5 -356,44.5 -362,44.5 -368,50.5 -368,56.5 -368,56.5 -368,125.5 -368,125.5 -368,131.5 -362,137.5 -356,137.5"/>
<text text-anchor="middle" x="-282" y="59.7" font-family="Times,serif" font-size="14.00">LiveClassesController</text>
<polyline fill="none" stroke="black" points="-368,67.5 -196,67.5 "/>
<text text-anchor="start" x="-360" y="82.7" font-family="Times,serif" font-size="14.00">index</text>
<polyline fill="none" stroke="black" points="-368,90.5 -196,90.5 "/>
<polyline fill="none" stroke="black" points="-368,114.5 -196,114.5 "/>
<text text-anchor="start" x="-360" y="129.7" font-family="Times,serif" font-size="14.00">_layout</text>
</g>
<!-- OmniauthCallbacksController -->
<g id="node12" class="node"><title>OmniauthCallbacksController</title>
<path fill="none" stroke="black" d="M-126,551C-126,551 74,551 74,551 80,551 86,545 86,539 86,539 86,455 86,455 86,449 80,443 74,443 74,443 -126,443 -126,443 -132,443 -138,449 -138,455 -138,455 -138,539 -138,539 -138,545 -132,551 -126,551"/>
<text text-anchor="middle" x="-26" y="458.2" font-family="Times,serif" font-size="14.00">OmniauthCallbacksController</text>
<polyline fill="none" stroke="black" points="-138,466 86,466 "/>
<text text-anchor="start" x="-130" y="481.2" font-family="Times,serif" font-size="14.00">facebook</text>
<text text-anchor="start" x="-130" y="496.2" font-family="Times,serif" font-size="14.00">failure</text>
<polyline fill="none" stroke="black" points="-138,504 86,504 "/>
<polyline fill="none" stroke="black" points="-138,528 86,528 "/>
<text text-anchor="start" x="-130" y="543.2" font-family="Times,serif" font-size="14.00">_layout</text>
</g>
<!-- CategoriesController -->
<g id="node13" class="node"><title>CategoriesController</title>
<path fill="none" stroke="black" d="M448.5,436C448.5,436 591.5,436 591.5,436 597.5,436 603.5,430 603.5,424 603.5,424 603.5,190 603.5,190 603.5,184 597.5,178 591.5,178 591.5,178 448.5,178 448.5,178 442.5,178 436.5,184 436.5,190 436.5,190 436.5,424 436.5,424 436.5,430 442.5,436 448.5,436"/>
<text text-anchor="middle" x="520" y="193.2" font-family="Times,serif" font-size="14.00">CategoriesController</text>
<polyline fill="none" stroke="black" points="436.5,201 603.5,201 "/>
<text text-anchor="start" x="444.5" y="216.2" font-family="Times,serif" font-size="14.00">create</text>
<text text-anchor="start" x="444.5" y="231.2" font-family="Times,serif" font-size="14.00">delete</text>
<text text-anchor="start" x="444.5" y="246.2" font-family="Times,serif" font-size="14.00">devise_mapping</text>
<text text-anchor="start" x="444.5" y="261.2" font-family="Times,serif" font-size="14.00">edit</text>
<text text-anchor="start" x="444.5" y="276.2" font-family="Times,serif" font-size="14.00">filter_chart</text>
<text text-anchor="start" x="444.5" y="291.2" font-family="Times,serif" font-size="14.00">index</text>
<text text-anchor="start" x="444.5" y="306.2" font-family="Times,serif" font-size="14.00">new</text>
<text text-anchor="start" x="444.5" y="321.2" font-family="Times,serif" font-size="14.00">resource</text>
<text text-anchor="start" x="444.5" y="336.2" font-family="Times,serif" font-size="14.00">resource_name</text>
<text text-anchor="start" x="444.5" y="351.2" font-family="Times,serif" font-size="14.00">show</text>
<text text-anchor="start" x="444.5" y="366.2" font-family="Times,serif" font-size="14.00">update</text>
<polyline fill="none" stroke="black" points="436.5,374 603.5,374 "/>
<polyline fill="none" stroke="black" points="436.5,398 603.5,398 "/>
<text text-anchor="start" x="444.5" y="413.2" font-family="Times,serif" font-size="14.00">_layout</text>
<text text-anchor="start" x="444.5" y="428.2" font-family="Times,serif" font-size="14.00">category_params</text>
</g>
<!-- TasksController -->
<g id="node14" class="node"><title>TasksController</title>
<path fill="none" stroke="black" d="M-585.5,-598.5C-585.5,-598.5 -478.5,-598.5 -478.5,-598.5 -472.5,-598.5 -466.5,-604.5 -466.5,-610.5 -466.5,-610.5 -466.5,-799.5 -466.5,-799.5 -466.5,-805.5 -472.5,-811.5 -478.5,-811.5 -478.5,-811.5 -585.5,-811.5 -585.5,-811.5 -591.5,-811.5 -597.5,-805.5 -597.5,-799.5 -597.5,-799.5 -597.5,-610.5 -597.5,-610.5 -597.5,-604.5 -591.5,-598.5 -585.5,-598.5"/>
<text text-anchor="middle" x="-532" y="-796.3" font-family="Times,serif" font-size="14.00">TasksController</text>
<polyline fill="none" stroke="black" points="-597.5,-788.5 -466.5,-788.5 "/>
<text text-anchor="start" x="-589.5" y="-773.3" font-family="Times,serif" font-size="14.00">create</text>
<text text-anchor="start" x="-589.5" y="-758.3" font-family="Times,serif" font-size="14.00">destroy</text>
<text text-anchor="start" x="-589.5" y="-743.3" font-family="Times,serif" font-size="14.00">edit</text>
<text text-anchor="start" x="-589.5" y="-728.3" font-family="Times,serif" font-size="14.00">index</text>
<text text-anchor="start" x="-589.5" y="-713.3" font-family="Times,serif" font-size="14.00">new</text>
<text text-anchor="start" x="-589.5" y="-698.3" font-family="Times,serif" font-size="14.00">show</text>
<text text-anchor="start" x="-589.5" y="-683.3" font-family="Times,serif" font-size="14.00">update</text>
<polyline fill="none" stroke="black" points="-597.5,-675.5 -466.5,-675.5 "/>
<polyline fill="none" stroke="black" points="-597.5,-651.5 -466.5,-651.5 "/>
<text text-anchor="start" x="-589.5" y="-636.3" font-family="Times,serif" font-size="14.00">_layout</text>
<text text-anchor="start" x="-589.5" y="-621.3" font-family="Times,serif" font-size="14.00">set_task</text>
<text text-anchor="start" x="-589.5" y="-606.3" font-family="Times,serif" font-size="14.00">task_params</text>
</g>
<!-- SimulatorAnsweredQuestionsController -->
<g id="node15" class="node"><title>SimulatorAnsweredQuestionsController</title>
<path fill="none" stroke="black" d="M-149,137C-149,137 129,137 129,137 135,137 141,131 141,125 141,125 141,-109 141,-109 141,-115 135,-121 129,-121 129,-121 -149,-121 -149,-121 -155,-121 -161,-115 -161,-109 -161,-109 -161,125 -161,125 -161,131 -155,137 -149,137"/>
<text text-anchor="middle" x="-10" y="-105.8" font-family="Times,serif" font-size="14.00">SimulatorAnsweredQuestionsController</text>
<polyline fill="none" stroke="black" points="-161,-98 141,-98 "/>
<text text-anchor="start" x="-153" y="-82.8" font-family="Times,serif" font-size="14.00">create</text>
<text text-anchor="start" x="-153" y="-67.8" font-family="Times,serif" font-size="14.00">delete</text>
<text text-anchor="start" x="-153" y="-52.8" font-family="Times,serif" font-size="14.00">edit</text>
<text text-anchor="start" x="-153" y="-37.8" font-family="Times,serif" font-size="14.00">index</text>
<text text-anchor="start" x="-153" y="-22.8" font-family="Times,serif" font-size="14.00">new</text>
<text text-anchor="start" x="-153" y="-7.8" font-family="Times,serif" font-size="14.00">show</text>
<text text-anchor="start" x="-153" y="7.2" font-family="Times,serif" font-size="14.00">update</text>
<polyline fill="none" stroke="black" points="-161,15 141,15 "/>
<polyline fill="none" stroke="black" points="-161,39 141,39 "/>
<text text-anchor="start" x="-153" y="54.2" font-family="Times,serif" font-size="14.00">_layout</text>
<text text-anchor="start" x="-153" y="69.2" font-family="Times,serif" font-size="14.00">answer_status</text>
<text text-anchor="start" x="-153" y="84.2" font-family="Times,serif" font-size="14.00">answered_question_params</text>
<text text-anchor="start" x="-153" y="99.2" font-family="Times,serif" font-size="14.00">get_clue_class</text>
<text text-anchor="start" x="-153" y="114.2" font-family="Times,serif" font-size="14.00">get_simulator_and_question</text>
<text text-anchor="start" x="-153" y="129.2" font-family="Times,serif" font-size="14.00">show_answered_question</text>
</g>
<!-- UniversitiesController -->
<g id="node16" class="node"><title>UniversitiesController</title>
<path fill="none" stroke="black" d="M472,-460.5C472,-460.5 626,-460.5 626,-460.5 632,-460.5 638,-466.5 638,-472.5 638,-472.5 638,-661.5 638,-661.5 638,-667.5 632,-673.5 626,-673.5 626,-673.5 472,-673.5 472,-673.5 466,-673.5 460,-667.5 460,-661.5 460,-661.5 460,-472.5 460,-472.5 460,-466.5 466,-460.5 472,-460.5"/>
<text text-anchor="middle" x="549" y="-658.3" font-family="Times,serif" font-size="14.00">UniversitiesController</text>
<polyline fill="none" stroke="black" points="460,-650.5 638,-650.5 "/>
<text text-anchor="start" x="468" y="-635.3" font-family="Times,serif" font-size="14.00">create</text>
<text text-anchor="start" x="468" y="-620.3" font-family="Times,serif" font-size="14.00">destroy</text>
<text text-anchor="start" x="468" y="-605.3" font-family="Times,serif" font-size="14.00">edit</text>
<text text-anchor="start" x="468" y="-590.3" font-family="Times,serif" font-size="14.00">index</text>
<text text-anchor="start" x="468" y="-575.3" font-family="Times,serif" font-size="14.00">new</text>
<text text-anchor="start" x="468" y="-560.3" font-family="Times,serif" font-size="14.00">show</text>
<text text-anchor="start" x="468" y="-545.3" font-family="Times,serif" font-size="14.00">update</text>
<polyline fill="none" stroke="black" points="460,-537.5 638,-537.5 "/>
<polyline fill="none" stroke="black" points="460,-513.5 638,-513.5 "/>
<text text-anchor="start" x="468" y="-498.3" font-family="Times,serif" font-size="14.00">_layout</text>
<text text-anchor="start" x="468" y="-483.3" font-family="Times,serif" font-size="14.00">set_university</text>
<text text-anchor="start" x="468" y="-468.3" font-family="Times,serif" font-size="14.00">university_params</text>
</g>
<!-- PointsController -->
<g id="node17" class="node"><title>PointsController</title>
<path fill="none" stroke="black" d="M610.5,597C610.5,597 721.5,597 721.5,597 727.5,597 733.5,591 733.5,585 733.5,585 733.5,501 733.5,501 733.5,495 727.5,489 721.5,489 721.5,489 610.5,489 610.5,489 604.5,489 598.5,495 598.5,501 598.5,501 598.5,585 598.5,585 598.5,591 604.5,597 610.5,597"/>
<text text-anchor="middle" x="666" y="504.2" font-family="Times,serif" font-size="14.00">PointsController</text>
<polyline fill="none" stroke="black" points="598.5,512 733.5,512 "/>
<text text-anchor="start" x="606.5" y="527.2" font-family="Times,serif" font-size="14.00">create</text>
<polyline fill="none" stroke="black" points="598.5,535 733.5,535 "/>
<polyline fill="none" stroke="black" points="598.5,559 733.5,559 "/>
<text text-anchor="start" x="606.5" y="574.2" font-family="Times,serif" font-size="14.00">_layout</text>
<text text-anchor="start" x="606.5" y="589.2" font-family="Times,serif" font-size="14.00">point_params</text>
</g>
<!-- ApplicationController -->
<g id="node18" class="node"><title>ApplicationController</title>
<path fill="none" stroke="black" d="M196.5,-460.5C196.5,-460.5 399.5,-460.5 399.5,-460.5 405.5,-460.5 411.5,-466.5 411.5,-472.5 411.5,-472.5 411.5,-601.5 411.5,-601.5 411.5,-607.5 405.5,-613.5 399.5,-613.5 399.5,-613.5 196.5,-613.5 196.5,-613.5 190.5,-613.5 184.5,-607.5 184.5,-601.5 184.5,-601.5 184.5,-472.5 184.5,-472.5 184.5,-466.5 190.5,-460.5 196.5,-460.5"/>
<text text-anchor="middle" x="298" y="-598.3" font-family="Times,serif" font-size="14.00">ApplicationController</text>
<polyline fill="none" stroke="black" points="184.5,-590.5 411.5,-590.5 "/>
<text text-anchor="start" x="192.5" y="-575.3" font-family="Times,serif" font-size="14.00">calculate_license_countdown</text>
<text text-anchor="start" x="192.5" y="-560.3" font-family="Times,serif" font-size="14.00">check_license</text>
<text text-anchor="start" x="192.5" y="-545.3" font-family="Times,serif" font-size="14.00">raise_not_found!</text>
<text text-anchor="start" x="192.5" y="-530.3" font-family="Times,serif" font-size="14.00">render_404</text>
<text text-anchor="start" x="192.5" y="-515.3" font-family="Times,serif" font-size="14.00">render_js_only</text>
<polyline fill="none" stroke="black" points="184.5,-507.5 411.5,-507.5 "/>
<polyline fill="none" stroke="black" points="184.5,-483.5 411.5,-483.5 "/>
<text text-anchor="start" x="192.5" y="-468.3" font-family="Times,serif" font-size="14.00">_layout</text>
</g>
<!-- CareersController -->
<g id="node19" class="node"><title>CareersController</title>
<path fill="none" stroke="black" d="M495,-138.5C495,-138.5 617,-138.5 617,-138.5 623,-138.5 629,-144.5 629,-150.5 629,-150.5 629,-339.5 629,-339.5 629,-345.5 623,-351.5 617,-351.5 617,-351.5 495,-351.5 495,-351.5 489,-351.5 483,-345.5 483,-339.5 483,-339.5 483,-150.5 483,-150.5 483,-144.5 489,-138.5 495,-138.5"/>
<text text-anchor="middle" x="556" y="-336.3" font-family="Times,serif" font-size="14.00">CareersController</text>
<polyline fill="none" stroke="black" points="483,-328.5 629,-328.5 "/>
<text text-anchor="start" x="491" y="-313.3" font-family="Times,serif" font-size="14.00">create</text>
<text text-anchor="start" x="491" y="-298.3" font-family="Times,serif" font-size="14.00">destroy</text>
<text text-anchor="start" x="491" y="-283.3" font-family="Times,serif" font-size="14.00">edit</text>
<text text-anchor="start" x="491" y="-268.3" font-family="Times,serif" font-size="14.00">index</text>
<text text-anchor="start" x="491" y="-253.3" font-family="Times,serif" font-size="14.00">new</text>
<text text-anchor="start" x="491" y="-238.3" font-family="Times,serif" font-size="14.00">show</text>
<text text-anchor="start" x="491" y="-223.3" font-family="Times,serif" font-size="14.00">update</text>
<polyline fill="none" stroke="black" points="483,-215.5 629,-215.5 "/>
<polyline fill="none" stroke="black" points="483,-191.5 629,-191.5 "/>
<text text-anchor="start" x="491" y="-176.3" font-family="Times,serif" font-size="14.00">_layout</text>
<text text-anchor="start" x="491" y="-161.3" font-family="Times,serif" font-size="14.00">career_params</text>
<text text-anchor="start" x="491" y="-146.3" font-family="Times,serif" font-size="14.00">set_career</text>
</g>
<!-- SubCategoriesController -->
<g id="node20" class="node"><title>SubCategoriesController</title>
<path fill="none" stroke="black" d="M-401.5,-415C-401.5,-415 -216.5,-415 -216.5,-415 -210.5,-415 -204.5,-421 -204.5,-427 -204.5,-427 -204.5,-631 -204.5,-631 -204.5,-637 -210.5,-643 -216.5,-643 -216.5,-643 -401.5,-643 -401.5,-643 -407.5,-643 -413.5,-637 -413.5,-631 -413.5,-631 -413.5,-427 -413.5,-427 -413.5,-421 -407.5,-415 -401.5,-415"/>
<text text-anchor="middle" x="-309" y="-627.8" font-family="Times,serif" font-size="14.00">SubCategoriesController</text>
<polyline fill="none" stroke="black" points="-413.5,-620 -204.5,-620 "/>
<text text-anchor="start" x="-405.5" y="-604.8" font-family="Times,serif" font-size="14.00">create</text>
<text text-anchor="start" x="-405.5" y="-589.8" font-family="Times,serif" font-size="14.00">delete</text>
<text text-anchor="start" x="-405.5" y="-574.8" font-family="Times,serif" font-size="14.00">edit</text>
<text text-anchor="start" x="-405.5" y="-559.8" font-family="Times,serif" font-size="14.00">index</text>
<text text-anchor="start" x="-405.5" y="-544.8" font-family="Times,serif" font-size="14.00">new</text>
<text text-anchor="start" x="-405.5" y="-529.8" font-family="Times,serif" font-size="14.00">show</text>
<text text-anchor="start" x="-405.5" y="-514.8" font-family="Times,serif" font-size="14.00">show_answered_questions</text>
<text text-anchor="start" x="-405.5" y="-499.8" font-family="Times,serif" font-size="14.00">update</text>
<polyline fill="none" stroke="black" points="-413.5,-492 -204.5,-492 "/>
<polyline fill="none" stroke="black" points="-413.5,-468 -204.5,-468 "/>
<text text-anchor="start" x="-405.5" y="-452.8" font-family="Times,serif" font-size="14.00">_layout</text>
<text text-anchor="start" x="-405.5" y="-437.8" font-family="Times,serif" font-size="14.00">get_category</text>
<text text-anchor="start" x="-405.5" y="-422.8" font-family="Times,serif" font-size="14.00">sub_category_params</text>
</g>
<!-- RegistrationsController -->
<g id="node21" class="node"><title>RegistrationsController</title>
<path fill="none" stroke="black" d="M-402,574.5C-402,574.5 -234,574.5 -234,574.5 -228,574.5 -222,568.5 -222,562.5 -222,562.5 -222,463.5 -222,463.5 -222,457.5 -228,451.5 -234,451.5 -234,451.5 -402,451.5 -402,451.5 -408,451.5 -414,457.5 -414,463.5 -414,463.5 -414,562.5 -414,562.5 -414,568.5 -408,574.5 -402,574.5"/>
<text text-anchor="middle" x="-318" y="466.7" font-family="Times,serif" font-size="14.00">RegistrationsController</text>
<polyline fill="none" stroke="black" points="-414,474.5 -222,474.5 "/>
<polyline fill="none" stroke="black" points="-414,498.5 -222,498.5 "/>
<text text-anchor="start" x="-406" y="513.7" font-family="Times,serif" font-size="14.00">account_update_params</text>
<text text-anchor="start" x="-406" y="528.7" font-family="Times,serif" font-size="14.00">sign_up_params</text>
<text text-anchor="start" x="-406" y="543.7" font-family="Times,serif" font-size="14.00">update_resource</text>
<polyline fill="none" stroke="black" points="-414,551.5 -222,551.5 "/>
<text text-anchor="start" x="-406" y="566.7" font-family="Times,serif" font-size="14.00">_layout</text>
</g>
<!-- TutorialsController -->
<g id="node22" class="node"><title>TutorialsController</title>
<path fill="none" stroke="black" d="M-586,-0.5C-586,-0.5 -454,-0.5 -454,-0.5 -448,-0.5 -442,-6.5 -442,-12.5 -442,-12.5 -442,-201.5 -442,-201.5 -442,-207.5 -448,-213.5 -454,-213.5 -454,-213.5 -586,-213.5 -586,-213.5 -592,-213.5 -598,-207.5 -598,-201.5 -598,-201.5 -598,-12.5 -598,-12.5 -598,-6.5 -592,-0.5 -586,-0.5"/>
<text text-anchor="middle" x="-520" y="-198.3" font-family="Times,serif" font-size="14.00">TutorialsController</text>
<polyline fill="none" stroke="black" points="-598,-190.5 -442,-190.5 "/>
<text text-anchor="start" x="-590" y="-175.3" font-family="Times,serif" font-size="14.00">create</text>
<text text-anchor="start" x="-590" y="-160.3" font-family="Times,serif" font-size="14.00">destroy</text>
<text text-anchor="start" x="-590" y="-145.3" font-family="Times,serif" font-size="14.00">edit</text>
<text text-anchor="start" x="-590" y="-130.3" font-family="Times,serif" font-size="14.00">index</text>
<text text-anchor="start" x="-590" y="-115.3" font-family="Times,serif" font-size="14.00">new</text>
<text text-anchor="start" x="-590" y="-100.3" font-family="Times,serif" font-size="14.00">show</text>
<text text-anchor="start" x="-590" y="-85.3" font-family="Times,serif" font-size="14.00">update</text>
<polyline fill="none" stroke="black" points="-598,-77.5 -442,-77.5 "/>
<polyline fill="none" stroke="black" points="-598,-53.5 -442,-53.5 "/>
<text text-anchor="start" x="-590" y="-38.3" font-family="Times,serif" font-size="14.00">_layout</text>
<text text-anchor="start" x="-590" y="-23.3" font-family="Times,serif" font-size="14.00">set_tutorial</text>
<text text-anchor="start" x="-590" y="-8.3" font-family="Times,serif" font-size="14.00">tutorial_params</text>
</g>
<!-- QuestionsController -->
<g id="node23" class="node"><title>QuestionsController</title>
<path fill="none" stroke="black" d="M449,137C449,137 607,137 607,137 613,137 619,131 619,125 619,125 619,-79 619,-79 619,-85 613,-91 607,-91 607,-91 449,-91 449,-91 443,-91 437,-85 437,-79 437,-79 437,125 437,125 437,131 443,137 449,137"/>
<text text-anchor="middle" x="528" y="-75.8" font-family="Times,serif" font-size="14.00">QuestionsController</text>
<polyline fill="none" stroke="black" points="437,-68 619,-68 "/>
<text text-anchor="start" x="445" y="-52.8" font-family="Times,serif" font-size="14.00">create</text>
<text text-anchor="start" x="445" y="-37.8" font-family="Times,serif" font-size="14.00">delete</text>
<text text-anchor="start" x="445" y="-22.8" font-family="Times,serif" font-size="14.00">edit</text>
<text text-anchor="start" x="445" y="-7.8" font-family="Times,serif" font-size="14.00">index</text>
<text text-anchor="start" x="445" y="7.2" font-family="Times,serif" font-size="14.00">new</text>
<text text-anchor="start" x="445" y="22.2" font-family="Times,serif" font-size="14.00">show</text>
<text text-anchor="start" x="445" y="37.2" font-family="Times,serif" font-size="14.00">update</text>
<polyline fill="none" stroke="black" points="437,45 619,45 "/>
<polyline fill="none" stroke="black" points="437,69 619,69 "/>
<text text-anchor="start" x="445" y="84.2" font-family="Times,serif" font-size="14.00">_layout</text>
<text text-anchor="start" x="445" y="99.2" font-family="Times,serif" font-size="14.00">get_category_and_sub</text>
<text text-anchor="start" x="445" y="114.2" font-family="Times,serif" font-size="14.00">question_params</text>
<text text-anchor="start" x="445" y="129.2" font-family="Times,serif" font-size="14.00">show_questions_index</text>
</g>
<!-- ChoicesController -->
<g id="node24" class="node"><title>ChoicesController</title>
<path fill="none" stroke="black" d="M173.5,-162C173.5,-162 436.5,-162 436.5,-162 442.5,-162 448.5,-168 448.5,-174 448.5,-174 448.5,-408 448.5,-408 448.5,-414 442.5,-420 436.5,-420 436.5,-420 173.5,-420 173.5,-420 167.5,-420 161.5,-414 161.5,-408 161.5,-408 161.5,-174 161.5,-174 161.5,-168 167.5,-162 173.5,-162"/>
<text text-anchor="middle" x="305" y="-404.8" font-family="Times,serif" font-size="14.00">ChoicesController</text>
<polyline fill="none" stroke="black" points="161.5,-397 448.5,-397 "/>
<text text-anchor="start" x="169.5" y="-381.8" font-family="Times,serif" font-size="14.00">create</text>
<text text-anchor="start" x="169.5" y="-366.8" font-family="Times,serif" font-size="14.00">delete</text>
<text text-anchor="start" x="169.5" y="-351.8" font-family="Times,serif" font-size="14.00">edit</text>
<text text-anchor="start" x="169.5" y="-336.8" font-family="Times,serif" font-size="14.00">index</text>
<text text-anchor="start" x="169.5" y="-321.8" font-family="Times,serif" font-size="14.00">new</text>
<text text-anchor="start" x="169.5" y="-306.8" font-family="Times,serif" font-size="14.00">show</text>
<text text-anchor="start" x="169.5" y="-291.8" font-family="Times,serif" font-size="14.00">update</text>
<polyline fill="none" stroke="black" points="161.5,-284 448.5,-284 "/>
<polyline fill="none" stroke="black" points="161.5,-260 448.5,-260 "/>
<text text-anchor="start" x="169.5" y="-244.8" font-family="Times,serif" font-size="14.00">_layout</text>
<text text-anchor="start" x="169.5" y="-229.8" font-family="Times,serif" font-size="14.00">choice_params</text>
<text text-anchor="start" x="169.5" y="-214.8" font-family="Times,serif" font-size="14.00">get_category_and_sub_and_question</text>
<text text-anchor="start" x="169.5" y="-199.8" font-family="Times,serif" font-size="14.00">show_choices_index</text>
<text text-anchor="start" x="169.5" y="-184.8" font-family="Times,serif" font-size="14.00">update_choice</text>
<text text-anchor="start" x="169.5" y="-169.8" font-family="Times,serif" font-size="14.00">update_if_correct_choice</text>
</g>
<!-- Backend::DashboardController -->
<g id="node25" class="node"><title>Backend::DashboardController</title>
<path fill="none" stroke="black" d="M150,574.5C150,574.5 358,574.5 358,574.5 364,574.5 370,568.5 370,562.5 370,562.5 370,493.5 370,493.5 370,487.5 364,481.5 358,481.5 358,481.5 150,481.5 150,481.5 144,481.5 138,487.5 138,493.5 138,493.5 138,562.5 138,562.5 138,568.5 144,574.5 150,574.5"/>
<text text-anchor="middle" x="254" y="496.7" font-family="Times,serif" font-size="14.00">Backend::DashboardController</text>
<polyline fill="none" stroke="black" points="138,504.5 370,504.5 "/>
<text text-anchor="start" x="146" y="519.7" font-family="Times,serif" font-size="14.00">index</text>
<polyline fill="none" stroke="black" points="138,527.5 370,527.5 "/>
<polyline fill="none" stroke="black" points="138,551.5 370,551.5 "/>
<text text-anchor="start" x="146" y="566.7" font-family="Times,serif" font-size="14.00">_layout</text>
</g>
<!-- Backend::BlogsController -->
<g id="node26" class="node"><title>Backend::BlogsController</title>
<path fill="none" stroke="black" d="M-57,-437.5C-57,-437.5 115,-437.5 115,-437.5 121,-437.5 127,-443.5 127,-449.5 127,-449.5 127,-638.5 127,-638.5 127,-644.5 121,-650.5 115,-650.5 115,-650.5 -57,-650.5 -57,-650.5 -63,-650.5 -69,-644.5 -69,-638.5 -69,-638.5 -69,-449.5 -69,-449.5 -69,-443.5 -63,-437.5 -57,-437.5"/>
<text text-anchor="middle" x="29" y="-635.3" font-family="Times,serif" font-size="14.00">Backend::BlogsController</text>
<polyline fill="none" stroke="black" points="-69,-627.5 127,-627.5 "/>
<text text-anchor="start" x="-61" y="-612.3" font-family="Times,serif" font-size="14.00">create</text>
<text text-anchor="start" x="-61" y="-597.3" font-family="Times,serif" font-size="14.00">destroy</text>
<text text-anchor="start" x="-61" y="-582.3" font-family="Times,serif" font-size="14.00">edit</text>
<text text-anchor="start" x="-61" y="-567.3" font-family="Times,serif" font-size="14.00">index</text>
<text text-anchor="start" x="-61" y="-552.3" font-family="Times,serif" font-size="14.00">new</text>
<text text-anchor="start" x="-61" y="-537.3" font-family="Times,serif" font-size="14.00">show</text>
<text text-anchor="start" x="-61" y="-522.3" font-family="Times,serif" font-size="14.00">update</text>
<polyline fill="none" stroke="black" points="-69,-514.5 127,-514.5 "/>
<polyline fill="none" stroke="black" points="-69,-490.5 127,-490.5 "/>
<text text-anchor="start" x="-61" y="-475.3" font-family="Times,serif" font-size="14.00">_layout</text>
<text text-anchor="start" x="-61" y="-460.3" font-family="Times,serif" font-size="14.00">blog_params</text>
<text text-anchor="start" x="-61" y="-445.3" font-family="Times,serif" font-size="14.00">set_blog</text>
</g>
<!-- SectionsController -->
<g id="node27" class="node"><title>SectionsController</title>
<path fill="none" stroke="black" d="M-585.5,252.5C-585.5,252.5 -458.5,252.5 -458.5,252.5 -452.5,252.5 -446.5,246.5 -446.5,240.5 -446.5,240.5 -446.5,51.5 -446.5,51.5 -446.5,45.5 -452.5,39.5 -458.5,39.5 -458.5,39.5 -585.5,39.5 -585.5,39.5 -591.5,39.5 -597.5,45.5 -597.5,51.5 -597.5,51.5 -597.5,240.5 -597.5,240.5 -597.5,246.5 -591.5,252.5 -585.5,252.5"/>
<text text-anchor="middle" x="-522" y="54.7" font-family="Times,serif" font-size="14.00">SectionsController</text>
<polyline fill="none" stroke="black" points="-597.5,62.5 -446.5,62.5 "/>
<text text-anchor="start" x="-589.5" y="77.7" font-family="Times,serif" font-size="14.00">create</text>
<text text-anchor="start" x="-589.5" y="92.7" font-family="Times,serif" font-size="14.00">destroy</text>
<text text-anchor="start" x="-589.5" y="107.7" font-family="Times,serif" font-size="14.00">edit</text>
<text text-anchor="start" x="-589.5" y="122.7" font-family="Times,serif" font-size="14.00">index</text>
<text text-anchor="start" x="-589.5" y="137.7" font-family="Times,serif" font-size="14.00">new</text>
<text text-anchor="start" x="-589.5" y="152.7" font-family="Times,serif" font-size="14.00">show</text>
<text text-anchor="start" x="-589.5" y="167.7" font-family="Times,serif" font-size="14.00">update</text>
<polyline fill="none" stroke="black" points="-597.5,175.5 -446.5,175.5 "/>
<polyline fill="none" stroke="black" points="-597.5,199.5 -446.5,199.5 "/>
<text text-anchor="start" x="-589.5" y="214.7" font-family="Times,serif" font-size="14.00">_layout</text>
<text text-anchor="start" x="-589.5" y="229.7" font-family="Times,serif" font-size="14.00">section_params</text>
<text text-anchor="start" x="-589.5" y="244.7" font-family="Times,serif" font-size="14.00">set_section</text>
</g>
</g>
</svg>
