<?xml version="1.0" encoding="UTF-8" standalone="no"?>
<!DOCTYPE svg PUBLIC "-//W3C//DTD SVG 1.1//EN"
 "http://www.w3.org/Graphics/SVG/1.1/DTD/svg11.dtd">
<!-- Generated by graphviz version 2.38.0 (20140413.2041)
 -->
<!-- Title: controllers_diagram Pages: 1 -->
<svg width="1355pt" height="1418pt"
 viewBox="0.00 0.00 1355.00 1418.00" xmlns="http://www.w3.org/2000/svg" xmlns:xlink="http://www.w3.org/1999/xlink">
<g id="graph0" class="graph" transform="scale(1 1) rotate(0) translate(602 793)">
<title>controllers_diagram</title>
<polygon fill="none" stroke="none" points="-602,625 -602,-793 753,-793 753,625 -602,625"/>
<!-- _diagram_info -->
<g id="node1" class="node"><title>_diagram_info</title>
<text text-anchor="start" x="192" y="-109.6" font-family="Times,serif" font-size="13.00">Controllers diagram</text>
<text text-anchor="start" x="192" y="-95.6" font-family="Times,serif" font-size="13.00">Date: Jun 10 2016 &#45; 18:34</text>
<text text-anchor="start" x="192" y="-81.6" font-family="Times,serif" font-size="13.00">Migration version: 20160609021634</text>
<text text-anchor="start" x="192" y="-67.6" font-family="Times,serif" font-size="13.00">Generated by RailRoady 1.4.2</text>
<text text-anchor="start" x="192" y="-53.6" font-family="Times,serif" font-size="13.00">http://railroady.prestonlee.com</text>
</g>
<!-- HomeController -->
<g id="node2" class="node"><title>HomeController</title>
<path fill="none" stroke="black" d="M-378.5,597.5C-378.5,597.5 -271.5,597.5 -271.5,597.5 -265.5,597.5 -259.5,591.5 -259.5,585.5 -259.5,585.5 -259.5,456.5 -259.5,456.5 -259.5,450.5 -265.5,444.5 -271.5,444.5 -271.5,444.5 -378.5,444.5 -378.5,444.5 -384.5,444.5 -390.5,450.5 -390.5,456.5 -390.5,456.5 -390.5,585.5 -390.5,585.5 -390.5,591.5 -384.5,597.5 -378.5,597.5"/>
<text text-anchor="middle" x="-325" y="459.7" font-family="Times,serif" font-size="14.00">HomeController</text>
<polyline fill="none" stroke="black" points="-390.5,467.5 -259.5,467.5 "/>
<text text-anchor="start" x="-382.5" y="482.7" font-family="Times,serif" font-size="14.00">devise_mapping</text>
<text text-anchor="start" x="-382.5" y="497.7" font-family="Times,serif" font-size="14.00">index</text>
<text text-anchor="start" x="-382.5" y="512.7" font-family="Times,serif" font-size="14.00">payments</text>
<text text-anchor="start" x="-382.5" y="527.7" font-family="Times,serif" font-size="14.00">resource</text>
<text text-anchor="start" x="-382.5" y="542.7" font-family="Times,serif" font-size="14.00">resource_name</text>
<polyline fill="none" stroke="black" points="-390.5,550.5 -259.5,550.5 "/>
<polyline fill="none" stroke="black" points="-390.5,574.5 -259.5,574.5 "/>
<text text-anchor="start" x="-382.5" y="589.7" font-family="Times,serif" font-size="14.00">_layout</text>
</g>
<!-- Student::CourseUserTestsController -->
<g id="node3" class="node"><title>Student::CourseUserTestsController</title>
<path fill="none" stroke="black" d="M-149,-161.5C-149,-161.5 105,-161.5 105,-161.5 111,-161.5 117,-167.5 117,-173.5 117,-173.5 117,-362.5 117,-362.5 117,-368.5 111,-374.5 105,-374.5 105,-374.5 -149,-374.5 -149,-374.5 -155,-374.5 -161,-368.5 -161,-362.5 -161,-362.5 -161,-173.5 -161,-173.5 -161,-167.5 -155,-161.5 -149,-161.5"/>
<text text-anchor="middle" x="-22" y="-359.3" font-family="Times,serif" font-size="14.00">Student::CourseUserTestsController</text>
<polyline fill="none" stroke="black" points="-161,-351.5 117,-351.5 "/>
<text text-anchor="start" x="-153" y="-336.3" font-family="Times,serif" font-size="14.00">create</text>
<text text-anchor="start" x="-153" y="-321.3" font-family="Times,serif" font-size="14.00">destroy</text>
<text text-anchor="start" x="-153" y="-306.3" font-family="Times,serif" font-size="14.00">edit</text>
<text text-anchor="start" x="-153" y="-291.3" font-family="Times,serif" font-size="14.00">index</text>
<text text-anchor="start" x="-153" y="-276.3" font-family="Times,serif" font-size="14.00">new</text>
<text text-anchor="start" x="-153" y="-261.3" font-family="Times,serif" font-size="14.00">show</text>
<text text-anchor="start" x="-153" y="-246.3" font-family="Times,serif" font-size="14.00">update</text>
<polyline fill="none" stroke="black" points="-161,-238.5 117,-238.5 "/>
<polyline fill="none" stroke="black" points="-161,-214.5 117,-214.5 "/>
<text text-anchor="start" x="-153" y="-199.3" font-family="Times,serif" font-size="14.00">_layout</text>
<text text-anchor="start" x="-153" y="-184.3" font-family="Times,serif" font-size="14.00">set_student_course_user_test</text>
<text text-anchor="start" x="-153" y="-169.3" font-family="Times,serif" font-size="14.00">student_course_user_test_params</text>
</g>
<!-- Student::CourseTestUserController -->
<g id="node4" class="node"><title>Student::CourseTestUserController</title>
<path fill="none" stroke="black" d="M196.5,183.5C196.5,183.5 443.5,183.5 443.5,183.5 449.5,183.5 455.5,177.5 455.5,171.5 455.5,171.5 455.5,12.5 455.5,12.5 455.5,6.5 449.5,0.5 443.5,0.5 443.5,0.5 196.5,0.5 196.5,0.5 190.5,0.5 184.5,6.5 184.5,12.5 184.5,12.5 184.5,171.5 184.5,171.5 184.5,177.5 190.5,183.5 196.5,183.5"/>
<text text-anchor="middle" x="320" y="15.7" font-family="Times,serif" font-size="14.00">Student::CourseTestUserController</text>
<polyline fill="none" stroke="black" points="184.5,23.5 455.5,23.5 "/>
<text text-anchor="start" x="192.5" y="38.7" font-family="Times,serif" font-size="14.00">create</text>
<text text-anchor="start" x="192.5" y="53.7" font-family="Times,serif" font-size="14.00">destroy</text>
<text text-anchor="start" x="192.5" y="68.7" font-family="Times,serif" font-size="14.00">edit</text>
<text text-anchor="start" x="192.5" y="83.7" font-family="Times,serif" font-size="14.00">index</text>
<text text-anchor="start" x="192.5" y="98.7" font-family="Times,serif" font-size="14.00">new</text>
<text text-anchor="start" x="192.5" y="113.7" font-family="Times,serif" font-size="14.00">update</text>
<polyline fill="none" stroke="black" points="184.5,121.5 455.5,121.5 "/>
<polyline fill="none" stroke="black" points="184.5,145.5 455.5,145.5 "/>
<text text-anchor="start" x="192.5" y="160.7" font-family="Times,serif" font-size="14.00">_layout</text>
<text text-anchor="start" x="192.5" y="175.7" font-family="Times,serif" font-size="14.00">set_course_test_user</text>
</g>
<!-- Student::TestsController -->
<g id="node5" class="node"><title>Student::TestsController</title>
<path fill="none" stroke="black" d="M-378.5,-391.5C-378.5,-391.5 -205.5,-391.5 -205.5,-391.5 -199.5,-391.5 -193.5,-397.5 -193.5,-403.5 -193.5,-403.5 -193.5,-592.5 -193.5,-592.5 -193.5,-598.5 -199.5,-604.5 -205.5,-604.5 -205.5,-604.5 -378.5,-604.5 -378.5,-604.5 -384.5,-604.5 -390.5,-598.5 -390.5,-592.5 -390.5,-592.5 -390.5,-403.5 -390.5,-403.5 -390.5,-397.5 -384.5,-391.5 -378.5,-391.5"/>
<text text-anchor="middle" x="-292" y="-589.3" font-family="Times,serif" font-size="14.00">Student::TestsController</text>
<polyline fill="none" stroke="black" points="-390.5,-581.5 -193.5,-581.5 "/>
<text text-anchor="start" x="-382.5" y="-566.3" font-family="Times,serif" font-size="14.00">create</text>
<text text-anchor="start" x="-382.5" y="-551.3" font-family="Times,serif" font-size="14.00">destroy</text>
<text text-anchor="start" x="-382.5" y="-536.3" font-family="Times,serif" font-size="14.00">edit</text>
<text text-anchor="start" x="-382.5" y="-521.3" font-family="Times,serif" font-size="14.00">index</text>
<text text-anchor="start" x="-382.5" y="-506.3" font-family="Times,serif" font-size="14.00">new</text>
<text text-anchor="start" x="-382.5" y="-491.3" font-family="Times,serif" font-size="14.00">show</text>
<text text-anchor="start" x="-382.5" y="-476.3" font-family="Times,serif" font-size="14.00">update</text>
<polyline fill="none" stroke="black" points="-390.5,-468.5 -193.5,-468.5 "/>
<polyline fill="none" stroke="black" points="-390.5,-444.5 -193.5,-444.5 "/>
<text text-anchor="start" x="-382.5" y="-429.3" font-family="Times,serif" font-size="14.00">_layout</text>
<text text-anchor="start" x="-382.5" y="-414.3" font-family="Times,serif" font-size="14.00">set_test</text>
<text text-anchor="start" x="-382.5" y="-399.3" font-family="Times,serif" font-size="14.00">test_params</text>
</g>
<!-- Student::ResourcesController -->
<g id="node6" class="node"><title>Student::ResourcesController</title>
<path fill="none" stroke="black" d="M-379,390C-379,390 -173,390 -173,390 -167,390 -161,384 -161,378 -161,378 -161,204 -161,204 -161,198 -167,192 -173,192 -173,192 -379,192 -379,192 -385,192 -391,198 -391,204 -391,204 -391,378 -391,378 -391,384 -385,390 -379,390"/>
<text text-anchor="middle" x="-276" y="207.2" font-family="Times,serif" font-size="14.00">Student::ResourcesController</text>
<polyline fill="none" stroke="black" points="-391,215 -161,215 "/>
<text text-anchor="start" x="-383" y="230.2" font-family="Times,serif" font-size="14.00">index</text>
<text text-anchor="start" x="-383" y="245.2" font-family="Times,serif" font-size="14.00">show</text>
<text text-anchor="start" x="-383" y="260.2" font-family="Times,serif" font-size="14.00">update</text>
<polyline fill="none" stroke="black" points="-391,268 -161,268 "/>
<polyline fill="none" stroke="black" points="-391,292 -161,292 "/>
<text text-anchor="start" x="-383" y="307.2" font-family="Times,serif" font-size="14.00">_layout</text>
<text text-anchor="start" x="-383" y="322.2" font-family="Times,serif" font-size="14.00">completed?</text>
<text text-anchor="start" x="-383" y="337.2" font-family="Times,serif" font-size="14.00">create_resource_progress</text>
<text text-anchor="start" x="-383" y="352.2" font-family="Times,serif" font-size="14.00">destroy_answers</text>
<text text-anchor="start" x="-383" y="367.2" font-family="Times,serif" font-size="14.00">resource_params</text>
<text text-anchor="start" x="-383" y="382.2" font-family="Times,serif" font-size="14.00">set_resource</text>
</g>
<!-- Student::CoursesController -->
<g id="node7" class="node"><title>Student::CoursesController</title>
<path fill="none" stroke="black" d="M149.5,436.5C149.5,436.5 338.5,436.5 338.5,436.5 344.5,436.5 350.5,430.5 350.5,424.5 350.5,424.5 350.5,235.5 350.5,235.5 350.5,229.5 344.5,223.5 338.5,223.5 338.5,223.5 149.5,223.5 149.5,223.5 143.5,223.5 137.5,229.5 137.5,235.5 137.5,235.5 137.5,424.5 137.5,424.5 137.5,430.5 143.5,436.5 149.5,436.5"/>
<text text-anchor="middle" x="244" y="238.7" font-family="Times,serif" font-size="14.00">Student::CoursesController</text>
<polyline fill="none" stroke="black" points="137.5,246.5 350.5,246.5 "/>
<text text-anchor="start" x="145.5" y="261.7" font-family="Times,serif" font-size="14.00">create</text>
<text text-anchor="start" x="145.5" y="276.7" font-family="Times,serif" font-size="14.00">destroy</text>
<text text-anchor="start" x="145.5" y="291.7" font-family="Times,serif" font-size="14.00">edit</text>
<text text-anchor="start" x="145.5" y="306.7" font-family="Times,serif" font-size="14.00">index</text>
<text text-anchor="start" x="145.5" y="321.7" font-family="Times,serif" font-size="14.00">new</text>
<text text-anchor="start" x="145.5" y="336.7" font-family="Times,serif" font-size="14.00">show</text>
<text text-anchor="start" x="145.5" y="351.7" font-family="Times,serif" font-size="14.00">update</text>
<polyline fill="none" stroke="black" points="137.5,359.5 350.5,359.5 "/>
<polyline fill="none" stroke="black" points="137.5,383.5 350.5,383.5 "/>
<text text-anchor="start" x="145.5" y="398.7" font-family="Times,serif" font-size="14.00">_layout</text>
<text text-anchor="start" x="145.5" y="413.7" font-family="Times,serif" font-size="14.00">course_params</text>
<text text-anchor="start" x="145.5" y="428.7" font-family="Times,serif" font-size="14.00">set_course</text>
</g>
<!-- SessionsController -->
<g id="node8" class="node"><title>SessionsController</title>
<path fill="none" stroke="black" d="M-194.5,551C-194.5,551 -67.5,551 -67.5,551 -61.5,551 -55.5,545 -55.5,539 -55.5,539 -55.5,469 -55.5,469 -55.5,463 -61.5,457 -67.5,457 -67.5,457 -194.5,457 -194.5,457 -200.5,457 -206.5,463 -206.5,469 -206.5,469 -206.5,539 -206.5,539 -206.5,545 -200.5,551 -194.5,551"/>
<text text-anchor="middle" x="-131" y="472.2" font-family="Times,serif" font-size="14.00">SessionsController</text>
<polyline fill="none" stroke="black" points="-206.5,480 -55.5,480 "/>
<polyline fill="none" stroke="black" points="-206.5,504 -55.5,504 "/>
<polyline fill="none" stroke="black" points="-206.5,528 -55.5,528 "/>
<text text-anchor="start" x="-198.5" y="543.2" font-family="Times,serif" font-size="14.00">_layout</text>
</g>
<!-- SimulatorsController -->
<g id="node9" class="node"><title>SimulatorsController</title>
<path fill="none" stroke="black" d="M-401.5,-0.5C-401.5,-0.5 -216.5,-0.5 -216.5,-0.5 -210.5,-0.5 -204.5,-6.5 -204.5,-12.5 -204.5,-12.5 -204.5,-231.5 -204.5,-231.5 -204.5,-237.5 -210.5,-243.5 -216.5,-243.5 -216.5,-243.5 -401.5,-243.5 -401.5,-243.5 -407.5,-243.5 -413.5,-237.5 -413.5,-231.5 -413.5,-231.5 -413.5,-12.5 -413.5,-12.5 -413.5,-6.5 -407.5,-0.5 -401.5,-0.5"/>
<text text-anchor="middle" x="-309" y="-228.3" font-family="Times,serif" font-size="14.00">SimulatorsController</text>
<polyline fill="none" stroke="black" points="-413.5,-220.5 -204.5,-220.5 "/>
<text text-anchor="start" x="-405.5" y="-205.3" font-family="Times,serif" font-size="14.00">create</text>
<text text-anchor="start" x="-405.5" y="-190.3" font-family="Times,serif" font-size="14.00">delete</text>
<text text-anchor="start" x="-405.5" y="-175.3" font-family="Times,serif" font-size="14.00">filter_chart</text>
<text text-anchor="start" x="-405.5" y="-160.3" font-family="Times,serif" font-size="14.00">finish_simulator</text>
<text text-anchor="start" x="-405.5" y="-145.3" font-family="Times,serif" font-size="14.00">index</text>
<text text-anchor="start" x="-405.5" y="-130.3" font-family="Times,serif" font-size="14.00">new</text>
<text text-anchor="start" x="-405.5" y="-115.3" font-family="Times,serif" font-size="14.00">pause_simulator</text>
<text text-anchor="start" x="-405.5" y="-100.3" font-family="Times,serif" font-size="14.00">show</text>
<text text-anchor="start" x="-405.5" y="-85.3" font-family="Times,serif" font-size="14.00">show_answered_questions</text>
<text text-anchor="start" x="-405.5" y="-70.3" font-family="Times,serif" font-size="14.00">update</text>
<polyline fill="none" stroke="black" points="-413.5,-62.5 -204.5,-62.5 "/>
<polyline fill="none" stroke="black" points="-413.5,-38.5 -204.5,-38.5 "/>
<text text-anchor="start" x="-405.5" y="-23.3" font-family="Times,serif" font-size="14.00">_layout</text>
<text text-anchor="start" x="-405.5" y="-8.3" font-family="Times,serif" font-size="14.00">simulator_params</text>
</g>
<!-- SchoolsController -->
<g id="node10" class="node"><title>SchoolsController</title>
<path fill="none" stroke="black" d="M-562.5,-322.5C-562.5,-322.5 -443.5,-322.5 -443.5,-322.5 -437.5,-322.5 -431.5,-328.5 -431.5,-334.5 -431.5,-334.5 -431.5,-523.5 -431.5,-523.5 -431.5,-529.5 -437.5,-535.5 -443.5,-535.5 -443.5,-535.5 -562.5,-535.5 -562.5,-535.5 -568.5,-535.5 -574.5,-529.5 -574.5,-523.5 -574.5,-523.5 -574.5,-334.5 -574.5,-334.5 -574.5,-328.5 -568.5,-322.5 -562.5,-322.5"/>
<text text-anchor="middle" x="-503" y="-520.3" font-family="Times,serif" font-size="14.00">SchoolsController</text>
<polyline fill="none" stroke="black" points="-574.5,-512.5 -431.5,-512.5 "/>
<text text-anchor="start" x="-566.5" y="-497.3" font-family="Times,serif" font-size="14.00">create</text>
<text text-anchor="start" x="-566.5" y="-482.3" font-family="Times,serif" font-size="14.00">destroy</text>
<text text-anchor="start" x="-566.5" y="-467.3" font-family="Times,serif" font-size="14.00">edit</text>
<text text-anchor="start" x="-566.5" y="-452.3" font-family="Times,serif" font-size="14.00">index</text>
<text text-anchor="start" x="-566.5" y="-437.3" font-family="Times,serif" font-size="14.00">new</text>
<text text-anchor="start" x="-566.5" y="-422.3" font-family="Times,serif" font-size="14.00">show</text>
<text text-anchor="start" x="-566.5" y="-407.3" font-family="Times,serif" font-size="14.00">update</text>
<polyline fill="none" stroke="black" points="-574.5,-399.5 -431.5,-399.5 "/>
<polyline fill="none" stroke="black" points="-574.5,-375.5 -431.5,-375.5 "/>
<text text-anchor="start" x="-566.5" y="-360.3" font-family="Times,serif" font-size="14.00">_layout</text>
<text text-anchor="start" x="-566.5" y="-345.3" font-family="Times,serif" font-size="14.00">school_params</text>
<text text-anchor="start" x="-566.5" y="-330.3" font-family="Times,serif" font-size="14.00">set_school</text>
</g>
<!-- AnsweredQuestionsController -->
<g id="node11" class="node"><title>AnsweredQuestionsController</title>
<path fill="none" stroke="black" d="M-103.5,-415C-103.5,-415 103.5,-415 103.5,-415 109.5,-415 115.5,-421 115.5,-427 115.5,-427 115.5,-631 115.5,-631 115.5,-637 109.5,-643 103.5,-643 103.5,-643 -103.5,-643 -103.5,-643 -109.5,-643 -115.5,-637 -115.5,-631 -115.5,-631 -115.5,-427 -115.5,-427 -115.5,-421 -109.5,-415 -103.5,-415"/>
<text text-anchor="middle" x="0" y="-627.8" font-family="Times,serif" font-size="14.00">AnsweredQuestionsController</text>
<polyline fill="none" stroke="black" points="-115.5,-620 115.5,-620 "/>
<text text-anchor="start" x="-107.5" y="-604.8" font-family="Times,serif" font-size="14.00">create</text>
<text text-anchor="start" x="-107.5" y="-589.8" font-family="Times,serif" font-size="14.00">delete</text>
<text text-anchor="start" x="-107.5" y="-574.8" font-family="Times,serif" font-size="14.00">edit</text>
<text text-anchor="start" x="-107.5" y="-559.8" font-family="Times,serif" font-size="14.00">index</text>
<text text-anchor="start" x="-107.5" y="-544.8" font-family="Times,serif" font-size="14.00">new</text>
<text text-anchor="start" x="-107.5" y="-529.8" font-family="Times,serif" font-size="14.00">show</text>
<text text-anchor="start" x="-107.5" y="-514.8" font-family="Times,serif" font-size="14.00">update</text>
<polyline fill="none" stroke="black" points="-115.5,-507 115.5,-507 "/>
<polyline fill="none" stroke="black" points="-115.5,-483 115.5,-483 "/>
<text text-anchor="start" x="-107.5" y="-467.8" font-family="Times,serif" font-size="14.00">_layout</text>
<text text-anchor="start" x="-107.5" y="-452.8" font-family="Times,serif" font-size="14.00">answer_is_correct</text>
<text text-anchor="start" x="-107.5" y="-437.8" font-family="Times,serif" font-size="14.00">answered_question_params</text>
<text text-anchor="start" x="-107.5" y="-422.8" font-family="Times,serif" font-size="14.00">get_category_and_sub</text>
</g>
<!-- LiveClassesController -->
<g id="node12" class="node"><title>LiveClassesController</title>
<path fill="none" stroke="black" d="M-356,137.5C-356,137.5 -208,137.5 -208,137.5 -202,137.5 -196,131.5 -196,125.5 -196,125.5 -196,56.5 -196,56.5 -196,50.5 -202,44.5 -208,44.5 -208,44.5 -356,44.5 -356,44.5 -362,44.5 -368,50.5 -368,56.5 -368,56.5 -368,125.5 -368,125.5 -368,131.5 -362,137.5 -356,137.5"/>
<text text-anchor="middle" x="-282" y="59.7" font-family="Times,serif" font-size="14.00">LiveClassesController</text>
<polyline fill="none" stroke="black" points="-368,67.5 -196,67.5 "/>
<text text-anchor="start" x="-360" y="82.7" font-family="Times,serif" font-size="14.00">index</text>
<polyline fill="none" stroke="black" points="-368,90.5 -196,90.5 "/>
<polyline fill="none" stroke="black" points="-368,114.5 -196,114.5 "/>
<text text-anchor="start" x="-360" y="129.7" font-family="Times,serif" font-size="14.00">_layout</text>
</g>
<!-- OmniauthCallbacksController -->
<g id="node13" class="node"><title>OmniauthCallbacksController</title>
<path fill="none" stroke="black" d="M495,-254C495,-254 695,-254 695,-254 701,-254 707,-260 707,-266 707,-266 707,-350 707,-350 707,-356 701,-362 695,-362 695,-362 495,-362 495,-362 489,-362 483,-356 483,-350 483,-350 483,-266 483,-266 483,-260 489,-254 495,-254"/>
<text text-anchor="middle" x="595" y="-346.8" font-family="Times,serif" font-size="14.00">OmniauthCallbacksController</text>
<polyline fill="none" stroke="black" points="483,-339 707,-339 "/>
<text text-anchor="start" x="491" y="-323.8" font-family="Times,serif" font-size="14.00">facebook</text>
<text text-anchor="start" x="491" y="-308.8" font-family="Times,serif" font-size="14.00">failure</text>
<polyline fill="none" stroke="black" points="483,-301 707,-301 "/>
<polyline fill="none" stroke="black" points="483,-277 707,-277 "/>
<text text-anchor="start" x="491" y="-261.8" font-family="Times,serif" font-size="14.00">_layout</text>
</g>
<!-- CategoriesController -->
<g id="node14" class="node"><title>CategoriesController</title>
<path fill="none" stroke="black" d="M471.5,-461C471.5,-461 614.5,-461 614.5,-461 620.5,-461 626.5,-467 626.5,-473 626.5,-473 626.5,-707 626.5,-707 626.5,-713 620.5,-719 614.5,-719 614.5,-719 471.5,-719 471.5,-719 465.5,-719 459.5,-713 459.5,-707 459.5,-707 459.5,-473 459.5,-473 459.5,-467 465.5,-461 471.5,-461"/>
<text text-anchor="middle" x="543" y="-703.8" font-family="Times,serif" font-size="14.00">CategoriesController</text>
<polyline fill="none" stroke="black" points="459.5,-696 626.5,-696 "/>
<text text-anchor="start" x="467.5" y="-680.8" font-family="Times,serif" font-size="14.00">create</text>
<text text-anchor="start" x="467.5" y="-665.8" font-family="Times,serif" font-size="14.00">delete</text>
<text text-anchor="start" x="467.5" y="-650.8" font-family="Times,serif" font-size="14.00">devise_mapping</text>
<text text-anchor="start" x="467.5" y="-635.8" font-family="Times,serif" font-size="14.00">edit</text>
<text text-anchor="start" x="467.5" y="-620.8" font-family="Times,serif" font-size="14.00">filter_chart</text>
<text text-anchor="start" x="467.5" y="-605.8" font-family="Times,serif" font-size="14.00">index</text>
<text text-anchor="start" x="467.5" y="-590.8" font-family="Times,serif" font-size="14.00">new</text>
<text text-anchor="start" x="467.5" y="-575.8" font-family="Times,serif" font-size="14.00">resource</text>
<text text-anchor="start" x="467.5" y="-560.8" font-family="Times,serif" font-size="14.00">resource_name</text>
<text text-anchor="start" x="467.5" y="-545.8" font-family="Times,serif" font-size="14.00">show</text>
<text text-anchor="start" x="467.5" y="-530.8" font-family="Times,serif" font-size="14.00">update</text>
<polyline fill="none" stroke="black" points="459.5,-523 626.5,-523 "/>
<polyline fill="none" stroke="black" points="459.5,-499 626.5,-499 "/>
<text text-anchor="start" x="467.5" y="-483.8" font-family="Times,serif" font-size="14.00">_layout</text>
<text text-anchor="start" x="467.5" y="-468.8" font-family="Times,serif" font-size="14.00">category_params</text>
</g>
<!-- TasksController -->
<g id="node15" class="node"><title>TasksController</title>
<path fill="none" stroke="black" d="M-585.5,-0.5C-585.5,-0.5 -478.5,-0.5 -478.5,-0.5 -472.5,-0.5 -466.5,-6.5 -466.5,-12.5 -466.5,-12.5 -466.5,-201.5 -466.5,-201.5 -466.5,-207.5 -472.5,-213.5 -478.5,-213.5 -478.5,-213.5 -585.5,-213.5 -585.5,-213.5 -591.5,-213.5 -597.5,-207.5 -597.5,-201.5 -597.5,-201.5 -597.5,-12.5 -597.5,-12.5 -597.5,-6.5 -591.5,-0.5 -585.5,-0.5"/>
<text text-anchor="middle" x="-532" y="-198.3" font-family="Times,serif" font-size="14.00">TasksController</text>
<polyline fill="none" stroke="black" points="-597.5,-190.5 -466.5,-190.5 "/>
<text text-anchor="start" x="-589.5" y="-175.3" font-family="Times,serif" font-size="14.00">create</text>
<text text-anchor="start" x="-589.5" y="-160.3" font-family="Times,serif" font-size="14.00">destroy</text>
<text text-anchor="start" x="-589.5" y="-145.3" font-family="Times,serif" font-size="14.00">edit</text>
<text text-anchor="start" x="-589.5" y="-130.3" font-family="Times,serif" font-size="14.00">index</text>
<text text-anchor="start" x="-589.5" y="-115.3" font-family="Times,serif" font-size="14.00">new</text>
<text text-anchor="start" x="-589.5" y="-100.3" font-family="Times,serif" font-size="14.00">show</text>
<text text-anchor="start" x="-589.5" y="-85.3" font-family="Times,serif" font-size="14.00">update</text>
<polyline fill="none" stroke="black" points="-597.5,-77.5 -466.5,-77.5 "/>
<polyline fill="none" stroke="black" points="-597.5,-53.5 -466.5,-53.5 "/>
<text text-anchor="start" x="-589.5" y="-38.3" font-family="Times,serif" font-size="14.00">_layout</text>
<text text-anchor="start" x="-589.5" y="-23.3" font-family="Times,serif" font-size="14.00">set_task</text>
<text text-anchor="start" x="-589.5" y="-8.3" font-family="Times,serif" font-size="14.00">task_params</text>
</g>
<!-- SimulatorAnsweredQuestionsController -->
<g id="node16" class="node"><title>SimulatorAnsweredQuestionsController</title>
<path fill="none" stroke="black" d="M-149,137C-149,137 129,137 129,137 135,137 141,131 141,125 141,125 141,-109 141,-109 141,-115 135,-121 129,-121 129,-121 -149,-121 -149,-121 -155,-121 -161,-115 -161,-109 -161,-109 -161,125 -161,125 -161,131 -155,137 -149,137"/>
<text text-anchor="middle" x="-10" y="-105.8" font-family="Times,serif" font-size="14.00">SimulatorAnsweredQuestionsController</text>
<polyline fill="none" stroke="black" points="-161,-98 141,-98 "/>
<text text-anchor="start" x="-153" y="-82.8" font-family="Times,serif" font-size="14.00">create</text>
<text text-anchor="start" x="-153" y="-67.8" font-family="Times,serif" font-size="14.00">delete</text>
<text text-anchor="start" x="-153" y="-52.8" font-family="Times,serif" font-size="14.00">edit</text>
<text text-anchor="start" x="-153" y="-37.8" font-family="Times,serif" font-size="14.00">index</text>
<text text-anchor="start" x="-153" y="-22.8" font-family="Times,serif" font-size="14.00">new</text>
<text text-anchor="start" x="-153" y="-7.8" font-family="Times,serif" font-size="14.00">show</text>
<text text-anchor="start" x="-153" y="7.2" font-family="Times,serif" font-size="14.00">update</text>
<polyline fill="none" stroke="black" points="-161,15 141,15 "/>
<polyline fill="none" stroke="black" points="-161,39 141,39 "/>
<text text-anchor="start" x="-153" y="54.2" font-family="Times,serif" font-size="14.00">_layout</text>
<text text-anchor="start" x="-153" y="69.2" font-family="Times,serif" font-size="14.00">answer_status</text>
<text text-anchor="start" x="-153" y="84.2" font-family="Times,serif" font-size="14.00">answered_question_params</text>
<text text-anchor="start" x="-153" y="99.2" font-family="Times,serif" font-size="14.00">get_clue_class</text>
<text text-anchor="start" x="-153" y="114.2" font-family="Times,serif" font-size="14.00">get_simulator_and_question</text>
<text text-anchor="start" x="-153" y="129.2" font-family="Times,serif" font-size="14.00">show_answered_question</text>
</g>
<!-- UniversitiesController -->
<g id="node17" class="node"><title>UniversitiesController</title>
<path fill="none" stroke="black" d="M242,-460.5C242,-460.5 396,-460.5 396,-460.5 402,-460.5 408,-466.5 408,-472.5 408,-472.5 408,-661.5 408,-661.5 408,-667.5 402,-673.5 396,-673.5 396,-673.5 242,-673.5 242,-673.5 236,-673.5 230,-667.5 230,-661.5 230,-661.5 230,-472.5 230,-472.5 230,-466.5 236,-460.5 242,-460.5"/>
<text text-anchor="middle" x="319" y="-658.3" font-family="Times,serif" font-size="14.00">UniversitiesController</text>
<polyline fill="none" stroke="black" points="230,-650.5 408,-650.5 "/>
<text text-anchor="start" x="238" y="-635.3" font-family="Times,serif" font-size="14.00">create</text>
<text text-anchor="start" x="238" y="-620.3" font-family="Times,serif" font-size="14.00">destroy</text>
<text text-anchor="start" x="238" y="-605.3" font-family="Times,serif" font-size="14.00">edit</text>
<text text-anchor="start" x="238" y="-590.3" font-family="Times,serif" font-size="14.00">index</text>
<text text-anchor="start" x="238" y="-575.3" font-family="Times,serif" font-size="14.00">new</text>
<text text-anchor="start" x="238" y="-560.3" font-family="Times,serif" font-size="14.00">show</text>
<text text-anchor="start" x="238" y="-545.3" font-family="Times,serif" font-size="14.00">update</text>
<polyline fill="none" stroke="black" points="230,-537.5 408,-537.5 "/>
<polyline fill="none" stroke="black" points="230,-513.5 408,-513.5 "/>
<text text-anchor="start" x="238" y="-498.3" font-family="Times,serif" font-size="14.00">_layout</text>
<text text-anchor="start" x="238" y="-483.3" font-family="Times,serif" font-size="14.00">set_university</text>
<text text-anchor="start" x="238" y="-468.3" font-family="Times,serif" font-size="14.00">university_params</text>
</g>
<!-- PointsController -->
<g id="node18" class="node"><title>PointsController</title>
<path fill="none" stroke="black" d="M12.5,597C12.5,597 123.5,597 123.5,597 129.5,597 135.5,591 135.5,585 135.5,585 135.5,501 135.5,501 135.5,495 129.5,489 123.5,489 123.5,489 12.5,489 12.5,489 6.5,489 0.5,495 0.5,501 0.5,501 0.5,585 0.5,585 0.5,591 6.5,597 12.5,597"/>
<text text-anchor="middle" x="68" y="504.2" font-family="Times,serif" font-size="14.00">PointsController</text>
<polyline fill="none" stroke="black" points="0.5,512 135.5,512 "/>
<text text-anchor="start" x="8.5" y="527.2" font-family="Times,serif" font-size="14.00">create</text>
<polyline fill="none" stroke="black" points="0.5,535 135.5,535 "/>
<polyline fill="none" stroke="black" points="0.5,559 135.5,559 "/>
<text text-anchor="start" x="8.5" y="574.2" font-family="Times,serif" font-size="14.00">_layout</text>
<text text-anchor="start" x="8.5" y="589.2" font-family="Times,serif" font-size="14.00">point_params</text>
</g>
<!-- ApplicationController -->
<g id="node19" class="node"><title>ApplicationController</title>
<path fill="none" stroke="black" d="M495.5,-46.5C495.5,-46.5 698.5,-46.5 698.5,-46.5 704.5,-46.5 710.5,-52.5 710.5,-58.5 710.5,-58.5 710.5,-187.5 710.5,-187.5 710.5,-193.5 704.5,-199.5 698.5,-199.5 698.5,-199.5 495.5,-199.5 495.5,-199.5 489.5,-199.5 483.5,-193.5 483.5,-187.5 483.5,-187.5 483.5,-58.5 483.5,-58.5 483.5,-52.5 489.5,-46.5 495.5,-46.5"/>
<text text-anchor="middle" x="597" y="-184.3" font-family="Times,serif" font-size="14.00">ApplicationController</text>
<polyline fill="none" stroke="black" points="483.5,-176.5 710.5,-176.5 "/>
<text text-anchor="start" x="491.5" y="-161.3" font-family="Times,serif" font-size="14.00">calculate_license_countdown</text>
<text text-anchor="start" x="491.5" y="-146.3" font-family="Times,serif" font-size="14.00">check_license</text>
<text text-anchor="start" x="491.5" y="-131.3" font-family="Times,serif" font-size="14.00">raise_not_found!</text>
<text text-anchor="start" x="491.5" y="-116.3" font-family="Times,serif" font-size="14.00">render_404</text>
<text text-anchor="start" x="491.5" y="-101.3" font-family="Times,serif" font-size="14.00">render_js_only</text>
<polyline fill="none" stroke="black" points="483.5,-93.5 710.5,-93.5 "/>
<polyline fill="none" stroke="black" points="483.5,-69.5 710.5,-69.5 "/>
<text text-anchor="start" x="491.5" y="-54.3" font-family="Times,serif" font-size="14.00">_layout</text>
</g>
<!-- CareersController -->
<g id="node20" class="node"><title>CareersController</title>
<path fill="none" stroke="black" d="M-563,252.5C-563,252.5 -441,252.5 -441,252.5 -435,252.5 -429,246.5 -429,240.5 -429,240.5 -429,51.5 -429,51.5 -429,45.5 -435,39.5 -441,39.5 -441,39.5 -563,39.5 -563,39.5 -569,39.5 -575,45.5 -575,51.5 -575,51.5 -575,240.5 -575,240.5 -575,246.5 -569,252.5 -563,252.5"/>
<text text-anchor="middle" x="-502" y="54.7" font-family="Times,serif" font-size="14.00">CareersController</text>
<polyline fill="none" stroke="black" points="-575,62.5 -429,62.5 "/>
<text text-anchor="start" x="-567" y="77.7" font-family="Times,serif" font-size="14.00">create</text>
<text text-anchor="start" x="-567" y="92.7" font-family="Times,serif" font-size="14.00">destroy</text>
<text text-anchor="start" x="-567" y="107.7" font-family="Times,serif" font-size="14.00">edit</text>
<text text-anchor="start" x="-567" y="122.7" font-family="Times,serif" font-size="14.00">index</text>
<text text-anchor="start" x="-567" y="137.7" font-family="Times,serif" font-size="14.00">new</text>
<text text-anchor="start" x="-567" y="152.7" font-family="Times,serif" font-size="14.00">show</text>
<text text-anchor="start" x="-567" y="167.7" font-family="Times,serif" font-size="14.00">update</text>
<polyline fill="none" stroke="black" points="-575,175.5 -429,175.5 "/>
<polyline fill="none" stroke="black" points="-575,199.5 -429,199.5 "/>
<text text-anchor="start" x="-567" y="214.7" font-family="Times,serif" font-size="14.00">_layout</text>
<text text-anchor="start" x="-567" y="229.7" font-family="Times,serif" font-size="14.00">career_params</text>
<text text-anchor="start" x="-567" y="244.7" font-family="Times,serif" font-size="14.00">set_career</text>
</g>
<!-- SubCategoriesController -->
<g id="node21" class="node"><title>SubCategoriesController</title>
<path fill="none" stroke="black" d="M-102.5,413C-102.5,413 82.5,413 82.5,413 88.5,413 94.5,407 94.5,401 94.5,401 94.5,197 94.5,197 94.5,191 88.5,185 82.5,185 82.5,185 -102.5,185 -102.5,185 -108.5,185 -114.5,191 -114.5,197 -114.5,197 -114.5,401 -114.5,401 -114.5,407 -108.5,413 -102.5,413"/>
<text text-anchor="middle" x="-10" y="200.2" font-family="Times,serif" font-size="14.00">SubCategoriesController</text>
<polyline fill="none" stroke="black" points="-114.5,208 94.5,208 "/>
<text text-anchor="start" x="-106.5" y="223.2" font-family="Times,serif" font-size="14.00">create</text>
<text text-anchor="start" x="-106.5" y="238.2" font-family="Times,serif" font-size="14.00">delete</text>
<text text-anchor="start" x="-106.5" y="253.2" font-family="Times,serif" font-size="14.00">edit</text>
<text text-anchor="start" x="-106.5" y="268.2" font-family="Times,serif" font-size="14.00">index</text>
<text text-anchor="start" x="-106.5" y="283.2" font-family="Times,serif" font-size="14.00">new</text>
<text text-anchor="start" x="-106.5" y="298.2" font-family="Times,serif" font-size="14.00">show</text>
<text text-anchor="start" x="-106.5" y="313.2" font-family="Times,serif" font-size="14.00">show_answered_questions</text>
<text text-anchor="start" x="-106.5" y="328.2" font-family="Times,serif" font-size="14.00">update</text>
<polyline fill="none" stroke="black" points="-114.5,336 94.5,336 "/>
<polyline fill="none" stroke="black" points="-114.5,360 94.5,360 "/>
<text text-anchor="start" x="-106.5" y="375.2" font-family="Times,serif" font-size="14.00">_layout</text>
<text text-anchor="start" x="-106.5" y="390.2" font-family="Times,serif" font-size="14.00">get_category</text>
<text text-anchor="start" x="-106.5" y="405.2" font-family="Times,serif" font-size="14.00">sub_category_params</text>
</g>
<!-- RegistrationsController -->
<g id="node22" class="node"><title>RegistrationsController</title>
<path fill="none" stroke="black" d="M518,183.5C518,183.5 686,183.5 686,183.5 692,183.5 698,177.5 698,171.5 698,171.5 698,72.5 698,72.5 698,66.5 692,60.5 686,60.5 686,60.5 518,60.5 518,60.5 512,60.5 506,66.5 506,72.5 506,72.5 506,171.5 506,171.5 506,177.5 512,183.5 518,183.5"/>
<text text-anchor="middle" x="602" y="75.7" font-family="Times,serif" font-size="14.00">RegistrationsController</text>
<polyline fill="none" stroke="black" points="506,83.5 698,83.5 "/>
<polyline fill="none" stroke="black" points="506,107.5 698,107.5 "/>
<text text-anchor="start" x="514" y="122.7" font-family="Times,serif" font-size="14.00">account_update_params</text>
<text text-anchor="start" x="514" y="137.7" font-family="Times,serif" font-size="14.00">sign_up_params</text>
<text text-anchor="start" x="514" y="152.7" font-family="Times,serif" font-size="14.00">update_resource</text>
<polyline fill="none" stroke="black" points="506,160.5 698,160.5 "/>
<text text-anchor="start" x="514" y="175.7" font-family="Times,serif" font-size="14.00">_layout</text>
</g>
<!-- BlogsController -->
<g id="node23" class="node"><title>BlogsController</title>
<path fill="none" stroke="black" d="M633,620.5C633,620.5 737,620.5 737,620.5 743,620.5 749,614.5 749,608.5 749,608.5 749,419.5 749,419.5 749,413.5 743,407.5 737,407.5 737,407.5 633,407.5 633,407.5 627,407.5 621,413.5 621,419.5 621,419.5 621,608.5 621,608.5 621,614.5 627,620.5 633,620.5"/>
<text text-anchor="middle" x="685" y="422.7" font-family="Times,serif" font-size="14.00">BlogsController</text>
<polyline fill="none" stroke="black" points="621,430.5 749,430.5 "/>
<text text-anchor="start" x="629" y="445.7" font-family="Times,serif" font-size="14.00">create</text>
<text text-anchor="start" x="629" y="460.7" font-family="Times,serif" font-size="14.00">destroy</text>
<text text-anchor="start" x="629" y="475.7" font-family="Times,serif" font-size="14.00">edit</text>
<text text-anchor="start" x="629" y="490.7" font-family="Times,serif" font-size="14.00">index</text>
<text text-anchor="start" x="629" y="505.7" font-family="Times,serif" font-size="14.00">new</text>
<text text-anchor="start" x="629" y="520.7" font-family="Times,serif" font-size="14.00">show</text>
<text text-anchor="start" x="629" y="535.7" font-family="Times,serif" font-size="14.00">update</text>
<polyline fill="none" stroke="black" points="621,543.5 749,543.5 "/>
<polyline fill="none" stroke="black" points="621,567.5 749,567.5 "/>
<text text-anchor="start" x="629" y="582.7" font-family="Times,serif" font-size="14.00">_layout</text>
<text text-anchor="start" x="629" y="597.7" font-family="Times,serif" font-size="14.00">blog_params</text>
<text text-anchor="start" x="629" y="612.7" font-family="Times,serif" font-size="14.00">set_blog</text>
</g>
<!-- TutorialsController -->
<g id="node24" class="node"><title>TutorialsController</title>
<path fill="none" stroke="black" d="M-586,505.5C-586,505.5 -454,505.5 -454,505.5 -448,505.5 -442,499.5 -442,493.5 -442,493.5 -442,304.5 -442,304.5 -442,298.5 -448,292.5 -454,292.5 -454,292.5 -586,292.5 -586,292.5 -592,292.5 -598,298.5 -598,304.5 -598,304.5 -598,493.5 -598,493.5 -598,499.5 -592,505.5 -586,505.5"/>
<text text-anchor="middle" x="-520" y="307.7" font-family="Times,serif" font-size="14.00">TutorialsController</text>
<polyline fill="none" stroke="black" points="-598,315.5 -442,315.5 "/>
<text text-anchor="start" x="-590" y="330.7" font-family="Times,serif" font-size="14.00">create</text>
<text text-anchor="start" x="-590" y="345.7" font-family="Times,serif" font-size="14.00">destroy</text>
<text text-anchor="start" x="-590" y="360.7" font-family="Times,serif" font-size="14.00">edit</text>
<text text-anchor="start" x="-590" y="375.7" font-family="Times,serif" font-size="14.00">index</text>
<text text-anchor="start" x="-590" y="390.7" font-family="Times,serif" font-size="14.00">new</text>
<text text-anchor="start" x="-590" y="405.7" font-family="Times,serif" font-size="14.00">show</text>
<text text-anchor="start" x="-590" y="420.7" font-family="Times,serif" font-size="14.00">update</text>
<polyline fill="none" stroke="black" points="-598,428.5 -442,428.5 "/>
<polyline fill="none" stroke="black" points="-598,452.5 -442,452.5 "/>
<text text-anchor="start" x="-590" y="467.7" font-family="Times,serif" font-size="14.00">_layout</text>
<text text-anchor="start" x="-590" y="482.7" font-family="Times,serif" font-size="14.00">set_tutorial</text>
<text text-anchor="start" x="-590" y="497.7" font-family="Times,serif" font-size="14.00">tutorial_params</text>
</g>
<!-- QuestionsController -->
<g id="node25" class="node"><title>QuestionsController</title>
<path fill="none" stroke="black" d="M403,459C403,459 561,459 561,459 567,459 573,453 573,447 573,447 573,243 573,243 573,237 567,231 561,231 561,231 403,231 403,231 397,231 391,237 391,243 391,243 391,447 391,447 391,453 397,459 403,459"/>
<text text-anchor="middle" x="482" y="246.2" font-family="Times,serif" font-size="14.00">QuestionsController</text>
<polyline fill="none" stroke="black" points="391,254 573,254 "/>
<text text-anchor="start" x="399" y="269.2" font-family="Times,serif" font-size="14.00">create</text>
<text text-anchor="start" x="399" y="284.2" font-family="Times,serif" font-size="14.00">delete</text>
<text text-anchor="start" x="399" y="299.2" font-family="Times,serif" font-size="14.00">edit</text>
<text text-anchor="start" x="399" y="314.2" font-family="Times,serif" font-size="14.00">index</text>
<text text-anchor="start" x="399" y="329.2" font-family="Times,serif" font-size="14.00">new</text>
<text text-anchor="start" x="399" y="344.2" font-family="Times,serif" font-size="14.00">show</text>
<text text-anchor="start" x="399" y="359.2" font-family="Times,serif" font-size="14.00">update</text>
<polyline fill="none" stroke="black" points="391,367 573,367 "/>
<polyline fill="none" stroke="black" points="391,391 573,391 "/>
<text text-anchor="start" x="399" y="406.2" font-family="Times,serif" font-size="14.00">_layout</text>
<text text-anchor="start" x="399" y="421.2" font-family="Times,serif" font-size="14.00">get_category_and_sub</text>
<text text-anchor="start" x="399" y="436.2" font-family="Times,serif" font-size="14.00">question_params</text>
<text text-anchor="start" x="399" y="451.2" font-family="Times,serif" font-size="14.00">show_questions_index</text>
</g>
<!-- ChoicesController -->
<g id="node26" class="node"><title>ChoicesController</title>
<path fill="none" stroke="black" d="M173.5,-162C173.5,-162 436.5,-162 436.5,-162 442.5,-162 448.5,-168 448.5,-174 448.5,-174 448.5,-408 448.5,-408 448.5,-414 442.5,-420 436.5,-420 436.5,-420 173.5,-420 173.5,-420 167.5,-420 161.5,-414 161.5,-408 161.5,-408 161.5,-174 161.5,-174 161.5,-168 167.5,-162 173.5,-162"/>
<text text-anchor="middle" x="305" y="-404.8" font-family="Times,serif" font-size="14.00">ChoicesController</text>
<polyline fill="none" stroke="black" points="161.5,-397 448.5,-397 "/>
<text text-anchor="start" x="169.5" y="-381.8" font-family="Times,serif" font-size="14.00">create</text>
<text text-anchor="start" x="169.5" y="-366.8" font-family="Times,serif" font-size="14.00">delete</text>
<text text-anchor="start" x="169.5" y="-351.8" font-family="Times,serif" font-size="14.00">edit</text>
<text text-anchor="start" x="169.5" y="-336.8" font-family="Times,serif" font-size="14.00">index</text>
<text text-anchor="start" x="169.5" y="-321.8" font-family="Times,serif" font-size="14.00">new</text>
<text text-anchor="start" x="169.5" y="-306.8" font-family="Times,serif" font-size="14.00">show</text>
<text text-anchor="start" x="169.5" y="-291.8" font-family="Times,serif" font-size="14.00">update</text>
<polyline fill="none" stroke="black" points="161.5,-284 448.5,-284 "/>
<polyline fill="none" stroke="black" points="161.5,-260 448.5,-260 "/>
<text text-anchor="start" x="169.5" y="-244.8" font-family="Times,serif" font-size="14.00">_layout</text>
<text text-anchor="start" x="169.5" y="-229.8" font-family="Times,serif" font-size="14.00">choice_params</text>
<text text-anchor="start" x="169.5" y="-214.8" font-family="Times,serif" font-size="14.00">get_category_and_sub_and_question</text>
<text text-anchor="start" x="169.5" y="-199.8" font-family="Times,serif" font-size="14.00">show_choices_index</text>
<text text-anchor="start" x="169.5" y="-184.8" font-family="Times,serif" font-size="14.00">update_choice</text>
<text text-anchor="start" x="169.5" y="-169.8" font-family="Times,serif" font-size="14.00">update_if_correct_choice</text>
</g>
<!-- SectionsController -->
<g id="node27" class="node"><title>SectionsController</title>
<path fill="none" stroke="black" d="M-562.5,-575.5C-562.5,-575.5 -435.5,-575.5 -435.5,-575.5 -429.5,-575.5 -423.5,-581.5 -423.5,-587.5 -423.5,-587.5 -423.5,-776.5 -423.5,-776.5 -423.5,-782.5 -429.5,-788.5 -435.5,-788.5 -435.5,-788.5 -562.5,-788.5 -562.5,-788.5 -568.5,-788.5 -574.5,-782.5 -574.5,-776.5 -574.5,-776.5 -574.5,-587.5 -574.5,-587.5 -574.5,-581.5 -568.5,-575.5 -562.5,-575.5"/>
<text text-anchor="middle" x="-499" y="-773.3" font-family="Times,serif" font-size="14.00">SectionsController</text>
<polyline fill="none" stroke="black" points="-574.5,-765.5 -423.5,-765.5 "/>
<text text-anchor="start" x="-566.5" y="-750.3" font-family="Times,serif" font-size="14.00">create</text>
<text text-anchor="start" x="-566.5" y="-735.3" font-family="Times,serif" font-size="14.00">destroy</text>
<text text-anchor="start" x="-566.5" y="-720.3" font-family="Times,serif" font-size="14.00">edit</text>
<text text-anchor="start" x="-566.5" y="-705.3" font-family="Times,serif" font-size="14.00">index</text>
<text text-anchor="start" x="-566.5" y="-690.3" font-family="Times,serif" font-size="14.00">new</text>
<text text-anchor="start" x="-566.5" y="-675.3" font-family="Times,serif" font-size="14.00">show</text>
<text text-anchor="start" x="-566.5" y="-660.3" font-family="Times,serif" font-size="14.00">update</text>
<polyline fill="none" stroke="black" points="-574.5,-652.5 -423.5,-652.5 "/>
<polyline fill="none" stroke="black" points="-574.5,-628.5 -423.5,-628.5 "/>
<text text-anchor="start" x="-566.5" y="-613.3" font-family="Times,serif" font-size="14.00">_layout</text>
<text text-anchor="start" x="-566.5" y="-598.3" font-family="Times,serif" font-size="14.00">section_params</text>
<text text-anchor="start" x="-566.5" y="-583.3" font-family="Times,serif" font-size="14.00">set_section</text>
</g>
</g>
</svg>
