<?xml version="1.0" encoding="UTF-8" standalone="no"?>
<!DOCTYPE svg PUBLIC "-//W3C//DTD SVG 1.1//EN"
 "http://www.w3.org/Graphics/SVG/1.1/DTD/svg11.dtd">
<!-- Generated by graphviz version 2.38.0 (20140413.2041)
 -->
<!-- Title: models_diagram Pages: 1 -->
<svg width="1649pt" height="590pt"
 viewBox="0.00 0.00 1648.64 590.00" xmlns="http://www.w3.org/2000/svg" xmlns:xlink="http://www.w3.org/1999/xlink">
<g id="graph0" class="graph" transform="scale(1 1) rotate(0) translate(4 586)">
<title>models_diagram</title>
<polygon fill="none" stroke="none" points="-4,4 -4,-586 1644.64,-586 1644.64,4 -4,4"/>
<!-- _diagram_info -->
<g id="node1" class="node"><title>_diagram_info</title>
<text text-anchor="start" x="193" y="-567.6" font-family="Times,serif" font-size="13.00">Models diagram</text>
<text text-anchor="start" x="193" y="-553.6" font-family="Times,serif" font-size="13.00">Date: Jun 07 2016 &#45; 13:02</text>
<text text-anchor="start" x="193" y="-539.6" font-family="Times,serif" font-size="13.00">Migration version: 20160607164343</text>
<text text-anchor="start" x="193" y="-525.6" font-family="Times,serif" font-size="13.00">Generated by RailRoady 1.4.2</text>
<text text-anchor="start" x="193" y="-511.6" font-family="Times,serif" font-size="13.00">http://railroady.prestonlee.com</text>
</g>
<!-- Course -->
<g id="node2" class="node"><title>Course</title>
<ellipse fill="none" stroke="black" cx="479" cy="-543" rx="42.4939" ry="18"/>
<text text-anchor="middle" x="479" y="-539.3" font-family="Times,serif" font-size="14.00">Course</text>
</g>
<!-- Category -->
<g id="node6" class="node"><title>Category</title>
<ellipse fill="none" stroke="black" cx="167" cy="-378" rx="53.8905" ry="18"/>
<text text-anchor="middle" x="167" y="-374.3" font-family="Times,serif" font-size="14.00">Category</text>
</g>
<!-- Course&#45;&gt;Category -->
<g id="edge1" class="edge"><title>Course&#45;&gt;Category</title>
<path fill="none" stroke="#5c5434" d="M454.599,-521.269C446.504,-515.105 437.202,-508.74 428,-504 381.519,-480.056 363.641,-489.545 316,-468 273.206,-448.646 227.284,-419.865 197.91,-400.312"/>
<ellipse fill="none" stroke="#5c5434" cx="457.939" cy="-523.889" rx="4.00002" ry="4.00002"/>
<polygon fill="#5c5434" stroke="#5c5434" points="197.648,-400.136 191.856,-390.825 193.497,-397.348 189.347,-394.561 189.347,-394.561 189.347,-394.561 193.497,-397.348 186.838,-398.296 197.648,-400.136 197.648,-400.136"/>
</g>
<!-- User -->
<g id="node9" class="node"><title>User</title>
<ellipse fill="none" stroke="black" cx="357" cy="-450" rx="32.4942" ry="18"/>
<text text-anchor="middle" x="357" y="-446.3" font-family="Times,serif" font-size="14.00">User</text>
</g>
<!-- Course&#45;&gt;User -->
<g id="edge4" class="edge"><title>Course&#45;&gt;User</title>
<path fill="none" stroke="#347c1e" d="M450.777,-520.948C430.541,-505.854 403.459,-485.654 383.602,-470.842"/>
<polygon fill="#347c1e" stroke="#347c1e" points="450.838,-520.994 456.164,-530.58 454.846,-523.984 458.854,-526.973 458.854,-526.973 458.854,-526.973 454.846,-523.984 461.545,-523.366 450.838,-520.994 450.838,-520.994"/>
<polygon fill="#347c1e" stroke="#347c1e" points="383.591,-470.834 378.265,-461.248 379.583,-467.844 375.575,-464.855 375.575,-464.855 375.575,-464.855 379.583,-467.844 372.884,-468.462 383.591,-470.834 383.591,-470.834"/>
</g>
<!-- CourseUser -->
<g id="node25" class="node"><title>CourseUser</title>
<ellipse fill="none" stroke="black" cx="783" cy="-378" rx="63.8893" ry="18"/>
<text text-anchor="middle" x="783" y="-374.3" font-family="Times,serif" font-size="14.00">CourseUser</text>
</g>
<!-- Course&#45;&gt;CourseUser -->
<g id="edge3" class="edge"><title>Course&#45;&gt;CourseUser</title>
<path fill="none" stroke="#aa9e62" d="M511.42,-524.617C568.093,-494.23 684.87,-431.616 745.151,-399.294"/>
<ellipse fill="none" stroke="#aa9e62" cx="507.661" cy="-526.632" rx="4.00002" ry="4.00002"/>
<polygon fill="#aa9e62" stroke="#aa9e62" points="745.509,-399.102 756.449,-398.342 749.916,-396.739 754.322,-394.376 754.322,-394.376 754.322,-394.376 749.916,-396.739 752.196,-390.411 745.509,-399.102 745.509,-399.102"/>
</g>
<!-- Section -->
<g id="node26" class="node"><title>Section</title>
<ellipse fill="none" stroke="black" cx="1265" cy="-450" rx="45.4919" ry="18"/>
<text text-anchor="middle" x="1265" y="-446.3" font-family="Times,serif" font-size="14.00">Section</text>
</g>
<!-- Course&#45;&gt;Section -->
<g id="edge2" class="edge"><title>Course&#45;&gt;Section</title>
<path fill="none" stroke="#f3aff5" d="M527.958,-537.186C689.178,-521.315 1194.19,-471.459 1211,-468 1214.68,-467.243 1218.47,-466.332 1222.25,-465.331"/>
<ellipse fill="none" stroke="#f3aff5" cx="523.619" cy="-537.613" rx="4" ry="4"/>
<polygon fill="#f3aff5" stroke="#f3aff5" points="1222.54,-465.249 1233.39,-466.841 1227.35,-463.881 1232.15,-462.513 1232.15,-462.513 1232.15,-462.513 1227.35,-463.881 1230.92,-458.184 1222.54,-465.249 1222.54,-465.249"/>
</g>
<!-- License -->
<g id="node3" class="node"><title>License</title>
<ellipse fill="none" stroke="black" cx="284" cy="-378" rx="45.4919" ry="18"/>
<text text-anchor="middle" x="284" y="-374.3" font-family="Times,serif" font-size="14.00">License</text>
</g>
<!-- Tutorial -->
<g id="node4" class="node"><title>Tutorial</title>
<ellipse fill="none" stroke="black" cx="1153" cy="-450" rx="48.9926" ry="18"/>
<text text-anchor="middle" x="1153" y="-446.3" font-family="Times,serif" font-size="14.00">Tutorial</text>
</g>
<!-- Resource -->
<g id="node29" class="node"><title>Resource</title>
<ellipse fill="none" stroke="black" cx="1056" cy="-378" rx="53.0913" ry="18"/>
<text text-anchor="middle" x="1056" y="-374.3" font-family="Times,serif" font-size="14.00">Resource</text>
</g>
<!-- Tutorial&#45;&gt;Resource -->
<g id="edge5" class="edge"><title>Tutorial&#45;&gt;Resource</title>
<path fill="none" stroke="#1e0b42" d="M1124.79,-428.641C1112.52,-419.789 1098.14,-409.413 1085.71,-400.442"/>
<ellipse fill="none" stroke="#1e0b42" cx="1128.23" cy="-431.124" rx="4.00002" ry="4.00002"/>
<polygon fill="#1e0b42" stroke="#1e0b42" points="1085.58,-400.344 1080.1,-390.843 1081.52,-397.418 1077.47,-394.492 1077.47,-394.492 1077.47,-394.492 1081.52,-397.418 1074.83,-398.141 1085.58,-400.344 1085.58,-400.344"/>
</g>
<!-- TestCourseUser -->
<g id="node5" class="node"><title>TestCourseUser</title>
<ellipse fill="none" stroke="black" cx="777" cy="-306" rx="85.2851" ry="18"/>
<text text-anchor="middle" x="777" y="-302.3" font-family="Times,serif" font-size="14.00">TestCourseUser</text>
</g>
<!-- SubCategory -->
<g id="node7" class="node"><title>SubCategory</title>
<ellipse fill="none" stroke="black" cx="357" cy="-306" rx="70.6878" ry="18"/>
<text text-anchor="middle" x="357" y="-302.3" font-family="Times,serif" font-size="14.00">SubCategory</text>
</g>
<!-- Category&#45;&gt;SubCategory -->
<g id="edge6" class="edge"><title>Category&#45;&gt;SubCategory</title>
<path fill="none" stroke="#583c5a" d="M209.455,-361.359C238.912,-350.506 278.204,-336.03 308.834,-324.745"/>
<ellipse fill="none" stroke="#583c5a" cx="205.602" cy="-362.778" rx="4.00001" ry="4.00001"/>
<polygon fill="#583c5a" stroke="#583c5a" points="309.067,-324.66 320.006,-325.425 313.759,-322.931 318.451,-321.202 318.451,-321.202 318.451,-321.202 313.759,-322.931 316.895,-316.98 309.067,-324.66 309.067,-324.66"/>
</g>
<!-- Question -->
<g id="node11" class="node"><title>Question</title>
<ellipse fill="none" stroke="black" cx="472" cy="-234" rx="51.9908" ry="18"/>
<text text-anchor="middle" x="472" y="-230.3" font-family="Times,serif" font-size="14.00">Question</text>
</g>
<!-- Category&#45;&gt;Question -->
<g id="edge7" class="edge"><title>Category&#45;&gt;Question</title>
<path fill="none" stroke="#b3cec4" d="M216.455,-363.198C221.021,-362.062 225.588,-360.977 230,-360 321.173,-339.815 364.634,-383.018 437,-324 455.627,-308.809 464.379,-282.338 468.469,-262.203"/>
<polygon fill="#b3cec4" stroke="#b3cec4" points="216.207,-363.261 205.403,-361.385 211.363,-364.503 206.52,-365.744 206.52,-365.744 206.52,-365.744 211.363,-364.503 207.637,-370.103 216.207,-363.261 216.207,-363.261"/>
<polygon fill="#b3cec4" stroke="#b3cec4" points="468.471,-262.192 474.641,-253.127 469.34,-257.268 470.21,-252.344 470.21,-252.344 470.21,-252.344 469.34,-257.268 465.778,-251.561 468.471,-262.192 468.471,-262.192"/>
</g>
<!-- SimulatedCategory -->
<g id="node20" class="node"><title>SimulatedCategory</title>
<ellipse fill="none" stroke="black" cx="167" cy="-306" rx="100.983" ry="18"/>
<text text-anchor="middle" x="167" y="-302.3" font-family="Times,serif" font-size="14.00">SimulatedCategory</text>
</g>
<!-- Category&#45;&gt;SimulatedCategory -->
<g id="edge8" class="edge"><title>Category&#45;&gt;SimulatedCategory</title>
<path fill="none" stroke="#8277b3" d="M167,-351.64C167,-346.063 167,-340.132 167,-334.476"/>
<ellipse fill="none" stroke="#8277b3" cx="167" cy="-355.697" rx="4" ry="4"/>
<polygon fill="#8277b3" stroke="#8277b3" points="167,-334.104 171.5,-324.104 167,-329.104 167,-324.104 167,-324.104 167,-324.104 167,-329.104 162.5,-324.104 167,-334.104 167,-334.104"/>
</g>
<!-- Choice -->
<g id="node8" class="node"><title>Choice</title>
<ellipse fill="none" stroke="black" cx="356" cy="-90" rx="40.0939" ry="18"/>
<text text-anchor="middle" x="356" y="-86.3" font-family="Times,serif" font-size="14.00">Choice</text>
</g>
<!-- SubCategory&#45;&gt;Choice -->
<g id="edge10" class="edge"><title>SubCategory&#45;&gt;Choice</title>
<path fill="none" stroke="#697ed0" d="M313.545,-285.794C255.035,-257.195 162.65,-200.68 203,-144 226.148,-111.484 270.683,-98.7335 305.761,-93.8254"/>
<polygon fill="#697ed0" stroke="#697ed0" points="313.6,-285.82 320.675,-294.199 318.109,-287.98 322.619,-290.14 322.619,-290.14 322.619,-290.14 318.109,-287.98 324.562,-286.081 313.6,-285.82 313.6,-285.82"/>
<polygon fill="#697ed0" stroke="#697ed0" points="305.918,-93.8063 316.391,-97.0562 310.88,-93.198 315.843,-92.5897 315.843,-92.5897 315.843,-92.5897 310.88,-93.198 315.296,-88.1231 305.918,-93.8063 305.918,-93.8063"/>
</g>
<!-- AnsweredQuestion -->
<g id="node10" class="node"><title>AnsweredQuestion</title>
<ellipse fill="none" stroke="black" cx="309" cy="-162" rx="97.4827" ry="18"/>
<text text-anchor="middle" x="309" y="-158.3" font-family="Times,serif" font-size="14.00">AnsweredQuestion</text>
</g>
<!-- SubCategory&#45;&gt;AnsweredQuestion -->
<g id="edge11" class="edge"><title>SubCategory&#45;&gt;AnsweredQuestion</title>
<path fill="none" stroke="#792c42" d="M347.893,-278.059C339.343,-252.765 326.623,-215.135 318.081,-189.865"/>
<polygon fill="#792c42" stroke="#792c42" points="348.008,-278.398 346.947,-289.313 349.609,-283.135 351.21,-287.871 351.21,-287.871 351.21,-287.871 349.609,-283.135 355.473,-286.43 348.008,-278.398 348.008,-278.398"/>
<polygon fill="#792c42" stroke="#792c42" points="318.013,-189.663 319.073,-178.748 316.412,-184.926 314.81,-180.189 314.81,-180.189 314.81,-180.189 316.412,-184.926 310.547,-181.63 318.013,-189.663 318.013,-189.663"/>
</g>
<!-- SubCategory&#45;&gt;Question -->
<g id="edge9" class="edge"><title>SubCategory&#45;&gt;Question</title>
<path fill="none" stroke="#92cba3" d="M390.108,-284.848C405.318,-275.589 423.323,-264.629 438.573,-255.347"/>
<ellipse fill="none" stroke="#92cba3" cx="386.512" cy="-287.036" rx="4.00002" ry="4.00002"/>
<polygon fill="#92cba3" stroke="#92cba3" points="438.649,-255.301 449.53,-253.945 442.92,-252.701 447.191,-250.101 447.191,-250.101 447.191,-250.101 442.92,-252.701 444.851,-246.258 438.649,-255.301 438.649,-255.301"/>
</g>
<!-- Answer -->
<g id="node15" class="node"><title>Answer</title>
<ellipse fill="none" stroke="black" cx="414" cy="-18" rx="46.2923" ry="18"/>
<text text-anchor="middle" x="414" y="-14.3" font-family="Times,serif" font-size="14.00">Answer</text>
</g>
<!-- Choice&#45;&gt;Answer -->
<g id="edge12" class="edge"><title>Choice&#45;&gt;Answer</title>
<path fill="none" stroke="#fe607e" d="M374.686,-66.4478C380.782,-59.0906 387.577,-50.8898 393.78,-43.4031"/>
<ellipse fill="none" stroke="#fe607e" cx="372.004" cy="-69.6846" rx="4.00002" ry="4.00002"/>
<polygon fill="#fe607e" stroke="#fe607e" points="393.838,-43.3336 403.683,-38.5045 397.028,-39.4835 400.218,-35.6334 400.218,-35.6334 400.218,-35.6334 397.028,-39.4835 396.753,-32.7623 393.838,-43.3336 393.838,-43.3336"/>
</g>
<!-- User&#45;&gt;License -->
<g id="edge20" class="edge"><title>User&#45;&gt;License</title>
<path fill="none" stroke="#e535ba" d="M335.563,-428.444C326.37,-419.628 315.63,-409.33 306.339,-400.421"/>
<ellipse fill="none" stroke="#e535ba" cx="338.631" cy="-431.386" rx="4.00002" ry="4.00002"/>
<ellipse fill="#e535ba" stroke="#e535ba" cx="303.361" cy="-397.565" rx="4.00002" ry="4.00002"/>
</g>
<!-- User&#45;&gt;Category -->
<g id="edge13" class="edge"><title>User&#45;&gt;Category</title>
<path fill="none" stroke="#8e0d08" d="M322.727,-436.373C291.614,-424.91 245.541,-407.936 211.576,-395.423"/>
<ellipse fill="none" stroke="#8e0d08" cx="326.828" cy="-437.884" rx="4.00001" ry="4.00001"/>
<polygon fill="#8e0d08" stroke="#8e0d08" points="211.281,-395.314 203.453,-387.634 206.589,-393.585 201.897,-391.857 201.897,-391.857 201.897,-391.857 206.589,-393.585 200.342,-396.079 211.281,-395.314 211.281,-395.314"/>
</g>
<!-- User&#45;&gt;SubCategory -->
<g id="edge14" class="edge"><title>User&#45;&gt;SubCategory</title>
<path fill="none" stroke="#af0af0" d="M357,-423.558C357,-398.444 357,-360.164 357,-334.393"/>
<ellipse fill="none" stroke="#af0af0" cx="357" cy="-427.871" rx="4" ry="4"/>
<polygon fill="#af0af0" stroke="#af0af0" points="357,-334.189 361.5,-324.189 357,-329.189 357,-324.189 357,-324.189 357,-324.189 357,-329.189 352.5,-324.189 357,-334.189 357,-334.189"/>
</g>
<!-- User&#45;&gt;AnsweredQuestion -->
<g id="edge16" class="edge"><title>User&#45;&gt;AnsweredQuestion</title>
<path fill="none" stroke="#557a2d" d="M316.202,-449.742C262.888,-448.774 168.713,-440.224 104,-396 72.4491,-374.439 67.8968,-360.628 57,-324 32.1049,-240.319 148.656,-197.104 231.566,-177.301"/>
<ellipse fill="none" stroke="#557a2d" cx="320.398" cy="-449.791" rx="4" ry="4"/>
<polygon fill="#557a2d" stroke="#557a2d" points="231.756,-177.257 242.514,-179.385 236.628,-176.129 241.499,-175.001 241.499,-175.001 241.499,-175.001 236.628,-176.129 240.483,-170.617 231.756,-177.257 231.756,-177.257"/>
</g>
<!-- User&#45;&gt;Answer -->
<g id="edge19" class="edge"><title>User&#45;&gt;Answer</title>
<path fill="none" stroke="#84d9b4" d="M316.971,-445.362C247.338,-438.442 107.378,-421.737 66,-396 24.1837,-369.991 0,-356.245 0,-307 0,-307 0,-307 0,-161 0,-85.565 249.039,-41.7245 360.811,-25.847"/>
<ellipse fill="none" stroke="#84d9b4" cx="321.122" cy="-445.768" rx="4" ry="4"/>
<polygon fill="#84d9b4" stroke="#84d9b4" points="360.963,-25.8259 371.489,-28.8983 365.914,-25.1337 370.866,-24.4416 370.866,-24.4416 370.866,-24.4416 365.914,-25.1337 370.243,-19.9849 360.963,-25.8259 360.963,-25.8259"/>
</g>
<!-- SimulatorAnsweredQuestion -->
<g id="node21" class="node"><title>SimulatorAnsweredQuestion</title>
<ellipse fill="none" stroke="black" cx="644" cy="-162" rx="143.775" ry="18"/>
<text text-anchor="middle" x="644" y="-158.3" font-family="Times,serif" font-size="14.00">SimulatorAnsweredQuestion</text>
</g>
<!-- User&#45;&gt;SimulatorAnsweredQuestion -->
<g id="edge17" class="edge"><title>User&#45;&gt;SimulatorAnsweredQuestion</title>
<path fill="none" stroke="#301990" d="M397.733,-448.397C474.792,-446.301 637.317,-437.006 672,-396 697.892,-365.388 667.422,-244.126 651.949,-189.694"/>
<ellipse fill="none" stroke="#301990" cx="393.659" cy="-448.499" rx="4" ry="4"/>
<polygon fill="#301990" stroke="#301990" points="651.937,-189.652 653.487,-178.796 650.551,-184.848 649.164,-180.044 649.164,-180.044 649.164,-180.044 650.551,-184.848 644.84,-181.292 651.937,-189.652 651.937,-189.652"/>
</g>
<!-- Simulator -->
<g id="node22" class="node"><title>Simulator</title>
<ellipse fill="none" stroke="black" cx="541" cy="-306" rx="56.59" ry="18"/>
<text text-anchor="middle" x="541" y="-302.3" font-family="Times,serif" font-size="14.00">Simulator</text>
</g>
<!-- User&#45;&gt;Simulator -->
<g id="edge15" class="edge"><title>User&#45;&gt;Simulator</title>
<path fill="none" stroke="#20dc0d" d="M367.367,-424.991C376.956,-405.237 392.907,-377.703 414,-360 435.487,-341.966 463.979,-329.325 488.531,-320.925"/>
<ellipse fill="none" stroke="#20dc0d" cx="365.586" cy="-428.785" rx="4.00002" ry="4.00002"/>
<polygon fill="#20dc0d" stroke="#20dc0d" points="488.571,-320.912 499.475,-322.077 493.323,-319.356 498.075,-317.801 498.075,-317.801 498.075,-317.801 493.323,-319.356 496.675,-313.524 488.571,-320.912 488.571,-320.912"/>
</g>
<!-- User&#45;&gt;CourseUser -->
<g id="edge18" class="edge"><title>User&#45;&gt;CourseUser</title>
<path fill="none" stroke="#5cc765" d="M396.607,-443.802C461.331,-435.12 593.714,-416.58 705,-396 711.501,-394.798 718.288,-393.453 725.028,-392.061"/>
<ellipse fill="none" stroke="#5cc765" cx="392.271" cy="-444.381" rx="4.00001" ry="4.00001"/>
<polygon fill="#5cc765" stroke="#5cc765" points="725.045,-392.058 735.757,-394.403 729.938,-391.028 734.831,-389.999 734.831,-389.999 734.831,-389.999 729.938,-391.028 733.904,-385.595 725.045,-392.058 725.045,-392.058"/>
</g>
<!-- AnsweredQuestion&#45;&gt;Choice -->
<g id="edge21" class="edge"><title>AnsweredQuestion&#45;&gt;Choice</title>
<path fill="none" stroke="#21ae2e" d="M326.071,-135.575C330.244,-129.359 334.711,-122.707 338.886,-116.489"/>
<polygon fill="#21ae2e" stroke="#21ae2e" points="325.952,-135.753 316.641,-141.546 323.165,-139.904 320.377,-144.055 320.377,-144.055 320.377,-144.055 323.165,-139.904 324.113,-146.563 325.952,-135.753 325.952,-135.753"/>
<polygon fill="#21ae2e" stroke="#21ae2e" points="339.153,-116.091 348.463,-110.297 341.94,-111.94 344.727,-107.789 344.727,-107.789 344.727,-107.789 341.94,-111.94 340.991,-105.281 339.153,-116.091 339.153,-116.091"/>
</g>
<!-- Question&#45;&gt;Choice -->
<g id="edge23" class="edge"><title>Question&#45;&gt;Choice</title>
<path fill="none" stroke="#297011" d="M459.006,-209.004C448.372,-190.372 432.305,-164.368 415,-144 405.48,-132.795 393.637,-121.717 383.065,-112.609"/>
<ellipse fill="none" stroke="#297011" cx="460.983" cy="-212.517" rx="4.00002" ry="4.00002"/>
<polygon fill="#297011" stroke="#297011" points="382.936,-112.5 378.187,-102.616 379.112,-109.279 375.288,-106.058 375.288,-106.058 375.288,-106.058 379.112,-109.279 372.389,-109.5 382.936,-112.5 382.936,-112.5"/>
</g>
<!-- Question&#45;&gt;AnsweredQuestion -->
<g id="edge24" class="edge"><title>Question&#45;&gt;AnsweredQuestion</title>
<path fill="none" stroke="#b4f8b9" d="M432.99,-216.247C409.616,-206.209 379.769,-193.391 355.216,-182.847"/>
<ellipse fill="none" stroke="#b4f8b9" cx="436.897" cy="-217.925" rx="4.00002" ry="4.00002"/>
<polygon fill="#b4f8b9" stroke="#b4f8b9" points="354.934,-182.726 347.521,-174.645 350.34,-180.753 345.745,-178.78 345.745,-178.78 345.745,-178.78 350.34,-180.753 343.97,-182.915 354.934,-182.726 354.934,-182.726"/>
</g>
<!-- Question&#45;&gt;Question -->
<g id="edge26" class="edge"><title>Question&#45;&gt;Question</title>
<path fill="none" stroke="#573ff5" d="M516.237,-247.498C530.59,-247.398 541.995,-242.899 541.995,-234 541.995,-225.513 531.622,-221.028 518.211,-220.544"/>
<ellipse fill="none" stroke="#573ff5" cx="512.009" cy="-247.294" rx="4" ry="4"/>
<polygon fill="#573ff5" stroke="#573ff5" points="518.008,-220.551 507.857,-216.402 513.011,-220.725 508.014,-220.899 508.014,-220.899 508.014,-220.899 513.011,-220.725 508.171,-225.396 518.008,-220.551 518.008,-220.551"/>
</g>
<!-- Question&#45;&gt;Answer -->
<g id="edge22" class="edge"><title>Question&#45;&gt;Answer</title>
<path fill="none" stroke="#b2b9c1" d="M465.204,-207.924C454.183,-167.262 432.513,-87.3052 421.224,-45.6526"/>
<ellipse fill="none" stroke="#b2b9c1" cx="466.305" cy="-211.989" rx="4.00001" ry="4.00001"/>
<polygon fill="#b2b9c1" stroke="#b2b9c1" points="421.206,-45.5872 422.933,-34.7582 419.898,-40.7613 418.59,-35.9354 418.59,-35.9354 418.59,-35.9354 419.898,-40.7613 414.247,-37.1126 421.206,-45.5872 421.206,-45.5872"/>
</g>
<!-- Question&#45;&gt;SimulatorAnsweredQuestion -->
<g id="edge25" class="edge"><title>Question&#45;&gt;SimulatorAnsweredQuestion</title>
<path fill="none" stroke="#d648ba" d="M511.897,-216.763C536.525,-206.74 568.314,-193.803 594.536,-183.131"/>
<ellipse fill="none" stroke="#d648ba" cx="508.057" cy="-218.326" rx="4.00001" ry="4.00001"/>
<polygon fill="#d648ba" stroke="#d648ba" points="594.659,-183.081 605.618,-183.479 599.29,-181.196 603.921,-179.311 603.921,-179.311 603.921,-179.311 599.29,-181.196 602.225,-175.143 594.659,-183.081 594.659,-183.081"/>
</g>
<!-- LiveClass -->
<g id="node12" class="node"><title>LiveClass</title>
<ellipse fill="none" stroke="black" cx="926" cy="-543" rx="53.8905" ry="18"/>
<text text-anchor="middle" x="926" y="-539.3" font-family="Times,serif" font-size="14.00">LiveClass</text>
</g>
<!-- Career -->
<g id="node13" class="node"><title>Career</title>
<ellipse fill="none" stroke="black" cx="1371" cy="-450" rx="42.4939" ry="18"/>
<text text-anchor="middle" x="1371" y="-446.3" font-family="Times,serif" font-size="14.00">Career</text>
</g>
<!-- Video -->
<g id="node14" class="node"><title>Video</title>
<ellipse fill="none" stroke="black" cx="971" cy="-450" rx="36.2938" ry="18"/>
<text text-anchor="middle" x="971" y="-446.3" font-family="Times,serif" font-size="14.00">Video</text>
</g>
<!-- Video&#45;&gt;Resource -->
<g id="edge27" class="edge"><title>Video&#45;&gt;Resource</title>
<path fill="none" stroke="#20a1fc" d="M995.239,-429.039C1006.26,-419.96 1019.31,-409.214 1030.49,-400.012"/>
<ellipse fill="none" stroke="#20a1fc" cx="992.114" cy="-431.612" rx="4.00002" ry="4.00002"/>
<ellipse fill="#20a1fc" stroke="#20a1fc" cx="1033.73" cy="-397.339" rx="4.00002" ry="4.00002"/>
</g>
<!-- Point -->
<g id="node16" class="node"><title>Point</title>
<ellipse fill="none" stroke="black" cx="1575" cy="-450" rx="35.194" ry="18"/>
<text text-anchor="middle" x="1575" y="-446.3" font-family="Times,serif" font-size="14.00">Point</text>
</g>
<!-- Test -->
<g id="node17" class="node"><title>Test</title>
<ellipse fill="none" stroke="black" cx="631" cy="-378" rx="31.6951" ry="18"/>
<text text-anchor="middle" x="631" y="-374.3" font-family="Times,serif" font-size="14.00">Test</text>
</g>
<!-- Test&#45;&gt;TestCourseUser -->
<g id="edge29" class="edge"><title>Test&#45;&gt;TestCourseUser</title>
<path fill="none" stroke="#0c7762" d="M661.964,-362.154C683.238,-351.954 711.736,-338.291 735.045,-327.115"/>
<ellipse fill="none" stroke="#0c7762" cx="658.064" cy="-364.024" rx="4.00002" ry="4.00002"/>
<polygon fill="#0c7762" stroke="#0c7762" points="735.334,-326.977 746.297,-326.711 739.843,-324.815 744.351,-322.654 744.351,-322.654 744.351,-322.654 739.843,-324.815 742.406,-318.596 735.334,-326.977 735.334,-326.977"/>
</g>
<!-- Test&#45;&gt;Question -->
<g id="edge28" class="edge"><title>Test&#45;&gt;Question</title>
<path fill="none" stroke="#e0ec92" d="M630.159,-351.606C628.223,-332.035 622.619,-305.451 607,-288 586.736,-265.358 555.577,-252.285 528.298,-244.792"/>
<ellipse fill="none" stroke="#e0ec92" cx="630.486" cy="-355.794" rx="4" ry="4"/>
<polygon fill="#e0ec92" stroke="#e0ec92" points="528.139,-244.751 519.565,-237.916 523.295,-243.513 518.451,-242.276 518.451,-242.276 518.451,-242.276 523.295,-243.513 517.337,-246.636 528.139,-244.751 528.139,-244.751"/>
</g>
<!-- Blog -->
<g id="node18" class="node"><title>Blog</title>
<ellipse fill="none" stroke="black" cx="1056" cy="-450" rx="30.5947" ry="18"/>
<text text-anchor="middle" x="1056" y="-446.3" font-family="Times,serif" font-size="14.00">Blog</text>
</g>
<!-- Blog&#45;&gt;Resource -->
<g id="edge30" class="edge"><title>Blog&#45;&gt;Resource</title>
<path fill="none" stroke="#d25b48" d="M1056,-423.64C1056,-417.348 1056,-410.605 1056,-404.316"/>
<ellipse fill="none" stroke="#d25b48" cx="1056" cy="-427.697" rx="4" ry="4"/>
<ellipse fill="#d25b48" stroke="#d25b48" cx="1056" cy="-400.104" rx="4" ry="4"/>
</g>
<!-- School -->
<g id="node19" class="node"><title>School</title>
<ellipse fill="none" stroke="black" cx="1311" cy="-543" rx="40.0939" ry="18"/>
<text text-anchor="middle" x="1311" y="-539.3" font-family="Times,serif" font-size="14.00">School</text>
</g>
<!-- School&#45;&gt;Career -->
<g id="edge31" class="edge"><title>School&#45;&gt;Career</title>
<path fill="none" stroke="#349a3f" d="M1326.59,-518.357C1335.13,-505.409 1345.71,-489.363 1354.4,-476.18"/>
<ellipse fill="none" stroke="#349a3f" cx="1324.21" cy="-521.97" rx="4.00002" ry="4.00002"/>
<polygon fill="#349a3f" stroke="#349a3f" points="1354.56,-475.934 1363.82,-470.062 1357.31,-471.759 1360.06,-467.585 1360.06,-467.585 1360.06,-467.585 1357.31,-471.759 1356.31,-465.108 1354.56,-475.934 1354.56,-475.934"/>
</g>
<!-- Simulator&#45;&gt;Question -->
<g id="edge33" class="edge"><title>Simulator&#45;&gt;Question</title>
<path fill="none" stroke="#3c4cb9" d="M517.577,-281.238C510.489,-274.047 502.704,-266.149 495.604,-258.946"/>
<polygon fill="#3c4cb9" stroke="#3c4cb9" points="517.628,-281.289 521.443,-291.57 521.138,-284.85 524.648,-288.411 524.648,-288.411 524.648,-288.411 521.138,-284.85 527.853,-285.252 517.628,-281.289 517.628,-281.289"/>
<polygon fill="#3c4cb9" stroke="#3c4cb9" points="495.255,-258.592 491.439,-248.311 491.745,-255.031 488.235,-251.47 488.235,-251.47 488.235,-251.47 491.745,-255.031 485.03,-254.629 495.255,-258.592 495.255,-258.592"/>
</g>
<!-- Simulator&#45;&gt;SimulatorAnsweredQuestion -->
<g id="edge32" class="edge"><title>Simulator&#45;&gt;SimulatorAnsweredQuestion</title>
<path fill="none" stroke="#0f9cf4" d="M558.169,-281.33C576.757,-255.704 606.301,-214.974 625.421,-188.614"/>
<ellipse fill="none" stroke="#0f9cf4" cx="555.569" cy="-284.915" rx="4.00002" ry="4.00002"/>
<polygon fill="#0f9cf4" stroke="#0f9cf4" points="625.603,-188.363 635.117,-182.91 628.539,-184.315 631.475,-180.268 631.475,-180.268 631.475,-180.268 628.539,-184.315 627.832,-177.626 625.603,-188.363 625.603,-188.363"/>
</g>
<!-- PointAction -->
<g id="node23" class="node"><title>PointAction</title>
<ellipse fill="none" stroke="black" cx="1575" cy="-543" rx="65.7887" ry="18"/>
<text text-anchor="middle" x="1575" y="-539.3" font-family="Times,serif" font-size="14.00">PointAction</text>
</g>
<!-- PointAction&#45;&gt;Point -->
<g id="edge34" class="edge"><title>PointAction&#45;&gt;Point</title>
<path fill="none" stroke="#5f08dd" d="M1575,-516.729C1575,-504.725 1575,-490.362 1575,-478.129"/>
<ellipse fill="none" stroke="#5f08dd" cx="1575" cy="-520.884" rx="4" ry="4"/>
<polygon fill="#5f08dd" stroke="#5f08dd" points="1575,-478.04 1579.5,-468.04 1575,-473.04 1575,-468.04 1575,-468.04 1575,-468.04 1575,-473.04 1570.5,-468.04 1575,-478.04 1575,-478.04"/>
</g>
<!-- ResourceProgress -->
<g id="node24" class="node"><title>ResourceProgress</title>
<ellipse fill="none" stroke="black" cx="1056" cy="-306" rx="94.7833" ry="18"/>
<text text-anchor="middle" x="1056" y="-302.3" font-family="Times,serif" font-size="14.00">ResourceProgress</text>
</g>
<!-- CourseUser&#45;&gt;TestCourseUser -->
<g id="edge36" class="edge"><title>CourseUser&#45;&gt;TestCourseUser</title>
<path fill="none" stroke="#e7e17b" d="M780.826,-351.64C780.348,-346.063 779.84,-340.132 779.355,-334.476"/>
<ellipse fill="none" stroke="#e7e17b" cx="781.175" cy="-355.711" rx="4" ry="4"/>
<polygon fill="#e7e17b" stroke="#e7e17b" points="779.32,-334.068 782.95,-323.72 778.893,-329.086 778.466,-324.104 778.466,-324.104 778.466,-324.104 778.893,-329.086 773.983,-324.489 779.32,-334.068 779.32,-334.068"/>
</g>
<!-- CourseUser&#45;&gt;ResourceProgress -->
<g id="edge35" class="edge"><title>CourseUser&#45;&gt;ResourceProgress</title>
<path fill="none" stroke="#0a549e" d="M836.164,-363.368C880.828,-351.916 944.776,-335.519 992.197,-323.36"/>
<ellipse fill="none" stroke="#0a549e" cx="832.262" cy="-364.369" rx="4.00001" ry="4.00001"/>
<polygon fill="#0a549e" stroke="#0a549e" points="992.365,-323.317 1003.17,-325.192 997.209,-322.075 1002.05,-320.833 1002.05,-320.833 1002.05,-320.833 997.209,-322.075 1000.93,-316.474 992.365,-323.317 992.365,-323.317"/>
</g>
<!-- Section&#45;&gt;ResourceProgress -->
<g id="edge38" class="edge"><title>Section&#45;&gt;ResourceProgress</title>
<path fill="none" stroke="#ce0d8f" d="M1236.19,-429.427C1197.57,-403.185 1129.18,-356.722 1088.68,-329.203"/>
<ellipse fill="none" stroke="#ce0d8f" cx="1239.72" cy="-431.824" rx="4.00002" ry="4.00002"/>
<polygon fill="#ce0d8f" stroke="#ce0d8f" points="1088.51,-329.087 1082.77,-319.745 1084.37,-326.277 1080.24,-323.467 1080.24,-323.467 1080.24,-323.467 1084.37,-326.277 1077.71,-327.189 1088.51,-329.087 1088.51,-329.087"/>
</g>
<!-- Section&#45;&gt;Resource -->
<g id="edge37" class="edge"><title>Section&#45;&gt;Resource</title>
<path fill="none" stroke="#7f7e20" d="M1223.56,-435.12C1188.66,-423.43 1138.76,-406.719 1102.5,-394.575"/>
<ellipse fill="none" stroke="#7f7e20" cx="1227.63" cy="-436.483" rx="4.00001" ry="4.00001"/>
<polygon fill="#7f7e20" stroke="#7f7e20" points="1102.14,-394.455 1094.09,-387.012 1097.4,-392.867 1092.66,-391.279 1092.66,-391.279 1092.66,-391.279 1097.4,-392.867 1091.23,-395.546 1102.14,-394.455 1102.14,-394.455"/>
</g>
<!-- SimulatorType -->
<g id="node27" class="node"><title>SimulatorType</title>
<ellipse fill="none" stroke="black" cx="502" cy="-378" rx="79.0865" ry="18"/>
<text text-anchor="middle" x="502" y="-374.3" font-family="Times,serif" font-size="14.00">SimulatorType</text>
</g>
<!-- SimulatorType&#45;&gt;Simulator -->
<g id="edge39" class="edge"><title>SimulatorType&#45;&gt;Simulator</title>
<path fill="none" stroke="#ab8333" d="M515.373,-352.998C518.972,-346.537 522.881,-339.521 526.537,-332.959"/>
<ellipse fill="none" stroke="#ab8333" cx="513.388" cy="-356.561" rx="4.00002" ry="4.00002"/>
<polygon fill="#ab8333" stroke="#ab8333" points="526.779,-332.525 535.577,-325.979 529.213,-328.157 531.646,-323.789 531.646,-323.789 531.646,-323.789 529.213,-328.157 527.715,-321.599 526.779,-332.525 526.779,-332.525"/>
</g>
<!-- University -->
<g id="node28" class="node"><title>University</title>
<ellipse fill="none" stroke="black" cx="1430" cy="-543" rx="61.1893" ry="18"/>
<text text-anchor="middle" x="1430" y="-539.3" font-family="Times,serif" font-size="14.00">University</text>
</g>
<!-- University&#45;&gt;Career -->
<g id="edge40" class="edge"><title>University&#45;&gt;Career</title>
<path fill="none" stroke="#513280" d="M1414.39,-517.921C1405.99,-504.974 1395.66,-489.029 1387.18,-475.951"/>
<ellipse fill="none" stroke="#513280" cx="1416.73" cy="-521.527" rx="4.00002" ry="4.00002"/>
<polygon fill="#513280" stroke="#513280" points="1387.09,-475.817 1385.43,-464.979 1384.37,-471.622 1381.65,-467.427 1381.65,-467.427 1381.65,-467.427 1384.37,-471.622 1377.87,-469.875 1387.09,-475.817 1387.09,-475.817"/>
</g>
<!-- Resource&#45;&gt;ResourceProgress -->
<g id="edge41" class="edge"><title>Resource&#45;&gt;ResourceProgress</title>
<path fill="none" stroke="#204c50" d="M1056,-351.64C1056,-346.063 1056,-340.132 1056,-334.476"/>
<ellipse fill="none" stroke="#204c50" cx="1056" cy="-355.697" rx="4" ry="4"/>
<polygon fill="#204c50" stroke="#204c50" points="1056,-334.104 1060.5,-324.104 1056,-329.104 1056,-324.104 1056,-324.104 1056,-324.104 1056,-329.104 1051.5,-324.104 1056,-334.104 1056,-334.104"/>
</g>
<!-- Task -->
<g id="node30" class="node"><title>Task</title>
<ellipse fill="none" stroke="black" cx="884" cy="-450" rx="32.4942" ry="18"/>
<text text-anchor="middle" x="884" y="-446.3" font-family="Times,serif" font-size="14.00">Task</text>
</g>
<!-- Task&#45;&gt;Question -->
<g id="edge44" class="edge"><title>Task&#45;&gt;Question</title>
<path fill="none" stroke="#5c6a91" d="M890.485,-424.299C898.101,-389.04 905.685,-324.518 871,-288 826.102,-240.729 634.682,-234.211 534.185,-234.151"/>
<ellipse fill="none" stroke="#5c6a91" cx="889.569" cy="-428.286" rx="4.00001" ry="4.00001"/>
<polygon fill="#5c6a91" stroke="#5c6a91" points="534.162,-234.151 524.155,-229.666 529.162,-234.158 524.162,-234.166 524.162,-234.166 524.162,-234.166 529.162,-234.158 524.169,-238.666 534.162,-234.151 534.162,-234.151"/>
</g>
<!-- Task&#45;&gt;Answer -->
<g id="edge43" class="edge"><title>Task&#45;&gt;Answer</title>
<path fill="none" stroke="#29012b" d="M897.694,-425.651C902.498,-416.633 907.55,-406.075 911,-396 924.048,-357.902 928,-347.271 928,-307 928,-307 928,-307 928,-161 928,-66.6933 602.46,-32.5557 469.529,-22.5472"/>
<ellipse fill="none" stroke="#29012b" cx="895.684" cy="-429.312" rx="4.00002" ry="4.00002"/>
<polygon fill="#29012b" stroke="#29012b" points="469.137,-22.5185 459.493,-17.2985 464.15,-22.1525 459.164,-21.7865 459.164,-21.7865 459.164,-21.7865 464.15,-22.1525 458.834,-26.2744 469.137,-22.5185 469.137,-22.5185"/>
</g>
<!-- Task&#45;&gt;Resource -->
<g id="edge42" class="edge"><title>Task&#45;&gt;Resource</title>
<path fill="none" stroke="#61822d" d="M916.807,-435.648C944.955,-424.193 985.622,-407.642 1015.74,-395.386"/>
<ellipse fill="none" stroke="#61822d" cx="913.084" cy="-437.163" rx="4.00002" ry="4.00002"/>
<ellipse fill="#61822d" stroke="#61822d" cx="1019.45" cy="-393.877" rx="4.00002" ry="4.00002"/>
</g>
</g>
</svg>
