<?xml version="1.0" encoding="UTF-8" standalone="no"?>
<!DOCTYPE svg PUBLIC "-//W3C//DTD SVG 1.1//EN"
 "http://www.w3.org/Graphics/SVG/1.1/DTD/svg11.dtd">
<!-- Generated by graphviz version 2.38.0 (20140413.2041)
 -->
<!-- Title: models_diagram Pages: 1 -->
<svg width="1739pt" height="518pt"
 viewBox="0.00 0.00 1739.43 518.00" xmlns="http://www.w3.org/2000/svg" xmlns:xlink="http://www.w3.org/1999/xlink">
<g id="graph0" class="graph" transform="scale(1 1) rotate(0) translate(4 514)">
<title>models_diagram</title>
<polygon fill="none" stroke="none" points="-4,4 -4,-514 1735.43,-514 1735.43,4 -4,4"/>
<!-- _diagram_info -->
<g id="node1" class="node"><title>_diagram_info</title>
<text text-anchor="start" x="166.037" y="-495.6" font-family="Times,serif" font-size="13.00">Models diagram</text>
<text text-anchor="start" x="166.037" y="-481.6" font-family="Times,serif" font-size="13.00">Date: Jan 03 2017 &#45; 11:27</text>
<text text-anchor="start" x="166.037" y="-467.6" font-family="Times,serif" font-size="13.00">Migration version: 20161220212616</text>
<text text-anchor="start" x="166.037" y="-453.6" font-family="Times,serif" font-size="13.00">Generated by RailRoady 1.5.2</text>
<text text-anchor="start" x="166.037" y="-439.6" font-family="Times,serif" font-size="13.00">http://railroady.prestonlee.com</text>
</g>
<!-- Course -->
<g id="node2" class="node"><title>Course</title>
<ellipse fill="none" stroke="black" cx="452.037" cy="-471" rx="42.4939" ry="18"/>
<text text-anchor="middle" x="452.037" y="-467.3" font-family="Times,serif" font-size="14.00">Course</text>
</g>
<!-- Category -->
<g id="node4" class="node"><title>Category</title>
<ellipse fill="none" stroke="black" cx="228.037" cy="-306" rx="53.8905" ry="18"/>
<text text-anchor="middle" x="228.037" y="-302.3" font-family="Times,serif" font-size="14.00">Category</text>
</g>
<!-- Course&#45;&gt;Category -->
<g id="edge1" class="edge"><title>Course&#45;&gt;Category</title>
<path fill="none" stroke="#1c7a41" d="M427.475,-449.57C419.372,-443.422 410.106,-436.991 401.037,-432 361.842,-410.432 343.825,-421.456 307.037,-396 282.025,-378.693 259.655,-351.86 245.16,-332.18"/>
<ellipse fill="none" stroke="#1c7a41" cx="430.821" cy="-452.173" rx="4.00002" ry="4.00002"/>
<polygon fill="#1c7a41" stroke="#1c7a41" points="245.094,-332.088 242.914,-321.341 242.176,-328.027 239.259,-323.967 239.259,-323.967 239.259,-323.967 242.176,-328.027 235.604,-326.592 245.094,-332.088 245.094,-332.088"/>
</g>
<!-- SubCategory -->
<g id="node5" class="node"><title>SubCategory</title>
<ellipse fill="none" stroke="black" cx="161.037" cy="-234" rx="70.6878" ry="18"/>
<text text-anchor="middle" x="161.037" y="-230.3" font-family="Times,serif" font-size="14.00">SubCategory</text>
</g>
<!-- Course&#45;&gt;SubCategory -->
<g id="edge2" class="edge"><title>Course&#45;&gt;SubCategory</title>
<path fill="none" stroke="#6a2841" d="M426.698,-448.155C418.867,-442.243 409.947,-436.299 401.037,-432 297.148,-381.872 219.917,-425.458 165.037,-324 154.887,-305.236 154.513,-280.855 156.327,-262.358"/>
<polygon fill="#6a2841" stroke="#6a2841" points="426.864,-448.286 431.932,-458.011 430.791,-451.381 434.718,-454.477 434.718,-454.477 434.718,-454.477 430.791,-451.381 437.504,-450.943 426.864,-448.286 426.864,-448.286"/>
<polygon fill="#6a2841" stroke="#6a2841" points="156.352,-262.156 162.056,-252.791 156.972,-257.195 157.591,-252.233 157.591,-252.233 157.591,-252.233 156.972,-257.195 153.126,-251.676 156.352,-262.156 156.352,-262.156"/>
</g>
<!-- User -->
<g id="node8" class="node"><title>User</title>
<ellipse fill="none" stroke="black" cx="348.037" cy="-378" rx="32.4942" ry="18"/>
<text text-anchor="middle" x="348.037" y="-374.3" font-family="Times,serif" font-size="14.00">User</text>
</g>
<!-- Course&#45;&gt;User -->
<g id="edge5" class="edge"><title>Course&#45;&gt;User</title>
<path fill="none" stroke="#fa3e11" d="M426.851,-447.962C410.277,-433.461 388.701,-414.581 372.314,-400.243"/>
<polygon fill="#fa3e11" stroke="#fa3e11" points="426.869,-447.978 431.431,-457.95 430.632,-451.271 434.395,-454.563 434.395,-454.563 434.395,-454.563 430.632,-451.271 437.358,-451.176 426.869,-447.978 426.869,-447.978"/>
<polygon fill="#fa3e11" stroke="#fa3e11" points="372.258,-400.193 367.695,-390.221 368.495,-396.901 364.732,-393.608 364.732,-393.608 364.732,-393.608 368.495,-396.901 361.769,-396.995 372.258,-400.193 372.258,-400.193"/>
</g>
<!-- LiveClass -->
<g id="node10" class="node"><title>LiveClass</title>
<ellipse fill="none" stroke="black" cx="452.037" cy="-378" rx="53.8905" ry="18"/>
<text text-anchor="middle" x="452.037" y="-374.3" font-family="Times,serif" font-size="14.00">LiveClass</text>
</g>
<!-- Course&#45;&gt;LiveClass -->
<g id="edge7" class="edge"><title>Course&#45;&gt;LiveClass</title>
<path fill="none" stroke="#f639af" d="M452.037,-444.729C452.037,-432.118 452.037,-416.905 452.037,-404.292"/>
<ellipse fill="none" stroke="#f639af" cx="452.037" cy="-448.884" rx="4" ry="4"/>
<ellipse fill="#f639af" stroke="#f639af" cx="452.037" cy="-400.04" rx="4" ry="4"/>
</g>
<!-- Test -->
<g id="node16" class="node"><title>Test</title>
<ellipse fill="none" stroke="black" cx="502.037" cy="-234" rx="31.6951" ry="18"/>
<text text-anchor="middle" x="502.037" y="-230.3" font-family="Times,serif" font-size="14.00">Test</text>
</g>
<!-- Course&#45;&gt;Test -->
<g id="edge6" class="edge"><title>Course&#45;&gt;Test</title>
<path fill="none" stroke="#1f6943" d="M476.889,-449.214C491.023,-435.706 507.388,-416.782 515.037,-396 531.554,-351.119 520.295,-294.584 510.937,-261.841"/>
<ellipse fill="none" stroke="#1f6943" cx="473.936" cy="-451.945" rx="4.00002" ry="4.00002"/>
<polygon fill="#1f6943" stroke="#1f6943" points="510.885,-261.667 512.313,-250.794 509.444,-256.879 508.004,-252.091 508.004,-252.091 508.004,-252.091 509.444,-256.879 503.694,-253.387 510.885,-261.667 510.885,-261.667"/>
</g>
<!-- CourseUser -->
<g id="node24" class="node"><title>CourseUser</title>
<ellipse fill="none" stroke="black" cx="877.037" cy="-234" rx="63.8893" ry="18"/>
<text text-anchor="middle" x="877.037" y="-230.3" font-family="Times,serif" font-size="14.00">CourseUser</text>
</g>
<!-- Course&#45;&gt;CourseUser -->
<g id="edge4" class="edge"><title>Course&#45;&gt;CourseUser</title>
<path fill="none" stroke="#b8d958" d="M484.094,-452.274C561.516,-409.464 758.347,-300.629 840.327,-255.298"/>
<ellipse fill="none" stroke="#b8d958" cx="480.224" cy="-454.414" rx="4.00002" ry="4.00002"/>
<polygon fill="#b8d958" stroke="#b8d958" points="840.529,-255.187 851.458,-254.286 844.905,-252.767 849.28,-250.348 849.28,-250.348 849.28,-250.348 844.905,-252.767 847.103,-246.41 840.529,-255.187 840.529,-255.187"/>
</g>
<!-- Section -->
<g id="node25" class="node"><title>Section</title>
<ellipse fill="none" stroke="black" cx="1236.04" cy="-234" rx="45.4919" ry="18"/>
<text text-anchor="middle" x="1236.04" y="-230.3" font-family="Times,serif" font-size="14.00">Section</text>
</g>
<!-- Course&#45;&gt;Section -->
<g id="edge3" class="edge"><title>Course&#45;&gt;Section</title>
<path fill="none" stroke="#4ab7d7" d="M493.86,-457.64C605.525,-424.607 919.946,-331.387 1181.04,-252 1184.54,-250.934 1188.17,-249.825 1191.82,-248.707"/>
<ellipse fill="none" stroke="#4ab7d7" cx="489.697" cy="-458.871" rx="4.00001" ry="4.00001"/>
<polygon fill="#4ab7d7" stroke="#4ab7d7" points="1191.87,-248.69 1202.75,-250.051 1196.65,-247.219 1201.43,-245.749 1201.43,-245.749 1201.43,-245.749 1196.65,-247.219 1200.11,-241.448 1191.87,-248.69 1191.87,-248.69"/>
</g>
<!-- Tutorial -->
<g id="node3" class="node"><title>Tutorial</title>
<ellipse fill="none" stroke="black" cx="1051.04" cy="-162" rx="48.9926" ry="18"/>
<text text-anchor="middle" x="1051.04" y="-158.3" font-family="Times,serif" font-size="14.00">Tutorial</text>
</g>
<!-- Category&#45;&gt;SubCategory -->
<g id="edge8" class="edge"><title>Category&#45;&gt;SubCategory</title>
<path fill="none" stroke="#0b530f" d="M206.477,-282.474C199.364,-275.044 191.426,-266.75 184.199,-259.199"/>
<ellipse fill="none" stroke="#0b530f" cx="209.393" cy="-285.521" rx="4.00002" ry="4.00002"/>
<polygon fill="#0b530f" stroke="#0b530f" points="184.181,-259.18 180.517,-248.845 180.724,-255.568 177.266,-251.956 177.266,-251.956 177.266,-251.956 180.724,-255.568 174.015,-255.068 184.181,-259.18 184.181,-259.18"/>
</g>
<!-- Question -->
<g id="node9" class="node"><title>Question</title>
<ellipse fill="none" stroke="black" cx="250.037" cy="-162" rx="51.9908" ry="18"/>
<text text-anchor="middle" x="250.037" y="-158.3" font-family="Times,serif" font-size="14.00">Question</text>
</g>
<!-- Category&#45;&gt;Question -->
<g id="edge10" class="edge"><title>Category&#45;&gt;Question</title>
<path fill="none" stroke="#b93b8a" d="M235.424,-278.029C237.488,-269.731 239.566,-260.534 241.037,-252 244.575,-231.468 246.877,-208.014 248.266,-190.339"/>
<polygon fill="#b93b8a" stroke="#b93b8a" points="235.365,-278.26 228.507,-286.817 234.115,-283.101 232.864,-287.942 232.864,-287.942 232.864,-287.942 234.115,-283.101 237.221,-289.067 235.365,-278.26 235.365,-278.26"/>
<polygon fill="#b93b8a" stroke="#b93b8a" points="248.281,-190.131 253.504,-180.489 248.648,-185.145 249.016,-180.158 249.016,-180.158 249.016,-180.158 248.648,-185.145 244.528,-179.827 248.281,-190.131 248.281,-190.131"/>
</g>
<!-- Answer -->
<g id="node14" class="node"><title>Answer</title>
<ellipse fill="none" stroke="black" cx="348.037" cy="-18" rx="46.2923" ry="18"/>
<text text-anchor="middle" x="348.037" y="-14.3" font-family="Times,serif" font-size="14.00">Answer</text>
</g>
<!-- Category&#45;&gt;Answer -->
<g id="edge9" class="edge"><title>Category&#45;&gt;Answer</title>
<path fill="none" stroke="#eeef77" d="M173.987,-292.825C100.344,-272.977 -19.9304,-227.25 3.03683,-144 12.9494,-108.07 15.3394,-93.1401 46.0368,-72 85.1872,-45.0387 216.701,-29.9005 292.647,-23.2112"/>
<polygon fill="#eeef77" stroke="#eeef77" points="174.374,-292.926 182.911,-299.808 179.211,-294.19 184.049,-295.455 184.049,-295.455 184.049,-295.455 179.211,-294.19 185.187,-291.101 174.374,-292.926 174.374,-292.926"/>
<polygon fill="#eeef77" stroke="#eeef77" points="293.016,-23.1795 303.365,-26.8064 297.997,-22.7513 302.979,-22.323 302.979,-22.323 302.979,-22.323 297.997,-22.7513 302.594,-17.8395 293.016,-23.1795 293.016,-23.1795"/>
</g>
<!-- SubCategory&#45;&gt;Tutorial -->
<g id="edge14" class="edge"><title>SubCategory&#45;&gt;Tutorial</title>
<path fill="none" stroke="#034ab9" d="M238.071,-229.033C374.922,-221.666 669.346,-204.375 917.037,-180 943.175,-177.428 972.091,-173.852 996.351,-170.644"/>
<ellipse fill="none" stroke="#034ab9" cx="233.678" cy="-229.268" rx="4" ry="4"/>
<polygon fill="#034ab9" stroke="#034ab9" points="996.529,-170.62 1007.04,-173.756 1001.49,-169.958 1006.44,-169.295 1006.44,-169.295 1006.44,-169.295 1001.49,-169.958 1005.84,-164.835 996.529,-170.62 996.529,-170.62"/>
</g>
<!-- Choice -->
<g id="node7" class="node"><title>Choice</title>
<ellipse fill="none" stroke="black" cx="242.037" cy="-90" rx="40.0939" ry="18"/>
<text text-anchor="middle" x="242.037" y="-86.3" font-family="Times,serif" font-size="14.00">Choice</text>
</g>
<!-- SubCategory&#45;&gt;Choice -->
<g id="edge12" class="edge"><title>SubCategory&#45;&gt;Choice</title>
<path fill="none" stroke="#ea9a7c" d="M165.96,-206.117C170.155,-187.686 177.398,-163.193 189.037,-144 195.995,-132.525 205.948,-121.695 215.353,-112.852"/>
<polygon fill="#ea9a7c" stroke="#ea9a7c" points="165.955,-206.138 159.48,-214.988 164.919,-211.029 163.882,-215.921 163.882,-215.921 163.882,-215.921 164.919,-211.029 168.285,-216.853 165.955,-206.138 165.955,-206.138"/>
<polygon fill="#ea9a7c" stroke="#ea9a7c" points="215.618,-112.614 226.059,-109.264 219.332,-109.267 223.047,-105.92 223.047,-105.92 223.047,-105.92 219.332,-109.267 220.035,-102.577 215.618,-112.614 215.618,-112.614"/>
</g>
<!-- SubCategory&#45;&gt;Question -->
<g id="edge11" class="edge"><title>SubCategory&#45;&gt;Question</title>
<path fill="none" stroke="#243718" d="M188.092,-211.721C198.88,-203.236 211.293,-193.472 222.162,-184.924"/>
<ellipse fill="none" stroke="#243718" cx="184.823" cy="-214.292" rx="4.00002" ry="4.00002"/>
<polygon fill="#243718" stroke="#243718" points="222.259,-184.848 232.901,-182.203 226.189,-181.757 230.119,-178.666 230.119,-178.666 230.119,-178.666 226.189,-181.757 227.337,-175.129 222.259,-184.848 222.259,-184.848"/>
</g>
<!-- SubCategory&#45;&gt;Answer -->
<g id="edge13" class="edge"><title>SubCategory&#45;&gt;Answer</title>
<path fill="none" stroke="#d7d226" d="M86.3411,-224.373C58.6463,-217.139 29.9028,-203.955 13.0368,-180 3.82566,-166.917 4.06677,-157.249 13.0368,-144 75.2368,-52.1286 213.869,-27.6105 291.895,-21.1797"/>
<polygon fill="#d7d226" stroke="#d7d226" points="86.3445,-224.374 95.0291,-231.07 91.2083,-225.533 96.0721,-226.692 96.0721,-226.692 96.0721,-226.692 91.2083,-225.533 97.1152,-222.315 86.3445,-224.374 86.3445,-224.374"/>
<polygon fill="#d7d226" stroke="#d7d226" points="292.054,-21.1679 302.363,-24.9058 297.04,-20.7932 302.026,-20.4184 302.026,-20.4184 302.026,-20.4184 297.04,-20.7932 301.689,-15.9311 292.054,-21.1679 292.054,-21.1679"/>
</g>
<!-- VideoClass -->
<g id="node32" class="node"><title>VideoClass</title>
<ellipse fill="none" stroke="black" cx="82.0368" cy="-162" rx="59.5901" ry="18"/>
<text text-anchor="middle" x="82.0368" y="-158.3" font-family="Times,serif" font-size="14.00">VideoClass</text>
</g>
<!-- SubCategory&#45;&gt;VideoClass -->
<g id="edge15" class="edge"><title>SubCategory&#45;&gt;VideoClass</title>
<path fill="none" stroke="#b2f049" d="M136.107,-210.91C127.143,-202.968 117.015,-193.993 107.968,-185.977"/>
<ellipse fill="none" stroke="#b2f049" cx="139.321" cy="-213.758" rx="4.00002" ry="4.00002"/>
<polygon fill="#b2f049" stroke="#b2f049" points="107.836,-185.86 103.336,-175.86 104.094,-182.544 100.352,-179.228 100.352,-179.228 100.352,-179.228 104.094,-182.544 97.3675,-182.597 107.836,-185.86 107.836,-185.86"/>
</g>
<!-- Plan -->
<g id="node6" class="node"><title>Plan</title>
<ellipse fill="none" stroke="black" cx="877.037" cy="-162" rx="30.5947" ry="18"/>
<text text-anchor="middle" x="877.037" y="-158.3" font-family="Times,serif" font-size="14.00">Plan</text>
</g>
<!-- Plan&#45;&gt;CourseUser -->
<g id="edge17" class="edge"><title>Plan&#45;&gt;CourseUser</title>
<path fill="none" stroke="#71d6b0" d="M883.626,-189.968C883.838,-195.176 883.84,-200.634 883.634,-205.848"/>
<polygon fill="#71d6b0" stroke="#71d6b0" points="883.612,-189.764 887.387,-179.468 883.255,-184.776 882.898,-179.789 882.898,-179.789 882.898,-179.789 883.255,-184.776 878.41,-180.11 883.612,-189.764 883.612,-189.764"/>
<polygon fill="#71d6b0" stroke="#71d6b0" points="883.617,-206.08 878.426,-215.739 883.266,-211.067 882.915,-216.055 882.915,-216.055 882.915,-216.055 883.266,-211.067 887.404,-216.371 883.617,-206.08 883.617,-206.08"/>
</g>
<!-- CourseUserPlan -->
<g id="node26" class="node"><title>CourseUserPlan</title>
<ellipse fill="none" stroke="black" cx="906.037" cy="-90" rx="83.3857" ry="18"/>
<text text-anchor="middle" x="906.037" y="-86.3" font-family="Times,serif" font-size="14.00">CourseUserPlan</text>
</g>
<!-- Plan&#45;&gt;CourseUserPlan -->
<g id="edge16" class="edge"><title>Plan&#45;&gt;CourseUserPlan</title>
<path fill="none" stroke="#f915fc" d="M887.072,-136.778C889.654,-130.544 892.446,-123.805 895.073,-117.463"/>
<ellipse fill="none" stroke="#f915fc" cx="885.44" cy="-140.716" rx="4.00001" ry="4.00001"/>
<polygon fill="#f915fc" stroke="#f915fc" points="895.185,-117.195 903.169,-109.679 897.098,-112.575 899.012,-107.956 899.012,-107.956 899.012,-107.956 897.098,-112.575 894.855,-106.234 895.185,-117.195 895.185,-117.195"/>
</g>
<!-- Choice&#45;&gt;Answer -->
<g id="edge18" class="edge"><title>Choice&#45;&gt;Answer</title>
<path fill="none" stroke="#30428a" d="M270.837,-69.9813C285.114,-60.5531 302.374,-49.1547 316.95,-39.5287"/>
<ellipse fill="none" stroke="#30428a" cx="267.081" cy="-72.4613" rx="4.00002" ry="4.00002"/>
<polygon fill="#30428a" stroke="#30428a" points="317.284,-39.3084 328.109,-37.5528 321.457,-36.5531 325.629,-33.7977 325.629,-33.7977 325.629,-33.7977 321.457,-36.5531 323.149,-30.0426 317.284,-39.3084 317.284,-39.3084"/>
</g>
<!-- User&#45;&gt;Category -->
<g id="edge20" class="edge"><title>User&#45;&gt;Category</title>
<path fill="none" stroke="#d55987" d="M317.42,-359.14C300.652,-349.359 279.817,-337.205 262.482,-327.093"/>
<polygon fill="#d55987" stroke="#d55987" points="317.668,-359.285 324.038,-368.211 321.987,-361.804 326.306,-364.324 326.306,-364.324 326.306,-364.324 321.987,-361.804 328.573,-360.437 317.668,-359.285 317.668,-359.285"/>
<polygon fill="#d55987" stroke="#d55987" points="262.414,-327.054 256.044,-318.128 258.095,-324.534 253.776,-322.015 253.776,-322.015 253.776,-322.015 258.095,-324.534 251.509,-325.902 262.414,-327.054 262.414,-327.054"/>
</g>
<!-- User&#45;&gt;SubCategory -->
<g id="edge21" class="edge"><title>User&#45;&gt;SubCategory</title>
<path fill="none" stroke="#ea2171" d="M336.8,-351.087C327.149,-331.468 311.547,-305.071 291.037,-288 270.456,-270.87 243.597,-258.682 219.64,-250.348"/>
<polygon fill="#ea2171" stroke="#ea2171" points="336.914,-351.327 337.107,-362.291 339.046,-355.85 341.178,-360.372 341.178,-360.372 341.178,-360.372 339.046,-355.85 345.248,-358.453 336.914,-351.327 336.914,-351.327"/>
<polygon fill="#ea2171" stroke="#ea2171" points="219.416,-250.274 211.345,-242.85 214.671,-248.697 209.926,-247.121 209.926,-247.121 209.926,-247.121 214.671,-248.697 208.507,-251.391 219.416,-250.274 219.416,-250.274"/>
</g>
<!-- User&#45;&gt;Answer -->
<g id="edge22" class="edge"><title>User&#45;&gt;Answer</title>
<path fill="none" stroke="#94ef63" d="M348.037,-351.782C348.037,-323.392 348.037,-275.885 348.037,-235 348.037,-235 348.037,-235 348.037,-161 348.037,-120.996 348.037,-74.6528 348.037,-46.0798"/>
<ellipse fill="none" stroke="#94ef63" cx="348.037" cy="-355.951" rx="4" ry="4"/>
<polygon fill="#94ef63" stroke="#94ef63" points="348.037,-46.0493 352.537,-36.0492 348.037,-41.0493 348.037,-36.0493 348.037,-36.0493 348.037,-36.0493 348.037,-41.0493 343.537,-36.0493 348.037,-46.0493 348.037,-46.0493"/>
</g>
<!-- User&#45;&gt;Test -->
<g id="edge24" class="edge"><title>User&#45;&gt;Test</title>
<path fill="none" stroke="#a4d4bd" d="M375.97,-357.498C389.138,-347.896 404.819,-335.856 418.037,-324 441.32,-303.114 465.603,-276.818 482.036,-258.241"/>
<polygon fill="#a4d4bd" stroke="#a4d4bd" points="375.848,-357.586 365.103,-359.777 371.79,-360.508 367.732,-363.429 367.732,-363.429 367.732,-363.429 371.79,-360.508 370.361,-367.081 375.848,-357.586 375.848,-357.586"/>
<polygon fill="#a4d4bd" stroke="#a4d4bd" points="482.194,-258.061 492.171,-253.51 485.49,-254.302 488.787,-250.543 488.787,-250.543 488.787,-250.543 485.49,-254.302 485.404,-247.576 482.194,-258.061 482.194,-258.061"/>
</g>
<!-- UserAttitudeTest -->
<g id="node17" class="node"><title>UserAttitudeTest</title>
<ellipse fill="none" stroke="black" cx="470.037" cy="-162" rx="93.6835" ry="18"/>
<text text-anchor="middle" x="470.037" y="-158.3" font-family="Times,serif" font-size="14.00">UserAttitudeTest</text>
</g>
<!-- User&#45;&gt;UserAttitudeTest -->
<g id="edge23" class="edge"><title>User&#45;&gt;UserAttitudeTest</title>
<path fill="none" stroke="#3aaaca" d="M361.415,-353.533C384.431,-313.161 431.348,-230.864 455.281,-188.883"/>
<ellipse fill="none" stroke="#3aaaca" cx="359.388" cy="-357.088" rx="4.00002" ry="4.00002"/>
<polygon fill="#3aaaca" stroke="#3aaaca" points="455.344,-188.773 464.206,-182.314 457.82,-184.429 460.297,-180.085 460.297,-180.085 460.297,-180.085 457.82,-184.429 456.387,-177.857 455.344,-188.773 455.344,-188.773"/>
</g>
<!-- User&#45;&gt;CourseUser -->
<g id="edge19" class="edge"><title>User&#45;&gt;CourseUser</title>
<path fill="none" stroke="#ac92c7" d="M380.496,-363.049C383.365,-361.966 386.241,-360.932 389.037,-360 540.575,-309.461 724.295,-267.407 817.132,-247.457"/>
<ellipse fill="none" stroke="#ac92c7" cx="376.699" cy="-364.538" rx="4.00001" ry="4.00001"/>
<polygon fill="#ac92c7" stroke="#ac92c7" points="817.404,-247.399 828.124,-249.708 822.294,-246.354 827.183,-245.308 827.183,-245.308 827.183,-245.308 822.294,-246.354 826.242,-240.907 817.404,-247.399 817.404,-247.399"/>
</g>
<!-- Question&#45;&gt;Choice -->
<g id="edge26" class="edge"><title>Question&#45;&gt;Choice</title>
<path fill="none" stroke="#f5526e" d="M247.139,-135.64C246.485,-129.92 245.789,-123.828 245.127,-118.042"/>
<ellipse fill="none" stroke="#f5526e" cx="247.605" cy="-139.722" rx="4.00001" ry="4.00001"/>
<polygon fill="#f5526e" stroke="#f5526e" points="245.127,-118.04 248.463,-107.593 244.559,-113.072 243.992,-108.104 243.992,-108.104 243.992,-108.104 244.559,-113.072 239.521,-108.615 245.127,-118.04 245.127,-118.04"/>
</g>
<!-- Question&#45;&gt;Question -->
<g id="edge27" class="edge"><title>Question&#45;&gt;Question</title>
<path fill="none" stroke="#609bcc" d="M294.274,-175.498C308.627,-175.398 320.032,-170.899 320.032,-162 320.032,-153.513 309.658,-149.028 296.248,-148.544"/>
<ellipse fill="none" stroke="#609bcc" cx="290.046" cy="-175.294" rx="4" ry="4"/>
<polygon fill="#609bcc" stroke="#609bcc" points="296.045,-148.551 285.894,-144.402 291.048,-148.725 286.051,-148.899 286.051,-148.899 286.051,-148.899 291.048,-148.725 286.207,-153.396 296.045,-148.551 296.045,-148.551"/>
</g>
<!-- Question&#45;&gt;Answer -->
<g id="edge25" class="edge"><title>Question&#45;&gt;Answer</title>
<path fill="none" stroke="#cb73c1" d="M268.407,-138.173C275.647,-128.942 283.917,-118.1 291.037,-108 305.801,-87.0558 321.42,-62.4762 332.567,-44.4607"/>
<ellipse fill="none" stroke="#cb73c1" cx="265.829" cy="-141.437" rx="4.00002" ry="4.00002"/>
<polygon fill="#cb73c1" stroke="#cb73c1" points="332.722,-44.2099 341.794,-38.0498 335.341,-39.951 337.961,-35.6922 337.961,-35.6922 337.961,-35.6922 335.341,-39.951 334.128,-33.3345 332.722,-44.2099 332.722,-44.2099"/>
</g>
<!-- Career -->
<g id="node11" class="node"><title>Career</title>
<ellipse fill="none" stroke="black" cx="1112.04" cy="-378" rx="42.4939" ry="18"/>
<text text-anchor="middle" x="1112.04" y="-374.3" font-family="Times,serif" font-size="14.00">Career</text>
</g>
<!-- EventType -->
<g id="node12" class="node"><title>EventType</title>
<ellipse fill="none" stroke="black" cx="1312.04" cy="-471" rx="61.99" ry="18"/>
<text text-anchor="middle" x="1312.04" y="-467.3" font-family="Times,serif" font-size="14.00">EventType</text>
</g>
<!-- Event -->
<g id="node28" class="node"><title>Event</title>
<ellipse fill="none" stroke="black" cx="1312.04" cy="-378" rx="38.1938" ry="18"/>
<text text-anchor="middle" x="1312.04" y="-374.3" font-family="Times,serif" font-size="14.00">Event</text>
</g>
<!-- EventType&#45;&gt;Event -->
<g id="edge28" class="edge"><title>EventType&#45;&gt;Event</title>
<path fill="none" stroke="#52ce8e" d="M1312.04,-444.729C1312.04,-432.725 1312.04,-418.362 1312.04,-406.129"/>
<ellipse fill="none" stroke="#52ce8e" cx="1312.04" cy="-448.884" rx="4" ry="4"/>
<polygon fill="#52ce8e" stroke="#52ce8e" points="1312.04,-406.04 1316.54,-396.04 1312.04,-401.04 1312.04,-396.04 1312.04,-396.04 1312.04,-396.04 1312.04,-401.04 1307.54,-396.04 1312.04,-406.04 1312.04,-406.04"/>
</g>
<!-- Video -->
<g id="node13" class="node"><title>Video</title>
<ellipse fill="none" stroke="black" cx="1136.04" cy="-234" rx="36.2938" ry="18"/>
<text text-anchor="middle" x="1136.04" y="-230.3" font-family="Times,serif" font-size="14.00">Video</text>
</g>
<!-- Video&#45;&gt;Tutorial -->
<g id="edge30" class="edge"><title>Video&#45;&gt;Tutorial</title>
<path fill="none" stroke="#d2eaaf" d="M1111.8,-213.039C1100.77,-203.96 1087.73,-193.214 1076.55,-184.012"/>
<ellipse fill="none" stroke="#d2eaaf" cx="1114.92" cy="-215.612" rx="4.00002" ry="4.00002"/>
<ellipse fill="#d2eaaf" stroke="#d2eaaf" cx="1073.31" cy="-181.339" rx="4.00002" ry="4.00002"/>
</g>
<!-- Resource -->
<g id="node30" class="node"><title>Resource</title>
<ellipse fill="none" stroke="black" cx="1171.04" cy="-162" rx="53.0913" ry="18"/>
<text text-anchor="middle" x="1171.04" y="-158.3" font-family="Times,serif" font-size="14.00">Resource</text>
</g>
<!-- Video&#45;&gt;Resource -->
<g id="edge29" class="edge"><title>Video&#45;&gt;Resource</title>
<path fill="none" stroke="#e3d14e" d="M1148.01,-209.062C1151.52,-202.034 1155.37,-194.343 1158.89,-187.293"/>
<ellipse fill="none" stroke="#e3d14e" cx="1146.12" cy="-212.833" rx="4.00002" ry="4.00002"/>
<ellipse fill="#e3d14e" stroke="#e3d14e" cx="1160.77" cy="-183.534" rx="4.00002" ry="4.00002"/>
</g>
<!-- Point -->
<g id="node15" class="node"><title>Point</title>
<ellipse fill="none" stroke="black" cx="1457.04" cy="-378" rx="35.194" ry="18"/>
<text text-anchor="middle" x="1457.04" y="-374.3" font-family="Times,serif" font-size="14.00">Point</text>
</g>
<!-- Test&#45;&gt;Question -->
<g id="edge31" class="edge"><title>Test&#45;&gt;Question</title>
<path fill="none" stroke="#abdcb8" d="M466.348,-223.086C422.562,-210.924 348.11,-190.243 298.999,-176.601"/>
<ellipse fill="none" stroke="#abdcb8" cx="470.252" cy="-224.171" rx="4.00001" ry="4.00001"/>
<polygon fill="#abdcb8" stroke="#abdcb8" points="298.863,-176.563 290.433,-169.551 294.046,-175.225 289.228,-173.886 289.228,-173.886 289.228,-173.886 294.046,-175.225 288.024,-178.222 298.863,-176.563 298.863,-176.563"/>
</g>
<!-- Test&#45;&gt;Answer -->
<g id="edge32" class="edge"><title>Test&#45;&gt;Answer</title>
<path fill="none" stroke="#0d60a9" d="M533.423,-218.246C548.33,-209.424 564.683,-196.661 573.037,-180 580.208,-165.697 581.151,-157.79 573.037,-144 535.17,-79.6441 450.873,-46.0451 396.893,-30.4704"/>
<ellipse fill="none" stroke="#0d60a9" cx="529.751" cy="-220.305" rx="4.00002" ry="4.00002"/>
<polygon fill="#0d60a9" stroke="#0d60a9" points="396.819,-30.4497 388.391,-23.4334 392.002,-29.1092 387.185,-27.7687 387.185,-27.7687 387.185,-27.7687 392.002,-29.1092 385.978,-32.1039 396.819,-30.4497 396.819,-30.4497"/>
</g>
<!-- Test&#45;&gt;UserAttitudeTest -->
<g id="edge34" class="edge"><title>Test&#45;&gt;UserAttitudeTest</title>
<path fill="none" stroke="#4ce712" d="M491.094,-209.062C488.155,-202.632 484.961,-195.647 481.971,-189.106"/>
<ellipse fill="none" stroke="#4ce712" cx="492.79" cy="-212.773" rx="4.00002" ry="4.00002"/>
<polygon fill="#4ce712" stroke="#4ce712" points="481.946,-189.051 481.881,-178.085 479.867,-184.504 477.788,-179.956 477.788,-179.956 477.788,-179.956 479.867,-184.504 473.696,-181.827 481.946,-189.051 481.946,-189.051"/>
</g>
<!-- CourseUserTest -->
<g id="node21" class="node"><title>CourseUserTest</title>
<ellipse fill="none" stroke="black" cx="743.037" cy="-162" rx="85.2851" ry="18"/>
<text text-anchor="middle" x="743.037" y="-158.3" font-family="Times,serif" font-size="14.00">CourseUserTest</text>
</g>
<!-- Test&#45;&gt;CourseUserTest -->
<g id="edge33" class="edge"><title>Test&#45;&gt;CourseUserTest</title>
<path fill="none" stroke="#bc4324" d="M537.377,-222.735C576.186,-211.463 639.099,-193.189 685.136,-179.818"/>
<ellipse fill="none" stroke="#bc4324" cx="533.524" cy="-223.854" rx="4.00001" ry="4.00001"/>
<polygon fill="#bc4324" stroke="#bc4324" points="685.378,-179.747 696.237,-181.279 690.18,-178.353 694.982,-176.958 694.982,-176.958 694.982,-176.958 690.18,-178.353 693.726,-172.637 685.378,-179.747 685.378,-179.747"/>
</g>
<!-- UserAttitudeTest&#45;&gt;Answer -->
<g id="edge35" class="edge"><title>UserAttitudeTest&#45;&gt;Answer</title>
<path fill="none" stroke="#53c771" d="M448.999,-136.513C426.564,-110.401 391.251,-69.2988 368.888,-43.2699"/>
<polygon fill="#53c771" stroke="#53c771" points="449.046,-136.568 452.149,-147.086 452.304,-140.361 455.563,-144.153 455.563,-144.153 455.563,-144.153 452.304,-140.361 458.976,-141.221 449.046,-136.568 449.046,-136.568"/>
<polygon fill="#53c771" stroke="#53c771" points="368.632,-42.9717 365.529,-32.4542 365.374,-39.1792 362.116,-35.3867 362.116,-35.3867 362.116,-35.3867 365.374,-39.1792 358.702,-38.3192 368.632,-42.9717 368.632,-42.9717"/>
</g>
<!-- Blog -->
<g id="node18" class="node"><title>Blog</title>
<ellipse fill="none" stroke="black" cx="1051.04" cy="-234" rx="30.5947" ry="18"/>
<text text-anchor="middle" x="1051.04" y="-230.3" font-family="Times,serif" font-size="14.00">Blog</text>
</g>
<!-- Blog&#45;&gt;Tutorial -->
<g id="edge36" class="edge"><title>Blog&#45;&gt;Tutorial</title>
<path fill="none" stroke="#291a4f" d="M1051.04,-207.64C1051.04,-201.348 1051.04,-194.605 1051.04,-188.316"/>
<ellipse fill="none" stroke="#291a4f" cx="1051.04" cy="-211.697" rx="4" ry="4"/>
<ellipse fill="#291a4f" stroke="#291a4f" cx="1051.04" cy="-184.104" rx="4" ry="4"/>
</g>
<!-- Blog&#45;&gt;Resource -->
<g id="edge37" class="edge"><title>Blog&#45;&gt;Resource</title>
<path fill="none" stroke="#31e7a4" d="M1079,-216.691C1096.7,-206.364 1119.67,-192.966 1138.23,-182.137"/>
<ellipse fill="none" stroke="#31e7a4" cx="1075.39" cy="-218.791" rx="4.00002" ry="4.00002"/>
<ellipse fill="#31e7a4" stroke="#31e7a4" cx="1141.91" cy="-179.989" rx="4.00002" ry="4.00002"/>
</g>
<!-- School -->
<g id="node19" class="node"><title>School</title>
<ellipse fill="none" stroke="black" cx="1052.04" cy="-471" rx="40.0939" ry="18"/>
<text text-anchor="middle" x="1052.04" y="-467.3" font-family="Times,serif" font-size="14.00">School</text>
</g>
<!-- School&#45;&gt;Career -->
<g id="edge38" class="edge"><title>School&#45;&gt;Career</title>
<path fill="none" stroke="#b41059" d="M1067.63,-446.357C1076.16,-433.409 1086.74,-417.363 1095.43,-404.18"/>
<ellipse fill="none" stroke="#b41059" cx="1065.24" cy="-449.97" rx="4.00002" ry="4.00002"/>
<polygon fill="#b41059" stroke="#b41059" points="1095.6,-403.934 1104.86,-398.062 1098.35,-399.759 1101.1,-395.585 1101.1,-395.585 1101.1,-395.585 1098.35,-399.759 1097.34,-393.108 1095.6,-403.934 1095.6,-403.934"/>
</g>
<!-- Student -->
<g id="node20" class="node"><title>Student</title>
<polygon fill="none" stroke="black" stroke-dasharray="1,5" points="1615.04,-489 1541.04,-489 1541.04,-453 1615.04,-453 1615.04,-489"/>
<text text-anchor="middle" x="1578.04" y="-467.3" font-family="Times,serif" font-size="14.00">Student</text>
</g>
<!-- CourseUserTest&#45;&gt;Answer -->
<g id="edge39" class="edge"><title>CourseUserTest&#45;&gt;Answer</title>
<path fill="none" stroke="#c10417" d="M724.303,-138.068C706.057,-117.373 676.402,-87.8227 644.037,-72 566.67,-34.1764 466.107,-23.0913 404.365,-19.9905"/>
<ellipse fill="none" stroke="#c10417" cx="726.974" cy="-141.155" rx="4.00002" ry="4.00002"/>
<polygon fill="#c10417" stroke="#c10417" points="404.041,-19.9761 394.253,-15.0334 399.046,-19.7525 394.051,-19.5289 394.051,-19.5289 394.051,-19.5289 399.046,-19.7525 393.85,-24.0244 404.041,-19.9761 404.041,-19.9761"/>
</g>
<!-- PointAction -->
<g id="node22" class="node"><title>PointAction</title>
<ellipse fill="none" stroke="black" cx="1457.04" cy="-471" rx="65.7887" ry="18"/>
<text text-anchor="middle" x="1457.04" y="-467.3" font-family="Times,serif" font-size="14.00">PointAction</text>
</g>
<!-- PointAction&#45;&gt;Point -->
<g id="edge40" class="edge"><title>PointAction&#45;&gt;Point</title>
<path fill="none" stroke="#e646e8" d="M1457.04,-444.729C1457.04,-432.725 1457.04,-418.362 1457.04,-406.129"/>
<ellipse fill="none" stroke="#e646e8" cx="1457.04" cy="-448.884" rx="4" ry="4"/>
<polygon fill="#e646e8" stroke="#e646e8" points="1457.04,-406.04 1461.54,-396.04 1457.04,-401.04 1457.04,-396.04 1457.04,-396.04 1457.04,-396.04 1457.04,-401.04 1452.54,-396.04 1457.04,-406.04 1457.04,-406.04"/>
</g>
<!-- ResourceProgress -->
<g id="node23" class="node"><title>ResourceProgress</title>
<ellipse fill="none" stroke="black" cx="1171.04" cy="-90" rx="94.7833" ry="18"/>
<text text-anchor="middle" x="1171.04" y="-86.3" font-family="Times,serif" font-size="14.00">ResourceProgress</text>
</g>
<!-- CourseUser&#45;&gt;Plan -->
<g id="edge44" class="edge"><title>CourseUser&#45;&gt;Plan</title>
<path fill="none" stroke="#2f6ff6" d="M870.531,-207.861C870.206,-201.449 870.206,-194.557 870.531,-188.145"/>
<ellipse fill="none" stroke="#2f6ff6" cx="870.853" cy="-212.067" rx="4" ry="4"/>
<ellipse fill="#2f6ff6" stroke="#2f6ff6" cx="870.867" cy="-183.777" rx="4" ry="4"/>
</g>
<!-- CourseUser&#45;&gt;CourseUserTest -->
<g id="edge42" class="edge"><title>CourseUser&#45;&gt;CourseUserTest</title>
<path fill="none" stroke="#977e5e" d="M840.742,-214.04C822.717,-204.624 800.908,-193.231 782.472,-183.601"/>
<ellipse fill="none" stroke="#977e5e" cx="844.415" cy="-215.959" rx="4.00002" ry="4.00002"/>
<polygon fill="#977e5e" stroke="#977e5e" points="782.315,-183.518 775.535,-174.9 777.883,-181.203 773.451,-178.888 773.451,-178.888 773.451,-178.888 777.883,-181.203 771.368,-182.877 782.315,-183.518 782.315,-183.518"/>
</g>
<!-- CourseUser&#45;&gt;ResourceProgress -->
<g id="edge41" class="edge"><title>CourseUser&#45;&gt;ResourceProgress</title>
<path fill="none" stroke="#88e673" d="M900.319,-210.969C922.572,-190.977 957.849,-161.959 993.037,-144 1026.09,-127.13 1065.4,-114.716 1098.66,-106.162"/>
<ellipse fill="none" stroke="#88e673" cx="897.082" cy="-213.915" rx="4.00002" ry="4.00002"/>
<polygon fill="#88e673" stroke="#88e673" points="1099.08,-106.058 1109.87,-107.995 1103.93,-104.844 1108.78,-103.63 1108.78,-103.63 1108.78,-103.63 1103.93,-104.844 1107.69,-99.2646 1099.08,-106.058 1099.08,-106.058"/>
</g>
<!-- CourseUser&#45;&gt;CourseUserPlan -->
<g id="edge43" class="edge"><title>CourseUser&#45;&gt;CourseUserPlan</title>
<path fill="none" stroke="#4e7fd1" d="M899.329,-210.226C906.414,-201.494 913.36,-190.975 917.037,-180 924.027,-159.133 919.945,-134.176 914.886,-116.007"/>
<ellipse fill="none" stroke="#4e7fd1" cx="896.536" cy="-213.494" rx="4.00002" ry="4.00002"/>
<ellipse fill="#4e7fd1" stroke="#4e7fd1" cx="913.682" cy="-112.006" rx="4.00001" ry="4.00001"/>
</g>
<!-- Section&#45;&gt;ResourceProgress -->
<g id="edge46" class="edge"><title>Section&#45;&gt;ResourceProgress</title>
<path fill="none" stroke="#2614d9" d="M1240.4,-207.964C1242.44,-189.387 1242.63,-163.933 1233.04,-144 1227.27,-132.019 1217.39,-121.697 1207.2,-113.428"/>
<ellipse fill="none" stroke="#2614d9" cx="1239.88" cy="-212.004" rx="4.00001" ry="4.00001"/>
<polygon fill="#2614d9" stroke="#2614d9" points="1207,-113.278 1201.74,-103.656 1203.01,-110.261 1199.02,-107.245 1199.02,-107.245 1199.02,-107.245 1203.01,-110.261 1196.31,-110.833 1207,-113.278 1207,-113.278"/>
</g>
<!-- Section&#45;&gt;Resource -->
<g id="edge45" class="edge"><title>Section&#45;&gt;Resource</title>
<path fill="none" stroke="#02fdbe" d="M1215.36,-210.734C1208.34,-203.171 1200.46,-194.69 1193.32,-186.999"/>
<ellipse fill="none" stroke="#02fdbe" cx="1218.24" cy="-213.833" rx="4.00002" ry="4.00002"/>
<polygon fill="#02fdbe" stroke="#02fdbe" points="1193.29,-186.961 1189.78,-176.571 1189.88,-183.297 1186.48,-179.633 1186.48,-179.633 1186.48,-179.633 1189.88,-183.297 1183.18,-182.695 1193.29,-186.961 1193.29,-186.961"/>
</g>
<!-- Webinar -->
<g id="node27" class="node"><title>Webinar</title>
<ellipse fill="none" stroke="black" cx="1682.04" cy="-471" rx="49.2915" ry="18"/>
<text text-anchor="middle" x="1682.04" y="-467.3" font-family="Times,serif" font-size="14.00">Webinar</text>
</g>
<!-- University -->
<g id="node29" class="node"><title>University</title>
<ellipse fill="none" stroke="black" cx="1171.04" cy="-471" rx="61.1893" ry="18"/>
<text text-anchor="middle" x="1171.04" y="-467.3" font-family="Times,serif" font-size="14.00">University</text>
</g>
<!-- University&#45;&gt;Career -->
<g id="edge47" class="edge"><title>University&#45;&gt;Career</title>
<path fill="none" stroke="#721a2b" d="M1155.43,-445.921C1147.03,-432.974 1136.69,-417.029 1128.21,-403.951"/>
<ellipse fill="none" stroke="#721a2b" cx="1157.76" cy="-449.527" rx="4.00002" ry="4.00002"/>
<polygon fill="#721a2b" stroke="#721a2b" points="1128.13,-403.817 1126.46,-392.979 1125.41,-399.622 1122.69,-395.427 1122.69,-395.427 1122.69,-395.427 1125.41,-399.622 1118.91,-397.875 1128.13,-403.817 1128.13,-403.817"/>
</g>
<!-- Resource&#45;&gt;ResourceProgress -->
<g id="edge48" class="edge"><title>Resource&#45;&gt;ResourceProgress</title>
<path fill="none" stroke="#1cfa92" d="M1171.04,-135.64C1171.04,-130.063 1171.04,-124.132 1171.04,-118.476"/>
<ellipse fill="none" stroke="#1cfa92" cx="1171.04" cy="-139.697" rx="4" ry="4"/>
<polygon fill="#1cfa92" stroke="#1cfa92" points="1171.04,-118.104 1175.54,-108.104 1171.04,-113.104 1171.04,-108.104 1171.04,-108.104 1171.04,-108.104 1171.04,-113.104 1166.54,-108.104 1171.04,-118.104 1171.04,-118.104"/>
</g>
<!-- Task -->
<g id="node31" class="node"><title>Task</title>
<ellipse fill="none" stroke="black" cx="630.037" cy="-234" rx="32.4942" ry="18"/>
<text text-anchor="middle" x="630.037" y="-230.3" font-family="Times,serif" font-size="14.00">Task</text>
</g>
<!-- Task&#45;&gt;Question -->
<g id="edge51" class="edge"><title>Task&#45;&gt;Question</title>
<path fill="none" stroke="#aeb0df" d="M591.716,-225.392C576.563,-222.415 558.988,-219.001 543.037,-216 460.366,-200.447 364.406,-183.251 305.455,-172.786"/>
<ellipse fill="none" stroke="#aeb0df" cx="595.935" cy="-226.222" rx="4.00001" ry="4.00001"/>
<polygon fill="#aeb0df" stroke="#aeb0df" points="305.094,-172.722 296.034,-166.545 300.171,-171.849 295.248,-170.975 295.248,-170.975 295.248,-170.975 300.171,-171.849 294.462,-175.406 305.094,-172.722 305.094,-172.722"/>
</g>
<!-- Task&#45;&gt;Answer -->
<g id="edge50" class="edge"><title>Task&#45;&gt;Answer</title>
<path fill="none" stroke="#696ae9" d="M622.916,-208.322C611.074,-172.055 583.686,-105.092 535.037,-72 495.253,-44.9387 441.774,-31.5806 402.198,-25.056"/>
<ellipse fill="none" stroke="#696ae9" cx="624.135" cy="-212.181" rx="4.00001" ry="4.00001"/>
<polygon fill="#696ae9" stroke="#696ae9" points="402.079,-25.0375 392.888,-19.0562 397.138,-24.2702 392.197,-23.5029 392.197,-23.5029 392.197,-23.5029 397.138,-24.2702 391.506,-27.9496 402.079,-25.0375 402.079,-25.0375"/>
</g>
<!-- Task&#45;&gt;Resource -->
<g id="edge49" class="edge"><title>Task&#45;&gt;Resource</title>
<path fill="none" stroke="#6eb7ec" d="M669.989,-228.945C777.255,-218.005 1066.34,-188.164 1109.04,-180 1114.07,-179.037 1119.3,-177.873 1124.48,-176.609"/>
<ellipse fill="none" stroke="#6eb7ec" cx="665.963" cy="-229.355" rx="4" ry="4"/>
<ellipse fill="#6eb7ec" stroke="#6eb7ec" cx="1128.68" cy="-175.543" rx="4.00001" ry="4.00001"/>
</g>
</g>
</svg>
