<?xml version="1.0" encoding="UTF-8" standalone="no"?>
<!DOCTYPE svg PUBLIC "-//W3C//DTD SVG 1.1//EN"
 "http://www.w3.org/Graphics/SVG/1.1/DTD/svg11.dtd">
<!-- Generated by graphviz version 2.38.0 (20140413.2041)
 -->
<!-- Title: models_diagram Pages: 1 -->
<svg width="1644pt" height="518pt"
 viewBox="0.00 0.00 1644.00 518.00" xmlns="http://www.w3.org/2000/svg" xmlns:xlink="http://www.w3.org/1999/xlink">
<g id="graph0" class="graph" transform="scale(1 1) rotate(0) translate(4 514)">
<title>models_diagram</title>
<polygon fill="none" stroke="none" points="-4,4 -4,-514 1640,-514 1640,4 -4,4"/>
<!-- _diagram_info -->
<g id="node1" class="node"><title>_diagram_info</title>
<text text-anchor="start" x="129" y="-495.6" font-family="Times,serif" font-size="13.00">Models diagram</text>
<text text-anchor="start" x="129" y="-481.6" font-family="Times,serif" font-size="13.00">Date: Oct 18 2016 &#45; 11:07</text>
<text text-anchor="start" x="129" y="-467.6" font-family="Times,serif" font-size="13.00">Migration version: 20161018150110</text>
<text text-anchor="start" x="129" y="-453.6" font-family="Times,serif" font-size="13.00">Generated by RailRoady 1.5.1</text>
<text text-anchor="start" x="129" y="-439.6" font-family="Times,serif" font-size="13.00">http://railroady.prestonlee.com</text>
</g>
<!-- Course -->
<g id="node2" class="node"><title>Course</title>
<ellipse fill="none" stroke="black" cx="415" cy="-471" rx="42.4939" ry="18"/>
<text text-anchor="middle" x="415" y="-467.3" font-family="Times,serif" font-size="14.00">Course</text>
</g>
<!-- Category -->
<g id="node4" class="node"><title>Category</title>
<ellipse fill="none" stroke="black" cx="169" cy="-306" rx="53.8905" ry="18"/>
<text text-anchor="middle" x="169" y="-302.3" font-family="Times,serif" font-size="14.00">Category</text>
</g>
<!-- Course&#45;&gt;Category -->
<g id="edge1" class="edge"><title>Course&#45;&gt;Category</title>
<path fill="none" stroke="#aaf4c6" d="M391.1,-449.383C382.918,-443.113 373.438,-436.656 364,-432 311.386,-406.044 285.511,-428.995 237,-396 213.404,-379.95 194.514,-353.053 182.689,-333.02"/>
<ellipse fill="none" stroke="#aaf4c6" cx="394.503" cy="-452.08" rx="4.00002" ry="4.00002"/>
<polygon fill="#aaf4c6" stroke="#aaf4c6" points="182.554,-332.783 181.524,-321.865 180.083,-328.436 177.612,-324.089 177.612,-324.089 177.612,-324.089 180.083,-328.436 173.7,-326.313 182.554,-332.783 182.554,-332.783"/>
</g>
<!-- SubCategory -->
<g id="node5" class="node"><title>SubCategory</title>
<ellipse fill="none" stroke="black" cx="175" cy="-234" rx="70.6878" ry="18"/>
<text text-anchor="middle" x="175" y="-230.3" font-family="Times,serif" font-size="14.00">SubCategory</text>
</g>
<!-- Course&#45;&gt;SubCategory -->
<g id="edge2" class="edge"><title>Course&#45;&gt;SubCategory</title>
<path fill="none" stroke="#abdb39" d="M388.968,-448.461C381.224,-442.655 372.525,-436.691 364,-432 324.805,-410.432 301.197,-428.064 270,-396 234.516,-359.529 259.887,-330.562 232,-288 224.696,-276.852 214.558,-266.427 204.856,-257.822"/>
<polygon fill="#abdb39" stroke="#abdb39" points="389.032,-448.51 394.188,-458.189 392.987,-451.57 396.941,-454.63 396.941,-454.63 396.941,-454.63 392.987,-451.57 399.695,-451.07 389.032,-448.51 389.032,-448.51"/>
<polygon fill="#abdb39" stroke="#abdb39" points="204.845,-257.814 200.146,-247.906 201.038,-254.573 197.23,-251.333 197.23,-251.333 197.23,-251.333 201.038,-254.573 194.313,-254.76 204.845,-257.814 204.845,-257.814"/>
</g>
<!-- User -->
<g id="node8" class="node"><title>User</title>
<ellipse fill="none" stroke="black" cx="311" cy="-378" rx="32.4942" ry="18"/>
<text text-anchor="middle" x="311" y="-374.3" font-family="Times,serif" font-size="14.00">User</text>
</g>
<!-- Course&#45;&gt;User -->
<g id="edge5" class="edge"><title>Course&#45;&gt;User</title>
<path fill="none" stroke="#81307f" d="M389.814,-447.962C373.241,-433.461 351.664,-414.581 335.278,-400.243"/>
<polygon fill="#81307f" stroke="#81307f" points="389.832,-447.978 394.395,-457.95 393.595,-451.271 397.358,-454.563 397.358,-454.563 397.358,-454.563 393.595,-451.271 400.321,-451.176 389.832,-447.978 389.832,-447.978"/>
<polygon fill="#81307f" stroke="#81307f" points="335.221,-400.193 330.658,-390.221 331.458,-396.901 327.695,-393.608 327.695,-393.608 327.695,-393.608 331.458,-396.901 324.732,-396.995 335.221,-400.193 335.221,-400.193"/>
</g>
<!-- LiveClass -->
<g id="node10" class="node"><title>LiveClass</title>
<ellipse fill="none" stroke="black" cx="415" cy="-378" rx="53.8905" ry="18"/>
<text text-anchor="middle" x="415" y="-374.3" font-family="Times,serif" font-size="14.00">LiveClass</text>
</g>
<!-- Course&#45;&gt;LiveClass -->
<g id="edge7" class="edge"><title>Course&#45;&gt;LiveClass</title>
<path fill="none" stroke="#25e3b2" d="M415,-444.729C415,-432.118 415,-416.905 415,-404.292"/>
<ellipse fill="none" stroke="#25e3b2" cx="415" cy="-448.884" rx="4" ry="4"/>
<ellipse fill="#25e3b2" stroke="#25e3b2" cx="415" cy="-400.04" rx="4" ry="4"/>
</g>
<!-- Test -->
<g id="node16" class="node"><title>Test</title>
<ellipse fill="none" stroke="black" cx="491" cy="-306" rx="31.6951" ry="18"/>
<text text-anchor="middle" x="491" y="-302.3" font-family="Times,serif" font-size="14.00">Test</text>
</g>
<!-- Course&#45;&gt;Test -->
<g id="edge6" class="edge"><title>Course&#45;&gt;Test</title>
<path fill="none" stroke="#d0e71f" d="M438.889,-448.685C452.614,-435.025 468.887,-416.127 478,-396 486.789,-376.589 489.902,-352.585 490.893,-334.4"/>
<ellipse fill="none" stroke="#d0e71f" cx="435.672" cy="-451.797" rx="4.00002" ry="4.00002"/>
<polygon fill="#d0e71f" stroke="#d0e71f" points="490.901,-334.176 495.76,-324.345 491.082,-329.179 491.263,-324.183 491.263,-324.183 491.263,-324.183 491.082,-329.179 486.765,-324.02 490.901,-334.176 490.901,-334.176"/>
</g>
<!-- CourseUser -->
<g id="node24" class="node"><title>CourseUser</title>
<ellipse fill="none" stroke="black" cx="847" cy="-306" rx="63.8893" ry="18"/>
<text text-anchor="middle" x="847" y="-302.3" font-family="Times,serif" font-size="14.00">CourseUser</text>
</g>
<!-- Course&#45;&gt;CourseUser -->
<g id="edge4" class="edge"><title>Course&#45;&gt;CourseUser</title>
<path fill="none" stroke="#ba1c8d" d="M453.357,-455.527C532.852,-425.533 715.295,-356.694 800.971,-324.367"/>
<ellipse fill="none" stroke="#ba1c8d" cx="449.465" cy="-456.996" rx="4.00001" ry="4.00001"/>
<polygon fill="#ba1c8d" stroke="#ba1c8d" points="801.078,-324.327 812.023,-325.007 805.757,-322.562 810.435,-320.797 810.435,-320.797 810.435,-320.797 805.757,-322.562 808.846,-316.586 801.078,-324.327 801.078,-324.327"/>
</g>
<!-- Section -->
<g id="node25" class="node"><title>Section</title>
<ellipse fill="none" stroke="black" cx="1195" cy="-234" rx="45.4919" ry="18"/>
<text text-anchor="middle" x="1195" y="-230.3" font-family="Times,serif" font-size="14.00">Section</text>
</g>
<!-- Course&#45;&gt;Section -->
<g id="edge3" class="edge"><title>Course&#45;&gt;Section</title>
<path fill="none" stroke="#2062ca" d="M456.761,-457.93C507.439,-443.282 595.485,-417.832 671,-396 781.668,-364.005 809.851,-357.74 920,-324 1002.21,-298.819 1097.56,-267.478 1151.63,-249.502"/>
<ellipse fill="none" stroke="#2062ca" cx="452.799" cy="-459.075" rx="4.00001" ry="4.00001"/>
<polygon fill="#2062ca" stroke="#2062ca" points="1151.75,-249.463 1162.66,-250.575 1156.5,-247.884 1161.24,-246.305 1161.24,-246.305 1161.24,-246.305 1156.5,-247.884 1159.82,-242.036 1151.75,-249.463 1151.75,-249.463"/>
</g>
<!-- Tutorial -->
<g id="node3" class="node"><title>Tutorial</title>
<ellipse fill="none" stroke="black" cx="928" cy="-162" rx="48.9926" ry="18"/>
<text text-anchor="middle" x="928" y="-158.3" font-family="Times,serif" font-size="14.00">Tutorial</text>
</g>
<!-- Category&#45;&gt;SubCategory -->
<g id="edge8" class="edge"><title>Category&#45;&gt;SubCategory</title>
<path fill="none" stroke="#bb3084" d="M171.174,-279.64C171.652,-274.063 172.16,-268.132 172.645,-262.476"/>
<ellipse fill="none" stroke="#bb3084" cx="170.825" cy="-283.711" rx="4" ry="4"/>
<polygon fill="#bb3084" stroke="#bb3084" points="172.68,-262.068 178.017,-252.489 173.107,-257.086 173.534,-252.104 173.534,-252.104 173.534,-252.104 173.107,-257.086 169.05,-251.72 172.68,-262.068 172.68,-262.068"/>
</g>
<!-- Question -->
<g id="node9" class="node"><title>Question</title>
<ellipse fill="none" stroke="black" cx="307" cy="-162" rx="51.9908" ry="18"/>
<text text-anchor="middle" x="307" y="-158.3" font-family="Times,serif" font-size="14.00">Question</text>
</g>
<!-- Category&#45;&gt;Question -->
<g id="edge10" class="edge"><title>Category&#45;&gt;Question</title>
<path fill="none" stroke="#63759c" d="M128.769,-286.031C115.537,-277.6 102.346,-266.297 95,-252 87.6878,-237.769 85.1534,-228.611 95,-216 113.683,-192.072 191.859,-177.348 247.843,-169.672"/>
<polygon fill="#63759c" stroke="#63759c" points="128.81,-286.055 135.112,-295.029 133.109,-288.608 137.409,-291.16 137.409,-291.16 137.409,-291.16 133.109,-288.608 139.706,-287.29 128.81,-286.055 128.81,-286.055"/>
<polygon fill="#63759c" stroke="#63759c" points="248.106,-169.637 258.611,-172.78 253.062,-168.978 258.018,-168.32 258.018,-168.32 258.018,-168.32 253.062,-168.978 257.426,-163.859 248.106,-169.637 248.106,-169.637"/>
</g>
<!-- Answer -->
<g id="node14" class="node"><title>Answer</title>
<ellipse fill="none" stroke="black" cx="277" cy="-18" rx="46.2923" ry="18"/>
<text text-anchor="middle" x="277" y="-14.3" font-family="Times,serif" font-size="14.00">Answer</text>
</g>
<!-- Category&#45;&gt;Answer -->
<g id="edge9" class="edge"><title>Category&#45;&gt;Answer</title>
<path fill="none" stroke="#bc977e" d="M124.333,-287.66C109.045,-279.318 93.6314,-267.652 85,-252 77.2736,-237.989 80.5508,-231.369 85,-216 106.053,-143.278 120.36,-123.341 176,-72 193.009,-56.305 215.539,-43.894 235.004,-35.0398"/>
<polygon fill="#bc977e" stroke="#bc977e" points="124.349,-287.668 131.232,-296.206 128.808,-289.93 133.267,-292.192 133.267,-292.192 133.267,-292.192 128.808,-289.93 135.303,-288.179 124.349,-287.668 124.349,-287.668"/>
<polygon fill="#bc977e" stroke="#bc977e" points="235.115,-34.9912 246.08,-35.1023 239.695,-32.9857 244.275,-30.9801 244.275,-30.9801 244.275,-30.9801 239.695,-32.9857 242.47,-26.858 235.115,-34.9912 235.115,-34.9912"/>
</g>
<!-- SubCategory&#45;&gt;Tutorial -->
<g id="edge14" class="edge"><title>SubCategory&#45;&gt;Tutorial</title>
<path fill="none" stroke="#2ca108" d="M232.809,-219.495C239.918,-218.15 247.106,-216.938 254,-216 525.744,-179.044 599.79,-226.869 870,-180 874.363,-179.243 878.864,-178.274 883.339,-177.183"/>
<ellipse fill="none" stroke="#2ca108" cx="228.447" cy="-220.354" rx="4.00001" ry="4.00001"/>
<polygon fill="#2ca108" stroke="#2ca108" points="883.358,-177.178 894.173,-178.987 888.193,-175.906 893.029,-174.634 893.029,-174.634 893.029,-174.634 888.193,-175.906 891.884,-170.282 883.358,-177.178 883.358,-177.178"/>
</g>
<!-- Choice -->
<g id="node7" class="node"><title>Choice</title>
<ellipse fill="none" stroke="black" cx="243" cy="-90" rx="40.0939" ry="18"/>
<text text-anchor="middle" x="243" y="-86.3" font-family="Times,serif" font-size="14.00">Choice</text>
</g>
<!-- SubCategory&#45;&gt;Choice -->
<g id="edge12" class="edge"><title>SubCategory&#45;&gt;Choice</title>
<path fill="none" stroke="#5f883c" d="M187.566,-206.76C199.847,-181.114 218.428,-142.313 230.638,-116.814"/>
<polygon fill="#5f883c" stroke="#5f883c" points="187.521,-206.852 179.144,-213.928 185.362,-211.362 183.202,-215.871 183.202,-215.871 183.202,-215.871 185.362,-211.362 187.261,-217.815 187.521,-206.852 187.521,-206.852"/>
<polygon fill="#5f883c" stroke="#5f883c" points="230.661,-116.768 239.038,-109.692 232.82,-112.258 234.98,-107.748 234.98,-107.748 234.98,-107.748 232.82,-112.258 230.921,-105.805 230.661,-116.768 230.661,-116.768"/>
</g>
<!-- SubCategory&#45;&gt;Question -->
<g id="edge11" class="edge"><title>SubCategory&#45;&gt;Question</title>
<path fill="none" stroke="#014c89" d="M211.385,-213.705C229.829,-203.924 252.167,-192.078 270.612,-182.297"/>
<ellipse fill="none" stroke="#014c89" cx="207.829" cy="-215.591" rx="4.00002" ry="4.00002"/>
<polygon fill="#014c89" stroke="#014c89" points="270.755,-182.221 281.698,-181.512 275.172,-179.878 279.589,-177.536 279.589,-177.536 279.589,-177.536 275.172,-179.878 277.481,-173.56 270.755,-182.221 270.755,-182.221"/>
</g>
<!-- SubCategory&#45;&gt;Answer -->
<g id="edge13" class="edge"><title>SubCategory&#45;&gt;Answer</title>
<path fill="none" stroke="#b15022" d="M171.507,-205.827C168.549,-171.832 168.234,-113.099 194,-72 203.869,-56.2583 220.316,-44.3306 235.978,-35.8156"/>
<polygon fill="#b15022" stroke="#b15022" points="171.523,-205.992 168.053,-216.395 172.027,-210.967 172.53,-215.942 172.53,-215.942 172.53,-215.942 172.027,-210.967 177.007,-215.489 171.523,-205.992 171.523,-205.992"/>
<polygon fill="#b15022" stroke="#b15022" points="236.142,-35.732 247.095,-35.2033 240.597,-33.4627 245.053,-31.1934 245.053,-31.1934 245.053,-31.1934 240.597,-33.4627 243.01,-27.1836 236.142,-35.732 236.142,-35.732"/>
</g>
<!-- Plan -->
<g id="node6" class="node"><title>Plan</title>
<ellipse fill="none" stroke="black" cx="847" cy="-234" rx="30.5947" ry="18"/>
<text text-anchor="middle" x="847" y="-230.3" font-family="Times,serif" font-size="14.00">Plan</text>
</g>
<!-- Plan&#45;&gt;CourseUser -->
<g id="edge16" class="edge"><title>Plan&#45;&gt;CourseUser</title>
<path fill="none" stroke="#1040b6" d="M853.589,-261.968C853.801,-267.176 853.803,-272.634 853.597,-277.848"/>
<polygon fill="#1040b6" stroke="#1040b6" points="853.575,-261.764 857.35,-251.468 853.218,-256.776 852.862,-251.789 852.862,-251.789 852.862,-251.789 853.218,-256.776 848.373,-252.11 853.575,-261.764 853.575,-261.764"/>
<polygon fill="#1040b6" stroke="#1040b6" points="853.581,-278.08 848.389,-287.739 853.229,-283.067 852.878,-288.055 852.878,-288.055 852.878,-288.055 853.229,-283.067 857.367,-288.371 853.581,-278.08 853.581,-278.08"/>
</g>
<!-- CourseUserPlan -->
<g id="node26" class="node"><title>CourseUserPlan</title>
<ellipse fill="none" stroke="black" cx="778" cy="-162" rx="83.3857" ry="18"/>
<text text-anchor="middle" x="778" y="-158.3" font-family="Times,serif" font-size="14.00">CourseUserPlan</text>
</g>
<!-- Plan&#45;&gt;CourseUserPlan -->
<g id="edge15" class="edge"><title>Plan&#45;&gt;CourseUserPlan</title>
<path fill="none" stroke="#f990bc" d="M826.615,-212.32C818.791,-204.382 809.796,-195.257 801.687,-187.031"/>
<ellipse fill="none" stroke="#f990bc" cx="829.559" cy="-215.306" rx="4.00002" ry="4.00002"/>
<polygon fill="#f990bc" stroke="#f990bc" points="801.569,-186.911 797.754,-176.63 798.059,-183.35 794.549,-179.789 794.549,-179.789 794.549,-179.789 798.059,-183.35 791.344,-182.948 801.569,-186.911 801.569,-186.911"/>
</g>
<!-- Choice&#45;&gt;Answer -->
<g id="edge17" class="edge"><title>Choice&#45;&gt;Answer</title>
<path fill="none" stroke="#c6fda5" d="M254.796,-64.7144C257.911,-58.3016 261.283,-51.3577 264.437,-44.8648"/>
<ellipse fill="none" stroke="#c6fda5" cx="252.978" cy="-68.4569" rx="4.00002" ry="4.00002"/>
<polygon fill="#c6fda5" stroke="#c6fda5" points="264.476,-44.7841 272.893,-37.7551 266.661,-40.2865 268.845,-35.789 268.845,-35.789 268.845,-35.789 266.661,-40.2865 264.798,-33.8229 264.476,-44.7841 264.476,-44.7841"/>
</g>
<!-- User&#45;&gt;Category -->
<g id="edge19" class="edge"><title>User&#45;&gt;Category</title>
<path fill="none" stroke="#37380d" d="M278.374,-360.917C257.12,-350.44 229.309,-336.73 207.05,-325.757"/>
<polygon fill="#37380d" stroke="#37380d" points="278.582,-361.019 285.562,-369.477 283.067,-363.23 287.552,-365.441 287.552,-365.441 287.552,-365.441 283.067,-363.23 289.541,-361.405 278.582,-361.019 278.582,-361.019"/>
<polygon fill="#37380d" stroke="#37380d" points="206.855,-325.661 199.875,-317.203 202.37,-323.45 197.886,-321.239 197.886,-321.239 197.886,-321.239 202.37,-323.45 195.896,-325.276 206.855,-325.661 206.855,-325.661"/>
</g>
<!-- User&#45;&gt;SubCategory -->
<g id="edge20" class="edge"><title>User&#45;&gt;SubCategory</title>
<path fill="none" stroke="#119b91" d="M301.923,-350.608C294.343,-331.506 282.025,-305.991 265,-288 252.081,-274.348 234.868,-263.062 218.957,-254.464"/>
<polygon fill="#119b91" stroke="#119b91" points="302.014,-350.85 301.341,-361.795 303.782,-355.527 305.55,-360.204 305.55,-360.204 305.55,-360.204 303.782,-355.527 309.759,-358.613 302.014,-350.85 302.014,-350.85"/>
<polygon fill="#119b91" stroke="#119b91" points="218.663,-254.312 211.85,-245.719 214.222,-252.014 209.782,-249.715 209.782,-249.715 209.782,-249.715 214.222,-252.014 207.713,-253.712 218.663,-254.312 218.663,-254.312"/>
</g>
<!-- User&#45;&gt;Answer -->
<g id="edge21" class="edge"><title>User&#45;&gt;Answer</title>
<path fill="none" stroke="#d3f6cb" d="M270.227,-376.529C185.872,-373.179 0,-352.469 0,-235 0,-235 0,-235 0,-161 0,-62.2743 141.063,-32.1399 221.858,-22.9769"/>
<ellipse fill="none" stroke="#d3f6cb" cx="274.308" cy="-376.67" rx="4" ry="4"/>
<polygon fill="#d3f6cb" stroke="#d3f6cb" points="221.935,-22.9689 232.354,-26.3874 226.907,-22.4407 231.879,-21.9126 231.879,-21.9126 231.879,-21.9126 226.907,-22.4407 231.403,-17.4378 221.935,-22.9689 221.935,-22.9689"/>
</g>
<!-- User&#45;&gt;Test -->
<g id="edge23" class="edge"><title>User&#45;&gt;Test</title>
<path fill="none" stroke="#c980fb" d="M345.588,-362.576C347.755,-361.698 349.906,-360.833 352,-360 387.097,-346.036 427.461,-330.729 455.617,-320.17"/>
<polygon fill="#c980fb" stroke="#c980fb" points="345.361,-362.669 334.401,-362.292 340.733,-364.563 336.105,-366.456 336.105,-366.456 336.105,-366.456 340.733,-364.563 337.81,-370.621 345.361,-362.669 345.361,-362.669"/>
<polygon fill="#c980fb" stroke="#c980fb" points="455.674,-320.15 466.617,-320.859 460.356,-318.397 465.039,-316.644 465.039,-316.644 465.039,-316.644 460.356,-318.397 463.462,-312.43 455.674,-320.15 455.674,-320.15"/>
</g>
<!-- UserAttitudeTest -->
<g id="node17" class="node"><title>UserAttitudeTest</title>
<ellipse fill="none" stroke="black" cx="357" cy="-234" rx="93.6835" ry="18"/>
<text text-anchor="middle" x="357" y="-230.3" font-family="Times,serif" font-size="14.00">UserAttitudeTest</text>
</g>
<!-- User&#45;&gt;UserAttitudeTest -->
<g id="edge22" class="edge"><title>User&#45;&gt;UserAttitudeTest</title>
<path fill="none" stroke="#0b8091" d="M319.023,-352.233C327.209,-326.964 339.872,-287.872 348.296,-261.869"/>
<ellipse fill="none" stroke="#0b8091" cx="317.69" cy="-356.348" rx="4.00001" ry="4.00001"/>
<polygon fill="#0b8091" stroke="#0b8091" points="348.324,-261.781 355.687,-253.655 349.865,-257.024 351.406,-252.268 351.406,-252.268 351.406,-252.268 349.865,-257.024 347.125,-250.881 348.324,-261.781 348.324,-261.781"/>
</g>
<!-- User&#45;&gt;CourseUser -->
<g id="edge18" class="edge"><title>User&#45;&gt;CourseUser</title>
<path fill="none" stroke="#a639ac" d="M342.577,-362.866C345.72,-361.775 348.897,-360.792 352,-360 498.397,-322.64 675.676,-311.59 773.395,-308.338"/>
<ellipse fill="none" stroke="#a639ac" cx="338.633" cy="-364.347" rx="4.00001" ry="4.00001"/>
<polygon fill="#a639ac" stroke="#a639ac" points="773.471,-308.336 783.607,-312.519 778.468,-308.179 783.466,-308.021 783.466,-308.021 783.466,-308.021 778.468,-308.179 783.324,-303.524 773.471,-308.336 773.471,-308.336"/>
</g>
<!-- Question&#45;&gt;Choice -->
<g id="edge25" class="edge"><title>Question&#45;&gt;Choice</title>
<path fill="none" stroke="#00aaad" d="M286.239,-138.293C279.378,-130.789 271.728,-122.421 264.792,-114.835"/>
<ellipse fill="none" stroke="#00aaad" cx="289.134" cy="-141.459" rx="4.00002" ry="4.00002"/>
<polygon fill="#00aaad" stroke="#00aaad" points="264.365,-114.368 260.939,-103.952 260.992,-110.678 257.618,-106.988 257.618,-106.988 257.618,-106.988 260.992,-110.678 254.297,-110.025 264.365,-114.368 264.365,-114.368"/>
</g>
<!-- Question&#45;&gt;Question -->
<g id="edge26" class="edge"><title>Question&#45;&gt;Question</title>
<path fill="none" stroke="#296be4" d="M351.237,-175.498C365.59,-175.398 376.995,-170.899 376.995,-162 376.995,-153.513 366.622,-149.028 353.211,-148.544"/>
<ellipse fill="none" stroke="#296be4" cx="347.009" cy="-175.294" rx="4" ry="4"/>
<polygon fill="#296be4" stroke="#296be4" points="353.008,-148.551 342.857,-144.402 348.011,-148.725 343.014,-148.899 343.014,-148.899 343.014,-148.899 348.011,-148.725 343.171,-153.396 353.008,-148.551 353.008,-148.551"/>
</g>
<!-- Question&#45;&gt;Answer -->
<g id="edge24" class="edge"><title>Question&#45;&gt;Answer</title>
<path fill="none" stroke="#4502cd" d="M303.474,-135.622C300.806,-117.738 296.79,-93.2822 292,-72 290.059,-63.3776 287.565,-54.0731 285.169,-45.7028"/>
<ellipse fill="none" stroke="#4502cd" cx="304.095" cy="-139.872" rx="4.00001" ry="4.00001"/>
<polygon fill="#4502cd" stroke="#4502cd" points="285.157,-45.66 286.658,-34.7974 283.749,-40.8624 282.34,-36.0648 282.34,-36.0648 282.34,-36.0648 283.749,-40.8624 278.023,-37.3322 285.157,-45.66 285.157,-45.66"/>
</g>
<!-- Career -->
<g id="node11" class="node"><title>Career</title>
<ellipse fill="none" stroke="black" cx="1133" cy="-378" rx="42.4939" ry="18"/>
<text text-anchor="middle" x="1133" y="-374.3" font-family="Times,serif" font-size="14.00">Career</text>
</g>
<!-- EventType -->
<g id="node12" class="node"><title>EventType</title>
<ellipse fill="none" stroke="black" cx="1333" cy="-471" rx="61.99" ry="18"/>
<text text-anchor="middle" x="1333" y="-467.3" font-family="Times,serif" font-size="14.00">EventType</text>
</g>
<!-- Event -->
<g id="node27" class="node"><title>Event</title>
<ellipse fill="none" stroke="black" cx="1333" cy="-378" rx="38.1938" ry="18"/>
<text text-anchor="middle" x="1333" y="-374.3" font-family="Times,serif" font-size="14.00">Event</text>
</g>
<!-- EventType&#45;&gt;Event -->
<g id="edge27" class="edge"><title>EventType&#45;&gt;Event</title>
<path fill="none" stroke="#47403e" d="M1333,-444.729C1333,-432.725 1333,-418.362 1333,-406.129"/>
<ellipse fill="none" stroke="#47403e" cx="1333" cy="-448.884" rx="4" ry="4"/>
<polygon fill="#47403e" stroke="#47403e" points="1333,-406.04 1337.5,-396.04 1333,-401.04 1333,-396.04 1333,-396.04 1333,-396.04 1333,-401.04 1328.5,-396.04 1333,-406.04 1333,-406.04"/>
</g>
<!-- Video -->
<g id="node13" class="node"><title>Video</title>
<ellipse fill="none" stroke="black" cx="970" cy="-234" rx="36.2938" ry="18"/>
<text text-anchor="middle" x="970" y="-230.3" font-family="Times,serif" font-size="14.00">Video</text>
</g>
<!-- Video&#45;&gt;Tutorial -->
<g id="edge29" class="edge"><title>Video&#45;&gt;Tutorial</title>
<path fill="none" stroke="#e637d3" d="M955.808,-209.346C951.47,-202.116 946.697,-194.162 942.349,-186.915"/>
<ellipse fill="none" stroke="#e637d3" cx="957.989" cy="-212.981" rx="4.00002" ry="4.00002"/>
<ellipse fill="#e637d3" stroke="#e637d3" cx="940.232" cy="-183.386" rx="4.00002" ry="4.00002"/>
</g>
<!-- Resource -->
<g id="node29" class="node"><title>Resource</title>
<ellipse fill="none" stroke="black" cx="1048" cy="-162" rx="53.0913" ry="18"/>
<text text-anchor="middle" x="1048" y="-158.3" font-family="Times,serif" font-size="14.00">Resource</text>
</g>
<!-- Video&#45;&gt;Resource -->
<g id="edge28" class="edge"><title>Video&#45;&gt;Resource</title>
<path fill="none" stroke="#5b4976" d="M993.197,-212.182C1002.86,-203.509 1014.08,-193.437 1023.85,-184.675"/>
<ellipse fill="none" stroke="#5b4976" cx="989.902" cy="-215.139" rx="4.00002" ry="4.00002"/>
<ellipse fill="#5b4976" stroke="#5b4976" cx="1027.05" cy="-181.805" rx="4.00002" ry="4.00002"/>
</g>
<!-- Point -->
<g id="node15" class="node"><title>Point</title>
<ellipse fill="none" stroke="black" cx="1478" cy="-378" rx="35.194" ry="18"/>
<text text-anchor="middle" x="1478" y="-374.3" font-family="Times,serif" font-size="14.00">Point</text>
</g>
<!-- Test&#45;&gt;Question -->
<g id="edge30" class="edge"><title>Test&#45;&gt;Question</title>
<path fill="none" stroke="#76e5b4" d="M488.245,-279.929C484.808,-260.136 477.123,-233.094 460,-216 434.868,-190.91 397.282,-177.677 365.654,-170.707"/>
<ellipse fill="none" stroke="#76e5b4" cx="488.865" cy="-283.965" rx="4.00001" ry="4.00001"/>
<polygon fill="#76e5b4" stroke="#76e5b4" points="365.415,-170.659 356.518,-164.249 360.517,-169.658 355.618,-168.658 355.618,-168.658 355.618,-168.658 360.517,-169.658 354.717,-173.066 365.415,-170.659 365.415,-170.659"/>
</g>
<!-- Test&#45;&gt;Answer -->
<g id="edge31" class="edge"><title>Test&#45;&gt;Answer</title>
<path fill="none" stroke="#252d60" d="M494.036,-280.032C495.199,-261.49 494.437,-236.049 485,-216 446.614,-134.449 358.343,-69.6376 310.049,-38.7323"/>
<ellipse fill="none" stroke="#252d60" cx="493.712" cy="-284.035" rx="4" ry="4"/>
<polygon fill="#252d60" stroke="#252d60" points="309.98,-38.6887 303.916,-29.552 305.749,-36.0243 301.518,-33.3598 301.518,-33.3598 301.518,-33.3598 305.749,-36.0243 299.12,-37.1677 309.98,-38.6887 309.98,-38.6887"/>
</g>
<!-- Test&#45;&gt;UserAttitudeTest -->
<g id="edge33" class="edge"><title>Test&#45;&gt;UserAttitudeTest</title>
<path fill="none" stroke="#1a2819" d="M460.912,-289.282C442.043,-279.425 417.496,-266.602 396.998,-255.894"/>
<ellipse fill="none" stroke="#1a2819" cx="464.723" cy="-291.273" rx="4.00002" ry="4.00002"/>
<polygon fill="#1a2819" stroke="#1a2819" points="396.764,-255.772 389.984,-247.153 392.332,-253.457 387.9,-251.142 387.9,-251.142 387.9,-251.142 392.332,-253.457 385.816,-255.13 396.764,-255.772 396.764,-255.772"/>
</g>
<!-- CourseUserTest -->
<g id="node21" class="node"><title>CourseUserTest</title>
<ellipse fill="none" stroke="black" cx="630" cy="-234" rx="85.2851" ry="18"/>
<text text-anchor="middle" x="630" y="-230.3" font-family="Times,serif" font-size="14.00">CourseUserTest</text>
</g>
<!-- Test&#45;&gt;CourseUserTest -->
<g id="edge32" class="edge"><title>Test&#45;&gt;CourseUserTest</title>
<path fill="none" stroke="#22198b" d="M521.371,-289.705C541.405,-279.616 567.872,-266.288 589.665,-255.313"/>
<ellipse fill="none" stroke="#22198b" cx="517.526" cy="-291.642" rx="4.00002" ry="4.00002"/>
<polygon fill="#22198b" stroke="#22198b" points="589.755,-255.267 600.711,-254.788 594.221,-253.018 598.687,-250.769 598.687,-250.769 598.687,-250.769 594.221,-253.018 596.663,-246.75 589.755,-255.267 589.755,-255.267"/>
</g>
<!-- Blog -->
<g id="node18" class="node"><title>Blog</title>
<ellipse fill="none" stroke="black" cx="1055" cy="-234" rx="30.5947" ry="18"/>
<text text-anchor="middle" x="1055" y="-230.3" font-family="Times,serif" font-size="14.00">Blog</text>
</g>
<!-- Blog&#45;&gt;Tutorial -->
<g id="edge34" class="edge"><title>Blog&#45;&gt;Tutorial</title>
<path fill="none" stroke="#8954bf" d="M1026.42,-217.248C1007.09,-206.592 981.488,-192.482 961.243,-181.323"/>
<ellipse fill="none" stroke="#8954bf" cx="1029.95" cy="-219.195" rx="4.00002" ry="4.00002"/>
<ellipse fill="#8954bf" stroke="#8954bf" cx="957.551" cy="-179.288" rx="4.00002" ry="4.00002"/>
</g>
<!-- Blog&#45;&gt;Resource -->
<g id="edge35" class="edge"><title>Blog&#45;&gt;Resource</title>
<path fill="none" stroke="#3a9676" d="M1052.46,-207.64C1051.83,-201.348 1051.16,-194.605 1050.53,-188.316"/>
<ellipse fill="none" stroke="#3a9676" cx="1052.87" cy="-211.716" rx="4" ry="4"/>
<ellipse fill="#3a9676" stroke="#3a9676" cx="1050.11" cy="-184.084" rx="4" ry="4"/>
</g>
<!-- School -->
<g id="node19" class="node"><title>School</title>
<ellipse fill="none" stroke="black" cx="1073" cy="-471" rx="40.0939" ry="18"/>
<text text-anchor="middle" x="1073" y="-467.3" font-family="Times,serif" font-size="14.00">School</text>
</g>
<!-- School&#45;&gt;Career -->
<g id="edge36" class="edge"><title>School&#45;&gt;Career</title>
<path fill="none" stroke="#8736c2" d="M1088.59,-446.357C1097.13,-433.409 1107.71,-417.363 1116.4,-404.18"/>
<ellipse fill="none" stroke="#8736c2" cx="1086.21" cy="-449.97" rx="4.00002" ry="4.00002"/>
<polygon fill="#8736c2" stroke="#8736c2" points="1116.56,-403.934 1125.82,-398.062 1119.31,-399.759 1122.06,-395.585 1122.06,-395.585 1122.06,-395.585 1119.31,-399.759 1118.31,-393.108 1116.56,-403.934 1116.56,-403.934"/>
</g>
<!-- Student -->
<g id="node20" class="node"><title>Student</title>
<polygon fill="none" stroke="black" stroke-dasharray="1,5" points="1636,-489 1562,-489 1562,-453 1636,-453 1636,-489"/>
<text text-anchor="middle" x="1599" y="-467.3" font-family="Times,serif" font-size="14.00">Student</text>
</g>
<!-- CourseUserTest&#45;&gt;Answer -->
<g id="edge37" class="edge"><title>CourseUserTest&#45;&gt;Answer</title>
<path fill="none" stroke="#3119fd" d="M621.961,-208.329C608.904,-172.364 579.544,-106.117 531,-72 499.296,-49.7185 395.485,-33.4479 330.805,-25.1725"/>
<ellipse fill="none" stroke="#3119fd" cx="623.315" cy="-212.17" rx="4.00001" ry="4.00001"/>
<polygon fill="#3119fd" stroke="#3119fd" points="330.7,-25.1594 321.339,-19.4484 325.739,-24.5364 320.778,-23.9134 320.778,-23.9134 320.778,-23.9134 325.739,-24.5364 320.217,-28.3783 330.7,-25.1594 330.7,-25.1594"/>
</g>
<!-- PointAction -->
<g id="node22" class="node"><title>PointAction</title>
<ellipse fill="none" stroke="black" cx="1478" cy="-471" rx="65.7887" ry="18"/>
<text text-anchor="middle" x="1478" y="-467.3" font-family="Times,serif" font-size="14.00">PointAction</text>
</g>
<!-- PointAction&#45;&gt;Point -->
<g id="edge38" class="edge"><title>PointAction&#45;&gt;Point</title>
<path fill="none" stroke="#fe2442" d="M1478,-444.729C1478,-432.725 1478,-418.362 1478,-406.129"/>
<ellipse fill="none" stroke="#fe2442" cx="1478" cy="-448.884" rx="4" ry="4"/>
<polygon fill="#fe2442" stroke="#fe2442" points="1478,-406.04 1482.5,-396.04 1478,-401.04 1478,-396.04 1478,-396.04 1478,-396.04 1478,-401.04 1473.5,-396.04 1478,-406.04 1478,-406.04"/>
</g>
<!-- ResourceProgress -->
<g id="node23" class="node"><title>ResourceProgress</title>
<ellipse fill="none" stroke="black" cx="1129" cy="-90" rx="94.7833" ry="18"/>
<text text-anchor="middle" x="1129" y="-86.3" font-family="Times,serif" font-size="14.00">ResourceProgress</text>
</g>
<!-- CourseUser&#45;&gt;Plan -->
<g id="edge42" class="edge"><title>CourseUser&#45;&gt;Plan</title>
<path fill="none" stroke="#04a884" d="M840.494,-279.861C840.169,-273.449 840.169,-266.557 840.494,-260.145"/>
<ellipse fill="none" stroke="#04a884" cx="840.816" cy="-284.067" rx="4" ry="4"/>
<ellipse fill="#04a884" stroke="#04a884" cx="840.831" cy="-255.777" rx="4" ry="4"/>
</g>
<!-- CourseUser&#45;&gt;CourseUserTest -->
<g id="edge40" class="edge"><title>CourseUser&#45;&gt;CourseUserTest</title>
<path fill="none" stroke="#e4aaac" d="M798.989,-289.513C765.044,-278.562 719.489,-263.867 684.232,-252.494"/>
<ellipse fill="none" stroke="#e4aaac" cx="802.886" cy="-290.77" rx="4.00001" ry="4.00001"/>
<polygon fill="#e4aaac" stroke="#e4aaac" points="684.095,-252.45 675.96,-245.097 679.337,-250.915 674.578,-249.38 674.578,-249.38 674.578,-249.38 679.337,-250.915 673.197,-253.663 684.095,-252.45 684.095,-252.45"/>
</g>
<!-- CourseUser&#45;&gt;ResourceProgress -->
<g id="edge39" class="edge"><title>CourseUser&#45;&gt;ResourceProgress</title>
<path fill="none" stroke="#629b3d" d="M914.793,-298.771C979.298,-291.432 1070.1,-276.959 1095,-252 1130.38,-216.534 1133.24,-154.111 1131.54,-118.304"/>
<ellipse fill="none" stroke="#629b3d" cx="910.643" cy="-299.232" rx="4.00001" ry="4.00001"/>
<polygon fill="#629b3d" stroke="#629b3d" points="1131.52,-118.085 1135.38,-107.821 1131.21,-113.095 1130.89,-108.105 1130.89,-108.105 1130.89,-108.105 1131.21,-113.095 1126.4,-108.39 1131.52,-118.085 1131.52,-118.085"/>
</g>
<!-- CourseUser&#45;&gt;CourseUserPlan -->
<g id="edge41" class="edge"><title>CourseUser&#45;&gt;CourseUserPlan</title>
<path fill="none" stroke="#ce9a1f" d="M869.5,-282.134C884.884,-263.623 900.285,-237.231 887,-216 876.208,-198.753 858.02,-186.974 839.561,-178.992"/>
<ellipse fill="none" stroke="#ce9a1f" cx="866.515" cy="-285.558" rx="4.00002" ry="4.00002"/>
<ellipse fill="#ce9a1f" stroke="#ce9a1f" cx="835.364" cy="-177.297" rx="4.00001" ry="4.00001"/>
</g>
<!-- Section&#45;&gt;ResourceProgress -->
<g id="edge44" class="edge"><title>Section&#45;&gt;ResourceProgress</title>
<path fill="none" stroke="#f2c348" d="M1183.66,-208.6C1171.88,-183.247 1153.49,-143.695 1141.35,-117.567"/>
<ellipse fill="none" stroke="#f2c348" cx="1185.48" cy="-212.526" rx="4.00002" ry="4.00002"/>
<polygon fill="#f2c348" stroke="#f2c348" points="1141.24,-117.336 1141.11,-106.371 1139.13,-112.802 1137.03,-108.268 1137.03,-108.268 1137.03,-108.268 1139.13,-112.802 1132.95,-110.165 1141.24,-117.336 1141.24,-117.336"/>
</g>
<!-- Section&#45;&gt;Resource -->
<g id="edge43" class="edge"><title>Section&#45;&gt;Resource</title>
<path fill="none" stroke="#d9a540" d="M1159.51,-216.101C1137.6,-205.665 1109.46,-192.267 1086.93,-181.54"/>
<ellipse fill="none" stroke="#d9a540" cx="1163.39" cy="-217.949" rx="4.00002" ry="4.00002"/>
<polygon fill="#d9a540" stroke="#d9a540" points="1086.69,-181.422 1079.59,-173.06 1082.17,-179.272 1077.66,-177.122 1077.66,-177.122 1077.66,-177.122 1082.17,-179.272 1075.72,-181.185 1086.69,-181.422 1086.69,-181.422"/>
</g>
<!-- University -->
<g id="node28" class="node"><title>University</title>
<ellipse fill="none" stroke="black" cx="1192" cy="-471" rx="61.1893" ry="18"/>
<text text-anchor="middle" x="1192" y="-467.3" font-family="Times,serif" font-size="14.00">University</text>
</g>
<!-- University&#45;&gt;Career -->
<g id="edge45" class="edge"><title>University&#45;&gt;Career</title>
<path fill="none" stroke="#6e8443" d="M1176.39,-445.921C1167.99,-432.974 1157.66,-417.029 1149.18,-403.951"/>
<ellipse fill="none" stroke="#6e8443" cx="1178.73" cy="-449.527" rx="4.00002" ry="4.00002"/>
<polygon fill="#6e8443" stroke="#6e8443" points="1149.09,-403.817 1147.43,-392.979 1146.37,-399.622 1143.65,-395.427 1143.65,-395.427 1143.65,-395.427 1146.37,-399.622 1139.87,-397.875 1149.09,-403.817 1149.09,-403.817"/>
</g>
<!-- Resource&#45;&gt;ResourceProgress -->
<g id="edge46" class="edge"><title>Resource&#45;&gt;ResourceProgress</title>
<path fill="none" stroke="#50d0e9" d="M1073.11,-139.303C1082.24,-131.406 1092.61,-122.449 1101.91,-114.411"/>
<ellipse fill="none" stroke="#50d0e9" cx="1069.81" cy="-142.149" rx="4.00002" ry="4.00002"/>
<polygon fill="#50d0e9" stroke="#50d0e9" points="1102.19,-114.172 1112.7,-111.038 1105.97,-110.903 1109.75,-107.633 1109.75,-107.633 1109.75,-107.633 1105.97,-110.903 1106.81,-104.229 1102.19,-114.172 1102.19,-114.172"/>
</g>
<!-- Task -->
<g id="node30" class="node"><title>Task</title>
<ellipse fill="none" stroke="black" cx="766" cy="-234" rx="32.4942" ry="18"/>
<text text-anchor="middle" x="766" y="-230.3" font-family="Times,serif" font-size="14.00">Task</text>
</g>
<!-- Task&#45;&gt;Question -->
<g id="edge49" class="edge"><title>Task&#45;&gt;Question</title>
<path fill="none" stroke="#f6abed" d="M733.896,-219.033C730.592,-217.89 727.254,-216.85 724,-216 600.255,-183.675 450.507,-170.77 368.353,-165.844"/>
<ellipse fill="none" stroke="#f6abed" cx="737.735" cy="-220.456" rx="4.00001" ry="4.00001"/>
<polygon fill="#f6abed" stroke="#f6abed" points="368.174,-165.834 358.451,-160.763 363.182,-165.545 358.191,-165.255 358.191,-165.255 358.191,-165.255 363.182,-165.545 357.93,-169.748 368.174,-165.834 368.174,-165.834"/>
</g>
<!-- Task&#45;&gt;Answer -->
<g id="edge48" class="edge"><title>Task&#45;&gt;Answer</title>
<path fill="none" stroke="#f519f9" d="M737.847,-215.709C722.209,-205.771 702.615,-192.759 686,-180 628.565,-135.895 629.093,-103.733 564,-72 489.516,-35.6883 393.073,-24.1411 333.123,-20.5367"/>
<ellipse fill="none" stroke="#f519f9" cx="741.345" cy="-217.914" rx="4.00002" ry="4.00002"/>
<polygon fill="#f519f9" stroke="#f519f9" points="333.081,-20.5345 323.342,-15.4944 328.089,-20.2611 323.096,-19.9877 323.096,-19.9877 323.096,-19.9877 328.089,-20.2611 322.85,-24.4809 333.081,-20.5345 333.081,-20.5345"/>
</g>
<!-- Task&#45;&gt;Resource -->
<g id="edge47" class="edge"><title>Task&#45;&gt;Resource</title>
<path fill="none" stroke="#f65c14" d="M797.907,-219.073C800.953,-217.955 804.017,-216.909 807,-216 884.625,-192.348 907.045,-198.74 986,-180 990.846,-178.85 995.887,-177.584 1000.91,-176.278"/>
<ellipse fill="none" stroke="#f65c14" cx="794.164" cy="-220.519" rx="4.00001" ry="4.00001"/>
<ellipse fill="#f65c14" stroke="#f65c14" cx="1004.88" cy="-175.226" rx="4.00001" ry="4.00001"/>
</g>
</g>
</svg>
