<?xml version="1.0" encoding="UTF-8" standalone="no"?>
<!DOCTYPE svg PUBLIC "-//W3C//DTD SVG 1.1//EN"
 "http://www.w3.org/Graphics/SVG/1.1/DTD/svg11.dtd">
<!-- Generated by graphviz version 2.38.0 (20140413.2041)
 -->
<!-- Title: models_diagram Pages: 1 -->
<svg width="1700pt" height="590pt"
 viewBox="0.00 0.00 1700.00 590.00" xmlns="http://www.w3.org/2000/svg" xmlns:xlink="http://www.w3.org/1999/xlink">
<g id="graph0" class="graph" transform="scale(1 1) rotate(0) translate(4 586)">
<title>models_diagram</title>
<polygon fill="none" stroke="none" points="-4,4 -4,-586 1696,-586 1696,4 -4,4"/>
<!-- _diagram_info -->
<g id="node1" class="node"><title>_diagram_info</title>
<text text-anchor="start" x="368" y="-567.6" font-family="Times,serif" font-size="13.00">Models diagram</text>
<text text-anchor="start" x="368" y="-553.6" font-family="Times,serif" font-size="13.00">Date: Jun 10 2016 &#45; 18:34</text>
<text text-anchor="start" x="368" y="-539.6" font-family="Times,serif" font-size="13.00">Migration version: 20160609021634</text>
<text text-anchor="start" x="368" y="-525.6" font-family="Times,serif" font-size="13.00">Generated by RailRoady 1.4.2</text>
<text text-anchor="start" x="368" y="-511.6" font-family="Times,serif" font-size="13.00">http://railroady.prestonlee.com</text>
</g>
<!-- Course -->
<g id="node2" class="node"><title>Course</title>
<ellipse fill="none" stroke="black" cx="654" cy="-543" rx="42.4939" ry="18"/>
<text text-anchor="middle" x="654" y="-539.3" font-family="Times,serif" font-size="14.00">Course</text>
</g>
<!-- Category -->
<g id="node5" class="node"><title>Category</title>
<ellipse fill="none" stroke="black" cx="328" cy="-378" rx="53.8905" ry="18"/>
<text text-anchor="middle" x="328" y="-374.3" font-family="Times,serif" font-size="14.00">Category</text>
</g>
<!-- Course&#45;&gt;Category -->
<g id="edge1" class="edge"><title>Course&#45;&gt;Category</title>
<path fill="none" stroke="#6cd9e8" d="M629.673,-521.122C621.582,-514.951 612.264,-508.619 603,-504 552.025,-478.583 532.302,-490.559 480,-468 436.043,-449.04 389.007,-419.987 359.095,-400.276"/>
<ellipse fill="none" stroke="#6cd9e8" cx="633.01" cy="-523.752" rx="4.00002" ry="4.00002"/>
<polygon fill="#6cd9e8" stroke="#6cd9e8" points="359.083,-400.268 353.249,-390.983 354.92,-397.499 350.757,-394.73 350.757,-394.73 350.757,-394.73 354.92,-397.499 348.264,-398.477 359.083,-400.268 359.083,-400.268"/>
</g>
<!-- User -->
<g id="node10" class="node"><title>User</title>
<ellipse fill="none" stroke="black" cx="521" cy="-450" rx="32.4942" ry="18"/>
<text text-anchor="middle" x="521" y="-446.3" font-family="Times,serif" font-size="14.00">User</text>
</g>
<!-- Course&#45;&gt;User -->
<g id="edge4" class="edge"><title>Course&#45;&gt;User</title>
<path fill="none" stroke="#14684a" d="M626.019,-520.63C618.607,-515.113 610.561,-509.252 603,-504 585.892,-492.117 566.315,-479.43 550.58,-469.449"/>
<polygon fill="#14684a" stroke="#14684a" points="626.365,-520.89 631.662,-530.491 630.364,-523.891 634.363,-526.892 634.363,-526.892 634.363,-526.892 630.364,-523.891 637.064,-523.292 626.365,-520.89 626.365,-520.89"/>
<polygon fill="#14684a" stroke="#14684a" points="550.264,-469.25 544.21,-460.107 546.036,-466.581 541.808,-463.912 541.808,-463.912 541.808,-463.912 546.036,-466.581 539.406,-467.717 550.264,-469.25 550.264,-469.25"/>
</g>
<!-- Test -->
<g id="node18" class="node"><title>Test</title>
<ellipse fill="none" stroke="black" cx="654" cy="-378" rx="31.6951" ry="18"/>
<text text-anchor="middle" x="654" y="-374.3" font-family="Times,serif" font-size="14.00">Test</text>
</g>
<!-- Course&#45;&gt;Test -->
<g id="edge5" class="edge"><title>Course&#45;&gt;Test</title>
<path fill="none" stroke="#4c500f" d="M654,-516.52C654,-486.6 654,-437.164 654,-406.427"/>
<ellipse fill="none" stroke="#4c500f" cx="654" cy="-520.864" rx="4" ry="4"/>
<polygon fill="#4c500f" stroke="#4c500f" points="654,-406.397 658.5,-396.397 654,-401.397 654,-396.397 654,-396.397 654,-396.397 654,-401.397 649.5,-396.397 654,-406.397 654,-406.397"/>
</g>
<!-- CourseUser -->
<g id="node27" class="node"><title>CourseUser</title>
<ellipse fill="none" stroke="black" cx="768" cy="-378" rx="63.8893" ry="18"/>
<text text-anchor="middle" x="768" y="-374.3" font-family="Times,serif" font-size="14.00">CourseUser</text>
</g>
<!-- Course&#45;&gt;CourseUser -->
<g id="edge3" class="edge"><title>Course&#45;&gt;CourseUser</title>
<path fill="none" stroke="#1832db" d="M670.205,-518.83C691.403,-488.521 728.413,-435.602 750.317,-404.283"/>
<ellipse fill="none" stroke="#1832db" cx="667.851" cy="-522.196" rx="4.00002" ry="4.00002"/>
<polygon fill="#1832db" stroke="#1832db" points="750.338,-404.254 759.757,-398.638 753.203,-400.156 756.069,-396.059 756.069,-396.059 756.069,-396.059 753.203,-400.156 752.381,-393.48 750.338,-404.254 750.338,-404.254"/>
</g>
<!-- Section -->
<g id="node28" class="node"><title>Section</title>
<ellipse fill="none" stroke="black" cx="822" cy="-450" rx="45.4919" ry="18"/>
<text text-anchor="middle" x="822" y="-446.3" font-family="Times,serif" font-size="14.00">Section</text>
</g>
<!-- Course&#45;&gt;Section -->
<g id="edge2" class="edge"><title>Course&#45;&gt;Section</title>
<path fill="none" stroke="#56fedd" d="M686.511,-524.39C715.362,-508.762 757.407,-485.988 786.989,-469.964"/>
<ellipse fill="none" stroke="#56fedd" cx="682.668" cy="-526.471" rx="4.00002" ry="4.00002"/>
<polygon fill="#56fedd" stroke="#56fedd" points="787.331,-469.779 798.267,-468.973 791.727,-467.398 796.124,-465.016 796.124,-465.016 796.124,-465.016 791.727,-467.398 793.981,-461.059 787.331,-469.779 787.331,-469.779"/>
</g>
<!-- License -->
<g id="node3" class="node"><title>License</title>
<ellipse fill="none" stroke="black" cx="521" cy="-378" rx="45.4919" ry="18"/>
<text text-anchor="middle" x="521" y="-374.3" font-family="Times,serif" font-size="14.00">License</text>
</g>
<!-- Tutorial -->
<g id="node4" class="node"><title>Tutorial</title>
<ellipse fill="none" stroke="black" cx="1013" cy="-450" rx="48.9926" ry="18"/>
<text text-anchor="middle" x="1013" y="-446.3" font-family="Times,serif" font-size="14.00">Tutorial</text>
</g>
<!-- Resource -->
<g id="node31" class="node"><title>Resource</title>
<ellipse fill="none" stroke="black" cx="979" cy="-378" rx="53.0913" ry="18"/>
<text text-anchor="middle" x="979" y="-374.3" font-family="Times,serif" font-size="14.00">Resource</text>
</g>
<!-- Tutorial&#45;&gt;Resource -->
<g id="edge6" class="edge"><title>Tutorial&#45;&gt;Resource</title>
<path fill="none" stroke="#4efc4e" d="M1001.2,-424.714C998.089,-418.302 994.717,-411.358 991.563,-404.865"/>
<ellipse fill="none" stroke="#4efc4e" cx="1003.02" cy="-428.457" rx="4.00002" ry="4.00002"/>
<polygon fill="#4efc4e" stroke="#4efc4e" points="991.524,-404.784 991.202,-393.823 989.339,-400.287 987.155,-395.789 987.155,-395.789 987.155,-395.789 989.339,-400.287 983.107,-397.755 991.524,-404.784 991.524,-404.784"/>
</g>
<!-- SubCategory -->
<g id="node6" class="node"><title>SubCategory</title>
<ellipse fill="none" stroke="black" cx="319" cy="-306" rx="70.6878" ry="18"/>
<text text-anchor="middle" x="319" y="-302.3" font-family="Times,serif" font-size="14.00">SubCategory</text>
</g>
<!-- Category&#45;&gt;SubCategory -->
<g id="edge7" class="edge"><title>Category&#45;&gt;SubCategory</title>
<path fill="none" stroke="#7cbf86" d="M324.739,-351.64C324.004,-345.92 323.221,-339.828 322.477,-334.042"/>
<ellipse fill="none" stroke="#7cbf86" cx="325.265" cy="-355.729" rx="4.00001" ry="4.00001"/>
<polygon fill="#7cbf86" stroke="#7cbf86" points="322.474,-334.023 325.662,-323.53 321.837,-329.064 321.199,-324.104 321.199,-324.104 321.199,-324.104 321.837,-329.064 316.736,-324.678 322.474,-334.023 322.474,-334.023"/>
</g>
<!-- Question -->
<g id="node12" class="node"><title>Question</title>
<ellipse fill="none" stroke="black" cx="536" cy="-234" rx="51.9908" ry="18"/>
<text text-anchor="middle" x="536" y="-230.3" font-family="Times,serif" font-size="14.00">Question</text>
</g>
<!-- Category&#45;&gt;Question -->
<g id="edge8" class="edge"><title>Category&#45;&gt;Question</title>
<path fill="none" stroke="#7d6855" d="M359.166,-355.723C398.489,-328.877 465.71,-282.987 504.969,-256.185"/>
<polygon fill="#7d6855" stroke="#7d6855" points="358.915,-355.895 348.118,-357.817 354.785,-358.714 350.656,-361.533 350.656,-361.533 350.656,-361.533 354.785,-358.714 353.193,-365.25 358.915,-355.895 358.915,-355.895"/>
<polygon fill="#7d6855" stroke="#7d6855" points="505.113,-256.086 515.91,-254.164 509.243,-253.267 513.372,-250.448 513.372,-250.448 513.372,-250.448 509.243,-253.267 510.835,-246.731 505.113,-256.086 505.113,-256.086"/>
</g>
<!-- SimulatedCategory -->
<g id="node22" class="node"><title>SimulatedCategory</title>
<ellipse fill="none" stroke="black" cx="129" cy="-306" rx="100.983" ry="18"/>
<text text-anchor="middle" x="129" y="-302.3" font-family="Times,serif" font-size="14.00">SimulatedCategory</text>
</g>
<!-- Category&#45;&gt;SimulatedCategory -->
<g id="edge9" class="edge"><title>Category&#45;&gt;SimulatedCategory</title>
<path fill="none" stroke="#db8aa3" d="M284.22,-361.6C254.108,-351.008 213.948,-336.881 182.022,-325.651"/>
<ellipse fill="none" stroke="#db8aa3" cx="288.189" cy="-362.996" rx="4.00001" ry="4.00001"/>
<polygon fill="#db8aa3" stroke="#db8aa3" points="181.832,-325.584 173.892,-318.021 177.115,-323.925 172.399,-322.266 172.399,-322.266 172.399,-322.266 177.115,-323.925 170.905,-326.511 181.832,-325.584 181.832,-325.584"/>
</g>
<!-- Choice -->
<g id="node9" class="node"><title>Choice</title>
<ellipse fill="none" stroke="black" cx="458" cy="-90" rx="40.0939" ry="18"/>
<text text-anchor="middle" x="458" y="-86.3" font-family="Times,serif" font-size="14.00">Choice</text>
</g>
<!-- SubCategory&#45;&gt;Choice -->
<g id="edge11" class="edge"><title>SubCategory&#45;&gt;Choice</title>
<path fill="none" stroke="#f72cf8" d="M307.072,-278.711C293.474,-244.374 276.566,-183.942 305,-144 328.148,-111.484 372.683,-98.7335 407.761,-93.8254"/>
<polygon fill="#f72cf8" stroke="#f72cf8" points="307.123,-278.835 306.798,-289.796 309.039,-283.454 310.955,-288.072 310.955,-288.072 310.955,-288.072 309.039,-283.454 315.111,-286.348 307.123,-278.835 307.123,-278.835"/>
<polygon fill="#f72cf8" stroke="#f72cf8" points="407.918,-93.8063 418.391,-97.0562 412.88,-93.198 417.843,-92.5897 417.843,-92.5897 417.843,-92.5897 412.88,-93.198 417.296,-88.1231 407.918,-93.8063 407.918,-93.8063"/>
</g>
<!-- AnsweredQuestion -->
<g id="node11" class="node"><title>AnsweredQuestion</title>
<ellipse fill="none" stroke="black" cx="411" cy="-162" rx="97.4827" ry="18"/>
<text text-anchor="middle" x="411" y="-158.3" font-family="Times,serif" font-size="14.00">AnsweredQuestion</text>
</g>
<!-- SubCategory&#45;&gt;AnsweredQuestion -->
<g id="edge12" class="edge"><title>SubCategory&#45;&gt;AnsweredQuestion</title>
<path fill="none" stroke="#15cfd3" d="M335.526,-279.492C352.146,-253.84 377.632,-214.502 394.31,-188.761"/>
<polygon fill="#15cfd3" stroke="#15cfd3" points="335.352,-279.761 326.138,-285.706 332.634,-283.957 329.915,-288.153 329.915,-288.153 329.915,-288.153 332.634,-283.957 333.692,-290.6 335.352,-279.761 335.352,-279.761"/>
<polygon fill="#15cfd3" stroke="#15cfd3" points="394.375,-188.66 403.589,-182.715 397.094,-184.464 399.812,-180.268 399.812,-180.268 399.812,-180.268 397.094,-184.464 396.036,-177.821 394.375,-188.66 394.375,-188.66"/>
</g>
<!-- SubCategory&#45;&gt;Question -->
<g id="edge10" class="edge"><title>SubCategory&#45;&gt;Question</title>
<path fill="none" stroke="#ebccb2" d="M368.852,-288.919C405.26,-277.174 454.262,-261.367 489.79,-249.907"/>
<ellipse fill="none" stroke="#ebccb2" cx="364.904" cy="-290.192" rx="4.00001" ry="4.00001"/>
<polygon fill="#ebccb2" stroke="#ebccb2" points="489.914,-249.866 500.813,-251.079 494.673,-248.331 499.431,-246.796 499.431,-246.796 499.431,-246.796 494.673,-248.331 498.05,-242.514 489.914,-249.866 489.914,-249.866"/>
</g>
<!-- Student::CourseUserTest -->
<g id="node7" class="node"><title>Student::CourseUserTest</title>
<ellipse fill="none" stroke="black" cx="871" cy="-543" rx="128.077" ry="18"/>
<text text-anchor="middle" x="871" y="-539.3" font-family="Times,serif" font-size="14.00">Student::CourseUserTest</text>
</g>
<!-- CourseTestUser -->
<g id="node8" class="node"><title>CourseTestUser</title>
<ellipse fill="none" stroke="black" cx="745" cy="-306" rx="85.2851" ry="18"/>
<text text-anchor="middle" x="745" y="-302.3" font-family="Times,serif" font-size="14.00">CourseTestUser</text>
</g>
<!-- Answer -->
<g id="node16" class="node"><title>Answer</title>
<ellipse fill="none" stroke="black" cx="516" cy="-18" rx="46.2923" ry="18"/>
<text text-anchor="middle" x="516" y="-14.3" font-family="Times,serif" font-size="14.00">Answer</text>
</g>
<!-- Choice&#45;&gt;Answer -->
<g id="edge13" class="edge"><title>Choice&#45;&gt;Answer</title>
<path fill="none" stroke="#1afc2f" d="M476.686,-66.4478C482.782,-59.0906 489.577,-50.8898 495.78,-43.4031"/>
<ellipse fill="none" stroke="#1afc2f" cx="474.004" cy="-69.6846" rx="4.00002" ry="4.00002"/>
<polygon fill="#1afc2f" stroke="#1afc2f" points="495.838,-43.3336 505.683,-38.5045 499.028,-39.4835 502.218,-35.6334 502.218,-35.6334 502.218,-35.6334 499.028,-39.4835 498.753,-32.7623 495.838,-43.3336 495.838,-43.3336"/>
</g>
<!-- User&#45;&gt;License -->
<g id="edge21" class="edge"><title>User&#45;&gt;License</title>
<path fill="none" stroke="#b91d36" d="M521,-423.64C521,-417.348 521,-410.605 521,-404.316"/>
<ellipse fill="none" stroke="#b91d36" cx="521" cy="-427.697" rx="4" ry="4"/>
<ellipse fill="#b91d36" stroke="#b91d36" cx="521" cy="-400.104" rx="4" ry="4"/>
</g>
<!-- User&#45;&gt;Category -->
<g id="edge14" class="edge"><title>User&#45;&gt;Category</title>
<path fill="none" stroke="#b44892" d="M487.024,-436.677C455.248,-425.152 407.59,-407.867 372.732,-395.224"/>
<ellipse fill="none" stroke="#b44892" cx="490.809" cy="-438.05" rx="4.00001" ry="4.00001"/>
<polygon fill="#b44892" stroke="#b44892" points="372.665,-395.2 364.798,-387.56 367.965,-393.495 363.264,-391.79 363.264,-391.79 363.264,-391.79 367.965,-393.495 361.73,-396.02 372.665,-395.2 372.665,-395.2"/>
</g>
<!-- User&#45;&gt;SubCategory -->
<g id="edge15" class="edge"><title>User&#45;&gt;SubCategory</title>
<path fill="none" stroke="#71ed64" d="M491.549,-432.54C474.36,-422.571 452.487,-409.257 434,-396 413.745,-381.476 410.601,-375.395 391,-360 377.682,-349.54 362.639,-338.37 349.76,-328.994"/>
<ellipse fill="none" stroke="#71ed64" cx="495.138" cy="-434.603" rx="4.00002" ry="4.00002"/>
<polygon fill="#71ed64" stroke="#71ed64" points="349.746,-328.984 344.288,-319.473 345.697,-326.051 341.648,-323.117 341.648,-323.117 341.648,-323.117 345.697,-326.051 339.008,-326.761 349.746,-328.984 349.746,-328.984"/>
</g>
<!-- User&#45;&gt;AnsweredQuestion -->
<g id="edge17" class="edge"><title>User&#45;&gt;AnsweredQuestion</title>
<path fill="none" stroke="#526884" d="M496.019,-429.862C485.618,-420.678 474.291,-408.873 467,-396 428.835,-328.612 416.563,-236.027 412.708,-190.522"/>
<ellipse fill="none" stroke="#526884" cx="499.284" cy="-432.637" rx="4.00002" ry="4.00002"/>
<polygon fill="#526884" stroke="#526884" points="412.686,-190.236 416.403,-179.92 412.301,-185.251 411.916,-180.266 411.916,-180.266 411.916,-180.266 412.301,-185.251 407.43,-180.612 412.686,-190.236 412.686,-190.236"/>
</g>
<!-- User&#45;&gt;Answer -->
<g id="edge20" class="edge"><title>User&#45;&gt;Answer</title>
<path fill="none" stroke="#1014eb" d="M480.76,-446.707C358.547,-438.655 0,-406.549 0,-307 0,-307 0,-307 0,-161 0,-66.2574 327.463,-32.3485 460.656,-22.4748"/>
<ellipse fill="none" stroke="#1014eb" cx="484.811" cy="-446.967" rx="4" ry="4"/>
<polygon fill="#1014eb" stroke="#1014eb" points="460.687,-22.4727 470.985,-26.2397 465.674,-22.1121 470.661,-21.7514 470.661,-21.7514 470.661,-21.7514 465.674,-22.1121 470.336,-17.2632 460.687,-22.4727 460.687,-22.4727"/>
</g>
<!-- SimulatorAnsweredQuestion -->
<g id="node23" class="node"><title>SimulatorAnsweredQuestion</title>
<ellipse fill="none" stroke="black" cx="746" cy="-162" rx="143.775" ry="18"/>
<text text-anchor="middle" x="746" y="-158.3" font-family="Times,serif" font-size="14.00">SimulatorAnsweredQuestion</text>
</g>
<!-- User&#45;&gt;SimulatorAnsweredQuestion -->
<g id="edge18" class="edge"><title>User&#45;&gt;SimulatorAnsweredQuestion</title>
<path fill="none" stroke="#4e2df9" d="M543.391,-428.777C553.481,-419.232 565.283,-407.443 575,-396 612.99,-351.259 616.348,-335.373 651,-288 676.591,-253.015 707.046,-213.26 726.448,-188.161"/>
<ellipse fill="none" stroke="#4e2df9" cx="540.287" cy="-431.676" rx="4.00002" ry="4.00002"/>
<polygon fill="#4e2df9" stroke="#4e2df9" points="726.459,-188.147 736.139,-182.994 729.52,-184.193 732.581,-180.24 732.581,-180.24 732.581,-180.24 729.52,-184.193 729.022,-177.485 726.459,-188.147 726.459,-188.147"/>
</g>
<!-- Simulator -->
<g id="node24" class="node"><title>Simulator</title>
<ellipse fill="none" stroke="black" cx="1112" cy="-306" rx="56.59" ry="18"/>
<text text-anchor="middle" x="1112" y="-302.3" font-family="Times,serif" font-size="14.00">Simulator</text>
</g>
<!-- User&#45;&gt;Simulator -->
<g id="edge16" class="edge"><title>User&#45;&gt;Simulator</title>
<path fill="none" stroke="#979982" d="M561.297,-445.941C622.79,-440.473 743.219,-426.596 841,-396 876.67,-384.839 881.94,-372.952 917,-360 930.487,-355.017 1006.66,-334.682 1059.71,-320.701"/>
<ellipse fill="none" stroke="#979982" cx="557.004" cy="-446.313" rx="4" ry="4"/>
<polygon fill="#979982" stroke="#979982" points="1059.99,-320.628 1070.8,-322.434 1064.82,-319.355 1069.66,-318.082 1069.66,-318.082 1069.66,-318.082 1064.82,-319.355 1068.51,-313.73 1059.99,-320.628 1059.99,-320.628"/>
</g>
<!-- User&#45;&gt;CourseUser -->
<g id="edge19" class="edge"><title>User&#45;&gt;CourseUser</title>
<path fill="none" stroke="#5b099c" d="M557.272,-438.72C598.829,-426.943 667.304,-407.537 714.873,-394.056"/>
<ellipse fill="none" stroke="#5b099c" cx="553.182" cy="-439.879" rx="4.00001" ry="4.00001"/>
<polygon fill="#5b099c" stroke="#5b099c" points="715.068,-394.001 725.916,-395.604 719.878,-392.638 724.689,-391.274 724.689,-391.274 724.689,-391.274 719.878,-392.638 723.462,-386.945 715.068,-394.001 715.068,-394.001"/>
</g>
<!-- AnsweredQuestion&#45;&gt;Choice -->
<g id="edge22" class="edge"><title>AnsweredQuestion&#45;&gt;Choice</title>
<path fill="none" stroke="#754fcf" d="M428.071,-135.575C432.244,-129.359 436.711,-122.707 440.886,-116.489"/>
<polygon fill="#754fcf" stroke="#754fcf" points="427.952,-135.753 418.641,-141.546 425.165,-139.904 422.377,-144.055 422.377,-144.055 422.377,-144.055 425.165,-139.904 426.113,-146.563 427.952,-135.753 427.952,-135.753"/>
<polygon fill="#754fcf" stroke="#754fcf" points="441.153,-116.091 450.463,-110.297 443.94,-111.94 446.727,-107.789 446.727,-107.789 446.727,-107.789 443.94,-111.94 442.991,-105.281 441.153,-116.091 441.153,-116.091"/>
</g>
<!-- Question&#45;&gt;Choice -->
<g id="edge24" class="edge"><title>Question&#45;&gt;Choice</title>
<path fill="none" stroke="#96d1f1" d="M534.78,-207.75C532.925,-189.064 528.324,-163.567 517,-144 509.746,-131.465 498.492,-120.282 487.75,-111.458"/>
<ellipse fill="none" stroke="#96d1f1" cx="535.121" cy="-211.825" rx="4" ry="4"/>
<polygon fill="#96d1f1" stroke="#96d1f1" points="487.595,-111.337 482.478,-101.638 483.652,-108.261 479.71,-105.186 479.71,-105.186 479.71,-105.186 483.652,-108.261 476.942,-108.734 487.595,-111.337 487.595,-111.337"/>
</g>
<!-- Question&#45;&gt;AnsweredQuestion -->
<g id="edge25" class="edge"><title>Question&#45;&gt;AnsweredQuestion</title>
<path fill="none" stroke="#12d63b" d="M502.606,-214.299C486.209,-205.117 466.371,-194.008 449.354,-184.478"/>
<ellipse fill="none" stroke="#12d63b" cx="506.306" cy="-216.371" rx="4.00002" ry="4.00002"/>
<polygon fill="#12d63b" stroke="#12d63b" points="448.956,-184.255 442.429,-175.443 444.593,-181.812 440.23,-179.369 440.23,-179.369 440.23,-179.369 444.593,-181.812 438.032,-183.295 448.956,-184.255 448.956,-184.255"/>
</g>
<!-- Question&#45;&gt;Question -->
<g id="edge27" class="edge"><title>Question&#45;&gt;Question</title>
<path fill="none" stroke="#3ed986" d="M580.237,-247.498C594.59,-247.398 605.995,-242.899 605.995,-234 605.995,-225.513 595.622,-221.028 582.211,-220.544"/>
<ellipse fill="none" stroke="#3ed986" cx="576.009" cy="-247.294" rx="4" ry="4"/>
<polygon fill="#3ed986" stroke="#3ed986" points="582.008,-220.551 571.857,-216.402 577.011,-220.725 572.014,-220.899 572.014,-220.899 572.014,-220.899 577.011,-220.725 572.171,-225.396 582.008,-220.551 582.008,-220.551"/>
</g>
<!-- Question&#45;&gt;Answer -->
<g id="edge23" class="edge"><title>Question&#45;&gt;Answer</title>
<path fill="none" stroke="#3ffab0" d="M537.145,-207.803C537.493,-199.008 537.829,-189.07 538,-180 538.302,-164.003 539.392,-159.939 538,-144 535.031,-110.003 527.602,-71.3907 522.197,-46.1906"/>
<ellipse fill="none" stroke="#3ffab0" cx="536.978" cy="-211.822" rx="4" ry="4"/>
<polygon fill="#3ffab0" stroke="#3ffab0" points="522.162,-46.0327 524.419,-35.3015 521.093,-41.1485 520.023,-36.2642 520.023,-36.2642 520.023,-36.2642 521.093,-41.1485 515.627,-37.227 522.162,-46.0327 522.162,-46.0327"/>
</g>
<!-- Question&#45;&gt;SimulatorAnsweredQuestion -->
<g id="edge26" class="edge"><title>Question&#45;&gt;SimulatorAnsweredQuestion</title>
<path fill="none" stroke="#5d2eb4" d="M580.113,-218.296C611.461,-207.846 653.871,-193.71 687.963,-182.346"/>
<ellipse fill="none" stroke="#5d2eb4" cx="575.895" cy="-219.702" rx="4.00001" ry="4.00001"/>
<polygon fill="#5d2eb4" stroke="#5d2eb4" points="688.31,-182.23 699.22,-183.337 693.054,-180.649 697.797,-179.068 697.797,-179.068 697.797,-179.068 693.054,-180.649 696.374,-174.799 688.31,-182.23 688.31,-182.23"/>
</g>
<!-- LiveClass -->
<g id="node13" class="node"><title>LiveClass</title>
<ellipse fill="none" stroke="black" cx="1129" cy="-543" rx="53.8905" ry="18"/>
<text text-anchor="middle" x="1129" y="-539.3" font-family="Times,serif" font-size="14.00">LiveClass</text>
</g>
<!-- Career -->
<g id="node14" class="node"><title>Career</title>
<ellipse fill="none" stroke="black" cx="1330" cy="-450" rx="42.4939" ry="18"/>
<text text-anchor="middle" x="1330" y="-446.3" font-family="Times,serif" font-size="14.00">Career</text>
</g>
<!-- Video -->
<g id="node15" class="node"><title>Video</title>
<ellipse fill="none" stroke="black" cx="1116" cy="-450" rx="36.2938" ry="18"/>
<text text-anchor="middle" x="1116" y="-446.3" font-family="Times,serif" font-size="14.00">Video</text>
</g>
<!-- Video&#45;&gt;Resource -->
<g id="edge28" class="edge"><title>Video&#45;&gt;Resource</title>
<path fill="none" stroke="#c109ba" d="M1084.24,-432.77C1063.36,-422.102 1036.01,-408.132 1014.43,-397.105"/>
<ellipse fill="none" stroke="#c109ba" cx="1087.95" cy="-434.665" rx="4.00002" ry="4.00002"/>
<ellipse fill="#c109ba" stroke="#c109ba" cx="1010.62" cy="-395.157" rx="4.00002" ry="4.00002"/>
</g>
<!-- Point -->
<g id="node17" class="node"><title>Point</title>
<ellipse fill="none" stroke="black" cx="1534" cy="-450" rx="35.194" ry="18"/>
<text text-anchor="middle" x="1534" y="-446.3" font-family="Times,serif" font-size="14.00">Point</text>
</g>
<!-- Test&#45;&gt;CourseTestUser -->
<g id="edge30" class="edge"><title>Test&#45;&gt;CourseTestUser</title>
<path fill="none" stroke="#a66b8d" d="M678.961,-357.799C690.169,-349.178 703.481,-338.937 715.207,-329.917"/>
<ellipse fill="none" stroke="#a66b8d" cx="675.586" cy="-360.396" rx="4.00002" ry="4.00002"/>
<polygon fill="#a66b8d" stroke="#a66b8d" points="715.486,-329.703 726.156,-327.172 719.45,-326.654 723.413,-323.606 723.413,-323.606 723.413,-323.606 719.45,-326.654 720.669,-320.039 715.486,-329.703 715.486,-329.703"/>
</g>
<!-- Test&#45;&gt;Question -->
<g id="edge29" class="edge"><title>Test&#45;&gt;Question</title>
<path fill="none" stroke="#576631" d="M635.56,-354.809C614.054,-328.929 578.615,-286.283 556.33,-259.465"/>
<ellipse fill="none" stroke="#576631" cx="638.365" cy="-358.185" rx="4.00002" ry="4.00002"/>
<polygon fill="#576631" stroke="#576631" points="556.258,-259.378 553.328,-248.811 553.062,-255.533 549.867,-251.687 549.867,-251.687 549.867,-251.687 553.062,-255.533 546.406,-254.563 556.258,-259.378 556.258,-259.378"/>
</g>
<!-- Blog -->
<g id="node19" class="node"><title>Blog</title>
<ellipse fill="none" stroke="black" cx="916" cy="-450" rx="30.5947" ry="18"/>
<text text-anchor="middle" x="916" y="-446.3" font-family="Times,serif" font-size="14.00">Blog</text>
</g>
<!-- Blog&#45;&gt;Resource -->
<g id="edge31" class="edge"><title>Blog&#45;&gt;Resource</title>
<path fill="none" stroke="#834e1c" d="M935.184,-427.684C942.566,-419.482 951.02,-410.089 958.519,-401.756"/>
<ellipse fill="none" stroke="#834e1c" cx="932.346" cy="-430.838" rx="4.00002" ry="4.00002"/>
<ellipse fill="#834e1c" stroke="#834e1c" cx="961.359" cy="-398.601" rx="4.00002" ry="4.00002"/>
</g>
<!-- School -->
<g id="node20" class="node"><title>School</title>
<ellipse fill="none" stroke="black" cx="1270" cy="-543" rx="40.0939" ry="18"/>
<text text-anchor="middle" x="1270" y="-539.3" font-family="Times,serif" font-size="14.00">School</text>
</g>
<!-- School&#45;&gt;Career -->
<g id="edge32" class="edge"><title>School&#45;&gt;Career</title>
<path fill="none" stroke="#99259b" d="M1285.59,-518.357C1294.13,-505.409 1304.71,-489.363 1313.4,-476.18"/>
<ellipse fill="none" stroke="#99259b" cx="1283.21" cy="-521.97" rx="4.00002" ry="4.00002"/>
<polygon fill="#99259b" stroke="#99259b" points="1313.56,-475.934 1322.82,-470.062 1316.31,-471.759 1319.06,-467.585 1319.06,-467.585 1319.06,-467.585 1316.31,-471.759 1315.31,-465.108 1313.56,-475.934 1313.56,-475.934"/>
</g>
<!-- Student -->
<g id="node21" class="node"><title>Student</title>
<polygon fill="none" stroke="black" stroke-dasharray="1,5" points="1692,-561 1618,-561 1618,-525 1692,-525 1692,-561"/>
<text text-anchor="middle" x="1655" y="-539.3" font-family="Times,serif" font-size="14.00">Student</text>
</g>
<!-- Simulator&#45;&gt;Question -->
<g id="edge34" class="edge"><title>Simulator&#45;&gt;Question</title>
<path fill="none" stroke="#47ef4b" d="M1061.41,-290.973C1056.56,-289.869 1051.7,-288.854 1047,-288 886.124,-258.795 693.616,-244.239 597.275,-238.328"/>
<polygon fill="#47ef4b" stroke="#47ef4b" points="1061.57,-291.011 1070.25,-297.717 1066.43,-292.176 1071.3,-293.34 1071.3,-293.34 1071.3,-293.34 1066.43,-292.176 1072.35,-288.964 1061.57,-291.011 1061.57,-291.011"/>
<polygon fill="#47ef4b" stroke="#47ef4b" points="597.115,-238.319 587.404,-233.224 592.124,-238.017 587.133,-237.716 587.133,-237.716 587.133,-237.716 592.124,-238.017 586.862,-242.208 597.115,-238.319 597.115,-238.319"/>
</g>
<!-- Simulator&#45;&gt;SimulatorAnsweredQuestion -->
<g id="edge33" class="edge"><title>Simulator&#45;&gt;SimulatorAnsweredQuestion</title>
<path fill="none" stroke="#2a0abc" d="M1069.73,-288.6C1002.18,-262.393 870.126,-211.158 797.286,-182.898"/>
<ellipse fill="none" stroke="#2a0abc" cx="1073.84" cy="-290.194" rx="4.00001" ry="4.00001"/>
<polygon fill="#2a0abc" stroke="#2a0abc" points="797.167,-182.852 789.472,-175.039 792.506,-181.043 787.844,-179.235 787.844,-179.235 787.844,-179.235 792.506,-181.043 786.216,-183.43 797.167,-182.852 797.167,-182.852"/>
</g>
<!-- PointAction -->
<g id="node25" class="node"><title>PointAction</title>
<ellipse fill="none" stroke="black" cx="1534" cy="-543" rx="65.7887" ry="18"/>
<text text-anchor="middle" x="1534" y="-539.3" font-family="Times,serif" font-size="14.00">PointAction</text>
</g>
<!-- PointAction&#45;&gt;Point -->
<g id="edge35" class="edge"><title>PointAction&#45;&gt;Point</title>
<path fill="none" stroke="#a04817" d="M1534,-516.729C1534,-504.725 1534,-490.362 1534,-478.129"/>
<ellipse fill="none" stroke="#a04817" cx="1534" cy="-520.884" rx="4" ry="4"/>
<polygon fill="#a04817" stroke="#a04817" points="1534,-478.04 1538.5,-468.04 1534,-473.04 1534,-468.04 1534,-468.04 1534,-468.04 1534,-473.04 1529.5,-468.04 1534,-478.04 1534,-478.04"/>
</g>
<!-- ResourceProgress -->
<g id="node26" class="node"><title>ResourceProgress</title>
<ellipse fill="none" stroke="black" cx="943" cy="-306" rx="94.7833" ry="18"/>
<text text-anchor="middle" x="943" y="-302.3" font-family="Times,serif" font-size="14.00">ResourceProgress</text>
</g>
<!-- CourseUser&#45;&gt;CourseTestUser -->
<g id="edge37" class="edge"><title>CourseUser&#45;&gt;CourseTestUser</title>
<path fill="none" stroke="#01da11" d="M759.874,-352.267C757.926,-346.34 755.837,-339.981 753.858,-333.959"/>
<ellipse fill="none" stroke="#01da11" cx="761.184" cy="-356.255" rx="4.00001" ry="4.00001"/>
<polygon fill="#01da11" stroke="#01da11" points="753.798,-333.776 754.951,-322.871 752.237,-329.025 750.676,-324.275 750.676,-324.275 750.676,-324.275 752.237,-329.025 746.401,-325.68 753.798,-333.776 753.798,-333.776"/>
</g>
<!-- CourseUser&#45;&gt;ResourceProgress -->
<g id="edge36" class="edge"><title>CourseUser&#45;&gt;ResourceProgress</title>
<path fill="none" stroke="#89e8d8" d="M810.849,-359.86C836.283,-349.687 868.593,-336.763 894.898,-326.241"/>
<ellipse fill="none" stroke="#89e8d8" cx="807.128" cy="-361.349" rx="4.00001" ry="4.00001"/>
<polygon fill="#89e8d8" stroke="#89e8d8" points="895.009,-326.196 905.965,-326.66 899.652,-324.339 904.294,-322.482 904.294,-322.482 904.294,-322.482 899.652,-324.339 902.623,-318.304 895.009,-326.196 895.009,-326.196"/>
</g>
<!-- Section&#45;&gt;ResourceProgress -->
<g id="edge39" class="edge"><title>Section&#45;&gt;ResourceProgress</title>
<path fill="none" stroke="#26a880" d="M841.076,-426.613C863.066,-400.806 899.101,-358.517 921.909,-331.752"/>
<ellipse fill="none" stroke="#26a880" cx="838.475" cy="-429.666" rx="4.00002" ry="4.00002"/>
<polygon fill="#26a880" stroke="#26a880" points="922.046,-331.59 931.957,-326.897 925.289,-327.784 928.532,-323.979 928.532,-323.979 928.532,-323.979 925.289,-327.784 925.107,-321.06 922.046,-331.59 922.046,-331.59"/>
</g>
<!-- Section&#45;&gt;Resource -->
<g id="edge38" class="edge"><title>Section&#45;&gt;Resource</title>
<path fill="none" stroke="#839374" d="M858.558,-432.7C882.549,-422.004 913.937,-408.009 938.656,-396.988"/>
<ellipse fill="none" stroke="#839374" cx="854.816" cy="-434.369" rx="4.00002" ry="4.00002"/>
<polygon fill="#839374" stroke="#839374" points="938.981,-396.843 949.947,-396.881 943.548,-394.807 948.114,-392.771 948.114,-392.771 948.114,-392.771 943.548,-394.807 946.282,-388.661 938.981,-396.843 938.981,-396.843"/>
</g>
<!-- SimulatorType -->
<g id="node29" class="node"><title>SimulatorType</title>
<ellipse fill="none" stroke="black" cx="1130" cy="-378" rx="79.0865" ry="18"/>
<text text-anchor="middle" x="1130" y="-374.3" font-family="Times,serif" font-size="14.00">SimulatorType</text>
</g>
<!-- SimulatorType&#45;&gt;Simulator -->
<g id="edge40" class="edge"><title>SimulatorType&#45;&gt;Simulator</title>
<path fill="none" stroke="#700f74" d="M1123.55,-351.92C1122.07,-346.154 1120.48,-339.997 1118.98,-334.148"/>
<ellipse fill="none" stroke="#700f74" cx="1124.55" cy="-355.823" rx="4.00001" ry="4.00001"/>
<polygon fill="#700f74" stroke="#700f74" points="1118.89,-333.789 1120.76,-322.984 1117.64,-328.947 1116.4,-324.104 1116.4,-324.104 1116.4,-324.104 1117.64,-328.947 1112.04,-325.225 1118.89,-333.789 1118.89,-333.789"/>
</g>
<!-- University -->
<g id="node30" class="node"><title>University</title>
<ellipse fill="none" stroke="black" cx="1389" cy="-543" rx="61.1893" ry="18"/>
<text text-anchor="middle" x="1389" y="-539.3" font-family="Times,serif" font-size="14.00">University</text>
</g>
<!-- University&#45;&gt;Career -->
<g id="edge41" class="edge"><title>University&#45;&gt;Career</title>
<path fill="none" stroke="#a8fed8" d="M1373.39,-517.921C1364.99,-504.974 1354.66,-489.029 1346.18,-475.951"/>
<ellipse fill="none" stroke="#a8fed8" cx="1375.73" cy="-521.527" rx="4.00002" ry="4.00002"/>
<polygon fill="#a8fed8" stroke="#a8fed8" points="1346.09,-475.817 1344.43,-464.979 1343.37,-471.622 1340.65,-467.427 1340.65,-467.427 1340.65,-467.427 1343.37,-471.622 1336.87,-469.875 1346.09,-475.817 1346.09,-475.817"/>
</g>
<!-- Resource&#45;&gt;ResourceProgress -->
<g id="edge42" class="edge"><title>Resource&#45;&gt;ResourceProgress</title>
<path fill="none" stroke="#3b3c80" d="M966.568,-352.827C963.322,-346.515 959.807,-339.681 956.508,-333.266"/>
<ellipse fill="none" stroke="#3b3c80" cx="968.456" cy="-356.498" rx="4.00002" ry="4.00002"/>
<polygon fill="#3b3c80" stroke="#3b3c80" points="956.458,-333.168 955.886,-322.217 954.171,-328.722 951.884,-324.275 951.884,-324.275 951.884,-324.275 954.171,-328.722 947.883,-326.333 956.458,-333.168 956.458,-333.168"/>
</g>
<!-- Task -->
<g id="node32" class="node"><title>Task</title>
<ellipse fill="none" stroke="black" cx="1237" cy="-450" rx="32.4942" ry="18"/>
<text text-anchor="middle" x="1237" y="-446.3" font-family="Times,serif" font-size="14.00">Task</text>
</g>
<!-- Task&#45;&gt;Question -->
<g id="edge45" class="edge"><title>Task&#45;&gt;Question</title>
<path fill="none" stroke="#9309f4" d="M1236.45,-423.445C1234.08,-385.943 1223.39,-317.287 1178,-288 1129.97,-257.011 749.262,-241.717 597.819,-236.813"/>
<ellipse fill="none" stroke="#9309f4" cx="1236.67" cy="-427.832" rx="4" ry="4"/>
<polygon fill="#9309f4" stroke="#9309f4" points="597.745,-236.811 587.894,-231.994 592.747,-236.651 587.75,-236.492 587.75,-236.492 587.75,-236.492 592.747,-236.651 587.606,-240.989 597.745,-236.811 597.745,-236.811"/>
</g>
<!-- Task&#45;&gt;Answer -->
<g id="edge44" class="edge"><title>Task&#45;&gt;Answer</title>
<path fill="none" stroke="#4c42df" d="M1247.67,-424.677C1258.91,-396.811 1275,-349.506 1275,-307 1275,-307 1275,-307 1275,-161 1275,-89.2837 744.68,-38.2444 570.616,-23.4235"/>
<ellipse fill="none" stroke="#4c42df" cx="1246.04" cy="-428.641" rx="4.00001" ry="4.00001"/>
<polygon fill="#4c42df" stroke="#4c42df" points="570.61,-23.4231 561.024,-18.097 565.628,-23.0021 560.645,-22.5811 560.645,-22.5811 560.645,-22.5811 565.628,-23.0021 560.266,-27.0651 570.61,-23.4231 570.61,-23.4231"/>
</g>
<!-- Task&#45;&gt;Resource -->
<g id="edge43" class="edge"><title>Task&#45;&gt;Resource</title>
<path fill="none" stroke="#65c3d0" d="M1200.46,-439.086C1154.98,-426.746 1077.17,-405.636 1026.94,-392.007"/>
<ellipse fill="none" stroke="#65c3d0" cx="1204.54" cy="-440.194" rx="4.00001" ry="4.00001"/>
<ellipse fill="#65c3d0" stroke="#65c3d0" cx="1022.98" cy="-390.934" rx="4.00001" ry="4.00001"/>
</g>
</g>
</svg>
