<?xml version="1.0" encoding="UTF-8" standalone="no"?>
<!DOCTYPE svg PUBLIC "-//W3C//DTD SVG 1.1//EN"
 "http://www.w3.org/Graphics/SVG/1.1/DTD/svg11.dtd">
<!-- Generated by graphviz version 2.38.0 (20140413.2041)
 -->
<!-- Title: models_diagram Pages: 1 -->
<svg width="1756pt" height="518pt"
 viewBox="0.00 0.00 1756.06 518.00" xmlns="http://www.w3.org/2000/svg" xmlns:xlink="http://www.w3.org/1999/xlink">
<g id="graph0" class="graph" transform="scale(1 1) rotate(0) translate(4 514)">
<title>models_diagram</title>
<polygon fill="none" stroke="none" points="-4,4 -4,-514 1752.06,-514 1752.06,4 -4,4"/>
<!-- _diagram_info -->
<g id="node1" class="node"><title>_diagram_info</title>
<text text-anchor="start" x="117.662" y="-495.6" font-family="Times,serif" font-size="13.00">Models diagram</text>
<text text-anchor="start" x="117.662" y="-481.6" font-family="Times,serif" font-size="13.00">Date: Nov 30 2016 &#45; 16:29</text>
<text text-anchor="start" x="117.662" y="-467.6" font-family="Times,serif" font-size="13.00">Migration version: 20161130201248</text>
<text text-anchor="start" x="117.662" y="-453.6" font-family="Times,serif" font-size="13.00">Generated by RailRoady 1.5.2</text>
<text text-anchor="start" x="117.662" y="-439.6" font-family="Times,serif" font-size="13.00">http://railroady.prestonlee.com</text>
</g>
<!-- Course -->
<g id="node2" class="node"><title>Course</title>
<ellipse fill="none" stroke="black" cx="403.662" cy="-471" rx="42.4939" ry="18"/>
<text text-anchor="middle" x="403.662" y="-467.3" font-family="Times,serif" font-size="14.00">Course</text>
</g>
<!-- Category -->
<g id="node4" class="node"><title>Category</title>
<ellipse fill="none" stroke="black" cx="154.662" cy="-306" rx="53.8905" ry="18"/>
<text text-anchor="middle" x="154.662" y="-302.3" font-family="Times,serif" font-size="14.00">Category</text>
</g>
<!-- Course&#45;&gt;Category -->
<g id="edge1" class="edge"><title>Course&#45;&gt;Category</title>
<path fill="none" stroke="#1b1c96" d="M379.1,-449.57C370.998,-443.422 361.731,-436.991 352.662,-432 313.467,-410.432 297.107,-418.878 258.662,-396 227.877,-377.681 197.287,-350.077 177.336,-330.474"/>
<ellipse fill="none" stroke="#1b1c96" cx="382.446" cy="-452.173" rx="4.00002" ry="4.00002"/>
<polygon fill="#1b1c96" stroke="#1b1c96" points="177.313,-330.451 173.411,-320.203 173.773,-326.92 170.233,-323.389 170.233,-323.389 170.233,-323.389 173.773,-326.92 167.055,-326.575 177.313,-330.451 177.313,-330.451"/>
</g>
<!-- SubCategory -->
<g id="node5" class="node"><title>SubCategory</title>
<ellipse fill="none" stroke="black" cx="104.662" cy="-234" rx="70.6878" ry="18"/>
<text text-anchor="middle" x="104.662" y="-230.3" font-family="Times,serif" font-size="14.00">SubCategory</text>
</g>
<!-- Course&#45;&gt;SubCategory -->
<g id="edge2" class="edge"><title>Course&#45;&gt;SubCategory</title>
<path fill="none" stroke="#f91bb3" d="M378.369,-448.058C370.539,-442.145 361.608,-436.223 352.662,-432 239.137,-378.408 152.476,-433.825 91.662,-324 81.082,-304.894 85.943,-280.099 92.5308,-261.534"/>
<polygon fill="#f91bb3" stroke="#f91bb3" points="378.538,-448.191 383.593,-457.922 382.46,-451.292 386.383,-454.392 386.383,-454.392 386.383,-454.392 382.46,-451.292 389.173,-450.861 378.538,-448.191 378.538,-448.191"/>
<polygon fill="#f91bb3" stroke="#f91bb3" points="92.5383,-261.515 100.363,-253.833 94.3544,-256.857 96.1705,-252.198 96.1705,-252.198 96.1705,-252.198 94.3544,-256.857 91.9778,-250.564 92.5383,-261.515 92.5383,-261.515"/>
</g>
<!-- User -->
<g id="node8" class="node"><title>User</title>
<ellipse fill="none" stroke="black" cx="299.662" cy="-378" rx="32.4942" ry="18"/>
<text text-anchor="middle" x="299.662" y="-374.3" font-family="Times,serif" font-size="14.00">User</text>
</g>
<!-- Course&#45;&gt;User -->
<g id="edge5" class="edge"><title>Course&#45;&gt;User</title>
<path fill="none" stroke="#b6073e" d="M378.476,-447.962C361.903,-433.461 340.326,-414.581 323.94,-400.243"/>
<polygon fill="#b6073e" stroke="#b6073e" points="378.494,-447.978 383.057,-457.95 382.257,-451.271 386.02,-454.563 386.02,-454.563 386.02,-454.563 382.257,-451.271 388.983,-451.176 378.494,-447.978 378.494,-447.978"/>
<polygon fill="#b6073e" stroke="#b6073e" points="323.883,-400.193 319.32,-390.221 320.12,-396.901 316.357,-393.608 316.357,-393.608 316.357,-393.608 320.12,-396.901 313.394,-396.995 323.883,-400.193 323.883,-400.193"/>
</g>
<!-- LiveClass -->
<g id="node10" class="node"><title>LiveClass</title>
<ellipse fill="none" stroke="black" cx="403.662" cy="-378" rx="53.8905" ry="18"/>
<text text-anchor="middle" x="403.662" y="-374.3" font-family="Times,serif" font-size="14.00">LiveClass</text>
</g>
<!-- Course&#45;&gt;LiveClass -->
<g id="edge7" class="edge"><title>Course&#45;&gt;LiveClass</title>
<path fill="none" stroke="#8cc4c0" d="M403.662,-444.729C403.662,-432.118 403.662,-416.905 403.662,-404.292"/>
<ellipse fill="none" stroke="#8cc4c0" cx="403.662" cy="-448.884" rx="4" ry="4"/>
<ellipse fill="#8cc4c0" stroke="#8cc4c0" cx="403.662" cy="-400.04" rx="4" ry="4"/>
</g>
<!-- Test -->
<g id="node16" class="node"><title>Test</title>
<ellipse fill="none" stroke="black" cx="485.662" cy="-306" rx="31.6951" ry="18"/>
<text text-anchor="middle" x="485.662" y="-302.3" font-family="Times,serif" font-size="14.00">Test</text>
</g>
<!-- Course&#45;&gt;Test -->
<g id="edge6" class="edge"><title>Course&#45;&gt;Test</title>
<path fill="none" stroke="#ee88cd" d="M427.084,-448.465C440.639,-434.724 456.897,-415.819 466.662,-396 476.235,-376.57 481.004,-352.427 483.369,-334.19"/>
<ellipse fill="none" stroke="#ee88cd" cx="423.925" cy="-451.587" rx="4.00002" ry="4.00002"/>
<polygon fill="#ee88cd" stroke="#ee88cd" points="483.373,-334.152 488.973,-324.724 483.937,-329.184 484.501,-324.216 484.501,-324.216 484.501,-324.216 483.937,-329.184 480.03,-323.708 483.373,-334.152 483.373,-334.152"/>
</g>
<!-- CourseUser -->
<g id="node24" class="node"><title>CourseUser</title>
<ellipse fill="none" stroke="black" cx="832.662" cy="-306" rx="63.8893" ry="18"/>
<text text-anchor="middle" x="832.662" y="-302.3" font-family="Times,serif" font-size="14.00">CourseUser</text>
</g>
<!-- Course&#45;&gt;CourseUser -->
<g id="edge4" class="edge"><title>Course&#45;&gt;CourseUser</title>
<path fill="none" stroke="#7456d8" d="M441.753,-455.527C520.696,-425.533 701.872,-356.694 786.953,-324.367"/>
<ellipse fill="none" stroke="#7456d8" cx="437.91" cy="-456.987" rx="4.00001" ry="4.00001"/>
<polygon fill="#7456d8" stroke="#7456d8" points="787.003,-324.349 797.949,-325.003 791.677,-322.573 796.351,-320.797 796.351,-320.797 796.351,-320.797 791.677,-322.573 794.752,-316.59 787.003,-324.349 787.003,-324.349"/>
</g>
<!-- Section -->
<g id="node25" class="node"><title>Section</title>
<ellipse fill="none" stroke="black" cx="1204.66" cy="-234" rx="45.4919" ry="18"/>
<text text-anchor="middle" x="1204.66" y="-230.3" font-family="Times,serif" font-size="14.00">Section</text>
</g>
<!-- Course&#45;&gt;Section -->
<g id="edge3" class="edge"><title>Course&#45;&gt;Section</title>
<path fill="none" stroke="#3f0c9b" d="M445.491,-457.931C531.64,-433.052 735.1,-374.187 905.662,-324 995.791,-297.48 1101.06,-266.037 1159.57,-248.518"/>
<ellipse fill="none" stroke="#3f0c9b" cx="441.613" cy="-459.051" rx="4.00001" ry="4.00001"/>
<polygon fill="#3f0c9b" stroke="#3f0c9b" points="1159.66,-248.49 1170.53,-249.932 1164.45,-247.056 1169.24,-245.621 1169.24,-245.621 1169.24,-245.621 1164.45,-247.056 1167.95,-241.31 1159.66,-248.49 1159.66,-248.49"/>
</g>
<!-- Tutorial -->
<g id="node3" class="node"><title>Tutorial</title>
<ellipse fill="none" stroke="black" cx="935.662" cy="-162" rx="48.9926" ry="18"/>
<text text-anchor="middle" x="935.662" y="-158.3" font-family="Times,serif" font-size="14.00">Tutorial</text>
</g>
<!-- Category&#45;&gt;SubCategory -->
<g id="edge8" class="edge"><title>Category&#45;&gt;SubCategory</title>
<path fill="none" stroke="#59433f" d="M137.969,-281.63C133.093,-274.803 127.741,-267.311 122.781,-260.367"/>
<ellipse fill="none" stroke="#59433f" cx="140.488" cy="-285.156" rx="4.00002" ry="4.00002"/>
<polygon fill="#59433f" stroke="#59433f" points="122.586,-260.094 120.435,-249.341 119.68,-256.025 116.774,-251.956 116.774,-251.956 116.774,-251.956 119.68,-256.025 113.112,-254.572 122.586,-260.094 122.586,-260.094"/>
</g>
<!-- Question -->
<g id="node9" class="node"><title>Question</title>
<ellipse fill="none" stroke="black" cx="272.662" cy="-162" rx="51.9908" ry="18"/>
<text text-anchor="middle" x="272.662" y="-158.3" font-family="Times,serif" font-size="14.00">Question</text>
</g>
<!-- Category&#45;&gt;Question -->
<g id="edge10" class="edge"><title>Category&#45;&gt;Question</title>
<path fill="none" stroke="#cc0597" d="M174.71,-280.329C189.314,-262.414 209.616,-237.624 227.662,-216 235.478,-206.634 244.136,-196.403 251.753,-187.45"/>
<polygon fill="#cc0597" stroke="#cc0597" points="174.348,-280.774 164.544,-285.686 171.191,-284.651 168.033,-288.528 168.033,-288.528 168.033,-288.528 171.191,-284.651 171.523,-291.369 174.348,-280.774 174.348,-280.774"/>
<polygon fill="#cc0597" stroke="#cc0597" points="251.916,-187.259 261.827,-182.567 255.159,-183.454 258.402,-179.648 258.402,-179.648 258.402,-179.648 255.159,-183.454 254.977,-176.729 251.916,-187.259 251.916,-187.259"/>
</g>
<!-- Answer -->
<g id="node14" class="node"><title>Answer</title>
<ellipse fill="none" stroke="black" cx="351.662" cy="-18" rx="46.2923" ry="18"/>
<text text-anchor="middle" x="351.662" y="-14.3" font-family="Times,serif" font-size="14.00">Answer</text>
</g>
<!-- Category&#45;&gt;Answer -->
<g id="edge9" class="edge"><title>Category&#45;&gt;Answer</title>
<path fill="none" stroke="#8f22fb" d="M95.4059,-296.033C69.1151,-288.781 40.5773,-275.676 24.662,-252 -21.1679,-183.823 -0.268482,-119.631 66.662,-72 102.862,-46.2383 224.702,-30.8006 296.828,-23.7007"/>
<polygon fill="#8f22fb" stroke="#8f22fb" points="95.644,-296.093 104.242,-302.899 100.493,-297.314 105.341,-298.535 105.341,-298.535 105.341,-298.535 100.493,-297.314 106.44,-294.171 95.644,-296.093 95.644,-296.093"/>
<polygon fill="#8f22fb" stroke="#8f22fb" points="297.139,-23.6709 307.523,-27.1928 302.116,-23.1922 307.093,-22.7135 307.093,-22.7135 307.093,-22.7135 302.116,-23.1922 306.662,-18.2341 297.139,-23.6709 297.139,-23.6709"/>
</g>
<!-- SubCategory&#45;&gt;Tutorial -->
<g id="edge14" class="edge"><title>SubCategory&#45;&gt;Tutorial</title>
<path fill="none" stroke="#4ae7c1" d="M175.367,-224.534C202.067,-221.538 232.737,-218.335 260.662,-216 534.396,-193.114 607.012,-226.932 877.662,-180 882.025,-179.243 886.526,-178.274 891.001,-177.183"/>
<ellipse fill="none" stroke="#4ae7c1" cx="171.191" cy="-225.007" rx="4.00001" ry="4.00001"/>
<polygon fill="#4ae7c1" stroke="#4ae7c1" points="891.02,-177.178 901.835,-178.987 895.855,-175.907 900.691,-174.635 900.691,-174.635 900.691,-174.635 895.855,-175.907 899.547,-170.283 891.02,-177.178 891.02,-177.178"/>
</g>
<!-- Choice -->
<g id="node7" class="node"><title>Choice</title>
<ellipse fill="none" stroke="black" cx="264.662" cy="-90" rx="40.0939" ry="18"/>
<text text-anchor="middle" x="264.662" y="-86.3" font-family="Times,serif" font-size="14.00">Choice</text>
</g>
<!-- SubCategory&#45;&gt;Choice -->
<g id="edge12" class="edge"><title>SubCategory&#45;&gt;Choice</title>
<path fill="none" stroke="#8422a4" d="M135.362,-210.656C147.545,-201.473 161.518,-190.536 173.662,-180 187.084,-168.355 219.555,-136.218 241.844,-113.931"/>
<polygon fill="#8422a4" stroke="#8422a4" points="135.272,-210.724 124.567,-213.101 131.265,-213.715 127.259,-216.707 127.259,-216.707 127.259,-216.707 131.265,-213.715 129.951,-220.313 135.272,-210.724 135.272,-210.724"/>
<polygon fill="#8422a4" stroke="#8422a4" points="241.905,-113.87 252.155,-109.974 245.438,-110.332 248.971,-106.794 248.971,-106.794 248.971,-106.794 245.438,-110.332 245.787,-103.614 241.905,-113.87 241.905,-113.87"/>
</g>
<!-- SubCategory&#45;&gt;Question -->
<g id="edge11" class="edge"><title>SubCategory&#45;&gt;Question</title>
<path fill="none" stroke="#161528" d="M147.434,-215.178C173.159,-204.459 205.744,-190.883 231.226,-180.265"/>
<ellipse fill="none" stroke="#161528" cx="143.573" cy="-216.787" rx="4.00002" ry="4.00002"/>
<polygon fill="#161528" stroke="#161528" points="231.384,-180.199 242.346,-180.507 236,-178.276 240.615,-176.353 240.615,-176.353 240.615,-176.353 236,-178.276 238.884,-172.199 231.384,-180.199 231.384,-180.199"/>
</g>
<!-- SubCategory&#45;&gt;Answer -->
<g id="edge13" class="edge"><title>SubCategory&#45;&gt;Answer</title>
<path fill="none" stroke="#986414" d="M65.2106,-212.158C53.5108,-203.837 42.1099,-193.083 35.662,-180 28.5889,-165.648 26.6919,-157.249 35.662,-144 94.1032,-57.6805 222.405,-30.9694 296.293,-22.7039"/>
<polygon fill="#986414" stroke="#986414" points="65.3762,-212.267 71.2334,-221.538 69.5462,-215.026 73.7163,-217.785 73.7163,-217.785 73.7163,-217.785 69.5462,-215.026 76.1992,-214.032 65.3762,-212.267 65.3762,-212.267"/>
<polygon fill="#986414" stroke="#986414" points="296.399,-22.6929 306.812,-26.1314 301.372,-22.1743 306.345,-21.6557 306.345,-21.6557 306.345,-21.6557 301.372,-22.1743 305.878,-17.1799 296.399,-22.6929 296.399,-22.6929"/>
</g>
<!-- VideoClass -->
<g id="node32" class="node"><title>VideoClass</title>
<ellipse fill="none" stroke="black" cx="104.662" cy="-162" rx="59.5901" ry="18"/>
<text text-anchor="middle" x="104.662" y="-158.3" font-family="Times,serif" font-size="14.00">VideoClass</text>
</g>
<!-- SubCategory&#45;&gt;VideoClass -->
<g id="edge15" class="edge"><title>SubCategory&#45;&gt;VideoClass</title>
<path fill="none" stroke="#393718" d="M104.662,-207.64C104.662,-202.063 104.662,-196.132 104.662,-190.476"/>
<ellipse fill="none" stroke="#393718" cx="104.662" cy="-211.697" rx="4" ry="4"/>
<polygon fill="#393718" stroke="#393718" points="104.662,-190.104 109.162,-180.104 104.662,-185.104 104.662,-180.104 104.662,-180.104 104.662,-180.104 104.662,-185.104 100.162,-180.104 104.662,-190.104 104.662,-190.104"/>
</g>
<!-- Plan -->
<g id="node6" class="node"><title>Plan</title>
<ellipse fill="none" stroke="black" cx="891.662" cy="-234" rx="30.5947" ry="18"/>
<text text-anchor="middle" x="891.662" y="-230.3" font-family="Times,serif" font-size="14.00">Plan</text>
</g>
<!-- Plan&#45;&gt;CourseUser -->
<g id="edge17" class="edge"><title>Plan&#45;&gt;CourseUser</title>
<path fill="none" stroke="#9d5538" d="M877.078,-260.015C871.594,-266.944 865.248,-274.444 859.068,-281.296"/>
<polygon fill="#9d5538" stroke="#9d5538" points="877.413,-259.577 887.062,-254.367 880.45,-255.605 883.487,-251.633 883.487,-251.633 883.487,-251.633 880.45,-255.605 879.913,-248.9 877.413,-259.577 877.413,-259.577"/>
<polygon fill="#9d5538" stroke="#9d5538" points="858.944,-281.43 848.846,-285.706 855.546,-285.097 852.147,-288.765 852.147,-288.765 852.147,-288.765 855.546,-285.097 855.447,-291.823 858.944,-281.43 858.944,-281.43"/>
</g>
<!-- CourseUserPlan -->
<g id="node26" class="node"><title>CourseUserPlan</title>
<ellipse fill="none" stroke="black" cx="785.662" cy="-162" rx="83.3857" ry="18"/>
<text text-anchor="middle" x="785.662" y="-158.3" font-family="Times,serif" font-size="14.00">CourseUserPlan</text>
</g>
<!-- Plan&#45;&gt;CourseUserPlan -->
<g id="edge16" class="edge"><title>Plan&#45;&gt;CourseUserPlan</title>
<path fill="none" stroke="#2514c4" d="M864.86,-215.301C850.859,-206.054 833.599,-194.656 818.769,-184.863"/>
<ellipse fill="none" stroke="#2514c4" cx="868.386" cy="-217.629" rx="4.00002" ry="4.00002"/>
<polygon fill="#2514c4" stroke="#2514c4" points="818.706,-184.822 812.842,-175.556 814.534,-182.066 810.362,-179.311 810.362,-179.311 810.362,-179.311 814.534,-182.066 807.882,-183.066 818.706,-184.822 818.706,-184.822"/>
</g>
<!-- Choice&#45;&gt;Answer -->
<g id="edge18" class="edge"><title>Choice&#45;&gt;Answer</title>
<path fill="none" stroke="#5fe723" d="M289.946,-68.6562C300.772,-59.9459 313.435,-49.7575 324.463,-40.884"/>
<ellipse fill="none" stroke="#5fe723" cx="286.656" cy="-71.3035" rx="4.00002" ry="4.00002"/>
<polygon fill="#5fe723" stroke="#5fe723" points="324.729,-40.6698 335.342,-37.9071 328.625,-37.5354 332.521,-34.401 332.521,-34.401 332.521,-34.401 328.625,-37.5354 329.7,-30.895 324.729,-40.6698 324.729,-40.6698"/>
</g>
<!-- User&#45;&gt;Category -->
<g id="edge20" class="edge"><title>User&#45;&gt;Category</title>
<path fill="none" stroke="#653938" d="M266.982,-361.223C245.092,-350.656 216.182,-336.699 193.174,-325.592"/>
<polygon fill="#653938" stroke="#653938" points="267.037,-361.25 274.086,-369.65 271.54,-363.424 276.043,-365.597 276.043,-365.597 276.043,-365.597 271.54,-363.424 277.999,-361.545 267.037,-361.25 267.037,-361.25"/>
<polygon fill="#653938" stroke="#653938" points="193.04,-325.527 185.991,-317.127 188.537,-323.353 184.034,-321.18 184.034,-321.18 184.034,-321.18 188.537,-323.353 182.078,-325.232 193.04,-325.527 193.04,-325.527"/>
</g>
<!-- User&#45;&gt;SubCategory -->
<g id="edge21" class="edge"><title>User&#45;&gt;SubCategory</title>
<path fill="none" stroke="#b8fd34" d="M281.881,-353.034C266.534,-333.603 242.905,-306.499 217.662,-288 198.186,-273.727 174.255,-261.837 153.437,-252.961"/>
<polygon fill="#b8fd34" stroke="#b8fd34" points="282.007,-353.197 284.571,-363.859 285.068,-357.15 288.129,-361.104 288.129,-361.104 288.129,-361.104 285.068,-357.15 291.687,-358.349 282.007,-353.197 282.007,-353.197"/>
<polygon fill="#b8fd34" stroke="#b8fd34" points="153.355,-252.927 145.842,-244.94 148.737,-251.012 144.118,-249.097 144.118,-249.097 144.118,-249.097 148.737,-251.012 142.394,-253.253 153.355,-252.927 153.355,-252.927"/>
</g>
<!-- User&#45;&gt;Answer -->
<g id="edge22" class="edge"><title>User&#45;&gt;Answer</title>
<path fill="none" stroke="#8fd556" d="M283.496,-353.86C262.466,-320.622 231.651,-258.676 260.662,-216 285.114,-180.03 327.21,-215.97 351.662,-180 378.862,-139.988 369.28,-80.4787 360.22,-46.1308"/>
<ellipse fill="none" stroke="#8fd556" cx="285.887" cy="-357.535" rx="4.00002" ry="4.00002"/>
<polygon fill="#8fd556" stroke="#8fd556" points="360.171,-45.9558 361.799,-35.1114 358.819,-41.1421 357.467,-36.3284 357.467,-36.3284 357.467,-36.3284 358.819,-41.1421 353.135,-37.5453 360.171,-45.9558 360.171,-45.9558"/>
</g>
<!-- User&#45;&gt;Test -->
<g id="edge24" class="edge"><title>User&#45;&gt;Test</title>
<path fill="none" stroke="#3bb1db" d="M334.236,-362.542C336.407,-361.672 338.562,-360.819 340.662,-360 377.681,-345.567 420.448,-330.078 449.894,-319.595"/>
<polygon fill="#3bb1db" stroke="#3bb1db" points="334.009,-362.634 323.051,-362.233 329.377,-364.518 324.746,-366.401 324.746,-366.401 324.746,-366.401 329.377,-364.518 326.441,-370.57 334.009,-362.634 334.009,-362.634"/>
<polygon fill="#3bb1db" stroke="#3bb1db" points="449.918,-319.586 460.847,-320.481 454.629,-317.913 459.341,-316.24 459.341,-316.24 459.341,-316.24 454.629,-317.913 457.835,-312 449.918,-319.586 449.918,-319.586"/>
</g>
<!-- UserAttitudeTest -->
<g id="node17" class="node"><title>UserAttitudeTest</title>
<ellipse fill="none" stroke="black" cx="363.662" cy="-234" rx="93.6835" ry="18"/>
<text text-anchor="middle" x="363.662" y="-230.3" font-family="Times,serif" font-size="14.00">UserAttitudeTest</text>
</g>
<!-- User&#45;&gt;UserAttitudeTest -->
<g id="edge23" class="edge"><title>User&#45;&gt;UserAttitudeTest</title>
<path fill="none" stroke="#52c394" d="M310.523,-352.903C321.927,-327.6 339.812,-287.918 351.635,-261.684"/>
<ellipse fill="none" stroke="#52c394" cx="308.772" cy="-356.786" rx="4.00002" ry="4.00002"/>
<polygon fill="#52c394" stroke="#52c394" points="351.735,-261.463 359.946,-254.196 353.789,-256.905 355.844,-252.346 355.844,-252.346 355.844,-252.346 353.789,-256.905 351.741,-250.497 351.735,-261.463 351.735,-261.463"/>
</g>
<!-- User&#45;&gt;CourseUser -->
<g id="edge19" class="edge"><title>User&#45;&gt;CourseUser</title>
<path fill="none" stroke="#7f0ffe" d="M331.239,-362.868C334.383,-361.776 337.559,-360.793 340.662,-360 485.969,-322.869 661.889,-311.733 759.1,-308.405"/>
<ellipse fill="none" stroke="#7f0ffe" cx="327.296" cy="-364.349" rx="4.00001" ry="4.00001"/>
<polygon fill="#7f0ffe" stroke="#7f0ffe" points="759.125,-308.405 769.266,-312.578 764.122,-308.243 769.12,-308.081 769.12,-308.081 769.12,-308.081 764.122,-308.243 768.974,-303.583 759.125,-308.405 759.125,-308.405"/>
</g>
<!-- Question&#45;&gt;Choice -->
<g id="edge26" class="edge"><title>Question&#45;&gt;Choice</title>
<path fill="none" stroke="#ddece4" d="M269.764,-135.64C269.11,-129.92 268.414,-123.828 267.752,-118.042"/>
<ellipse fill="none" stroke="#ddece4" cx="270.23" cy="-139.722" rx="4.00001" ry="4.00001"/>
<polygon fill="#ddece4" stroke="#ddece4" points="267.752,-118.04 271.088,-107.593 267.185,-113.072 266.617,-108.104 266.617,-108.104 266.617,-108.104 267.185,-113.072 262.146,-108.615 267.752,-118.04 267.752,-118.04"/>
</g>
<!-- Question&#45;&gt;Question -->
<g id="edge27" class="edge"><title>Question&#45;&gt;Question</title>
<path fill="none" stroke="#ba19f8" d="M316.899,-175.498C331.252,-175.398 342.657,-170.899 342.657,-162 342.657,-153.513 332.284,-149.028 318.873,-148.544"/>
<ellipse fill="none" stroke="#ba19f8" cx="312.671" cy="-175.294" rx="4" ry="4"/>
<polygon fill="#ba19f8" stroke="#ba19f8" points="318.67,-148.551 308.519,-144.402 313.673,-148.725 308.676,-148.899 308.676,-148.899 308.676,-148.899 313.673,-148.725 308.833,-153.396 318.67,-148.551 318.67,-148.551"/>
</g>
<!-- Question&#45;&gt;Answer -->
<g id="edge25" class="edge"><title>Question&#45;&gt;Answer</title>
<path fill="none" stroke="#424484" d="M292.253,-138.327C299.527,-129.261 307.5,-118.494 313.662,-108 325.434,-87.9528 335.583,-63.5746 342.423,-45.4047"/>
<ellipse fill="none" stroke="#424484" cx="289.651" cy="-141.504" rx="4.00002" ry="4.00002"/>
<polygon fill="#424484" stroke="#424484" points="342.424,-45.4025 350.096,-37.5677 344.148,-40.7092 345.872,-36.0159 345.872,-36.0159 345.872,-36.0159 344.148,-40.7092 341.648,-34.4641 342.424,-45.4025 342.424,-45.4025"/>
</g>
<!-- Career -->
<g id="node11" class="node"><title>Career</title>
<ellipse fill="none" stroke="black" cx="1128.66" cy="-378" rx="42.4939" ry="18"/>
<text text-anchor="middle" x="1128.66" y="-374.3" font-family="Times,serif" font-size="14.00">Career</text>
</g>
<!-- EventType -->
<g id="node12" class="node"><title>EventType</title>
<ellipse fill="none" stroke="black" cx="1328.66" cy="-471" rx="61.99" ry="18"/>
<text text-anchor="middle" x="1328.66" y="-467.3" font-family="Times,serif" font-size="14.00">EventType</text>
</g>
<!-- Event -->
<g id="node28" class="node"><title>Event</title>
<ellipse fill="none" stroke="black" cx="1328.66" cy="-378" rx="38.1938" ry="18"/>
<text text-anchor="middle" x="1328.66" y="-374.3" font-family="Times,serif" font-size="14.00">Event</text>
</g>
<!-- EventType&#45;&gt;Event -->
<g id="edge28" class="edge"><title>EventType&#45;&gt;Event</title>
<path fill="none" stroke="#164dc6" d="M1328.66,-444.729C1328.66,-432.725 1328.66,-418.362 1328.66,-406.129"/>
<ellipse fill="none" stroke="#164dc6" cx="1328.66" cy="-448.884" rx="4" ry="4"/>
<polygon fill="#164dc6" stroke="#164dc6" points="1328.66,-406.04 1333.16,-396.04 1328.66,-401.04 1328.66,-396.04 1328.66,-396.04 1328.66,-396.04 1328.66,-401.04 1324.16,-396.04 1328.66,-406.04 1328.66,-406.04"/>
</g>
<!-- Video -->
<g id="node13" class="node"><title>Video</title>
<ellipse fill="none" stroke="black" cx="976.662" cy="-234" rx="36.2938" ry="18"/>
<text text-anchor="middle" x="976.662" y="-230.3" font-family="Times,serif" font-size="14.00">Video</text>
</g>
<!-- Video&#45;&gt;Tutorial -->
<g id="edge30" class="edge"><title>Video&#45;&gt;Tutorial</title>
<path fill="none" stroke="#4c7d47" d="M962.808,-209.346C958.573,-202.116 953.914,-194.162 949.669,-186.915"/>
<ellipse fill="none" stroke="#4c7d47" cx="964.924" cy="-212.959" rx="4.00002" ry="4.00002"/>
<ellipse fill="#4c7d47" stroke="#4c7d47" cx="947.615" cy="-183.408" rx="4.00002" ry="4.00002"/>
</g>
<!-- Resource -->
<g id="node30" class="node"><title>Resource</title>
<ellipse fill="none" stroke="black" cx="1055.66" cy="-162" rx="53.0913" ry="18"/>
<text text-anchor="middle" x="1055.66" y="-158.3" font-family="Times,serif" font-size="14.00">Resource</text>
</g>
<!-- Video&#45;&gt;Resource -->
<g id="edge29" class="edge"><title>Video&#45;&gt;Resource</title>
<path fill="none" stroke="#48d01f" d="M999.826,-212.475C1009.76,-203.671 1021.37,-193.382 1031.43,-184.475"/>
<ellipse fill="none" stroke="#48d01f" cx="996.798" cy="-215.158" rx="4.00002" ry="4.00002"/>
<ellipse fill="#48d01f" stroke="#48d01f" cx="1034.46" cy="-181.786" rx="4.00002" ry="4.00002"/>
</g>
<!-- Point -->
<g id="node15" class="node"><title>Point</title>
<ellipse fill="none" stroke="black" cx="1473.66" cy="-378" rx="35.194" ry="18"/>
<text text-anchor="middle" x="1473.66" y="-374.3" font-family="Times,serif" font-size="14.00">Point</text>
</g>
<!-- Test&#45;&gt;Question -->
<g id="edge31" class="edge"><title>Test&#45;&gt;Question</title>
<path fill="none" stroke="#36b093" d="M486.946,-279.868C486.558,-260.039 482.71,-232.98 466.662,-216 432.913,-180.294 377.649,-167.827 334.721,-163.841"/>
<ellipse fill="none" stroke="#36b093" cx="486.935" cy="-283.873" rx="4" ry="4"/>
<polygon fill="#36b093" stroke="#36b093" points="334.62,-163.833 325.009,-158.552 329.636,-163.435 324.651,-163.038 324.651,-163.038 324.651,-163.038 329.636,-163.435 324.294,-167.524 334.62,-163.833 334.62,-163.833"/>
</g>
<!-- Test&#45;&gt;Answer -->
<g id="edge32" class="edge"><title>Test&#45;&gt;Answer</title>
<path fill="none" stroke="#418e07" d="M491.334,-279.823C494.344,-261.663 496.219,-236.789 489.662,-216 467.124,-144.544 408.386,-76.4768 375.265,-42.1515"/>
<ellipse fill="none" stroke="#418e07" cx="490.523" cy="-284.218" rx="4.00001" ry="4.00001"/>
<polygon fill="#418e07" stroke="#418e07" points="375.214,-42.0995 371.431,-31.8067 371.715,-38.5275 368.217,-34.9555 368.217,-34.9555 368.217,-34.9555 371.715,-38.5275 365.002,-38.1044 375.214,-42.0995 375.214,-42.0995"/>
</g>
<!-- Test&#45;&gt;UserAttitudeTest -->
<g id="edge34" class="edge"><title>Test&#45;&gt;UserAttitudeTest</title>
<path fill="none" stroke="#a4aba4" d="M456.937,-288.519C440.211,-278.922 418.938,-266.716 400.932,-256.385"/>
<ellipse fill="none" stroke="#a4aba4" cx="460.662" cy="-290.656" rx="4.00002" ry="4.00002"/>
<polygon fill="#a4aba4" stroke="#a4aba4" points="400.53,-256.154 394.095,-247.274 396.193,-253.665 391.856,-251.177 391.856,-251.177 391.856,-251.177 396.193,-253.665 389.616,-255.08 400.53,-256.154 400.53,-256.154"/>
</g>
<!-- CourseUserTest -->
<g id="node21" class="node"><title>CourseUserTest</title>
<ellipse fill="none" stroke="black" cx="719.662" cy="-234" rx="85.2851" ry="18"/>
<text text-anchor="middle" x="719.662" y="-230.3" font-family="Times,serif" font-size="14.00">CourseUserTest</text>
</g>
<!-- Test&#45;&gt;CourseUserTest -->
<g id="edge33" class="edge"><title>Test&#45;&gt;CourseUserTest</title>
<path fill="none" stroke="#439816" d="M521.15,-294.384C558.731,-283.142 618.614,-265.228 662.791,-252.013"/>
<ellipse fill="none" stroke="#439816" cx="517.256" cy="-295.549" rx="4.00001" ry="4.00001"/>
<polygon fill="#439816" stroke="#439816" points="662.948,-251.966 673.818,-253.411 667.738,-250.533 672.529,-249.1 672.529,-249.1 672.529,-249.1 667.738,-250.533 671.239,-244.789 662.948,-251.966 662.948,-251.966"/>
</g>
<!-- Blog -->
<g id="node18" class="node"><title>Blog</title>
<ellipse fill="none" stroke="black" cx="1061.66" cy="-234" rx="30.5947" ry="18"/>
<text text-anchor="middle" x="1061.66" y="-230.3" font-family="Times,serif" font-size="14.00">Blog</text>
</g>
<!-- Blog&#45;&gt;Tutorial -->
<g id="edge35" class="edge"><title>Blog&#45;&gt;Tutorial</title>
<path fill="none" stroke="#28bb23" d="M1033.03,-217.092C1013.87,-206.449 988.604,-192.412 968.611,-181.305"/>
<ellipse fill="none" stroke="#28bb23" cx="1036.79" cy="-219.183" rx="4.00002" ry="4.00002"/>
<ellipse fill="#28bb23" stroke="#28bb23" cx="965.001" cy="-179.3" rx="4.00002" ry="4.00002"/>
</g>
<!-- Blog&#45;&gt;Resource -->
<g id="edge36" class="edge"><title>Blog&#45;&gt;Resource</title>
<path fill="none" stroke="#80e36b" d="M1059.49,-207.64C1058.95,-201.348 1058.37,-194.605 1057.83,-188.316"/>
<ellipse fill="none" stroke="#80e36b" cx="1059.84" cy="-211.711" rx="4" ry="4"/>
<ellipse fill="#80e36b" stroke="#80e36b" cx="1057.47" cy="-184.09" rx="4" ry="4"/>
</g>
<!-- School -->
<g id="node19" class="node"><title>School</title>
<ellipse fill="none" stroke="black" cx="1068.66" cy="-471" rx="40.0939" ry="18"/>
<text text-anchor="middle" x="1068.66" y="-467.3" font-family="Times,serif" font-size="14.00">School</text>
</g>
<!-- School&#45;&gt;Career -->
<g id="edge37" class="edge"><title>School&#45;&gt;Career</title>
<path fill="none" stroke="#44a1b5" d="M1084.25,-446.357C1092.79,-433.409 1103.37,-417.363 1112.06,-404.18"/>
<ellipse fill="none" stroke="#44a1b5" cx="1081.87" cy="-449.97" rx="4.00002" ry="4.00002"/>
<polygon fill="#44a1b5" stroke="#44a1b5" points="1112.22,-403.934 1121.48,-398.062 1114.97,-399.759 1117.73,-395.585 1117.73,-395.585 1117.73,-395.585 1114.97,-399.759 1113.97,-393.108 1112.22,-403.934 1112.22,-403.934"/>
</g>
<!-- Student -->
<g id="node20" class="node"><title>Student</title>
<polygon fill="none" stroke="black" stroke-dasharray="1,5" points="1631.66,-489 1557.66,-489 1557.66,-453 1631.66,-453 1631.66,-489"/>
<text text-anchor="middle" x="1594.66" y="-467.3" font-family="Times,serif" font-size="14.00">Student</text>
</g>
<!-- CourseUserTest&#45;&gt;Answer -->
<g id="edge38" class="edge"><title>CourseUserTest&#45;&gt;Answer</title>
<path fill="none" stroke="#777a01" d="M703.619,-209.49C678.185,-174.083 625.141,-107.452 563.662,-72 514.725,-43.7803 450.994,-30.4578 406.234,-24.2498"/>
<ellipse fill="none" stroke="#777a01" cx="706.019" cy="-212.874" rx="4.00002" ry="4.00002"/>
<polygon fill="#777a01" stroke="#777a01" points="406.051,-24.2259 396.722,-18.4632 401.094,-23.5754 396.136,-22.9249 396.136,-22.9249 396.136,-22.9249 401.094,-23.5754 395.551,-27.3867 406.051,-24.2259 406.051,-24.2259"/>
</g>
<!-- PointAction -->
<g id="node22" class="node"><title>PointAction</title>
<ellipse fill="none" stroke="black" cx="1473.66" cy="-471" rx="65.7887" ry="18"/>
<text text-anchor="middle" x="1473.66" y="-467.3" font-family="Times,serif" font-size="14.00">PointAction</text>
</g>
<!-- PointAction&#45;&gt;Point -->
<g id="edge39" class="edge"><title>PointAction&#45;&gt;Point</title>
<path fill="none" stroke="#051cf4" d="M1473.66,-444.729C1473.66,-432.725 1473.66,-418.362 1473.66,-406.129"/>
<ellipse fill="none" stroke="#051cf4" cx="1473.66" cy="-448.884" rx="4" ry="4"/>
<polygon fill="#051cf4" stroke="#051cf4" points="1473.66,-406.04 1478.16,-396.04 1473.66,-401.04 1473.66,-396.04 1473.66,-396.04 1473.66,-396.04 1473.66,-401.04 1469.16,-396.04 1473.66,-406.04 1473.66,-406.04"/>
</g>
<!-- ResourceProgress -->
<g id="node23" class="node"><title>ResourceProgress</title>
<ellipse fill="none" stroke="black" cx="1136.66" cy="-90" rx="94.7833" ry="18"/>
<text text-anchor="middle" x="1136.66" y="-86.3" font-family="Times,serif" font-size="14.00">ResourceProgress</text>
</g>
<!-- CourseUser&#45;&gt;Plan -->
<g id="edge43" class="edge"><title>CourseUser&#45;&gt;Plan</title>
<path fill="none" stroke="#f44d13" d="M845.993,-281.578C852.734,-272.959 860.97,-263.284 868.644,-254.995"/>
<ellipse fill="none" stroke="#f44d13" cx="843.488" cy="-284.871" rx="4.00002" ry="4.00002"/>
<ellipse fill="#f44d13" stroke="#f44d13" cx="871.614" cy="-251.866" rx="4.00002" ry="4.00002"/>
</g>
<!-- CourseUser&#45;&gt;CourseUserTest -->
<g id="edge41" class="edge"><title>CourseUser&#45;&gt;CourseUserTest</title>
<path fill="none" stroke="#cafac3" d="M800.147,-284.858C785.839,-275.994 769.01,-265.57 754.45,-256.55"/>
<ellipse fill="none" stroke="#cafac3" cx="803.902" cy="-287.184" rx="4.00002" ry="4.00002"/>
<polygon fill="#cafac3" stroke="#cafac3" points="754.222,-256.409 748.09,-247.317 749.971,-253.776 745.721,-251.142 745.721,-251.142 745.721,-251.142 749.971,-253.776 743.351,-254.968 754.222,-256.409 754.222,-256.409"/>
</g>
<!-- CourseUser&#45;&gt;ResourceProgress -->
<g id="edge40" class="edge"><title>CourseUser&#45;&gt;ResourceProgress</title>
<path fill="none" stroke="#8f3b73" d="M901.917,-299.871C971.989,-293.237 1073.84,-279.158 1101.66,-252 1137.56,-216.962 1140.7,-154.381 1139.12,-118.432"/>
<ellipse fill="none" stroke="#8f3b73" cx="897.52" cy="-300.276" rx="4" ry="4"/>
<polygon fill="#8f3b73" stroke="#8f3b73" points="1139.1,-118.172 1143,-107.922 1138.8,-113.181 1138.5,-108.19 1138.5,-108.19 1138.5,-108.19 1138.8,-113.181 1134.01,-108.458 1139.1,-118.172 1139.1,-118.172"/>
</g>
<!-- CourseUser&#45;&gt;CourseUserPlan -->
<g id="edge42" class="edge"><title>CourseUser&#45;&gt;CourseUserPlan</title>
<path fill="none" stroke="#08a330" d="M829.148,-279.577C826.189,-261.488 821.213,-236.804 813.662,-216 810.111,-206.218 805.062,-195.991 800.227,-187.159"/>
<ellipse fill="none" stroke="#08a330" cx="829.825" cy="-283.929" rx="4.00001" ry="4.00001"/>
<ellipse fill="#08a330" stroke="#08a330" cx="798.218" cy="-183.594" rx="4.00002" ry="4.00002"/>
</g>
<!-- Section&#45;&gt;ResourceProgress -->
<g id="edge45" class="edge"><title>Section&#45;&gt;ResourceProgress</title>
<path fill="none" stroke="#5c9754" d="M1192.98,-208.6C1180.84,-183.247 1161.9,-143.695 1149.38,-117.567"/>
<ellipse fill="none" stroke="#5c9754" cx="1194.87" cy="-212.545" rx="4.00002" ry="4.00002"/>
<polygon fill="#5c9754" stroke="#5c9754" points="1149.25,-117.287 1148.99,-106.324 1147.09,-112.777 1144.93,-108.268 1144.93,-108.268 1144.93,-108.268 1147.09,-112.777 1140.87,-110.211 1149.25,-117.287 1149.25,-117.287"/>
</g>
<!-- Section&#45;&gt;Resource -->
<g id="edge44" class="edge"><title>Section&#45;&gt;Resource</title>
<path fill="none" stroke="#f63fe8" d="M1168.99,-216.243C1146.57,-205.709 1117.63,-192.114 1094.61,-181.298"/>
<ellipse fill="none" stroke="#f63fe8" cx="1172.67" cy="-217.968" rx="4.00002" ry="4.00002"/>
<polygon fill="#f63fe8" stroke="#f63fe8" points="1094.52,-181.253 1087.38,-172.928 1089.99,-179.127 1085.46,-177.001 1085.46,-177.001 1085.46,-177.001 1089.99,-179.127 1083.55,-181.074 1094.52,-181.253 1094.52,-181.253"/>
</g>
<!-- Webinar -->
<g id="node27" class="node"><title>Webinar</title>
<ellipse fill="none" stroke="black" cx="1698.66" cy="-471" rx="49.2915" ry="18"/>
<text text-anchor="middle" x="1698.66" y="-467.3" font-family="Times,serif" font-size="14.00">Webinar</text>
</g>
<!-- University -->
<g id="node29" class="node"><title>University</title>
<ellipse fill="none" stroke="black" cx="1187.66" cy="-471" rx="61.1893" ry="18"/>
<text text-anchor="middle" x="1187.66" y="-467.3" font-family="Times,serif" font-size="14.00">University</text>
</g>
<!-- University&#45;&gt;Career -->
<g id="edge46" class="edge"><title>University&#45;&gt;Career</title>
<path fill="none" stroke="#257509" d="M1172.05,-445.921C1163.66,-432.974 1153.32,-417.029 1144.84,-403.951"/>
<ellipse fill="none" stroke="#257509" cx="1174.39" cy="-449.527" rx="4.00002" ry="4.00002"/>
<polygon fill="#257509" stroke="#257509" points="1144.75,-403.817 1143.09,-392.979 1142.03,-399.622 1139.31,-395.427 1139.31,-395.427 1139.31,-395.427 1142.03,-399.622 1135.54,-397.875 1144.75,-403.817 1144.75,-403.817"/>
</g>
<!-- Resource&#45;&gt;ResourceProgress -->
<g id="edge47" class="edge"><title>Resource&#45;&gt;ResourceProgress</title>
<path fill="none" stroke="#a9759f" d="M1080.77,-139.303C1089.91,-131.406 1100.27,-122.449 1109.57,-114.411"/>
<ellipse fill="none" stroke="#a9759f" cx="1077.48" cy="-142.149" rx="4.00002" ry="4.00002"/>
<polygon fill="#a9759f" stroke="#a9759f" points="1109.85,-114.172 1120.36,-111.038 1113.63,-110.903 1117.41,-107.633 1117.41,-107.633 1117.41,-107.633 1113.63,-110.903 1114.47,-104.229 1109.85,-114.172 1109.85,-114.172"/>
</g>
<!-- Task -->
<g id="node31" class="node"><title>Task</title>
<ellipse fill="none" stroke="black" cx="583.662" cy="-234" rx="32.4942" ry="18"/>
<text text-anchor="middle" x="583.662" y="-230.3" font-family="Times,serif" font-size="14.00">Task</text>
</g>
<!-- Task&#45;&gt;Question -->
<g id="edge50" class="edge"><title>Task&#45;&gt;Question</title>
<path fill="none" stroke="#ac2fc6" d="M546.277,-224.585C491.131,-212.173 387.76,-188.906 325.071,-174.796"/>
<ellipse fill="none" stroke="#ac2fc6" cx="550.221" cy="-225.473" rx="4.00001" ry="4.00001"/>
<polygon fill="#ac2fc6" stroke="#ac2fc6" points="324.751,-174.724 315.983,-168.138 319.873,-173.626 314.995,-172.528 314.995,-172.528 314.995,-172.528 319.873,-173.626 314.007,-176.918 324.751,-174.724 324.751,-174.724"/>
</g>
<!-- Task&#45;&gt;Answer -->
<g id="edge49" class="edge"><title>Task&#45;&gt;Answer</title>
<path fill="none" stroke="#e76cc9" d="M583.645,-207.409C582.198,-172.07 574.248,-108.56 537.662,-72 503.505,-37.8674 449.026,-25.3581 407.837,-20.9492"/>
<ellipse fill="none" stroke="#e76cc9" cx="583.77" cy="-211.755" rx="4" ry="4"/>
<polygon fill="#e76cc9" stroke="#e76cc9" points="407.628,-20.9297 398.093,-15.5143 402.65,-20.4621 397.672,-19.9946 397.672,-19.9946 397.672,-19.9946 402.65,-20.4621 397.251,-24.4749 407.628,-20.9297 407.628,-20.9297"/>
</g>
<!-- Task&#45;&gt;Resource -->
<g id="edge48" class="edge"><title>Task&#45;&gt;Resource</title>
<path fill="none" stroke="#71d7a9" d="M615.741,-218.935C619.05,-217.812 622.396,-216.803 625.662,-216 785.247,-176.768 832.057,-209.836 993.662,-180 998.704,-179.069 1003.93,-177.925 1009.12,-176.674"/>
<ellipse fill="none" stroke="#71d7a9" cx="611.9" cy="-220.344" rx="4.00001" ry="4.00001"/>
<ellipse fill="#71d7a9" stroke="#71d7a9" cx="1013.32" cy="-175.614" rx="4.00001" ry="4.00001"/>
</g>
</g>
</svg>
