<?xml version="1.0" encoding="UTF-8" standalone="no"?>
<!DOCTYPE svg PUBLIC "-//W3C//DTD SVG 1.1//EN"
 "http://www.w3.org/Graphics/SVG/1.1/DTD/svg11.dtd">
<!-- Generated by graphviz version 2.38.0 (20140413.2041)
 -->
<!-- Title: models_diagram Pages: 1 -->
<svg width="1646pt" height="590pt"
 viewBox="0.00 0.00 1646.00 590.00" xmlns="http://www.w3.org/2000/svg" xmlns:xlink="http://www.w3.org/1999/xlink">
<g id="graph0" class="graph" transform="scale(1 1) rotate(0) translate(4 586)">
<title>models_diagram</title>
<polygon fill="none" stroke="none" points="-4,4 -4,-586 1642,-586 1642,4 -4,4"/>
<!-- _diagram_info -->
<g id="node1" class="node"><title>_diagram_info</title>
<text text-anchor="start" x="704" y="-567.6" font-family="Times,serif" font-size="13.00">Models diagram</text>
<text text-anchor="start" x="704" y="-553.6" font-family="Times,serif" font-size="13.00">Date: Jul 26 2016 &#45; 17:31</text>
<text text-anchor="start" x="704" y="-539.6" font-family="Times,serif" font-size="13.00">Migration version: 20160726195054</text>
<text text-anchor="start" x="704" y="-525.6" font-family="Times,serif" font-size="13.00">Generated by RailRoady 1.5.1</text>
<text text-anchor="start" x="704" y="-511.6" font-family="Times,serif" font-size="13.00">http://railroady.prestonlee.com</text>
</g>
<!-- Course -->
<g id="node2" class="node"><title>Course</title>
<ellipse fill="none" stroke="black" cx="990" cy="-543" rx="42.4939" ry="18"/>
<text text-anchor="middle" x="990" y="-539.3" font-family="Times,serif" font-size="14.00">Course</text>
</g>
<!-- Category -->
<g id="node5" class="node"><title>Category</title>
<ellipse fill="none" stroke="black" cx="293" cy="-378" rx="53.8905" ry="18"/>
<text text-anchor="middle" x="293" y="-374.3" font-family="Times,serif" font-size="14.00">Category</text>
</g>
<!-- Course&#45;&gt;Category -->
<g id="edge1" class="edge"><title>Course&#45;&gt;Category</title>
<path fill="none" stroke="#65e8e2" d="M967.427,-520.769C959.11,-514.205 949.211,-507.726 939,-504 812.478,-457.831 445.214,-543.966 334,-468 313.33,-453.881 302.876,-426.591 297.723,-405.934"/>
<ellipse fill="none" stroke="#65e8e2" cx="970.937" cy="-523.687" rx="4.00002" ry="4.00002"/>
<polygon fill="#65e8e2" stroke="#65e8e2" points="297.713,-405.889 299.934,-395.15 296.628,-401.008 295.542,-396.128 295.542,-396.128 295.542,-396.128 296.628,-401.008 291.149,-397.105 297.713,-405.889 297.713,-405.889"/>
</g>
<!-- User -->
<g id="node9" class="node"><title>User</title>
<ellipse fill="none" stroke="black" cx="375" cy="-450" rx="32.4942" ry="18"/>
<text text-anchor="middle" x="375" y="-446.3" font-family="Times,serif" font-size="14.00">User</text>
</g>
<!-- Course&#45;&gt;User -->
<g id="edge4" class="edge"><title>Course&#45;&gt;User</title>
<path fill="none" stroke="#bbcb51" d="M965.708,-519.69C957.742,-513.582 948.485,-507.646 939,-504 843.75,-467.381 532.308,-455.304 417.769,-452.043"/>
<polygon fill="#bbcb51" stroke="#bbcb51" points="965.741,-519.717 970.658,-529.519 969.62,-522.873 973.498,-526.028 973.498,-526.028 973.498,-526.028 969.62,-522.873 976.338,-522.538 965.741,-519.717 965.741,-519.717"/>
<polygon fill="#bbcb51" stroke="#bbcb51" points="417.626,-452.039 407.754,-447.264 412.628,-451.901 407.63,-451.762 407.63,-451.762 407.63,-451.762 412.628,-451.901 407.506,-456.261 417.626,-452.039 417.626,-452.039"/>
</g>
<!-- Test -->
<g id="node17" class="node"><title>Test</title>
<ellipse fill="none" stroke="black" cx="1241" cy="-306" rx="31.6951" ry="18"/>
<text text-anchor="middle" x="1241" y="-302.3" font-family="Times,serif" font-size="14.00">Test</text>
</g>
<!-- Course&#45;&gt;Test -->
<g id="edge5" class="edge"><title>Course&#45;&gt;Test</title>
<path fill="none" stroke="#a672f0" d="M1012.93,-520.536C1060.58,-475.92 1169.87,-373.592 1217.78,-328.739"/>
<ellipse fill="none" stroke="#a672f0" cx="1009.78" cy="-523.482" rx="4.00002" ry="4.00002"/>
<polygon fill="#a672f0" stroke="#a672f0" points="1217.89,-328.637 1228.27,-325.088 1221.54,-325.22 1225.19,-321.803 1225.19,-321.803 1225.19,-321.803 1221.54,-325.22 1222.11,-318.518 1217.89,-328.637 1217.89,-328.637"/>
</g>
<!-- CourseUser -->
<g id="node27" class="node"><title>CourseUser</title>
<ellipse fill="none" stroke="black" cx="1117" cy="-306" rx="63.8893" ry="18"/>
<text text-anchor="middle" x="1117" y="-302.3" font-family="Times,serif" font-size="14.00">CourseUser</text>
</g>
<!-- Course&#45;&gt;CourseUser -->
<g id="edge3" class="edge"><title>Course&#45;&gt;CourseUser</title>
<path fill="none" stroke="#2f0d15" d="M1002.98,-517.978C1026.98,-473.573 1078.09,-378.997 1102.9,-333.086"/>
<ellipse fill="none" stroke="#2f0d15" cx="1001.04" cy="-521.58" rx="4.00002" ry="4.00002"/>
<polygon fill="#2f0d15" stroke="#2f0d15" points="1103.02,-332.861 1111.74,-326.203 1105.4,-328.462 1107.78,-324.063 1107.78,-324.063 1107.78,-324.063 1105.4,-328.462 1103.82,-321.924 1103.02,-332.861 1103.02,-332.861"/>
</g>
<!-- Section -->
<g id="node28" class="node"><title>Section</title>
<ellipse fill="none" stroke="black" cx="990" cy="-306" rx="45.4919" ry="18"/>
<text text-anchor="middle" x="990" y="-302.3" font-family="Times,serif" font-size="14.00">Section</text>
</g>
<!-- Course&#45;&gt;Section -->
<g id="edge2" class="edge"><title>Course&#45;&gt;Section</title>
<path fill="none" stroke="#6f3595" d="M990,-516.687C990,-472.198 990,-380.358 990,-334.421"/>
<ellipse fill="none" stroke="#6f3595" cx="990" cy="-520.72" rx="4" ry="4"/>
<polygon fill="#6f3595" stroke="#6f3595" points="990,-334.305 994.5,-324.305 990,-329.305 990,-324.305 990,-324.305 990,-324.305 990,-329.305 985.5,-324.305 990,-334.305 990,-334.305"/>
</g>
<!-- License -->
<g id="node3" class="node"><title>License</title>
<ellipse fill="none" stroke="black" cx="625" cy="-378" rx="45.4919" ry="18"/>
<text text-anchor="middle" x="625" y="-374.3" font-family="Times,serif" font-size="14.00">License</text>
</g>
<!-- Tutorial -->
<g id="node4" class="node"><title>Tutorial</title>
<ellipse fill="none" stroke="black" cx="409" cy="-234" rx="48.9926" ry="18"/>
<text text-anchor="middle" x="409" y="-230.3" font-family="Times,serif" font-size="14.00">Tutorial</text>
</g>
<!-- Category&#45;&gt;Tutorial -->
<g id="edge9" class="edge"><title>Category&#45;&gt;Tutorial</title>
<path fill="none" stroke="#f59149" d="M339.319,-362.866C379.134,-350.253 431.07,-332.501 437,-324 450.44,-304.732 439.665,-278.731 427.798,-259.81"/>
<ellipse fill="none" stroke="#f59149" cx="335.35" cy="-364.115" rx="4.00001" ry="4.00001"/>
<polygon fill="#f59149" stroke="#f59149" points="427.735,-259.716 425.909,-248.903 424.953,-255.562 422.17,-251.408 422.17,-251.408 422.17,-251.408 424.953,-255.562 418.431,-253.912 427.735,-259.716 427.735,-259.716"/>
</g>
<!-- SubCategory -->
<g id="node6" class="node"><title>SubCategory</title>
<ellipse fill="none" stroke="black" cx="137" cy="-306" rx="70.6878" ry="18"/>
<text text-anchor="middle" x="137" y="-302.3" font-family="Times,serif" font-size="14.00">SubCategory</text>
</g>
<!-- Category&#45;&gt;SubCategory -->
<g id="edge6" class="edge"><title>Category&#45;&gt;SubCategory</title>
<path fill="none" stroke="#ac7952" d="M254.783,-359.851C232.093,-349.67 203.269,-336.736 179.815,-326.212"/>
<ellipse fill="none" stroke="#ac7952" cx="258.53" cy="-361.533" rx="4.00002" ry="4.00002"/>
<polygon fill="#ac7952" stroke="#ac7952" points="179.581,-326.107 172.299,-317.907 175.019,-324.06 170.457,-322.013 170.457,-322.013 170.457,-322.013 175.019,-324.06 168.615,-326.118 179.581,-326.107 179.581,-326.107"/>
</g>
<!-- Question -->
<g id="node11" class="node"><title>Question</title>
<ellipse fill="none" stroke="black" cx="528" cy="-234" rx="51.9908" ry="18"/>
<text text-anchor="middle" x="528" y="-230.3" font-family="Times,serif" font-size="14.00">Question</text>
</g>
<!-- Category&#45;&gt;Question -->
<g id="edge7" class="edge"><title>Category&#45;&gt;Question</title>
<path fill="none" stroke="#cbfbfe" d="M344.176,-363.635C384.45,-352.501 436.724,-336.504 455,-324 479.315,-307.365 499.834,-280.374 512.866,-260.472"/>
<polygon fill="#cbfbfe" stroke="#cbfbfe" points="344.13,-363.647 333.297,-361.944 339.307,-364.966 334.484,-366.285 334.484,-366.285 334.484,-366.285 339.307,-364.966 335.671,-370.625 344.13,-363.647 344.13,-363.647"/>
<polygon fill="#cbfbfe" stroke="#cbfbfe" points="512.954,-260.332 522.112,-254.3 515.634,-256.111 518.313,-251.889 518.313,-251.889 518.313,-251.889 515.634,-256.111 514.514,-249.478 512.954,-260.332 512.954,-260.332"/>
</g>
<!-- SimulatedCategory -->
<g id="node21" class="node"><title>SimulatedCategory</title>
<ellipse fill="none" stroke="black" cx="327" cy="-306" rx="100.983" ry="18"/>
<text text-anchor="middle" x="327" y="-302.3" font-family="Times,serif" font-size="14.00">SimulatedCategory</text>
</g>
<!-- Category&#45;&gt;SimulatedCategory -->
<g id="edge8" class="edge"><title>Category&#45;&gt;SimulatedCategory</title>
<path fill="none" stroke="#58e9b3" d="M304.741,-352.827C307.736,-346.661 310.972,-339.999 314.025,-333.714"/>
<ellipse fill="none" stroke="#58e9b3" cx="302.978" cy="-356.457" rx="4.00002" ry="4.00002"/>
<polygon fill="#58e9b3" stroke="#58e9b3" points="314.24,-333.27 322.657,-326.241 316.425,-328.773 318.609,-324.275 318.609,-324.275 318.609,-324.275 316.425,-328.773 314.561,-322.309 314.24,-333.27 314.24,-333.27"/>
</g>
<!-- SubCategory&#45;&gt;Tutorial -->
<g id="edge13" class="edge"><title>SubCategory&#45;&gt;Tutorial</title>
<path fill="none" stroke="#63b330" d="M192.946,-290.602C242.248,-277.914 313.345,-259.617 360.334,-247.524"/>
<ellipse fill="none" stroke="#63b330" cx="188.876" cy="-291.65" rx="4.00001" ry="4.00001"/>
<polygon fill="#63b330" stroke="#63b330" points="360.586,-247.46 371.392,-249.325 365.428,-246.213 370.271,-244.967 370.271,-244.967 370.271,-244.967 365.428,-246.213 369.149,-240.609 360.586,-247.46 360.586,-247.46"/>
</g>
<!-- Choice -->
<g id="node8" class="node"><title>Choice</title>
<ellipse fill="none" stroke="black" cx="312" cy="-90" rx="40.0939" ry="18"/>
<text text-anchor="middle" x="312" y="-86.3" font-family="Times,serif" font-size="14.00">Choice</text>
</g>
<!-- SubCategory&#45;&gt;Choice -->
<g id="edge11" class="edge"><title>SubCategory&#45;&gt;Choice</title>
<path fill="none" stroke="#811bd7" d="M124.964,-278.448C111.282,-243.821 94.4213,-183.07 124,-144 140.899,-121.678 214.215,-106.102 264.136,-97.8558"/>
<polygon fill="#811bd7" stroke="#811bd7" points="125.049,-278.653 124.718,-289.614 126.962,-283.273 128.875,-287.893 128.875,-287.893 128.875,-287.893 126.962,-283.273 133.033,-286.171 125.049,-278.653 125.049,-278.653"/>
<polygon fill="#811bd7" stroke="#811bd7" points="264.222,-97.8422 274.809,-100.699 269.158,-97.0491 274.095,-96.2561 274.095,-96.2561 274.095,-96.2561 269.158,-97.0491 273.381,-91.8131 264.222,-97.8422 264.222,-97.8422"/>
</g>
<!-- AnsweredQuestion -->
<g id="node10" class="node"><title>AnsweredQuestion</title>
<ellipse fill="none" stroke="black" cx="230" cy="-162" rx="97.4827" ry="18"/>
<text text-anchor="middle" x="230" y="-158.3" font-family="Times,serif" font-size="14.00">AnsweredQuestion</text>
</g>
<!-- SubCategory&#45;&gt;AnsweredQuestion -->
<g id="edge12" class="edge"><title>SubCategory&#45;&gt;AnsweredQuestion</title>
<path fill="none" stroke="#ae618b" d="M153.706,-279.492C170.506,-253.84 196.27,-214.502 213.128,-188.761"/>
<polygon fill="#ae618b" stroke="#ae618b" points="153.512,-279.788 144.269,-285.688 150.773,-283.97 148.034,-288.153 148.034,-288.153 148.034,-288.153 150.773,-283.97 151.798,-290.619 153.512,-279.788 153.512,-279.788"/>
<polygon fill="#ae618b" stroke="#ae618b" points="213.212,-188.633 222.455,-182.733 215.951,-184.451 218.691,-180.268 218.691,-180.268 218.691,-180.268 215.951,-184.451 214.926,-177.802 213.212,-188.633 213.212,-188.633"/>
</g>
<!-- SubCategory&#45;&gt;Question -->
<g id="edge10" class="edge"><title>SubCategory&#45;&gt;Question</title>
<path fill="none" stroke="#f35540" d="M196.573,-291.886C203.448,-290.508 210.369,-289.181 217,-288 327.519,-268.322 357.149,-275.116 467,-252 471.354,-251.084 475.855,-250.033 480.349,-248.912"/>
<ellipse fill="none" stroke="#f35540" cx="192.462" cy="-292.723" rx="4.00001" ry="4.00001"/>
<polygon fill="#f35540" stroke="#f35540" points="480.437,-248.889 491.247,-250.727 485.276,-247.631 490.115,-246.372 490.115,-246.372 490.115,-246.372 485.276,-247.631 488.982,-242.017 480.437,-248.889 480.437,-248.889"/>
</g>
<!-- Plan -->
<g id="node7" class="node"><title>Plan</title>
<ellipse fill="none" stroke="black" cx="1116" cy="-234" rx="30.5947" ry="18"/>
<text text-anchor="middle" x="1116" y="-230.3" font-family="Times,serif" font-size="14.00">Plan</text>
</g>
<!-- Plan&#45;&gt;CourseUser -->
<g id="edge15" class="edge"><title>Plan&#45;&gt;CourseUser</title>
<path fill="none" stroke="#7117a1" d="M1122.97,-261.968C1123.26,-267.176 1123.34,-272.634 1123.21,-277.848"/>
<polygon fill="#7117a1" stroke="#7117a1" points="1122.96,-261.752 1126.58,-251.404 1122.53,-256.771 1122.1,-251.789 1122.1,-251.789 1122.1,-251.789 1122.53,-256.771 1117.62,-252.174 1122.96,-261.752 1122.96,-261.752"/>
<polygon fill="#7117a1" stroke="#7117a1" points="1123.2,-278.071 1118.14,-287.803 1122.92,-283.063 1122.64,-288.055 1122.64,-288.055 1122.64,-288.055 1122.92,-283.063 1127.13,-288.307 1123.2,-278.071 1123.2,-278.071"/>
</g>
<!-- CourseUserPlan -->
<g id="node29" class="node"><title>CourseUserPlan</title>
<ellipse fill="none" stroke="black" cx="1124" cy="-162" rx="83.3857" ry="18"/>
<text text-anchor="middle" x="1124" y="-158.3" font-family="Times,serif" font-size="14.00">CourseUserPlan</text>
</g>
<!-- Plan&#45;&gt;CourseUserPlan -->
<g id="edge14" class="edge"><title>Plan&#45;&gt;CourseUserPlan</title>
<path fill="none" stroke="#420a37" d="M1118.9,-207.64C1119.55,-201.92 1120.25,-195.828 1120.91,-190.042"/>
<ellipse fill="none" stroke="#420a37" cx="1118.43" cy="-211.722" rx="4.00001" ry="4.00001"/>
<polygon fill="#420a37" stroke="#420a37" points="1120.91,-190.04 1126.52,-180.615 1121.48,-185.072 1122.05,-180.104 1122.05,-180.104 1122.05,-180.104 1121.48,-185.072 1117.57,-179.593 1120.91,-190.04 1120.91,-190.04"/>
</g>
<!-- Answer -->
<g id="node15" class="node"><title>Answer</title>
<ellipse fill="none" stroke="black" cx="633" cy="-18" rx="46.2923" ry="18"/>
<text text-anchor="middle" x="633" y="-14.3" font-family="Times,serif" font-size="14.00">Answer</text>
</g>
<!-- Choice&#45;&gt;Answer -->
<g id="edge16" class="edge"><title>Choice&#45;&gt;Answer</title>
<path fill="none" stroke="#4a0903" d="M355.72,-79.4661C415.256,-66.4832 521.526,-43.309 583.788,-29.7315"/>
<ellipse fill="none" stroke="#4a0903" cx="351.487" cy="-80.389" rx="4.00001" ry="4.00001"/>
<polygon fill="#4a0903" stroke="#4a0903" points="583.992,-29.6872 594.721,-31.9532 588.877,-28.6219 593.762,-27.5566 593.762,-27.5566 593.762,-27.5566 588.877,-28.6219 592.803,-23.1599 583.992,-29.6872 583.992,-29.6872"/>
</g>
<!-- User&#45;&gt;License -->
<g id="edge24" class="edge"><title>User&#45;&gt;License</title>
<path fill="none" stroke="#6e33f1" d="M411.828,-439.394C451.114,-429.053 515.113,-411.936 570,-396 574.139,-394.798 578.444,-393.519 582.743,-392.222"/>
<ellipse fill="none" stroke="#6e33f1" cx="407.7" cy="-440.479" rx="4.00001" ry="4.00001"/>
<ellipse fill="#6e33f1" stroke="#6e33f1" cx="586.607" cy="-391.047" rx="4.00001" ry="4.00001"/>
</g>
<!-- User&#45;&gt;Category -->
<g id="edge17" class="edge"><title>User&#45;&gt;Category</title>
<path fill="none" stroke="#c469b1" d="M351.672,-429.086C341.576,-420.468 329.713,-410.34 319.306,-401.456"/>
<ellipse fill="none" stroke="#c469b1" cx="354.967" cy="-431.899" rx="4.00002" ry="4.00002"/>
<polygon fill="#c469b1" stroke="#c469b1" points="319.29,-401.442 314.606,-391.527 315.487,-398.196 311.684,-394.95 311.684,-394.95 311.684,-394.95 315.487,-398.196 308.762,-398.372 319.29,-401.442 319.29,-401.442"/>
</g>
<!-- User&#45;&gt;SubCategory -->
<g id="edge18" class="edge"><title>User&#45;&gt;SubCategory</title>
<path fill="none" stroke="#8a8c4a" d="M337.771,-439.977C307.29,-431.544 263.835,-417.068 230,-396 201.822,-378.454 175.034,-351.307 157.509,-331.607"/>
<ellipse fill="none" stroke="#8a8c4a" cx="341.754" cy="-441.052" rx="4.00001" ry="4.00001"/>
<polygon fill="#8a8c4a" stroke="#8a8c4a" points="157.388,-331.469 154.205,-320.975 154.101,-327.701 150.814,-323.933 150.814,-323.933 150.814,-323.933 154.101,-327.701 147.423,-326.892 157.388,-331.469 157.388,-331.469"/>
</g>
<!-- User&#45;&gt;AnsweredQuestion -->
<g id="edge20" class="edge"><title>User&#45;&gt;AnsweredQuestion</title>
<path fill="none" stroke="#eb191b" d="M334.48,-447.864C262.267,-443.317 113.597,-421.915 57,-324 20.9674,-261.663 115.634,-209.133 178.74,-182.259"/>
<ellipse fill="none" stroke="#eb191b" cx="338.485" cy="-448.091" rx="4" ry="4"/>
<polygon fill="#eb191b" stroke="#eb191b" points="178.956,-182.169 189.917,-182.479 183.572,-180.247 188.188,-178.325 188.188,-178.325 188.188,-178.325 183.572,-180.247 186.458,-174.171 178.956,-182.169 178.956,-182.169"/>
</g>
<!-- User&#45;&gt;Answer -->
<g id="edge23" class="edge"><title>User&#45;&gt;Answer</title>
<path fill="none" stroke="#abef42" d="M333.969,-449.403C275.102,-448.305 164.874,-439.891 84,-396 36.1949,-370.056 0,-361.391 0,-307 0,-307 0,-307 0,-161 0,-43.3335 421.701,-23.1479 576.712,-19.7027"/>
<ellipse fill="none" stroke="#abef42" cx="338.273" cy="-449.461" rx="4" ry="4"/>
<polygon fill="#abef42" stroke="#abef42" points="576.968,-19.6975 587.059,-23.9898 581.967,-19.5942 586.966,-19.4908 586.966,-19.4908 586.966,-19.4908 581.967,-19.5942 586.873,-14.9917 576.968,-19.6975 576.968,-19.6975"/>
</g>
<!-- SimulatorAnsweredQuestion -->
<g id="node22" class="node"><title>SimulatorAnsweredQuestion</title>
<ellipse fill="none" stroke="black" cx="633" cy="-162" rx="143.775" ry="18"/>
<text text-anchor="middle" x="633" y="-158.3" font-family="Times,serif" font-size="14.00">SimulatorAnsweredQuestion</text>
</g>
<!-- User&#45;&gt;SimulatorAnsweredQuestion -->
<g id="edge21" class="edge"><title>User&#45;&gt;SimulatorAnsweredQuestion</title>
<path fill="none" stroke="#feaf99" d="M415.899,-448.114C490.908,-445.531 645.845,-435.436 679,-396 692.208,-380.29 657.044,-248.072 640.763,-190.08"/>
<ellipse fill="none" stroke="#feaf99" cx="411.592" cy="-448.252" rx="4" ry="4"/>
<polygon fill="#feaf99" stroke="#feaf99" points="640.679,-189.784 642.289,-178.937 639.319,-184.972 637.958,-180.161 637.958,-180.161 637.958,-180.161 639.319,-184.972 633.628,-181.385 640.679,-189.784 640.679,-189.784"/>
</g>
<!-- Simulator -->
<g id="node24" class="node"><title>Simulator</title>
<ellipse fill="none" stroke="black" cx="579" cy="-306" rx="56.59" ry="18"/>
<text text-anchor="middle" x="579" y="-302.3" font-family="Times,serif" font-size="14.00">Simulator</text>
</g>
<!-- User&#45;&gt;Simulator -->
<g id="edge19" class="edge"><title>User&#45;&gt;Simulator</title>
<path fill="none" stroke="#ed3e0a" d="M373.778,-423.655C374.227,-403.881 378.128,-377.002 394,-360 398.685,-354.981 473.652,-334.55 526.697,-320.572"/>
<ellipse fill="none" stroke="#ed3e0a" cx="373.778" cy="-427.912" rx="4" ry="4"/>
<polygon fill="#ed3e0a" stroke="#ed3e0a" points="526.984,-320.497 537.799,-322.308 531.82,-319.226 536.655,-317.956 536.655,-317.956 536.655,-317.956 531.82,-319.226 535.512,-313.603 526.984,-320.497 526.984,-320.497"/>
</g>
<!-- User&#45;&gt;CourseUser -->
<g id="edge22" class="edge"><title>User&#45;&gt;CourseUser</title>
<path fill="none" stroke="#4df5b7" d="M414.322,-443.565C477.334,-434.688 604.746,-416.047 712,-396 860.415,-368.26 896.693,-357.123 1044,-324 1049.03,-322.869 1054.25,-321.681 1059.48,-320.481"/>
<ellipse fill="none" stroke="#4df5b7" cx="410.193" cy="-444.145" rx="4.00001" ry="4.00001"/>
<polygon fill="#4df5b7" stroke="#4df5b7" points="1059.77,-320.416 1070.52,-322.555 1064.64,-319.293 1069.51,-318.17 1069.51,-318.17 1069.51,-318.17 1064.64,-319.293 1068.5,-313.785 1059.77,-320.416 1059.77,-320.416"/>
</g>
<!-- AnsweredQuestion&#45;&gt;Choice -->
<g id="edge25" class="edge"><title>AnsweredQuestion&#45;&gt;Choice</title>
<path fill="none" stroke="#a8b9cf" d="M257.461,-137.558C266.777,-129.605 277.143,-120.756 286.315,-112.926"/>
<polygon fill="#a8b9cf" stroke="#a8b9cf" points="257.456,-137.562 246.928,-140.632 253.653,-140.809 249.85,-144.055 249.85,-144.055 249.85,-144.055 253.653,-140.809 252.772,-147.478 257.456,-137.562 257.456,-137.562"/>
<polygon fill="#a8b9cf" stroke="#a8b9cf" points="286.405,-112.849 296.933,-109.779 290.208,-109.603 294.011,-106.356 294.011,-106.356 294.011,-106.356 290.208,-109.603 291.089,-102.934 286.405,-112.849 286.405,-112.849"/>
</g>
<!-- Question&#45;&gt;Choice -->
<g id="edge27" class="edge"><title>Question&#45;&gt;Choice</title>
<path fill="none" stroke="#59f126" d="M497.854,-213.31C482.604,-203.341 463.81,-191.04 447,-180 411.006,-156.36 369.676,-129.095 342.328,-111.037"/>
<ellipse fill="none" stroke="#59f126" cx="501.244" cy="-215.526" rx="4.00002" ry="4.00002"/>
<polygon fill="#59f126" stroke="#59f126" points="342.309,-111.025 336.445,-101.759 338.137,-108.269 333.965,-105.514 333.965,-105.514 333.965,-105.514 338.137,-108.269 331.485,-109.269 342.309,-111.025 342.309,-111.025"/>
</g>
<!-- Question&#45;&gt;AnsweredQuestion -->
<g id="edge28" class="edge"><title>Question&#45;&gt;AnsweredQuestion</title>
<path fill="none" stroke="#944c85" d="M481.294,-219.718C476.476,-218.427 471.645,-217.166 467,-216 411.832,-202.154 348.994,-188.183 301.889,-178.064"/>
<ellipse fill="none" stroke="#944c85" cx="485.496" cy="-220.858" rx="4.00001" ry="4.00001"/>
<polygon fill="#944c85" stroke="#944c85" points="301.863,-178.058 293.027,-171.564 296.974,-177.011 292.085,-175.964 292.085,-175.964 292.085,-175.964 296.974,-177.011 291.142,-180.364 301.863,-178.058 301.863,-178.058"/>
</g>
<!-- Question&#45;&gt;Question -->
<g id="edge30" class="edge"><title>Question&#45;&gt;Question</title>
<path fill="none" stroke="#03ce5a" d="M572.237,-247.498C586.59,-247.398 597.995,-242.899 597.995,-234 597.995,-225.513 587.622,-221.028 574.211,-220.544"/>
<ellipse fill="none" stroke="#03ce5a" cx="568.009" cy="-247.294" rx="4" ry="4"/>
<polygon fill="#03ce5a" stroke="#03ce5a" points="574.008,-220.551 563.857,-216.402 569.011,-220.725 564.014,-220.899 564.014,-220.899 564.014,-220.899 569.011,-220.725 564.171,-225.396 574.008,-220.551 574.008,-220.551"/>
</g>
<!-- Question&#45;&gt;Answer -->
<g id="edge26" class="edge"><title>Question&#45;&gt;Answer</title>
<path fill="none" stroke="#a403c5" d="M501.828,-211.46C493.163,-202.708 484.572,-191.858 480,-180 474.244,-165.071 473.143,-158.456 480,-144 503.714,-94.0028 558.302,-57.3788 595.433,-37.1284"/>
<ellipse fill="none" stroke="#a403c5" cx="504.902" cy="-214.403" rx="4.00002" ry="4.00002"/>
<polygon fill="#a403c5" stroke="#a403c5" points="595.634,-37.0218 606.576,-36.3097 600.05,-34.6782 604.467,-32.3346 604.467,-32.3346 604.467,-32.3346 600.05,-34.6782 602.358,-28.3595 595.634,-37.0218 595.634,-37.0218"/>
</g>
<!-- Question&#45;&gt;SimulatorAnsweredQuestion -->
<g id="edge29" class="edge"><title>Question&#45;&gt;SimulatorAnsweredQuestion</title>
<path fill="none" stroke="#243193" d="M557.756,-213.162C570.68,-204.547 585.882,-194.412 599.226,-185.516"/>
<ellipse fill="none" stroke="#243193" cx="554.112" cy="-215.592" rx="4.00002" ry="4.00002"/>
<polygon fill="#243193" stroke="#243193" points="599.364,-185.424 610.181,-183.621 603.525,-182.65 607.685,-179.877 607.685,-179.877 607.685,-179.877 603.525,-182.65 605.189,-176.132 599.364,-185.424 599.364,-185.424"/>
</g>
<!-- LiveClass -->
<g id="node12" class="node"><title>LiveClass</title>
<ellipse fill="none" stroke="black" cx="1104" cy="-543" rx="53.8905" ry="18"/>
<text text-anchor="middle" x="1104" y="-539.3" font-family="Times,serif" font-size="14.00">LiveClass</text>
</g>
<!-- Career -->
<g id="node13" class="node"><title>Career</title>
<ellipse fill="none" stroke="black" cx="1309" cy="-450" rx="42.4939" ry="18"/>
<text text-anchor="middle" x="1309" y="-446.3" font-family="Times,serif" font-size="14.00">Career</text>
</g>
<!-- Video -->
<g id="node14" class="node"><title>Video</title>
<ellipse fill="none" stroke="black" cx="728" cy="-306" rx="36.2938" ry="18"/>
<text text-anchor="middle" x="728" y="-302.3" font-family="Times,serif" font-size="14.00">Video</text>
</g>
<!-- Video&#45;&gt;Tutorial -->
<g id="edge32" class="edge"><title>Video&#45;&gt;Tutorial</title>
<path fill="none" stroke="#2c92fd" d="M686.803,-296.541C673.466,-293.808 658.607,-290.769 645,-288 565.909,-271.902 545.354,-271.369 467,-252 462.497,-250.887 457.82,-249.651 453.163,-248.369"/>
<ellipse fill="none" stroke="#2c92fd" cx="690.967" cy="-297.395" rx="4.00001" ry="4.00001"/>
<ellipse fill="#2c92fd" stroke="#2c92fd" cx="449.23" cy="-247.263" rx="4.00001" ry="4.00001"/>
</g>
<!-- Resource -->
<g id="node32" class="node"><title>Resource</title>
<ellipse fill="none" stroke="black" cx="894" cy="-234" rx="53.0913" ry="18"/>
<text text-anchor="middle" x="894" y="-230.3" font-family="Times,serif" font-size="14.00">Resource</text>
</g>
<!-- Video&#45;&gt;Resource -->
<g id="edge31" class="edge"><title>Video&#45;&gt;Resource</title>
<path fill="none" stroke="#7c6e53" d="M762.586,-290.416C789.389,-279.113 826.547,-263.444 854.515,-251.65"/>
<ellipse fill="none" stroke="#7c6e53" cx="758.726" cy="-292.043" rx="4.00002" ry="4.00002"/>
<ellipse fill="#7c6e53" stroke="#7c6e53" cx="858.457" cy="-249.988" rx="4.00001" ry="4.00001"/>
</g>
<!-- Point -->
<g id="node16" class="node"><title>Point</title>
<ellipse fill="none" stroke="black" cx="1480" cy="-450" rx="35.194" ry="18"/>
<text text-anchor="middle" x="1480" y="-446.3" font-family="Times,serif" font-size="14.00">Point</text>
</g>
<!-- Test&#45;&gt;Question -->
<g id="edge33" class="edge"><title>Test&#45;&gt;Question</title>
<path fill="none" stroke="#ae1b34" d="M1207.64,-292.603C1201.82,-290.811 1195.78,-289.178 1190,-288 1076.06,-264.805 730.705,-245.259 589.332,-238.011"/>
<ellipse fill="none" stroke="#ae1b34" cx="1211.58" cy="-293.882" rx="4.00001" ry="4.00001"/>
<polygon fill="#ae1b34" stroke="#ae1b34" points="589.096,-237.999 579.338,-232.996 584.102,-237.745 579.109,-237.49 579.109,-237.49 579.109,-237.49 584.102,-237.745 578.88,-241.984 589.096,-237.999 589.096,-237.999"/>
</g>
<!-- Test&#45;&gt;Answer -->
<g id="edge34" class="edge"><title>Test&#45;&gt;Answer</title>
<path fill="none" stroke="#a71b88" d="M1278,-296.465C1301.34,-288.959 1329.7,-275.445 1344,-252 1352.33,-238.341 1351.39,-230.189 1344,-216 1285.46,-103.65 1219.4,-108.222 1098,-72 955.139,-29.3738 778.189,-20.6244 689.405,-19.0879"/>
<ellipse fill="none" stroke="#a71b88" cx="1274.13" cy="-297.631" rx="4.00001" ry="4.00001"/>
<polygon fill="#a71b88" stroke="#a71b88" points="689.281,-19.0862 679.348,-14.4382 684.281,-19.0119 679.282,-18.9377 679.282,-18.9377 679.282,-18.9377 684.281,-19.0119 679.215,-23.4372 689.281,-19.0862 689.281,-19.0862"/>
</g>
<!-- CourseUserTest -->
<g id="node23" class="node"><title>CourseUserTest</title>
<ellipse fill="none" stroke="black" cx="1250" cy="-234" rx="85.2851" ry="18"/>
<text text-anchor="middle" x="1250" y="-230.3" font-family="Times,serif" font-size="14.00">CourseUserTest</text>
</g>
<!-- Test&#45;&gt;CourseUserTest -->
<g id="edge35" class="edge"><title>Test&#45;&gt;CourseUserTest</title>
<path fill="none" stroke="#c4cf5a" d="M1244.26,-279.64C1245,-273.92 1245.78,-267.828 1246.52,-262.042"/>
<ellipse fill="none" stroke="#c4cf5a" cx="1243.73" cy="-283.729" rx="4.00001" ry="4.00001"/>
<polygon fill="#c4cf5a" stroke="#c4cf5a" points="1246.53,-262.023 1252.26,-252.678 1247.16,-257.064 1247.8,-252.104 1247.8,-252.104 1247.8,-252.104 1247.16,-257.064 1243.34,-251.53 1246.53,-262.023 1246.53,-262.023"/>
</g>
<!-- Blog -->
<g id="node18" class="node"><title>Blog</title>
<ellipse fill="none" stroke="black" cx="813" cy="-306" rx="30.5947" ry="18"/>
<text text-anchor="middle" x="813" y="-302.3" font-family="Times,serif" font-size="14.00">Blog</text>
</g>
<!-- Blog&#45;&gt;Tutorial -->
<g id="edge36" class="edge"><title>Blog&#45;&gt;Tutorial</title>
<path fill="none" stroke="#5c80c8" d="M782.443,-290.979C779.296,-289.849 776.111,-288.826 773,-288 640.647,-252.863 601.178,-279.355 467,-252 462.323,-251.047 457.478,-249.895 452.671,-248.647"/>
<ellipse fill="none" stroke="#5c80c8" cx="786.399" cy="-292.515" rx="4.00001" ry="4.00001"/>
<ellipse fill="#5c80c8" stroke="#5c80c8" cx="448.514" cy="-247.519" rx="4.00001" ry="4.00001"/>
</g>
<!-- Blog&#45;&gt;Resource -->
<g id="edge37" class="edge"><title>Blog&#45;&gt;Resource</title>
<path fill="none" stroke="#22673b" d="M836.044,-285.086C846.407,-276.13 858.656,-265.544 869.218,-256.417"/>
<ellipse fill="none" stroke="#22673b" cx="832.81" cy="-287.88" rx="4.00002" ry="4.00002"/>
<ellipse fill="#22673b" stroke="#22673b" cx="872.517" cy="-253.565" rx="4.00002" ry="4.00002"/>
</g>
<!-- School -->
<g id="node19" class="node"><title>School</title>
<ellipse fill="none" stroke="black" cx="1216" cy="-543" rx="40.0939" ry="18"/>
<text text-anchor="middle" x="1216" y="-539.3" font-family="Times,serif" font-size="14.00">School</text>
</g>
<!-- School&#45;&gt;Career -->
<g id="edge38" class="edge"><title>School&#45;&gt;Career</title>
<path fill="none" stroke="#cc9ad1" d="M1238.12,-520.354C1252.49,-506.293 1271.19,-487.992 1285.78,-473.721"/>
<ellipse fill="none" stroke="#cc9ad1" cx="1235.06" cy="-523.351" rx="4.00002" ry="4.00002"/>
<polygon fill="#cc9ad1" stroke="#cc9ad1" points="1285.84,-473.663 1296.13,-469.886 1289.41,-470.166 1292.99,-466.669 1292.99,-466.669 1292.99,-466.669 1289.41,-470.166 1289.84,-463.453 1285.84,-473.663 1285.84,-473.663"/>
</g>
<!-- Student -->
<g id="node20" class="node"><title>Student</title>
<polygon fill="none" stroke="black" stroke-dasharray="1,5" points="1638,-561 1564,-561 1564,-525 1638,-525 1638,-561"/>
<text text-anchor="middle" x="1601" y="-539.3" font-family="Times,serif" font-size="14.00">Student</text>
</g>
<!-- CourseUserTest&#45;&gt;Answer -->
<g id="edge39" class="edge"><title>CourseUserTest&#45;&gt;Answer</title>
<path fill="none" stroke="#0cd380" d="M1246.93,-207.656C1243.13,-187.464 1234.68,-160.011 1216,-144 1136.22,-75.6279 816.369,-37.0892 687.356,-24.0627"/>
<ellipse fill="none" stroke="#0cd380" cx="1247.64" cy="-211.866" rx="4.00001" ry="4.00001"/>
<polygon fill="#0cd380" stroke="#0cd380" points="687.253,-24.0526 677.749,-18.5827 682.278,-23.5566 677.303,-23.0605 677.303,-23.0605 677.303,-23.0605 682.278,-23.5566 676.856,-27.5383 687.253,-24.0526 687.253,-24.0526"/>
</g>
<!-- Simulator&#45;&gt;Question -->
<g id="edge41" class="edge"><title>Simulator&#45;&gt;Question</title>
<path fill="none" stroke="#dfbb1d" d="M560.936,-280.207C556.251,-273.776 551.198,-266.841 546.491,-260.38"/>
<polygon fill="#dfbb1d" stroke="#dfbb1d" points="561.025,-280.329 563.277,-291.061 563.969,-284.37 566.914,-288.411 566.914,-288.411 566.914,-288.411 563.969,-284.37 570.551,-285.761 561.025,-280.329 561.025,-280.329"/>
<polygon fill="#dfbb1d" stroke="#dfbb1d" points="546.242,-260.039 543.991,-249.306 543.298,-255.997 540.354,-251.956 540.354,-251.956 540.354,-251.956 543.298,-255.997 536.717,-254.606 546.242,-260.039 546.242,-260.039"/>
</g>
<!-- Simulator&#45;&gt;SimulatorAnsweredQuestion -->
<g id="edge40" class="edge"><title>Simulator&#45;&gt;SimulatorAnsweredQuestion</title>
<path fill="none" stroke="#14c7eb" d="M592.941,-281.101C597.802,-272.16 603.029,-261.795 607,-252 615.24,-231.673 622.074,-207.771 626.665,-189.858"/>
<ellipse fill="none" stroke="#14c7eb" cx="590.921" cy="-284.736" rx="4.00002" ry="4.00002"/>
<polygon fill="#14c7eb" stroke="#14c7eb" points="626.684,-189.779 633.468,-181.163 627.893,-184.927 629.102,-180.076 629.102,-180.076 629.102,-180.076 627.893,-184.927 624.735,-178.988 626.684,-189.779 626.684,-189.779"/>
</g>
<!-- PointAction -->
<g id="node25" class="node"><title>PointAction</title>
<ellipse fill="none" stroke="black" cx="1480" cy="-543" rx="65.7887" ry="18"/>
<text text-anchor="middle" x="1480" y="-539.3" font-family="Times,serif" font-size="14.00">PointAction</text>
</g>
<!-- PointAction&#45;&gt;Point -->
<g id="edge42" class="edge"><title>PointAction&#45;&gt;Point</title>
<path fill="none" stroke="#c5b3c7" d="M1480,-516.729C1480,-504.725 1480,-490.362 1480,-478.129"/>
<ellipse fill="none" stroke="#c5b3c7" cx="1480" cy="-520.884" rx="4" ry="4"/>
<polygon fill="#c5b3c7" stroke="#c5b3c7" points="1480,-478.04 1484.5,-468.04 1480,-473.04 1480,-468.04 1480,-468.04 1480,-468.04 1480,-473.04 1475.5,-468.04 1480,-478.04 1480,-478.04"/>
</g>
<!-- ResourceProgress -->
<g id="node26" class="node"><title>ResourceProgress</title>
<ellipse fill="none" stroke="black" cx="928" cy="-162" rx="94.7833" ry="18"/>
<text text-anchor="middle" x="928" y="-158.3" font-family="Times,serif" font-size="14.00">ResourceProgress</text>
</g>
<!-- CourseUser&#45;&gt;Plan -->
<g id="edge46" class="edge"><title>CourseUser&#45;&gt;Plan</title>
<path fill="none" stroke="#db93eb" d="M1110.13,-279.861C1109.72,-273.449 1109.62,-266.557 1109.85,-260.145"/>
<ellipse fill="none" stroke="#db93eb" cx="1110.52" cy="-284.071" rx="4" ry="4"/>
<ellipse fill="#db93eb" stroke="#db93eb" cx="1110.13" cy="-255.781" rx="4" ry="4"/>
</g>
<!-- CourseUser&#45;&gt;CourseUserTest -->
<g id="edge44" class="edge"><title>CourseUser&#45;&gt;CourseUserTest</title>
<path fill="none" stroke="#762e65" d="M1153.02,-286.04C1170.91,-276.624 1192.56,-265.231 1210.86,-255.601"/>
<ellipse fill="none" stroke="#762e65" cx="1149.4" cy="-287.948" rx="4.00002" ry="4.00002"/>
<polygon fill="#762e65" stroke="#762e65" points="1210.96,-255.546 1221.91,-254.87 1215.39,-253.217 1219.81,-250.888 1219.81,-250.888 1219.81,-250.888 1215.39,-253.217 1217.72,-246.906 1210.96,-255.546 1210.96,-255.546"/>
</g>
<!-- CourseUser&#45;&gt;ResourceProgress -->
<g id="edge43" class="edge"><title>CourseUser&#45;&gt;ResourceProgress</title>
<path fill="none" stroke="#4eea8d" d="M1088.98,-283.945C1053.98,-257.649 994.324,-212.831 958.295,-185.761"/>
<ellipse fill="none" stroke="#4eea8d" cx="1092.49" cy="-286.584" rx="4.00002" ry="4.00002"/>
<polygon fill="#4eea8d" stroke="#4eea8d" points="958.105,-185.619 952.813,-176.014 954.108,-182.615 950.11,-179.612 950.11,-179.612 950.11,-179.612 954.108,-182.615 947.407,-183.21 958.105,-185.619 958.105,-185.619"/>
</g>
<!-- CourseUser&#45;&gt;CourseUserPlan -->
<g id="edge45" class="edge"><title>CourseUser&#45;&gt;CourseUserPlan</title>
<path fill="none" stroke="#99be65" d="M1094.37,-282.569C1087.04,-273.796 1079.81,-263.162 1076,-252 1070.83,-236.859 1070.24,-230.929 1076,-216 1080.46,-204.424 1088.76,-193.809 1097.21,-185.169"/>
<ellipse fill="none" stroke="#99be65" cx="1097.04" cy="-285.606" rx="4.00002" ry="4.00002"/>
<ellipse fill="#99be65" stroke="#99be65" cx="1100.17" cy="-182.299" rx="4.00002" ry="4.00002"/>
</g>
<!-- Section&#45;&gt;ResourceProgress -->
<g id="edge48" class="edge"><title>Section&#45;&gt;ResourceProgress</title>
<path fill="none" stroke="#2c7695" d="M981.457,-280.251C975.009,-262.208 965.65,-237.296 956,-216 951.943,-207.047 947.068,-197.486 942.531,-188.984"/>
<ellipse fill="none" stroke="#2c7695" cx="982.871" cy="-284.249" rx="4.00001" ry="4.00001"/>
<polygon fill="#2c7695" stroke="#2c7695" points="942.384,-188.713 941.569,-177.777 939.999,-184.318 937.614,-179.924 937.614,-179.924 937.614,-179.924 939.999,-184.318 933.659,-182.07 942.384,-188.713 942.384,-188.713"/>
</g>
<!-- Section&#45;&gt;Resource -->
<g id="edge47" class="edge"><title>Section&#45;&gt;Resource</title>
<path fill="none" stroke="#f898c3" d="M962.556,-284.989C950.403,-276.127 936.084,-265.686 923.683,-256.644"/>
<ellipse fill="none" stroke="#f898c3" cx="965.937" cy="-287.454" rx="4.00002" ry="4.00002"/>
<polygon fill="#f898c3" stroke="#f898c3" points="923.535,-256.536 918.106,-247.008 919.495,-253.59 915.455,-250.644 915.455,-250.644 915.455,-250.644 919.495,-253.59 912.803,-254.28 923.535,-256.536 923.535,-256.536"/>
</g>
<!-- SimulatorType -->
<g id="node30" class="node"><title>SimulatorType</title>
<ellipse fill="none" stroke="black" cx="482" cy="-378" rx="79.0865" ry="18"/>
<text text-anchor="middle" x="482" y="-374.3" font-family="Times,serif" font-size="14.00">SimulatorType</text>
</g>
<!-- SimulatorType&#45;&gt;Simulator -->
<g id="edge49" class="edge"><title>SimulatorType&#45;&gt;Simulator</title>
<path fill="none" stroke="#392e2f" d="M511.525,-355.693C523.358,-347.154 536.98,-337.323 548.873,-328.741"/>
<ellipse fill="none" stroke="#392e2f" cx="508.231" cy="-358.07" rx="4.00002" ry="4.00002"/>
<polygon fill="#392e2f" stroke="#392e2f" points="549.068,-328.601 559.81,-326.398 553.122,-325.675 557.177,-322.749 557.177,-322.749 557.177,-322.749 553.122,-325.675 554.543,-319.1 549.068,-328.601 549.068,-328.601"/>
</g>
<!-- University -->
<g id="node31" class="node"><title>University</title>
<ellipse fill="none" stroke="black" cx="1335" cy="-543" rx="61.1893" ry="18"/>
<text text-anchor="middle" x="1335" y="-539.3" font-family="Times,serif" font-size="14.00">University</text>
</g>
<!-- University&#45;&gt;Career -->
<g id="edge50" class="edge"><title>University&#45;&gt;Career</title>
<path fill="none" stroke="#580362" d="M1327.9,-517.159C1324.42,-504.979 1320.23,-490.293 1316.67,-477.855"/>
<ellipse fill="none" stroke="#580362" cx="1329.01" cy="-521.037" rx="4.00001" ry="4.00001"/>
<polygon fill="#580362" stroke="#580362" points="1316.62,-477.655 1318.2,-466.803 1315.24,-472.847 1313.87,-468.04 1313.87,-468.04 1313.87,-468.04 1315.24,-472.847 1309.54,-469.276 1316.62,-477.655 1316.62,-477.655"/>
</g>
<!-- Resource&#45;&gt;ResourceProgress -->
<g id="edge51" class="edge"><title>Resource&#45;&gt;ResourceProgress</title>
<path fill="none" stroke="#4a5876" d="M905.741,-208.827C908.736,-202.661 911.972,-195.999 915.025,-189.714"/>
<ellipse fill="none" stroke="#4a5876" cx="903.978" cy="-212.457" rx="4.00002" ry="4.00002"/>
<polygon fill="#4a5876" stroke="#4a5876" points="915.24,-189.27 923.657,-182.241 917.425,-184.773 919.609,-180.275 919.609,-180.275 919.609,-180.275 917.425,-184.773 915.561,-178.309 915.24,-189.27 915.24,-189.27"/>
</g>
<!-- Task -->
<g id="node33" class="node"><title>Task</title>
<ellipse fill="none" stroke="black" cx="894" cy="-306" rx="32.4942" ry="18"/>
<text text-anchor="middle" x="894" y="-302.3" font-family="Times,serif" font-size="14.00">Task</text>
</g>
<!-- Task&#45;&gt;Question -->
<g id="edge54" class="edge"><title>Task&#45;&gt;Question</title>
<path fill="none" stroke="#dbde02" d="M862.128,-290.956C859.075,-289.863 855.999,-288.854 853,-288 762.447,-262.22 653.899,-247.675 587.985,-240.579"/>
<ellipse fill="none" stroke="#dbde02" cx="865.875" cy="-292.384" rx="4.00001" ry="4.00001"/>
<polygon fill="#dbde02" stroke="#dbde02" points="587.726,-240.552 578.253,-235.028 582.754,-240.028 577.781,-239.503 577.781,-239.503 577.781,-239.503 582.754,-240.028 577.31,-243.979 587.726,-240.552 587.726,-240.552"/>
</g>
<!-- Task&#45;&gt;Answer -->
<g id="edge53" class="edge"><title>Task&#45;&gt;Answer</title>
<path fill="none" stroke="#e5b5d7" d="M867.509,-286.771C855.462,-277.458 841.755,-265.293 832,-252 801.133,-209.938 817.333,-185.716 786,-144 752.529,-99.4388 699.912,-61.0888 665.936,-39.0163"/>
<ellipse fill="none" stroke="#e5b5d7" cx="870.796" cy="-289.239" rx="4.00002" ry="4.00002"/>
<polygon fill="#e5b5d7" stroke="#e5b5d7" points="665.727,-38.8824 659.725,-29.7046 661.514,-36.1892 657.301,-33.4961 657.301,-33.4961 657.301,-33.4961 661.514,-36.1892 654.877,-37.2876 665.727,-38.8824 665.727,-38.8824"/>
</g>
<!-- Task&#45;&gt;Resource -->
<g id="edge52" class="edge"><title>Task&#45;&gt;Resource</title>
<path fill="none" stroke="#44328f" d="M894,-279.64C894,-273.348 894,-266.605 894,-260.316"/>
<ellipse fill="none" stroke="#44328f" cx="894" cy="-283.697" rx="4" ry="4"/>
<ellipse fill="#44328f" stroke="#44328f" cx="894" cy="-256.104" rx="4" ry="4"/>
</g>
</g>
</svg>
