<?xml version="1.0" encoding="UTF-8" standalone="no"?>
<!DOCTYPE svg PUBLIC "-//W3C//DTD SVG 1.1//EN"
 "http://www.w3.org/Graphics/SVG/1.1/DTD/svg11.dtd">
<!-- Generated by graphviz version 2.38.0 (20140413.2041)
 -->
<!-- Title: models_diagram Pages: 1 -->
<svg width="1163pt" height="518pt"
 viewBox="0.00 0.00 1163.44 518.00" xmlns="http://www.w3.org/2000/svg" xmlns:xlink="http://www.w3.org/1999/xlink">
<g id="graph0" class="graph" transform="scale(1 1) rotate(0) translate(4 514)">
<title>models_diagram</title>
<polygon fill="none" stroke="none" points="-4,4 -4,-514 1159.44,-514 1159.44,4 -4,4"/>
<!-- _diagram_info -->
<g id="node1" class="node"><title>_diagram_info</title>
<text text-anchor="start" x="113.443" y="-495.6" font-family="Times,serif" font-size="13.00">Models diagram</text>
<text text-anchor="start" x="113.443" y="-481.6" font-family="Times,serif" font-size="13.00">Date: Oct 04 2016 &#45; 09:31</text>
<text text-anchor="start" x="113.443" y="-467.6" font-family="Times,serif" font-size="13.00">Migration version: 20160916144827</text>
<text text-anchor="start" x="113.443" y="-453.6" font-family="Times,serif" font-size="13.00">Generated by RailRoady 1.5.1</text>
<text text-anchor="start" x="113.443" y="-439.6" font-family="Times,serif" font-size="13.00">http://railroady.prestonlee.com</text>
</g>
<!-- Course -->
<g id="node2" class="node"><title>Course</title>
<ellipse fill="none" stroke="black" cx="399.443" cy="-471" rx="42.4939" ry="18"/>
<text text-anchor="middle" x="399.443" y="-467.3" font-family="Times,serif" font-size="14.00">Course</text>
</g>
<!-- Category -->
<g id="node4" class="node"><title>Category</title>
<ellipse fill="none" stroke="black" cx="184.443" cy="-306" rx="53.8905" ry="18"/>
<text text-anchor="middle" x="184.443" y="-302.3" font-family="Times,serif" font-size="14.00">Category</text>
</g>
<!-- Course&#45;&gt;Category -->
<g id="edge1" class="edge"><title>Course&#45;&gt;Category</title>
<path fill="none" stroke="#dace9c" d="M374.368,-449.452C366.358,-443.406 357.274,-437.062 348.443,-432 312.849,-411.597 296.768,-419.929 263.443,-396 238.737,-378.26 216.321,-351.491 201.731,-331.945"/>
<ellipse fill="none" stroke="#dace9c" cx="377.648" cy="-451.983" rx="4.00002" ry="4.00002"/>
<polygon fill="#dace9c" stroke="#dace9c" points="201.679,-331.873 199.422,-321.142 198.733,-327.834 195.786,-323.794 195.786,-323.794 195.786,-323.794 198.733,-327.834 192.151,-326.446 201.679,-331.873 201.679,-331.873"/>
</g>
<!-- User -->
<g id="node8" class="node"><title>User</title>
<ellipse fill="none" stroke="black" cx="304.443" cy="-378" rx="32.4942" ry="18"/>
<text text-anchor="middle" x="304.443" y="-374.3" font-family="Times,serif" font-size="14.00">User</text>
</g>
<!-- Course&#45;&gt;User -->
<g id="edge4" class="edge"><title>Course&#45;&gt;User</title>
<path fill="none" stroke="#19df79" d="M375.377,-446.947C360.765,-432.951 342.206,-415.173 327.737,-401.313"/>
<polygon fill="#19df79" stroke="#19df79" points="375.674,-447.232 379.782,-457.399 379.284,-450.69 382.895,-454.149 382.895,-454.149 382.895,-454.149 379.284,-450.69 386.008,-450.899 375.674,-447.232 375.674,-447.232"/>
<polygon fill="#19df79" stroke="#19df79" points="327.392,-400.983 323.283,-390.815 323.781,-397.524 320.17,-394.065 320.17,-394.065 320.17,-394.065 323.781,-397.524 317.057,-397.315 327.392,-400.983 327.392,-400.983"/>
</g>
<!-- LiveClass -->
<g id="node10" class="node"><title>LiveClass</title>
<ellipse fill="none" stroke="black" cx="538.443" cy="-378" rx="53.8905" ry="18"/>
<text text-anchor="middle" x="538.443" y="-374.3" font-family="Times,serif" font-size="14.00">LiveClass</text>
</g>
<!-- Course&#45;&gt;LiveClass -->
<g id="edge6" class="edge"><title>Course&#45;&gt;LiveClass</title>
<path fill="none" stroke="#52b71f" d="M428.403,-451.041C451.823,-435.708 484.688,-414.192 508.395,-398.672"/>
<ellipse fill="none" stroke="#52b71f" cx="424.814" cy="-453.39" rx="4.00002" ry="4.00002"/>
<ellipse fill="#52b71f" stroke="#52b71f" cx="511.783" cy="-396.454" rx="4.00002" ry="4.00002"/>
</g>
<!-- Test -->
<g id="node16" class="node"><title>Test</title>
<ellipse fill="none" stroke="black" cx="364.443" cy="-234" rx="31.6951" ry="18"/>
<text text-anchor="middle" x="364.443" y="-230.3" font-family="Times,serif" font-size="14.00">Test</text>
</g>
<!-- Course&#45;&gt;Test -->
<g id="edge5" class="edge"><title>Course&#45;&gt;Test</title>
<path fill="none" stroke="#122f3d" d="M395.67,-444.666C389.025,-400.054 375.296,-307.873 368.474,-262.064"/>
<ellipse fill="none" stroke="#122f3d" cx="396.28" cy="-448.764" rx="4.00001" ry="4.00001"/>
<polygon fill="#122f3d" stroke="#122f3d" points="368.446,-261.879 371.424,-251.326 367.71,-256.934 366.973,-251.989 366.973,-251.989 366.973,-251.989 367.71,-256.934 362.522,-252.651 368.446,-261.879 368.446,-261.879"/>
</g>
<!-- CourseUser -->
<g id="node23" class="node"><title>CourseUser</title>
<ellipse fill="none" stroke="black" cx="844.443" cy="-234" rx="63.8893" ry="18"/>
<text text-anchor="middle" x="844.443" y="-230.3" font-family="Times,serif" font-size="14.00">CourseUser</text>
</g>
<!-- Course&#45;&gt;CourseUser -->
<g id="edge3" class="edge"><title>Course&#45;&gt;CourseUser</title>
<path fill="none" stroke="#51cd83" d="M410.467,-445.661C422.904,-420.786 445.385,-382.68 475.443,-360 567.032,-290.891 699.262,-258.484 778.058,-244.484"/>
<ellipse fill="none" stroke="#51cd83" cx="408.682" cy="-449.327" rx="4.00002" ry="4.00002"/>
<polygon fill="#51cd83" stroke="#51cd83" points="778.486,-244.411 789.106,-247.143 783.413,-243.56 788.34,-242.708 788.34,-242.708 788.34,-242.708 783.413,-243.56 787.574,-238.274 778.486,-244.411 778.486,-244.411"/>
</g>
<!-- Section -->
<g id="node24" class="node"><title>Section</title>
<ellipse fill="none" stroke="black" cx="629.443" cy="-234" rx="45.4919" ry="18"/>
<text text-anchor="middle" x="629.443" y="-230.3" font-family="Times,serif" font-size="14.00">Section</text>
</g>
<!-- Course&#45;&gt;Section -->
<g id="edge2" class="edge"><title>Course&#45;&gt;Section</title>
<path fill="none" stroke="#ea8935" d="M402.205,-444.863C407.595,-400.348 420.908,-310.242 442.443,-288 485.039,-244.004 516.669,-269.198 575.443,-252 578.75,-251.032 582.165,-250.011 585.595,-248.968"/>
<ellipse fill="none" stroke="#ea8935" cx="401.729" cy="-448.899" rx="4.00001" ry="4.00001"/>
<polygon fill="#ea8935" stroke="#ea8935" points="585.67,-248.945 596.551,-250.303 590.448,-247.474 595.227,-246.002 595.227,-246.002 595.227,-246.002 590.448,-247.474 593.903,-241.701 585.67,-248.945 585.67,-248.945"/>
</g>
<!-- Tutorial -->
<g id="node3" class="node"><title>Tutorial</title>
<ellipse fill="none" stroke="black" cx="417.443" cy="-162" rx="48.9926" ry="18"/>
<text text-anchor="middle" x="417.443" y="-158.3" font-family="Times,serif" font-size="14.00">Tutorial</text>
</g>
<!-- SubCategory -->
<g id="node5" class="node"><title>SubCategory</title>
<ellipse fill="none" stroke="black" cx="85.4428" cy="-234" rx="70.6878" ry="18"/>
<text text-anchor="middle" x="85.4428" y="-230.3" font-family="Times,serif" font-size="14.00">SubCategory</text>
</g>
<!-- Category&#45;&gt;SubCategory -->
<g id="edge7" class="edge"><title>Category&#45;&gt;SubCategory</title>
<path fill="none" stroke="#6c30d8" d="M155.797,-284.745C143.555,-276.089 129.23,-265.961 116.714,-257.111"/>
<ellipse fill="none" stroke="#6c30d8" cx="159.205" cy="-287.155" rx="4.00002" ry="4.00002"/>
<polygon fill="#6c30d8" stroke="#6c30d8" points="116.55,-256.995 110.983,-247.547 112.467,-254.108 108.385,-251.222 108.385,-251.222 108.385,-251.222 112.467,-254.108 105.787,-254.896 116.55,-256.995 116.55,-256.995"/>
</g>
<!-- Question -->
<g id="node9" class="node"><title>Question</title>
<ellipse fill="none" stroke="black" cx="166.443" cy="-162" rx="51.9908" ry="18"/>
<text text-anchor="middle" x="166.443" y="-158.3" font-family="Times,serif" font-size="14.00">Question</text>
</g>
<!-- Category&#45;&gt;Question -->
<g id="edge9" class="edge"><title>Category&#45;&gt;Question</title>
<path fill="none" stroke="#1cea92" d="M180.98,-277.679C177.786,-252.487 173.072,-215.295 169.885,-190.156"/>
<polygon fill="#1cea92" stroke="#1cea92" points="181.014,-277.951 177.807,-288.437 181.643,-282.911 182.272,-287.871 182.272,-287.871 182.272,-287.871 181.643,-282.911 186.736,-287.306 181.014,-277.951 181.014,-277.951"/>
<polygon fill="#1cea92" stroke="#1cea92" points="169.879,-190.11 173.086,-179.623 169.251,-185.15 168.622,-180.189 168.622,-180.189 168.622,-180.189 169.251,-185.15 164.157,-180.755 169.879,-190.11 169.879,-190.11"/>
</g>
<!-- Answer -->
<g id="node14" class="node"><title>Answer</title>
<ellipse fill="none" stroke="black" cx="245.443" cy="-18" rx="46.2923" ry="18"/>
<text text-anchor="middle" x="245.443" y="-14.3" font-family="Times,serif" font-size="14.00">Answer</text>
</g>
<!-- Category&#45;&gt;Answer -->
<g id="edge8" class="edge"><title>Category&#45;&gt;Answer</title>
<path fill="none" stroke="#bcd33c" d="M126.557,-295.53C80.0403,-286.599 20.1226,-271.656 5.4428,-252 -4.13113,-239.18 1.42934,-231.488 5.4428,-216 23.8077,-145.127 29.0606,-118.704 85.4428,-72 115.77,-46.8787 158.428,-33.5229 192.072,-26.5048"/>
<polygon fill="#bcd33c" stroke="#bcd33c" points="126.727,-295.561 135.73,-301.821 131.642,-296.48 136.557,-297.398 136.557,-297.398 136.557,-297.398 131.642,-296.48 137.383,-292.974 126.727,-295.561 126.727,-295.561"/>
<polygon fill="#bcd33c" stroke="#bcd33c" points="192.386,-26.4435 203.064,-28.9406 197.293,-25.4839 202.2,-24.5242 202.2,-24.5242 202.2,-24.5242 197.293,-25.4839 201.336,-20.1079 192.386,-26.4435 192.386,-26.4435"/>
</g>
<!-- SubCategory&#45;&gt;Tutorial -->
<g id="edge13" class="edge"><title>SubCategory&#45;&gt;Tutorial</title>
<path fill="none" stroke="#977302" d="M145.988,-220.234C209.064,-206.935 306.806,-186.327 366.189,-173.806"/>
<ellipse fill="none" stroke="#977302" cx="141.963" cy="-221.083" rx="4.00001" ry="4.00001"/>
<polygon fill="#977302" stroke="#977302" points="366.311,-173.781 377.025,-176.121 371.204,-172.749 376.096,-171.718 376.096,-171.718 376.096,-171.718 371.204,-172.749 375.168,-167.314 366.311,-173.781 366.311,-173.781"/>
</g>
<!-- Choice -->
<g id="node7" class="node"><title>Choice</title>
<ellipse fill="none" stroke="black" cx="158.443" cy="-90" rx="40.0939" ry="18"/>
<text text-anchor="middle" x="158.443" y="-86.3" font-family="Times,serif" font-size="14.00">Choice</text>
</g>
<!-- SubCategory&#45;&gt;Choice -->
<g id="edge11" class="edge"><title>SubCategory&#45;&gt;Choice</title>
<path fill="none" stroke="#301649" d="M87.5592,-205.879C89.9201,-187.487 94.9087,-163.136 105.443,-144 111.865,-132.333 121.623,-121.524 131.023,-112.751"/>
<polygon fill="#301649" stroke="#301649" points="87.5465,-205.995 81.9778,-215.442 86.9986,-210.965 86.4507,-215.935 86.4507,-215.935 86.4507,-215.935 86.9986,-210.965 90.9236,-216.428 87.5465,-205.995 87.5465,-205.995"/>
<polygon fill="#301649" stroke="#301649" points="131.276,-112.527 141.742,-109.252 135.015,-109.207 138.754,-105.887 138.754,-105.887 138.754,-105.887 135.015,-109.207 135.766,-102.522 131.276,-112.527 131.276,-112.527"/>
</g>
<!-- SubCategory&#45;&gt;Question -->
<g id="edge10" class="edge"><title>SubCategory&#45;&gt;Question</title>
<path fill="none" stroke="#7bcb17" d="M110.719,-211.156C120.131,-203.023 130.826,-193.78 140.312,-185.582"/>
<ellipse fill="none" stroke="#7bcb17" cx="107.665" cy="-213.796" rx="4.00002" ry="4.00002"/>
<polygon fill="#7bcb17" stroke="#7bcb17" points="140.376,-185.527 150.885,-182.393 144.159,-182.257 147.942,-178.988 147.942,-178.988 147.942,-178.988 144.159,-182.257 145,-175.583 140.376,-185.527 140.376,-185.527"/>
</g>
<!-- SubCategory&#45;&gt;Answer -->
<g id="edge12" class="edge"><title>SubCategory&#45;&gt;Answer</title>
<path fill="none" stroke="#7c257b" d="M81.1629,-205.806C77.2382,-170.384 76.2938,-108.666 109.443,-72 131.03,-48.123 164.678,-34.8923 193.103,-27.6213"/>
<polygon fill="#7c257b" stroke="#7c257b" points="81.1845,-205.978 77.9778,-216.464 81.8133,-210.938 82.4421,-215.898 82.4421,-215.898 82.4421,-215.898 81.8133,-210.938 86.9064,-215.332 81.1845,-205.978 81.1845,-205.978"/>
<polygon fill="#7c257b" stroke="#7c257b" points="193.182,-27.6025 203.952,-29.6683 198.047,-26.4464 202.911,-25.2903 202.911,-25.2903 202.911,-25.2903 198.047,-26.4464 201.871,-20.9122 193.182,-27.6025 193.182,-27.6025"/>
</g>
<!-- Plan -->
<g id="node6" class="node"><title>Plan</title>
<ellipse fill="none" stroke="black" cx="903.443" cy="-162" rx="30.5947" ry="18"/>
<text text-anchor="middle" x="903.443" y="-158.3" font-family="Times,serif" font-size="14.00">Plan</text>
</g>
<!-- Plan&#45;&gt;CourseUser -->
<g id="edge15" class="edge"><title>Plan&#45;&gt;CourseUser</title>
<path fill="none" stroke="#307f15" d="M888.859,-188.015C883.374,-194.944 877.029,-202.444 870.849,-209.296"/>
<polygon fill="#307f15" stroke="#307f15" points="889.193,-187.577 898.843,-182.367 892.231,-183.605 895.268,-179.633 895.268,-179.633 895.268,-179.633 892.231,-183.605 891.693,-176.9 889.193,-187.577 889.193,-187.577"/>
<polygon fill="#307f15" stroke="#307f15" points="870.725,-209.43 860.627,-213.706 867.326,-213.097 863.928,-216.765 863.928,-216.765 863.928,-216.765 867.326,-213.097 867.228,-219.823 870.725,-209.43 870.725,-209.43"/>
</g>
<!-- CourseUserPlan -->
<g id="node25" class="node"><title>CourseUserPlan</title>
<ellipse fill="none" stroke="black" cx="962.443" cy="-90" rx="83.3857" ry="18"/>
<text text-anchor="middle" x="962.443" y="-86.3" font-family="Times,serif" font-size="14.00">CourseUserPlan</text>
</g>
<!-- Plan&#45;&gt;CourseUserPlan -->
<g id="edge14" class="edge"><title>Plan&#45;&gt;CourseUserPlan</title>
<path fill="none" stroke="#b7f0c2" d="M921.865,-139.143C928.09,-131.757 935.085,-123.459 941.491,-115.859"/>
<ellipse fill="none" stroke="#b7f0c2" cx="919.115" cy="-142.406" rx="4.00002" ry="4.00002"/>
<polygon fill="#b7f0c2" stroke="#b7f0c2" points="941.702,-115.608 951.587,-110.862 944.924,-111.785 948.146,-107.962 948.146,-107.962 948.146,-107.962 944.924,-111.785 944.706,-105.062 941.702,-115.608 941.702,-115.608"/>
</g>
<!-- Choice&#45;&gt;Answer -->
<g id="edge16" class="edge"><title>Choice&#45;&gt;Answer</title>
<path fill="none" stroke="#780400" d="M183.727,-68.6562C194.553,-59.9459 207.216,-49.7575 218.244,-40.884"/>
<ellipse fill="none" stroke="#780400" cx="180.437" cy="-71.3035" rx="4.00002" ry="4.00002"/>
<polygon fill="#780400" stroke="#780400" points="218.51,-40.6698 229.122,-37.9071 222.406,-37.5354 226.302,-34.401 226.302,-34.401 226.302,-34.401 222.406,-37.5354 223.481,-30.895 218.51,-40.6698 218.51,-40.6698"/>
</g>
<!-- User&#45;&gt;Category -->
<g id="edge18" class="edge"><title>User&#45;&gt;Category</title>
<path fill="none" stroke="#e77208" d="M273.826,-359.14C257.058,-349.359 236.223,-337.205 218.888,-327.093"/>
<polygon fill="#e77208" stroke="#e77208" points="274.074,-359.285 280.444,-368.211 278.393,-361.804 282.712,-364.324 282.712,-364.324 282.712,-364.324 278.393,-361.804 284.979,-360.437 274.074,-359.285 274.074,-359.285"/>
<polygon fill="#e77208" stroke="#e77208" points="218.82,-327.054 212.45,-318.128 214.501,-324.534 210.182,-322.015 210.182,-322.015 210.182,-322.015 214.501,-324.534 207.915,-325.902 218.82,-327.054 218.82,-327.054"/>
</g>
<!-- User&#45;&gt;SubCategory -->
<g id="edge19" class="edge"><title>User&#45;&gt;SubCategory</title>
<path fill="none" stroke="#fb7de0" d="M293.667,-350.945C284.208,-331.073 268.641,-304.407 247.443,-288 220.52,-267.162 185.077,-254.349 154.209,-246.557"/>
<polygon fill="#fb7de0" stroke="#fb7de0" points="293.681,-350.976 293.721,-361.942 295.75,-355.528 297.818,-360.08 297.818,-360.08 297.818,-360.08 295.75,-355.528 301.915,-358.219 293.681,-350.976 293.681,-350.976"/>
<polygon fill="#fb7de0" stroke="#fb7de0" points="154.09,-246.529 145.413,-239.824 149.227,-245.364 144.365,-244.2 144.365,-244.2 144.365,-244.2 149.227,-245.364 143.317,-248.576 154.09,-246.529 154.09,-246.529"/>
</g>
<!-- User&#45;&gt;Answer -->
<g id="edge20" class="edge"><title>User&#45;&gt;Answer</title>
<path fill="none" stroke="#4845e4" d="M302.203,-351.888C297.222,-299.42 283.786,-174.534 260.443,-72 258.481,-63.3824 255.98,-54.0792 253.586,-45.7086"/>
<ellipse fill="none" stroke="#4845e4" cx="302.585" cy="-355.979" rx="4" ry="4"/>
<polygon fill="#4845e4" stroke="#4845e4" points="253.574,-45.6662 255.08,-34.8042 252.168,-40.8679 250.761,-36.0697 250.761,-36.0697 250.761,-36.0697 252.168,-40.8679 246.443,-37.3353 253.574,-45.6662 253.574,-45.6662"/>
</g>
<!-- User&#45;&gt;CourseUser -->
<g id="edge17" class="edge"><title>User&#45;&gt;CourseUser</title>
<path fill="none" stroke="#58f79d" d="M327.612,-357.41C353.714,-336.507 398.283,-304.217 442.443,-288 473.01,-276.775 669.399,-254.089 775.936,-242.373"/>
<ellipse fill="none" stroke="#58f79d" cx="324.492" cy="-359.942" rx="4.00002" ry="4.00002"/>
<polygon fill="#58f79d" stroke="#58f79d" points="776.017,-242.364 786.448,-245.747 780.987,-241.819 785.957,-241.274 785.957,-241.274 785.957,-241.274 780.987,-241.819 785.467,-236.801 776.017,-242.364 776.017,-242.364"/>
</g>
<!-- Question&#45;&gt;Choice -->
<g id="edge22" class="edge"><title>Question&#45;&gt;Choice</title>
<path fill="none" stroke="#a60b22" d="M163.544,-135.64C162.891,-129.92 162.195,-123.828 161.533,-118.042"/>
<ellipse fill="none" stroke="#a60b22" cx="164.011" cy="-139.722" rx="4.00001" ry="4.00001"/>
<polygon fill="#a60b22" stroke="#a60b22" points="161.533,-118.04 164.868,-107.593 160.965,-113.072 160.398,-108.104 160.398,-108.104 160.398,-108.104 160.965,-113.072 155.927,-108.615 161.533,-118.04 161.533,-118.04"/>
</g>
<!-- Question&#45;&gt;Question -->
<g id="edge23" class="edge"><title>Question&#45;&gt;Question</title>
<path fill="none" stroke="#207866" d="M210.68,-175.498C225.033,-175.398 236.438,-170.899 236.438,-162 236.438,-153.513 226.064,-149.028 212.654,-148.544"/>
<ellipse fill="none" stroke="#207866" cx="206.452" cy="-175.294" rx="4" ry="4"/>
<polygon fill="#207866" stroke="#207866" points="212.451,-148.551 202.3,-144.402 207.454,-148.725 202.457,-148.899 202.457,-148.899 202.457,-148.899 207.454,-148.725 202.613,-153.396 212.451,-148.551 212.451,-148.551"/>
</g>
<!-- Question&#45;&gt;Answer -->
<g id="edge21" class="edge"><title>Question&#45;&gt;Answer</title>
<path fill="none" stroke="#755757" d="M186.034,-138.327C193.308,-129.261 201.28,-118.494 207.443,-108 219.215,-87.9528 229.363,-63.5746 236.204,-45.4047"/>
<ellipse fill="none" stroke="#755757" cx="183.432" cy="-141.504" rx="4.00002" ry="4.00002"/>
<polygon fill="#755757" stroke="#755757" points="236.205,-45.4025 243.877,-37.5677 237.929,-40.7092 239.653,-36.0159 239.653,-36.0159 239.653,-36.0159 237.929,-40.7092 235.429,-34.4641 236.205,-45.4025 236.205,-45.4025"/>
</g>
<!-- Career -->
<g id="node11" class="node"><title>Career</title>
<ellipse fill="none" stroke="black" cx="652.443" cy="-378" rx="42.4939" ry="18"/>
<text text-anchor="middle" x="652.443" y="-374.3" font-family="Times,serif" font-size="14.00">Career</text>
</g>
<!-- EventType -->
<g id="node12" class="node"><title>EventType</title>
<ellipse fill="none" stroke="black" cx="852.443" cy="-471" rx="61.99" ry="18"/>
<text text-anchor="middle" x="852.443" y="-467.3" font-family="Times,serif" font-size="14.00">EventType</text>
</g>
<!-- Event -->
<g id="node26" class="node"><title>Event</title>
<ellipse fill="none" stroke="black" cx="852.443" cy="-378" rx="38.1938" ry="18"/>
<text text-anchor="middle" x="852.443" y="-374.3" font-family="Times,serif" font-size="14.00">Event</text>
</g>
<!-- EventType&#45;&gt;Event -->
<g id="edge24" class="edge"><title>EventType&#45;&gt;Event</title>
<path fill="none" stroke="#5ee4f8" d="M852.443,-444.729C852.443,-432.725 852.443,-418.362 852.443,-406.129"/>
<ellipse fill="none" stroke="#5ee4f8" cx="852.443" cy="-448.884" rx="4" ry="4"/>
<polygon fill="#5ee4f8" stroke="#5ee4f8" points="852.443,-406.04 856.943,-396.04 852.443,-401.04 852.443,-396.04 852.443,-396.04 852.443,-396.04 852.443,-401.04 847.943,-396.04 852.443,-406.04 852.443,-406.04"/>
</g>
<!-- Video -->
<g id="node13" class="node"><title>Video</title>
<ellipse fill="none" stroke="black" cx="450.443" cy="-234" rx="36.2938" ry="18"/>
<text text-anchor="middle" x="450.443" y="-230.3" font-family="Times,serif" font-size="14.00">Video</text>
</g>
<!-- Video&#45;&gt;Tutorial -->
<g id="edge26" class="edge"><title>Video&#45;&gt;Tutorial</title>
<path fill="none" stroke="#b65dae" d="M439.158,-209.062C435.845,-202.034 432.219,-194.343 428.895,-187.293"/>
<ellipse fill="none" stroke="#b65dae" cx="440.917" cy="-212.793" rx="4.00002" ry="4.00002"/>
<ellipse fill="#b65dae" stroke="#b65dae" cx="427.142" cy="-183.574" rx="4.00002" ry="4.00002"/>
</g>
<!-- Resource -->
<g id="node28" class="node"><title>Resource</title>
<ellipse fill="none" stroke="black" cx="537.443" cy="-162" rx="53.0913" ry="18"/>
<text text-anchor="middle" x="537.443" y="-158.3" font-family="Times,serif" font-size="14.00">Resource</text>
</g>
<!-- Video&#45;&gt;Resource -->
<g id="edge25" class="edge"><title>Video&#45;&gt;Resource</title>
<path fill="none" stroke="#d30de8" d="M475.252,-213.039C486.535,-203.96 499.891,-193.214 511.328,-184.012"/>
<ellipse fill="none" stroke="#d30de8" cx="472.01" cy="-215.647" rx="4.00002" ry="4.00002"/>
<ellipse fill="#d30de8" stroke="#d30de8" cx="514.693" cy="-181.304" rx="4.00002" ry="4.00002"/>
</g>
<!-- Point -->
<g id="node15" class="node"><title>Point</title>
<ellipse fill="none" stroke="black" cx="997.443" cy="-378" rx="35.194" ry="18"/>
<text text-anchor="middle" x="997.443" y="-374.3" font-family="Times,serif" font-size="14.00">Point</text>
</g>
<!-- Test&#45;&gt;Question -->
<g id="edge27" class="edge"><title>Test&#45;&gt;Question</title>
<path fill="none" stroke="#9f9025" d="M330.352,-220.948C297.453,-209.317 247.452,-191.64 211.328,-178.869"/>
<ellipse fill="none" stroke="#9f9025" cx="334.379" cy="-222.371" rx="4.00001" ry="4.00001"/>
<polygon fill="#9f9025" stroke="#9f9025" points="210.961,-178.739 203.033,-171.163 206.247,-177.072 201.533,-175.406 201.533,-175.406 201.533,-175.406 206.247,-177.072 200.033,-179.648 210.961,-178.739 210.961,-178.739"/>
</g>
<!-- Test&#45;&gt;Answer -->
<g id="edge28" class="edge"><title>Test&#45;&gt;Answer</title>
<path fill="none" stroke="#4aed37" d="M361.871,-207.605C357.412,-173.944 345.724,-113.927 316.443,-72 307.14,-58.6797 293.427,-47.3287 280.527,-38.5896"/>
<ellipse fill="none" stroke="#4aed37" cx="362.411" cy="-211.996" rx="4.00001" ry="4.00001"/>
<polygon fill="#4aed37" stroke="#4aed37" points="280.198,-38.3779 274.226,-29.1809 275.994,-35.6713 271.79,-32.9646 271.79,-32.9646 271.79,-32.9646 275.994,-35.6713 269.354,-36.7482 280.198,-38.3779 280.198,-38.3779"/>
</g>
<!-- CourseUserTest -->
<g id="node20" class="node"><title>CourseUserTest</title>
<ellipse fill="none" stroke="black" cx="693.443" cy="-162" rx="85.2851" ry="18"/>
<text text-anchor="middle" x="693.443" y="-158.3" font-family="Times,serif" font-size="14.00">CourseUserTest</text>
</g>
<!-- Test&#45;&gt;CourseUserTest -->
<g id="edge29" class="edge"><title>Test&#45;&gt;CourseUserTest</title>
<path fill="none" stroke="#fdfb78" d="M396.087,-219.111C399.217,-217.97 402.372,-216.908 405.443,-216 410.655,-214.459 537.473,-191.316 621.068,-176.127"/>
<ellipse fill="none" stroke="#fdfb78" cx="392.151" cy="-220.629" rx="4.00001" ry="4.00001"/>
<polygon fill="#fdfb78" stroke="#fdfb78" points="621.198,-176.103 631.841,-178.743 626.117,-175.209 631.037,-174.316 631.037,-174.316 631.037,-174.316 626.117,-175.209 630.232,-169.888 621.198,-176.103 621.198,-176.103"/>
</g>
<!-- Blog -->
<g id="node17" class="node"><title>Blog</title>
<ellipse fill="none" stroke="black" cx="535.443" cy="-234" rx="30.5947" ry="18"/>
<text text-anchor="middle" x="535.443" y="-230.3" font-family="Times,serif" font-size="14.00">Blog</text>
</g>
<!-- Blog&#45;&gt;Tutorial -->
<g id="edge30" class="edge"><title>Blog&#45;&gt;Tutorial</title>
<path fill="none" stroke="#59e6dc" d="M507.624,-216.497C490.084,-206.092 467.385,-192.627 449.149,-181.809"/>
<ellipse fill="none" stroke="#59e6dc" cx="511.178" cy="-218.606" rx="4.00002" ry="4.00002"/>
<ellipse fill="#59e6dc" stroke="#59e6dc" cx="445.585" cy="-179.694" rx="4.00002" ry="4.00002"/>
</g>
<!-- Blog&#45;&gt;Resource -->
<g id="edge31" class="edge"><title>Blog&#45;&gt;Resource</title>
<path fill="none" stroke="#f426eb" d="M536.167,-207.64C536.347,-201.348 536.54,-194.605 536.719,-188.316"/>
<ellipse fill="none" stroke="#f426eb" cx="536.051" cy="-211.698" rx="4" ry="4"/>
<ellipse fill="#f426eb" stroke="#f426eb" cx="536.84" cy="-184.103" rx="4" ry="4"/>
</g>
<!-- School -->
<g id="node18" class="node"><title>School</title>
<ellipse fill="none" stroke="black" cx="592.443" cy="-471" rx="40.0939" ry="18"/>
<text text-anchor="middle" x="592.443" y="-467.3" font-family="Times,serif" font-size="14.00">School</text>
</g>
<!-- School&#45;&gt;Career -->
<g id="edge32" class="edge"><title>School&#45;&gt;Career</title>
<path fill="none" stroke="#3123b9" d="M608.032,-446.357C616.569,-433.409 627.149,-417.363 635.84,-404.18"/>
<ellipse fill="none" stroke="#3123b9" cx="605.65" cy="-449.97" rx="4.00002" ry="4.00002"/>
<polygon fill="#3123b9" stroke="#3123b9" points="636.003,-403.934 645.265,-398.062 638.755,-399.759 641.508,-395.585 641.508,-395.585 641.508,-395.585 638.755,-399.759 637.751,-393.108 636.003,-403.934 636.003,-403.934"/>
</g>
<!-- Student -->
<g id="node19" class="node"><title>Student</title>
<polygon fill="none" stroke="black" stroke-dasharray="1,5" points="1155.44,-489 1081.44,-489 1081.44,-453 1155.44,-453 1155.44,-489"/>
<text text-anchor="middle" x="1118.44" y="-467.3" font-family="Times,serif" font-size="14.00">Student</text>
</g>
<!-- CourseUserTest&#45;&gt;Answer -->
<g id="edge33" class="edge"><title>CourseUserTest&#45;&gt;Answer</title>
<path fill="none" stroke="#4de0cd" d="M640.149,-144.108C550.885,-115.814 372.791,-59.3649 289.853,-33.0764"/>
<ellipse fill="none" stroke="#4de0cd" cx="644.208" cy="-145.394" rx="4.00001" ry="4.00001"/>
<polygon fill="#4de0cd" stroke="#4de0cd" points="289.755,-33.0454 281.582,-25.7342 284.989,-31.5347 280.222,-30.0239 280.222,-30.0239 280.222,-30.0239 284.989,-31.5347 278.863,-34.3136 289.755,-33.0454 289.755,-33.0454"/>
</g>
<!-- PointAction -->
<g id="node21" class="node"><title>PointAction</title>
<ellipse fill="none" stroke="black" cx="997.443" cy="-471" rx="65.7887" ry="18"/>
<text text-anchor="middle" x="997.443" y="-467.3" font-family="Times,serif" font-size="14.00">PointAction</text>
</g>
<!-- PointAction&#45;&gt;Point -->
<g id="edge34" class="edge"><title>PointAction&#45;&gt;Point</title>
<path fill="none" stroke="#845ce8" d="M997.443,-444.729C997.443,-432.725 997.443,-418.362 997.443,-406.129"/>
<ellipse fill="none" stroke="#845ce8" cx="997.443" cy="-448.884" rx="4" ry="4"/>
<polygon fill="#845ce8" stroke="#845ce8" points="997.443,-406.04 1001.94,-396.04 997.443,-401.04 997.443,-396.04 997.443,-396.04 997.443,-396.04 997.443,-401.04 992.943,-396.04 997.443,-406.04 997.443,-406.04"/>
</g>
<!-- ResourceProgress -->
<g id="node22" class="node"><title>ResourceProgress</title>
<ellipse fill="none" stroke="black" cx="766.443" cy="-90" rx="94.7833" ry="18"/>
<text text-anchor="middle" x="766.443" y="-86.3" font-family="Times,serif" font-size="14.00">ResourceProgress</text>
</g>
<!-- CourseUser&#45;&gt;Plan -->
<g id="edge38" class="edge"><title>CourseUser&#45;&gt;Plan</title>
<path fill="none" stroke="#f14d35" d="M857.774,-209.578C864.515,-200.959 872.751,-191.284 880.425,-182.995"/>
<ellipse fill="none" stroke="#f14d35" cx="855.269" cy="-212.871" rx="4.00002" ry="4.00002"/>
<ellipse fill="#f14d35" stroke="#f14d35" cx="883.395" cy="-179.866" rx="4.00002" ry="4.00002"/>
</g>
<!-- CourseUser&#45;&gt;CourseUserTest -->
<g id="edge36" class="edge"><title>CourseUser&#45;&gt;CourseUserTest</title>
<path fill="none" stroke="#c9ec21" d="M805.49,-214.942C784.363,-205.148 758.204,-193.022 736.477,-182.949"/>
<ellipse fill="none" stroke="#c9ec21" cx="809.159" cy="-216.643" rx="4.00002" ry="4.00002"/>
<polygon fill="#c9ec21" stroke="#c9ec21" points="736.225,-182.833 729.045,-174.544 731.689,-180.73 727.152,-178.627 727.152,-178.627 727.152,-178.627 731.689,-180.73 725.26,-182.71 736.225,-182.833 736.225,-182.833"/>
</g>
<!-- CourseUser&#45;&gt;ResourceProgress -->
<g id="edge35" class="edge"><title>CourseUser&#45;&gt;ResourceProgress</title>
<path fill="none" stroke="#c6f728" d="M841.3,-207.868C838.136,-189.242 832,-163.768 820.443,-144 814.02,-133.014 804.725,-122.753 795.652,-114.242"/>
<ellipse fill="none" stroke="#c6f728" cx="841.936" cy="-211.946" rx="4.00001" ry="4.00001"/>
<polygon fill="#c6f728" stroke="#c6f728" points="795.601,-114.196 791.152,-104.173 791.876,-110.861 788.151,-107.526 788.151,-107.526 788.151,-107.526 791.876,-110.861 785.149,-110.879 795.601,-114.196 795.601,-114.196"/>
</g>
<!-- CourseUser&#45;&gt;CourseUserPlan -->
<g id="edge37" class="edge"><title>CourseUser&#45;&gt;CourseUserPlan</title>
<path fill="none" stroke="#e6f4b8" d="M893.401,-216.922C911.643,-208.61 930.934,-196.633 943.443,-180 957.257,-161.631 961.507,-135.399 962.601,-116.172"/>
<ellipse fill="none" stroke="#e6f4b8" cx="889.342" cy="-218.676" rx="4.00001" ry="4.00001"/>
<ellipse fill="#e6f4b8" stroke="#e6f4b8" cx="962.751" cy="-112.142" rx="4" ry="4"/>
</g>
<!-- Section&#45;&gt;ResourceProgress -->
<g id="edge40" class="edge"><title>Section&#45;&gt;ResourceProgress</title>
<path fill="none" stroke="#d1986f" d="M682.502,-230.509C718.507,-225.72 763.725,-212.972 787.443,-180 800.687,-161.588 792.609,-136.009 782.882,-116.996"/>
<ellipse fill="none" stroke="#d1986f" cx="678.476" cy="-230.99" rx="4.00001" ry="4.00001"/>
<polygon fill="#d1986f" stroke="#d1986f" points="782.741,-116.741 781.845,-105.812 780.324,-112.364 777.906,-107.987 777.906,-107.987 777.906,-107.987 780.324,-112.364 773.967,-110.163 782.741,-116.741 782.741,-116.741"/>
</g>
<!-- Section&#45;&gt;Resource -->
<g id="edge39" class="edge"><title>Section&#45;&gt;Resource</title>
<path fill="none" stroke="#ad2dab" d="M602.754,-212.693C591.279,-203.962 577.845,-193.741 566.155,-184.846"/>
<ellipse fill="none" stroke="#ad2dab" cx="606.297" cy="-215.389" rx="4.00002" ry="4.00002"/>
<polygon fill="#ad2dab" stroke="#ad2dab" points="565.962,-184.699 560.728,-175.063 561.983,-181.672 558.003,-178.644 558.003,-178.644 558.003,-178.644 561.983,-181.672 555.279,-182.225 565.962,-184.699 565.962,-184.699"/>
</g>
<!-- University -->
<g id="node27" class="node"><title>University</title>
<ellipse fill="none" stroke="black" cx="711.443" cy="-471" rx="61.1893" ry="18"/>
<text text-anchor="middle" x="711.443" y="-467.3" font-family="Times,serif" font-size="14.00">University</text>
</g>
<!-- University&#45;&gt;Career -->
<g id="edge41" class="edge"><title>University&#45;&gt;Career</title>
<path fill="none" stroke="#ad8ee2" d="M695.831,-445.921C687.437,-432.974 677.099,-417.029 668.62,-403.951"/>
<ellipse fill="none" stroke="#ad8ee2" cx="698.169" cy="-449.527" rx="4.00002" ry="4.00002"/>
<polygon fill="#ad8ee2" stroke="#ad8ee2" points="668.533,-403.817 666.869,-392.979 665.813,-399.622 663.093,-395.427 663.093,-395.427 663.093,-395.427 665.813,-399.622 659.317,-397.875 668.533,-403.817 668.533,-403.817"/>
</g>
<!-- Resource&#45;&gt;ResourceProgress -->
<g id="edge42" class="edge"><title>Resource&#45;&gt;ResourceProgress</title>
<path fill="none" stroke="#b33bc5" d="M583.624,-146.883C619.819,-135.82 670.371,-120.367 709.146,-108.514"/>
<ellipse fill="none" stroke="#b33bc5" cx="579.34" cy="-148.193" rx="4.00001" ry="4.00001"/>
<polygon fill="#b33bc5" stroke="#b33bc5" points="709.171,-108.507 720.05,-109.887 713.953,-107.045 718.735,-105.583 718.735,-105.583 718.735,-105.583 713.953,-107.045 717.419,-101.28 709.171,-108.507 709.171,-108.507"/>
</g>
<!-- Task -->
<g id="node29" class="node"><title>Task</title>
<ellipse fill="none" stroke="black" cx="244.443" cy="-234" rx="32.4942" ry="18"/>
<text text-anchor="middle" x="244.443" y="-230.3" font-family="Times,serif" font-size="14.00">Task</text>
</g>
<!-- Task&#45;&gt;Question -->
<g id="edge45" class="edge"><title>Task&#45;&gt;Question</title>
<path fill="none" stroke="#b51f11" d="M221.913,-212.781C212.484,-204.319 201.482,-194.445 191.773,-185.732"/>
<ellipse fill="none" stroke="#b51f11" cx="224.924" cy="-215.483" rx="4.00002" ry="4.00002"/>
<polygon fill="#b51f11" stroke="#b51f11" points="191.762,-185.722 187.325,-175.694 188.04,-182.383 184.319,-179.043 184.319,-179.043 184.319,-179.043 188.04,-182.383 181.314,-182.392 191.762,-185.722 191.762,-185.722"/>
</g>
<!-- Task&#45;&gt;Answer -->
<g id="edge44" class="edge"><title>Task&#45;&gt;Answer</title>
<path fill="none" stroke="#db2f1c" d="M245.015,-207.798C245.189,-199.003 245.357,-189.066 245.443,-180 245.884,-133.246 245.749,-78.8508 245.602,-46.763"/>
<ellipse fill="none" stroke="#db2f1c" cx="244.932" cy="-211.816" rx="4" ry="4"/>
<polygon fill="#db2f1c" stroke="#db2f1c" points="245.6,-46.3924 250.05,-36.3701 245.575,-41.3924 245.55,-36.3925 245.55,-36.3925 245.55,-36.3925 245.575,-41.3924 241.05,-36.4149 245.6,-46.3924 245.6,-46.3924"/>
</g>
<!-- Task&#45;&gt;Resource -->
<g id="edge43" class="edge"><title>Task&#45;&gt;Resource</title>
<path fill="none" stroke="#9acc85" d="M282.328,-224.821C328.184,-214.802 407.688,-197.054 475.443,-180 480.088,-178.831 484.919,-177.576 489.742,-176.296"/>
<ellipse fill="none" stroke="#9acc85" cx="278.35" cy="-225.688" rx="4.00001" ry="4.00001"/>
<ellipse fill="#9acc85" stroke="#9acc85" cx="493.955" cy="-175.167" rx="4.00001" ry="4.00001"/>
</g>
</g>
</svg>
