<?xml version="1.0" encoding="UTF-8" standalone="no"?>
<!DOCTYPE svg PUBLIC "-//W3C//DTD SVG 1.1//EN"
 "http://www.w3.org/Graphics/SVG/1.1/DTD/svg11.dtd">
<!-- Generated by graphviz version 2.38.0 (20140413.2041)
 -->
<!-- Title: models_diagram Pages: 1 -->
<svg width="4211pt" height="1821pt"
 viewBox="0.00 0.00 4210.63 1821.00" xmlns="http://www.w3.org/2000/svg" xmlns:xlink="http://www.w3.org/1999/xlink">
<g id="graph0" class="graph" transform="scale(1 1) rotate(0) translate(4 1817)">
<title>models_diagram</title>
<polygon fill="none" stroke="none" points="-4,4 -4,-1817 4206.63,-1817 4206.63,4 -4,4"/>
<!-- _diagram_info -->
<g id="node1" class="node"><title>_diagram_info</title>
<text text-anchor="start" x="2188.63" y="-1739.1" font-family="Times,serif" font-size="13.00">Models diagram</text>
<text text-anchor="start" x="2188.63" y="-1725.1" font-family="Times,serif" font-size="13.00">Date: Jul 04 2016 &#45; 13:41</text>
<text text-anchor="start" x="2188.63" y="-1711.1" font-family="Times,serif" font-size="13.00">Migration version: 20160704165705</text>
<text text-anchor="start" x="2188.63" y="-1697.1" font-family="Times,serif" font-size="13.00">Generated by RailRoady 1.5.1</text>
<text text-anchor="start" x="2188.63" y="-1683.1" font-family="Times,serif" font-size="13.00">http://railroady.prestonlee.com</text>
</g>
<!-- Course -->
<g id="node2" class="node"><title>Course</title>
<path fill="none" stroke="black" d="M2445.13,-1661.5C2445.13,-1661.5 2742.13,-1661.5 2742.13,-1661.5 2748.13,-1661.5 2754.13,-1667.5 2754.13,-1673.5 2754.13,-1673.5 2754.13,-1755.5 2754.13,-1755.5 2754.13,-1761.5 2748.13,-1767.5 2742.13,-1767.5 2742.13,-1767.5 2445.13,-1767.5 2445.13,-1767.5 2439.13,-1767.5 2433.13,-1761.5 2433.13,-1755.5 2433.13,-1755.5 2433.13,-1673.5 2433.13,-1673.5 2433.13,-1667.5 2439.13,-1661.5 2445.13,-1661.5"/>
<text text-anchor="middle" x="2593.63" y="-1752.3" font-family="Times,serif" font-size="14.00">Course</text>
<polyline fill="none" stroke="black" points="2433.13,-1744.5 2754.13,-1744.5 "/>
<text text-anchor="start" x="2441.13" y="-1729.3" font-family="Times,serif" font-size="14.00">id :integer</text>
<text text-anchor="start" x="2441.13" y="-1714.3" font-family="Times,serif" font-size="14.00">name :character varying</text>
<text text-anchor="start" x="2441.13" y="-1699.3" font-family="Times,serif" font-size="14.00">description :character varying</text>
<text text-anchor="start" x="2441.13" y="-1684.3" font-family="Times,serif" font-size="14.00">created_at :timestamp without time zone</text>
<text text-anchor="start" x="2441.13" y="-1669.3" font-family="Times,serif" font-size="14.00">updated_at :timestamp without time zone</text>
</g>
<!-- Category -->
<g id="node5" class="node"><title>Category</title>
<path fill="none" stroke="black" d="M469.126,-1045.5C469.126,-1045.5 766.126,-1045.5 766.126,-1045.5 772.126,-1045.5 778.126,-1051.5 778.126,-1057.5 778.126,-1057.5 778.126,-1169.5 778.126,-1169.5 778.126,-1175.5 772.126,-1181.5 766.126,-1181.5 766.126,-1181.5 469.126,-1181.5 469.126,-1181.5 463.126,-1181.5 457.126,-1175.5 457.126,-1169.5 457.126,-1169.5 457.126,-1057.5 457.126,-1057.5 457.126,-1051.5 463.126,-1045.5 469.126,-1045.5"/>
<text text-anchor="middle" x="617.626" y="-1166.3" font-family="Times,serif" font-size="14.00">Category</text>
<polyline fill="none" stroke="black" points="457.126,-1158.5 778.126,-1158.5 "/>
<text text-anchor="start" x="465.126" y="-1143.3" font-family="Times,serif" font-size="14.00">id :integer</text>
<text text-anchor="start" x="465.126" y="-1128.3" font-family="Times,serif" font-size="14.00">name :character varying</text>
<text text-anchor="start" x="465.126" y="-1113.3" font-family="Times,serif" font-size="14.00">user_id :integer</text>
<text text-anchor="start" x="465.126" y="-1098.3" font-family="Times,serif" font-size="14.00">created_at :timestamp without time zone</text>
<text text-anchor="start" x="465.126" y="-1083.3" font-family="Times,serif" font-size="14.00">updated_at :timestamp without time zone</text>
<text text-anchor="start" x="465.126" y="-1068.3" font-family="Times,serif" font-size="14.00">sub_categories_count :integer</text>
<text text-anchor="start" x="465.126" y="-1053.3" font-family="Times,serif" font-size="14.00">course_id :integer</text>
</g>
<!-- Course&#45;&gt;Category -->
<g id="edge1" class="edge"><title>Course&#45;&gt;Category</title>
<path fill="none" stroke="#638c10" d="M2514.59,-1657.25C2487.1,-1640.73 2455.21,-1624.76 2423.63,-1616 2328.53,-1589.63 718.93,-1648.23 647.626,-1580 544.036,-1480.88 569.376,-1296.23 594.863,-1191.75"/>
<ellipse fill="none" stroke="#638c10" cx="2518.06" cy="-1659.37" rx="4.00002" ry="4.00002"/>
<polygon fill="#638c10" stroke="#638c10" points="594.901,-1191.6 601.691,-1182.98 596.113,-1186.74 597.325,-1181.89 597.325,-1181.89 597.325,-1181.89 596.113,-1186.74 592.959,-1180.8 594.901,-1191.6 594.901,-1191.6"/>
</g>
<!-- User -->
<g id="node9" class="node"><title>User</title>
<path fill="none" stroke="black" d="M669.126,-1233.5C669.126,-1233.5 1064.13,-1233.5 1064.13,-1233.5 1070.13,-1233.5 1076.13,-1239.5 1076.13,-1245.5 1076.13,-1245.5 1076.13,-1567.5 1076.13,-1567.5 1076.13,-1573.5 1070.13,-1579.5 1064.13,-1579.5 1064.13,-1579.5 669.126,-1579.5 669.126,-1579.5 663.126,-1579.5 657.126,-1573.5 657.126,-1567.5 657.126,-1567.5 657.126,-1245.5 657.126,-1245.5 657.126,-1239.5 663.126,-1233.5 669.126,-1233.5"/>
<text text-anchor="middle" x="866.626" y="-1564.3" font-family="Times,serif" font-size="14.00">User</text>
<polyline fill="none" stroke="black" points="657.126,-1556.5 1076.13,-1556.5 "/>
<text text-anchor="start" x="665.126" y="-1541.3" font-family="Times,serif" font-size="14.00">id :integer</text>
<text text-anchor="start" x="665.126" y="-1526.3" font-family="Times,serif" font-size="14.00">email :character varying</text>
<text text-anchor="start" x="665.126" y="-1511.3" font-family="Times,serif" font-size="14.00">encrypted_password :character varying</text>
<text text-anchor="start" x="665.126" y="-1496.3" font-family="Times,serif" font-size="14.00">reset_password_token :character varying</text>
<text text-anchor="start" x="665.126" y="-1481.3" font-family="Times,serif" font-size="14.00">reset_password_sent_at :timestamp without time zone</text>
<text text-anchor="start" x="665.126" y="-1466.3" font-family="Times,serif" font-size="14.00">remember_created_at :timestamp without time zone</text>
<text text-anchor="start" x="665.126" y="-1451.3" font-family="Times,serif" font-size="14.00">sign_in_count :integer</text>
<text text-anchor="start" x="665.126" y="-1436.3" font-family="Times,serif" font-size="14.00">current_sign_in_at :timestamp without time zone</text>
<text text-anchor="start" x="665.126" y="-1421.3" font-family="Times,serif" font-size="14.00">last_sign_in_at :timestamp without time zone</text>
<text text-anchor="start" x="665.126" y="-1406.3" font-family="Times,serif" font-size="14.00">current_sign_in_ip :character varying</text>
<text text-anchor="start" x="665.126" y="-1391.3" font-family="Times,serif" font-size="14.00">last_sign_in_ip :character varying</text>
<text text-anchor="start" x="665.126" y="-1376.3" font-family="Times,serif" font-size="14.00">created_at :timestamp without time zone</text>
<text text-anchor="start" x="665.126" y="-1361.3" font-family="Times,serif" font-size="14.00">updated_at :timestamp without time zone</text>
<text text-anchor="start" x="665.126" y="-1346.3" font-family="Times,serif" font-size="14.00">provider :character varying</text>
<text text-anchor="start" x="665.126" y="-1331.3" font-family="Times,serif" font-size="14.00">uid :character varying</text>
<text text-anchor="start" x="665.126" y="-1316.3" font-family="Times,serif" font-size="14.00">first_name :character varying</text>
<text text-anchor="start" x="665.126" y="-1301.3" font-family="Times,serif" font-size="14.00">last_name :character varying</text>
<text text-anchor="start" x="665.126" y="-1286.3" font-family="Times,serif" font-size="14.00">questions_count :integer</text>
<text text-anchor="start" x="665.126" y="-1271.3" font-family="Times,serif" font-size="14.00">image :character varying</text>
<text text-anchor="start" x="665.126" y="-1256.3" font-family="Times,serif" font-size="14.00">gender :boolean</text>
<text text-anchor="start" x="665.126" y="-1241.3" font-family="Times,serif" font-size="14.00">role :integer</text>
</g>
<!-- Course&#45;&gt;User -->
<g id="edge4" class="edge"><title>Course&#45;&gt;User</title>
<path fill="none" stroke="#2f1de1" d="M2512.41,-1656.09C2485.41,-1640.04 2454.37,-1624.63 2423.63,-1616 2283.14,-1576.54 1265.42,-1628.66 1085.87,-1579.8"/>
<polygon fill="#2f1de1" stroke="#2f1de1" points="2512.48,-1656.13 2518.7,-1665.17 2516.75,-1658.73 2521.03,-1661.32 2521.03,-1661.32 2521.03,-1661.32 2516.75,-1658.73 2523.36,-1657.47 2512.48,-1656.13 2512.48,-1656.13"/>
<polygon fill="#2f1de1" stroke="#2f1de1" points="1085.69,-1579.75 1077.49,-1572.46 1080.92,-1578.25 1076.15,-1576.76 1076.15,-1576.76 1076.15,-1576.76 1080.92,-1578.25 1074.8,-1581.05 1085.69,-1579.75 1085.69,-1579.75"/>
</g>
<!-- Test -->
<g id="node17" class="node"><title>Test</title>
<path fill="none" stroke="black" d="M2472.13,-1030.5C2472.13,-1030.5 2769.13,-1030.5 2769.13,-1030.5 2775.13,-1030.5 2781.13,-1036.5 2781.13,-1042.5 2781.13,-1042.5 2781.13,-1184.5 2781.13,-1184.5 2781.13,-1190.5 2775.13,-1196.5 2769.13,-1196.5 2769.13,-1196.5 2472.13,-1196.5 2472.13,-1196.5 2466.13,-1196.5 2460.13,-1190.5 2460.13,-1184.5 2460.13,-1184.5 2460.13,-1042.5 2460.13,-1042.5 2460.13,-1036.5 2466.13,-1030.5 2472.13,-1030.5"/>
<text text-anchor="middle" x="2620.63" y="-1181.3" font-family="Times,serif" font-size="14.00">Test</text>
<polyline fill="none" stroke="black" points="2460.13,-1173.5 2781.13,-1173.5 "/>
<text text-anchor="start" x="2468.13" y="-1158.3" font-family="Times,serif" font-size="14.00">id :integer</text>
<text text-anchor="start" x="2468.13" y="-1143.3" font-family="Times,serif" font-size="14.00">title :character varying</text>
<text text-anchor="start" x="2468.13" y="-1128.3" font-family="Times,serif" font-size="14.00">description :text</text>
<text text-anchor="start" x="2468.13" y="-1113.3" font-family="Times,serif" font-size="14.00">time_limit :integer</text>
<text text-anchor="start" x="2468.13" y="-1098.3" font-family="Times,serif" font-size="14.00">total_questions :integer</text>
<text text-anchor="start" x="2468.13" y="-1083.3" font-family="Times,serif" font-size="14.00">created_at :timestamp without time zone</text>
<text text-anchor="start" x="2468.13" y="-1068.3" font-family="Times,serif" font-size="14.00">updated_at :timestamp without time zone</text>
<text text-anchor="start" x="2468.13" y="-1053.3" font-family="Times,serif" font-size="14.00">course_user_id :integer</text>
<text text-anchor="start" x="2468.13" y="-1038.3" font-family="Times,serif" font-size="14.00">course_id :integer</text>
</g>
<!-- Course&#45;&gt;Test -->
<g id="edge5" class="edge"><title>Course&#45;&gt;Test</title>
<path fill="none" stroke="#bbbe61" d="M2690.91,-1657.34C2748.07,-1623.87 2809.9,-1586.62 2813.63,-1580 2851.45,-1512.8 2851.28,-1300.3 2813.63,-1233 2806.91,-1220.99 2798.42,-1210.05 2788.76,-1200.11"/>
<ellipse fill="none" stroke="#bbbe61" cx="2687.42" cy="-1659.38" rx="4.00002" ry="4.00002"/>
<polygon fill="#bbbe61" stroke="#bbbe61" points="2788.69,-1200.03 2784.69,-1189.83 2785.12,-1196.54 2781.54,-1193.04 2781.54,-1193.04 2781.54,-1193.04 2785.12,-1196.54 2778.39,-1196.26 2788.69,-1200.03 2788.69,-1200.03"/>
</g>
<!-- CourseUser -->
<g id="node27" class="node"><title>CourseUser</title>
<path fill="none" stroke="black" d="M2100.13,-1060.5C2100.13,-1060.5 2397.13,-1060.5 2397.13,-1060.5 2403.13,-1060.5 2409.13,-1066.5 2409.13,-1072.5 2409.13,-1072.5 2409.13,-1154.5 2409.13,-1154.5 2409.13,-1160.5 2403.13,-1166.5 2397.13,-1166.5 2397.13,-1166.5 2100.13,-1166.5 2100.13,-1166.5 2094.13,-1166.5 2088.13,-1160.5 2088.13,-1154.5 2088.13,-1154.5 2088.13,-1072.5 2088.13,-1072.5 2088.13,-1066.5 2094.13,-1060.5 2100.13,-1060.5"/>
<text text-anchor="middle" x="2248.63" y="-1151.3" font-family="Times,serif" font-size="14.00">CourseUser</text>
<polyline fill="none" stroke="black" points="2088.13,-1143.5 2409.13,-1143.5 "/>
<text text-anchor="start" x="2096.13" y="-1128.3" font-family="Times,serif" font-size="14.00">id :integer</text>
<text text-anchor="start" x="2096.13" y="-1113.3" font-family="Times,serif" font-size="14.00">course_id :integer</text>
<text text-anchor="start" x="2096.13" y="-1098.3" font-family="Times,serif" font-size="14.00">user_id :integer</text>
<text text-anchor="start" x="2096.13" y="-1083.3" font-family="Times,serif" font-size="14.00">created_at :timestamp without time zone</text>
<text text-anchor="start" x="2096.13" y="-1068.3" font-family="Times,serif" font-size="14.00">updated_at :timestamp without time zone</text>
</g>
<!-- Course&#45;&gt;CourseUser -->
<g id="edge3" class="edge"><title>Course&#45;&gt;CourseUser</title>
<path fill="none" stroke="#e66018" d="M2708.22,-1656.65C2736.72,-1636.59 2763.67,-1611.1 2779.63,-1580 2814.83,-1511.4 2831.1,-1290.41 2779.63,-1233 2730.53,-1178.24 2521.92,-1215.08 2450.63,-1197 2423.89,-1190.22 2396.02,-1180.62 2369.83,-1170.36"/>
<ellipse fill="none" stroke="#e66018" cx="2704.64" cy="-1659.11" rx="4.00002" ry="4.00002"/>
<polygon fill="#e66018" stroke="#e66018" points="2369.55,-1170.25 2361.93,-1162.37 2364.91,-1168.4 2360.26,-1166.55 2360.26,-1166.55 2360.26,-1166.55 2364.91,-1168.4 2358.6,-1170.73 2369.55,-1170.25 2369.55,-1170.25"/>
</g>
<!-- Section -->
<g id="node28" class="node"><title>Section</title>
<path fill="none" stroke="black" d="M1445.13,-1353.5C1445.13,-1353.5 1742.13,-1353.5 1742.13,-1353.5 1748.13,-1353.5 1754.13,-1359.5 1754.13,-1365.5 1754.13,-1365.5 1754.13,-1447.5 1754.13,-1447.5 1754.13,-1453.5 1748.13,-1459.5 1742.13,-1459.5 1742.13,-1459.5 1445.13,-1459.5 1445.13,-1459.5 1439.13,-1459.5 1433.13,-1453.5 1433.13,-1447.5 1433.13,-1447.5 1433.13,-1365.5 1433.13,-1365.5 1433.13,-1359.5 1439.13,-1353.5 1445.13,-1353.5"/>
<text text-anchor="middle" x="1593.63" y="-1444.3" font-family="Times,serif" font-size="14.00">Section</text>
<polyline fill="none" stroke="black" points="1433.13,-1436.5 1754.13,-1436.5 "/>
<text text-anchor="start" x="1441.13" y="-1421.3" font-family="Times,serif" font-size="14.00">id :integer</text>
<text text-anchor="start" x="1441.13" y="-1406.3" font-family="Times,serif" font-size="14.00">name :character varying</text>
<text text-anchor="start" x="1441.13" y="-1391.3" font-family="Times,serif" font-size="14.00">course_id :integer</text>
<text text-anchor="start" x="1441.13" y="-1376.3" font-family="Times,serif" font-size="14.00">created_at :timestamp without time zone</text>
<text text-anchor="start" x="1441.13" y="-1361.3" font-family="Times,serif" font-size="14.00">updated_at :timestamp without time zone</text>
</g>
<!-- Course&#45;&gt;Section -->
<g id="edge2" class="edge"><title>Course&#45;&gt;Section</title>
<path fill="none" stroke="#e94d15" d="M2512.87,-1656.96C2485.73,-1640.81 2454.47,-1625.12 2423.63,-1616 2282.56,-1574.28 1896.64,-1640.66 1762.63,-1580 1709.67,-1556.03 1664.51,-1507.43 1634.23,-1467.91"/>
<ellipse fill="none" stroke="#e94d15" cx="2516.63" cy="-1659.23" rx="4.00002" ry="4.00002"/>
<polygon fill="#e94d15" stroke="#e94d15" points="1634.01,-1467.62 1631.59,-1456.92 1631,-1463.62 1628,-1459.63 1628,-1459.63 1628,-1459.63 1631,-1463.62 1624.4,-1462.33 1634.01,-1467.62 1634.01,-1467.62"/>
</g>
<!-- License -->
<g id="node3" class="node"><title>License</title>
<path fill="none" stroke="black" d="M808.126,-1053C808.126,-1053 1105.13,-1053 1105.13,-1053 1111.13,-1053 1117.13,-1059 1117.13,-1065 1117.13,-1065 1117.13,-1162 1117.13,-1162 1117.13,-1168 1111.13,-1174 1105.13,-1174 1105.13,-1174 808.126,-1174 808.126,-1174 802.126,-1174 796.126,-1168 796.126,-1162 796.126,-1162 796.126,-1065 796.126,-1065 796.126,-1059 802.126,-1053 808.126,-1053"/>
<text text-anchor="middle" x="956.626" y="-1158.8" font-family="Times,serif" font-size="14.00">License</text>
<polyline fill="none" stroke="black" points="796.126,-1151 1117.13,-1151 "/>
<text text-anchor="start" x="804.126" y="-1135.8" font-family="Times,serif" font-size="14.00">id :integer</text>
<text text-anchor="start" x="804.126" y="-1120.8" font-family="Times,serif" font-size="14.00">user_id :integer</text>
<text text-anchor="start" x="804.126" y="-1105.8" font-family="Times,serif" font-size="14.00">plan :integer</text>
<text text-anchor="start" x="804.126" y="-1090.8" font-family="Times,serif" font-size="14.00">days_left :integer</text>
<text text-anchor="start" x="804.126" y="-1075.8" font-family="Times,serif" font-size="14.00">created_at :timestamp without time zone</text>
<text text-anchor="start" x="804.126" y="-1060.8" font-family="Times,serif" font-size="14.00">updated_at :timestamp without time zone</text>
</g>
<!-- Tutorial -->
<g id="node4" class="node"><title>Tutorial</title>
<path fill="none" stroke="black" d="M2123.13,-1353.5C2123.13,-1353.5 2420.13,-1353.5 2420.13,-1353.5 2426.13,-1353.5 2432.13,-1359.5 2432.13,-1365.5 2432.13,-1365.5 2432.13,-1447.5 2432.13,-1447.5 2432.13,-1453.5 2426.13,-1459.5 2420.13,-1459.5 2420.13,-1459.5 2123.13,-1459.5 2123.13,-1459.5 2117.13,-1459.5 2111.13,-1453.5 2111.13,-1447.5 2111.13,-1447.5 2111.13,-1365.5 2111.13,-1365.5 2111.13,-1359.5 2117.13,-1353.5 2123.13,-1353.5"/>
<text text-anchor="middle" x="2271.63" y="-1444.3" font-family="Times,serif" font-size="14.00">Tutorial</text>
<polyline fill="none" stroke="black" points="2111.13,-1436.5 2432.13,-1436.5 "/>
<text text-anchor="start" x="2119.13" y="-1421.3" font-family="Times,serif" font-size="14.00">id :integer</text>
<text text-anchor="start" x="2119.13" y="-1406.3" font-family="Times,serif" font-size="14.00">title :character varying</text>
<text text-anchor="start" x="2119.13" y="-1391.3" font-family="Times,serif" font-size="14.00">description :text</text>
<text text-anchor="start" x="2119.13" y="-1376.3" font-family="Times,serif" font-size="14.00">created_at :timestamp without time zone</text>
<text text-anchor="start" x="2119.13" y="-1361.3" font-family="Times,serif" font-size="14.00">updated_at :timestamp without time zone</text>
</g>
<!-- Resource -->
<g id="node32" class="node"><title>Resource</title>
<path fill="none" stroke="black" d="M1742.13,-1038C1742.13,-1038 2039.13,-1038 2039.13,-1038 2045.13,-1038 2051.13,-1044 2051.13,-1050 2051.13,-1050 2051.13,-1177 2051.13,-1177 2051.13,-1183 2045.13,-1189 2039.13,-1189 2039.13,-1189 1742.13,-1189 1742.13,-1189 1736.13,-1189 1730.13,-1183 1730.13,-1177 1730.13,-1177 1730.13,-1050 1730.13,-1050 1730.13,-1044 1736.13,-1038 1742.13,-1038"/>
<text text-anchor="middle" x="1890.63" y="-1173.8" font-family="Times,serif" font-size="14.00">Resource</text>
<polyline fill="none" stroke="black" points="1730.13,-1166 2051.13,-1166 "/>
<text text-anchor="start" x="1738.13" y="-1150.8" font-family="Times,serif" font-size="14.00">id :integer</text>
<text text-anchor="start" x="1738.13" y="-1135.8" font-family="Times,serif" font-size="14.00">generic_name :character varying</text>
<text text-anchor="start" x="1738.13" y="-1120.8" font-family="Times,serif" font-size="14.00">tutorial_id :integer</text>
<text text-anchor="start" x="1738.13" y="-1105.8" font-family="Times,serif" font-size="14.00">material_id :integer</text>
<text text-anchor="start" x="1738.13" y="-1090.8" font-family="Times,serif" font-size="14.00">material_type :character varying</text>
<text text-anchor="start" x="1738.13" y="-1075.8" font-family="Times,serif" font-size="14.00">created_at :timestamp without time zone</text>
<text text-anchor="start" x="1738.13" y="-1060.8" font-family="Times,serif" font-size="14.00">updated_at :timestamp without time zone</text>
<text text-anchor="start" x="1738.13" y="-1045.8" font-family="Times,serif" font-size="14.00">section_id :integer</text>
</g>
<!-- Tutorial&#45;&gt;Resource -->
<g id="edge6" class="edge"><title>Tutorial&#45;&gt;Resource</title>
<path fill="none" stroke="#ee53e3" d="M2221.91,-1347.28C2189.78,-1311.73 2145.85,-1266.77 2101.63,-1233 2083.96,-1219.51 2064.58,-1206.53 2044.95,-1194.43"/>
<ellipse fill="none" stroke="#ee53e3" cx="2224.69" cy="-1350.38" rx="4.00002" ry="4.00002"/>
<polygon fill="#ee53e3" stroke="#ee53e3" points="2044.76,-1194.31 2038.56,-1185.27 2040.49,-1191.71 2036.22,-1189.11 2036.22,-1189.11 2036.22,-1189.11 2040.49,-1191.71 2033.88,-1192.96 2044.76,-1194.31 2044.76,-1194.31"/>
</g>
<!-- SubCategory -->
<g id="node6" class="node"><title>SubCategory</title>
<path fill="none" stroke="black" d="M825.126,-827.5C825.126,-827.5 1122.13,-827.5 1122.13,-827.5 1128.13,-827.5 1134.13,-833.5 1134.13,-839.5 1134.13,-839.5 1134.13,-966.5 1134.13,-966.5 1134.13,-972.5 1128.13,-978.5 1122.13,-978.5 1122.13,-978.5 825.126,-978.5 825.126,-978.5 819.126,-978.5 813.126,-972.5 813.126,-966.5 813.126,-966.5 813.126,-839.5 813.126,-839.5 813.126,-833.5 819.126,-827.5 825.126,-827.5"/>
<text text-anchor="middle" x="973.626" y="-963.3" font-family="Times,serif" font-size="14.00">SubCategory</text>
<polyline fill="none" stroke="black" points="813.126,-955.5 1134.13,-955.5 "/>
<text text-anchor="start" x="821.126" y="-940.3" font-family="Times,serif" font-size="14.00">id :integer</text>
<text text-anchor="start" x="821.126" y="-925.3" font-family="Times,serif" font-size="14.00">name :character varying</text>
<text text-anchor="start" x="821.126" y="-910.3" font-family="Times,serif" font-size="14.00">user_id :integer</text>
<text text-anchor="start" x="821.126" y="-895.3" font-family="Times,serif" font-size="14.00">category_id :integer</text>
<text text-anchor="start" x="821.126" y="-880.3" font-family="Times,serif" font-size="14.00">created_at :timestamp without time zone</text>
<text text-anchor="start" x="821.126" y="-865.3" font-family="Times,serif" font-size="14.00">updated_at :timestamp without time zone</text>
<text text-anchor="start" x="821.126" y="-850.3" font-family="Times,serif" font-size="14.00">questions_count :integer</text>
<text text-anchor="start" x="821.126" y="-835.3" font-family="Times,serif" font-size="14.00">description :text</text>
</g>
<!-- Category&#45;&gt;SubCategory -->
<g id="edge7" class="edge"><title>Category&#45;&gt;SubCategory</title>
<path fill="none" stroke="#5704a0" d="M739.527,-1041.11C771.009,-1022.67 805.098,-1002.7 837.266,-983.863"/>
<ellipse fill="none" stroke="#5704a0" cx="735.678" cy="-1043.36" rx="4.00002" ry="4.00002"/>
<polygon fill="#5704a0" stroke="#5704a0" points="837.655,-983.635 848.559,-982.464 841.97,-981.108 846.284,-978.581 846.284,-978.581 846.284,-978.581 841.97,-981.108 844.01,-974.698 837.655,-983.635 837.655,-983.635"/>
</g>
<!-- Question -->
<g id="node11" class="node"><title>Question</title>
<path fill="none" stroke="black" d="M627.126,-504.5C627.126,-504.5 924.126,-504.5 924.126,-504.5 930.126,-504.5 936.126,-510.5 936.126,-516.5 936.126,-516.5 936.126,-763.5 936.126,-763.5 936.126,-769.5 930.126,-775.5 924.126,-775.5 924.126,-775.5 627.126,-775.5 627.126,-775.5 621.126,-775.5 615.126,-769.5 615.126,-763.5 615.126,-763.5 615.126,-516.5 615.126,-516.5 615.126,-510.5 621.126,-504.5 627.126,-504.5"/>
<text text-anchor="middle" x="775.626" y="-760.3" font-family="Times,serif" font-size="14.00">Question</text>
<polyline fill="none" stroke="black" points="615.126,-752.5 936.126,-752.5 "/>
<text text-anchor="start" x="623.126" y="-737.3" font-family="Times,serif" font-size="14.00">id :integer</text>
<text text-anchor="start" x="623.126" y="-722.3" font-family="Times,serif" font-size="14.00">content :character varying</text>
<text text-anchor="start" x="623.126" y="-707.3" font-family="Times,serif" font-size="14.00">choice_id :integer</text>
<text text-anchor="start" x="623.126" y="-692.3" font-family="Times,serif" font-size="14.00">sub_category_id :integer</text>
<text text-anchor="start" x="623.126" y="-677.3" font-family="Times,serif" font-size="14.00">created_at :timestamp without time zone</text>
<text text-anchor="start" x="623.126" y="-662.3" font-family="Times,serif" font-size="14.00">updated_at :timestamp without time zone</text>
<text text-anchor="start" x="623.126" y="-647.3" font-family="Times,serif" font-size="14.00">explanation :character varying</text>
<text text-anchor="start" x="623.126" y="-632.3" font-family="Times,serif" font-size="14.00">picture :character varying</text>
<text text-anchor="start" x="623.126" y="-617.3" font-family="Times,serif" font-size="14.00">url :character varying</text>
<text text-anchor="start" x="623.126" y="-602.3" font-family="Times,serif" font-size="14.00">video_url :character varying</text>
<text text-anchor="start" x="623.126" y="-587.3" font-family="Times,serif" font-size="14.00">question_id :integer</text>
<text text-anchor="start" x="623.126" y="-572.3" font-family="Times,serif" font-size="14.00">time :integer</text>
<text text-anchor="start" x="623.126" y="-557.3" font-family="Times,serif" font-size="14.00">total_answered_count :integer</text>
<text text-anchor="start" x="623.126" y="-542.3" font-family="Times,serif" font-size="14.00">wrong_answered_count :integer</text>
<text text-anchor="start" x="623.126" y="-527.3" font-family="Times,serif" font-size="14.00">parent_id :integer</text>
<text text-anchor="start" x="623.126" y="-512.3" font-family="Times,serif" font-size="14.00">parent_type :character varying</text>
</g>
<!-- Category&#45;&gt;Question -->
<g id="edge8" class="edge"><title>Category&#45;&gt;Question</title>
<path fill="none" stroke="#b30bba" d="M732.144,-1038.1C745.118,-1024.96 756.555,-1010.22 764.626,-994 796.195,-930.561 801.503,-852.46 797.827,-785.863"/>
<polygon fill="#b30bba" stroke="#b30bba" points="731.967,-1038.27 721.657,-1042.01 728.379,-1041.75 724.79,-1045.24 724.79,-1045.24 724.79,-1045.24 728.379,-1041.75 727.924,-1048.47 731.967,-1038.27 731.967,-1038.27"/>
<polygon fill="#b30bba" stroke="#b30bba" points="797.815,-785.682 801.683,-775.421 797.504,-780.692 797.192,-775.702 797.192,-775.702 797.192,-775.702 797.504,-780.692 792.701,-775.982 797.815,-785.682 797.815,-785.682"/>
</g>
<!-- SimulatedCategory -->
<g id="node21" class="node"><title>SimulatedCategory</title>
<path fill="none" stroke="black" d="M447.126,-857.5C447.126,-857.5 744.126,-857.5 744.126,-857.5 750.126,-857.5 756.126,-863.5 756.126,-869.5 756.126,-869.5 756.126,-936.5 756.126,-936.5 756.126,-942.5 750.126,-948.5 744.126,-948.5 744.126,-948.5 447.126,-948.5 447.126,-948.5 441.126,-948.5 435.126,-942.5 435.126,-936.5 435.126,-936.5 435.126,-869.5 435.126,-869.5 435.126,-863.5 441.126,-857.5 447.126,-857.5"/>
<text text-anchor="middle" x="595.626" y="-933.3" font-family="Times,serif" font-size="14.00">SimulatedCategory</text>
<polyline fill="none" stroke="black" points="435.126,-925.5 756.126,-925.5 "/>
<text text-anchor="start" x="443.126" y="-910.3" font-family="Times,serif" font-size="14.00">id :integer</text>
<text text-anchor="start" x="443.126" y="-895.3" font-family="Times,serif" font-size="14.00">category_id :integer</text>
<text text-anchor="start" x="443.126" y="-880.3" font-family="Times,serif" font-size="14.00">created_at :timestamp without time zone</text>
<text text-anchor="start" x="443.126" y="-865.3" font-family="Times,serif" font-size="14.00">updated_at :timestamp without time zone</text>
</g>
<!-- Category&#45;&gt;SimulatedCategory -->
<g id="edge9" class="edge"><title>Category&#45;&gt;SimulatedCategory</title>
<path fill="none" stroke="#9284f3" d="M609.672,-1037.11C606.932,-1011.14 603.918,-982.584 601.387,-958.599"/>
<ellipse fill="none" stroke="#9284f3" cx="610.125" cy="-1041.4" rx="4" ry="4"/>
<polygon fill="#9284f3" stroke="#9284f3" points="601.384,-958.565 604.81,-948.148 600.859,-953.593 600.335,-948.621 600.335,-948.621 600.335,-948.621 600.859,-953.593 595.859,-949.093 601.384,-958.565 601.384,-958.565"/>
</g>
<!-- Choice -->
<g id="node8" class="node"><title>Choice</title>
<path fill="none" stroke="black" d="M860.126,-158.5C860.126,-158.5 1157.13,-158.5 1157.13,-158.5 1163.13,-158.5 1169.13,-164.5 1169.13,-170.5 1169.13,-170.5 1169.13,-252.5 1169.13,-252.5 1169.13,-258.5 1163.13,-264.5 1157.13,-264.5 1157.13,-264.5 860.126,-264.5 860.126,-264.5 854.126,-264.5 848.126,-258.5 848.126,-252.5 848.126,-252.5 848.126,-170.5 848.126,-170.5 848.126,-164.5 854.126,-158.5 860.126,-158.5"/>
<text text-anchor="middle" x="1008.63" y="-249.3" font-family="Times,serif" font-size="14.00">Choice</text>
<polyline fill="none" stroke="black" points="848.126,-241.5 1169.13,-241.5 "/>
<text text-anchor="start" x="856.126" y="-226.3" font-family="Times,serif" font-size="14.00">id :integer</text>
<text text-anchor="start" x="856.126" y="-211.3" font-family="Times,serif" font-size="14.00">content :character varying</text>
<text text-anchor="start" x="856.126" y="-196.3" font-family="Times,serif" font-size="14.00">question_id :integer</text>
<text text-anchor="start" x="856.126" y="-181.3" font-family="Times,serif" font-size="14.00">created_at :timestamp without time zone</text>
<text text-anchor="start" x="856.126" y="-166.3" font-family="Times,serif" font-size="14.00">updated_at :timestamp without time zone</text>
</g>
<!-- SubCategory&#45;&gt;Choice -->
<g id="edge11" class="edge"><title>SubCategory&#45;&gt;Choice</title>
<path fill="none" stroke="#484b6b" d="M981.627,-817.205C989.456,-715.693 995.897,-553.201 962.626,-504 940.102,-470.691 901.688,-501.617 879.626,-468 838.903,-405.947 845.04,-366.671 879.626,-301 885.369,-290.097 893.127,-280.279 902.007,-271.504"/>
<polygon fill="#484b6b" stroke="#484b6b" points="981.606,-817.472 976.331,-827.085 981.212,-822.456 980.817,-827.441 980.817,-827.441 980.817,-827.441 981.212,-822.456 985.303,-827.796 981.606,-817.472 981.606,-817.472"/>
<polygon fill="#484b6b" stroke="#484b6b" points="902.022,-271.49 912.413,-267.987 905.687,-268.089 909.353,-264.689 909.353,-264.689 909.353,-264.689 905.687,-268.089 906.292,-261.39 902.022,-271.49 902.022,-271.49"/>
</g>
<!-- AnsweredQuestion -->
<g id="node10" class="node"><title>AnsweredQuestion</title>
<path fill="none" stroke="black" d="M901.126,-316.5C901.126,-316.5 1198.13,-316.5 1198.13,-316.5 1204.13,-316.5 1210.13,-322.5 1210.13,-328.5 1210.13,-328.5 1210.13,-440.5 1210.13,-440.5 1210.13,-446.5 1204.13,-452.5 1198.13,-452.5 1198.13,-452.5 901.126,-452.5 901.126,-452.5 895.126,-452.5 889.126,-446.5 889.126,-440.5 889.126,-440.5 889.126,-328.5 889.126,-328.5 889.126,-322.5 895.126,-316.5 901.126,-316.5"/>
<text text-anchor="middle" x="1049.63" y="-437.3" font-family="Times,serif" font-size="14.00">AnsweredQuestion</text>
<polyline fill="none" stroke="black" points="889.126,-429.5 1210.13,-429.5 "/>
<text text-anchor="start" x="897.126" y="-414.3" font-family="Times,serif" font-size="14.00">id :integer</text>
<text text-anchor="start" x="897.126" y="-399.3" font-family="Times,serif" font-size="14.00">correct :boolean</text>
<text text-anchor="start" x="897.126" y="-384.3" font-family="Times,serif" font-size="14.00">user_id :integer</text>
<text text-anchor="start" x="897.126" y="-369.3" font-family="Times,serif" font-size="14.00">question_id :integer</text>
<text text-anchor="start" x="897.126" y="-354.3" font-family="Times,serif" font-size="14.00">choice_id :integer</text>
<text text-anchor="start" x="897.126" y="-339.3" font-family="Times,serif" font-size="14.00">created_at :timestamp without time zone</text>
<text text-anchor="start" x="897.126" y="-324.3" font-family="Times,serif" font-size="14.00">updated_at :timestamp without time zone</text>
</g>
<!-- SubCategory&#45;&gt;AnsweredQuestion -->
<g id="edge12" class="edge"><title>SubCategory&#45;&gt;AnsweredQuestion</title>
<path fill="none" stroke="#0874b8" d="M989.604,-817.476C992.062,-803.634 994.49,-789.43 996.626,-776 1013.85,-667.688 1030.29,-541.905 1040.17,-463.001"/>
<polygon fill="#0874b8" stroke="#0874b8" points="989.576,-817.632 983.382,-826.681 988.694,-822.554 987.812,-827.475 987.812,-827.475 987.812,-827.475 988.694,-822.554 992.241,-828.269 989.576,-817.632 989.576,-817.632"/>
<polygon fill="#0874b8" stroke="#0874b8" points="1040.22,-462.586 1045.92,-453.22 1040.84,-457.624 1041.46,-452.663 1041.46,-452.663 1041.46,-452.663 1040.84,-457.624 1036.99,-452.105 1040.22,-462.586 1040.22,-462.586"/>
</g>
<!-- SubCategory&#45;&gt;Question -->
<g id="edge10" class="edge"><title>SubCategory&#45;&gt;Question</title>
<path fill="none" stroke="#67db0b" d="M911.962,-820.715C903.076,-809.002 893.72,-796.669 884.245,-784.179"/>
<ellipse fill="none" stroke="#67db0b" cx="914.47" cy="-824.021" rx="4.00002" ry="4.00002"/>
<polygon fill="#67db0b" stroke="#67db0b" points="884.049,-783.921 881.591,-773.234 881.027,-779.938 878.005,-775.954 878.005,-775.954 878.005,-775.954 881.027,-779.938 874.42,-778.674 884.049,-783.921 884.049,-783.921"/>
</g>
<!-- Plan -->
<g id="node7" class="node"><title>Plan</title>
<path fill="none" stroke="black" d="M2488.13,-827.5C2488.13,-827.5 2785.13,-827.5 2785.13,-827.5 2791.13,-827.5 2797.13,-833.5 2797.13,-839.5 2797.13,-839.5 2797.13,-966.5 2797.13,-966.5 2797.13,-972.5 2791.13,-978.5 2785.13,-978.5 2785.13,-978.5 2488.13,-978.5 2488.13,-978.5 2482.13,-978.5 2476.13,-972.5 2476.13,-966.5 2476.13,-966.5 2476.13,-839.5 2476.13,-839.5 2476.13,-833.5 2482.13,-827.5 2488.13,-827.5"/>
<text text-anchor="middle" x="2636.63" y="-963.3" font-family="Times,serif" font-size="14.00">Plan</text>
<polyline fill="none" stroke="black" points="2476.13,-955.5 2797.13,-955.5 "/>
<text text-anchor="start" x="2484.13" y="-940.3" font-family="Times,serif" font-size="14.00">id :integer</text>
<text text-anchor="start" x="2484.13" y="-925.3" font-family="Times,serif" font-size="14.00">name :character varying</text>
<text text-anchor="start" x="2484.13" y="-910.3" font-family="Times,serif" font-size="14.00">description :text</text>
<text text-anchor="start" x="2484.13" y="-895.3" font-family="Times,serif" font-size="14.00">expiration_days :integer</text>
<text text-anchor="start" x="2484.13" y="-880.3" font-family="Times,serif" font-size="14.00">licence_type :integer</text>
<text text-anchor="start" x="2484.13" y="-865.3" font-family="Times,serif" font-size="14.00">price :numeric(2,0)</text>
<text text-anchor="start" x="2484.13" y="-850.3" font-family="Times,serif" font-size="14.00">created_at :timestamp without time zone</text>
<text text-anchor="start" x="2484.13" y="-835.3" font-family="Times,serif" font-size="14.00">updated_at :timestamp without time zone</text>
</g>
<!-- Plan&#45;&gt;Course -->
<g id="edge14" class="edge"><title>Plan&#45;&gt;Course</title>
<path fill="none" stroke="#3a6b84" d="M2752.68,-985.613C2766.6,-999.182 2779.45,-1014.07 2789.63,-1030 2921.86,-1236.93 2975.97,-1373.78 2842.63,-1580 2821.46,-1612.74 2797.33,-1598.24 2762.63,-1616 2738.32,-1628.44 2712.57,-1642.71 2688.69,-1656.43"/>
<polygon fill="#3a6b84" stroke="#3a6b84" points="2752.58,-985.515 2748.41,-975.372 2748.95,-982.077 2745.32,-978.639 2745.32,-978.639 2745.32,-978.639 2748.95,-982.077 2742.23,-981.906 2752.58,-985.515 2752.58,-985.515"/>
<polygon fill="#3a6b84" stroke="#3a6b84" points="2688.64,-1656.45 2677.73,-1657.55 2684.31,-1658.95 2679.98,-1661.45 2679.98,-1661.45 2679.98,-1661.45 2684.31,-1658.95 2682.23,-1665.35 2688.64,-1656.45 2688.64,-1656.45"/>
</g>
<!-- CourseUserPlan -->
<g id="node29" class="node"><title>CourseUserPlan</title>
<path fill="none" stroke="black" d="M2204.13,-572C2204.13,-572 2501.13,-572 2501.13,-572 2507.13,-572 2513.13,-578 2513.13,-584 2513.13,-584 2513.13,-696 2513.13,-696 2513.13,-702 2507.13,-708 2501.13,-708 2501.13,-708 2204.13,-708 2204.13,-708 2198.13,-708 2192.13,-702 2192.13,-696 2192.13,-696 2192.13,-584 2192.13,-584 2192.13,-578 2198.13,-572 2204.13,-572"/>
<text text-anchor="middle" x="2352.63" y="-692.8" font-family="Times,serif" font-size="14.00">CourseUserPlan</text>
<polyline fill="none" stroke="black" points="2192.13,-685 2513.13,-685 "/>
<text text-anchor="start" x="2200.13" y="-669.8" font-family="Times,serif" font-size="14.00">id :integer</text>
<text text-anchor="start" x="2200.13" y="-654.8" font-family="Times,serif" font-size="14.00">course_user_id :integer</text>
<text text-anchor="start" x="2200.13" y="-639.8" font-family="Times,serif" font-size="14.00">plan_id :integer</text>
<text text-anchor="start" x="2200.13" y="-624.8" font-family="Times,serif" font-size="14.00">expiration_date :date</text>
<text text-anchor="start" x="2200.13" y="-609.8" font-family="Times,serif" font-size="14.00">status :integer</text>
<text text-anchor="start" x="2200.13" y="-594.8" font-family="Times,serif" font-size="14.00">created_at :timestamp without time zone</text>
<text text-anchor="start" x="2200.13" y="-579.8" font-family="Times,serif" font-size="14.00">updated_at :timestamp without time zone</text>
</g>
<!-- Plan&#45;&gt;CourseUserPlan -->
<g id="edge13" class="edge"><title>Plan&#45;&gt;CourseUserPlan</title>
<path fill="none" stroke="#14a229" d="M2548.96,-821.437C2512.1,-787.555 2469.47,-748.384 2433.38,-715.214"/>
<ellipse fill="none" stroke="#14a229" cx="2552.3" cy="-824.501" rx="4.00002" ry="4.00002"/>
<polygon fill="#14a229" stroke="#14a229" points="2433.15,-714.998 2428.83,-704.918 2429.46,-711.615 2425.78,-708.231 2425.78,-708.231 2425.78,-708.231 2429.46,-711.615 2422.74,-711.545 2433.15,-714.998 2433.15,-714.998"/>
</g>
<!-- Answer -->
<g id="node15" class="node"><title>Answer</title>
<path fill="none" stroke="black" d="M1134.13,-0.5C1134.13,-0.5 1343.13,-0.5 1343.13,-0.5 1349.13,-0.5 1355.13,-6.5 1355.13,-12.5 1355.13,-12.5 1355.13,-109.5 1355.13,-109.5 1355.13,-115.5 1349.13,-121.5 1343.13,-121.5 1343.13,-121.5 1134.13,-121.5 1134.13,-121.5 1128.13,-121.5 1122.13,-115.5 1122.13,-109.5 1122.13,-109.5 1122.13,-12.5 1122.13,-12.5 1122.13,-6.5 1128.13,-0.5 1134.13,-0.5"/>
<text text-anchor="middle" x="1238.63" y="-106.3" font-family="Times,serif" font-size="14.00">Answer</text>
<polyline fill="none" stroke="black" points="1122.13,-98.5 1355.13,-98.5 "/>
<text text-anchor="start" x="1130.13" y="-83.3" font-family="Times,serif" font-size="14.00">id :integer</text>
<text text-anchor="start" x="1130.13" y="-68.3" font-family="Times,serif" font-size="14.00">user_id :integer</text>
<text text-anchor="start" x="1130.13" y="-53.3" font-family="Times,serif" font-size="14.00">question_id :integer</text>
<text text-anchor="start" x="1130.13" y="-38.3" font-family="Times,serif" font-size="14.00">choice_id :integer</text>
<text text-anchor="start" x="1130.13" y="-23.3" font-family="Times,serif" font-size="14.00">item_id :integer</text>
<text text-anchor="start" x="1130.13" y="-8.3" font-family="Times,serif" font-size="14.00">item_type :character varying</text>
</g>
<!-- Choice&#45;&gt;Answer -->
<g id="edge15" class="edge"><title>Choice&#45;&gt;Answer</title>
<path fill="none" stroke="#2fadc6" d="M1096.34,-153.867C1109.87,-145.133 1123.93,-136.054 1137.72,-127.153"/>
<ellipse fill="none" stroke="#2fadc6" cx="1092.75" cy="-156.184" rx="4.00002" ry="4.00002"/>
<polygon fill="#2fadc6" stroke="#2fadc6" points="1137.86,-127.062 1148.7,-125.418 1142.06,-124.35 1146.26,-121.638 1146.26,-121.638 1146.26,-121.638 1142.06,-124.35 1143.82,-117.857 1137.86,-127.062 1137.86,-127.062"/>
</g>
<!-- User&#45;&gt;License -->
<g id="edge23" class="edge"><title>User&#45;&gt;License</title>
<path fill="none" stroke="#a91d3d" d="M922.326,-1225.41C927.05,-1210.13 931.608,-1195.39 935.773,-1181.93"/>
<ellipse fill="none" stroke="#a91d3d" cx="921.072" cy="-1229.46" rx="4.00001" ry="4.00001"/>
<ellipse fill="#a91d3d" stroke="#a91d3d" cx="936.997" cy="-1177.97" rx="4.00001" ry="4.00001"/>
</g>
<!-- User&#45;&gt;Category -->
<g id="edge16" class="edge"><title>User&#45;&gt;Category</title>
<path fill="none" stroke="#03cfab" d="M713.822,-1226.92C702.661,-1213.88 691.82,-1201.21 681.685,-1189.36"/>
<ellipse fill="none" stroke="#03cfab" cx="716.663" cy="-1230.24" rx="4.00002" ry="4.00002"/>
<polygon fill="#03cfab" stroke="#03cfab" points="681.632,-1189.3 678.55,-1178.78 678.381,-1185.5 675.131,-1181.7 675.131,-1181.7 675.131,-1181.7 678.381,-1185.5 671.711,-1184.63 681.632,-1189.3 681.632,-1189.3"/>
</g>
<!-- User&#45;&gt;SubCategory -->
<g id="edge17" class="edge"><title>User&#45;&gt;SubCategory</title>
<path fill="none" stroke="#d05fb3" d="M1082.86,-1233.59C1107.67,-1213.39 1124.62,-1199.1 1125.63,-1197 1157.68,-1130.05 1157.2,-1097.17 1125.63,-1030 1118.06,-1013.9 1107.32,-999.154 1095,-985.869"/>
<ellipse fill="none" stroke="#d05fb3" cx="1079.5" cy="-1236.33" rx="4.00002" ry="4.00002"/>
<polygon fill="#d05fb3" stroke="#d05fb3" points="1094.95,-985.825 1091.23,-975.51 1091.48,-982.232 1088,-978.64 1088,-978.64 1088,-978.64 1091.48,-982.232 1084.76,-981.77 1094.95,-985.825 1094.95,-985.825"/>
</g>
<!-- User&#45;&gt;AnsweredQuestion -->
<g id="edge19" class="edge"><title>User&#45;&gt;AnsweredQuestion</title>
<path fill="none" stroke="#92b3d9" d="M1083.04,-1234.05C1083.57,-1233.7 1084.1,-1233.35 1084.63,-1233 1112.88,-1214.44 1134.28,-1226.01 1151.63,-1197 1225.2,-1073.95 1119.24,-640.106 1071.2,-462.337"/>
<ellipse fill="none" stroke="#92b3d9" cx="1079.46" cy="-1236.43" rx="4.00002" ry="4.00002"/>
<polygon fill="#92b3d9" stroke="#92b3d9" points="1071.16,-462.184 1072.88,-451.355 1069.85,-457.359 1068.54,-452.533 1068.54,-452.533 1068.54,-452.533 1069.85,-457.359 1064.2,-453.712 1071.16,-462.184 1071.16,-462.184"/>
</g>
<!-- User&#45;&gt;Answer -->
<g id="edge22" class="edge"><title>User&#45;&gt;Answer</title>
<path fill="none" stroke="#1fa41a" d="M1083.3,-1233.76C1083.74,-1233.5 1084.18,-1233.25 1084.63,-1233 1123.5,-1210.87 1151.33,-1232.44 1178.63,-1197 1330.28,-1000.08 1238.63,-889.546 1238.63,-641 1238.63,-641 1238.63,-641 1238.63,-383.5 1238.63,-296.743 1238.63,-196.816 1238.63,-131.696"/>
<ellipse fill="none" stroke="#1fa41a" cx="1079.58" cy="-1235.92" rx="4.00002" ry="4.00002"/>
<polygon fill="#1fa41a" stroke="#1fa41a" points="1238.63,-131.55 1243.13,-121.55 1238.63,-126.55 1238.63,-121.55 1238.63,-121.55 1238.63,-121.55 1238.63,-126.55 1234.13,-121.55 1238.63,-131.55 1238.63,-131.55"/>
</g>
<!-- SimulatorAnsweredQuestion -->
<g id="node22" class="node"><title>SimulatorAnsweredQuestion</title>
<path fill="none" stroke="black" d="M91.1264,-301.5C91.1264,-301.5 388.126,-301.5 388.126,-301.5 394.126,-301.5 400.126,-307.5 400.126,-313.5 400.126,-313.5 400.126,-455.5 400.126,-455.5 400.126,-461.5 394.126,-467.5 388.126,-467.5 388.126,-467.5 91.1264,-467.5 91.1264,-467.5 85.1264,-467.5 79.1264,-461.5 79.1264,-455.5 79.1264,-455.5 79.1264,-313.5 79.1264,-313.5 79.1264,-307.5 85.1264,-301.5 91.1264,-301.5"/>
<text text-anchor="middle" x="239.626" y="-452.3" font-family="Times,serif" font-size="14.00">SimulatorAnsweredQuestion</text>
<polyline fill="none" stroke="black" points="79.1264,-444.5 400.126,-444.5 "/>
<text text-anchor="start" x="87.1264" y="-429.3" font-family="Times,serif" font-size="14.00">id :integer</text>
<text text-anchor="start" x="87.1264" y="-414.3" font-family="Times,serif" font-size="14.00">simulator_id :integer</text>
<text text-anchor="start" x="87.1264" y="-399.3" font-family="Times,serif" font-size="14.00">question_id :integer</text>
<text text-anchor="start" x="87.1264" y="-384.3" font-family="Times,serif" font-size="14.00">user_id :integer</text>
<text text-anchor="start" x="87.1264" y="-369.3" font-family="Times,serif" font-size="14.00">choice_id :integer</text>
<text text-anchor="start" x="87.1264" y="-354.3" font-family="Times,serif" font-size="14.00">created_at :timestamp without time zone</text>
<text text-anchor="start" x="87.1264" y="-339.3" font-family="Times,serif" font-size="14.00">updated_at :timestamp without time zone</text>
<text text-anchor="start" x="87.1264" y="-324.3" font-family="Times,serif" font-size="14.00">status :integer</text>
<text text-anchor="start" x="87.1264" y="-309.3" font-family="Times,serif" font-size="14.00">marked_status :integer</text>
</g>
<!-- User&#45;&gt;SimulatorAnsweredQuestion -->
<g id="edge20" class="edge"><title>User&#45;&gt;SimulatorAnsweredQuestion</title>
<path fill="none" stroke="#6896cc" d="M648.711,-1375.87C441.567,-1342.98 150.924,-1282.95 76.6264,-1197 -102.705,-989.534 75.9079,-640.431 178.459,-476.146"/>
<ellipse fill="none" stroke="#6896cc" cx="652.708" cy="-1376.5" rx="4.00001" ry="4.00001"/>
<polygon fill="#6896cc" stroke="#6896cc" points="178.567,-475.974 187.698,-469.902 181.228,-471.741 183.888,-467.507 183.888,-467.507 183.888,-467.507 181.228,-471.741 180.078,-465.113 178.567,-475.974 178.567,-475.974"/>
</g>
<!-- Simulator -->
<g id="node24" class="node"><title>Simulator</title>
<path fill="none" stroke="black" d="M74.6264,-812.5C74.6264,-812.5 404.626,-812.5 404.626,-812.5 410.626,-812.5 416.626,-818.5 416.626,-824.5 416.626,-824.5 416.626,-981.5 416.626,-981.5 416.626,-987.5 410.626,-993.5 404.626,-993.5 404.626,-993.5 74.6264,-993.5 74.6264,-993.5 68.6264,-993.5 62.6264,-987.5 62.6264,-981.5 62.6264,-981.5 62.6264,-824.5 62.6264,-824.5 62.6264,-818.5 68.6264,-812.5 74.6264,-812.5"/>
<text text-anchor="middle" x="239.626" y="-978.3" font-family="Times,serif" font-size="14.00">Simulator</text>
<polyline fill="none" stroke="black" points="62.6264,-970.5 416.626,-970.5 "/>
<text text-anchor="start" x="70.6264" y="-955.3" font-family="Times,serif" font-size="14.00">id :integer</text>
<text text-anchor="start" x="70.6264" y="-940.3" font-family="Times,serif" font-size="14.00">user_id :integer</text>
<text text-anchor="start" x="70.6264" y="-925.3" font-family="Times,serif" font-size="14.00">time_left :time without time zone</text>
<text text-anchor="start" x="70.6264" y="-910.3" font-family="Times,serif" font-size="14.00">last_started :timestamp without time zone</text>
<text text-anchor="start" x="70.6264" y="-895.3" font-family="Times,serif" font-size="14.00">last_paused :timestamp without time zone</text>
<text text-anchor="start" x="70.6264" y="-880.3" font-family="Times,serif" font-size="14.00">time_completed :timestamp without time zone</text>
<text text-anchor="start" x="70.6264" y="-865.3" font-family="Times,serif" font-size="14.00">created_at :timestamp without time zone</text>
<text text-anchor="start" x="70.6264" y="-850.3" font-family="Times,serif" font-size="14.00">updated_at :timestamp without time zone</text>
<text text-anchor="start" x="70.6264" y="-835.3" font-family="Times,serif" font-size="14.00">simulator_type_id :integer</text>
<text text-anchor="start" x="70.6264" y="-820.3" font-family="Times,serif" font-size="14.00">status :integer</text>
</g>
<!-- User&#45;&gt;Simulator -->
<g id="edge18" class="edge"><title>User&#45;&gt;Simulator</title>
<path fill="none" stroke="#36c465" d="M649.083,-1375.25C449.159,-1342.46 174.191,-1283.03 108.626,-1197 63.6381,-1137.97 79.5571,-1098.29 108.626,-1030 112.747,-1020.32 118.017,-1011.02 124.067,-1002.17"/>
<ellipse fill="none" stroke="#36c465" cx="653.107" cy="-1375.9" rx="4.00001" ry="4.00001"/>
<polygon fill="#36c465" stroke="#36c465" points="124.238,-1001.94 133.741,-996.464 127.166,-997.883 130.093,-993.829 130.093,-993.829 130.093,-993.829 127.166,-997.883 126.446,-991.194 124.238,-1001.94 124.238,-1001.94"/>
</g>
<!-- User&#45;&gt;CourseUser -->
<g id="edge21" class="edge"><title>User&#45;&gt;CourseUser</title>
<path fill="none" stroke="#d2123c" d="M1083.83,-1233.29C1084.1,-1233.2 1084.36,-1233.1 1084.63,-1233 1288.06,-1158.01 1848.24,-1245.21 2059.63,-1197 2086.05,-1190.97 2113.38,-1181.3 2138.76,-1170.66"/>
<ellipse fill="none" stroke="#d2123c" cx="1079.89" cy="-1234.83" rx="4.00001" ry="4.00001"/>
<polygon fill="#d2123c" stroke="#d2123c" points="2138.82,-1170.63 2149.78,-1170.83 2143.42,-1168.66 2148.01,-1166.7 2148.01,-1166.7 2148.01,-1166.7 2143.42,-1168.66 2146.24,-1162.56 2138.82,-1170.63 2138.82,-1170.63"/>
</g>
<!-- AnsweredQuestion&#45;&gt;Choice -->
<g id="edge24" class="edge"><title>AnsweredQuestion&#45;&gt;Choice</title>
<path fill="none" stroke="#fad4cc" d="M1031.2,-306.632C1028.61,-295.855 1025.98,-284.892 1023.48,-274.44"/>
<polygon fill="#fad4cc" stroke="#fad4cc" points="1031.21,-306.683 1029.16,-317.456 1032.37,-311.545 1033.54,-316.407 1033.54,-316.407 1033.54,-316.407 1032.37,-311.545 1037.92,-315.358 1031.21,-306.683 1031.21,-306.683"/>
<polygon fill="#fad4cc" stroke="#fad4cc" points="1023.45,-274.321 1025.49,-263.547 1022.28,-269.459 1021.12,-264.597 1021.12,-264.597 1021.12,-264.597 1022.28,-269.459 1016.74,-265.646 1023.45,-274.321 1023.45,-274.321"/>
</g>
<!-- Question&#45;&gt;Choice -->
<g id="edge26" class="edge"><title>Question&#45;&gt;Choice</title>
<path fill="none" stroke="#10aee6" d="M793.461,-496.326C805.496,-418.682 823.422,-332.237 846.626,-301 855.089,-289.608 865.471,-279.509 876.855,-270.597"/>
<ellipse fill="none" stroke="#10aee6" cx="792.847" cy="-500.338" rx="4.00001" ry="4.00001"/>
<polygon fill="#10aee6" stroke="#10aee6" points="876.866,-270.589 887.574,-268.224 880.876,-267.602 884.886,-264.615 884.886,-264.615 884.886,-264.615 880.876,-267.602 882.198,-261.006 876.866,-270.589 876.866,-270.589"/>
</g>
<!-- Question&#45;&gt;AnsweredQuestion -->
<g id="edge27" class="edge"><title>Question&#45;&gt;AnsweredQuestion</title>
<path fill="none" stroke="#f2b790" d="M926.974,-498.976C941.685,-485.366 956.173,-471.961 969.749,-459.401"/>
<ellipse fill="none" stroke="#f2b790" cx="923.986" cy="-501.74" rx="4.00002" ry="4.00002"/>
<polygon fill="#f2b790" stroke="#f2b790" points="969.853,-459.305 980.25,-455.817 973.523,-455.909 977.194,-452.514 977.194,-452.514 977.194,-452.514 973.523,-455.909 974.138,-449.21 969.853,-459.305 969.853,-459.305"/>
</g>
<!-- Question&#45;&gt;Question -->
<g id="edge29" class="edge"><title>Question&#45;&gt;Question</title>
<path fill="none" stroke="#f28a00" d="M942.477,-669.304C949.836,-661.825 954.126,-652.057 954.126,-640 954.126,-628.888 950.482,-619.721 944.151,-612.498"/>
<ellipse fill="none" stroke="#f28a00" cx="939.32" cy="-671.986" rx="4.00002" ry="4.00002"/>
<polygon fill="#f28a00" stroke="#f28a00" points="943.713,-612.104 939.278,-602.075 939.992,-608.764 936.272,-605.424 936.272,-605.424 936.272,-605.424 939.992,-608.764 933.265,-608.772 943.713,-612.104 943.713,-612.104"/>
</g>
<!-- Question&#45;&gt;Answer -->
<g id="edge25" class="edge"><title>Question&#45;&gt;Answer</title>
<path fill="none" stroke="#1d3fb7" d="M750.943,-496.27C741.065,-387.449 748.779,-242.362 838.626,-158 877.927,-121.099 1009.99,-94.3337 1111.74,-78.5834"/>
<ellipse fill="none" stroke="#1d3fb7" cx="751.336" cy="-500.388" rx="4" ry="4"/>
<polygon fill="#1d3fb7" stroke="#1d3fb7" points="1111.91,-78.557 1122.47,-81.495 1116.85,-77.8018 1121.79,-77.0466 1121.79,-77.0466 1121.79,-77.0466 1116.85,-77.8018 1121.11,-72.5983 1111.91,-78.557 1111.91,-78.557"/>
</g>
<!-- Question&#45;&gt;SimulatorAnsweredQuestion -->
<g id="edge28" class="edge"><title>Question&#45;&gt;SimulatorAnsweredQuestion</title>
<path fill="none" stroke="#141384" d="M607.212,-559.349C544.232,-529.563 472.698,-495.731 409.58,-465.879"/>
<ellipse fill="none" stroke="#141384" cx="611.193" cy="-561.231" rx="4.00002" ry="4.00002"/>
<polygon fill="#141384" stroke="#141384" points="409.37,-465.78 402.254,-457.437 404.851,-463.642 400.331,-461.505 400.331,-461.505 400.331,-461.505 404.851,-463.642 398.407,-465.573 409.37,-465.78 409.37,-465.78"/>
</g>
<!-- LiveClass -->
<g id="node12" class="node"><title>LiveClass</title>
<path fill="none" stroke="black" d="M2784.13,-1616.5C2784.13,-1616.5 3081.13,-1616.5 3081.13,-1616.5 3087.13,-1616.5 3093.13,-1622.5 3093.13,-1628.5 3093.13,-1628.5 3093.13,-1800.5 3093.13,-1800.5 3093.13,-1806.5 3087.13,-1812.5 3081.13,-1812.5 3081.13,-1812.5 2784.13,-1812.5 2784.13,-1812.5 2778.13,-1812.5 2772.13,-1806.5 2772.13,-1800.5 2772.13,-1800.5 2772.13,-1628.5 2772.13,-1628.5 2772.13,-1622.5 2778.13,-1616.5 2784.13,-1616.5"/>
<text text-anchor="middle" x="2932.63" y="-1797.3" font-family="Times,serif" font-size="14.00">LiveClass</text>
<polyline fill="none" stroke="black" points="2772.13,-1789.5 3093.13,-1789.5 "/>
<text text-anchor="start" x="2780.13" y="-1774.3" font-family="Times,serif" font-size="14.00">id :integer</text>
<text text-anchor="start" x="2780.13" y="-1759.3" font-family="Times,serif" font-size="14.00">subject :character varying</text>
<text text-anchor="start" x="2780.13" y="-1744.3" font-family="Times,serif" font-size="14.00">professor :character varying</text>
<text text-anchor="start" x="2780.13" y="-1729.3" font-family="Times,serif" font-size="14.00">url :character varying</text>
<text text-anchor="start" x="2780.13" y="-1714.3" font-family="Times,serif" font-size="14.00">online_now :boolean</text>
<text text-anchor="start" x="2780.13" y="-1699.3" font-family="Times,serif" font-size="14.00">created_at :timestamp without time zone</text>
<text text-anchor="start" x="2780.13" y="-1684.3" font-family="Times,serif" font-size="14.00">updated_at :timestamp without time zone</text>
<text text-anchor="start" x="2780.13" y="-1669.3" font-family="Times,serif" font-size="14.00">time :timestamp without time zone</text>
<text text-anchor="start" x="2780.13" y="-1654.3" font-family="Times,serif" font-size="14.00">explanation :text</text>
<text text-anchor="start" x="2780.13" y="-1639.3" font-family="Times,serif" font-size="14.00">Urlyoutube :character varying</text>
<text text-anchor="start" x="2780.13" y="-1624.3" font-family="Times,serif" font-size="14.00">course_id :integer</text>
</g>
<!-- Career -->
<g id="node13" class="node"><title>Career</title>
<path fill="none" stroke="black" d="M3292.13,-1316C3292.13,-1316 3589.13,-1316 3589.13,-1316 3595.13,-1316 3601.13,-1322 3601.13,-1328 3601.13,-1328 3601.13,-1485 3601.13,-1485 3601.13,-1491 3595.13,-1497 3589.13,-1497 3589.13,-1497 3292.13,-1497 3292.13,-1497 3286.13,-1497 3280.13,-1491 3280.13,-1485 3280.13,-1485 3280.13,-1328 3280.13,-1328 3280.13,-1322 3286.13,-1316 3292.13,-1316"/>
<text text-anchor="middle" x="3440.63" y="-1481.8" font-family="Times,serif" font-size="14.00">Career</text>
<polyline fill="none" stroke="black" points="3280.13,-1474 3601.13,-1474 "/>
<text text-anchor="start" x="3288.13" y="-1458.8" font-family="Times,serif" font-size="14.00">id :integer</text>
<text text-anchor="start" x="3288.13" y="-1443.8" font-family="Times,serif" font-size="14.00">name :character varying</text>
<text text-anchor="start" x="3288.13" y="-1428.8" font-family="Times,serif" font-size="14.00">description :text</text>
<text text-anchor="start" x="3288.13" y="-1413.8" font-family="Times,serif" font-size="14.00">image :character varying</text>
<text text-anchor="start" x="3288.13" y="-1398.8" font-family="Times,serif" font-size="14.00">type :integer</text>
<text text-anchor="start" x="3288.13" y="-1383.8" font-family="Times,serif" font-size="14.00">faculty :character varying</text>
<text text-anchor="start" x="3288.13" y="-1368.8" font-family="Times,serif" font-size="14.00">school_id :integer</text>
<text text-anchor="start" x="3288.13" y="-1353.8" font-family="Times,serif" font-size="14.00">university_id :integer</text>
<text text-anchor="start" x="3288.13" y="-1338.8" font-family="Times,serif" font-size="14.00">created_at :timestamp without time zone</text>
<text text-anchor="start" x="3288.13" y="-1323.8" font-family="Times,serif" font-size="14.00">updated_at :timestamp without time zone</text>
</g>
<!-- Video -->
<g id="node14" class="node"><title>Video</title>
<path fill="none" stroke="black" d="M2462.13,-1346C2462.13,-1346 2759.13,-1346 2759.13,-1346 2765.13,-1346 2771.13,-1352 2771.13,-1358 2771.13,-1358 2771.13,-1455 2771.13,-1455 2771.13,-1461 2765.13,-1467 2759.13,-1467 2759.13,-1467 2462.13,-1467 2462.13,-1467 2456.13,-1467 2450.13,-1461 2450.13,-1455 2450.13,-1455 2450.13,-1358 2450.13,-1358 2450.13,-1352 2456.13,-1346 2462.13,-1346"/>
<text text-anchor="middle" x="2610.63" y="-1451.8" font-family="Times,serif" font-size="14.00">Video</text>
<polyline fill="none" stroke="black" points="2450.13,-1444 2771.13,-1444 "/>
<text text-anchor="start" x="2458.13" y="-1428.8" font-family="Times,serif" font-size="14.00">id :integer</text>
<text text-anchor="start" x="2458.13" y="-1413.8" font-family="Times,serif" font-size="14.00">name :character varying</text>
<text text-anchor="start" x="2458.13" y="-1398.8" font-family="Times,serif" font-size="14.00">description :text</text>
<text text-anchor="start" x="2458.13" y="-1383.8" font-family="Times,serif" font-size="14.00">url :character varying</text>
<text text-anchor="start" x="2458.13" y="-1368.8" font-family="Times,serif" font-size="14.00">created_at :timestamp without time zone</text>
<text text-anchor="start" x="2458.13" y="-1353.8" font-family="Times,serif" font-size="14.00">updated_at :timestamp without time zone</text>
</g>
<!-- Video&#45;&gt;Resource -->
<g id="edge30" class="edge"><title>Video&#45;&gt;Resource</title>
<path fill="none" stroke="#51f2c9" d="M2564.11,-1339.21C2533.62,-1301.32 2490.29,-1256.74 2440.63,-1233 2294.75,-1163.27 2235.03,-1237.99 2078.63,-1197 2072.12,-1195.3 2065.55,-1193.39 2058.97,-1191.33"/>
<ellipse fill="none" stroke="#51f2c9" cx="2566.78" cy="-1342.58" rx="4.00002" ry="4.00002"/>
<ellipse fill="#51f2c9" stroke="#51f2c9" cx="2055.04" cy="-1190.07" rx="4.00001" ry="4.00001"/>
</g>
<!-- Point -->
<g id="node16" class="node"><title>Point</title>
<path fill="none" stroke="black" d="M3801.13,-1323.5C3801.13,-1323.5 4098.13,-1323.5 4098.13,-1323.5 4104.13,-1323.5 4110.13,-1329.5 4110.13,-1335.5 4110.13,-1335.5 4110.13,-1477.5 4110.13,-1477.5 4110.13,-1483.5 4104.13,-1489.5 4098.13,-1489.5 4098.13,-1489.5 3801.13,-1489.5 3801.13,-1489.5 3795.13,-1489.5 3789.13,-1483.5 3789.13,-1477.5 3789.13,-1477.5 3789.13,-1335.5 3789.13,-1335.5 3789.13,-1329.5 3795.13,-1323.5 3801.13,-1323.5"/>
<text text-anchor="middle" x="3949.63" y="-1474.3" font-family="Times,serif" font-size="14.00">Point</text>
<polyline fill="none" stroke="black" points="3789.13,-1466.5 4110.13,-1466.5 "/>
<text text-anchor="start" x="3797.13" y="-1451.3" font-family="Times,serif" font-size="14.00">id :integer</text>
<text text-anchor="start" x="3797.13" y="-1436.3" font-family="Times,serif" font-size="14.00">owner_id :integer</text>
<text text-anchor="start" x="3797.13" y="-1421.3" font-family="Times,serif" font-size="14.00">owner_type :character varying</text>
<text text-anchor="start" x="3797.13" y="-1406.3" font-family="Times,serif" font-size="14.00">points :integer</text>
<text text-anchor="start" x="3797.13" y="-1391.3" font-family="Times,serif" font-size="14.00">point_action_id :integer</text>
<text text-anchor="start" x="3797.13" y="-1376.3" font-family="Times,serif" font-size="14.00">recipient_id :integer</text>
<text text-anchor="start" x="3797.13" y="-1361.3" font-family="Times,serif" font-size="14.00">recipient_type :character varying</text>
<text text-anchor="start" x="3797.13" y="-1346.3" font-family="Times,serif" font-size="14.00">created_at :timestamp without time zone</text>
<text text-anchor="start" x="3797.13" y="-1331.3" font-family="Times,serif" font-size="14.00">updated_at :timestamp without time zone</text>
</g>
<!-- Test&#45;&gt;Question -->
<g id="edge31" class="edge"><title>Test&#45;&gt;Question</title>
<path fill="none" stroke="#cef2cd" d="M2490.46,-1024.4C2481.53,-1014.9 2473.41,-1004.75 2466.63,-994 2422.47,-924.044 2489.19,-867.255 2427.63,-812 2413.9,-799.68 1365.75,-697.717 946.325,-657.357"/>
<ellipse fill="none" stroke="#cef2cd" cx="2493.32" cy="-1027.36" rx="4.00002" ry="4.00002"/>
<polygon fill="#cef2cd" stroke="#cef2cd" points="946.184,-657.343 936.661,-651.906 941.207,-656.864 936.23,-656.386 936.23,-656.386 936.23,-656.386 941.207,-656.864 935.799,-660.865 946.184,-657.343 946.184,-657.343"/>
</g>
<!-- Test&#45;&gt;Answer -->
<g id="edge32" class="edge"><title>Test&#45;&gt;Answer</title>
<path fill="none" stroke="#64d364" d="M2782.31,-1024.59C2791.23,-1015.23 2799.17,-1005.04 2805.63,-994 2884.91,-858.327 2825.63,-798.14 2825.63,-641 2825.63,-641 2825.63,-641 2825.63,-383.5 2825.63,-234.809 1741.67,-112.298 1365.43,-74.2536"/>
<ellipse fill="none" stroke="#64d364" cx="2779.45" cy="-1027.47" rx="4.00002" ry="4.00002"/>
<polygon fill="#64d364" stroke="#64d364" points="1365.27,-74.2374 1355.77,-68.757 1360.3,-73.7358 1355.32,-73.2343 1355.32,-73.2343 1355.32,-73.2343 1360.3,-73.7358 1354.87,-77.7116 1365.27,-74.2374 1365.27,-74.2374"/>
</g>
<!-- CourseUserTest -->
<g id="node23" class="node"><title>CourseUserTest</title>
<path fill="none" stroke="black" d="M2110.13,-842.5C2110.13,-842.5 2407.13,-842.5 2407.13,-842.5 2413.13,-842.5 2419.13,-848.5 2419.13,-854.5 2419.13,-854.5 2419.13,-951.5 2419.13,-951.5 2419.13,-957.5 2413.13,-963.5 2407.13,-963.5 2407.13,-963.5 2110.13,-963.5 2110.13,-963.5 2104.13,-963.5 2098.13,-957.5 2098.13,-951.5 2098.13,-951.5 2098.13,-854.5 2098.13,-854.5 2098.13,-848.5 2104.13,-842.5 2110.13,-842.5"/>
<text text-anchor="middle" x="2258.63" y="-948.3" font-family="Times,serif" font-size="14.00">CourseUserTest</text>
<polyline fill="none" stroke="black" points="2098.13,-940.5 2419.13,-940.5 "/>
<text text-anchor="start" x="2106.13" y="-925.3" font-family="Times,serif" font-size="14.00">id :integer</text>
<text text-anchor="start" x="2106.13" y="-910.3" font-family="Times,serif" font-size="14.00">course_user_id :integer</text>
<text text-anchor="start" x="2106.13" y="-895.3" font-family="Times,serif" font-size="14.00">test_id :integer</text>
<text text-anchor="start" x="2106.13" y="-880.3" font-family="Times,serif" font-size="14.00">completed :boolean</text>
<text text-anchor="start" x="2106.13" y="-865.3" font-family="Times,serif" font-size="14.00">created_at :timestamp without time zone</text>
<text text-anchor="start" x="2106.13" y="-850.3" font-family="Times,serif" font-size="14.00">updated_at :timestamp without time zone</text>
</g>
<!-- Test&#45;&gt;CourseUserTest -->
<g id="edge33" class="edge"><title>Test&#45;&gt;CourseUserTest</title>
<path fill="none" stroke="#68dd05" d="M2470.79,-1026.2C2437.41,-1006.97 2402.57,-986.905 2370.99,-968.72"/>
<ellipse fill="none" stroke="#68dd05" cx="2474.61" cy="-1028.4" rx="4.00002" ry="4.00002"/>
<polygon fill="#68dd05" stroke="#68dd05" points="2370.85,-968.634 2364.43,-959.744 2366.51,-966.139 2362.18,-963.643 2362.18,-963.643 2362.18,-963.643 2366.51,-966.139 2359.93,-967.543 2370.85,-968.634 2370.85,-968.634"/>
</g>
<!-- Blog -->
<g id="node18" class="node"><title>Blog</title>
<path fill="none" stroke="black" d="M1784.13,-1353.5C1784.13,-1353.5 2081.13,-1353.5 2081.13,-1353.5 2087.13,-1353.5 2093.13,-1359.5 2093.13,-1365.5 2093.13,-1365.5 2093.13,-1447.5 2093.13,-1447.5 2093.13,-1453.5 2087.13,-1459.5 2081.13,-1459.5 2081.13,-1459.5 1784.13,-1459.5 1784.13,-1459.5 1778.13,-1459.5 1772.13,-1453.5 1772.13,-1447.5 1772.13,-1447.5 1772.13,-1365.5 1772.13,-1365.5 1772.13,-1359.5 1778.13,-1353.5 1784.13,-1353.5"/>
<text text-anchor="middle" x="1932.63" y="-1444.3" font-family="Times,serif" font-size="14.00">Blog</text>
<polyline fill="none" stroke="black" points="1772.13,-1436.5 2093.13,-1436.5 "/>
<text text-anchor="start" x="1780.13" y="-1421.3" font-family="Times,serif" font-size="14.00">id :integer</text>
<text text-anchor="start" x="1780.13" y="-1406.3" font-family="Times,serif" font-size="14.00">title :character varying</text>
<text text-anchor="start" x="1780.13" y="-1391.3" font-family="Times,serif" font-size="14.00">content :text</text>
<text text-anchor="start" x="1780.13" y="-1376.3" font-family="Times,serif" font-size="14.00">created_at :timestamp without time zone</text>
<text text-anchor="start" x="1780.13" y="-1361.3" font-family="Times,serif" font-size="14.00">updated_at :timestamp without time zone</text>
</g>
<!-- Blog&#45;&gt;Resource -->
<g id="edge34" class="edge"><title>Blog&#45;&gt;Resource</title>
<path fill="none" stroke="#786808" d="M1923.97,-1345.5C1917.78,-1302.62 1909.37,-1244.39 1902.55,-1197.13"/>
<ellipse fill="none" stroke="#786808" cx="1924.55" cy="-1349.52" rx="4.00001" ry="4.00001"/>
<ellipse fill="#786808" stroke="#786808" cx="1901.96" cy="-1193" rx="4.00001" ry="4.00001"/>
</g>
<!-- School -->
<g id="node19" class="node"><title>School</title>
<path fill="none" stroke="black" d="M3123.13,-1654C3123.13,-1654 3420.13,-1654 3420.13,-1654 3426.13,-1654 3432.13,-1660 3432.13,-1666 3432.13,-1666 3432.13,-1763 3432.13,-1763 3432.13,-1769 3426.13,-1775 3420.13,-1775 3420.13,-1775 3123.13,-1775 3123.13,-1775 3117.13,-1775 3111.13,-1769 3111.13,-1763 3111.13,-1763 3111.13,-1666 3111.13,-1666 3111.13,-1660 3117.13,-1654 3123.13,-1654"/>
<text text-anchor="middle" x="3271.63" y="-1759.8" font-family="Times,serif" font-size="14.00">School</text>
<polyline fill="none" stroke="black" points="3111.13,-1752 3432.13,-1752 "/>
<text text-anchor="start" x="3119.13" y="-1736.8" font-family="Times,serif" font-size="14.00">id :integer</text>
<text text-anchor="start" x="3119.13" y="-1721.8" font-family="Times,serif" font-size="14.00">name :character varying</text>
<text text-anchor="start" x="3119.13" y="-1706.8" font-family="Times,serif" font-size="14.00">description :text</text>
<text text-anchor="start" x="3119.13" y="-1691.8" font-family="Times,serif" font-size="14.00">image :character varying</text>
<text text-anchor="start" x="3119.13" y="-1676.8" font-family="Times,serif" font-size="14.00">created_at :timestamp without time zone</text>
<text text-anchor="start" x="3119.13" y="-1661.8" font-family="Times,serif" font-size="14.00">updated_at :timestamp without time zone</text>
</g>
<!-- School&#45;&gt;Career -->
<g id="edge35" class="edge"><title>School&#45;&gt;Career</title>
<path fill="none" stroke="#330ab5" d="M3308.58,-1646.59C3331.31,-1605.44 3360.84,-1551.96 3386.21,-1506.03"/>
<ellipse fill="none" stroke="#330ab5" cx="3306.55" cy="-1650.27" rx="4.00002" ry="4.00002"/>
<polygon fill="#330ab5" stroke="#330ab5" points="3386.23,-1506 3395,-1499.42 3388.65,-1501.62 3391.06,-1497.24 3391.06,-1497.24 3391.06,-1497.24 3388.65,-1501.62 3387.12,-1495.07 3386.23,-1506 3386.23,-1506"/>
</g>
<!-- Student -->
<g id="node20" class="node"><title>Student</title>
<polygon fill="none" stroke="black" stroke-dasharray="1,5" points="4202.63,-1732.5 4128.63,-1732.5 4128.63,-1696.5 4202.63,-1696.5 4202.63,-1732.5"/>
<text text-anchor="middle" x="4165.63" y="-1710.8" font-family="Times,serif" font-size="14.00">Student</text>
</g>
<!-- Simulator&#45;&gt;Question -->
<g id="edge37" class="edge"><title>Simulator&#45;&gt;Question</title>
<path fill="none" stroke="#ecb0da" d="M426.02,-811.237C484.425,-782.798 548.545,-751.575 605.747,-723.721"/>
<polygon fill="#ecb0da" stroke="#ecb0da" points="425.981,-811.256 415.02,-811.589 421.485,-813.445 416.99,-815.634 416.99,-815.634 416.99,-815.634 421.485,-813.445 418.96,-819.68 425.981,-811.256 425.981,-811.256"/>
<polygon fill="#ecb0da" stroke="#ecb0da" points="605.875,-723.659 616.836,-723.327 610.37,-721.47 614.866,-719.281 614.866,-719.281 614.866,-719.281 610.37,-721.47 612.896,-715.235 605.875,-723.659 605.875,-723.659"/>
</g>
<!-- Simulator&#45;&gt;SimulatorAnsweredQuestion -->
<g id="edge36" class="edge"><title>Simulator&#45;&gt;SimulatorAnsweredQuestion</title>
<path fill="none" stroke="#b300ae" d="M239.626,-804.241C239.626,-710.432 239.626,-569.814 239.626,-477.856"/>
<ellipse fill="none" stroke="#b300ae" cx="239.626" cy="-808.328" rx="4" ry="4"/>
<polygon fill="#b300ae" stroke="#b300ae" points="239.626,-477.725 244.126,-467.724 239.626,-472.725 239.626,-467.725 239.626,-467.725 239.626,-467.725 239.626,-472.725 235.126,-467.725 239.626,-477.725 239.626,-477.725"/>
</g>
<!-- PointAction -->
<g id="node25" class="node"><title>PointAction</title>
<path fill="none" stroke="black" d="M3801.13,-1654C3801.13,-1654 4098.13,-1654 4098.13,-1654 4104.13,-1654 4110.13,-1660 4110.13,-1666 4110.13,-1666 4110.13,-1763 4110.13,-1763 4110.13,-1769 4104.13,-1775 4098.13,-1775 4098.13,-1775 3801.13,-1775 3801.13,-1775 3795.13,-1775 3789.13,-1769 3789.13,-1763 3789.13,-1763 3789.13,-1666 3789.13,-1666 3789.13,-1660 3795.13,-1654 3801.13,-1654"/>
<text text-anchor="middle" x="3949.63" y="-1759.8" font-family="Times,serif" font-size="14.00">PointAction</text>
<polyline fill="none" stroke="black" points="3789.13,-1752 4110.13,-1752 "/>
<text text-anchor="start" x="3797.13" y="-1736.8" font-family="Times,serif" font-size="14.00">id :integer</text>
<text text-anchor="start" x="3797.13" y="-1721.8" font-family="Times,serif" font-size="14.00">action :character varying</text>
<text text-anchor="start" x="3797.13" y="-1706.8" font-family="Times,serif" font-size="14.00">description :character varying</text>
<text text-anchor="start" x="3797.13" y="-1691.8" font-family="Times,serif" font-size="14.00">points_alloted :integer</text>
<text text-anchor="start" x="3797.13" y="-1676.8" font-family="Times,serif" font-size="14.00">created_at :timestamp without time zone</text>
<text text-anchor="start" x="3797.13" y="-1661.8" font-family="Times,serif" font-size="14.00">updated_at :timestamp without time zone</text>
</g>
<!-- PointAction&#45;&gt;Point -->
<g id="edge38" class="edge"><title>PointAction&#45;&gt;Point</title>
<path fill="none" stroke="#024680" d="M3949.63,-1645.65C3949.63,-1602.75 3949.63,-1546.74 3949.63,-1499.82"/>
<ellipse fill="none" stroke="#024680" cx="3949.63" cy="-1649.77" rx="4" ry="4"/>
<polygon fill="#024680" stroke="#024680" points="3949.63,-1499.65 3954.13,-1489.65 3949.63,-1494.65 3949.63,-1489.65 3949.63,-1489.65 3949.63,-1489.65 3949.63,-1494.65 3945.13,-1489.65 3949.63,-1499.65 3949.63,-1499.65"/>
</g>
<!-- ResourceProgress -->
<g id="node26" class="node"><title>ResourceProgress</title>
<path fill="none" stroke="black" d="M1732.13,-835C1732.13,-835 2029.13,-835 2029.13,-835 2035.13,-835 2041.13,-841 2041.13,-847 2041.13,-847 2041.13,-959 2041.13,-959 2041.13,-965 2035.13,-971 2029.13,-971 2029.13,-971 1732.13,-971 1732.13,-971 1726.13,-971 1720.13,-965 1720.13,-959 1720.13,-959 1720.13,-847 1720.13,-847 1720.13,-841 1726.13,-835 1732.13,-835"/>
<text text-anchor="middle" x="1880.63" y="-955.8" font-family="Times,serif" font-size="14.00">ResourceProgress</text>
<polyline fill="none" stroke="black" points="1720.13,-948 2041.13,-948 "/>
<text text-anchor="start" x="1728.13" y="-932.8" font-family="Times,serif" font-size="14.00">id :integer</text>
<text text-anchor="start" x="1728.13" y="-917.8" font-family="Times,serif" font-size="14.00">course_user_id :integer</text>
<text text-anchor="start" x="1728.13" y="-902.8" font-family="Times,serif" font-size="14.00">section_id :integer</text>
<text text-anchor="start" x="1728.13" y="-887.8" font-family="Times,serif" font-size="14.00">resource_id :integer</text>
<text text-anchor="start" x="1728.13" y="-872.8" font-family="Times,serif" font-size="14.00">completed :boolean</text>
<text text-anchor="start" x="1728.13" y="-857.8" font-family="Times,serif" font-size="14.00">created_at :timestamp without time zone</text>
<text text-anchor="start" x="1728.13" y="-842.8" font-family="Times,serif" font-size="14.00">updated_at :timestamp without time zone</text>
</g>
<!-- CourseUser&#45;&gt;Plan -->
<g id="edge42" class="edge"><title>CourseUser&#45;&gt;Plan</title>
<path fill="none" stroke="#ae3920" d="M2354.55,-1055.58C2395.96,-1033.33 2444.17,-1007.42 2488.9,-983.385"/>
<polygon fill="#ae3920" stroke="#ae3920" points="2354.34,-1055.69 2343.4,-1056.46 2349.94,-1058.06 2345.53,-1060.42 2345.53,-1060.42 2345.53,-1060.42 2349.94,-1058.06 2347.66,-1064.39 2354.34,-1055.69 2354.34,-1055.69"/>
<polygon fill="#ae3920" stroke="#ae3920" points="2488.98,-983.339 2499.92,-982.569 2493.39,-980.972 2497.79,-978.605 2497.79,-978.605 2497.79,-978.605 2493.39,-980.972 2495.66,-974.641 2488.98,-983.339 2488.98,-983.339"/>
</g>
<!-- CourseUser&#45;&gt;CourseUserTest -->
<g id="edge40" class="edge"><title>CourseUser&#45;&gt;CourseUserTest</title>
<path fill="none" stroke="#38d2f4" d="M2251.51,-1052.32C2252.69,-1027.79 2254.06,-999.276 2255.28,-973.837"/>
<ellipse fill="none" stroke="#38d2f4" cx="2251.32" cy="-1056.43" rx="4" ry="4"/>
<polygon fill="#38d2f4" stroke="#38d2f4" points="2255.29,-973.505 2260.27,-963.732 2255.53,-968.511 2255.77,-963.517 2255.77,-963.517 2255.77,-963.517 2255.53,-968.511 2251.28,-963.301 2255.29,-973.505 2255.29,-973.505"/>
</g>
<!-- CourseUser&#45;&gt;ResourceProgress -->
<g id="edge39" class="edge"><title>CourseUser&#45;&gt;ResourceProgress</title>
<path fill="none" stroke="#33cef9" d="M2149.65,-1056.42C2106.11,-1031.75 2054.42,-1002.47 2008.05,-976.195"/>
<ellipse fill="none" stroke="#33cef9" cx="2153.23" cy="-1058.45" rx="4.00002" ry="4.00002"/>
<polygon fill="#33cef9" stroke="#33cef9" points="2007.85,-976.084 2001.37,-967.239 2003.5,-973.619 1999.15,-971.154 1999.15,-971.154 1999.15,-971.154 2003.5,-973.619 1996.93,-975.07 2007.85,-976.084 2007.85,-976.084"/>
</g>
<!-- CourseUser&#45;&gt;CourseUserPlan -->
<g id="edge41" class="edge"><title>CourseUser&#45;&gt;CourseUserPlan</title>
<path fill="none" stroke="#84e305" d="M2141.95,-1055.4C2120.49,-1038.63 2100.8,-1018.16 2088.63,-994 2052.23,-921.76 2049.99,-883.064 2088.63,-812 2110.69,-771.412 2147.01,-738.976 2185.74,-713.735"/>
<ellipse fill="none" stroke="#84e305" cx="2145.17" cy="-1057.84" rx="4.00002" ry="4.00002"/>
<polygon fill="#84e305" stroke="#84e305" points="2186.13,-713.492 2196.98,-711.93 2190.35,-710.812 2194.57,-708.131 2194.57,-708.131 2194.57,-708.131 2190.35,-710.812 2192.16,-704.332 2186.13,-713.492 2186.13,-713.492"/>
</g>
<!-- Section&#45;&gt;ResourceProgress -->
<g id="edge44" class="edge"><title>Section&#45;&gt;ResourceProgress</title>
<path fill="none" stroke="#5bb915" d="M1603.07,-1344.92C1617.64,-1266.38 1651.48,-1127.9 1720.63,-1030 1734.1,-1010.92 1751.28,-993.298 1769.35,-977.651"/>
<ellipse fill="none" stroke="#5bb915" cx="1602.27" cy="-1349.32" rx="4.00001" ry="4.00001"/>
<polygon fill="#5bb915" stroke="#5bb915" points="1769.5,-977.522 1780.04,-974.504 1773.32,-974.294 1777.14,-971.067 1777.14,-971.067 1777.14,-971.067 1773.32,-974.294 1774.23,-967.63 1769.5,-977.522 1769.5,-977.522"/>
</g>
<!-- Section&#45;&gt;Resource -->
<g id="edge43" class="edge"><title>Section&#45;&gt;Resource</title>
<path fill="none" stroke="#e26d24" d="M1649.2,-1347.38C1681.84,-1313.59 1724.12,-1270.43 1762.63,-1233 1774.97,-1221 1788.14,-1208.49 1801.17,-1196.28"/>
<ellipse fill="none" stroke="#e26d24" cx="1646.41" cy="-1350.26" rx="4.00002" ry="4.00002"/>
<polygon fill="#e26d24" stroke="#e26d24" points="1801.51,-1195.96 1811.88,-1192.42 1805.16,-1192.55 1808.81,-1189.14 1808.81,-1189.14 1808.81,-1189.14 1805.16,-1192.55 1805.74,-1185.85 1801.51,-1195.96 1801.51,-1195.96"/>
</g>
<!-- SimulatorType -->
<g id="node30" class="node"><title>SimulatorType</title>
<path fill="none" stroke="black" d="M130.126,-1030.5C130.126,-1030.5 427.126,-1030.5 427.126,-1030.5 433.126,-1030.5 439.126,-1036.5 439.126,-1042.5 439.126,-1042.5 439.126,-1184.5 439.126,-1184.5 439.126,-1190.5 433.126,-1196.5 427.126,-1196.5 427.126,-1196.5 130.126,-1196.5 130.126,-1196.5 124.126,-1196.5 118.126,-1190.5 118.126,-1184.5 118.126,-1184.5 118.126,-1042.5 118.126,-1042.5 118.126,-1036.5 124.126,-1030.5 130.126,-1030.5"/>
<text text-anchor="middle" x="278.626" y="-1181.3" font-family="Times,serif" font-size="14.00">SimulatorType</text>
<polyline fill="none" stroke="black" points="118.126,-1173.5 439.126,-1173.5 "/>
<text text-anchor="start" x="126.126" y="-1158.3" font-family="Times,serif" font-size="14.00">id :integer</text>
<text text-anchor="start" x="126.126" y="-1143.3" font-family="Times,serif" font-size="14.00">name :character varying</text>
<text text-anchor="start" x="126.126" y="-1128.3" font-family="Times,serif" font-size="14.00">total_questions :integer</text>
<text text-anchor="start" x="126.126" y="-1113.3" font-family="Times,serif" font-size="14.00">time_duration :time without time zone</text>
<text text-anchor="start" x="126.126" y="-1098.3" font-family="Times,serif" font-size="14.00">created_at :timestamp without time zone</text>
<text text-anchor="start" x="126.126" y="-1083.3" font-family="Times,serif" font-size="14.00">updated_at :timestamp without time zone</text>
<text text-anchor="start" x="126.126" y="-1068.3" font-family="Times,serif" font-size="14.00">description :character varying</text>
<text text-anchor="start" x="126.126" y="-1053.3" font-family="Times,serif" font-size="14.00">limit :integer</text>
<text text-anchor="start" x="126.126" y="-1038.3" font-family="Times,serif" font-size="14.00">points :integer</text>
</g>
<!-- SimulatorType&#45;&gt;Simulator -->
<g id="edge45" class="edge"><title>SimulatorType&#45;&gt;Simulator</title>
<path fill="none" stroke="#84588a" d="M261.776,-1022.41C260.603,-1016.15 259.417,-1009.81 258.236,-1003.49"/>
<ellipse fill="none" stroke="#84588a" cx="262.533" cy="-1026.46" rx="4.00001" ry="4.00001"/>
<polygon fill="#84588a" stroke="#84588a" points="258.224,-1003.43 260.809,-992.771 257.305,-998.513 256.386,-993.598 256.386,-993.598 256.386,-993.598 257.305,-998.513 251.963,-994.426 258.224,-1003.43 258.224,-1003.43"/>
</g>
<!-- University -->
<g id="node31" class="node"><title>University</title>
<path fill="none" stroke="black" d="M3462.13,-1631.5C3462.13,-1631.5 3759.13,-1631.5 3759.13,-1631.5 3765.13,-1631.5 3771.13,-1637.5 3771.13,-1643.5 3771.13,-1643.5 3771.13,-1785.5 3771.13,-1785.5 3771.13,-1791.5 3765.13,-1797.5 3759.13,-1797.5 3759.13,-1797.5 3462.13,-1797.5 3462.13,-1797.5 3456.13,-1797.5 3450.13,-1791.5 3450.13,-1785.5 3450.13,-1785.5 3450.13,-1643.5 3450.13,-1643.5 3450.13,-1637.5 3456.13,-1631.5 3462.13,-1631.5"/>
<text text-anchor="middle" x="3610.63" y="-1782.3" font-family="Times,serif" font-size="14.00">University</text>
<polyline fill="none" stroke="black" points="3450.13,-1774.5 3771.13,-1774.5 "/>
<text text-anchor="start" x="3458.13" y="-1759.3" font-family="Times,serif" font-size="14.00">id :integer</text>
<text text-anchor="start" x="3458.13" y="-1744.3" font-family="Times,serif" font-size="14.00">name :character varying</text>
<text text-anchor="start" x="3458.13" y="-1729.3" font-family="Times,serif" font-size="14.00">province :character varying</text>
<text text-anchor="start" x="3458.13" y="-1714.3" font-family="Times,serif" font-size="14.00">city :character varying</text>
<text text-anchor="start" x="3458.13" y="-1699.3" font-family="Times,serif" font-size="14.00">website :character varying</text>
<text text-anchor="start" x="3458.13" y="-1684.3" font-family="Times,serif" font-size="14.00">type :integer</text>
<text text-anchor="start" x="3458.13" y="-1669.3" font-family="Times,serif" font-size="14.00">logo :character varying</text>
<text text-anchor="start" x="3458.13" y="-1654.3" font-family="Times,serif" font-size="14.00">created_at :timestamp without time zone</text>
<text text-anchor="start" x="3458.13" y="-1639.3" font-family="Times,serif" font-size="14.00">updated_at :timestamp without time zone</text>
</g>
<!-- University&#45;&gt;Career -->
<g id="edge46" class="edge"><title>University&#45;&gt;Career</title>
<path fill="none" stroke="#906609" d="M3560.97,-1624.13C3540.44,-1587.16 3516.55,-1544.17 3495.5,-1506.27"/>
<ellipse fill="none" stroke="#906609" cx="3563.13" cy="-1628" rx="4.00002" ry="4.00002"/>
<polygon fill="#906609" stroke="#906609" points="3495.35,-1506 3494.43,-1495.08 3492.92,-1501.63 3490.49,-1497.26 3490.49,-1497.26 3490.49,-1497.26 3492.92,-1501.63 3486.56,-1499.45 3495.35,-1506 3495.35,-1506"/>
</g>
<!-- Resource&#45;&gt;ResourceProgress -->
<g id="edge47" class="edge"><title>Resource&#45;&gt;ResourceProgress</title>
<path fill="none" stroke="#016eeb" d="M1886.65,-1029.59C1885.89,-1013.7 1885.09,-997.119 1884.34,-981.413"/>
<ellipse fill="none" stroke="#016eeb" cx="1886.85" cy="-1033.82" rx="4" ry="4"/>
<polygon fill="#016eeb" stroke="#016eeb" points="1884.33,-981.221 1888.35,-971.017 1884.09,-976.227 1883.85,-971.233 1883.85,-971.233 1883.85,-971.233 1884.09,-976.227 1879.36,-971.449 1884.33,-981.221 1884.33,-981.221"/>
</g>
<!-- Task -->
<g id="node33" class="node"><title>Task</title>
<path fill="none" stroke="black" d="M1106.13,-1353.5C1106.13,-1353.5 1403.13,-1353.5 1403.13,-1353.5 1409.13,-1353.5 1415.13,-1359.5 1415.13,-1365.5 1415.13,-1365.5 1415.13,-1447.5 1415.13,-1447.5 1415.13,-1453.5 1409.13,-1459.5 1403.13,-1459.5 1403.13,-1459.5 1106.13,-1459.5 1106.13,-1459.5 1100.13,-1459.5 1094.13,-1453.5 1094.13,-1447.5 1094.13,-1447.5 1094.13,-1365.5 1094.13,-1365.5 1094.13,-1359.5 1100.13,-1353.5 1106.13,-1353.5"/>
<text text-anchor="middle" x="1254.63" y="-1444.3" font-family="Times,serif" font-size="14.00">Task</text>
<polyline fill="none" stroke="black" points="1094.13,-1436.5 1415.13,-1436.5 "/>
<text text-anchor="start" x="1102.13" y="-1421.3" font-family="Times,serif" font-size="14.00">id :integer</text>
<text text-anchor="start" x="1102.13" y="-1406.3" font-family="Times,serif" font-size="14.00">title :character varying</text>
<text text-anchor="start" x="1102.13" y="-1391.3" font-family="Times,serif" font-size="14.00">description :text</text>
<text text-anchor="start" x="1102.13" y="-1376.3" font-family="Times,serif" font-size="14.00">created_at :timestamp without time zone</text>
<text text-anchor="start" x="1102.13" y="-1361.3" font-family="Times,serif" font-size="14.00">updated_at :timestamp without time zone</text>
</g>
<!-- Task&#45;&gt;Question -->
<g id="edge50" class="edge"><title>Task&#45;&gt;Question</title>
<path fill="none" stroke="#f838f2" d="M1260.14,-1345.04C1267.41,-1228.93 1267.04,-972.092 1142.63,-812 1093.92,-749.321 1016.76,-708.665 945.742,-682.8"/>
<ellipse fill="none" stroke="#f838f2" cx="1259.87" cy="-1349.16" rx="4" ry="4"/>
<polygon fill="#f838f2" stroke="#f838f2" points="945.636,-682.762 937.727,-675.166 940.926,-681.083 936.216,-679.405 936.216,-679.405 936.216,-679.405 940.926,-681.083 934.706,-683.643 945.636,-682.762 945.636,-682.762"/>
</g>
<!-- Task&#45;&gt;Answer -->
<g id="edge49" class="edge"><title>Task&#45;&gt;Answer</title>
<path fill="none" stroke="#08c9fd" d="M1263.14,-1345.3C1275.67,-1251.3 1297.63,-1063.84 1297.63,-904 1297.63,-904 1297.63,-904 1297.63,-383.5 1297.63,-295.382 1275.92,-195.878 1258.84,-131.219"/>
<ellipse fill="none" stroke="#08c9fd" cx="1262.6" cy="-1349.32" rx="4.00001" ry="4.00001"/>
<polygon fill="#08c9fd" stroke="#08c9fd" points="1258.83,-131.203 1260.6,-120.38 1257.54,-126.373 1256.25,-121.544 1256.25,-121.544 1256.25,-121.544 1257.54,-126.373 1251.9,-122.707 1258.83,-131.203 1258.83,-131.203"/>
</g>
<!-- Task&#45;&gt;Resource -->
<g id="edge48" class="edge"><title>Task&#45;&gt;Resource</title>
<path fill="none" stroke="#588cf6" d="M1297.91,-1346.96C1328.89,-1309.08 1373.81,-1261.66 1423.63,-1233 1514.86,-1180.51 1629.23,-1150.99 1721.96,-1134.54"/>
<ellipse fill="none" stroke="#588cf6" cx="1295.19" cy="-1350.32" rx="4.00002" ry="4.00002"/>
<ellipse fill="#588cf6" stroke="#588cf6" cx="1726.07" cy="-1133.83" rx="4.00001" ry="4.00001"/>
</g>
</g>
</svg>
