<?xml version="1.0" encoding="UTF-8" standalone="no"?>
<!DOCTYPE svg PUBLIC "-//W3C//DTD SVG 1.1//EN"
 "http://www.w3.org/Graphics/SVG/1.1/DTD/svg11.dtd">
<!-- Generated by graphviz version 2.38.0 (20140413.2041)
 -->
<!-- Title: models_diagram Pages: 1 -->
<svg width="3545pt" height="1821pt"
 viewBox="0.00 0.00 3545.41 1821.00" xmlns="http://www.w3.org/2000/svg" xmlns:xlink="http://www.w3.org/1999/xlink">
<g id="graph0" class="graph" transform="scale(1 1) rotate(0) translate(4 1817)">
<title>models_diagram</title>
<polygon fill="none" stroke="none" points="-4,4 -4,-1817 3541.41,-1817 3541.41,4 -4,4"/>
<!-- _diagram_info -->
<g id="node1" class="node"><title>_diagram_info</title>
<text text-anchor="start" x="1385.41" y="-1739.1" font-family="Times,serif" font-size="13.00">Models diagram</text>
<text text-anchor="start" x="1385.41" y="-1725.1" font-family="Times,serif" font-size="13.00">Date: Jun 17 2016 &#45; 17:30</text>
<text text-anchor="start" x="1385.41" y="-1711.1" font-family="Times,serif" font-size="13.00">Migration version: 20160614025321</text>
<text text-anchor="start" x="1385.41" y="-1697.1" font-family="Times,serif" font-size="13.00">Generated by RailRoady 1.4.2</text>
<text text-anchor="start" x="1385.41" y="-1683.1" font-family="Times,serif" font-size="13.00">http://railroady.prestonlee.com</text>
</g>
<!-- Course -->
<g id="node2" class="node"><title>Course</title>
<path fill="none" stroke="black" d="M1641.91,-1661.5C1641.91,-1661.5 1938.91,-1661.5 1938.91,-1661.5 1944.91,-1661.5 1950.91,-1667.5 1950.91,-1673.5 1950.91,-1673.5 1950.91,-1755.5 1950.91,-1755.5 1950.91,-1761.5 1944.91,-1767.5 1938.91,-1767.5 1938.91,-1767.5 1641.91,-1767.5 1641.91,-1767.5 1635.91,-1767.5 1629.91,-1761.5 1629.91,-1755.5 1629.91,-1755.5 1629.91,-1673.5 1629.91,-1673.5 1629.91,-1667.5 1635.91,-1661.5 1641.91,-1661.5"/>
<text text-anchor="middle" x="1790.41" y="-1752.3" font-family="Times,serif" font-size="14.00">Course</text>
<polyline fill="none" stroke="black" points="1629.91,-1744.5 1950.91,-1744.5 "/>
<text text-anchor="start" x="1637.91" y="-1729.3" font-family="Times,serif" font-size="14.00">id :integer</text>
<text text-anchor="start" x="1637.91" y="-1714.3" font-family="Times,serif" font-size="14.00">name :character varying</text>
<text text-anchor="start" x="1637.91" y="-1699.3" font-family="Times,serif" font-size="14.00">description :character varying</text>
<text text-anchor="start" x="1637.91" y="-1684.3" font-family="Times,serif" font-size="14.00">created_at :timestamp without time zone</text>
<text text-anchor="start" x="1637.91" y="-1669.3" font-family="Times,serif" font-size="14.00">updated_at :timestamp without time zone</text>
</g>
<!-- Category -->
<g id="node5" class="node"><title>Category</title>
<path fill="none" stroke="black" d="M1444.91,-1045.5C1444.91,-1045.5 1741.91,-1045.5 1741.91,-1045.5 1747.91,-1045.5 1753.91,-1051.5 1753.91,-1057.5 1753.91,-1057.5 1753.91,-1169.5 1753.91,-1169.5 1753.91,-1175.5 1747.91,-1181.5 1741.91,-1181.5 1741.91,-1181.5 1444.91,-1181.5 1444.91,-1181.5 1438.91,-1181.5 1432.91,-1175.5 1432.91,-1169.5 1432.91,-1169.5 1432.91,-1057.5 1432.91,-1057.5 1432.91,-1051.5 1438.91,-1045.5 1444.91,-1045.5"/>
<text text-anchor="middle" x="1593.41" y="-1166.3" font-family="Times,serif" font-size="14.00">Category</text>
<polyline fill="none" stroke="black" points="1432.91,-1158.5 1753.91,-1158.5 "/>
<text text-anchor="start" x="1440.91" y="-1143.3" font-family="Times,serif" font-size="14.00">id :integer</text>
<text text-anchor="start" x="1440.91" y="-1128.3" font-family="Times,serif" font-size="14.00">name :character varying</text>
<text text-anchor="start" x="1440.91" y="-1113.3" font-family="Times,serif" font-size="14.00">user_id :integer</text>
<text text-anchor="start" x="1440.91" y="-1098.3" font-family="Times,serif" font-size="14.00">created_at :timestamp without time zone</text>
<text text-anchor="start" x="1440.91" y="-1083.3" font-family="Times,serif" font-size="14.00">updated_at :timestamp without time zone</text>
<text text-anchor="start" x="1440.91" y="-1068.3" font-family="Times,serif" font-size="14.00">sub_categories_count :integer</text>
<text text-anchor="start" x="1440.91" y="-1053.3" font-family="Times,serif" font-size="14.00">course_id :integer</text>
</g>
<!-- Course&#45;&gt;Category -->
<g id="edge1" class="edge"><title>Course&#45;&gt;Category</title>
<path fill="none" stroke="#cae4bd" d="M1811.14,-1653.57C1840.45,-1557.44 1882.32,-1366.11 1804.41,-1233 1799.42,-1224.48 1769.63,-1206.23 1733.93,-1186.55"/>
<ellipse fill="none" stroke="#cae4bd" cx="1809.88" cy="-1657.62" rx="4.00001" ry="4.00001"/>
<polygon fill="#cae4bd" stroke="#cae4bd" points="1733.51,-1186.32 1726.9,-1177.57 1729.13,-1183.92 1724.74,-1181.52 1724.74,-1181.52 1724.74,-1181.52 1729.13,-1183.92 1722.58,-1185.46 1733.51,-1186.32 1733.51,-1186.32"/>
</g>
<!-- User -->
<g id="node8" class="node"><title>User</title>
<path fill="none" stroke="black" d="M1961.91,-1233.5C1961.91,-1233.5 2356.91,-1233.5 2356.91,-1233.5 2362.91,-1233.5 2368.91,-1239.5 2368.91,-1245.5 2368.91,-1245.5 2368.91,-1567.5 2368.91,-1567.5 2368.91,-1573.5 2362.91,-1579.5 2356.91,-1579.5 2356.91,-1579.5 1961.91,-1579.5 1961.91,-1579.5 1955.91,-1579.5 1949.91,-1573.5 1949.91,-1567.5 1949.91,-1567.5 1949.91,-1245.5 1949.91,-1245.5 1949.91,-1239.5 1955.91,-1233.5 1961.91,-1233.5"/>
<text text-anchor="middle" x="2159.41" y="-1564.3" font-family="Times,serif" font-size="14.00">User</text>
<polyline fill="none" stroke="black" points="1949.91,-1556.5 2368.91,-1556.5 "/>
<text text-anchor="start" x="1957.91" y="-1541.3" font-family="Times,serif" font-size="14.00">id :integer</text>
<text text-anchor="start" x="1957.91" y="-1526.3" font-family="Times,serif" font-size="14.00">email :character varying</text>
<text text-anchor="start" x="1957.91" y="-1511.3" font-family="Times,serif" font-size="14.00">encrypted_password :character varying</text>
<text text-anchor="start" x="1957.91" y="-1496.3" font-family="Times,serif" font-size="14.00">reset_password_token :character varying</text>
<text text-anchor="start" x="1957.91" y="-1481.3" font-family="Times,serif" font-size="14.00">reset_password_sent_at :timestamp without time zone</text>
<text text-anchor="start" x="1957.91" y="-1466.3" font-family="Times,serif" font-size="14.00">remember_created_at :timestamp without time zone</text>
<text text-anchor="start" x="1957.91" y="-1451.3" font-family="Times,serif" font-size="14.00">sign_in_count :integer</text>
<text text-anchor="start" x="1957.91" y="-1436.3" font-family="Times,serif" font-size="14.00">current_sign_in_at :timestamp without time zone</text>
<text text-anchor="start" x="1957.91" y="-1421.3" font-family="Times,serif" font-size="14.00">last_sign_in_at :timestamp without time zone</text>
<text text-anchor="start" x="1957.91" y="-1406.3" font-family="Times,serif" font-size="14.00">current_sign_in_ip :character varying</text>
<text text-anchor="start" x="1957.91" y="-1391.3" font-family="Times,serif" font-size="14.00">last_sign_in_ip :character varying</text>
<text text-anchor="start" x="1957.91" y="-1376.3" font-family="Times,serif" font-size="14.00">created_at :timestamp without time zone</text>
<text text-anchor="start" x="1957.91" y="-1361.3" font-family="Times,serif" font-size="14.00">updated_at :timestamp without time zone</text>
<text text-anchor="start" x="1957.91" y="-1346.3" font-family="Times,serif" font-size="14.00">provider :character varying</text>
<text text-anchor="start" x="1957.91" y="-1331.3" font-family="Times,serif" font-size="14.00">uid :character varying</text>
<text text-anchor="start" x="1957.91" y="-1316.3" font-family="Times,serif" font-size="14.00">first_name :character varying</text>
<text text-anchor="start" x="1957.91" y="-1301.3" font-family="Times,serif" font-size="14.00">last_name :character varying</text>
<text text-anchor="start" x="1957.91" y="-1286.3" font-family="Times,serif" font-size="14.00">questions_count :integer</text>
<text text-anchor="start" x="1957.91" y="-1271.3" font-family="Times,serif" font-size="14.00">image :character varying</text>
<text text-anchor="start" x="1957.91" y="-1256.3" font-family="Times,serif" font-size="14.00">gender :boolean</text>
<text text-anchor="start" x="1957.91" y="-1241.3" font-family="Times,serif" font-size="14.00">role :integer</text>
</g>
<!-- Course&#45;&gt;User -->
<g id="edge4" class="edge"><title>Course&#45;&gt;User</title>
<path fill="none" stroke="#5b6588" d="M1861.44,-1654.6C1885.65,-1634.53 1914.11,-1610.92 1943.67,-1586.41"/>
<polygon fill="#5b6588" stroke="#5b6588" points="1861.13,-1654.86 1850.56,-1657.78 1857.28,-1658.05 1853.43,-1661.24 1853.43,-1661.24 1853.43,-1661.24 1857.28,-1658.05 1856.3,-1664.71 1861.13,-1654.86 1861.13,-1654.86"/>
<polygon fill="#5b6588" stroke="#5b6588" points="1943.93,-1586.2 1954.5,-1583.28 1947.77,-1583.01 1951.62,-1579.81 1951.62,-1579.81 1951.62,-1579.81 1947.77,-1583.01 1948.75,-1576.35 1943.93,-1586.2 1943.93,-1586.2"/>
</g>
<!-- Test -->
<g id="node16" class="node"><title>Test</title>
<path fill="none" stroke="black" d="M320.914,-1030.5C320.914,-1030.5 617.914,-1030.5 617.914,-1030.5 623.914,-1030.5 629.914,-1036.5 629.914,-1042.5 629.914,-1042.5 629.914,-1184.5 629.914,-1184.5 629.914,-1190.5 623.914,-1196.5 617.914,-1196.5 617.914,-1196.5 320.914,-1196.5 320.914,-1196.5 314.914,-1196.5 308.914,-1190.5 308.914,-1184.5 308.914,-1184.5 308.914,-1042.5 308.914,-1042.5 308.914,-1036.5 314.914,-1030.5 320.914,-1030.5"/>
<text text-anchor="middle" x="469.414" y="-1181.3" font-family="Times,serif" font-size="14.00">Test</text>
<polyline fill="none" stroke="black" points="308.914,-1173.5 629.914,-1173.5 "/>
<text text-anchor="start" x="316.914" y="-1158.3" font-family="Times,serif" font-size="14.00">id :integer</text>
<text text-anchor="start" x="316.914" y="-1143.3" font-family="Times,serif" font-size="14.00">title :character varying</text>
<text text-anchor="start" x="316.914" y="-1128.3" font-family="Times,serif" font-size="14.00">description :text</text>
<text text-anchor="start" x="316.914" y="-1113.3" font-family="Times,serif" font-size="14.00">time_limit :integer</text>
<text text-anchor="start" x="316.914" y="-1098.3" font-family="Times,serif" font-size="14.00">total_questions :integer</text>
<text text-anchor="start" x="316.914" y="-1083.3" font-family="Times,serif" font-size="14.00">created_at :timestamp without time zone</text>
<text text-anchor="start" x="316.914" y="-1068.3" font-family="Times,serif" font-size="14.00">updated_at :timestamp without time zone</text>
<text text-anchor="start" x="316.914" y="-1053.3" font-family="Times,serif" font-size="14.00">course_user_id :integer</text>
<text text-anchor="start" x="316.914" y="-1038.3" font-family="Times,serif" font-size="14.00">course_id :integer</text>
</g>
<!-- Course&#45;&gt;Test -->
<g id="edge5" class="edge"><title>Course&#45;&gt;Test</title>
<path fill="none" stroke="#9c2b7b" d="M1710.96,-1657.07C1683.56,-1640.64 1651.83,-1624.76 1620.41,-1616 1537.71,-1592.93 135.412,-1641.41 75.4139,-1580 -32.36,-1469.69 -16.6028,-1356.76 75.4139,-1233 103.301,-1195.49 205.641,-1165.36 299.024,-1144.87"/>
<ellipse fill="none" stroke="#9c2b7b" cx="1714.42" cy="-1659.17" rx="4.00002" ry="4.00002"/>
<polygon fill="#9c2b7b" stroke="#9c2b7b" points="299.127,-1144.85 309.853,-1147.13 304.014,-1143.79 308.901,-1142.73 308.901,-1142.73 308.901,-1142.73 304.014,-1143.79 307.948,-1138.34 299.127,-1144.85 299.127,-1144.85"/>
</g>
<!-- CourseUser -->
<g id="node26" class="node"><title>CourseUser</title>
<path fill="none" stroke="black" d="M1105.91,-1060.5C1105.91,-1060.5 1402.91,-1060.5 1402.91,-1060.5 1408.91,-1060.5 1414.91,-1066.5 1414.91,-1072.5 1414.91,-1072.5 1414.91,-1154.5 1414.91,-1154.5 1414.91,-1160.5 1408.91,-1166.5 1402.91,-1166.5 1402.91,-1166.5 1105.91,-1166.5 1105.91,-1166.5 1099.91,-1166.5 1093.91,-1160.5 1093.91,-1154.5 1093.91,-1154.5 1093.91,-1072.5 1093.91,-1072.5 1093.91,-1066.5 1099.91,-1060.5 1105.91,-1060.5"/>
<text text-anchor="middle" x="1254.41" y="-1151.3" font-family="Times,serif" font-size="14.00">CourseUser</text>
<polyline fill="none" stroke="black" points="1093.91,-1143.5 1414.91,-1143.5 "/>
<text text-anchor="start" x="1101.91" y="-1128.3" font-family="Times,serif" font-size="14.00">id :integer</text>
<text text-anchor="start" x="1101.91" y="-1113.3" font-family="Times,serif" font-size="14.00">course_id :integer</text>
<text text-anchor="start" x="1101.91" y="-1098.3" font-family="Times,serif" font-size="14.00">user_id :integer</text>
<text text-anchor="start" x="1101.91" y="-1083.3" font-family="Times,serif" font-size="14.00">created_at :timestamp without time zone</text>
<text text-anchor="start" x="1101.91" y="-1068.3" font-family="Times,serif" font-size="14.00">updated_at :timestamp without time zone</text>
</g>
<!-- Course&#45;&gt;CourseUser -->
<g id="edge3" class="edge"><title>Course&#45;&gt;CourseUser</title>
<path fill="none" stroke="#bbda9b" d="M1792.22,-1652.97C1795.25,-1530.62 1798.54,-1262.92 1770.41,-1233 1717.31,-1176.51 1497.95,-1218.33 1423.41,-1197 1400.75,-1190.51 1377.44,-1181.13 1355.63,-1170.99"/>
<ellipse fill="none" stroke="#bbda9b" cx="1792.11" cy="-1657.17" rx="4" ry="4"/>
<polygon fill="#bbda9b" stroke="#bbda9b" points="1355.42,-1170.89 1348.32,-1162.54 1350.91,-1168.75 1346.39,-1166.61 1346.39,-1166.61 1346.39,-1166.61 1350.91,-1168.75 1344.46,-1170.67 1355.42,-1170.89 1355.42,-1170.89"/>
</g>
<!-- Section -->
<g id="node27" class="node"><title>Section</title>
<path fill="none" stroke="black" d="M1452.91,-1353.5C1452.91,-1353.5 1749.91,-1353.5 1749.91,-1353.5 1755.91,-1353.5 1761.91,-1359.5 1761.91,-1365.5 1761.91,-1365.5 1761.91,-1447.5 1761.91,-1447.5 1761.91,-1453.5 1755.91,-1459.5 1749.91,-1459.5 1749.91,-1459.5 1452.91,-1459.5 1452.91,-1459.5 1446.91,-1459.5 1440.91,-1453.5 1440.91,-1447.5 1440.91,-1447.5 1440.91,-1365.5 1440.91,-1365.5 1440.91,-1359.5 1446.91,-1353.5 1452.91,-1353.5"/>
<text text-anchor="middle" x="1601.41" y="-1444.3" font-family="Times,serif" font-size="14.00">Section</text>
<polyline fill="none" stroke="black" points="1440.91,-1436.5 1761.91,-1436.5 "/>
<text text-anchor="start" x="1448.91" y="-1421.3" font-family="Times,serif" font-size="14.00">id :integer</text>
<text text-anchor="start" x="1448.91" y="-1406.3" font-family="Times,serif" font-size="14.00">name :character varying</text>
<text text-anchor="start" x="1448.91" y="-1391.3" font-family="Times,serif" font-size="14.00">course_id :integer</text>
<text text-anchor="start" x="1448.91" y="-1376.3" font-family="Times,serif" font-size="14.00">created_at :timestamp without time zone</text>
<text text-anchor="start" x="1448.91" y="-1361.3" font-family="Times,serif" font-size="14.00">updated_at :timestamp without time zone</text>
</g>
<!-- Course&#45;&gt;Section -->
<g id="edge2" class="edge"><title>Course&#45;&gt;Section</title>
<path fill="none" stroke="#a4419c" d="M1753.76,-1654.15C1720.7,-1600.64 1672.31,-1522.28 1638.98,-1468.32"/>
<ellipse fill="none" stroke="#a4419c" cx="1756.04" cy="-1657.84" rx="4.00002" ry="4.00002"/>
<polygon fill="#a4419c" stroke="#a4419c" points="1638.81,-1468.05 1637.38,-1457.18 1636.18,-1463.79 1633.56,-1459.54 1633.56,-1459.54 1633.56,-1459.54 1636.18,-1463.79 1629.73,-1461.9 1638.81,-1468.05 1638.81,-1468.05"/>
</g>
<!-- License -->
<g id="node3" class="node"><title>License</title>
<path fill="none" stroke="black" d="M2581.91,-1053C2581.91,-1053 2878.91,-1053 2878.91,-1053 2884.91,-1053 2890.91,-1059 2890.91,-1065 2890.91,-1065 2890.91,-1162 2890.91,-1162 2890.91,-1168 2884.91,-1174 2878.91,-1174 2878.91,-1174 2581.91,-1174 2581.91,-1174 2575.91,-1174 2569.91,-1168 2569.91,-1162 2569.91,-1162 2569.91,-1065 2569.91,-1065 2569.91,-1059 2575.91,-1053 2581.91,-1053"/>
<text text-anchor="middle" x="2730.41" y="-1158.8" font-family="Times,serif" font-size="14.00">License</text>
<polyline fill="none" stroke="black" points="2569.91,-1151 2890.91,-1151 "/>
<text text-anchor="start" x="2577.91" y="-1135.8" font-family="Times,serif" font-size="14.00">id :integer</text>
<text text-anchor="start" x="2577.91" y="-1120.8" font-family="Times,serif" font-size="14.00">user_id :integer</text>
<text text-anchor="start" x="2577.91" y="-1105.8" font-family="Times,serif" font-size="14.00">plan :integer</text>
<text text-anchor="start" x="2577.91" y="-1090.8" font-family="Times,serif" font-size="14.00">days_left :integer</text>
<text text-anchor="start" x="2577.91" y="-1075.8" font-family="Times,serif" font-size="14.00">created_at :timestamp without time zone</text>
<text text-anchor="start" x="2577.91" y="-1060.8" font-family="Times,serif" font-size="14.00">updated_at :timestamp without time zone</text>
</g>
<!-- Tutorial -->
<g id="node4" class="node"><title>Tutorial</title>
<path fill="none" stroke="black" d="M774.914,-1353.5C774.914,-1353.5 1071.91,-1353.5 1071.91,-1353.5 1077.91,-1353.5 1083.91,-1359.5 1083.91,-1365.5 1083.91,-1365.5 1083.91,-1447.5 1083.91,-1447.5 1083.91,-1453.5 1077.91,-1459.5 1071.91,-1459.5 1071.91,-1459.5 774.914,-1459.5 774.914,-1459.5 768.914,-1459.5 762.914,-1453.5 762.914,-1447.5 762.914,-1447.5 762.914,-1365.5 762.914,-1365.5 762.914,-1359.5 768.914,-1353.5 774.914,-1353.5"/>
<text text-anchor="middle" x="923.414" y="-1444.3" font-family="Times,serif" font-size="14.00">Tutorial</text>
<polyline fill="none" stroke="black" points="762.914,-1436.5 1083.91,-1436.5 "/>
<text text-anchor="start" x="770.914" y="-1421.3" font-family="Times,serif" font-size="14.00">id :integer</text>
<text text-anchor="start" x="770.914" y="-1406.3" font-family="Times,serif" font-size="14.00">title :character varying</text>
<text text-anchor="start" x="770.914" y="-1391.3" font-family="Times,serif" font-size="14.00">description :text</text>
<text text-anchor="start" x="770.914" y="-1376.3" font-family="Times,serif" font-size="14.00">created_at :timestamp without time zone</text>
<text text-anchor="start" x="770.914" y="-1361.3" font-family="Times,serif" font-size="14.00">updated_at :timestamp without time zone</text>
</g>
<!-- Resource -->
<g id="node30" class="node"><title>Resource</title>
<path fill="none" stroke="black" d="M727.914,-1038C727.914,-1038 1024.91,-1038 1024.91,-1038 1030.91,-1038 1036.91,-1044 1036.91,-1050 1036.91,-1050 1036.91,-1177 1036.91,-1177 1036.91,-1183 1030.91,-1189 1024.91,-1189 1024.91,-1189 727.914,-1189 727.914,-1189 721.914,-1189 715.914,-1183 715.914,-1177 715.914,-1177 715.914,-1050 715.914,-1050 715.914,-1044 721.914,-1038 727.914,-1038"/>
<text text-anchor="middle" x="876.414" y="-1173.8" font-family="Times,serif" font-size="14.00">Resource</text>
<polyline fill="none" stroke="black" points="715.914,-1166 1036.91,-1166 "/>
<text text-anchor="start" x="723.914" y="-1150.8" font-family="Times,serif" font-size="14.00">id :integer</text>
<text text-anchor="start" x="723.914" y="-1135.8" font-family="Times,serif" font-size="14.00">generic_name :character varying</text>
<text text-anchor="start" x="723.914" y="-1120.8" font-family="Times,serif" font-size="14.00">tutorial_id :integer</text>
<text text-anchor="start" x="723.914" y="-1105.8" font-family="Times,serif" font-size="14.00">material_id :integer</text>
<text text-anchor="start" x="723.914" y="-1090.8" font-family="Times,serif" font-size="14.00">material_type :character varying</text>
<text text-anchor="start" x="723.914" y="-1075.8" font-family="Times,serif" font-size="14.00">created_at :timestamp without time zone</text>
<text text-anchor="start" x="723.914" y="-1060.8" font-family="Times,serif" font-size="14.00">updated_at :timestamp without time zone</text>
<text text-anchor="start" x="723.914" y="-1045.8" font-family="Times,serif" font-size="14.00">section_id :integer</text>
</g>
<!-- Tutorial&#45;&gt;Resource -->
<g id="edge6" class="edge"><title>Tutorial&#45;&gt;Resource</title>
<path fill="none" stroke="#4ad591" d="M913.723,-1345.5C906.898,-1303.24 897.665,-1246.07 890.091,-1199.18"/>
<ellipse fill="none" stroke="#4ad591" cx="914.373" cy="-1349.53" rx="4.00001" ry="4.00001"/>
<polygon fill="#4ad591" stroke="#4ad591" points="890.047,-1198.91 892.895,-1188.32 889.25,-1193.97 888.453,-1189.04 888.453,-1189.04 888.453,-1189.04 889.25,-1193.97 884.01,-1189.76 890.047,-1198.91 890.047,-1198.91"/>
</g>
<!-- SubCategory -->
<g id="node6" class="node"><title>SubCategory</title>
<path fill="none" stroke="black" d="M2165.91,-827.5C2165.91,-827.5 2462.91,-827.5 2462.91,-827.5 2468.91,-827.5 2474.91,-833.5 2474.91,-839.5 2474.91,-839.5 2474.91,-966.5 2474.91,-966.5 2474.91,-972.5 2468.91,-978.5 2462.91,-978.5 2462.91,-978.5 2165.91,-978.5 2165.91,-978.5 2159.91,-978.5 2153.91,-972.5 2153.91,-966.5 2153.91,-966.5 2153.91,-839.5 2153.91,-839.5 2153.91,-833.5 2159.91,-827.5 2165.91,-827.5"/>
<text text-anchor="middle" x="2314.41" y="-963.3" font-family="Times,serif" font-size="14.00">SubCategory</text>
<polyline fill="none" stroke="black" points="2153.91,-955.5 2474.91,-955.5 "/>
<text text-anchor="start" x="2161.91" y="-940.3" font-family="Times,serif" font-size="14.00">id :integer</text>
<text text-anchor="start" x="2161.91" y="-925.3" font-family="Times,serif" font-size="14.00">name :character varying</text>
<text text-anchor="start" x="2161.91" y="-910.3" font-family="Times,serif" font-size="14.00">user_id :integer</text>
<text text-anchor="start" x="2161.91" y="-895.3" font-family="Times,serif" font-size="14.00">category_id :integer</text>
<text text-anchor="start" x="2161.91" y="-880.3" font-family="Times,serif" font-size="14.00">created_at :timestamp without time zone</text>
<text text-anchor="start" x="2161.91" y="-865.3" font-family="Times,serif" font-size="14.00">updated_at :timestamp without time zone</text>
<text text-anchor="start" x="2161.91" y="-850.3" font-family="Times,serif" font-size="14.00">questions_count :integer</text>
<text text-anchor="start" x="2161.91" y="-835.3" font-family="Times,serif" font-size="14.00">description :text</text>
</g>
<!-- Category&#45;&gt;SubCategory -->
<g id="edge7" class="edge"><title>Category&#45;&gt;SubCategory</title>
<path fill="none" stroke="#c72e22" d="M1726.31,-1042.39C1738.32,-1037.66 1750.46,-1033.43 1762.41,-1030 1910.18,-987.635 1957.71,-1032.97 2106.41,-994 2119.43,-990.589 2132.68,-986.482 2145.87,-981.928"/>
<ellipse fill="none" stroke="#c72e22" cx="1722.57" cy="-1043.89" rx="4.00001" ry="4.00001"/>
<polygon fill="#c72e22" stroke="#c72e22" points="2146.03,-981.871 2156.96,-982.778 2150.75,-980.203 2155.46,-978.536 2155.46,-978.536 2155.46,-978.536 2150.75,-980.203 2153.96,-974.294 2146.03,-981.871 2146.03,-981.871"/>
</g>
<!-- Question -->
<g id="node10" class="node"><title>Question</title>
<path fill="none" stroke="black" d="M1618.91,-504.5C1618.91,-504.5 1915.91,-504.5 1915.91,-504.5 1921.91,-504.5 1927.91,-510.5 1927.91,-516.5 1927.91,-516.5 1927.91,-763.5 1927.91,-763.5 1927.91,-769.5 1921.91,-775.5 1915.91,-775.5 1915.91,-775.5 1618.91,-775.5 1618.91,-775.5 1612.91,-775.5 1606.91,-769.5 1606.91,-763.5 1606.91,-763.5 1606.91,-516.5 1606.91,-516.5 1606.91,-510.5 1612.91,-504.5 1618.91,-504.5"/>
<text text-anchor="middle" x="1767.41" y="-760.3" font-family="Times,serif" font-size="14.00">Question</text>
<polyline fill="none" stroke="black" points="1606.91,-752.5 1927.91,-752.5 "/>
<text text-anchor="start" x="1614.91" y="-737.3" font-family="Times,serif" font-size="14.00">id :integer</text>
<text text-anchor="start" x="1614.91" y="-722.3" font-family="Times,serif" font-size="14.00">content :character varying</text>
<text text-anchor="start" x="1614.91" y="-707.3" font-family="Times,serif" font-size="14.00">choice_id :integer</text>
<text text-anchor="start" x="1614.91" y="-692.3" font-family="Times,serif" font-size="14.00">sub_category_id :integer</text>
<text text-anchor="start" x="1614.91" y="-677.3" font-family="Times,serif" font-size="14.00">created_at :timestamp without time zone</text>
<text text-anchor="start" x="1614.91" y="-662.3" font-family="Times,serif" font-size="14.00">updated_at :timestamp without time zone</text>
<text text-anchor="start" x="1614.91" y="-647.3" font-family="Times,serif" font-size="14.00">explanation :character varying</text>
<text text-anchor="start" x="1614.91" y="-632.3" font-family="Times,serif" font-size="14.00">picture :character varying</text>
<text text-anchor="start" x="1614.91" y="-617.3" font-family="Times,serif" font-size="14.00">url :character varying</text>
<text text-anchor="start" x="1614.91" y="-602.3" font-family="Times,serif" font-size="14.00">video_url :character varying</text>
<text text-anchor="start" x="1614.91" y="-587.3" font-family="Times,serif" font-size="14.00">question_id :integer</text>
<text text-anchor="start" x="1614.91" y="-572.3" font-family="Times,serif" font-size="14.00">time :integer</text>
<text text-anchor="start" x="1614.91" y="-557.3" font-family="Times,serif" font-size="14.00">total_answered_count :integer</text>
<text text-anchor="start" x="1614.91" y="-542.3" font-family="Times,serif" font-size="14.00">wrong_answered_count :integer</text>
<text text-anchor="start" x="1614.91" y="-527.3" font-family="Times,serif" font-size="14.00">parent_id :integer</text>
<text text-anchor="start" x="1614.91" y="-512.3" font-family="Times,serif" font-size="14.00">parent_type :character varying</text>
</g>
<!-- Category&#45;&gt;Question -->
<g id="edge8" class="edge"><title>Category&#45;&gt;Question</title>
<path fill="none" stroke="#3a48cd" d="M1450.1,-1040.25C1423.82,-1024.08 1402.19,-1007.68 1394.41,-994 1354.44,-923.677 1350.73,-880.08 1394.41,-812 1439.51,-741.709 1521.53,-699.936 1597.2,-675.302"/>
<polygon fill="#3a48cd" stroke="#3a48cd" points="1450.22,-1040.32 1456.46,-1049.34 1454.5,-1042.9 1458.78,-1045.48 1458.78,-1045.48 1458.78,-1045.48 1454.5,-1042.9 1461.11,-1041.63 1450.22,-1040.32 1450.22,-1040.32"/>
<polygon fill="#3a48cd" stroke="#3a48cd" points="1597.34,-675.258 1608.23,-676.524 1602.1,-673.746 1606.87,-672.234 1606.87,-672.234 1606.87,-672.234 1602.1,-673.746 1605.51,-667.945 1597.34,-675.258 1597.34,-675.258"/>
</g>
<!-- SimulatedCategory -->
<g id="node20" class="node"><title>SimulatedCategory</title>
<path fill="none" stroke="black" d="M1415.91,-857.5C1415.91,-857.5 1712.91,-857.5 1712.91,-857.5 1718.91,-857.5 1724.91,-863.5 1724.91,-869.5 1724.91,-869.5 1724.91,-936.5 1724.91,-936.5 1724.91,-942.5 1718.91,-948.5 1712.91,-948.5 1712.91,-948.5 1415.91,-948.5 1415.91,-948.5 1409.91,-948.5 1403.91,-942.5 1403.91,-936.5 1403.91,-936.5 1403.91,-869.5 1403.91,-869.5 1403.91,-863.5 1409.91,-857.5 1415.91,-857.5"/>
<text text-anchor="middle" x="1564.41" y="-933.3" font-family="Times,serif" font-size="14.00">SimulatedCategory</text>
<polyline fill="none" stroke="black" points="1403.91,-925.5 1724.91,-925.5 "/>
<text text-anchor="start" x="1411.91" y="-910.3" font-family="Times,serif" font-size="14.00">id :integer</text>
<text text-anchor="start" x="1411.91" y="-895.3" font-family="Times,serif" font-size="14.00">category_id :integer</text>
<text text-anchor="start" x="1411.91" y="-880.3" font-family="Times,serif" font-size="14.00">created_at :timestamp without time zone</text>
<text text-anchor="start" x="1411.91" y="-865.3" font-family="Times,serif" font-size="14.00">updated_at :timestamp without time zone</text>
</g>
<!-- Category&#45;&gt;SimulatedCategory -->
<g id="edge9" class="edge"><title>Category&#45;&gt;SimulatedCategory</title>
<path fill="none" stroke="#7826b3" d="M1582.93,-1037.11C1579.32,-1011.14 1575.34,-982.584 1572.01,-958.599"/>
<ellipse fill="none" stroke="#7826b3" cx="1583.53" cy="-1041.42" rx="4.00001" ry="4.00001"/>
<polygon fill="#7826b3" stroke="#7826b3" points="1572,-958.525 1575.08,-948.001 1571.31,-953.573 1570.62,-948.621 1570.62,-948.621 1570.62,-948.621 1571.31,-953.573 1566.16,-949.241 1572,-958.525 1572,-958.525"/>
</g>
<!-- Choice -->
<g id="node7" class="node"><title>Choice</title>
<path fill="none" stroke="black" d="M1901.91,-158.5C1901.91,-158.5 2198.91,-158.5 2198.91,-158.5 2204.91,-158.5 2210.91,-164.5 2210.91,-170.5 2210.91,-170.5 2210.91,-252.5 2210.91,-252.5 2210.91,-258.5 2204.91,-264.5 2198.91,-264.5 2198.91,-264.5 1901.91,-264.5 1901.91,-264.5 1895.91,-264.5 1889.91,-258.5 1889.91,-252.5 1889.91,-252.5 1889.91,-170.5 1889.91,-170.5 1889.91,-164.5 1895.91,-158.5 1901.91,-158.5"/>
<text text-anchor="middle" x="2050.41" y="-249.3" font-family="Times,serif" font-size="14.00">Choice</text>
<polyline fill="none" stroke="black" points="1889.91,-241.5 2210.91,-241.5 "/>
<text text-anchor="start" x="1897.91" y="-226.3" font-family="Times,serif" font-size="14.00">id :integer</text>
<text text-anchor="start" x="1897.91" y="-211.3" font-family="Times,serif" font-size="14.00">content :character varying</text>
<text text-anchor="start" x="1897.91" y="-196.3" font-family="Times,serif" font-size="14.00">question_id :integer</text>
<text text-anchor="start" x="1897.91" y="-181.3" font-family="Times,serif" font-size="14.00">created_at :timestamp without time zone</text>
<text text-anchor="start" x="1897.91" y="-166.3" font-family="Times,serif" font-size="14.00">updated_at :timestamp without time zone</text>
</g>
<!-- SubCategory&#45;&gt;Choice -->
<g id="edge11" class="edge"><title>SubCategory&#45;&gt;Choice</title>
<path fill="none" stroke="#2cc4a9" d="M2286.94,-817.594C2259.01,-730.484 2215.29,-590.432 2182.41,-468 2162.65,-394.388 2181.27,-367.152 2143.41,-301 2137.62,-290.875 2130.31,-281.19 2122.34,-272.189"/>
<polygon fill="#2cc4a9" stroke="#2cc4a9" points="2286.95,-817.643 2285.73,-828.54 2288.48,-822.403 2290.01,-827.164 2290.01,-827.164 2290.01,-827.164 2288.48,-822.403 2294.3,-825.788 2286.95,-817.643 2286.95,-817.643"/>
<polygon fill="#2cc4a9" stroke="#2cc4a9" points="2122.29,-272.141 2118.82,-261.741 2118.9,-268.468 2115.51,-264.794 2115.51,-264.794 2115.51,-264.794 2118.9,-268.468 2112.2,-267.847 2122.29,-272.141 2122.29,-272.141"/>
</g>
<!-- AnsweredQuestion -->
<g id="node9" class="node"><title>AnsweredQuestion</title>
<path fill="none" stroke="black" d="M2203.91,-316.5C2203.91,-316.5 2500.91,-316.5 2500.91,-316.5 2506.91,-316.5 2512.91,-322.5 2512.91,-328.5 2512.91,-328.5 2512.91,-440.5 2512.91,-440.5 2512.91,-446.5 2506.91,-452.5 2500.91,-452.5 2500.91,-452.5 2203.91,-452.5 2203.91,-452.5 2197.91,-452.5 2191.91,-446.5 2191.91,-440.5 2191.91,-440.5 2191.91,-328.5 2191.91,-328.5 2191.91,-322.5 2197.91,-316.5 2203.91,-316.5"/>
<text text-anchor="middle" x="2352.41" y="-437.3" font-family="Times,serif" font-size="14.00">AnsweredQuestion</text>
<polyline fill="none" stroke="black" points="2191.91,-429.5 2512.91,-429.5 "/>
<text text-anchor="start" x="2199.91" y="-414.3" font-family="Times,serif" font-size="14.00">id :integer</text>
<text text-anchor="start" x="2199.91" y="-399.3" font-family="Times,serif" font-size="14.00">correct :boolean</text>
<text text-anchor="start" x="2199.91" y="-384.3" font-family="Times,serif" font-size="14.00">user_id :integer</text>
<text text-anchor="start" x="2199.91" y="-369.3" font-family="Times,serif" font-size="14.00">question_id :integer</text>
<text text-anchor="start" x="2199.91" y="-354.3" font-family="Times,serif" font-size="14.00">choice_id :integer</text>
<text text-anchor="start" x="2199.91" y="-339.3" font-family="Times,serif" font-size="14.00">created_at :timestamp without time zone</text>
<text text-anchor="start" x="2199.91" y="-324.3" font-family="Times,serif" font-size="14.00">updated_at :timestamp without time zone</text>
</g>
<!-- SubCategory&#45;&gt;AnsweredQuestion -->
<g id="edge12" class="edge"><title>SubCategory&#45;&gt;AnsweredQuestion</title>
<path fill="none" stroke="#fd75f4" d="M2320.65,-817.181C2327.9,-718.756 2339.73,-557.843 2346.73,-462.76"/>
<polygon fill="#fd75f4" stroke="#fd75f4" points="2320.63,-817.475 2315.41,-827.118 2320.27,-822.462 2319.9,-827.448 2319.9,-827.448 2319.9,-827.448 2320.27,-822.462 2324.39,-827.778 2320.63,-817.475 2320.63,-817.475"/>
<polygon fill="#fd75f4" stroke="#fd75f4" points="2346.74,-462.607 2351.96,-452.965 2347.11,-457.621 2347.47,-452.634 2347.47,-452.634 2347.47,-452.634 2347.11,-457.621 2342.99,-452.304 2346.74,-462.607 2346.74,-462.607"/>
</g>
<!-- SubCategory&#45;&gt;Question -->
<g id="edge10" class="edge"><title>SubCategory&#45;&gt;Question</title>
<path fill="none" stroke="#6cbe4e" d="M2150.39,-823.737C2083.08,-791.62 2005.18,-754.448 1937.27,-722.048"/>
<ellipse fill="none" stroke="#6cbe4e" cx="2154.42" cy="-825.66" rx="4.00002" ry="4.00002"/>
<polygon fill="#6cbe4e" stroke="#6cbe4e" points="1937.22,-722.021 1930.13,-713.653 1932.7,-719.867 1928.19,-717.714 1928.19,-717.714 1928.19,-717.714 1932.7,-719.867 1926.25,-721.775 1937.22,-722.021 1937.22,-722.021"/>
</g>
<!-- Answer -->
<g id="node14" class="node"><title>Answer</title>
<path fill="none" stroke="black" d="M1642.91,-0.5C1642.91,-0.5 1851.91,-0.5 1851.91,-0.5 1857.91,-0.5 1863.91,-6.5 1863.91,-12.5 1863.91,-12.5 1863.91,-109.5 1863.91,-109.5 1863.91,-115.5 1857.91,-121.5 1851.91,-121.5 1851.91,-121.5 1642.91,-121.5 1642.91,-121.5 1636.91,-121.5 1630.91,-115.5 1630.91,-109.5 1630.91,-109.5 1630.91,-12.5 1630.91,-12.5 1630.91,-6.5 1636.91,-0.5 1642.91,-0.5"/>
<text text-anchor="middle" x="1747.41" y="-106.3" font-family="Times,serif" font-size="14.00">Answer</text>
<polyline fill="none" stroke="black" points="1630.91,-98.5 1863.91,-98.5 "/>
<text text-anchor="start" x="1638.91" y="-83.3" font-family="Times,serif" font-size="14.00">id :integer</text>
<text text-anchor="start" x="1638.91" y="-68.3" font-family="Times,serif" font-size="14.00">user_id :integer</text>
<text text-anchor="start" x="1638.91" y="-53.3" font-family="Times,serif" font-size="14.00">question_id :integer</text>
<text text-anchor="start" x="1638.91" y="-38.3" font-family="Times,serif" font-size="14.00">choice_id :integer</text>
<text text-anchor="start" x="1638.91" y="-23.3" font-family="Times,serif" font-size="14.00">item_id :integer</text>
<text text-anchor="start" x="1638.91" y="-8.3" font-family="Times,serif" font-size="14.00">item_type :character varying</text>
</g>
<!-- Choice&#45;&gt;Answer -->
<g id="edge13" class="edge"><title>Choice&#45;&gt;Answer</title>
<path fill="none" stroke="#ab1bfd" d="M1936.7,-154.769C1915.95,-144.6 1894.19,-133.937 1873.12,-123.609"/>
<ellipse fill="none" stroke="#ab1bfd" cx="1940.42" cy="-156.593" rx="4.00002" ry="4.00002"/>
<polygon fill="#ab1bfd" stroke="#ab1bfd" points="1873.12,-123.607 1866.12,-115.166 1868.63,-121.407 1864.14,-119.206 1864.14,-119.206 1864.14,-119.206 1868.63,-121.407 1862.16,-123.247 1873.12,-123.607 1873.12,-123.607"/>
</g>
<!-- User&#45;&gt;License -->
<g id="edge21" class="edge"><title>User&#45;&gt;License</title>
<path fill="none" stroke="#0fd942" d="M2376.31,-1288.41C2411.97,-1269.63 2448.63,-1250.59 2483.41,-1233 2519.82,-1214.59 2559.56,-1195.21 2596.32,-1177.58"/>
<ellipse fill="none" stroke="#0fd942" cx="2372.73" cy="-1290.3" rx="4.00002" ry="4.00002"/>
<ellipse fill="#0fd942" stroke="#0fd942" cx="2600.02" cy="-1175.8" rx="4.00002" ry="4.00002"/>
</g>
<!-- User&#45;&gt;Category -->
<g id="edge14" class="edge"><title>User&#45;&gt;Category</title>
<path fill="none" stroke="#f7650c" d="M1942.48,-1284.65C1909.18,-1266.91 1875.03,-1249.19 1842.41,-1233 1807.49,-1215.67 1797.71,-1213.55 1762.41,-1197 1754.68,-1193.37 1746.77,-1189.63 1738.78,-1185.82"/>
<ellipse fill="none" stroke="#f7650c" cx="1946.04" cy="-1286.55" rx="4.00002" ry="4.00002"/>
<polygon fill="#f7650c" stroke="#f7650c" points="1738.77,-1185.82 1731.69,-1177.45 1734.26,-1183.66 1729.75,-1181.51 1729.75,-1181.51 1729.75,-1181.51 1734.26,-1183.66 1727.81,-1185.57 1738.77,-1185.82 1738.77,-1185.82"/>
</g>
<!-- User&#45;&gt;SubCategory -->
<g id="edge15" class="edge"><title>User&#45;&gt;SubCategory</title>
<path fill="none" stroke="#d92d1c" d="M2215.02,-1225.59C2240.03,-1144.66 2268.36,-1053.01 2288.36,-988.31"/>
<ellipse fill="none" stroke="#d92d1c" cx="2213.83" cy="-1229.44" rx="4.00001" ry="4.00001"/>
<polygon fill="#d92d1c" stroke="#d92d1c" points="2288.42,-988.118 2295.67,-979.893 2289.89,-983.341 2291.37,-978.564 2291.37,-978.564 2291.37,-978.564 2289.89,-983.341 2287.07,-977.235 2288.42,-988.118 2288.42,-988.118"/>
</g>
<!-- User&#45;&gt;AnsweredQuestion -->
<g id="edge17" class="edge"><title>User&#45;&gt;AnsweredQuestion</title>
<path fill="none" stroke="#68ab35" d="M2342.39,-1226.86C2398.89,-1159.76 2453.97,-1079 2483.41,-994 2547.82,-808.091 2454.35,-578.832 2394.99,-461.921"/>
<ellipse fill="none" stroke="#68ab35" cx="2339.51" cy="-1230.26" rx="4.00002" ry="4.00002"/>
<polygon fill="#68ab35" stroke="#68ab35" points="2394.81,-461.571 2394.25,-450.619 2392.53,-457.122 2390.25,-452.673 2390.25,-452.673 2390.25,-452.673 2392.53,-457.122 2386.25,-454.727 2394.81,-461.571 2394.81,-461.571"/>
</g>
<!-- User&#45;&gt;Answer -->
<g id="edge20" class="edge"><title>User&#45;&gt;Answer</title>
<path fill="none" stroke="#2852e5" d="M2375.22,-1262.04C2396.99,-1241.91 2417.33,-1220.13 2434.41,-1197 2516.77,-1085.48 2541.41,-1042.63 2541.41,-904 2541.41,-904 2541.41,-904 2541.41,-383.5 2541.41,-208.785 2385.18,-213.199 2219.41,-158 2105.43,-120.045 1970.73,-94.4558 1874.46,-79.3071"/>
<ellipse fill="none" stroke="#2852e5" cx="2371.99" cy="-1264.98" rx="4.00002" ry="4.00002"/>
<polygon fill="#2852e5" stroke="#2852e5" points="1874.27,-79.2771 1865.08,-73.2915 1869.33,-78.5075 1864.39,-77.7379 1864.39,-77.7379 1864.39,-77.7379 1869.33,-78.5075 1863.7,-82.1843 1874.27,-79.2771 1874.27,-79.2771"/>
</g>
<!-- SimulatorAnsweredQuestion -->
<g id="node21" class="node"><title>SimulatorAnsweredQuestion</title>
<path fill="none" stroke="black" d="M1825.91,-301.5C1825.91,-301.5 2122.91,-301.5 2122.91,-301.5 2128.91,-301.5 2134.91,-307.5 2134.91,-313.5 2134.91,-313.5 2134.91,-455.5 2134.91,-455.5 2134.91,-461.5 2128.91,-467.5 2122.91,-467.5 2122.91,-467.5 1825.91,-467.5 1825.91,-467.5 1819.91,-467.5 1813.91,-461.5 1813.91,-455.5 1813.91,-455.5 1813.91,-313.5 1813.91,-313.5 1813.91,-307.5 1819.91,-301.5 1825.91,-301.5"/>
<text text-anchor="middle" x="1974.41" y="-452.3" font-family="Times,serif" font-size="14.00">SimulatorAnsweredQuestion</text>
<polyline fill="none" stroke="black" points="1813.91,-444.5 2134.91,-444.5 "/>
<text text-anchor="start" x="1821.91" y="-429.3" font-family="Times,serif" font-size="14.00">id :integer</text>
<text text-anchor="start" x="1821.91" y="-414.3" font-family="Times,serif" font-size="14.00">simulator_id :integer</text>
<text text-anchor="start" x="1821.91" y="-399.3" font-family="Times,serif" font-size="14.00">question_id :integer</text>
<text text-anchor="start" x="1821.91" y="-384.3" font-family="Times,serif" font-size="14.00">user_id :integer</text>
<text text-anchor="start" x="1821.91" y="-369.3" font-family="Times,serif" font-size="14.00">choice_id :integer</text>
<text text-anchor="start" x="1821.91" y="-354.3" font-family="Times,serif" font-size="14.00">created_at :timestamp without time zone</text>
<text text-anchor="start" x="1821.91" y="-339.3" font-family="Times,serif" font-size="14.00">updated_at :timestamp without time zone</text>
<text text-anchor="start" x="1821.91" y="-324.3" font-family="Times,serif" font-size="14.00">status :integer</text>
<text text-anchor="start" x="1821.91" y="-309.3" font-family="Times,serif" font-size="14.00">marked_status :integer</text>
</g>
<!-- User&#45;&gt;SimulatorAnsweredQuestion -->
<g id="edge18" class="edge"><title>User&#45;&gt;SimulatorAnsweredQuestion</title>
<path fill="none" stroke="#858ee8" d="M2150.39,-1225.03C2146.63,-1163.12 2141.66,-1093.46 2135.41,-1030 2125.85,-932.727 2127.38,-907.467 2106.41,-812 2080.64,-694.637 2037.67,-563.013 2007.79,-477.439"/>
<ellipse fill="none" stroke="#858ee8" cx="2150.65" cy="-1229.33" rx="4" ry="4"/>
<polygon fill="#858ee8" stroke="#858ee8" points="2007.7,-477.191 2008.64,-466.266 2006.05,-472.473 2004.4,-467.754 2004.4,-467.754 2004.4,-467.754 2006.05,-472.473 2000.15,-469.243 2007.7,-477.191 2007.7,-477.191"/>
</g>
<!-- Simulator -->
<g id="node23" class="node"><title>Simulator</title>
<path fill="none" stroke="black" d="M1755.41,-812.5C1755.41,-812.5 2085.41,-812.5 2085.41,-812.5 2091.41,-812.5 2097.41,-818.5 2097.41,-824.5 2097.41,-824.5 2097.41,-981.5 2097.41,-981.5 2097.41,-987.5 2091.41,-993.5 2085.41,-993.5 2085.41,-993.5 1755.41,-993.5 1755.41,-993.5 1749.41,-993.5 1743.41,-987.5 1743.41,-981.5 1743.41,-981.5 1743.41,-824.5 1743.41,-824.5 1743.41,-818.5 1749.41,-812.5 1755.41,-812.5"/>
<text text-anchor="middle" x="1920.41" y="-978.3" font-family="Times,serif" font-size="14.00">Simulator</text>
<polyline fill="none" stroke="black" points="1743.41,-970.5 2097.41,-970.5 "/>
<text text-anchor="start" x="1751.41" y="-955.3" font-family="Times,serif" font-size="14.00">id :integer</text>
<text text-anchor="start" x="1751.41" y="-940.3" font-family="Times,serif" font-size="14.00">user_id :integer</text>
<text text-anchor="start" x="1751.41" y="-925.3" font-family="Times,serif" font-size="14.00">time_left :time without time zone</text>
<text text-anchor="start" x="1751.41" y="-910.3" font-family="Times,serif" font-size="14.00">last_started :timestamp without time zone</text>
<text text-anchor="start" x="1751.41" y="-895.3" font-family="Times,serif" font-size="14.00">last_paused :timestamp without time zone</text>
<text text-anchor="start" x="1751.41" y="-880.3" font-family="Times,serif" font-size="14.00">time_completed :timestamp without time zone</text>
<text text-anchor="start" x="1751.41" y="-865.3" font-family="Times,serif" font-size="14.00">created_at :timestamp without time zone</text>
<text text-anchor="start" x="1751.41" y="-850.3" font-family="Times,serif" font-size="14.00">updated_at :timestamp without time zone</text>
<text text-anchor="start" x="1751.41" y="-835.3" font-family="Times,serif" font-size="14.00">simulator_type_id :integer</text>
<text text-anchor="start" x="1751.41" y="-820.3" font-family="Times,serif" font-size="14.00">status :integer</text>
</g>
<!-- User&#45;&gt;Simulator -->
<g id="edge16" class="edge"><title>User&#45;&gt;Simulator</title>
<path fill="none" stroke="#e8d886" d="M2145.06,-1225.2C2136.03,-1145.81 2122.07,-1063.1 2101.41,-1030 2094.94,-1019.62 2087.25,-1009.87 2078.77,-1000.75"/>
<ellipse fill="none" stroke="#e8d886" cx="2145.53" cy="-1229.39" rx="4.00001" ry="4.00001"/>
<polygon fill="#e8d886" stroke="#e8d886" points="2078.77,-1000.75 2075.03,-990.437 2075.29,-997.159 2071.8,-993.572 2071.8,-993.572 2071.8,-993.572 2075.29,-997.159 2068.57,-996.706 2078.77,-1000.75 2078.77,-1000.75"/>
</g>
<!-- User&#45;&gt;CourseUser -->
<g id="edge19" class="edge"><title>User&#45;&gt;CourseUser</title>
<path fill="none" stroke="#cf4813" d="M1942.4,-1285.02C1897.88,-1264.63 1850.51,-1245.92 1804.41,-1233 1640.64,-1187.1 1587.15,-1243.05 1423.41,-1197 1400.59,-1190.58 1377.11,-1181.16 1355.19,-1170.97"/>
<ellipse fill="none" stroke="#cf4813" cx="1946.18" cy="-1286.76" rx="4.00002" ry="4.00002"/>
<polygon fill="#cf4813" stroke="#cf4813" points="1354.93,-1170.84 1347.83,-1162.49 1350.42,-1168.7 1345.9,-1166.55 1345.9,-1166.55 1345.9,-1166.55 1350.42,-1168.7 1343.97,-1170.62 1354.93,-1170.84 1354.93,-1170.84"/>
</g>
<!-- AnsweredQuestion&#45;&gt;Choice -->
<g id="edge22" class="edge"><title>AnsweredQuestion&#45;&gt;Choice</title>
<path fill="none" stroke="#166c44" d="M2224.97,-311.336C2200.39,-297.42 2174.96,-283.021 2151.37,-269.662"/>
<polygon fill="#166c44" stroke="#166c44" points="2225.22,-311.48 2231.71,-320.323 2229.57,-313.943 2233.92,-316.407 2233.92,-316.407 2233.92,-316.407 2229.57,-313.943 2236.14,-312.491 2225.22,-311.48 2225.22,-311.48"/>
<polygon fill="#166c44" stroke="#166c44" points="2151.12,-269.524 2144.64,-260.681 2146.77,-267.06 2142.42,-264.597 2142.42,-264.597 2142.42,-264.597 2146.77,-267.06 2140.2,-268.512 2151.12,-269.524 2151.12,-269.524"/>
</g>
<!-- Question&#45;&gt;Choice -->
<g id="edge24" class="edge"><title>Question&#45;&gt;Choice</title>
<path fill="none" stroke="#bff82b" d="M1768.2,-496.362C1771.46,-418.199 1780.62,-331.205 1804.41,-301 1823.99,-276.147 1851.15,-258.267 1880.3,-245.405"/>
<ellipse fill="none" stroke="#bff82b" cx="1768.05" cy="-500.384" rx="4" ry="4"/>
<polygon fill="#bff82b" stroke="#bff82b" points="1880.61,-245.276 1891.57,-245.552 1885.22,-243.34 1889.83,-241.403 1889.83,-241.403 1889.83,-241.403 1885.22,-243.34 1888.09,-237.254 1880.61,-245.276 1880.61,-245.276"/>
</g>
<!-- Question&#45;&gt;AnsweredQuestion -->
<g id="edge25" class="edge"><title>Question&#45;&gt;AnsweredQuestion</title>
<path fill="none" stroke="#8dc677" d="M1935.48,-566.173C2014.85,-531.776 2109.26,-490.865 2188.15,-456.68"/>
<ellipse fill="none" stroke="#8dc677" cx="1931.71" cy="-567.804" rx="4.00002" ry="4.00002"/>
<polygon fill="#8dc677" stroke="#8dc677" points="2188.52,-456.521 2199.48,-456.674 2193.11,-454.533 2197.69,-452.545 2197.69,-452.545 2197.69,-452.545 2193.11,-454.533 2195.91,-448.416 2188.52,-456.521 2188.52,-456.521"/>
</g>
<!-- Question&#45;&gt;Question -->
<g id="edge27" class="edge"><title>Question&#45;&gt;Question</title>
<path fill="none" stroke="#4e8975" d="M1934.26,-669.304C1941.62,-661.825 1945.91,-652.057 1945.91,-640 1945.91,-628.888 1942.27,-619.721 1935.94,-612.498"/>
<ellipse fill="none" stroke="#4e8975" cx="1931.11" cy="-671.986" rx="4.00002" ry="4.00002"/>
<polygon fill="#4e8975" stroke="#4e8975" points="1935.5,-612.104 1931.07,-602.075 1931.78,-608.764 1928.06,-605.424 1928.06,-605.424 1928.06,-605.424 1931.78,-608.764 1925.05,-608.772 1935.5,-612.104 1935.5,-612.104"/>
</g>
<!-- Question&#45;&gt;Answer -->
<g id="edge23" class="edge"><title>Question&#45;&gt;Answer</title>
<path fill="none" stroke="#cfc82b" d="M1762.46,-496.215C1758.44,-380.179 1752.94,-221.497 1749.83,-131.601"/>
<ellipse fill="none" stroke="#cfc82b" cx="1762.61" cy="-500.45" rx="4" ry="4"/>
<polygon fill="#cfc82b" stroke="#cfc82b" points="1749.82,-131.515 1753.97,-121.365 1749.65,-126.518 1749.48,-121.521 1749.48,-121.521 1749.48,-121.521 1749.65,-126.518 1744.98,-121.677 1749.82,-131.515 1749.82,-131.515"/>
</g>
<!-- Question&#45;&gt;SimulatorAnsweredQuestion -->
<g id="edge26" class="edge"><title>Question&#45;&gt;SimulatorAnsweredQuestion</title>
<path fill="none" stroke="#a21c14" d="M1882.56,-497.991C1888.77,-490.382 1894.93,-482.843 1900.94,-475.484"/>
<ellipse fill="none" stroke="#a21c14" cx="1879.81" cy="-501.358" rx="4.00002" ry="4.00002"/>
<polygon fill="#a21c14" stroke="#a21c14" points="1901.07,-475.321 1910.88,-470.422 1904.23,-471.449 1907.39,-467.576 1907.39,-467.576 1907.39,-467.576 1904.23,-471.449 1903.91,-464.73 1901.07,-475.321 1901.07,-475.321"/>
</g>
<!-- LiveClass -->
<g id="node11" class="node"><title>LiveClass</title>
<path fill="none" stroke="black" d="M2072.91,-1616.5C2072.91,-1616.5 2369.91,-1616.5 2369.91,-1616.5 2375.91,-1616.5 2381.91,-1622.5 2381.91,-1628.5 2381.91,-1628.5 2381.91,-1800.5 2381.91,-1800.5 2381.91,-1806.5 2375.91,-1812.5 2369.91,-1812.5 2369.91,-1812.5 2072.91,-1812.5 2072.91,-1812.5 2066.91,-1812.5 2060.91,-1806.5 2060.91,-1800.5 2060.91,-1800.5 2060.91,-1628.5 2060.91,-1628.5 2060.91,-1622.5 2066.91,-1616.5 2072.91,-1616.5"/>
<text text-anchor="middle" x="2221.41" y="-1797.3" font-family="Times,serif" font-size="14.00">LiveClass</text>
<polyline fill="none" stroke="black" points="2060.91,-1789.5 2381.91,-1789.5 "/>
<text text-anchor="start" x="2068.91" y="-1774.3" font-family="Times,serif" font-size="14.00">id :integer</text>
<text text-anchor="start" x="2068.91" y="-1759.3" font-family="Times,serif" font-size="14.00">subject :character varying</text>
<text text-anchor="start" x="2068.91" y="-1744.3" font-family="Times,serif" font-size="14.00">professor :character varying</text>
<text text-anchor="start" x="2068.91" y="-1729.3" font-family="Times,serif" font-size="14.00">url :character varying</text>
<text text-anchor="start" x="2068.91" y="-1714.3" font-family="Times,serif" font-size="14.00">online_now :boolean</text>
<text text-anchor="start" x="2068.91" y="-1699.3" font-family="Times,serif" font-size="14.00">created_at :timestamp without time zone</text>
<text text-anchor="start" x="2068.91" y="-1684.3" font-family="Times,serif" font-size="14.00">updated_at :timestamp without time zone</text>
<text text-anchor="start" x="2068.91" y="-1669.3" font-family="Times,serif" font-size="14.00">time :timestamp without time zone</text>
<text text-anchor="start" x="2068.91" y="-1654.3" font-family="Times,serif" font-size="14.00">explanation :text</text>
<text text-anchor="start" x="2068.91" y="-1639.3" font-family="Times,serif" font-size="14.00">Urlyoutube :character varying</text>
<text text-anchor="start" x="2068.91" y="-1624.3" font-family="Times,serif" font-size="14.00">course_id :integer</text>
</g>
<!-- Career -->
<g id="node12" class="node"><title>Career</title>
<path fill="none" stroke="black" d="M2504.91,-1316C2504.91,-1316 2801.91,-1316 2801.91,-1316 2807.91,-1316 2813.91,-1322 2813.91,-1328 2813.91,-1328 2813.91,-1485 2813.91,-1485 2813.91,-1491 2807.91,-1497 2801.91,-1497 2801.91,-1497 2504.91,-1497 2504.91,-1497 2498.91,-1497 2492.91,-1491 2492.91,-1485 2492.91,-1485 2492.91,-1328 2492.91,-1328 2492.91,-1322 2498.91,-1316 2504.91,-1316"/>
<text text-anchor="middle" x="2653.41" y="-1481.8" font-family="Times,serif" font-size="14.00">Career</text>
<polyline fill="none" stroke="black" points="2492.91,-1474 2813.91,-1474 "/>
<text text-anchor="start" x="2500.91" y="-1458.8" font-family="Times,serif" font-size="14.00">id :integer</text>
<text text-anchor="start" x="2500.91" y="-1443.8" font-family="Times,serif" font-size="14.00">name :character varying</text>
<text text-anchor="start" x="2500.91" y="-1428.8" font-family="Times,serif" font-size="14.00">description :text</text>
<text text-anchor="start" x="2500.91" y="-1413.8" font-family="Times,serif" font-size="14.00">image :character varying</text>
<text text-anchor="start" x="2500.91" y="-1398.8" font-family="Times,serif" font-size="14.00">type :integer</text>
<text text-anchor="start" x="2500.91" y="-1383.8" font-family="Times,serif" font-size="14.00">faculty :character varying</text>
<text text-anchor="start" x="2500.91" y="-1368.8" font-family="Times,serif" font-size="14.00">school_id :integer</text>
<text text-anchor="start" x="2500.91" y="-1353.8" font-family="Times,serif" font-size="14.00">university_id :integer</text>
<text text-anchor="start" x="2500.91" y="-1338.8" font-family="Times,serif" font-size="14.00">created_at :timestamp without time zone</text>
<text text-anchor="start" x="2500.91" y="-1323.8" font-family="Times,serif" font-size="14.00">updated_at :timestamp without time zone</text>
</g>
<!-- Video -->
<g id="node13" class="node"><title>Video</title>
<path fill="none" stroke="black" d="M1113.91,-1346C1113.91,-1346 1410.91,-1346 1410.91,-1346 1416.91,-1346 1422.91,-1352 1422.91,-1358 1422.91,-1358 1422.91,-1455 1422.91,-1455 1422.91,-1461 1416.91,-1467 1410.91,-1467 1410.91,-1467 1113.91,-1467 1113.91,-1467 1107.91,-1467 1101.91,-1461 1101.91,-1455 1101.91,-1455 1101.91,-1358 1101.91,-1358 1101.91,-1352 1107.91,-1346 1113.91,-1346"/>
<text text-anchor="middle" x="1262.41" y="-1451.8" font-family="Times,serif" font-size="14.00">Video</text>
<polyline fill="none" stroke="black" points="1101.91,-1444 1422.91,-1444 "/>
<text text-anchor="start" x="1109.91" y="-1428.8" font-family="Times,serif" font-size="14.00">id :integer</text>
<text text-anchor="start" x="1109.91" y="-1413.8" font-family="Times,serif" font-size="14.00">name :character varying</text>
<text text-anchor="start" x="1109.91" y="-1398.8" font-family="Times,serif" font-size="14.00">description :text</text>
<text text-anchor="start" x="1109.91" y="-1383.8" font-family="Times,serif" font-size="14.00">url :character varying</text>
<text text-anchor="start" x="1109.91" y="-1368.8" font-family="Times,serif" font-size="14.00">created_at :timestamp without time zone</text>
<text text-anchor="start" x="1109.91" y="-1353.8" font-family="Times,serif" font-size="14.00">updated_at :timestamp without time zone</text>
</g>
<!-- Video&#45;&gt;Resource -->
<g id="edge28" class="edge"><title>Video&#45;&gt;Resource</title>
<path fill="none" stroke="#c25182" d="M1205.73,-1339.33C1174.43,-1305.13 1133.62,-1264.15 1092.41,-1233 1073.94,-1219.04 1053.63,-1205.68 1033.07,-1193.3"/>
<ellipse fill="none" stroke="#c25182" cx="1208.77" cy="-1342.67" rx="4.00002" ry="4.00002"/>
<ellipse fill="#c25182" stroke="#c25182" cx="1029.53" cy="-1191.19" rx="4.00002" ry="4.00002"/>
</g>
<!-- Point -->
<g id="node15" class="node"><title>Point</title>
<path fill="none" stroke="black" d="M3135.91,-1323.5C3135.91,-1323.5 3432.91,-1323.5 3432.91,-1323.5 3438.91,-1323.5 3444.91,-1329.5 3444.91,-1335.5 3444.91,-1335.5 3444.91,-1477.5 3444.91,-1477.5 3444.91,-1483.5 3438.91,-1489.5 3432.91,-1489.5 3432.91,-1489.5 3135.91,-1489.5 3135.91,-1489.5 3129.91,-1489.5 3123.91,-1483.5 3123.91,-1477.5 3123.91,-1477.5 3123.91,-1335.5 3123.91,-1335.5 3123.91,-1329.5 3129.91,-1323.5 3135.91,-1323.5"/>
<text text-anchor="middle" x="3284.41" y="-1474.3" font-family="Times,serif" font-size="14.00">Point</text>
<polyline fill="none" stroke="black" points="3123.91,-1466.5 3444.91,-1466.5 "/>
<text text-anchor="start" x="3131.91" y="-1451.3" font-family="Times,serif" font-size="14.00">id :integer</text>
<text text-anchor="start" x="3131.91" y="-1436.3" font-family="Times,serif" font-size="14.00">owner_id :integer</text>
<text text-anchor="start" x="3131.91" y="-1421.3" font-family="Times,serif" font-size="14.00">owner_type :character varying</text>
<text text-anchor="start" x="3131.91" y="-1406.3" font-family="Times,serif" font-size="14.00">points :integer</text>
<text text-anchor="start" x="3131.91" y="-1391.3" font-family="Times,serif" font-size="14.00">point_action_id :integer</text>
<text text-anchor="start" x="3131.91" y="-1376.3" font-family="Times,serif" font-size="14.00">recipient_id :integer</text>
<text text-anchor="start" x="3131.91" y="-1361.3" font-family="Times,serif" font-size="14.00">recipient_type :character varying</text>
<text text-anchor="start" x="3131.91" y="-1346.3" font-family="Times,serif" font-size="14.00">created_at :timestamp without time zone</text>
<text text-anchor="start" x="3131.91" y="-1331.3" font-family="Times,serif" font-size="14.00">updated_at :timestamp without time zone</text>
</g>
<!-- Test&#45;&gt;Question -->
<g id="edge29" class="edge"><title>Test&#45;&gt;Question</title>
<path fill="none" stroke="#f10718" d="M510.86,-1022.84C549.033,-944.235 605.484,-838.478 644.414,-812 796.281,-708.708 1321.64,-665.2 1596.61,-649.16"/>
<ellipse fill="none" stroke="#f10718" cx="508.965" cy="-1026.76" rx="4.00002" ry="4.00002"/>
<polygon fill="#f10718" stroke="#f10718" points="1596.71,-649.155 1606.95,-653.071 1601.7,-648.866 1606.69,-648.578 1606.69,-648.578 1606.69,-648.578 1601.7,-648.866 1606.43,-644.085 1596.71,-649.155 1596.71,-649.155"/>
</g>
<!-- Test&#45;&gt;Answer -->
<g id="edge30" class="edge"><title>Test&#45;&gt;Answer</title>
<path fill="none" stroke="#462143" d="M478.268,-1022.26C486.797,-927.434 498.414,-773.883 498.414,-641 498.414,-641 498.414,-641 498.414,-383.5 498.414,-153.482 1302.91,-85.5915 1620.58,-67.7495"/>
<ellipse fill="none" stroke="#462143" cx="477.892" cy="-1026.42" rx="4" ry="4"/>
<polygon fill="#462143" stroke="#462143" points="1620.77,-67.7391 1631,-71.679 1625.76,-67.4625 1630.75,-67.1859 1630.75,-67.1859 1630.75,-67.1859 1625.76,-67.4625 1630.5,-62.6928 1620.77,-67.7391 1620.77,-67.7391"/>
</g>
<!-- CourseUserTest -->
<g id="node22" class="node"><title>CourseUserTest</title>
<path fill="none" stroke="black" d="M698.914,-842.5C698.914,-842.5 995.914,-842.5 995.914,-842.5 1001.91,-842.5 1007.91,-848.5 1007.91,-854.5 1007.91,-854.5 1007.91,-951.5 1007.91,-951.5 1007.91,-957.5 1001.91,-963.5 995.914,-963.5 995.914,-963.5 698.914,-963.5 698.914,-963.5 692.914,-963.5 686.914,-957.5 686.914,-951.5 686.914,-951.5 686.914,-854.5 686.914,-854.5 686.914,-848.5 692.914,-842.5 698.914,-842.5"/>
<text text-anchor="middle" x="847.414" y="-948.3" font-family="Times,serif" font-size="14.00">CourseUserTest</text>
<polyline fill="none" stroke="black" points="686.914,-940.5 1007.91,-940.5 "/>
<text text-anchor="start" x="694.914" y="-925.3" font-family="Times,serif" font-size="14.00">id :integer</text>
<text text-anchor="start" x="694.914" y="-910.3" font-family="Times,serif" font-size="14.00">course_user_id :integer</text>
<text text-anchor="start" x="694.914" y="-895.3" font-family="Times,serif" font-size="14.00">test_id :integer</text>
<text text-anchor="start" x="694.914" y="-880.3" font-family="Times,serif" font-size="14.00">completed :boolean</text>
<text text-anchor="start" x="694.914" y="-865.3" font-family="Times,serif" font-size="14.00">created_at :timestamp without time zone</text>
<text text-anchor="start" x="694.914" y="-850.3" font-family="Times,serif" font-size="14.00">updated_at :timestamp without time zone</text>
</g>
<!-- Test&#45;&gt;CourseUserTest -->
<g id="edge31" class="edge"><title>Test&#45;&gt;CourseUserTest</title>
<path fill="none" stroke="#d71764" d="M625.392,-1026.46C660.532,-1007.08 697.245,-986.831 730.465,-968.508"/>
<ellipse fill="none" stroke="#d71764" cx="621.769" cy="-1028.46" rx="4.00002" ry="4.00002"/>
<polygon fill="#d71764" stroke="#d71764" points="730.527,-968.473 741.457,-967.584 734.905,-966.058 739.284,-963.643 739.284,-963.643 739.284,-963.643 734.905,-966.058 737.11,-959.703 730.527,-968.473 730.527,-968.473"/>
</g>
<!-- Blog -->
<g id="node17" class="node"><title>Blog</title>
<path fill="none" stroke="black" d="M435.914,-1353.5C435.914,-1353.5 732.914,-1353.5 732.914,-1353.5 738.914,-1353.5 744.914,-1359.5 744.914,-1365.5 744.914,-1365.5 744.914,-1447.5 744.914,-1447.5 744.914,-1453.5 738.914,-1459.5 732.914,-1459.5 732.914,-1459.5 435.914,-1459.5 435.914,-1459.5 429.914,-1459.5 423.914,-1453.5 423.914,-1447.5 423.914,-1447.5 423.914,-1365.5 423.914,-1365.5 423.914,-1359.5 429.914,-1353.5 435.914,-1353.5"/>
<text text-anchor="middle" x="584.414" y="-1444.3" font-family="Times,serif" font-size="14.00">Blog</text>
<polyline fill="none" stroke="black" points="423.914,-1436.5 744.914,-1436.5 "/>
<text text-anchor="start" x="431.914" y="-1421.3" font-family="Times,serif" font-size="14.00">id :integer</text>
<text text-anchor="start" x="431.914" y="-1406.3" font-family="Times,serif" font-size="14.00">title :character varying</text>
<text text-anchor="start" x="431.914" y="-1391.3" font-family="Times,serif" font-size="14.00">content :text</text>
<text text-anchor="start" x="431.914" y="-1376.3" font-family="Times,serif" font-size="14.00">created_at :timestamp without time zone</text>
<text text-anchor="start" x="431.914" y="-1361.3" font-family="Times,serif" font-size="14.00">updated_at :timestamp without time zone</text>
</g>
<!-- Blog&#45;&gt;Resource -->
<g id="edge32" class="edge"><title>Blog&#45;&gt;Resource</title>
<path fill="none" stroke="#e3de1d" d="M640.266,-1347.66C672.999,-1313.97 715.282,-1270.81 753.414,-1233 765.921,-1220.6 779.246,-1207.57 792.337,-1194.88"/>
<ellipse fill="none" stroke="#e3de1d" cx="637.47" cy="-1350.54" rx="4.00002" ry="4.00002"/>
<ellipse fill="#e3de1d" stroke="#e3de1d" cx="795.458" cy="-1191.85" rx="4.00002" ry="4.00002"/>
</g>
<!-- School -->
<g id="node18" class="node"><title>School</title>
<path fill="none" stroke="black" d="M2457.91,-1654C2457.91,-1654 2754.91,-1654 2754.91,-1654 2760.91,-1654 2766.91,-1660 2766.91,-1666 2766.91,-1666 2766.91,-1763 2766.91,-1763 2766.91,-1769 2760.91,-1775 2754.91,-1775 2754.91,-1775 2457.91,-1775 2457.91,-1775 2451.91,-1775 2445.91,-1769 2445.91,-1763 2445.91,-1763 2445.91,-1666 2445.91,-1666 2445.91,-1660 2451.91,-1654 2457.91,-1654"/>
<text text-anchor="middle" x="2606.41" y="-1759.8" font-family="Times,serif" font-size="14.00">School</text>
<polyline fill="none" stroke="black" points="2445.91,-1752 2766.91,-1752 "/>
<text text-anchor="start" x="2453.91" y="-1736.8" font-family="Times,serif" font-size="14.00">id :integer</text>
<text text-anchor="start" x="2453.91" y="-1721.8" font-family="Times,serif" font-size="14.00">name :character varying</text>
<text text-anchor="start" x="2453.91" y="-1706.8" font-family="Times,serif" font-size="14.00">description :text</text>
<text text-anchor="start" x="2453.91" y="-1691.8" font-family="Times,serif" font-size="14.00">image :character varying</text>
<text text-anchor="start" x="2453.91" y="-1676.8" font-family="Times,serif" font-size="14.00">created_at :timestamp without time zone</text>
<text text-anchor="start" x="2453.91" y="-1661.8" font-family="Times,serif" font-size="14.00">updated_at :timestamp without time zone</text>
</g>
<!-- School&#45;&gt;Career -->
<g id="edge33" class="edge"><title>School&#45;&gt;Career</title>
<path fill="none" stroke="#2561fd" d="M2616.82,-1645.78C2623.06,-1605.14 2631.11,-1552.72 2638.07,-1507.4"/>
<ellipse fill="none" stroke="#2561fd" cx="2616.19" cy="-1649.82" rx="4.00001" ry="4.00001"/>
<polygon fill="#2561fd" stroke="#2561fd" points="2638.11,-1507.13 2644.08,-1497.93 2638.87,-1502.18 2639.63,-1497.24 2639.63,-1497.24 2639.63,-1497.24 2638.87,-1502.18 2635.18,-1496.56 2638.11,-1507.13 2638.11,-1507.13"/>
</g>
<!-- Student -->
<g id="node19" class="node"><title>Student</title>
<polygon fill="none" stroke="black" stroke-dasharray="1,5" points="3537.41,-1732.5 3463.41,-1732.5 3463.41,-1696.5 3537.41,-1696.5 3537.41,-1732.5"/>
<text text-anchor="middle" x="3500.41" y="-1710.8" font-family="Times,serif" font-size="14.00">Student</text>
</g>
<!-- Simulator&#45;&gt;Question -->
<g id="edge35" class="edge"><title>Simulator&#45;&gt;Question</title>
<path fill="none" stroke="#5e59cf" d="M1862.69,-803.527C1859.02,-797.27 1855.29,-790.909 1851.54,-784.505"/>
<polygon fill="#5e59cf" stroke="#5e59cf" points="1862.7,-803.552 1863.88,-814.454 1865.23,-807.865 1867.76,-812.179 1867.76,-812.179 1867.76,-812.179 1865.23,-807.865 1871.64,-809.903 1862.7,-803.552 1862.7,-803.552"/>
<polygon fill="#5e59cf" stroke="#5e59cf" points="1851.46,-784.38 1850.29,-773.477 1848.94,-780.066 1846.41,-775.753 1846.41,-775.753 1846.41,-775.753 1848.94,-780.066 1842.52,-778.028 1851.46,-784.38 1851.46,-784.38"/>
</g>
<!-- Simulator&#45;&gt;SimulatorAnsweredQuestion -->
<g id="edge34" class="edge"><title>Simulator&#45;&gt;SimulatorAnsweredQuestion</title>
<path fill="none" stroke="#175f1e" d="M1948.93,-804.355C1951.06,-794.83 1952.94,-785.266 1954.41,-776 1970.45,-674.941 1974.54,-557.509 1975.18,-478.02"/>
<ellipse fill="none" stroke="#175f1e" cx="1947.99" cy="-808.44" rx="4.00001" ry="4.00001"/>
<polygon fill="#175f1e" stroke="#175f1e" points="1975.19,-477.548 1979.75,-467.577 1975.22,-472.548 1975.25,-467.548 1975.25,-467.548 1975.25,-467.548 1975.22,-472.548 1970.75,-467.519 1975.19,-477.548 1975.19,-477.548"/>
</g>
<!-- PointAction -->
<g id="node24" class="node"><title>PointAction</title>
<path fill="none" stroke="black" d="M3135.91,-1654C3135.91,-1654 3432.91,-1654 3432.91,-1654 3438.91,-1654 3444.91,-1660 3444.91,-1666 3444.91,-1666 3444.91,-1763 3444.91,-1763 3444.91,-1769 3438.91,-1775 3432.91,-1775 3432.91,-1775 3135.91,-1775 3135.91,-1775 3129.91,-1775 3123.91,-1769 3123.91,-1763 3123.91,-1763 3123.91,-1666 3123.91,-1666 3123.91,-1660 3129.91,-1654 3135.91,-1654"/>
<text text-anchor="middle" x="3284.41" y="-1759.8" font-family="Times,serif" font-size="14.00">PointAction</text>
<polyline fill="none" stroke="black" points="3123.91,-1752 3444.91,-1752 "/>
<text text-anchor="start" x="3131.91" y="-1736.8" font-family="Times,serif" font-size="14.00">id :integer</text>
<text text-anchor="start" x="3131.91" y="-1721.8" font-family="Times,serif" font-size="14.00">action :character varying</text>
<text text-anchor="start" x="3131.91" y="-1706.8" font-family="Times,serif" font-size="14.00">description :character varying</text>
<text text-anchor="start" x="3131.91" y="-1691.8" font-family="Times,serif" font-size="14.00">points_alloted :integer</text>
<text text-anchor="start" x="3131.91" y="-1676.8" font-family="Times,serif" font-size="14.00">created_at :timestamp without time zone</text>
<text text-anchor="start" x="3131.91" y="-1661.8" font-family="Times,serif" font-size="14.00">updated_at :timestamp without time zone</text>
</g>
<!-- PointAction&#45;&gt;Point -->
<g id="edge36" class="edge"><title>PointAction&#45;&gt;Point</title>
<path fill="none" stroke="#7272e8" d="M3284.41,-1645.65C3284.41,-1602.75 3284.41,-1546.74 3284.41,-1499.82"/>
<ellipse fill="none" stroke="#7272e8" cx="3284.41" cy="-1649.77" rx="4" ry="4"/>
<polygon fill="#7272e8" stroke="#7272e8" points="3284.41,-1499.65 3288.91,-1489.65 3284.41,-1494.65 3284.41,-1489.65 3284.41,-1489.65 3284.41,-1489.65 3284.41,-1494.65 3279.91,-1489.65 3284.41,-1499.65 3284.41,-1499.65"/>
</g>
<!-- ResourceProgress -->
<g id="node25" class="node"><title>ResourceProgress</title>
<path fill="none" stroke="black" d="M1037.91,-835C1037.91,-835 1334.91,-835 1334.91,-835 1340.91,-835 1346.91,-841 1346.91,-847 1346.91,-847 1346.91,-959 1346.91,-959 1346.91,-965 1340.91,-971 1334.91,-971 1334.91,-971 1037.91,-971 1037.91,-971 1031.91,-971 1025.91,-965 1025.91,-959 1025.91,-959 1025.91,-847 1025.91,-847 1025.91,-841 1031.91,-835 1037.91,-835"/>
<text text-anchor="middle" x="1186.41" y="-955.8" font-family="Times,serif" font-size="14.00">ResourceProgress</text>
<polyline fill="none" stroke="black" points="1025.91,-948 1346.91,-948 "/>
<text text-anchor="start" x="1033.91" y="-932.8" font-family="Times,serif" font-size="14.00">id :integer</text>
<text text-anchor="start" x="1033.91" y="-917.8" font-family="Times,serif" font-size="14.00">course_user_id :integer</text>
<text text-anchor="start" x="1033.91" y="-902.8" font-family="Times,serif" font-size="14.00">section_id :integer</text>
<text text-anchor="start" x="1033.91" y="-887.8" font-family="Times,serif" font-size="14.00">resource_id :integer</text>
<text text-anchor="start" x="1033.91" y="-872.8" font-family="Times,serif" font-size="14.00">completed :boolean</text>
<text text-anchor="start" x="1033.91" y="-857.8" font-family="Times,serif" font-size="14.00">created_at :timestamp without time zone</text>
<text text-anchor="start" x="1033.91" y="-842.8" font-family="Times,serif" font-size="14.00">updated_at :timestamp without time zone</text>
</g>
<!-- CourseUser&#45;&gt;CourseUserTest -->
<g id="edge38" class="edge"><title>CourseUser&#45;&gt;CourseUserTest</title>
<path fill="none" stroke="#1faa68" d="M1141.04,-1056.84C1101.48,-1037.21 1056.88,-1014.84 1016.41,-994 1000.58,-985.844 983.973,-977.16 967.607,-968.526"/>
<ellipse fill="none" stroke="#1faa68" cx="1144.78" cy="-1058.69" rx="4.00002" ry="4.00002"/>
<polygon fill="#1faa68" stroke="#1faa68" points="967.388,-968.411 960.649,-959.76 962.967,-966.075 958.547,-963.738 958.547,-963.738 958.547,-963.738 962.967,-966.075 956.444,-967.717 967.388,-968.411 967.388,-968.411"/>
</g>
<!-- CourseUser&#45;&gt;ResourceProgress -->
<g id="edge37" class="edge"><title>CourseUser&#45;&gt;ResourceProgress</title>
<path fill="none" stroke="#6881ed" d="M1234.9,-1052.67C1227.6,-1030.28 1219.2,-1004.53 1211.47,-980.824"/>
<ellipse fill="none" stroke="#6881ed" cx="1236.19" cy="-1056.62" rx="4.00001" ry="4.00001"/>
<polygon fill="#6881ed" stroke="#6881ed" points="1211.42,-980.661 1212.59,-969.759 1209.87,-975.908 1208.32,-971.154 1208.32,-971.154 1208.32,-971.154 1209.87,-975.908 1204.04,-972.55 1211.42,-980.661 1211.42,-980.661"/>
</g>
<!-- Section&#45;&gt;ResourceProgress -->
<g id="edge40" class="edge"><title>Section&#45;&gt;ResourceProgress</title>
<path fill="none" stroke="#750f66" d="M1560.64,-1346.57C1529.97,-1307.3 1484.25,-1258.4 1431.41,-1233 1361.54,-1199.42 1136.33,-1254.58 1084.41,-1197 1034.71,-1141.88 1059.64,-1099.97 1084.41,-1030 1090.77,-1012.04 1100.9,-994.766 1112.36,-979.073"/>
<ellipse fill="none" stroke="#750f66" cx="1563.37" cy="-1350.12" rx="4.00002" ry="4.00002"/>
<polygon fill="#750f66" stroke="#750f66" points="1112.43,-978.988 1122.05,-973.732 1115.44,-975.001 1118.46,-971.015 1118.46,-971.015 1118.46,-971.015 1115.44,-975.001 1114.88,-968.299 1112.43,-978.988 1112.43,-978.988"/>
</g>
<!-- Section&#45;&gt;Resource -->
<g id="edge39" class="edge"><title>Section&#45;&gt;Resource</title>
<path fill="none" stroke="#c4d038" d="M1560.71,-1346.43C1530.07,-1307.09 1484.37,-1258.16 1431.41,-1233 1278.19,-1160.19 1215.03,-1241.84 1051.41,-1197 1046.15,-1195.56 1040.85,-1193.97 1035.54,-1192.25"/>
<ellipse fill="none" stroke="#c4d038" cx="1563.44" cy="-1349.98" rx="4.00002" ry="4.00002"/>
<polygon fill="#c4d038" stroke="#c4d038" points="1035.45,-1192.22 1027.4,-1184.77 1030.71,-1190.62 1025.97,-1189.03 1025.97,-1189.03 1025.97,-1189.03 1030.71,-1190.62 1024.53,-1193.3 1035.45,-1192.22 1035.45,-1192.22"/>
</g>
<!-- SimulatorType -->
<g id="node28" class="node"><title>SimulatorType</title>
<path fill="none" stroke="black" d="M1783.91,-1030.5C1783.91,-1030.5 2080.91,-1030.5 2080.91,-1030.5 2086.91,-1030.5 2092.91,-1036.5 2092.91,-1042.5 2092.91,-1042.5 2092.91,-1184.5 2092.91,-1184.5 2092.91,-1190.5 2086.91,-1196.5 2080.91,-1196.5 2080.91,-1196.5 1783.91,-1196.5 1783.91,-1196.5 1777.91,-1196.5 1771.91,-1190.5 1771.91,-1184.5 1771.91,-1184.5 1771.91,-1042.5 1771.91,-1042.5 1771.91,-1036.5 1777.91,-1030.5 1783.91,-1030.5"/>
<text text-anchor="middle" x="1932.41" y="-1181.3" font-family="Times,serif" font-size="14.00">SimulatorType</text>
<polyline fill="none" stroke="black" points="1771.91,-1173.5 2092.91,-1173.5 "/>
<text text-anchor="start" x="1779.91" y="-1158.3" font-family="Times,serif" font-size="14.00">id :integer</text>
<text text-anchor="start" x="1779.91" y="-1143.3" font-family="Times,serif" font-size="14.00">name :character varying</text>
<text text-anchor="start" x="1779.91" y="-1128.3" font-family="Times,serif" font-size="14.00">total_questions :integer</text>
<text text-anchor="start" x="1779.91" y="-1113.3" font-family="Times,serif" font-size="14.00">time_duration :time without time zone</text>
<text text-anchor="start" x="1779.91" y="-1098.3" font-family="Times,serif" font-size="14.00">created_at :timestamp without time zone</text>
<text text-anchor="start" x="1779.91" y="-1083.3" font-family="Times,serif" font-size="14.00">updated_at :timestamp without time zone</text>
<text text-anchor="start" x="1779.91" y="-1068.3" font-family="Times,serif" font-size="14.00">description :character varying</text>
<text text-anchor="start" x="1779.91" y="-1053.3" font-family="Times,serif" font-size="14.00">limit :integer</text>
<text text-anchor="start" x="1779.91" y="-1038.3" font-family="Times,serif" font-size="14.00">points :integer</text>
</g>
<!-- SimulatorType&#45;&gt;Simulator -->
<g id="edge41" class="edge"><title>SimulatorType&#45;&gt;Simulator</title>
<path fill="none" stroke="#b9e05e" d="M1927.21,-1022.13C1926.86,-1016.07 1926.51,-1009.94 1926.16,-1003.84"/>
<ellipse fill="none" stroke="#b9e05e" cx="1927.46" cy="-1026.4" rx="4" ry="4"/>
<polygon fill="#b9e05e" stroke="#b9e05e" points="1926.15,-1003.58 1930.06,-993.34 1925.86,-998.59 1925.57,-993.598 1925.57,-993.598 1925.57,-993.598 1925.86,-998.59 1921.08,-993.857 1926.15,-1003.58 1926.15,-1003.58"/>
</g>
<!-- University -->
<g id="node29" class="node"><title>University</title>
<path fill="none" stroke="black" d="M2796.91,-1631.5C2796.91,-1631.5 3093.91,-1631.5 3093.91,-1631.5 3099.91,-1631.5 3105.91,-1637.5 3105.91,-1643.5 3105.91,-1643.5 3105.91,-1785.5 3105.91,-1785.5 3105.91,-1791.5 3099.91,-1797.5 3093.91,-1797.5 3093.91,-1797.5 2796.91,-1797.5 2796.91,-1797.5 2790.91,-1797.5 2784.91,-1791.5 2784.91,-1785.5 2784.91,-1785.5 2784.91,-1643.5 2784.91,-1643.5 2784.91,-1637.5 2790.91,-1631.5 2796.91,-1631.5"/>
<text text-anchor="middle" x="2945.41" y="-1782.3" font-family="Times,serif" font-size="14.00">University</text>
<polyline fill="none" stroke="black" points="2784.91,-1774.5 3105.91,-1774.5 "/>
<text text-anchor="start" x="2792.91" y="-1759.3" font-family="Times,serif" font-size="14.00">id :integer</text>
<text text-anchor="start" x="2792.91" y="-1744.3" font-family="Times,serif" font-size="14.00">name :character varying</text>
<text text-anchor="start" x="2792.91" y="-1729.3" font-family="Times,serif" font-size="14.00">province :character varying</text>
<text text-anchor="start" x="2792.91" y="-1714.3" font-family="Times,serif" font-size="14.00">city :character varying</text>
<text text-anchor="start" x="2792.91" y="-1699.3" font-family="Times,serif" font-size="14.00">website :character varying</text>
<text text-anchor="start" x="2792.91" y="-1684.3" font-family="Times,serif" font-size="14.00">type :integer</text>
<text text-anchor="start" x="2792.91" y="-1669.3" font-family="Times,serif" font-size="14.00">logo :character varying</text>
<text text-anchor="start" x="2792.91" y="-1654.3" font-family="Times,serif" font-size="14.00">created_at :timestamp without time zone</text>
<text text-anchor="start" x="2792.91" y="-1639.3" font-family="Times,serif" font-size="14.00">updated_at :timestamp without time zone</text>
</g>
<!-- University&#45;&gt;Career -->
<g id="edge42" class="edge"><title>University&#45;&gt;Career</title>
<path fill="none" stroke="#ef900d" d="M2861.55,-1625.62C2825.55,-1587.88 2783.34,-1543.66 2746.39,-1504.93"/>
<ellipse fill="none" stroke="#ef900d" cx="2864.4" cy="-1628.6" rx="4.00002" ry="4.00002"/>
<polygon fill="#ef900d" stroke="#ef900d" points="2745.97,-1504.5 2742.32,-1494.16 2742.52,-1500.88 2739.07,-1497.26 2739.07,-1497.26 2739.07,-1497.26 2742.52,-1500.88 2735.81,-1500.37 2745.97,-1504.5 2745.97,-1504.5"/>
</g>
<!-- Resource&#45;&gt;ResourceProgress -->
<g id="edge43" class="edge"><title>Resource&#45;&gt;ResourceProgress</title>
<path fill="none" stroke="#f0678f" d="M994.329,-1033.19C1021.93,-1014.63 1051.2,-994.94 1078.35,-976.68"/>
<ellipse fill="none" stroke="#f0678f" cx="990.775" cy="-1035.58" rx="4.00002" ry="4.00002"/>
<polygon fill="#f0678f" stroke="#f0678f" points="1078.41,-976.643 1089.22,-974.796 1082.56,-973.852 1086.71,-971.062 1086.71,-971.062 1086.71,-971.062 1082.56,-973.852 1084.19,-967.328 1078.41,-976.643 1078.41,-976.643"/>
</g>
<!-- Task -->
<g id="node31" class="node"><title>Task</title>
<path fill="none" stroke="black" d="M96.9139,-1353.5C96.9139,-1353.5 393.914,-1353.5 393.914,-1353.5 399.914,-1353.5 405.914,-1359.5 405.914,-1365.5 405.914,-1365.5 405.914,-1447.5 405.914,-1447.5 405.914,-1453.5 399.914,-1459.5 393.914,-1459.5 393.914,-1459.5 96.9139,-1459.5 96.9139,-1459.5 90.9139,-1459.5 84.9139,-1453.5 84.9139,-1447.5 84.9139,-1447.5 84.9139,-1365.5 84.9139,-1365.5 84.9139,-1359.5 90.9139,-1353.5 96.9139,-1353.5"/>
<text text-anchor="middle" x="245.414" y="-1444.3" font-family="Times,serif" font-size="14.00">Task</text>
<polyline fill="none" stroke="black" points="84.9139,-1436.5 405.914,-1436.5 "/>
<text text-anchor="start" x="92.9139" y="-1421.3" font-family="Times,serif" font-size="14.00">id :integer</text>
<text text-anchor="start" x="92.9139" y="-1406.3" font-family="Times,serif" font-size="14.00">title :character varying</text>
<text text-anchor="start" x="92.9139" y="-1391.3" font-family="Times,serif" font-size="14.00">description :text</text>
<text text-anchor="start" x="92.9139" y="-1376.3" font-family="Times,serif" font-size="14.00">created_at :timestamp without time zone</text>
<text text-anchor="start" x="92.9139" y="-1361.3" font-family="Times,serif" font-size="14.00">updated_at :timestamp without time zone</text>
</g>
<!-- Task&#45;&gt;Question -->
<g id="edge46" class="edge"><title>Task&#45;&gt;Question</title>
<path fill="none" stroke="#320974" d="M286.954,-1346.69C317.615,-1307.98 362.847,-1259.68 414.414,-1233 503.969,-1186.66 569.226,-1270.35 638.414,-1197 756.425,-1071.89 559.169,-936.891 677.414,-812 800.143,-682.372 1321.95,-650.856 1596.67,-643.301"/>
<ellipse fill="none" stroke="#320974" cx="284.245" cy="-1350.16" rx="4.00002" ry="4.00002"/>
<polygon fill="#320974" stroke="#320974" points="1596.74,-643.299 1606.86,-647.53 1601.74,-643.165 1606.74,-643.032 1606.74,-643.032 1606.74,-643.032 1601.74,-643.165 1606.62,-638.533 1596.74,-643.299 1596.74,-643.299"/>
</g>
<!-- Task&#45;&gt;Answer -->
<g id="edge45" class="edge"><title>Task&#45;&gt;Answer</title>
<path fill="none" stroke="#674ff7" d="M247.8,-1344.89C251.3,-1250.62 257.414,-1063.15 257.414,-904 257.414,-904 257.414,-904 257.414,-383.5 257.414,-208.421 415.697,-217.339 580.414,-158 768.913,-90.0931 1359.02,-69.8446 1620.51,-64.1224"/>
<ellipse fill="none" stroke="#674ff7" cx="247.64" cy="-1349.17" rx="4" ry="4"/>
<polygon fill="#674ff7" stroke="#674ff7" points="1620.82,-64.1159 1630.91,-68.3997 1625.81,-64.0084 1630.81,-63.9008 1630.81,-63.9008 1630.81,-63.9008 1625.81,-64.0084 1630.72,-59.4018 1620.82,-64.1159 1620.82,-64.1159"/>
</g>
<!-- Task&#45;&gt;Resource -->
<g id="edge44" class="edge"><title>Task&#45;&gt;Resource</title>
<path fill="none" stroke="#699385" d="M286.469,-1346.75C317.055,-1307.82 362.396,-1259.24 414.414,-1233 517.787,-1180.86 560.572,-1226.93 672.414,-1197 684.069,-1193.88 695.953,-1190.28 707.833,-1186.35"/>
<ellipse fill="none" stroke="#699385" cx="283.761" cy="-1350.25" rx="4.00002" ry="4.00002"/>
<ellipse fill="#699385" stroke="#699385" cx="711.845" cy="-1185" rx="4.00001" ry="4.00001"/>
</g>
</g>
</svg>
