<?xml version="1.0" encoding="UTF-8" standalone="no"?>
<!DOCTYPE svg PUBLIC "-//W3C//DTD SVG 1.1//EN"
 "http://www.w3.org/Graphics/SVG/1.1/DTD/svg11.dtd">
<!-- Generated by graphviz version 2.38.0 (20140413.2041)
 -->
<!-- Title: models_diagram Pages: 1 -->
<svg width="1537pt" height="590pt"
 viewBox="0.00 0.00 1536.64 590.00" xmlns="http://www.w3.org/2000/svg" xmlns:xlink="http://www.w3.org/1999/xlink">
<g id="graph0" class="graph" transform="scale(1 1) rotate(0) translate(4 586)">
<title>models_diagram</title>
<polygon fill="none" stroke="none" points="-4,4 -4,-586 1532.64,-586 1532.64,4 -4,4"/>
<!-- _diagram_info -->
<g id="node1" class="node"><title>_diagram_info</title>
<text text-anchor="start" x="444.642" y="-567.6" font-family="Times,serif" font-size="13.00">Models diagram</text>
<text text-anchor="start" x="444.642" y="-553.6" font-family="Times,serif" font-size="13.00">Date: Jul 21 2016 &#45; 08:14</text>
<text text-anchor="start" x="444.642" y="-539.6" font-family="Times,serif" font-size="13.00">Migration version: 20160721110348</text>
<text text-anchor="start" x="444.642" y="-525.6" font-family="Times,serif" font-size="13.00">Generated by RailRoady 1.5.1</text>
<text text-anchor="start" x="444.642" y="-511.6" font-family="Times,serif" font-size="13.00">http://railroady.prestonlee.com</text>
</g>
<!-- Course -->
<g id="node2" class="node"><title>Course</title>
<ellipse fill="none" stroke="black" cx="730.642" cy="-543" rx="42.4939" ry="18"/>
<text text-anchor="middle" x="730.642" y="-539.3" font-family="Times,serif" font-size="14.00">Course</text>
</g>
<!-- Category -->
<g id="node5" class="node"><title>Category</title>
<ellipse fill="none" stroke="black" cx="285.642" cy="-378" rx="53.8905" ry="18"/>
<text text-anchor="middle" x="285.642" y="-374.3" font-family="Times,serif" font-size="14.00">Category</text>
</g>
<!-- Course&#45;&gt;Category -->
<g id="edge1" class="edge"><title>Course&#45;&gt;Category</title>
<path fill="none" stroke="#b4a9e2" d="M707.561,-520.75C699.318,-514.314 689.595,-507.92 679.642,-504 544.012,-450.586 480.564,-539.692 353.642,-468 328.389,-453.735 309.479,-425.88 298.093,-405.114"/>
<ellipse fill="none" stroke="#b4a9e2" cx="711.014" cy="-523.577" rx="4.00002" ry="4.00002"/>
<polygon fill="#b4a9e2" stroke="#b4a9e2" points="298.036,-405.004 297.382,-394.057 295.716,-400.575 293.396,-396.145 293.396,-396.145 293.396,-396.145 295.716,-400.575 289.409,-398.233 298.036,-405.004 298.036,-405.004"/>
</g>
<!-- User -->
<g id="node9" class="node"><title>User</title>
<ellipse fill="none" stroke="black" cx="730.642" cy="-450" rx="32.4942" ry="18"/>
<text text-anchor="middle" x="730.642" y="-446.3" font-family="Times,serif" font-size="14.00">User</text>
</g>
<!-- Course&#45;&gt;User -->
<g id="edge4" class="edge"><title>Course&#45;&gt;User</title>
<path fill="none" stroke="#5e3339" d="M730.642,-514.549C730.642,-503.083 730.642,-489.792 730.642,-478.339"/>
<polygon fill="#5e3339" stroke="#5e3339" points="730.642,-514.884 726.142,-524.884 730.642,-519.884 730.642,-524.884 730.642,-524.884 730.642,-524.884 730.642,-519.884 735.142,-524.884 730.642,-514.884 730.642,-514.884"/>
<polygon fill="#5e3339" stroke="#5e3339" points="730.642,-478.04 735.142,-468.04 730.642,-473.04 730.642,-468.04 730.642,-468.04 730.642,-468.04 730.642,-473.04 726.142,-468.04 730.642,-478.04 730.642,-478.04"/>
</g>
<!-- Test -->
<g id="node17" class="node"><title>Test</title>
<ellipse fill="none" stroke="black" cx="513.642" cy="-306" rx="31.6951" ry="18"/>
<text text-anchor="middle" x="513.642" y="-302.3" font-family="Times,serif" font-size="14.00">Test</text>
</g>
<!-- Course&#45;&gt;Test -->
<g id="edge5" class="edge"><title>Course&#45;&gt;Test</title>
<path fill="none" stroke="#af8462" d="M705.373,-521.781C697.354,-515.749 688.315,-509.33 679.642,-504 587.862,-447.592 519.363,-487.587 462.642,-396 454.218,-382.397 456.662,-374.84 462.642,-360 467.727,-347.383 477.41,-336.09 486.985,-327.203"/>
<ellipse fill="none" stroke="#af8462" cx="708.66" cy="-524.295" rx="4.00002" ry="4.00002"/>
<polygon fill="#af8462" stroke="#af8462" points="487.01,-327.181 497.506,-324.005 490.781,-323.896 494.551,-320.612 494.551,-320.612 494.551,-320.612 490.781,-323.896 491.595,-317.219 487.01,-327.181 487.01,-327.181"/>
</g>
<!-- CourseUser -->
<g id="node27" class="node"><title>CourseUser</title>
<ellipse fill="none" stroke="black" cx="1038.64" cy="-306" rx="63.8893" ry="18"/>
<text text-anchor="middle" x="1038.64" y="-302.3" font-family="Times,serif" font-size="14.00">CourseUser</text>
</g>
<!-- Course&#45;&gt;CourseUser -->
<g id="edge3" class="edge"><title>Course&#45;&gt;CourseUser</title>
<path fill="none" stroke="#092cd4" d="M774.487,-531.504C837.239,-514.178 951.986,-473.533 1014.64,-396 1028.75,-378.543 1034.6,-353.5 1037.01,-334.423"/>
<ellipse fill="none" stroke="#092cd4" cx="770.59" cy="-532.557" rx="4.00001" ry="4.00001"/>
<polygon fill="#092cd4" stroke="#092cd4" points="1037.03,-334.203 1042.52,-324.71 1037.54,-329.229 1038.05,-324.254 1038.05,-324.254 1038.05,-324.254 1037.54,-329.229 1033.57,-323.798 1037.03,-334.203 1037.03,-334.203"/>
</g>
<!-- Section -->
<g id="node28" class="node"><title>Section</title>
<ellipse fill="none" stroke="black" cx="1114.64" cy="-378" rx="45.4919" ry="18"/>
<text text-anchor="middle" x="1114.64" y="-374.3" font-family="Times,serif" font-size="14.00">Section</text>
</g>
<!-- Course&#45;&gt;Section -->
<g id="edge2" class="edge"><title>Course&#45;&gt;Section</title>
<path fill="none" stroke="#a0d998" d="M774.277,-531.012C805.513,-523.233 848.598,-512.684 886.642,-504 961.513,-486.911 992.157,-511.213 1055.64,-468 1078.16,-452.671 1094.27,-425.614 1103.91,-405.344"/>
<ellipse fill="none" stroke="#a0d998" cx="770.08" cy="-532.059" rx="4.00001" ry="4.00001"/>
<polygon fill="#a0d998" stroke="#a0d998" points="1104,-405.134 1112.22,-397.872 1106.06,-400.577 1108.12,-396.02 1108.12,-396.02 1108.12,-396.02 1106.06,-400.577 1104.01,-394.168 1104,-405.134 1104,-405.134"/>
</g>
<!-- License -->
<g id="node3" class="node"><title>License</title>
<ellipse fill="none" stroke="black" cx="693.642" cy="-378" rx="45.4919" ry="18"/>
<text text-anchor="middle" x="693.642" y="-374.3" font-family="Times,serif" font-size="14.00">License</text>
</g>
<!-- Tutorial -->
<g id="node4" class="node"><title>Tutorial</title>
<ellipse fill="none" stroke="black" cx="73.6423" cy="-234" rx="48.9926" ry="18"/>
<text text-anchor="middle" x="73.6423" y="-230.3" font-family="Times,serif" font-size="14.00">Tutorial</text>
</g>
<!-- Category&#45;&gt;Tutorial -->
<g id="edge9" class="edge"><title>Category&#45;&gt;Tutorial</title>
<path fill="none" stroke="#22676e" d="M224.123,-374.185C150.491,-369.376 33.7008,-356.682 6.64233,-324 -3.56119,-311.676 -0.328206,-302.402 6.64233,-288 13.2456,-274.357 25.254,-263.161 37.2997,-254.631"/>
<ellipse fill="none" stroke="#22676e" cx="228.444" cy="-374.456" rx="4" ry="4"/>
<polygon fill="#22676e" stroke="#22676e" points="37.6517,-254.399 48.4776,-252.652 41.8262,-251.647 46.0008,-248.895 46.0008,-248.895 46.0008,-248.895 41.8262,-251.647 43.524,-245.138 37.6517,-254.399 37.6517,-254.399"/>
</g>
<!-- SubCategory -->
<g id="node6" class="node"><title>SubCategory</title>
<ellipse fill="none" stroke="black" cx="306.642" cy="-306" rx="70.6878" ry="18"/>
<text text-anchor="middle" x="306.642" y="-302.3" font-family="Times,serif" font-size="14.00">SubCategory</text>
</g>
<!-- Category&#45;&gt;SubCategory -->
<g id="edge6" class="edge"><title>Category&#45;&gt;SubCategory</title>
<path fill="none" stroke="#306988" d="M293.062,-352.267C294.84,-346.34 296.748,-339.981 298.555,-333.959"/>
<ellipse fill="none" stroke="#306988" cx="291.875" cy="-356.224" rx="4.00001" ry="4.00001"/>
<polygon fill="#306988" stroke="#306988" points="298.586,-333.854 305.77,-325.568 300.023,-329.064 301.46,-324.275 301.46,-324.275 301.46,-324.275 300.023,-329.064 297.15,-322.982 298.586,-333.854 298.586,-333.854"/>
</g>
<!-- Question -->
<g id="node11" class="node"><title>Question</title>
<ellipse fill="none" stroke="black" cx="523.642" cy="-234" rx="51.9908" ry="18"/>
<text text-anchor="middle" x="523.642" y="-230.3" font-family="Times,serif" font-size="14.00">Question</text>
</g>
<!-- Category&#45;&gt;Question -->
<g id="edge7" class="edge"><title>Category&#45;&gt;Question</title>
<path fill="none" stroke="#1ea23b" d="M323.77,-358.051C342.876,-348.289 366.229,-335.952 386.642,-324 423.968,-302.146 465.438,-274.747 492.871,-256.164"/>
<polygon fill="#1ea23b" stroke="#1ea23b" points="323.681,-358.096 312.727,-358.61 319.222,-360.359 314.764,-362.622 314.764,-362.622 314.764,-362.622 319.222,-360.359 316.801,-366.635 323.681,-358.096 323.681,-358.096"/>
<polygon fill="#1ea23b" stroke="#1ea23b" points="492.992,-256.082 503.791,-254.18 497.126,-253.271 501.261,-250.459 501.261,-250.459 501.261,-250.459 497.126,-253.271 498.731,-246.738 492.992,-256.082 492.992,-256.082"/>
</g>
<!-- SimulatedCategory -->
<g id="node21" class="node"><title>SimulatedCategory</title>
<ellipse fill="none" stroke="black" cx="116.642" cy="-306" rx="100.983" ry="18"/>
<text text-anchor="middle" x="116.642" y="-302.3" font-family="Times,serif" font-size="14.00">SimulatedCategory</text>
</g>
<!-- Category&#45;&gt;SimulatedCategory -->
<g id="edge8" class="edge"><title>Category&#45;&gt;SimulatedCategory</title>
<path fill="none" stroke="#80e3b0" d="M245.55,-360.394C221.17,-350.295 189.9,-337.343 164.264,-326.725"/>
<ellipse fill="none" stroke="#80e3b0" cx="249.362" cy="-361.973" rx="4.00002" ry="4.00002"/>
<polygon fill="#80e3b0" stroke="#80e3b0" points="163.979,-326.607 156.462,-318.623 159.36,-324.694 154.74,-322.78 154.74,-322.78 154.74,-322.78 159.36,-324.694 153.018,-326.938 163.979,-326.607 163.979,-326.607"/>
</g>
<!-- SubCategory&#45;&gt;Tutorial -->
<g id="edge13" class="edge"><title>SubCategory&#45;&gt;Tutorial</title>
<path fill="none" stroke="#63d65c" d="M255.122,-289.522C214.867,-277.428 159.394,-260.762 120.407,-249.05"/>
<ellipse fill="none" stroke="#63d65c" cx="258.986" cy="-290.683" rx="4.00001" ry="4.00001"/>
<polygon fill="#63d65c" stroke="#63d65c" points="119.95,-248.912 111.668,-241.725 115.162,-247.474 110.373,-246.035 110.373,-246.035 110.373,-246.035 115.162,-247.474 109.078,-250.345 119.95,-248.912 119.95,-248.912"/>
</g>
<!-- Choice -->
<g id="node8" class="node"><title>Choice</title>
<ellipse fill="none" stroke="black" cx="408.642" cy="-90" rx="40.0939" ry="18"/>
<text text-anchor="middle" x="408.642" y="-86.3" font-family="Times,serif" font-size="14.00">Choice</text>
</g>
<!-- SubCategory&#45;&gt;Choice -->
<g id="edge11" class="edge"><title>SubCategory&#45;&gt;Choice</title>
<path fill="none" stroke="#0e71b3" d="M285.82,-280.033C260.487,-246.454 224.605,-186.103 254.642,-144 278.033,-111.213 323.07,-98.5039 358.424,-93.6799"/>
<polygon fill="#0e71b3" stroke="#0e71b3" points="285.849,-280.07 288.433,-290.727 288.917,-284.018 291.986,-287.966 291.986,-287.966 291.986,-287.966 288.917,-284.018 295.539,-285.204 285.849,-280.07 285.849,-280.07"/>
<polygon fill="#0e71b3" stroke="#0e71b3" points="358.651,-93.6529 369.113,-96.9385 363.616,-93.0615 368.581,-92.4701 368.581,-92.4701 368.581,-92.4701 363.616,-93.0615 368.049,-88.0017 358.651,-93.6529 358.651,-93.6529"/>
</g>
<!-- AnsweredQuestion -->
<g id="node10" class="node"><title>AnsweredQuestion</title>
<ellipse fill="none" stroke="black" cx="360.642" cy="-162" rx="97.4827" ry="18"/>
<text text-anchor="middle" x="360.642" y="-158.3" font-family="Times,serif" font-size="14.00">AnsweredQuestion</text>
</g>
<!-- SubCategory&#45;&gt;AnsweredQuestion -->
<g id="edge12" class="edge"><title>SubCategory&#45;&gt;AnsweredQuestion</title>
<path fill="none" stroke="#b1f4d8" d="M316.744,-278.436C326.4,-253.043 340.879,-214.969 350.537,-189.573"/>
<polygon fill="#b1f4d8" stroke="#b1f4d8" points="316.711,-278.525 308.95,-286.272 314.933,-283.198 313.156,-287.871 313.156,-287.871 313.156,-287.871 314.933,-283.198 317.362,-289.471 316.711,-278.525 316.711,-278.525"/>
<polygon fill="#b1f4d8" stroke="#b1f4d8" points="350.551,-189.536 358.312,-181.789 352.328,-184.863 354.106,-180.189 354.106,-180.189 354.106,-180.189 352.328,-184.863 349.899,-178.59 350.551,-189.536 350.551,-189.536"/>
</g>
<!-- SubCategory&#45;&gt;Question -->
<g id="edge10" class="edge"><title>SubCategory&#45;&gt;Question</title>
<path fill="none" stroke="#d14c48" d="M356.494,-288.919C392.902,-277.174 441.904,-261.367 477.432,-249.907"/>
<ellipse fill="none" stroke="#d14c48" cx="352.546" cy="-290.192" rx="4.00001" ry="4.00001"/>
<polygon fill="#d14c48" stroke="#d14c48" points="477.557,-249.866 488.455,-251.079 482.315,-248.331 487.074,-246.796 487.074,-246.796 487.074,-246.796 482.315,-248.331 485.692,-242.514 477.557,-249.866 477.557,-249.866"/>
</g>
<!-- Plan -->
<g id="node7" class="node"><title>Plan</title>
<ellipse fill="none" stroke="black" cx="1047.64" cy="-234" rx="30.5947" ry="18"/>
<text text-anchor="middle" x="1047.64" y="-230.3" font-family="Times,serif" font-size="14.00">Plan</text>
</g>
<!-- Plan&#45;&gt;CourseUser -->
<g id="edge15" class="edge"><title>Plan&#45;&gt;CourseUser</title>
<path fill="none" stroke="#89506d" d="M1050.73,-262.355C1050.27,-267.499 1049.57,-272.873 1048.7,-278.005"/>
<polygon fill="#89506d" stroke="#89506d" points="1050.74,-262.257 1055.83,-252.545 1051.03,-257.266 1051.33,-252.275 1051.33,-252.275 1051.33,-252.275 1051.03,-257.266 1046.84,-252.006 1050.74,-262.257 1050.74,-262.257"/>
<polygon fill="#89506d" stroke="#89506d" points="1048.66,-278.248 1042.29,-287.175 1047.68,-283.152 1046.7,-288.055 1046.7,-288.055 1046.7,-288.055 1047.68,-283.152 1051.11,-288.935 1048.66,-278.248 1048.66,-278.248"/>
</g>
<!-- CourseUserPlan -->
<g id="node29" class="node"><title>CourseUserPlan</title>
<ellipse fill="none" stroke="black" cx="1054.64" cy="-162" rx="83.3857" ry="18"/>
<text text-anchor="middle" x="1054.64" y="-158.3" font-family="Times,serif" font-size="14.00">CourseUserPlan</text>
</g>
<!-- Plan&#45;&gt;CourseUserPlan -->
<g id="edge14" class="edge"><title>Plan&#45;&gt;CourseUserPlan</title>
<path fill="none" stroke="#9e1a1c" d="M1050.18,-207.64C1050.74,-202.063 1051.33,-196.132 1051.89,-190.476"/>
<ellipse fill="none" stroke="#9e1a1c" cx="1049.77" cy="-211.716" rx="4" ry="4"/>
<polygon fill="#9e1a1c" stroke="#9e1a1c" points="1051.94,-190.055 1057.41,-180.552 1052.43,-185.08 1052.93,-180.104 1052.93,-180.104 1052.93,-180.104 1052.43,-185.08 1048.45,-179.657 1051.94,-190.055 1051.94,-190.055"/>
</g>
<!-- Answer -->
<g id="node15" class="node"><title>Answer</title>
<ellipse fill="none" stroke="black" cx="695.642" cy="-18" rx="46.2923" ry="18"/>
<text text-anchor="middle" x="695.642" y="-14.3" font-family="Times,serif" font-size="14.00">Answer</text>
</g>
<!-- Choice&#45;&gt;Answer -->
<g id="edge16" class="edge"><title>Choice&#45;&gt;Answer</title>
<path fill="none" stroke="#d545ac" d="M451.192,-78.622C503.774,-65.7971 593.002,-44.0343 647.88,-30.6494"/>
<ellipse fill="none" stroke="#d545ac" cx="447.147" cy="-79.6085" rx="4.00001" ry="4.00001"/>
<polygon fill="#d545ac" stroke="#d545ac" points="647.995,-30.6214 658.777,-32.6236 652.853,-29.4365 657.71,-28.2517 657.71,-28.2517 657.71,-28.2517 652.853,-29.4365 656.644,-23.8799 647.995,-30.6214 647.995,-30.6214"/>
</g>
<!-- User&#45;&gt;License -->
<g id="edge24" class="edge"><title>User&#45;&gt;License</title>
<path fill="none" stroke="#8dcdb5" d="M717.99,-425.062C714.275,-418.034 710.209,-410.343 706.483,-403.293"/>
<ellipse fill="none" stroke="#8dcdb5" cx="720.005" cy="-428.875" rx="4.00002" ry="4.00002"/>
<ellipse fill="#8dcdb5" stroke="#8dcdb5" cx="704.474" cy="-399.493" rx="4.00002" ry="4.00002"/>
</g>
<!-- User&#45;&gt;Category -->
<g id="edge17" class="edge"><title>User&#45;&gt;Category</title>
<path fill="none" stroke="#c528c2" d="M691.697,-442.962C628.648,-433.176 500.316,-413.21 391.642,-396 375.938,-393.513 358.928,-390.796 343.228,-388.278"/>
<ellipse fill="none" stroke="#c528c2" cx="695.834" cy="-443.604" rx="4.00001" ry="4.00001"/>
<polygon fill="#c528c2" stroke="#c528c2" points="343,-388.241 333.839,-382.213 338.063,-387.449 333.126,-386.656 333.126,-386.656 333.126,-386.656 338.063,-387.449 332.413,-391.099 343,-388.241 343,-388.241"/>
</g>
<!-- User&#45;&gt;SubCategory -->
<g id="edge18" class="edge"><title>User&#45;&gt;SubCategory</title>
<path fill="none" stroke="#be793d" d="M690.096,-447.604C630.718,-444.307 517.616,-433.229 429.642,-396 392.295,-380.195 355.41,-351.24 331.923,-330.65"/>
<ellipse fill="none" stroke="#be793d" cx="694.115" cy="-447.812" rx="4" ry="4"/>
<polygon fill="#be793d" stroke="#be793d" points="331.655,-330.411 327.192,-320.395 327.925,-327.081 324.195,-323.752 324.195,-323.752 324.195,-323.752 327.925,-327.081 321.198,-327.109 331.655,-330.411 331.655,-330.411"/>
</g>
<!-- User&#45;&gt;AnsweredQuestion -->
<g id="edge20" class="edge"><title>User&#45;&gt;AnsweredQuestion</title>
<path fill="none" stroke="#b87050" d="M690.266,-445.577C624.283,-439.25 497.217,-423.771 462.642,-396 396.891,-343.187 372.475,-239.493 364.315,-190.231"/>
<ellipse fill="none" stroke="#b87050" cx="694.403" cy="-445.965" rx="4" ry="4"/>
<polygon fill="#b87050" stroke="#b87050" points="364.308,-190.189 367.217,-179.616 363.54,-185.249 362.771,-180.308 362.771,-180.308 362.771,-180.308 363.54,-185.249 358.324,-181 364.308,-190.189 364.308,-190.189"/>
</g>
<!-- User&#45;&gt;Answer -->
<g id="edge23" class="edge"><title>User&#45;&gt;Answer</title>
<path fill="none" stroke="#46f944" d="M752.283,-427.846C761.624,-418.38 772.485,-406.913 781.642,-396 841.173,-325.05 899.74,-307.685 886.642,-216 876.66,-146.121 873.49,-117.641 819.642,-72 797.49,-53.224 767.695,-40.2006 742.863,-31.763"/>
<ellipse fill="none" stroke="#46f944" cx="749.22" cy="-430.918" rx="4.00002" ry="4.00002"/>
<polygon fill="#46f944" stroke="#46f944" points="742.776,-31.7348 734.657,-24.3631 738.021,-30.1887 733.266,-28.6426 733.266,-28.6426 733.266,-28.6426 738.021,-30.1887 731.874,-32.9221 742.776,-31.7348 742.776,-31.7348"/>
</g>
<!-- SimulatorAnsweredQuestion -->
<g id="node22" class="node"><title>SimulatorAnsweredQuestion</title>
<ellipse fill="none" stroke="black" cx="695.642" cy="-162" rx="143.775" ry="18"/>
<text text-anchor="middle" x="695.642" y="-158.3" font-family="Times,serif" font-size="14.00">SimulatorAnsweredQuestion</text>
</g>
<!-- User&#45;&gt;SimulatorAnsweredQuestion -->
<g id="edge21" class="edge"><title>User&#45;&gt;SimulatorAnsweredQuestion</title>
<path fill="none" stroke="#f269c9" d="M749.297,-427.056C755.802,-418.036 762.305,-407.108 765.642,-396 770.245,-380.676 770.028,-375.387 765.642,-360 750.161,-305.677 715.037,-306.055 698.642,-252 692.557,-231.935 692.077,-208.152 692.972,-190.221"/>
<ellipse fill="none" stroke="#f269c9" cx="746.79" cy="-430.365" rx="4.00002" ry="4.00002"/>
<polygon fill="#f269c9" stroke="#f269c9" points="692.977,-190.133 698.137,-180.456 693.312,-185.144 693.647,-180.155 693.647,-180.155 693.647,-180.155 693.312,-185.144 689.157,-179.854 692.977,-190.133 692.977,-190.133"/>
</g>
<!-- Simulator -->
<g id="node24" class="node"><title>Simulator</title>
<ellipse fill="none" stroke="black" cx="632.642" cy="-306" rx="56.59" ry="18"/>
<text text-anchor="middle" x="632.642" y="-302.3" font-family="Times,serif" font-size="14.00">Simulator</text>
</g>
<!-- User&#45;&gt;Simulator -->
<g id="edge19" class="edge"><title>User&#45;&gt;Simulator</title>
<path fill="none" stroke="#0ed1e5" d="M743.929,-425.181C752.587,-406.166 760.166,-379.562 747.642,-360 734.632,-339.679 711.639,-327.041 689.614,-319.232"/>
<ellipse fill="none" stroke="#0ed1e5" cx="742.087" cy="-428.973" rx="4.00002" ry="4.00002"/>
<polygon fill="#0ed1e5" stroke="#0ed1e5" points="689.442,-319.176 681.332,-311.796 684.689,-317.625 679.936,-316.074 679.936,-316.074 679.936,-316.074 684.689,-317.625 678.54,-320.352 689.442,-319.176 689.442,-319.176"/>
</g>
<!-- User&#45;&gt;CourseUser -->
<g id="edge22" class="edge"><title>User&#45;&gt;CourseUser</title>
<path fill="none" stroke="#f4ad59" d="M770.379,-444.606C832.889,-437.058 950.588,-420.085 984.642,-396 1006.33,-380.664 1020.91,-353.608 1029.4,-333.341"/>
<ellipse fill="none" stroke="#f4ad59" cx="766.278" cy="-445.093" rx="4.00001" ry="4.00001"/>
<polygon fill="#f4ad59" stroke="#f4ad59" points="1029.41,-333.318 1037.27,-325.671 1031.24,-328.668 1033.08,-324.018 1033.08,-324.018 1033.08,-324.018 1031.24,-328.668 1028.9,-322.364 1029.41,-333.318 1029.41,-333.318"/>
</g>
<!-- AnsweredQuestion&#45;&gt;Choice -->
<g id="edge25" class="edge"><title>AnsweredQuestion&#45;&gt;Choice</title>
<path fill="none" stroke="#789882" d="M377.967,-135.735C382.433,-129.222 387.233,-122.222 391.68,-115.736"/>
<polygon fill="#789882" stroke="#789882" points="377.917,-135.808 368.551,-141.51 375.089,-139.931 372.262,-144.055 372.262,-144.055 372.262,-144.055 375.089,-139.931 375.973,-146.6 377.917,-135.808 377.917,-135.808"/>
<polygon fill="#789882" stroke="#789882" points="391.805,-115.554 401.172,-109.852 394.633,-111.431 397.46,-107.307 397.46,-107.307 397.46,-107.307 394.633,-111.431 393.749,-104.762 391.805,-115.554 391.805,-115.554"/>
</g>
<!-- Question&#45;&gt;Choice -->
<g id="edge27" class="edge"><title>Question&#45;&gt;Choice</title>
<path fill="none" stroke="#671ff2" d="M510.6,-209.045C499.939,-190.436 483.861,-164.442 466.642,-144 457.259,-132.86 445.612,-121.792 435.223,-112.674"/>
<ellipse fill="none" stroke="#671ff2" cx="512.582" cy="-212.552" rx="4.00002" ry="4.00002"/>
<polygon fill="#671ff2" stroke="#671ff2" points="435.169,-112.628 430.513,-102.699 431.375,-109.371 427.582,-106.113 427.582,-106.113 427.582,-106.113 431.375,-109.371 424.65,-109.527 435.169,-112.628 435.169,-112.628"/>
</g>
<!-- Question&#45;&gt;AnsweredQuestion -->
<g id="edge28" class="edge"><title>Question&#45;&gt;AnsweredQuestion</title>
<path fill="none" stroke="#03aa8c" d="M484.633,-216.247C461.258,-206.209 431.411,-193.391 406.858,-182.847"/>
<ellipse fill="none" stroke="#03aa8c" cx="488.539" cy="-217.925" rx="4.00002" ry="4.00002"/>
<polygon fill="#03aa8c" stroke="#03aa8c" points="406.576,-182.726 399.164,-174.645 401.982,-180.753 397.388,-178.78 397.388,-178.78 397.388,-178.78 401.982,-180.753 395.612,-182.915 406.576,-182.726 406.576,-182.726"/>
</g>
<!-- Question&#45;&gt;Question -->
<g id="edge30" class="edge"><title>Question&#45;&gt;Question</title>
<path fill="none" stroke="#1ba2d2" d="M567.88,-247.498C582.232,-247.398 593.638,-242.899 593.638,-234 593.638,-225.513 583.264,-221.028 569.853,-220.544"/>
<ellipse fill="none" stroke="#1ba2d2" cx="563.652" cy="-247.294" rx="4" ry="4"/>
<polygon fill="#1ba2d2" stroke="#1ba2d2" points="569.65,-220.551 559.5,-216.402 564.653,-220.725 559.656,-220.899 559.656,-220.899 559.656,-220.899 564.653,-220.725 559.813,-225.396 569.65,-220.551 569.65,-220.551"/>
</g>
<!-- Question&#45;&gt;Answer -->
<g id="edge26" class="edge"><title>Question&#45;&gt;Answer</title>
<path fill="none" stroke="#493f0d" d="M524.596,-207.592C526.316,-188.826 530.864,-163.296 542.642,-144 571.516,-96.6997 624.884,-59.3157 660.329,-38.1709"/>
<ellipse fill="none" stroke="#493f0d" cx="524.288" cy="-211.704" rx="4" ry="4"/>
<polygon fill="#493f0d" stroke="#493f0d" points="660.734,-37.9347 671.639,-36.7828 665.053,-35.4153 669.371,-32.8959 669.371,-32.8959 669.371,-32.8959 665.053,-35.4153 667.104,-29.0089 660.734,-37.9347 660.734,-37.9347"/>
</g>
<!-- Question&#45;&gt;SimulatorAnsweredQuestion -->
<g id="edge29" class="edge"><title>Question&#45;&gt;SimulatorAnsweredQuestion</title>
<path fill="none" stroke="#3afc26" d="M563.539,-216.763C588.167,-206.74 619.956,-193.803 646.178,-183.131"/>
<ellipse fill="none" stroke="#3afc26" cx="559.699" cy="-218.326" rx="4.00001" ry="4.00001"/>
<polygon fill="#3afc26" stroke="#3afc26" points="646.301,-183.081 657.26,-183.479 650.932,-181.196 655.564,-179.311 655.564,-179.311 655.564,-179.311 650.932,-181.196 653.867,-175.143 646.301,-183.081 646.301,-183.081"/>
</g>
<!-- LiveClass -->
<g id="node12" class="node"><title>LiveClass</title>
<ellipse fill="none" stroke="black" cx="949.642" cy="-543" rx="53.8905" ry="18"/>
<text text-anchor="middle" x="949.642" y="-539.3" font-family="Times,serif" font-size="14.00">LiveClass</text>
</g>
<!-- Career -->
<g id="node13" class="node"><title>Career</title>
<ellipse fill="none" stroke="black" cx="1166.64" cy="-450" rx="42.4939" ry="18"/>
<text text-anchor="middle" x="1166.64" y="-446.3" font-family="Times,serif" font-size="14.00">Career</text>
</g>
<!-- Video -->
<g id="node14" class="node"><title>Video</title>
<ellipse fill="none" stroke="black" cx="1214.64" cy="-378" rx="36.2938" ry="18"/>
<text text-anchor="middle" x="1214.64" y="-374.3" font-family="Times,serif" font-size="14.00">Video</text>
</g>
<!-- Resource -->
<g id="node32" class="node"><title>Resource</title>
<ellipse fill="none" stroke="black" cx="1211.64" cy="-306" rx="53.0913" ry="18"/>
<text text-anchor="middle" x="1211.64" y="-302.3" font-family="Times,serif" font-size="14.00">Resource</text>
</g>
<!-- Video&#45;&gt;Resource -->
<g id="edge31" class="edge"><title>Video&#45;&gt;Resource</title>
<path fill="none" stroke="#047250" d="M1213.56,-351.64C1213.29,-345.348 1213,-338.605 1212.73,-332.316"/>
<ellipse fill="none" stroke="#047250" cx="1213.73" cy="-355.7" rx="4" ry="4"/>
<ellipse fill="#047250" stroke="#047250" cx="1212.55" cy="-328.101" rx="4" ry="4"/>
</g>
<!-- Point -->
<g id="node16" class="node"><title>Point</title>
<ellipse fill="none" stroke="black" cx="1370.64" cy="-450" rx="35.194" ry="18"/>
<text text-anchor="middle" x="1370.64" y="-446.3" font-family="Times,serif" font-size="14.00">Point</text>
</g>
<!-- Test&#45;&gt;Question -->
<g id="edge32" class="edge"><title>Test&#45;&gt;Question</title>
<path fill="none" stroke="#b9fb16" d="M517.265,-279.64C518.082,-273.92 518.953,-267.828 519.779,-262.042"/>
<ellipse fill="none" stroke="#b9fb16" cx="516.68" cy="-283.737" rx="4.00001" ry="4.00001"/>
<polygon fill="#b9fb16" stroke="#b9fb16" points="519.785,-262.004 525.654,-252.741 520.492,-257.054 521.199,-252.104 521.199,-252.104 521.199,-252.104 520.492,-257.054 516.744,-251.468 519.785,-262.004 519.785,-262.004"/>
</g>
<!-- Test&#45;&gt;Answer -->
<g id="edge33" class="edge"><title>Test&#45;&gt;Answer</title>
<path fill="none" stroke="#d19f39" d="M475.211,-298.783C391.743,-283.404 205.207,-237.839 254.642,-144 281.015,-93.9377 307.069,-92.9232 359.642,-72 453.193,-34.7691 571.17,-23.6213 639.542,-20.3279"/>
<ellipse fill="none" stroke="#d19f39" cx="479.257" cy="-299.511" rx="4.00001" ry="4.00001"/>
<polygon fill="#d19f39" stroke="#d19f39" points="639.679,-20.3219 649.868,-24.376 644.675,-20.1011 649.67,-19.8803 649.67,-19.8803 649.67,-19.8803 644.675,-20.1011 649.471,-15.3847 639.679,-20.3219 639.679,-20.3219"/>
</g>
<!-- CourseUserTest -->
<g id="node23" class="node"><title>CourseUserTest</title>
<ellipse fill="none" stroke="black" cx="792.642" cy="-234" rx="85.2851" ry="18"/>
<text text-anchor="middle" x="792.642" y="-230.3" font-family="Times,serif" font-size="14.00">CourseUserTest</text>
</g>
<!-- Test&#45;&gt;CourseUserTest -->
<g id="edge34" class="edge"><title>Test&#45;&gt;CourseUserTest</title>
<path fill="none" stroke="#d878ce" d="M547.908,-293.568C554.117,-291.622 560.553,-289.688 566.642,-288 619.357,-273.39 679.706,-259.373 724.774,-249.428"/>
<ellipse fill="none" stroke="#d878ce" cx="544.019" cy="-294.806" rx="4.00001" ry="4.00001"/>
<polygon fill="#d878ce" stroke="#d878ce" points="724.96,-249.387 735.693,-251.638 729.844,-248.315 734.728,-247.243 734.728,-247.243 734.728,-247.243 729.844,-248.315 733.763,-242.847 724.96,-249.387 724.96,-249.387"/>
</g>
<!-- Blog -->
<g id="node18" class="node"><title>Blog</title>
<ellipse fill="none" stroke="black" cx="1299.64" cy="-378" rx="30.5947" ry="18"/>
<text text-anchor="middle" x="1299.64" y="-374.3" font-family="Times,serif" font-size="14.00">Blog</text>
</g>
<!-- Blog&#45;&gt;Resource -->
<g id="edge35" class="edge"><title>Blog&#45;&gt;Resource</title>
<path fill="none" stroke="#37e702" d="M1275.75,-357.992C1264.03,-348.672 1249.89,-337.426 1237.88,-327.868"/>
<ellipse fill="none" stroke="#37e702" cx="1279.13" cy="-360.68" rx="4.00002" ry="4.00002"/>
<ellipse fill="#37e702" stroke="#37e702" cx="1234.58" cy="-325.246" rx="4.00002" ry="4.00002"/>
</g>
<!-- School -->
<g id="node19" class="node"><title>School</title>
<ellipse fill="none" stroke="black" cx="1106.64" cy="-543" rx="40.0939" ry="18"/>
<text text-anchor="middle" x="1106.64" y="-539.3" font-family="Times,serif" font-size="14.00">School</text>
</g>
<!-- School&#45;&gt;Career -->
<g id="edge36" class="edge"><title>School&#45;&gt;Career</title>
<path fill="none" stroke="#4f4ae4" d="M1122.23,-518.357C1130.77,-505.409 1141.35,-489.363 1150.04,-476.18"/>
<ellipse fill="none" stroke="#4f4ae4" cx="1119.85" cy="-521.97" rx="4.00002" ry="4.00002"/>
<polygon fill="#4f4ae4" stroke="#4f4ae4" points="1150.2,-475.934 1159.46,-470.062 1152.95,-471.759 1155.71,-467.585 1155.71,-467.585 1155.71,-467.585 1152.95,-471.759 1151.95,-465.108 1150.2,-475.934 1150.2,-475.934"/>
</g>
<!-- Student -->
<g id="node20" class="node"><title>Student</title>
<polygon fill="none" stroke="black" stroke-dasharray="1,5" points="1528.64,-561 1454.64,-561 1454.64,-525 1528.64,-525 1528.64,-561"/>
<text text-anchor="middle" x="1491.64" y="-539.3" font-family="Times,serif" font-size="14.00">Student</text>
</g>
<!-- CourseUserTest&#45;&gt;Answer -->
<g id="edge37" class="edge"><title>CourseUserTest&#45;&gt;Answer</title>
<path fill="none" stroke="#8e53dc" d="M824.007,-211.45C833.791,-202.912 843.389,-192.204 848.642,-180 854.968,-165.304 855.499,-158.456 848.642,-144 824.928,-94.0028 770.341,-57.3788 733.21,-37.1284"/>
<ellipse fill="none" stroke="#8e53dc" cx="820.68" cy="-214.195" rx="4.00002" ry="4.00002"/>
<polygon fill="#8e53dc" stroke="#8e53dc" points="733.009,-37.0218 726.284,-28.3595 728.592,-34.6782 724.175,-32.3346 724.175,-32.3346 724.175,-32.3346 728.592,-34.6782 722.066,-36.3097 733.009,-37.0218 733.009,-37.0218"/>
</g>
<!-- Simulator&#45;&gt;Question -->
<g id="edge39" class="edge"><title>Simulator&#45;&gt;Question</title>
<path fill="none" stroke="#9d0afb" d="M600.168,-284.145C586.186,-275.166 569.879,-264.693 555.919,-255.728"/>
<polygon fill="#9d0afb" stroke="#9d0afb" points="600.308,-284.234 606.29,-293.425 604.515,-286.936 608.722,-289.638 608.722,-289.638 608.722,-289.638 604.515,-286.936 611.153,-285.852 600.308,-284.234 600.308,-284.234"/>
<polygon fill="#9d0afb" stroke="#9d0afb" points="555.547,-255.489 549.564,-246.299 551.339,-252.787 547.132,-250.085 547.132,-250.085 547.132,-250.085 551.339,-252.787 544.701,-253.872 555.547,-255.489 555.547,-255.489"/>
</g>
<!-- Simulator&#45;&gt;SimulatorAnsweredQuestion -->
<g id="edge38" class="edge"><title>Simulator&#45;&gt;SimulatorAnsweredQuestion</title>
<path fill="none" stroke="#e442c3" d="M640.663,-280.147C646.788,-262.054 655.825,-237.124 665.642,-216 669.831,-206.987 674.989,-197.447 679.839,-188.983"/>
<ellipse fill="none" stroke="#e442c3" cx="639.328" cy="-284.147" rx="4.00001" ry="4.00001"/>
<polygon fill="#e442c3" stroke="#e442c3" points="679.871,-188.927 688.805,-182.567 682.396,-184.611 684.92,-180.295 684.92,-180.295 684.92,-180.295 682.396,-184.611 681.036,-178.023 679.871,-188.927 679.871,-188.927"/>
</g>
<!-- PointAction -->
<g id="node25" class="node"><title>PointAction</title>
<ellipse fill="none" stroke="black" cx="1370.64" cy="-543" rx="65.7887" ry="18"/>
<text text-anchor="middle" x="1370.64" y="-539.3" font-family="Times,serif" font-size="14.00">PointAction</text>
</g>
<!-- PointAction&#45;&gt;Point -->
<g id="edge40" class="edge"><title>PointAction&#45;&gt;Point</title>
<path fill="none" stroke="#ce631e" d="M1370.64,-516.729C1370.64,-504.725 1370.64,-490.362 1370.64,-478.129"/>
<ellipse fill="none" stroke="#ce631e" cx="1370.64" cy="-520.884" rx="4" ry="4"/>
<polygon fill="#ce631e" stroke="#ce631e" points="1370.64,-478.04 1375.14,-468.04 1370.64,-473.04 1370.64,-468.04 1370.64,-468.04 1370.64,-468.04 1370.64,-473.04 1366.14,-468.04 1370.64,-478.04 1370.64,-478.04"/>
</g>
<!-- ResourceProgress -->
<g id="node26" class="node"><title>ResourceProgress</title>
<ellipse fill="none" stroke="black" cx="1190.64" cy="-234" rx="94.7833" ry="18"/>
<text text-anchor="middle" x="1190.64" y="-230.3" font-family="Times,serif" font-size="14.00">ResourceProgress</text>
</g>
<!-- CourseUser&#45;&gt;Plan -->
<g id="edge44" class="edge"><title>CourseUser&#45;&gt;Plan</title>
<path fill="none" stroke="#e563ab" d="M1035.4,-279.514C1035.92,-272.977 1036.84,-265.961 1038.02,-259.476"/>
<ellipse fill="none" stroke="#e563ab" cx="1035.17" cy="-283.703" rx="4" ry="4"/>
<ellipse fill="#e563ab" stroke="#e563ab" cx="1038.85" cy="-255.538" rx="4.00001" ry="4.00001"/>
</g>
<!-- CourseUser&#45;&gt;CourseUserTest -->
<g id="edge42" class="edge"><title>CourseUser&#45;&gt;CourseUserTest</title>
<path fill="none" stroke="#8aef00" d="M987.701,-290.504C947.886,-279.175 892.512,-263.418 850.932,-251.586"/>
<ellipse fill="none" stroke="#8aef00" cx="991.664" cy="-291.632" rx="4.00001" ry="4.00001"/>
<polygon fill="#8aef00" stroke="#8aef00" points="850.831,-251.558 842.444,-244.493 846.022,-250.189 841.212,-248.821 841.212,-248.821 841.212,-248.821 846.022,-250.189 839.981,-253.149 850.831,-251.558 850.831,-251.558"/>
</g>
<!-- CourseUser&#45;&gt;ResourceProgress -->
<g id="edge41" class="edge"><title>CourseUser&#45;&gt;ResourceProgress</title>
<path fill="none" stroke="#1fef50" d="M1077.8,-286.967C1098.91,-277.244 1125.03,-265.217 1146.82,-255.183"/>
<ellipse fill="none" stroke="#1fef50" cx="1074.14" cy="-288.652" rx="4.00002" ry="4.00002"/>
<polygon fill="#1fef50" stroke="#1fef50" points="1147.09,-255.056 1158.06,-254.961 1151.63,-252.965 1156.17,-250.873 1156.17,-250.873 1156.17,-250.873 1151.63,-252.965 1154.29,-246.786 1147.09,-255.056 1147.09,-255.056"/>
</g>
<!-- CourseUser&#45;&gt;CourseUserPlan -->
<g id="edge43" class="edge"><title>CourseUser&#45;&gt;CourseUserPlan</title>
<path fill="none" stroke="#9b89cb" d="M1021.21,-281.411C1010.12,-263.399 999.288,-238.012 1007.64,-216 1011.93,-204.712 1019.84,-194.288 1027.96,-185.724"/>
<ellipse fill="none" stroke="#9b89cb" cx="1023.42" cy="-284.814" rx="4.00002" ry="4.00002"/>
<ellipse fill="#9b89cb" stroke="#9b89cb" cx="1031.04" cy="-182.657" rx="4.00002" ry="4.00002"/>
</g>
<!-- Section&#45;&gt;ResourceProgress -->
<g id="edge46" class="edge"><title>Section&#45;&gt;ResourceProgress</title>
<path fill="none" stroke="#15d926" d="M1122.33,-352.052C1128.47,-333.719 1137.98,-308.532 1149.64,-288 1155.22,-278.188 1162.45,-268.203 1169.29,-259.584"/>
<ellipse fill="none" stroke="#15d926" cx="1120.99" cy="-356.15" rx="4.00001" ry="4.00001"/>
<polygon fill="#15d926" stroke="#15d926" points="1169.33,-259.533 1179.14,-254.636 1172.49,-255.661 1175.66,-251.789 1175.66,-251.789 1175.66,-251.789 1172.49,-255.661 1172.17,-248.942 1169.33,-259.533 1169.33,-259.533"/>
</g>
<!-- Section&#45;&gt;Resource -->
<g id="edge45" class="edge"><title>Section&#45;&gt;Resource</title>
<path fill="none" stroke="#8c7272" d="M1142.37,-356.989C1154.65,-348.127 1169.12,-337.686 1181.65,-328.644"/>
<ellipse fill="none" stroke="#8c7272" cx="1138.93" cy="-359.47" rx="4.00002" ry="4.00002"/>
<polygon fill="#8c7272" stroke="#8c7272" points="1181.86,-328.496 1192.6,-326.293 1185.91,-325.57 1189.96,-322.644 1189.96,-322.644 1189.96,-322.644 1185.91,-325.57 1187.33,-318.995 1181.86,-328.496 1181.86,-328.496"/>
</g>
<!-- SimulatorType -->
<g id="node30" class="node"><title>SimulatorType</title>
<ellipse fill="none" stroke="black" cx="550.642" cy="-378" rx="79.0865" ry="18"/>
<text text-anchor="middle" x="550.642" y="-374.3" font-family="Times,serif" font-size="14.00">SimulatorType</text>
</g>
<!-- SimulatorType&#45;&gt;Simulator -->
<g id="edge47" class="edge"><title>SimulatorType&#45;&gt;Simulator</title>
<path fill="none" stroke="#0d7931" d="M576.231,-355.156C585.758,-347.023 596.586,-337.78 606.189,-329.582"/>
<ellipse fill="none" stroke="#0d7931" cx="573.117" cy="-357.814" rx="4.00002" ry="4.00002"/>
<polygon fill="#0d7931" stroke="#0d7931" points="606.308,-329.481 616.835,-326.411 610.111,-326.234 613.913,-322.988 613.913,-322.988 613.913,-322.988 610.111,-326.234 610.992,-319.566 606.308,-329.481 606.308,-329.481"/>
</g>
<!-- University -->
<g id="node31" class="node"><title>University</title>
<ellipse fill="none" stroke="black" cx="1225.64" cy="-543" rx="61.1893" ry="18"/>
<text text-anchor="middle" x="1225.64" y="-539.3" font-family="Times,serif" font-size="14.00">University</text>
</g>
<!-- University&#45;&gt;Career -->
<g id="edge48" class="edge"><title>University&#45;&gt;Career</title>
<path fill="none" stroke="#c83a77" d="M1210.03,-517.921C1201.64,-504.974 1191.3,-489.029 1182.82,-475.951"/>
<ellipse fill="none" stroke="#c83a77" cx="1212.37" cy="-521.527" rx="4.00002" ry="4.00002"/>
<polygon fill="#c83a77" stroke="#c83a77" points="1182.73,-475.817 1181.07,-464.979 1180.01,-471.622 1177.29,-467.427 1177.29,-467.427 1177.29,-467.427 1180.01,-471.622 1173.52,-469.875 1182.73,-475.817 1182.73,-475.817"/>
</g>
<!-- Resource&#45;&gt;ResourceProgress -->
<g id="edge49" class="edge"><title>Resource&#45;&gt;ResourceProgress</title>
<path fill="none" stroke="#d28f05" d="M1204.22,-280.267C1202.44,-274.34 1200.54,-267.981 1198.73,-261.959"/>
<ellipse fill="none" stroke="#d28f05" cx="1205.41" cy="-284.224" rx="4.00001" ry="4.00001"/>
<polygon fill="#d28f05" stroke="#d28f05" points="1198.7,-261.854 1200.14,-250.982 1197.26,-257.064 1195.82,-252.275 1195.82,-252.275 1195.82,-252.275 1197.26,-257.064 1191.51,-253.568 1198.7,-261.854 1198.7,-261.854"/>
</g>
<!-- Task -->
<g id="node33" class="node"><title>Task</title>
<ellipse fill="none" stroke="black" cx="943.642" cy="-378" rx="32.4942" ry="18"/>
<text text-anchor="middle" x="943.642" y="-374.3" font-family="Times,serif" font-size="14.00">Task</text>
</g>
<!-- Task&#45;&gt;Question -->
<g id="edge52" class="edge"><title>Task&#45;&gt;Question</title>
<path fill="none" stroke="#98a242" d="M909.957,-364.105C862.915,-346.247 774.75,-313.328 698.642,-288 656.287,-273.905 607.661,-259.303 572.433,-249.004"/>
<ellipse fill="none" stroke="#98a242" cx="913.96" cy="-365.627" rx="4.00001" ry="4.00001"/>
<polygon fill="#98a242" stroke="#98a242" points="572.012,-248.881 563.67,-241.764 567.212,-247.483 562.411,-246.085 562.411,-246.085 562.411,-246.085 567.212,-247.483 561.153,-250.405 572.012,-248.881 572.012,-248.881"/>
</g>
<!-- Task&#45;&gt;Answer -->
<g id="edge51" class="edge"><title>Task&#45;&gt;Answer</title>
<path fill="none" stroke="#6343bc" d="M943.642,-351.782C943.642,-323.392 943.642,-275.885 943.642,-235 943.642,-235 943.642,-235 943.642,-161 943.642,-120.031 949.058,-100.516 919.642,-72 895.687,-48.7775 807.686,-33.3011 749.378,-25.3455"/>
<ellipse fill="none" stroke="#6343bc" cx="943.642" cy="-355.951" rx="4" ry="4"/>
<polygon fill="#6343bc" stroke="#6343bc" points="749.129,-25.3125 739.81,-19.533 744.173,-24.6531 739.217,-23.9937 739.217,-23.9937 739.217,-23.9937 744.173,-24.6531 738.623,-28.4545 749.129,-25.3125 749.129,-25.3125"/>
</g>
<!-- Task&#45;&gt;Resource -->
<g id="edge50" class="edge"><title>Task&#45;&gt;Resource</title>
<path fill="none" stroke="#9c3e47" d="M980.252,-367.438C1027.54,-355.086 1110.02,-333.543 1162.67,-319.793"/>
<ellipse fill="none" stroke="#9c3e47" cx="976.193" cy="-368.498" rx="4.00001" ry="4.00001"/>
<ellipse fill="#9c3e47" stroke="#9c3e47" cx="1166.66" cy="-318.75" rx="4.00001" ry="4.00001"/>
</g>
</g>
</svg>
