<?xml version="1.0" encoding="UTF-8" standalone="no"?>
<!DOCTYPE svg PUBLIC "-//W3C//DTD SVG 1.1//EN"
 "http://www.w3.org/Graphics/SVG/1.1/DTD/svg11.dtd">
<!-- Generated by graphviz version 2.38.0 (20140413.2041)
 -->
<!-- Title: models_diagram Pages: 1 -->
<svg width="1900pt" height="590pt"
 viewBox="0.00 0.00 1899.55 590.00" xmlns="http://www.w3.org/2000/svg" xmlns:xlink="http://www.w3.org/1999/xlink">
<g id="graph0" class="graph" transform="scale(1 1) rotate(0) translate(4 586)">
<title>models_diagram</title>
<polygon fill="none" stroke="none" points="-4,4 -4,-586 1895.55,-586 1895.55,4 -4,4"/>
<!-- _diagram_info -->
<g id="node1" class="node"><title>_diagram_info</title>
<text text-anchor="start" x="704.547" y="-567.6" font-family="Times,serif" font-size="13.00">Models diagram</text>
<text text-anchor="start" x="704.547" y="-553.6" font-family="Times,serif" font-size="13.00">Date: Aug 08 2016 &#45; 16:14</text>
<text text-anchor="start" x="704.547" y="-539.6" font-family="Times,serif" font-size="13.00">Migration version: 20160801021612</text>
<text text-anchor="start" x="704.547" y="-525.6" font-family="Times,serif" font-size="13.00">Generated by RailRoady 1.5.1</text>
<text text-anchor="start" x="704.547" y="-511.6" font-family="Times,serif" font-size="13.00">http://railroady.prestonlee.com</text>
</g>
<!-- Course -->
<g id="node2" class="node"><title>Course</title>
<ellipse fill="none" stroke="black" cx="990.547" cy="-543" rx="42.4939" ry="18"/>
<text text-anchor="middle" x="990.547" y="-539.3" font-family="Times,serif" font-size="14.00">Course</text>
</g>
<!-- Category -->
<g id="node5" class="node"><title>Category</title>
<ellipse fill="none" stroke="black" cx="534.547" cy="-378" rx="53.8905" ry="18"/>
<text text-anchor="middle" x="534.547" y="-374.3" font-family="Times,serif" font-size="14.00">Category</text>
</g>
<!-- Course&#45;&gt;Category -->
<g id="edge1" class="edge"><title>Course&#45;&gt;Category</title>
<path fill="none" stroke="#662e40" d="M966.772,-521.122C958.598,-514.835 949.091,-508.435 939.547,-504 875.804,-474.379 852.998,-487.776 785.547,-468 711.51,-446.293 627.342,-415.068 577.711,-395.958"/>
<ellipse fill="none" stroke="#662e40" cx="970.171" cy="-523.835" rx="4.00002" ry="4.00002"/>
<polygon fill="#662e40" stroke="#662e40" points="577.585,-395.909 569.881,-388.106 572.922,-394.106 568.258,-392.303 568.258,-392.303 568.258,-392.303 572.922,-394.106 566.635,-396.501 577.585,-395.909 577.585,-395.909"/>
</g>
<!-- User -->
<g id="node9" class="node"><title>User</title>
<ellipse fill="none" stroke="black" cx="826.547" cy="-450" rx="32.4942" ry="18"/>
<text text-anchor="middle" x="826.547" y="-446.3" font-family="Times,serif" font-size="14.00">User</text>
</g>
<!-- Course&#45;&gt;User -->
<g id="edge4" class="edge"><title>Course&#45;&gt;User</title>
<path fill="none" stroke="#512a5e" d="M963.41,-520.202C955.891,-514.604 947.582,-508.81 939.547,-504 914.495,-489.001 884.508,-475.108 861.723,-465.312"/>
<polygon fill="#512a5e" stroke="#512a5e" points="963.861,-520.546 969.081,-530.19 967.836,-523.579 971.81,-526.612 971.81,-526.612 971.81,-526.612 967.836,-523.579 974.54,-523.035 963.861,-520.546 963.861,-520.546"/>
<polygon fill="#512a5e" stroke="#512a5e" points="861.64,-465.277 854.19,-457.23 857.037,-463.325 852.434,-461.373 852.434,-461.373 852.434,-461.373 857.037,-463.325 850.677,-465.516 861.64,-465.277 861.64,-465.277"/>
</g>
<!-- LiveClass -->
<g id="node12" class="node"><title>LiveClass</title>
<ellipse fill="none" stroke="black" cx="1274.55" cy="-450" rx="53.8905" ry="18"/>
<text text-anchor="middle" x="1274.55" y="-446.3" font-family="Times,serif" font-size="14.00">LiveClass</text>
</g>
<!-- Course&#45;&gt;LiveClass -->
<g id="edge6" class="edge"><title>Course&#45;&gt;LiveClass</title>
<path fill="none" stroke="#419b51" d="M1031.21,-528.972C1083.66,-512.164 1174.65,-483.01 1229.26,-465.51"/>
<ellipse fill="none" stroke="#419b51" cx="1027.21" cy="-530.252" rx="4.00001" ry="4.00001"/>
<ellipse fill="#419b51" stroke="#419b51" cx="1233.24" cy="-464.236" rx="4.00001" ry="4.00001"/>
</g>
<!-- Test -->
<g id="node18" class="node"><title>Test</title>
<ellipse fill="none" stroke="black" cx="1313.55" cy="-306" rx="31.6951" ry="18"/>
<text text-anchor="middle" x="1313.55" y="-302.3" font-family="Times,serif" font-size="14.00">Test</text>
</g>
<!-- Course&#45;&gt;Test -->
<g id="edge5" class="edge"><title>Course&#45;&gt;Test</title>
<path fill="none" stroke="#411393" d="M1019.32,-523.016C1041.45,-508.285 1072.68,-487.206 1099.55,-468 1168.4,-418.772 1247.55,-358.139 1287.53,-327.218"/>
<ellipse fill="none" stroke="#411393" cx="1015.81" cy="-525.352" rx="4.00002" ry="4.00002"/>
<polygon fill="#411393" stroke="#411393" points="1287.54,-327.208 1298.2,-324.644 1291.5,-324.147 1295.45,-321.086 1295.45,-321.086 1295.45,-321.086 1291.5,-324.147 1292.69,-317.528 1287.54,-327.208 1287.54,-327.208"/>
</g>
<!-- CourseUser -->
<g id="node28" class="node"><title>CourseUser</title>
<ellipse fill="none" stroke="black" cx="1170.55" cy="-306" rx="63.8893" ry="18"/>
<text text-anchor="middle" x="1170.55" y="-302.3" font-family="Times,serif" font-size="14.00">CourseUser</text>
</g>
<!-- Course&#45;&gt;CourseUser -->
<g id="edge3" class="edge"><title>Course&#45;&gt;CourseUser</title>
<path fill="none" stroke="#6c1b2d" d="M1014.3,-520.973C1043.62,-494.123 1093.74,-445.218 1127.55,-396 1140.99,-376.427 1152.46,-352.01 1160.17,-333.705"/>
<ellipse fill="none" stroke="#6c1b2d" cx="1011.33" cy="-523.67" rx="4.00002" ry="4.00002"/>
<polygon fill="#6c1b2d" stroke="#6c1b2d" points="1160.26,-333.487 1168.22,-325.94 1162.16,-328.86 1164.05,-324.233 1164.05,-324.233 1164.05,-324.233 1162.16,-328.86 1159.89,-322.527 1160.26,-333.487 1160.26,-333.487"/>
</g>
<!-- Section -->
<g id="node29" class="node"><title>Section</title>
<ellipse fill="none" stroke="black" cx="215.547" cy="-306" rx="45.4919" ry="18"/>
<text text-anchor="middle" x="215.547" y="-302.3" font-family="Times,serif" font-size="14.00">Section</text>
</g>
<!-- Course&#45;&gt;Section -->
<g id="edge2" class="edge"><title>Course&#45;&gt;Section</title>
<path fill="none" stroke="#3040f7" d="M967.404,-520.902C959.157,-514.478 949.447,-508.051 939.547,-504 830.766,-459.481 791.83,-495.475 677.547,-468 516.774,-429.348 333.356,-356.379 254.704,-323.637"/>
<ellipse fill="none" stroke="#3040f7" cx="970.859" cy="-523.719" rx="4.00002" ry="4.00002"/>
<polygon fill="#3040f7" stroke="#3040f7" points="254.423,-323.52 246.933,-315.51 249.81,-321.591 245.197,-319.662 245.197,-319.662 245.197,-319.662 249.81,-321.591 243.461,-323.814 254.423,-323.52 254.423,-323.52"/>
</g>
<!-- License -->
<g id="node3" class="node"><title>License</title>
<ellipse fill="none" stroke="black" cx="753.547" cy="-378" rx="45.4919" ry="18"/>
<text text-anchor="middle" x="753.547" y="-374.3" font-family="Times,serif" font-size="14.00">License</text>
</g>
<!-- Tutorial -->
<g id="node4" class="node"><title>Tutorial</title>
<ellipse fill="none" stroke="black" cx="95.5473" cy="-234" rx="48.9926" ry="18"/>
<text text-anchor="middle" x="95.5473" y="-230.3" font-family="Times,serif" font-size="14.00">Tutorial</text>
</g>
<!-- SubCategory -->
<g id="node6" class="node"><title>SubCategory</title>
<ellipse fill="none" stroke="black" cx="689.547" cy="-306" rx="70.6878" ry="18"/>
<text text-anchor="middle" x="689.547" y="-302.3" font-family="Times,serif" font-size="14.00">SubCategory</text>
</g>
<!-- Category&#45;&gt;SubCategory -->
<g id="edge7" class="edge"><title>Category&#45;&gt;SubCategory</title>
<path fill="none" stroke="#0099d0" d="M572.52,-359.851C595.064,-349.67 623.703,-336.736 647.006,-326.212"/>
<ellipse fill="none" stroke="#0099d0" cx="568.816" cy="-361.524" rx="4.00002" ry="4.00002"/>
<polygon fill="#0099d0" stroke="#0099d0" points="647.191,-326.129 658.157,-326.114 651.748,-324.071 656.305,-322.013 656.305,-322.013 656.305,-322.013 651.748,-324.071 654.453,-317.912 647.191,-326.129 647.191,-326.129"/>
</g>
<!-- Question -->
<g id="node11" class="node"><title>Question</title>
<ellipse fill="none" stroke="black" cx="919.547" cy="-234" rx="51.9908" ry="18"/>
<text text-anchor="middle" x="919.547" y="-230.3" font-family="Times,serif" font-size="14.00">Question</text>
</g>
<!-- Category&#45;&gt;Question -->
<g id="edge8" class="edge"><title>Category&#45;&gt;Question</title>
<path fill="none" stroke="#bf0dd6" d="M594.049,-368.874C642.5,-361.016 712.043,-346.879 769.547,-324 813.913,-306.348 860.536,-276.674 889.802,-256.486"/>
<polygon fill="#bf0dd6" stroke="#bf0dd6" points="593.919,-368.895 583.339,-366.012 588.98,-369.676 584.042,-370.456 584.042,-370.456 584.042,-370.456 588.98,-369.676 584.745,-374.901 593.919,-368.895 593.919,-368.895"/>
<polygon fill="#bf0dd6" stroke="#bf0dd6" points="890.106,-256.274 900.881,-254.239 894.205,-253.412 898.305,-250.549 898.305,-250.549 898.305,-250.549 894.205,-253.412 895.729,-246.859 890.106,-256.274 890.106,-256.274"/>
</g>
<!-- SimulatedCategory -->
<g id="node22" class="node"><title>SimulatedCategory</title>
<ellipse fill="none" stroke="black" cx="379.547" cy="-306" rx="100.983" ry="18"/>
<text text-anchor="middle" x="379.547" y="-302.3" font-family="Times,serif" font-size="14.00">SimulatedCategory</text>
</g>
<!-- Category&#45;&gt;SimulatedCategory -->
<g id="edge9" class="edge"><title>Category&#45;&gt;SimulatedCategory</title>
<path fill="none" stroke="#ee9862" d="M496.431,-359.786C474.485,-349.875 446.801,-337.373 423.885,-327.023"/>
<ellipse fill="none" stroke="#ee9862" cx="500.279" cy="-361.524" rx="4.00002" ry="4.00002"/>
<polygon fill="#ee9862" stroke="#ee9862" points="423.825,-326.997 416.564,-318.779 419.268,-324.939 414.712,-322.881 414.712,-322.881 414.712,-322.881 419.268,-324.939 412.859,-326.982 423.825,-326.997 423.825,-326.997"/>
</g>
<!-- SubCategory&#45;&gt;Tutorial -->
<g id="edge13" class="edge"><title>SubCategory&#45;&gt;Tutorial</title>
<path fill="none" stroke="#f0f16e" d="M622.725,-294.695C606.035,-292.308 588.158,-289.91 571.547,-288 386.303,-266.697 336.813,-286.394 153.547,-252 149.371,-251.216 145.064,-250.255 140.772,-249.192"/>
<ellipse fill="none" stroke="#f0f16e" cx="626.854" cy="-295.291" rx="4.00001" ry="4.00001"/>
<polygon fill="#f0f16e" stroke="#f0f16e" points="140.522,-249.126 132.01,-242.213 135.689,-247.844 130.856,-246.563 130.856,-246.563 130.856,-246.563 135.689,-247.844 129.703,-250.912 140.522,-249.126 140.522,-249.126"/>
</g>
<!-- Choice -->
<g id="node8" class="node"><title>Choice</title>
<ellipse fill="none" stroke="black" cx="795.547" cy="-90" rx="40.0939" ry="18"/>
<text text-anchor="middle" x="795.547" y="-86.3" font-family="Times,serif" font-size="14.00">Choice</text>
</g>
<!-- SubCategory&#45;&gt;Choice -->
<g id="edge11" class="edge"><title>SubCategory&#45;&gt;Choice</title>
<path fill="none" stroke="#e49003" d="M669.668,-279.505C645.934,-245.732 612.939,-185.591 642.547,-144 665.695,-111.484 710.23,-98.7335 745.309,-93.8254"/>
<polygon fill="#e49003" stroke="#e49003" points="669.884,-279.802 672.116,-290.539 672.821,-283.849 675.758,-287.895 675.758,-287.895 675.758,-287.895 672.821,-283.849 679.4,-285.252 669.884,-279.802 669.884,-279.802"/>
<polygon fill="#e49003" stroke="#e49003" points="745.465,-93.8063 755.938,-97.0562 750.428,-93.198 755.391,-92.5897 755.391,-92.5897 755.391,-92.5897 750.428,-93.198 754.843,-88.1231 745.465,-93.8063 745.465,-93.8063"/>
</g>
<!-- AnsweredQuestion -->
<g id="node10" class="node"><title>AnsweredQuestion</title>
<ellipse fill="none" stroke="black" cx="748.547" cy="-162" rx="97.4827" ry="18"/>
<text text-anchor="middle" x="748.547" y="-158.3" font-family="Times,serif" font-size="14.00">AnsweredQuestion</text>
</g>
<!-- SubCategory&#45;&gt;AnsweredQuestion -->
<g id="edge12" class="edge"><title>SubCategory&#45;&gt;AnsweredQuestion</title>
<path fill="none" stroke="#c85b9e" d="M700.584,-278.436C711.135,-253.043 726.954,-214.969 737.506,-189.573"/>
<polygon fill="#c85b9e" stroke="#c85b9e" points="700.501,-278.637 692.508,-286.145 698.583,-283.254 696.664,-287.871 696.664,-287.871 696.664,-287.871 698.583,-283.254 700.82,-289.598 700.501,-278.637 700.501,-278.637"/>
<polygon fill="#c85b9e" stroke="#c85b9e" points="737.568,-189.424 745.561,-181.916 739.487,-184.807 741.405,-180.189 741.405,-180.189 741.405,-180.189 739.487,-184.807 737.25,-178.463 737.568,-189.424 737.568,-189.424"/>
</g>
<!-- SubCategory&#45;&gt;Question -->
<g id="edge10" class="edge"><title>SubCategory&#45;&gt;Question</title>
<path fill="none" stroke="#c74bd6" d="M740.851,-289.386C780.088,-277.444 833.776,-261.104 872.038,-249.459"/>
<ellipse fill="none" stroke="#c74bd6" cx="736.906" cy="-290.587" rx="4.00001" ry="4.00001"/>
<polygon fill="#c74bd6" stroke="#c74bd6" points="872.338,-249.368 883.215,-250.762 877.121,-247.912 881.904,-246.457 881.904,-246.457 881.904,-246.457 877.121,-247.912 880.594,-242.152 872.338,-249.368 872.338,-249.368"/>
</g>
<!-- Plan -->
<g id="node7" class="node"><title>Plan</title>
<ellipse fill="none" stroke="black" cx="1170.55" cy="-234" rx="30.5947" ry="18"/>
<text text-anchor="middle" x="1170.55" y="-230.3" font-family="Times,serif" font-size="14.00">Plan</text>
</g>
<!-- Plan&#45;&gt;CourseUser -->
<g id="edge15" class="edge"><title>Plan&#45;&gt;CourseUser</title>
<path fill="none" stroke="#0ff6fe" d="M1177.14,-261.968C1177.35,-267.176 1177.35,-272.634 1177.14,-277.848"/>
<polygon fill="#0ff6fe" stroke="#0ff6fe" points="1177.12,-261.764 1180.9,-251.468 1176.77,-256.776 1176.41,-251.789 1176.41,-251.789 1176.41,-251.789 1176.77,-256.776 1171.92,-252.11 1177.12,-261.764 1177.12,-261.764"/>
<polygon fill="#0ff6fe" stroke="#0ff6fe" points="1177.13,-278.08 1171.94,-287.739 1176.78,-283.067 1176.43,-288.055 1176.43,-288.055 1176.43,-288.055 1176.78,-283.067 1180.91,-288.371 1177.13,-278.08 1177.13,-278.08"/>
</g>
<!-- CourseUserPlan -->
<g id="node30" class="node"><title>CourseUserPlan</title>
<ellipse fill="none" stroke="black" cx="1328.55" cy="-162" rx="83.3857" ry="18"/>
<text text-anchor="middle" x="1328.55" y="-158.3" font-family="Times,serif" font-size="14.00">CourseUserPlan</text>
</g>
<!-- Plan&#45;&gt;CourseUserPlan -->
<g id="edge14" class="edge"><title>Plan&#45;&gt;CourseUserPlan</title>
<path fill="none" stroke="#fac64c" d="M1201.68,-219.207C1225.25,-208.766 1257.93,-194.284 1284.23,-182.635"/>
<ellipse fill="none" stroke="#fac64c" cx="1197.86" cy="-220.9" rx="4.00002" ry="4.00002"/>
<polygon fill="#fac64c" stroke="#fac64c" points="1284.45,-182.535 1295.42,-182.599 1289.03,-180.51 1293.6,-178.484 1293.6,-178.484 1293.6,-178.484 1289.03,-180.51 1291.77,-174.37 1284.45,-182.535 1284.45,-182.535"/>
</g>
<!-- Answer -->
<g id="node16" class="node"><title>Answer</title>
<ellipse fill="none" stroke="black" cx="853.547" cy="-18" rx="46.2923" ry="18"/>
<text text-anchor="middle" x="853.547" y="-14.3" font-family="Times,serif" font-size="14.00">Answer</text>
</g>
<!-- Choice&#45;&gt;Answer -->
<g id="edge16" class="edge"><title>Choice&#45;&gt;Answer</title>
<path fill="none" stroke="#414cfe" d="M814.233,-66.4478C820.329,-59.0906 827.124,-50.8898 833.328,-43.4031"/>
<ellipse fill="none" stroke="#414cfe" cx="811.552" cy="-69.6846" rx="4.00002" ry="4.00002"/>
<polygon fill="#414cfe" stroke="#414cfe" points="833.385,-43.3336 843.23,-38.5045 836.575,-39.4835 839.765,-35.6334 839.765,-35.6334 839.765,-35.6334 836.575,-39.4835 836.3,-32.7623 833.385,-43.3336 833.385,-43.3336"/>
</g>
<!-- User&#45;&gt;License -->
<g id="edge24" class="edge"><title>User&#45;&gt;License</title>
<path fill="none" stroke="#9568b1" d="M805.11,-428.444C795.917,-419.628 785.177,-409.33 775.886,-400.421"/>
<ellipse fill="none" stroke="#9568b1" cx="808.179" cy="-431.386" rx="4.00002" ry="4.00002"/>
<ellipse fill="#9568b1" stroke="#9568b1" cx="772.908" cy="-397.565" rx="4.00002" ry="4.00002"/>
</g>
<!-- User&#45;&gt;Category -->
<g id="edge17" class="edge"><title>User&#45;&gt;Category</title>
<path fill="none" stroke="#1d27fd" d="M789.243,-440.325C744.755,-429.946 668.163,-411.964 602.547,-396 597.226,-394.705 591.675,-393.341 586.139,-391.971"/>
<ellipse fill="none" stroke="#1d27fd" cx="793.27" cy="-441.265" rx="4.00001" ry="4.00001"/>
<polygon fill="#1d27fd" stroke="#1d27fd" points="585.947,-391.923 577.327,-385.145 581.095,-390.718 576.242,-389.512 576.242,-389.512 576.242,-389.512 581.095,-390.718 575.157,-393.88 585.947,-391.923 585.947,-391.923"/>
</g>
<!-- User&#45;&gt;SubCategory -->
<g id="edge18" class="edge"><title>User&#45;&gt;SubCategory</title>
<path fill="none" stroke="#d595a5" d="M787.276,-443.361C758.257,-437.011 720.32,-423.688 699.547,-396 686.46,-378.556 684.711,-353.512 685.805,-334.431"/>
<ellipse fill="none" stroke="#d595a5" cx="791.284" cy="-444.176" rx="4.00001" ry="4.00001"/>
<polygon fill="#d595a5" stroke="#d595a5" points="685.823,-334.223 691.166,-324.647 686.253,-329.242 686.682,-324.26 686.682,-324.26 686.682,-324.26 686.253,-329.242 682.199,-323.874 685.823,-334.223 685.823,-334.223"/>
</g>
<!-- User&#45;&gt;AnsweredQuestion -->
<g id="edge20" class="edge"><title>User&#45;&gt;AnsweredQuestion</title>
<path fill="none" stroke="#412470" d="M821.699,-423.638C818.144,-405.762 813.003,-381.309 807.547,-360 791.803,-298.51 769.472,-227.415 757.295,-189.711"/>
<ellipse fill="none" stroke="#412470" cx="822.54" cy="-427.918" rx="4.00001" ry="4.00001"/>
<polygon fill="#412470" stroke="#412470" points="757.23,-189.51 758.425,-178.61 755.687,-184.754 754.144,-179.998 754.144,-179.998 754.144,-179.998 755.687,-184.754 749.864,-181.387 757.23,-189.51 757.23,-189.51"/>
</g>
<!-- User&#45;&gt;Answer -->
<g id="edge23" class="edge"><title>User&#45;&gt;Answer</title>
<path fill="none" stroke="#5a2f98" d="M789.213,-439.985C758.908,-431.591 715.891,-417.165 682.547,-396 644.074,-371.578 627.131,-366.041 609.547,-324 603.373,-309.239 608.553,-303.969 609.547,-288 613.555,-223.627 592.443,-198.108 627.547,-144 668.241,-81.2761 751.811,-47.2294 805.134,-31.1139"/>
<ellipse fill="none" stroke="#5a2f98" cx="793.154" cy="-441.049" rx="4.00001" ry="4.00001"/>
<polygon fill="#5a2f98" stroke="#5a2f98" points="805.448,-31.0222 816.309,-32.5381 810.248,-29.6204 815.047,-28.2186 815.047,-28.2186 815.047,-28.2186 810.248,-29.6204 813.786,-23.8991 805.448,-31.0222 805.448,-31.0222"/>
</g>
<!-- SimulatorAnsweredQuestion -->
<g id="node23" class="node"><title>SimulatorAnsweredQuestion</title>
<ellipse fill="none" stroke="black" cx="1083.55" cy="-162" rx="143.775" ry="18"/>
<text text-anchor="middle" x="1083.55" y="-158.3" font-family="Times,serif" font-size="14.00">SimulatorAnsweredQuestion</text>
</g>
<!-- User&#45;&gt;SimulatorAnsweredQuestion -->
<g id="edge21" class="edge"><title>User&#45;&gt;SimulatorAnsweredQuestion</title>
<path fill="none" stroke="#e34de2" d="M866.541,-445.45C926.251,-439.272 1034.39,-424.399 1059.55,-396 1110.68,-338.267 1099.22,-238.194 1089.85,-190.203"/>
<ellipse fill="none" stroke="#e34de2" cx="862.431" cy="-445.864" rx="4" ry="4"/>
<polygon fill="#e34de2" stroke="#e34de2" points="1089.82,-190.04 1092.19,-179.335 1088.8,-185.144 1087.79,-180.248 1087.79,-180.248 1087.79,-180.248 1088.8,-185.144 1083.38,-181.162 1089.82,-190.04 1089.82,-190.04"/>
</g>
<!-- Simulator -->
<g id="node25" class="node"><title>Simulator</title>
<ellipse fill="none" stroke="black" cx="941.547" cy="-306" rx="56.59" ry="18"/>
<text text-anchor="middle" x="941.547" y="-302.3" font-family="Times,serif" font-size="14.00">Simulator</text>
</g>
<!-- User&#45;&gt;Simulator -->
<g id="edge19" class="edge"><title>User&#45;&gt;Simulator</title>
<path fill="none" stroke="#ed4fdd" d="M839.396,-425.382C850.056,-406.751 866.224,-380.566 883.547,-360 892.561,-349.299 903.664,-338.664 913.734,-329.76"/>
<ellipse fill="none" stroke="#ed4fdd" cx="837.418" cy="-428.888" rx="4.00002" ry="4.00002"/>
<polygon fill="#ed4fdd" stroke="#ed4fdd" points="913.963,-329.562 924.472,-326.427 917.746,-326.292 921.529,-323.023 921.529,-323.023 921.529,-323.023 917.746,-326.292 918.587,-319.618 913.963,-329.562 913.963,-329.562"/>
</g>
<!-- User&#45;&gt;CourseUser -->
<g id="edge22" class="edge"><title>User&#45;&gt;CourseUser</title>
<path fill="none" stroke="#b03846" d="M867.25,-448.853C922.009,-446.96 1020.8,-437.453 1092.55,-396 1119.05,-380.689 1141.12,-353.064 1154.94,-332.638"/>
<ellipse fill="none" stroke="#b03846" cx="863.172" cy="-448.972" rx="4" ry="4"/>
<polygon fill="#b03846" stroke="#b03846" points="1155.05,-332.474 1164.29,-326.571 1157.78,-328.291 1160.52,-324.107 1160.52,-324.107 1160.52,-324.107 1157.78,-328.291 1156.76,-321.643 1155.05,-332.474 1155.05,-332.474"/>
</g>
<!-- AnsweredQuestion&#45;&gt;Choice -->
<g id="edge25" class="edge"><title>AnsweredQuestion&#45;&gt;Choice</title>
<path fill="none" stroke="#3e48b3" d="M765.618,-135.575C769.792,-129.359 774.258,-122.707 778.434,-116.489"/>
<polygon fill="#3e48b3" stroke="#3e48b3" points="765.499,-135.753 756.189,-141.546 762.712,-139.904 759.925,-144.055 759.925,-144.055 759.925,-144.055 762.712,-139.904 763.661,-146.563 765.499,-135.753 765.499,-135.753"/>
<polygon fill="#3e48b3" stroke="#3e48b3" points="778.7,-116.091 788.011,-110.297 781.487,-111.94 784.275,-107.789 784.275,-107.789 784.275,-107.789 781.487,-111.94 780.539,-105.281 778.7,-116.091 778.7,-116.091"/>
</g>
<!-- Question&#45;&gt;Choice -->
<g id="edge27" class="edge"><title>Question&#45;&gt;Choice</title>
<path fill="none" stroke="#0ce00e" d="M904.146,-209.177C891.7,-190.639 873.234,-164.678 854.547,-144 844.616,-133.01 832.612,-121.898 822.032,-112.706"/>
<ellipse fill="none" stroke="#0ce00e" cx="906.557" cy="-212.805" rx="4.00002" ry="4.00002"/>
<polygon fill="#0ce00e" stroke="#0ce00e" points="821.883,-112.578 817.199,-102.663 818.08,-109.332 814.277,-106.085 814.277,-106.085 814.277,-106.085 818.08,-109.332 811.355,-109.508 821.883,-112.578 821.883,-112.578"/>
</g>
<!-- Question&#45;&gt;AnsweredQuestion -->
<g id="edge28" class="edge"><title>Question&#45;&gt;AnsweredQuestion</title>
<path fill="none" stroke="#51dde8" d="M879.749,-216.708C854.815,-206.502 822.539,-193.289 796.239,-182.523"/>
<ellipse fill="none" stroke="#51dde8" cx="883.682" cy="-218.318" rx="4.00001" ry="4.00001"/>
<polygon fill="#51dde8" stroke="#51dde8" points="796.099,-182.466 788.55,-174.513 791.472,-180.572 786.845,-178.677 786.845,-178.677 786.845,-178.677 791.472,-180.572 785.14,-182.842 796.099,-182.466 796.099,-182.466"/>
</g>
<!-- Question&#45;&gt;Question -->
<g id="edge30" class="edge"><title>Question&#45;&gt;Question</title>
<path fill="none" stroke="#0008ec" d="M963.785,-247.498C978.137,-247.398 989.543,-242.899 989.543,-234 989.543,-225.513 979.169,-221.028 965.758,-220.544"/>
<ellipse fill="none" stroke="#0008ec" cx="959.557" cy="-247.294" rx="4" ry="4"/>
<polygon fill="#0008ec" stroke="#0008ec" points="965.555,-220.551 955.405,-216.402 960.558,-220.725 955.561,-220.899 955.561,-220.899 955.561,-220.899 960.558,-220.725 955.718,-225.396 965.555,-220.551 965.555,-220.551"/>
</g>
<!-- Question&#45;&gt;Answer -->
<g id="edge26" class="edge"><title>Question&#45;&gt;Answer</title>
<path fill="none" stroke="#0be911" d="M911.898,-208.198C899.386,-167.63 874.651,-87.4274 861.774,-45.6746"/>
<ellipse fill="none" stroke="#0be911" cx="913.079" cy="-212.027" rx="4.00001" ry="4.00001"/>
<polygon fill="#0be911" stroke="#0be911" points="861.718,-45.4913 863.07,-34.6092 860.244,-40.7133 858.77,-35.9354 858.77,-35.9354 858.77,-35.9354 860.244,-40.7133 854.47,-37.2616 861.718,-45.4913 861.718,-45.4913"/>
</g>
<!-- Question&#45;&gt;SimulatorAnsweredQuestion -->
<g id="edge29" class="edge"><title>Question&#45;&gt;SimulatorAnsweredQuestion</title>
<path fill="none" stroke="#fec19d" d="M958.662,-216.305C981.754,-206.449 1011.16,-193.897 1035.64,-183.45"/>
<ellipse fill="none" stroke="#fec19d" cx="954.847" cy="-217.933" rx="4.00002" ry="4.00002"/>
<polygon fill="#fec19d" stroke="#fec19d" points="1035.9,-183.338 1046.86,-183.551 1040.5,-181.375 1045.1,-179.412 1045.1,-179.412 1045.1,-179.412 1040.5,-181.375 1043.33,-175.273 1035.9,-183.338 1035.9,-183.338"/>
</g>
<!-- Career -->
<g id="node13" class="node"><title>Career</title>
<ellipse fill="none" stroke="black" cx="1388.55" cy="-450" rx="42.4939" ry="18"/>
<text text-anchor="middle" x="1388.55" y="-446.3" font-family="Times,serif" font-size="14.00">Career</text>
</g>
<!-- EventType -->
<g id="node14" class="node"><title>EventType</title>
<ellipse fill="none" stroke="black" cx="1588.55" cy="-543" rx="61.99" ry="18"/>
<text text-anchor="middle" x="1588.55" y="-539.3" font-family="Times,serif" font-size="14.00">EventType</text>
</g>
<!-- Event -->
<g id="node31" class="node"><title>Event</title>
<ellipse fill="none" stroke="black" cx="1588.55" cy="-450" rx="38.1938" ry="18"/>
<text text-anchor="middle" x="1588.55" y="-446.3" font-family="Times,serif" font-size="14.00">Event</text>
</g>
<!-- EventType&#45;&gt;Event -->
<g id="edge31" class="edge"><title>EventType&#45;&gt;Event</title>
<path fill="none" stroke="#d6d0b1" d="M1588.55,-516.729C1588.55,-504.725 1588.55,-490.362 1588.55,-478.129"/>
<ellipse fill="none" stroke="#d6d0b1" cx="1588.55" cy="-520.884" rx="4" ry="4"/>
<polygon fill="#d6d0b1" stroke="#d6d0b1" points="1588.55,-478.04 1593.05,-468.04 1588.55,-473.04 1588.55,-468.04 1588.55,-468.04 1588.55,-468.04 1588.55,-473.04 1584.05,-468.04 1588.55,-478.04 1588.55,-478.04"/>
</g>
<!-- Video -->
<g id="node15" class="node"><title>Video</title>
<ellipse fill="none" stroke="black" cx="115.547" cy="-306" rx="36.2938" ry="18"/>
<text text-anchor="middle" x="115.547" y="-302.3" font-family="Times,serif" font-size="14.00">Video</text>
</g>
<!-- Video&#45;&gt;Tutorial -->
<g id="edge33" class="edge"><title>Video&#45;&gt;Tutorial</title>
<path fill="none" stroke="#0231d7" d="M108.481,-280.267C106.622,-273.762 104.615,-266.737 102.749,-260.206"/>
<ellipse fill="none" stroke="#0231d7" cx="109.607" cy="-284.209" rx="4.00001" ry="4.00001"/>
<ellipse fill="#0231d7" stroke="#0231d7" cx="101.582" cy="-256.121" rx="4.00001" ry="4.00001"/>
</g>
<!-- Resource -->
<g id="node34" class="node"><title>Resource</title>
<ellipse fill="none" stroke="black" cx="215.547" cy="-234" rx="53.0913" ry="18"/>
<text text-anchor="middle" x="215.547" y="-230.3" font-family="Times,serif" font-size="14.00">Resource</text>
</g>
<!-- Video&#45;&gt;Resource -->
<g id="edge32" class="edge"><title>Video&#45;&gt;Resource</title>
<path fill="none" stroke="#32acd8" d="M142.759,-285.952C156.376,-276.42 172.862,-264.88 186.698,-255.195"/>
<ellipse fill="none" stroke="#32acd8" cx="139.061" cy="-288.541" rx="4.00002" ry="4.00002"/>
<ellipse fill="#32acd8" stroke="#32acd8" cx="189.976" cy="-252.9" rx="4.00002" ry="4.00002"/>
</g>
<!-- Point -->
<g id="node17" class="node"><title>Point</title>
<ellipse fill="none" stroke="black" cx="1733.55" cy="-450" rx="35.194" ry="18"/>
<text text-anchor="middle" x="1733.55" y="-446.3" font-family="Times,serif" font-size="14.00">Point</text>
</g>
<!-- Test&#45;&gt;Question -->
<g id="edge34" class="edge"><title>Test&#45;&gt;Question</title>
<path fill="none" stroke="#d7fe0e" d="M1277.06,-295.583C1266.31,-292.958 1254.49,-290.22 1243.55,-288 1150.76,-269.172 1041.97,-252.463 977.011,-243.05"/>
<ellipse fill="none" stroke="#d7fe0e" cx="1281.17" cy="-296.598" rx="4.00001" ry="4.00001"/>
<polygon fill="#d7fe0e" stroke="#d7fe0e" points="976.869,-243.03 967.614,-237.149 971.92,-242.316 966.972,-241.603 966.972,-241.603 966.972,-241.603 971.92,-242.316 966.329,-246.057 976.869,-243.03 976.869,-243.03"/>
</g>
<!-- Test&#45;&gt;Answer -->
<g id="edge35" class="edge"><title>Test&#45;&gt;Answer</title>
<path fill="none" stroke="#35f03f" d="M1352.47,-299.524C1380.99,-293.264 1417.86,-279.981 1436.55,-252 1463.21,-212.084 1460.46,-186.179 1437.55,-144 1409.48,-92.3305 1381.91,-91.8042 1326.55,-72 1250.89,-44.939 1017.21,-28.4065 909.264,-22.0231"/>
<ellipse fill="none" stroke="#35f03f" cx="1348.22" cy="-300.386" rx="4.00001" ry="4.00001"/>
<polygon fill="#35f03f" stroke="#35f03f" points="909.203,-22.0196 899.482,-16.9447 904.211,-21.7283 899.22,-21.437 899.22,-21.437 899.22,-21.437 904.211,-21.7283 898.957,-25.9294 909.203,-22.0196 909.203,-22.0196"/>
</g>
<!-- CourseUserTest -->
<g id="node24" class="node"><title>CourseUserTest</title>
<ellipse fill="none" stroke="black" cx="1342.55" cy="-234" rx="85.2851" ry="18"/>
<text text-anchor="middle" x="1342.55" y="-230.3" font-family="Times,serif" font-size="14.00">CourseUserTest</text>
</g>
<!-- Test&#45;&gt;CourseUserTest -->
<g id="edge36" class="edge"><title>Test&#45;&gt;CourseUserTest</title>
<path fill="none" stroke="#218179" d="M1323.58,-280.778C1326.16,-274.544 1328.96,-267.805 1331.58,-261.463"/>
<ellipse fill="none" stroke="#218179" cx="1321.95" cy="-284.716" rx="4.00001" ry="4.00001"/>
<polygon fill="#218179" stroke="#218179" points="1331.7,-261.195 1339.68,-253.679 1333.61,-256.575 1335.52,-251.956 1335.52,-251.956 1335.52,-251.956 1333.61,-256.575 1331.37,-250.234 1331.7,-261.195 1331.7,-261.195"/>
</g>
<!-- Blog -->
<g id="node19" class="node"><title>Blog</title>
<ellipse fill="none" stroke="black" cx="30.5473" cy="-306" rx="30.5947" ry="18"/>
<text text-anchor="middle" x="30.5473" y="-302.3" font-family="Times,serif" font-size="14.00">Blog</text>
</g>
<!-- Blog&#45;&gt;Tutorial -->
<g id="edge37" class="edge"><title>Blog&#45;&gt;Tutorial</title>
<path fill="none" stroke="#f8b577" d="M50.1516,-283.888C58.0071,-275.428 67.0623,-265.676 75.0088,-257.118"/>
<ellipse fill="none" stroke="#f8b577" cx="47.3731" cy="-286.88" rx="4.00002" ry="4.00002"/>
<ellipse fill="#f8b577" stroke="#f8b577" cx="77.8443" cy="-254.065" rx="4.00002" ry="4.00002"/>
</g>
<!-- Blog&#45;&gt;Resource -->
<g id="edge38" class="edge"><title>Blog&#45;&gt;Resource</title>
<path fill="none" stroke="#e0ac98" d="M62.0771,-291.422C64.9334,-290.246 67.7883,-289.09 70.5473,-288 104.385,-274.636 143.105,-260.543 172.016,-250.252"/>
<ellipse fill="none" stroke="#e0ac98" cx="58.2696" cy="-293.01" rx="4.00002" ry="4.00002"/>
<ellipse fill="#e0ac98" stroke="#e0ac98" cx="176.129" cy="-248.792" rx="4.00001" ry="4.00001"/>
</g>
<!-- School -->
<g id="node20" class="node"><title>School</title>
<ellipse fill="none" stroke="black" cx="1328.55" cy="-543" rx="40.0939" ry="18"/>
<text text-anchor="middle" x="1328.55" y="-539.3" font-family="Times,serif" font-size="14.00">School</text>
</g>
<!-- School&#45;&gt;Career -->
<g id="edge39" class="edge"><title>School&#45;&gt;Career</title>
<path fill="none" stroke="#c06437" d="M1344.14,-518.357C1352.67,-505.409 1363.25,-489.363 1371.94,-476.18"/>
<ellipse fill="none" stroke="#c06437" cx="1341.75" cy="-521.97" rx="4.00002" ry="4.00002"/>
<polygon fill="#c06437" stroke="#c06437" points="1372.11,-475.934 1381.37,-470.062 1374.86,-471.759 1377.61,-467.585 1377.61,-467.585 1377.61,-467.585 1374.86,-471.759 1373.86,-465.108 1372.11,-475.934 1372.11,-475.934"/>
</g>
<!-- Student -->
<g id="node21" class="node"><title>Student</title>
<polygon fill="none" stroke="black" stroke-dasharray="1,5" points="1891.55,-561 1817.55,-561 1817.55,-525 1891.55,-525 1891.55,-561"/>
<text text-anchor="middle" x="1854.55" y="-539.3" font-family="Times,serif" font-size="14.00">Student</text>
</g>
<!-- CourseUserTest&#45;&gt;Answer -->
<g id="edge40" class="edge"><title>CourseUserTest&#45;&gt;Answer</title>
<path fill="none" stroke="#22e37e" d="M1386.46,-213.54C1399.87,-205.254 1413.04,-194.169 1420.55,-180 1428.03,-165.86 1430.57,-156.472 1420.55,-144 1356.61,-64.4355 1039,-32.529 909.081,-22.6698"/>
<ellipse fill="none" stroke="#22e37e" cx="1382.91" cy="-215.607" rx="4.00002" ry="4.00002"/>
<polygon fill="#22e37e" stroke="#22e37e" points="908.92,-22.6579 899.281,-17.4292 903.934,-22.2874 898.947,-21.9168 898.947,-21.9168 898.947,-21.9168 903.934,-22.2874 898.614,-26.4045 908.92,-22.6579 908.92,-22.6579"/>
</g>
<!-- Simulator&#45;&gt;Question -->
<g id="edge42" class="edge"><title>Simulator&#45;&gt;Question</title>
<path fill="none" stroke="#b43ebc" d="M933.153,-278.29C931.482,-272.975 929.726,-267.388 928.052,-262.061"/>
<polygon fill="#b43ebc" stroke="#b43ebc" points="933.223,-278.515 931.929,-289.404 934.723,-283.285 936.222,-288.055 936.222,-288.055 936.222,-288.055 934.723,-283.285 940.515,-286.706 933.223,-278.515 933.223,-278.515"/>
<polygon fill="#b43ebc" stroke="#b43ebc" points="927.975,-261.815 929.27,-250.926 926.476,-257.045 924.977,-252.275 924.977,-252.275 924.977,-252.275 926.476,-257.045 920.684,-253.625 927.975,-261.815 927.975,-261.815"/>
</g>
<!-- Simulator&#45;&gt;SimulatorAnsweredQuestion -->
<g id="edge41" class="edge"><title>Simulator&#45;&gt;SimulatorAnsweredQuestion</title>
<path fill="none" stroke="#92d6f4" d="M965.656,-283.17C975.924,-273.722 987.953,-262.453 998.547,-252 1020.05,-230.788 1043.72,-205.866 1060.61,-187.799"/>
<ellipse fill="none" stroke="#92d6f4" cx="962.468" cy="-286.092" rx="4.00002" ry="4.00002"/>
<polygon fill="#92d6f4" stroke="#92d6f4" points="1061.04,-187.334 1071.15,-183.086 1064.45,-183.676 1067.86,-180.018 1067.86,-180.018 1067.86,-180.018 1064.45,-183.676 1064.57,-176.95 1061.04,-187.334 1061.04,-187.334"/>
</g>
<!-- PointAction -->
<g id="node26" class="node"><title>PointAction</title>
<ellipse fill="none" stroke="black" cx="1733.55" cy="-543" rx="65.7887" ry="18"/>
<text text-anchor="middle" x="1733.55" y="-539.3" font-family="Times,serif" font-size="14.00">PointAction</text>
</g>
<!-- PointAction&#45;&gt;Point -->
<g id="edge43" class="edge"><title>PointAction&#45;&gt;Point</title>
<path fill="none" stroke="#d278b2" d="M1733.55,-516.729C1733.55,-504.725 1733.55,-490.362 1733.55,-478.129"/>
<ellipse fill="none" stroke="#d278b2" cx="1733.55" cy="-520.884" rx="4" ry="4"/>
<polygon fill="#d278b2" stroke="#d278b2" points="1733.55,-478.04 1738.05,-468.04 1733.55,-473.04 1733.55,-468.04 1733.55,-468.04 1733.55,-468.04 1733.55,-473.04 1729.05,-468.04 1733.55,-478.04 1733.55,-478.04"/>
</g>
<!-- ResourceProgress -->
<g id="node27" class="node"><title>ResourceProgress</title>
<ellipse fill="none" stroke="black" cx="296.547" cy="-162" rx="94.7833" ry="18"/>
<text text-anchor="middle" x="296.547" y="-158.3" font-family="Times,serif" font-size="14.00">ResourceProgress</text>
</g>
<!-- CourseUser&#45;&gt;Plan -->
<g id="edge47" class="edge"><title>CourseUser&#45;&gt;Plan</title>
<path fill="none" stroke="#9a6a1f" d="M1164.04,-279.861C1163.72,-273.449 1163.72,-266.557 1164.04,-260.145"/>
<ellipse fill="none" stroke="#9a6a1f" cx="1164.36" cy="-284.067" rx="4" ry="4"/>
<ellipse fill="#9a6a1f" stroke="#9a6a1f" cx="1164.38" cy="-255.777" rx="4" ry="4"/>
</g>
<!-- CourseUser&#45;&gt;CourseUserTest -->
<g id="edge45" class="edge"><title>CourseUser&#45;&gt;CourseUserTest</title>
<path fill="none" stroke="#a21e40" d="M1213.07,-287.692C1238.1,-277.508 1269.79,-264.611 1295.55,-254.126"/>
<ellipse fill="none" stroke="#a21e40" cx="1209.06" cy="-289.327" rx="4.00001" ry="4.00001"/>
<polygon fill="#a21e40" stroke="#a21e40" points="1295.85,-254.006 1306.81,-254.404 1300.48,-252.121 1305.11,-250.236 1305.11,-250.236 1305.11,-250.236 1300.48,-252.121 1303.41,-246.068 1295.85,-254.006 1295.85,-254.006"/>
</g>
<!-- CourseUser&#45;&gt;ResourceProgress -->
<g id="edge44" class="edge"><title>CourseUser&#45;&gt;ResourceProgress</title>
<path fill="none" stroke="#a00a0f" d="M1108.63,-294.94C953.568,-269.747 548.705,-203.968 376.228,-175.946"/>
<ellipse fill="none" stroke="#a00a0f" cx="1112.91" cy="-295.636" rx="4.00001" ry="4.00001"/>
<polygon fill="#a00a0f" stroke="#a00a0f" points="376.072,-175.92 366.923,-169.875 371.136,-175.119 366.201,-174.317 366.201,-174.317 366.201,-174.317 371.136,-175.119 365.479,-178.758 376.072,-175.92 376.072,-175.92"/>
</g>
<!-- CourseUser&#45;&gt;CourseUserPlan -->
<g id="edge46" class="edge"><title>CourseUser&#45;&gt;CourseUserPlan</title>
<path fill="none" stroke="#b2136d" d="M1188.3,-281.468C1203.2,-262.572 1225.67,-235.987 1248.55,-216 1262.35,-203.941 1279.06,-192.46 1293.63,-183.287"/>
<ellipse fill="none" stroke="#b2136d" cx="1185.63" cy="-284.9" rx="4.00002" ry="4.00002"/>
<ellipse fill="#b2136d" stroke="#b2136d" cx="1297.19" cy="-181.082" rx="4.00002" ry="4.00002"/>
</g>
<!-- Section&#45;&gt;ResourceProgress -->
<g id="edge49" class="edge"><title>Section&#45;&gt;ResourceProgress</title>
<path fill="none" stroke="#caf983" d="M245.963,-285.476C257.505,-276.593 269.737,-265.122 277.547,-252 288.694,-233.274 293.345,-208.891 295.264,-190.382"/>
<ellipse fill="none" stroke="#caf983" cx="242.505" cy="-288.026" rx="4.00002" ry="4.00002"/>
<polygon fill="#caf983" stroke="#caf983" points="295.277,-190.216 300.591,-180.624 295.692,-185.234 296.106,-180.251 296.106,-180.251 296.106,-180.251 295.692,-185.234 291.622,-179.878 295.277,-190.216 295.277,-190.216"/>
</g>
<!-- Section&#45;&gt;Resource -->
<g id="edge48" class="edge"><title>Section&#45;&gt;Resource</title>
<path fill="none" stroke="#a6f6ec" d="M215.547,-279.64C215.547,-274.063 215.547,-268.132 215.547,-262.476"/>
<ellipse fill="none" stroke="#a6f6ec" cx="215.547" cy="-283.697" rx="4" ry="4"/>
<polygon fill="#a6f6ec" stroke="#a6f6ec" points="215.547,-262.104 220.047,-252.104 215.547,-257.104 215.547,-252.104 215.547,-252.104 215.547,-252.104 215.547,-257.104 211.047,-252.104 215.547,-262.104 215.547,-262.104"/>
</g>
<!-- SimulatorType -->
<g id="node32" class="node"><title>SimulatorType</title>
<ellipse fill="none" stroke="black" cx="971.547" cy="-378" rx="79.0865" ry="18"/>
<text text-anchor="middle" x="971.547" y="-374.3" font-family="Times,serif" font-size="14.00">SimulatorType</text>
</g>
<!-- SimulatorType&#45;&gt;Simulator -->
<g id="edge50" class="edge"><title>SimulatorType&#45;&gt;Simulator</title>
<path fill="none" stroke="#4f9859" d="M961.068,-352.548C958.445,-346.428 955.619,-339.835 952.954,-333.616"/>
<ellipse fill="none" stroke="#4f9859" cx="962.709" cy="-356.378" rx="4.00002" ry="4.00002"/>
<polygon fill="#4f9859" stroke="#4f9859" points="952.89,-333.467 953.087,-322.503 950.921,-328.871 948.951,-324.275 948.951,-324.275 948.951,-324.275 950.921,-328.871 944.815,-326.048 952.89,-333.467 952.89,-333.467"/>
</g>
<!-- University -->
<g id="node33" class="node"><title>University</title>
<ellipse fill="none" stroke="black" cx="1447.55" cy="-543" rx="61.1893" ry="18"/>
<text text-anchor="middle" x="1447.55" y="-539.3" font-family="Times,serif" font-size="14.00">University</text>
</g>
<!-- University&#45;&gt;Career -->
<g id="edge51" class="edge"><title>University&#45;&gt;Career</title>
<path fill="none" stroke="#9002e4" d="M1431.94,-517.921C1423.54,-504.974 1413.2,-489.029 1404.72,-475.951"/>
<ellipse fill="none" stroke="#9002e4" cx="1434.27" cy="-521.527" rx="4.00002" ry="4.00002"/>
<polygon fill="#9002e4" stroke="#9002e4" points="1404.64,-475.817 1402.97,-464.979 1401.92,-471.622 1399.2,-467.427 1399.2,-467.427 1399.2,-467.427 1401.92,-471.622 1395.42,-469.875 1404.64,-475.817 1404.64,-475.817"/>
</g>
<!-- Resource&#45;&gt;ResourceProgress -->
<g id="edge52" class="edge"><title>Resource&#45;&gt;ResourceProgress</title>
<path fill="none" stroke="#c7cd10" d="M240.654,-211.303C249.791,-203.406 260.156,-194.449 269.458,-186.411"/>
<ellipse fill="none" stroke="#c7cd10" cx="237.36" cy="-214.149" rx="4.00002" ry="4.00002"/>
<polygon fill="#c7cd10" stroke="#c7cd10" points="269.734,-186.172 280.242,-183.038 273.517,-182.903 277.3,-179.633 277.3,-179.633 277.3,-179.633 273.517,-182.903 274.358,-176.229 269.734,-186.172 269.734,-186.172"/>
</g>
<!-- Task -->
<g id="node35" class="node"><title>Task</title>
<ellipse fill="none" stroke="black" cx="530.547" cy="-306" rx="32.4942" ry="18"/>
<text text-anchor="middle" x="530.547" y="-302.3" font-family="Times,serif" font-size="14.00">Task</text>
</g>
<!-- Task&#45;&gt;Question -->
<g id="edge55" class="edge"><title>Task&#45;&gt;Question</title>
<path fill="none" stroke="#1b4718" d="M568.035,-296.591C581.142,-293.742 595.972,-290.62 609.547,-288 697.911,-270.947 800.996,-253.882 863.216,-243.89"/>
<ellipse fill="none" stroke="#1b4718" cx="564.03" cy="-297.468" rx="4.00001" ry="4.00001"/>
<polygon fill="#1b4718" stroke="#1b4718" points="863.343,-243.87 873.929,-246.732 868.28,-243.079 873.218,-242.289 873.218,-242.289 873.218,-242.289 868.28,-243.079 872.506,-237.845 863.343,-243.87 863.343,-243.87"/>
</g>
<!-- Task&#45;&gt;Answer -->
<g id="edge54" class="edge"><title>Task&#45;&gt;Answer</title>
<path fill="none" stroke="#4cbf0b" d="M526.642,-279.794C520.812,-232.09 515.844,-128.353 571.547,-72 602.422,-40.7648 724.552,-27.4138 797.579,-22.129"/>
<ellipse fill="none" stroke="#4cbf0b" cx="527.167" cy="-283.792" rx="4.00001" ry="4.00001"/>
<polygon fill="#4cbf0b" stroke="#4cbf0b" points="798.004,-22.0995 808.292,-25.8958 802.992,-21.7531 807.98,-21.4066 807.98,-21.4066 807.98,-21.4066 802.992,-21.7531 807.669,-16.9174 798.004,-22.0995 798.004,-22.0995"/>
</g>
<!-- Task&#45;&gt;Resource -->
<g id="edge53" class="edge"><title>Task&#45;&gt;Resource</title>
<path fill="none" stroke="#7280de" d="M498.647,-291.049C495.6,-289.937 492.534,-288.898 489.547,-288 415.914,-265.861 328.279,-250.803 272.297,-242.555"/>
<ellipse fill="none" stroke="#7280de" cx="502.392" cy="-292.492" rx="4.00001" ry="4.00001"/>
<ellipse fill="#7280de" stroke="#7280de" cx="268.231" cy="-241.963" rx="4.00001" ry="4.00001"/>
</g>
</g>
</svg>
