<?xml version="1.0" encoding="UTF-8" standalone="no"?>
<!DOCTYPE svg PUBLIC "-//W3C//DTD SVG 1.1//EN"
 "http://www.w3.org/Graphics/SVG/1.1/DTD/svg11.dtd">
<!-- Generated by graphviz version 2.38.0 (20140413.2041)
 -->
<!-- Title: models_diagram Pages: 1 -->
<svg width="1805pt" height="518pt"
 viewBox="0.00 0.00 1804.59 518.00" xmlns="http://www.w3.org/2000/svg" xmlns:xlink="http://www.w3.org/1999/xlink">
<g id="graph0" class="graph" transform="scale(1 1) rotate(0) translate(4 514)">
<title>models_diagram</title>
<polygon fill="none" stroke="none" points="-4,4 -4,-514 1800.59,-514 1800.59,4 -4,4"/>
<!-- _diagram_info -->
<g id="node1" class="node"><title>_diagram_info</title>
<text text-anchor="start" x="421.193" y="-495.6" font-family="Times,serif" font-size="13.00">Models diagram</text>
<text text-anchor="start" x="421.193" y="-481.6" font-family="Times,serif" font-size="13.00">Date: Jan 26 2017 &#45; 22:11</text>
<text text-anchor="start" x="421.193" y="-467.6" font-family="Times,serif" font-size="13.00">Migration version: 20170127015845</text>
<text text-anchor="start" x="421.193" y="-453.6" font-family="Times,serif" font-size="13.00">Generated by RailRoady 1.5.2</text>
<text text-anchor="start" x="421.193" y="-439.6" font-family="Times,serif" font-size="13.00">http://railroady.prestonlee.com</text>
</g>
<!-- Course -->
<g id="node2" class="node"><title>Course</title>
<ellipse fill="none" stroke="black" cx="707.193" cy="-471" rx="42.4939" ry="18"/>
<text text-anchor="middle" x="707.193" y="-467.3" font-family="Times,serif" font-size="14.00">Course</text>
</g>
<!-- Category -->
<g id="node4" class="node"><title>Category</title>
<ellipse fill="none" stroke="black" cx="761.193" cy="-306" rx="53.8905" ry="18"/>
<text text-anchor="middle" x="761.193" y="-302.3" font-family="Times,serif" font-size="14.00">Category</text>
</g>
<!-- Course&#45;&gt;Category -->
<g id="edge1" class="edge"><title>Course&#45;&gt;Category</title>
<path fill="none" stroke="#96044d" d="M732.044,-449.214C746.178,-435.706 762.544,-416.782 770.193,-396 777.546,-376.019 774.443,-351.915 769.973,-333.834"/>
<ellipse fill="none" stroke="#96044d" cx="729.092" cy="-451.945" rx="4.00002" ry="4.00002"/>
<polygon fill="#96044d" stroke="#96044d" points="769.909,-333.601 771.591,-322.765 768.581,-328.781 767.252,-323.961 767.252,-323.961 767.252,-323.961 768.581,-328.781 762.914,-325.156 769.909,-333.601 769.909,-333.601"/>
</g>
<!-- SubCategory -->
<g id="node5" class="node"><title>SubCategory</title>
<ellipse fill="none" stroke="black" cx="811.193" cy="-234" rx="70.6878" ry="18"/>
<text text-anchor="middle" x="811.193" y="-230.3" font-family="Times,serif" font-size="14.00">SubCategory</text>
</g>
<!-- Course&#45;&gt;SubCategory -->
<g id="edge2" class="edge"><title>Course&#45;&gt;SubCategory</title>
<path fill="none" stroke="#1de679" d="M734.882,-448.571C751.453,-434.793 772.147,-415.811 787.193,-396 808.952,-367.348 815.733,-358.969 824.193,-324 829.165,-303.446 825.239,-279.733 820.437,-261.954"/>
<polygon fill="#1de679" stroke="#1de679" points="734.872,-448.579 724.277,-451.409 730.996,-451.738 727.121,-454.897 727.121,-454.897 727.121,-454.897 730.996,-451.738 729.964,-458.385 734.872,-448.579 734.872,-448.579"/>
<polygon fill="#1de679" stroke="#1de679" points="820.401,-261.832 821.885,-250.967 818.985,-257.037 817.57,-252.241 817.57,-252.241 817.57,-252.241 818.985,-257.037 813.254,-253.515 820.401,-261.832 820.401,-261.832"/>
</g>
<!-- User -->
<g id="node8" class="node"><title>User</title>
<ellipse fill="none" stroke="black" cx="603.193" cy="-378" rx="32.4942" ry="18"/>
<text text-anchor="middle" x="603.193" y="-374.3" font-family="Times,serif" font-size="14.00">User</text>
</g>
<!-- Course&#45;&gt;User -->
<g id="edge5" class="edge"><title>Course&#45;&gt;User</title>
<path fill="none" stroke="#7d2cd2" d="M682.007,-447.962C665.433,-433.461 643.857,-414.581 627.47,-400.243"/>
<polygon fill="#7d2cd2" stroke="#7d2cd2" points="682.025,-447.978 686.587,-457.95 685.788,-451.271 689.55,-454.563 689.55,-454.563 689.55,-454.563 685.788,-451.271 692.514,-451.176 682.025,-447.978 682.025,-447.978"/>
<polygon fill="#7d2cd2" stroke="#7d2cd2" points="627.413,-400.193 622.851,-390.221 623.65,-396.901 619.888,-393.608 619.888,-393.608 619.888,-393.608 623.65,-396.901 616.924,-396.995 627.413,-400.193 627.413,-400.193"/>
</g>
<!-- LiveClass -->
<g id="node10" class="node"><title>LiveClass</title>
<ellipse fill="none" stroke="black" cx="707.193" cy="-378" rx="53.8905" ry="18"/>
<text text-anchor="middle" x="707.193" y="-374.3" font-family="Times,serif" font-size="14.00">LiveClass</text>
</g>
<!-- Course&#45;&gt;LiveClass -->
<g id="edge7" class="edge"><title>Course&#45;&gt;LiveClass</title>
<path fill="none" stroke="#850e10" d="M707.193,-444.729C707.193,-432.118 707.193,-416.905 707.193,-404.292"/>
<ellipse fill="none" stroke="#850e10" cx="707.193" cy="-448.884" rx="4" ry="4"/>
<ellipse fill="#850e10" stroke="#850e10" cx="707.193" cy="-400.04" rx="4" ry="4"/>
</g>
<!-- Test -->
<g id="node17" class="node"><title>Test</title>
<ellipse fill="none" stroke="black" cx="504.193" cy="-234" rx="31.6951" ry="18"/>
<text text-anchor="middle" x="504.193" y="-230.3" font-family="Times,serif" font-size="14.00">Test</text>
</g>
<!-- Course&#45;&gt;Test -->
<g id="edge6" class="edge"><title>Course&#45;&gt;Test</title>
<path fill="none" stroke="#1a6626" d="M682.631,-449.57C674.528,-443.422 665.262,-436.991 656.193,-432 616.998,-410.432 593.509,-427.948 562.193,-396 525.817,-358.891 512.073,-297.335 507.015,-262.06"/>
<ellipse fill="none" stroke="#1a6626" cx="685.977" cy="-452.173" rx="4.00002" ry="4.00002"/>
<polygon fill="#1a6626" stroke="#1a6626" points="506.998,-261.929 510.171,-251.433 506.354,-256.971 505.709,-252.013 505.709,-252.013 505.709,-252.013 506.354,-256.971 501.246,-252.593 506.998,-261.929 506.998,-261.929"/>
</g>
<!-- CourseUser -->
<g id="node25" class="node"><title>CourseUser</title>
<ellipse fill="none" stroke="black" cx="246.193" cy="-234" rx="63.8893" ry="18"/>
<text text-anchor="middle" x="246.193" y="-230.3" font-family="Times,serif" font-size="14.00">CourseUser</text>
</g>
<!-- Course&#45;&gt;CourseUser -->
<g id="edge4" class="edge"><title>Course&#45;&gt;CourseUser</title>
<path fill="none" stroke="#e9c694" d="M682.859,-449.135C674.768,-442.964 665.451,-436.629 656.193,-432 605.627,-406.717 586.3,-417.929 534.193,-396 437.117,-355.147 330.924,-289.927 278.785,-256.415"/>
<ellipse fill="none" stroke="#e9c694" cx="686.197" cy="-451.763" rx="4.00002" ry="4.00002"/>
<polygon fill="#e9c694" stroke="#e9c694" points="278.69,-256.354 272.732,-247.148 274.491,-253.641 270.291,-250.928 270.291,-250.928 270.291,-250.928 274.491,-253.641 267.849,-254.708 278.69,-256.354 278.69,-256.354"/>
</g>
<!-- Section -->
<g id="node27" class="node"><title>Section</title>
<ellipse fill="none" stroke="black" cx="1335.19" cy="-234" rx="45.4919" ry="18"/>
<text text-anchor="middle" x="1335.19" y="-230.3" font-family="Times,serif" font-size="14.00">Section</text>
</g>
<!-- Course&#45;&gt;Section -->
<g id="edge3" class="edge"><title>Course&#45;&gt;Section</title>
<path fill="none" stroke="#2a1c9c" d="M745.433,-455.69C856.589,-414.095 1179,-293.447 1293.91,-250.447"/>
<ellipse fill="none" stroke="#2a1c9c" cx="741.654" cy="-457.104" rx="4.00001" ry="4.00001"/>
<polygon fill="#2a1c9c" stroke="#2a1c9c" points="1294.06,-250.394 1305,-251.104 1298.74,-248.642 1303.42,-246.889 1303.42,-246.889 1303.42,-246.889 1298.74,-248.642 1301.84,-242.675 1294.06,-250.394 1294.06,-250.394"/>
</g>
<!-- Tutorial -->
<g id="node3" class="node"><title>Tutorial</title>
<ellipse fill="none" stroke="black" cx="1148.19" cy="-162" rx="48.9926" ry="18"/>
<text text-anchor="middle" x="1148.19" y="-158.3" font-family="Times,serif" font-size="14.00">Tutorial</text>
</g>
<!-- Category&#45;&gt;SubCategory -->
<g id="edge8" class="edge"><title>Category&#45;&gt;SubCategory</title>
<path fill="none" stroke="#b10fc8" d="M777.886,-281.63C782.762,-274.803 788.114,-267.311 793.073,-260.367"/>
<ellipse fill="none" stroke="#b10fc8" cx="775.367" cy="-285.156" rx="4.00002" ry="4.00002"/>
<polygon fill="#b10fc8" stroke="#b10fc8" points="793.269,-260.094 802.743,-254.572 796.175,-256.025 799.081,-251.956 799.081,-251.956 799.081,-251.956 796.175,-256.025 795.419,-249.341 793.269,-260.094 793.269,-260.094"/>
</g>
<!-- Question -->
<g id="node9" class="node"><title>Question</title>
<ellipse fill="none" stroke="black" cx="973.193" cy="-162" rx="51.9908" ry="18"/>
<text text-anchor="middle" x="973.193" y="-158.3" font-family="Times,serif" font-size="14.00">Question</text>
</g>
<!-- Category&#45;&gt;Question -->
<g id="edge10" class="edge"><title>Category&#45;&gt;Question</title>
<path fill="none" stroke="#8a279f" d="M810.788,-290.537C836.181,-281.75 866.799,-268.93 891.193,-252 916.602,-234.365 939.904,-207.581 955.12,-188.002"/>
<polygon fill="#8a279f" stroke="#8a279f" points="810.461,-290.646 799.549,-289.556 805.72,-292.234 800.979,-293.823 800.979,-293.823 800.979,-293.823 805.72,-292.234 802.408,-298.09 810.461,-290.646 810.461,-290.646"/>
<polygon fill="#8a279f" stroke="#8a279f" points="955.275,-187.798 964.908,-182.558 958.3,-183.817 961.325,-179.836 961.325,-179.836 961.325,-179.836 958.3,-183.817 957.742,-177.113 955.275,-187.798 955.275,-187.798"/>
</g>
<!-- Answer -->
<g id="node15" class="node"><title>Answer</title>
<ellipse fill="none" stroke="black" cx="679.193" cy="-18" rx="46.2923" ry="18"/>
<text text-anchor="middle" x="679.193" y="-14.3" font-family="Times,serif" font-size="14.00">Answer</text>
</g>
<!-- Category&#45;&gt;Answer -->
<g id="edge9" class="edge"><title>Category&#45;&gt;Answer</title>
<path fill="none" stroke="#176b69" d="M744.645,-279.333C739.755,-270.885 734.762,-261.276 731.193,-252 703.623,-180.351 688.726,-90.4049 682.597,-46.1489"/>
<polygon fill="#176b69" stroke="#176b69" points="744.686,-279.402 745.981,-290.291 747.262,-283.688 749.838,-287.973 749.838,-287.973 749.838,-287.973 747.262,-283.688 753.695,-285.655 744.686,-279.402 744.686,-279.402"/>
<polygon fill="#176b69" stroke="#176b69" points="682.588,-46.0806 685.717,-35.5708 681.922,-41.1251 681.257,-36.1695 681.257,-36.1695 681.257,-36.1695 681.922,-41.1251 676.797,-36.7682 682.588,-46.0806 682.588,-46.0806"/>
</g>
<!-- SubCategory&#45;&gt;Tutorial -->
<g id="edge14" class="edge"><title>SubCategory&#45;&gt;Tutorial</title>
<path fill="none" stroke="#a0979f" d="M872.304,-220.306C936.551,-206.961 1036.51,-186.198 1096.83,-173.669"/>
<ellipse fill="none" stroke="#a0979f" cx="868.136" cy="-221.172" rx="4.00001" ry="4.00001"/>
<polygon fill="#a0979f" stroke="#a0979f" points="1097.09,-173.614 1107.8,-175.986 1101.99,-172.597 1106.88,-171.58 1106.88,-171.58 1106.88,-171.58 1101.99,-172.597 1105.97,-167.174 1097.09,-173.614 1097.09,-173.614"/>
</g>
<!-- Choice -->
<g id="node7" class="node"><title>Choice</title>
<ellipse fill="none" stroke="black" cx="785.193" cy="-90" rx="40.0939" ry="18"/>
<text text-anchor="middle" x="785.193" y="-86.3" font-family="Times,serif" font-size="14.00">Choice</text>
</g>
<!-- SubCategory&#45;&gt;Choice -->
<g id="edge12" class="edge"><title>SubCategory&#45;&gt;Choice</title>
<path fill="none" stroke="#2646ba" d="M789.395,-208.412C783.249,-199.986 777.374,-190.116 774.193,-180 767.828,-159.763 771.355,-135.855 776.047,-117.917"/>
<polygon fill="#2646ba" stroke="#2646ba" points="789.401,-208.42 791.989,-219.077 792.471,-212.367 795.541,-216.314 795.541,-216.314 795.541,-216.314 792.471,-212.367 799.093,-213.551 789.401,-208.42 789.401,-208.42"/>
<polygon fill="#2646ba" stroke="#2646ba" points="776.102,-117.725 783.201,-109.368 777.49,-112.922 778.878,-108.118 778.878,-108.118 778.878,-108.118 777.49,-112.922 774.555,-106.869 776.102,-117.725 776.102,-117.725"/>
</g>
<!-- SubCategory&#45;&gt;Question -->
<g id="edge11" class="edge"><title>SubCategory&#45;&gt;Question</title>
<path fill="none" stroke="#3d2277" d="M853.144,-214.873C877.63,-204.292 908.376,-191.007 932.621,-180.531"/>
<ellipse fill="none" stroke="#3d2277" cx="849.221" cy="-216.568" rx="4.00002" ry="4.00002"/>
<polygon fill="#3d2277" stroke="#3d2277" points="932.724,-180.487 943.688,-180.651 937.314,-178.503 941.903,-176.52 941.903,-176.52 941.903,-176.52 937.314,-178.503 940.118,-172.389 932.724,-180.487 932.724,-180.487"/>
</g>
<!-- SubCategory&#45;&gt;Answer -->
<g id="edge13" class="edge"><title>SubCategory&#45;&gt;Answer</title>
<path fill="none" stroke="#00b9b2" d="M788.899,-208.167C781.605,-199.53 773.71,-189.597 767.193,-180 736.541,-134.863 707.512,-78.0538 691.656,-45.3967"/>
<polygon fill="#00b9b2" stroke="#00b9b2" points="789.117,-208.42 792.233,-218.934 792.379,-212.209 795.642,-215.998 795.642,-215.998 795.642,-215.998 792.379,-212.209 799.052,-213.061 789.117,-208.42 789.117,-208.42"/>
<polygon fill="#00b9b2" stroke="#00b9b2" points="691.507,-45.0876 691.225,-34.1254 689.339,-40.5822 687.17,-36.0768 687.17,-36.0768 687.17,-36.0768 689.339,-40.5822 683.116,-38.0283 691.507,-45.0876 691.507,-45.0876"/>
</g>
<!-- VideoClass -->
<g id="node34" class="node"><title>VideoClass</title>
<ellipse fill="none" stroke="black" cx="843.193" cy="-162" rx="59.5901" ry="18"/>
<text text-anchor="middle" x="843.193" y="-158.3" font-family="Times,serif" font-size="14.00">VideoClass</text>
</g>
<!-- SubCategory&#45;&gt;VideoClass -->
<g id="edge15" class="edge"><title>SubCategory&#45;&gt;VideoClass</title>
<path fill="none" stroke="#143ee0" d="M822.371,-208.548C825.168,-202.428 828.182,-195.835 831.025,-189.616"/>
<ellipse fill="none" stroke="#143ee0" cx="820.602" cy="-212.417" rx="4.00002" ry="4.00002"/>
<polygon fill="#143ee0" stroke="#143ee0" points="831.138,-189.37 839.388,-182.146 833.217,-184.823 835.295,-180.275 835.295,-180.275 835.295,-180.275 833.217,-184.823 831.203,-178.404 831.138,-189.37 831.138,-189.37"/>
</g>
<!-- Plan -->
<g id="node6" class="node"><title>Plan</title>
<ellipse fill="none" stroke="black" cx="112.193" cy="-162" rx="30.5947" ry="18"/>
<text text-anchor="middle" x="112.193" y="-158.3" font-family="Times,serif" font-size="14.00">Plan</text>
</g>
<!-- Plan&#45;&gt;CourseUser -->
<g id="edge17" class="edge"><title>Plan&#45;&gt;CourseUser</title>
<path fill="none" stroke="#b2f099" d="M145.748,-177.601C166.297,-187.665 192.384,-201.186 212.881,-212.35"/>
<polygon fill="#b2f099" stroke="#b2f099" points="145.739,-177.596 138.697,-169.19 141.238,-175.419 136.737,-173.241 136.737,-173.241 136.737,-173.241 141.238,-175.419 134.777,-177.292 145.739,-177.596 145.739,-177.596"/>
<polygon fill="#b2f099" stroke="#b2f099" points="213.099,-212.47 219.692,-221.233 217.48,-214.88 221.861,-217.291 221.861,-217.291 221.861,-217.291 217.48,-214.88 224.03,-213.348 213.099,-212.47 213.099,-212.47"/>
</g>
<!-- CourseUserPlan -->
<g id="node28" class="node"><title>CourseUserPlan</title>
<ellipse fill="none" stroke="black" cx="83.1926" cy="-90" rx="83.3857" ry="18"/>
<text text-anchor="middle" x="83.1926" y="-86.3" font-family="Times,serif" font-size="14.00">CourseUserPlan</text>
</g>
<!-- Plan&#45;&gt;CourseUserPlan -->
<g id="edge16" class="edge"><title>Plan&#45;&gt;CourseUserPlan</title>
<path fill="none" stroke="#c81da7" d="M102.158,-136.778C99.5751,-130.544 96.7831,-123.805 94.156,-117.463"/>
<ellipse fill="none" stroke="#c81da7" cx="103.789" cy="-140.716" rx="4.00001" ry="4.00001"/>
<polygon fill="#c81da7" stroke="#c81da7" points="94.0448,-117.195 94.3747,-106.234 92.1311,-112.575 90.2173,-107.956 90.2173,-107.956 90.2173,-107.956 92.1311,-112.575 86.06,-109.679 94.0448,-117.195 94.0448,-117.195"/>
</g>
<!-- Choice&#45;&gt;Answer -->
<g id="edge18" class="edge"><title>Choice&#45;&gt;Answer</title>
<path fill="none" stroke="#a3c78a" d="M756.393,-69.9813C742.116,-60.5531 724.855,-49.1547 710.279,-39.5287"/>
<ellipse fill="none" stroke="#a3c78a" cx="760.148" cy="-72.4613" rx="4.00002" ry="4.00002"/>
<polygon fill="#a3c78a" stroke="#a3c78a" points="709.945,-39.3084 704.08,-30.0426 705.773,-36.5531 701.601,-33.7977 701.601,-33.7977 701.601,-33.7977 705.773,-36.5531 699.121,-37.5528 709.945,-39.3084 709.945,-39.3084"/>
</g>
<!-- User&#45;&gt;Category -->
<g id="edge20" class="edge"><title>User&#45;&gt;Category</title>
<path fill="none" stroke="#94fd25" d="M637.147,-361.957C661.734,-351.064 695.062,-336.298 720.981,-324.815"/>
<polygon fill="#94fd25" stroke="#94fd25" points="637.023,-362.012 626.057,-361.948 632.452,-364.037 627.88,-366.062 627.88,-366.062 627.88,-366.062 632.452,-364.037 629.703,-370.177 637.023,-362.012 637.023,-362.012"/>
<polygon fill="#94fd25" stroke="#94fd25" points="721.023,-324.797 731.988,-324.861 725.594,-322.772 730.165,-320.746 730.165,-320.746 730.165,-320.746 725.594,-322.772 728.343,-316.632 721.023,-324.797 721.023,-324.797"/>
</g>
<!-- User&#45;&gt;SubCategory -->
<g id="edge21" class="edge"><title>User&#45;&gt;SubCategory</title>
<path fill="none" stroke="#2a517b" d="M625.442,-354.605C648.383,-331.801 682.898,-298.367 698.193,-288 718.491,-274.241 742.926,-262.29 763.873,-253.236"/>
<polygon fill="#2a517b" stroke="#2a517b" points="625.228,-354.818 614.971,-358.697 621.689,-358.35 618.15,-361.882 618.15,-361.882 618.15,-361.882 621.689,-358.35 621.329,-365.067 625.228,-354.818 625.228,-354.818"/>
<polygon fill="#2a517b" stroke="#2a517b" points="764.013,-253.177 774.976,-253.43 768.618,-251.231 773.224,-249.285 773.224,-249.285 773.224,-249.285 768.618,-251.231 771.472,-245.14 764.013,-253.177 764.013,-253.177"/>
</g>
<!-- User&#45;&gt;Answer -->
<g id="edge22" class="edge"><title>User&#45;&gt;Answer</title>
<path fill="none" stroke="#99da29" d="M613.867,-352.677C625.107,-324.811 641.193,-277.506 641.193,-235 641.193,-235 641.193,-235 641.193,-161 641.193,-119.633 656.427,-73.7216 667.604,-45.6051"/>
<ellipse fill="none" stroke="#99da29" cx="612.228" cy="-356.641" rx="4.00001" ry="4.00001"/>
<polygon fill="#99da29" stroke="#99da29" points="667.71,-45.346 675.667,-37.7995 669.607,-40.7194 671.503,-36.0929 671.503,-36.0929 671.503,-36.0929 669.607,-40.7194 667.339,-34.3864 667.71,-45.346 667.71,-45.346"/>
</g>
<!-- User&#45;&gt;Test -->
<g id="edge24" class="edge"><title>User&#45;&gt;Test</title>
<path fill="none" stroke="#d27f89" d="M585.963,-352.253C573.526,-334.393 556.328,-309.703 541.193,-288 534.742,-278.749 527.653,-268.594 521.422,-259.669"/>
<polygon fill="#d27f89" stroke="#d27f89" points="586.283,-352.712 588.304,-363.49 589.14,-356.815 591.997,-360.919 591.997,-360.919 591.997,-360.919 589.14,-356.815 595.69,-358.347 586.283,-352.712 586.283,-352.712"/>
<polygon fill="#d27f89" stroke="#d27f89" points="521.257,-259.433 519.222,-248.658 518.395,-255.334 515.532,-251.234 515.532,-251.234 515.532,-251.234 518.395,-255.334 511.843,-253.811 521.257,-259.433 521.257,-259.433"/>
</g>
<!-- UserAttitudeTest -->
<g id="node18" class="node"><title>UserAttitudeTest</title>
<ellipse fill="none" stroke="black" cx="519.193" cy="-162" rx="93.6835" ry="18"/>
<text text-anchor="middle" x="519.193" y="-158.3" font-family="Times,serif" font-size="14.00">UserAttitudeTest</text>
</g>
<!-- User&#45;&gt;UserAttitudeTest -->
<g id="edge23" class="edge"><title>User&#45;&gt;UserAttitudeTest</title>
<path fill="none" stroke="#fe45cc" d="M595.104,-351.892C584.592,-319.934 565.203,-263.207 545.193,-216 541.415,-207.087 536.885,-197.536 532.673,-189.032"/>
<ellipse fill="none" stroke="#fe45cc" cx="596.461" cy="-356.039" rx="4.00001" ry="4.00001"/>
<polygon fill="#fe45cc" stroke="#fe45cc" points="532.605,-188.896 532.129,-177.941 530.357,-184.43 528.109,-179.964 528.109,-179.964 528.109,-179.964 530.357,-184.43 524.089,-181.987 532.605,-188.896 532.605,-188.896"/>
</g>
<!-- User&#45;&gt;CourseUser -->
<g id="edge19" class="edge"><title>User&#45;&gt;CourseUser</title>
<path fill="none" stroke="#58aa4d" d="M569.725,-363.688C505.202,-338.023 363.579,-281.691 291.004,-252.824"/>
<ellipse fill="none" stroke="#58aa4d" cx="573.801" cy="-365.309" rx="4.00001" ry="4.00001"/>
<polygon fill="#58aa4d" stroke="#58aa4d" points="290.951,-252.803 283.322,-244.926 286.305,-250.955 281.659,-249.107 281.659,-249.107 281.659,-249.107 286.305,-250.955 279.996,-253.288 290.951,-252.803 290.951,-252.803"/>
</g>
<!-- Question&#45;&gt;Choice -->
<g id="edge26" class="edge"><title>Question&#45;&gt;Choice</title>
<path fill="none" stroke="#00c258" d="M931.419,-145.446C899.649,-133.617 856.219,-117.446 824.956,-105.805"/>
<ellipse fill="none" stroke="#00c258" cx="935.399" cy="-146.928" rx="4.00001" ry="4.00001"/>
<polygon fill="#00c258" stroke="#00c258" points="824.634,-105.686 816.833,-97.9792 819.949,-103.941 815.263,-102.196 815.263,-102.196 815.263,-102.196 819.949,-103.941 813.693,-106.414 824.634,-105.686 824.634,-105.686"/>
</g>
<!-- Question&#45;&gt;Question -->
<g id="edge27" class="edge"><title>Question&#45;&gt;Question</title>
<path fill="none" stroke="#17fcc7" d="M1017.43,-175.498C1031.78,-175.398 1043.19,-170.899 1043.19,-162 1043.19,-153.513 1032.81,-149.028 1019.4,-148.544"/>
<ellipse fill="none" stroke="#17fcc7" cx="1013.2" cy="-175.294" rx="4" ry="4"/>
<polygon fill="#17fcc7" stroke="#17fcc7" points="1019.2,-148.551 1009.05,-144.402 1014.2,-148.725 1009.21,-148.899 1009.21,-148.899 1009.21,-148.899 1014.2,-148.725 1009.36,-153.396 1019.2,-148.551 1019.2,-148.551"/>
</g>
<!-- AreaQuestion -->
<g id="node11" class="node"><title>AreaQuestion</title>
<ellipse fill="none" stroke="black" cx="1116.19" cy="-18" rx="73.387" ry="18"/>
<text text-anchor="middle" x="1116.19" y="-14.3" font-family="Times,serif" font-size="14.00">AreaQuestion</text>
</g>
<!-- Question&#45;&gt;AreaQuestion -->
<g id="edge28" class="edge"><title>Question&#45;&gt;AreaQuestion</title>
<path fill="none" stroke="#df12ab" d="M995.41,-138.938C1021.73,-112.801 1065.4,-69.4332 1092.4,-42.6294"/>
<ellipse fill="none" stroke="#df12ab" cx="992.435" cy="-141.892" rx="4.00002" ry="4.00002"/>
<polygon fill="#df12ab" stroke="#df12ab" points="1092.44,-42.5829 1102.71,-38.7298 1095.99,-39.0597 1099.54,-35.5366 1099.54,-35.5366 1099.54,-35.5366 1095.99,-39.0597 1096.37,-32.3435 1092.44,-42.5829 1092.44,-42.5829"/>
</g>
<!-- Question&#45;&gt;Answer -->
<g id="edge25" class="edge"><title>Question&#45;&gt;Answer</title>
<path fill="none" stroke="#417e53" d="M945.896,-140.715C918.67,-121.172 875.115,-91.7423 834.193,-72 799.176,-55.1071 757.358,-41.1424 725.987,-31.7958"/>
<ellipse fill="none" stroke="#417e53" cx="949.214" cy="-143.114" rx="4.00002" ry="4.00002"/>
<polygon fill="#417e53" stroke="#417e53" points="725.788,-31.7374 717.456,-24.6072 720.989,-30.3315 716.191,-28.9256 716.191,-28.9256 716.191,-28.9256 720.989,-30.3315 714.926,-33.2441 725.788,-31.7374 725.788,-31.7374"/>
</g>
<!-- Area -->
<g id="node26" class="node"><title>Area</title>
<ellipse fill="none" stroke="black" cx="1146.19" cy="-90" rx="32.4942" ry="18"/>
<text text-anchor="middle" x="1146.19" y="-86.3" font-family="Times,serif" font-size="14.00">Area</text>
</g>
<!-- Question&#45;&gt;Area -->
<g id="edge29" class="edge"><title>Question&#45;&gt;Area</title>
<path fill="none" stroke="#d35904" d="M1015.13,-144.03C1044.66,-132.081 1083.73,-116.275 1111.5,-105.036"/>
<polygon fill="#d35904" stroke="#d35904" points="1015,-144.083 1004.04,-143.662 1010.37,-145.958 1005.73,-147.834 1005.73,-147.834 1005.73,-147.834 1010.37,-145.958 1007.42,-152.005 1015,-144.083 1015,-144.083"/>
<polygon fill="#d35904" stroke="#d35904" points="1111.55,-105.016 1122.51,-105.436 1116.19,-103.14 1120.82,-101.265 1120.82,-101.265 1120.82,-101.265 1116.19,-103.14 1119.14,-97.0932 1111.55,-105.016 1111.55,-105.016"/>
</g>
<!-- Career -->
<g id="node12" class="node"><title>Career</title>
<ellipse fill="none" stroke="black" cx="1177.19" cy="-378" rx="42.4939" ry="18"/>
<text text-anchor="middle" x="1177.19" y="-374.3" font-family="Times,serif" font-size="14.00">Career</text>
</g>
<!-- EventType -->
<g id="node13" class="node"><title>EventType</title>
<ellipse fill="none" stroke="black" cx="1377.19" cy="-471" rx="61.99" ry="18"/>
<text text-anchor="middle" x="1377.19" y="-467.3" font-family="Times,serif" font-size="14.00">EventType</text>
</g>
<!-- Event -->
<g id="node30" class="node"><title>Event</title>
<ellipse fill="none" stroke="black" cx="1377.19" cy="-378" rx="38.1938" ry="18"/>
<text text-anchor="middle" x="1377.19" y="-374.3" font-family="Times,serif" font-size="14.00">Event</text>
</g>
<!-- EventType&#45;&gt;Event -->
<g id="edge30" class="edge"><title>EventType&#45;&gt;Event</title>
<path fill="none" stroke="#0fbd33" d="M1377.19,-444.729C1377.19,-432.725 1377.19,-418.362 1377.19,-406.129"/>
<ellipse fill="none" stroke="#0fbd33" cx="1377.19" cy="-448.884" rx="4" ry="4"/>
<polygon fill="#0fbd33" stroke="#0fbd33" points="1377.19,-406.04 1381.69,-396.04 1377.19,-401.04 1377.19,-396.04 1377.19,-396.04 1377.19,-396.04 1377.19,-401.04 1372.69,-396.04 1377.19,-406.04 1377.19,-406.04"/>
</g>
<!-- Video -->
<g id="node14" class="node"><title>Video</title>
<ellipse fill="none" stroke="black" cx="1235.19" cy="-234" rx="36.2938" ry="18"/>
<text text-anchor="middle" x="1235.19" y="-230.3" font-family="Times,serif" font-size="14.00">Video</text>
</g>
<!-- Video&#45;&gt;Tutorial -->
<g id="edge32" class="edge"><title>Video&#45;&gt;Tutorial</title>
<path fill="none" stroke="#dada88" d="M1210.34,-213.002C1198.97,-203.855 1185.51,-193.023 1174.02,-183.783"/>
<ellipse fill="none" stroke="#dada88" cx="1213.63" cy="-215.647" rx="4.00002" ry="4.00002"/>
<ellipse fill="#dada88" stroke="#dada88" cx="1170.64" cy="-181.059" rx="4.00002" ry="4.00002"/>
</g>
<!-- Resource -->
<g id="node32" class="node"><title>Resource</title>
<ellipse fill="none" stroke="black" cx="1268.19" cy="-162" rx="53.0913" ry="18"/>
<text text-anchor="middle" x="1268.19" y="-158.3" font-family="Times,serif" font-size="14.00">Resource</text>
</g>
<!-- Video&#45;&gt;Resource -->
<g id="edge31" class="edge"><title>Video&#45;&gt;Resource</title>
<path fill="none" stroke="#4640eb" d="M1246.48,-209.062C1249.79,-202.034 1253.42,-194.343 1256.74,-187.293"/>
<ellipse fill="none" stroke="#4640eb" cx="1244.72" cy="-212.793" rx="4.00002" ry="4.00002"/>
<ellipse fill="#4640eb" stroke="#4640eb" cx="1258.49" cy="-183.574" rx="4.00002" ry="4.00002"/>
</g>
<!-- Point -->
<g id="node16" class="node"><title>Point</title>
<ellipse fill="none" stroke="black" cx="1522.19" cy="-378" rx="35.194" ry="18"/>
<text text-anchor="middle" x="1522.19" y="-374.3" font-family="Times,serif" font-size="14.00">Point</text>
</g>
<!-- Test&#45;&gt;Question -->
<g id="edge33" class="edge"><title>Test&#45;&gt;Question</title>
<path fill="none" stroke="#938b69" d="M543.734,-229.753C616.959,-223.322 778.403,-207.188 912.193,-180 916.553,-179.114 921.058,-178.083 925.555,-176.976"/>
<ellipse fill="none" stroke="#938b69" cx="539.652" cy="-230.107" rx="4" ry="4"/>
<polygon fill="#938b69" stroke="#938b69" points="925.642,-176.954 936.449,-178.812 930.483,-175.704 935.324,-174.455 935.324,-174.455 935.324,-174.455 930.483,-175.704 934.2,-170.098 925.642,-176.954 925.642,-176.954"/>
</g>
<!-- Test&#45;&gt;Answer -->
<g id="edge34" class="edge"><title>Test&#45;&gt;Answer</title>
<path fill="none" stroke="#f08f96" d="M469.016,-221.578C449.73,-213.309 427.502,-200.013 416.193,-180 408.321,-166.07 407.645,-157.526 416.193,-144 462.304,-71.0293 563.901,-39.791 626.457,-27.0775"/>
<ellipse fill="none" stroke="#f08f96" cx="472.8" cy="-223.109" rx="4.00001" ry="4.00001"/>
<polygon fill="#f08f96" stroke="#f08f96" points="626.708,-27.0288 637.383,-29.5399 631.616,-26.0756 636.525,-25.1225 636.525,-25.1225 636.525,-25.1225 631.616,-26.0756 635.667,-20.705 626.708,-27.0288 626.708,-27.0288"/>
</g>
<!-- Test&#45;&gt;UserAttitudeTest -->
<g id="edge36" class="edge"><title>Test&#45;&gt;UserAttitudeTest</title>
<path fill="none" stroke="#a59ba5" d="M509.553,-207.987C510.782,-202.249 512.095,-196.121 513.344,-190.293"/>
<ellipse fill="none" stroke="#a59ba5" cx="508.662" cy="-212.144" rx="4.00001" ry="4.00001"/>
<polygon fill="#a59ba5" stroke="#a59ba5" points="513.395,-190.053 519.891,-181.218 514.443,-185.164 515.491,-180.275 515.491,-180.275 515.491,-180.275 514.443,-185.164 511.091,-179.332 513.395,-190.053 513.395,-190.053"/>
</g>
<!-- CourseUserTest -->
<g id="node22" class="node"><title>CourseUserTest</title>
<ellipse fill="none" stroke="black" cx="246.193" cy="-162" rx="85.2851" ry="18"/>
<text text-anchor="middle" x="246.193" y="-158.3" font-family="Times,serif" font-size="14.00">CourseUserTest</text>
</g>
<!-- Test&#45;&gt;CourseUserTest -->
<g id="edge35" class="edge"><title>Test&#45;&gt;CourseUserTest</title>
<path fill="none" stroke="#466ac9" d="M468.118,-223.212C426.159,-211.828 356.251,-192.861 306.103,-179.255"/>
<ellipse fill="none" stroke="#466ac9" cx="472.231" cy="-224.328" rx="4.00001" ry="4.00001"/>
<polygon fill="#466ac9" stroke="#466ac9" points="306.002,-179.228 297.53,-172.266 301.177,-177.918 296.351,-176.609 296.351,-176.609 296.351,-176.609 301.177,-177.918 295.173,-180.952 306.002,-179.228 306.002,-179.228"/>
</g>
<!-- UserAttitudeTest&#45;&gt;Answer -->
<g id="edge37" class="edge"><title>UserAttitudeTest&#45;&gt;Answer</title>
<path fill="none" stroke="#2758c9" d="M545.996,-137.212C575.902,-110.67 623.947,-68.0308 653.426,-41.8682"/>
<polygon fill="#2758c9" stroke="#2758c9" points="545.654,-137.515 535.188,-140.787 541.915,-140.834 538.175,-144.153 538.175,-144.153 538.175,-144.153 541.915,-140.834 541.162,-147.519 545.654,-137.515 545.654,-137.515"/>
<polygon fill="#2758c9" stroke="#2758c9" points="653.738,-41.5909 664.204,-38.3187 657.478,-38.272 661.217,-34.953 661.217,-34.953 661.217,-34.953 657.478,-38.272 658.23,-31.5874 653.738,-41.5909 653.738,-41.5909"/>
</g>
<!-- Blog -->
<g id="node19" class="node"><title>Blog</title>
<ellipse fill="none" stroke="black" cx="1150.19" cy="-234" rx="30.5947" ry="18"/>
<text text-anchor="middle" x="1150.19" y="-230.3" font-family="Times,serif" font-size="14.00">Blog</text>
</g>
<!-- Blog&#45;&gt;Tutorial -->
<g id="edge38" class="edge"><title>Blog&#45;&gt;Tutorial</title>
<path fill="none" stroke="#b29662" d="M1149.47,-207.64C1149.29,-201.348 1149.1,-194.605 1148.92,-188.316"/>
<ellipse fill="none" stroke="#b29662" cx="1149.58" cy="-211.698" rx="4" ry="4"/>
<ellipse fill="#b29662" stroke="#b29662" cx="1148.8" cy="-184.103" rx="4" ry="4"/>
</g>
<!-- Blog&#45;&gt;Resource -->
<g id="edge39" class="edge"><title>Blog&#45;&gt;Resource</title>
<path fill="none" stroke="#759dd0" d="M1177.96,-216.526C1195.38,-206.194 1217.9,-192.837 1236.08,-182.051"/>
<ellipse fill="none" stroke="#759dd0" cx="1174.46" cy="-218.606" rx="4.00002" ry="4.00002"/>
<ellipse fill="#759dd0" stroke="#759dd0" cx="1239.63" cy="-179.945" rx="4.00002" ry="4.00002"/>
</g>
<!-- School -->
<g id="node20" class="node"><title>School</title>
<ellipse fill="none" stroke="black" cx="1117.19" cy="-471" rx="40.0939" ry="18"/>
<text text-anchor="middle" x="1117.19" y="-467.3" font-family="Times,serif" font-size="14.00">School</text>
</g>
<!-- School&#45;&gt;Career -->
<g id="edge40" class="edge"><title>School&#45;&gt;Career</title>
<path fill="none" stroke="#c4b5ef" d="M1132.78,-446.357C1141.32,-433.409 1151.9,-417.363 1160.59,-404.18"/>
<ellipse fill="none" stroke="#c4b5ef" cx="1130.4" cy="-449.97" rx="4.00002" ry="4.00002"/>
<polygon fill="#c4b5ef" stroke="#c4b5ef" points="1160.75,-403.934 1170.01,-398.062 1163.51,-399.759 1166.26,-395.585 1166.26,-395.585 1166.26,-395.585 1163.51,-399.759 1162.5,-393.108 1160.75,-403.934 1160.75,-403.934"/>
</g>
<!-- Student -->
<g id="node21" class="node"><title>Student</title>
<polygon fill="none" stroke="black" stroke-dasharray="1,5" points="1680.19,-489 1606.19,-489 1606.19,-453 1680.19,-453 1680.19,-489"/>
<text text-anchor="middle" x="1643.19" y="-467.3" font-family="Times,serif" font-size="14.00">Student</text>
</g>
<!-- CourseUserTest&#45;&gt;Answer -->
<g id="edge41" class="edge"><title>CourseUserTest&#45;&gt;Answer</title>
<path fill="none" stroke="#e28867" d="M272.45,-139.324C298.799,-118.735 341.372,-88.5413 383.193,-72 463.159,-40.3708 562.767,-27.5018 623.632,-22.3458"/>
<ellipse fill="none" stroke="#e28867" cx="269.248" cy="-141.856" rx="4.00002" ry="4.00002"/>
<polygon fill="#e28867" stroke="#e28867" points="623.828,-22.3302 634.157,-26.0117 628.812,-21.9282 633.796,-21.5263 633.796,-21.5263 633.796,-21.5263 628.812,-21.9282 633.434,-17.0409 623.828,-22.3302 623.828,-22.3302"/>
</g>
<!-- PointAction -->
<g id="node23" class="node"><title>PointAction</title>
<ellipse fill="none" stroke="black" cx="1522.19" cy="-471" rx="65.7887" ry="18"/>
<text text-anchor="middle" x="1522.19" y="-467.3" font-family="Times,serif" font-size="14.00">PointAction</text>
</g>
<!-- PointAction&#45;&gt;Point -->
<g id="edge42" class="edge"><title>PointAction&#45;&gt;Point</title>
<path fill="none" stroke="#feb8f2" d="M1522.19,-444.729C1522.19,-432.725 1522.19,-418.362 1522.19,-406.129"/>
<ellipse fill="none" stroke="#feb8f2" cx="1522.19" cy="-448.884" rx="4" ry="4"/>
<polygon fill="#feb8f2" stroke="#feb8f2" points="1522.19,-406.04 1526.69,-396.04 1522.19,-401.04 1522.19,-396.04 1522.19,-396.04 1522.19,-396.04 1522.19,-401.04 1517.69,-396.04 1522.19,-406.04 1522.19,-406.04"/>
</g>
<!-- ResourceProgress -->
<g id="node24" class="node"><title>ResourceProgress</title>
<ellipse fill="none" stroke="black" cx="1291.19" cy="-90" rx="94.7833" ry="18"/>
<text text-anchor="middle" x="1291.19" y="-86.3" font-family="Times,serif" font-size="14.00">ResourceProgress</text>
</g>
<!-- CourseUser&#45;&gt;Plan -->
<g id="edge46" class="edge"><title>CourseUser&#45;&gt;Plan</title>
<path fill="none" stroke="#77c688" d="M205.447,-214.849C183.883,-204.125 158.083,-190.629 139.022,-180.094"/>
<ellipse fill="none" stroke="#77c688" cx="209.248" cy="-216.726" rx="4.00002" ry="4.00002"/>
<ellipse fill="#77c688" stroke="#77c688" cx="135.305" cy="-178.019" rx="4.00002" ry="4.00002"/>
</g>
<!-- CourseUser&#45;&gt;CourseUserTest -->
<g id="edge44" class="edge"><title>CourseUser&#45;&gt;CourseUserTest</title>
<path fill="none" stroke="#006290" d="M246.193,-207.64C246.193,-202.063 246.193,-196.132 246.193,-190.476"/>
<ellipse fill="none" stroke="#006290" cx="246.193" cy="-211.697" rx="4" ry="4"/>
<polygon fill="#006290" stroke="#006290" points="246.193,-190.104 250.693,-180.104 246.193,-185.104 246.193,-180.104 246.193,-180.104 246.193,-180.104 246.193,-185.104 241.693,-180.104 246.193,-190.104 246.193,-190.104"/>
</g>
<!-- CourseUser&#45;&gt;ResourceProgress -->
<g id="edge43" class="edge"><title>CourseUser&#45;&gt;ResourceProgress</title>
<path fill="none" stroke="#6b24f2" d="M281.047,-213.717C326.525,-188.718 402,-147.844 416.193,-144 581.749,-99.1641 1016.61,-125.865 1187.19,-108 1196.21,-107.055 1205.64,-105.839 1214.98,-104.492"/>
<ellipse fill="none" stroke="#6b24f2" cx="277.524" cy="-215.656" rx="4.00002" ry="4.00002"/>
<polygon fill="#6b24f2" stroke="#6b24f2" points="1215.16,-104.465 1225.71,-107.436 1220.1,-103.725 1225.05,-102.985 1225.05,-102.985 1225.05,-102.985 1220.1,-103.725 1224.38,-98.535 1215.16,-104.465 1215.16,-104.465"/>
</g>
<!-- CourseUser&#45;&gt;CourseUserPlan -->
<g id="edge45" class="edge"><title>CourseUser&#45;&gt;CourseUserPlan</title>
<path fill="none" stroke="#aae930" d="M174.63,-230.491C137.753,-225.107 95.6967,-211.73 72.1926,-180 58.5904,-161.638 64.2018,-135.074 71.4661,-115.751"/>
<ellipse fill="none" stroke="#aae930" cx="178.933" cy="-231.058" rx="4.00001" ry="4.00001"/>
<ellipse fill="#aae930" stroke="#aae930" cx="73.0156" cy="-111.924" rx="4.00001" ry="4.00001"/>
</g>
<!-- Area&#45;&gt;AreaQuestion -->
<g id="edge47" class="edge"><title>Area&#45;&gt;AreaQuestion</title>
<path fill="none" stroke="#9ada79" d="M1135.81,-64.7779C1133.14,-58.544 1130.25,-51.8046 1127.53,-45.4634"/>
<ellipse fill="none" stroke="#9ada79" cx="1137.51" cy="-68.7344" rx="4.00002" ry="4.00002"/>
<polygon fill="#9ada79" stroke="#9ada79" points="1127.4,-45.1477 1127.6,-34.1835 1125.43,-40.5519 1123.46,-35.9562 1123.46,-35.9562 1123.46,-35.9562 1125.43,-40.5519 1119.32,-37.7289 1127.4,-45.1477 1127.4,-45.1477"/>
</g>
<!-- Section&#45;&gt;ResourceProgress -->
<g id="edge49" class="edge"><title>Section&#45;&gt;ResourceProgress</title>
<path fill="none" stroke="#56461a" d="M1337.56,-207.328C1338.33,-189.121 1337.53,-164.399 1330.19,-144 1326.6,-134.003 1320.47,-124.274 1314.12,-115.939"/>
<ellipse fill="none" stroke="#56461a" cx="1337.3" cy="-211.702" rx="4" ry="4"/>
<polygon fill="#56461a" stroke="#56461a" points="1314.07,-115.883 1311.28,-105.279 1310.93,-111.997 1307.78,-108.11 1307.78,-108.11 1307.78,-108.11 1310.93,-111.997 1304.28,-110.941 1314.07,-115.883 1314.07,-115.883"/>
</g>
<!-- Section&#45;&gt;Resource -->
<g id="edge48" class="edge"><title>Section&#45;&gt;Resource</title>
<path fill="none" stroke="#1b982a" d="M1313.88,-210.734C1306.64,-203.171 1298.52,-194.69 1291.16,-186.999"/>
<ellipse fill="none" stroke="#1b982a" cx="1316.89" cy="-213.875" rx="4.00002" ry="4.00002"/>
<polygon fill="#1b982a" stroke="#1b982a" points="1291.03,-186.858 1287.36,-176.522 1287.57,-183.246 1284.11,-179.633 1284.11,-179.633 1284.11,-179.633 1287.57,-183.246 1280.86,-182.745 1291.03,-186.858 1291.03,-186.858"/>
</g>
<!-- Webinar -->
<g id="node29" class="node"><title>Webinar</title>
<ellipse fill="none" stroke="black" cx="1747.19" cy="-471" rx="49.2915" ry="18"/>
<text text-anchor="middle" x="1747.19" y="-467.3" font-family="Times,serif" font-size="14.00">Webinar</text>
</g>
<!-- University -->
<g id="node31" class="node"><title>University</title>
<ellipse fill="none" stroke="black" cx="1236.19" cy="-471" rx="61.1893" ry="18"/>
<text text-anchor="middle" x="1236.19" y="-467.3" font-family="Times,serif" font-size="14.00">University</text>
</g>
<!-- University&#45;&gt;Career -->
<g id="edge50" class="edge"><title>University&#45;&gt;Career</title>
<path fill="none" stroke="#7b0c98" d="M1220.58,-445.921C1212.19,-432.974 1201.85,-417.029 1193.37,-403.951"/>
<ellipse fill="none" stroke="#7b0c98" cx="1222.92" cy="-449.527" rx="4.00002" ry="4.00002"/>
<polygon fill="#7b0c98" stroke="#7b0c98" points="1193.28,-403.817 1191.62,-392.979 1190.56,-399.622 1187.84,-395.427 1187.84,-395.427 1187.84,-395.427 1190.56,-399.622 1184.07,-397.875 1193.28,-403.817 1193.28,-403.817"/>
</g>
<!-- Resource&#45;&gt;ResourceProgress -->
<g id="edge51" class="edge"><title>Resource&#45;&gt;ResourceProgress</title>
<path fill="none" stroke="#854646" d="M1276.32,-136.267C1278.27,-130.34 1280.36,-123.981 1282.33,-117.959"/>
<ellipse fill="none" stroke="#854646" cx="1275.01" cy="-140.255" rx="4.00001" ry="4.00001"/>
<polygon fill="#854646" stroke="#854646" points="1282.39,-117.776 1289.79,-109.68 1283.96,-113.025 1285.52,-108.275 1285.52,-108.275 1285.52,-108.275 1283.96,-113.025 1281.24,-106.871 1282.39,-117.776 1282.39,-117.776"/>
</g>
<!-- Task -->
<g id="node33" class="node"><title>Task</title>
<ellipse fill="none" stroke="black" cx="1069.19" cy="-234" rx="32.4942" ry="18"/>
<text text-anchor="middle" x="1069.19" y="-230.3" font-family="Times,serif" font-size="14.00">Task</text>
</g>
<!-- Task&#45;&gt;Question -->
<g id="edge54" class="edge"><title>Task&#45;&gt;Question</title>
<path fill="none" stroke="#3e437b" d="M1043.49,-214.257C1030.91,-205.088 1015.71,-194.005 1002.67,-184.494"/>
<ellipse fill="none" stroke="#3e437b" cx="1046.99" cy="-216.814" rx="4.00002" ry="4.00002"/>
<polygon fill="#3e437b" stroke="#3e437b" points="1002.54,-184.399 997.11,-174.871 998.499,-181.453 994.459,-178.507 994.459,-178.507 994.459,-178.507 998.499,-181.453 991.808,-182.143 1002.54,-184.399 1002.54,-184.399"/>
</g>
<!-- Task&#45;&gt;Answer -->
<g id="edge53" class="edge"><title>Task&#45;&gt;Answer</title>
<path fill="none" stroke="#afc020" d="M1070.49,-207.841C1070.17,-188.4 1066.7,-161.878 1052.19,-144 974.025,-47.6426 818.954,-25.095 735.496,-20.1247"/>
<ellipse fill="none" stroke="#afc020" cx="1070.47" cy="-211.956" rx="4" ry="4"/>
<polygon fill="#afc020" stroke="#afc020" points="735.423,-20.121 725.676,-15.0968 730.43,-19.8557 725.437,-19.5905 725.437,-19.5905 725.437,-19.5905 730.43,-19.8557 725.199,-24.0842 735.423,-20.121 735.423,-20.121"/>
</g>
<!-- Task&#45;&gt;Resource -->
<g id="edge52" class="edge"><title>Task&#45;&gt;Resource</title>
<path fill="none" stroke="#f2cff4" d="M1101.73,-219.269C1104.58,-218.138 1107.43,-217.034 1110.19,-216 1147.78,-201.921 1191.04,-187.535 1222.77,-177.311"/>
<ellipse fill="none" stroke="#f2cff4" cx="1097.94" cy="-220.796" rx="4.00001" ry="4.00001"/>
<ellipse fill="#f2cff4" stroke="#f2cff4" cx="1226.78" cy="-176.026" rx="4.00001" ry="4.00001"/>
</g>
</g>
</svg>
