<?xml version="1.0" encoding="UTF-8" standalone="no"?>
<!DOCTYPE svg PUBLIC "-//W3C//DTD SVG 1.1//EN"
 "http://www.w3.org/Graphics/SVG/1.1/DTD/svg11.dtd">
<!-- Generated by graphviz version 2.36.0 (20140111.2315)
 -->
<!-- Title: models_diagram Pages: 1 -->
<svg width="1527pt" height="1360pt"
 viewBox="0.00 0.00 1526.93 1360.00" xmlns="http://www.w3.org/2000/svg" xmlns:xlink="http://www.w3.org/1999/xlink">
<g id="graph0" class="graph" transform="scale(1 1) rotate(0) translate(4 1356)">
<title>models_diagram</title>
<polygon fill="none" stroke="none" points="-4,4 -4,-1356 1522.93,-1356 1522.93,4 -4,4"/>
<!-- _diagram_info -->
<g id="node1" class="node"><title>_diagram_info</title>
<text text-anchor="start" x="153.93" y="-1202.6" font-family="Times,serif" font-size="13.00">Models diagram</text>
<text text-anchor="start" x="153.93" y="-1188.6" font-family="Times,serif" font-size="13.00">Date: Apr 05 2016 &#45; 20:32</text>
<text text-anchor="start" x="153.93" y="-1174.6" font-family="Times,serif" font-size="13.00">Migration version: 20160307003117</text>
<text text-anchor="start" x="153.93" y="-1160.6" font-family="Times,serif" font-size="13.00">Generated by RailRoady 1.4.2</text>
<text text-anchor="start" x="153.93" y="-1146.6" font-family="Times,serif" font-size="13.00">http://railroady.prestonlee.com</text>
</g>
<!-- SubCategory -->
<g id="node2" class="node"><title>SubCategory</title>
<path fill="none" stroke="black" d="M874.93,-597.5C874.93,-597.5 1094.93,-597.5 1094.93,-597.5 1100.93,-597.5 1106.93,-603.5 1106.93,-609.5 1106.93,-609.5 1106.93,-736.5 1106.93,-736.5 1106.93,-742.5 1100.93,-748.5 1094.93,-748.5 1094.93,-748.5 874.93,-748.5 874.93,-748.5 868.93,-748.5 862.93,-742.5 862.93,-736.5 862.93,-736.5 862.93,-609.5 862.93,-609.5 862.93,-603.5 868.93,-597.5 874.93,-597.5"/>
<text text-anchor="middle" x="984.93" y="-733.3" font-family="Times,serif" font-size="14.00">SubCategory</text>
<polyline fill="none" stroke="black" points="862.93,-725.5 1106.93,-725.5 "/>
<text text-anchor="start" x="870.93" y="-710.3" font-family="Times,serif" font-size="14.00">id :integer</text>
<text text-anchor="start" x="870.93" y="-695.3" font-family="Times,serif" font-size="14.00">name :character varying</text>
<text text-anchor="start" x="870.93" y="-680.3" font-family="Times,serif" font-size="14.00">user_id :integer</text>
<text text-anchor="start" x="870.93" y="-665.3" font-family="Times,serif" font-size="14.00">category_id :integer</text>
<text text-anchor="start" x="870.93" y="-650.3" font-family="Times,serif" font-size="14.00">created_at :timestamp without time zone</text>
<text text-anchor="start" x="870.93" y="-635.3" font-family="Times,serif" font-size="14.00">updated_at :timestamp without time zone</text>
<text text-anchor="start" x="870.93" y="-620.3" font-family="Times,serif" font-size="14.00">questions_count :integer</text>
<text text-anchor="start" x="870.93" y="-605.3" font-family="Times,serif" font-size="14.00">description :text</text>
</g>
<!-- AnsweredQuestion -->
<g id="node7" class="node"><title>AnsweredQuestion</title>
<path fill="none" stroke="black" d="M724.93,-160C724.93,-160 944.93,-160 944.93,-160 950.93,-160 956.93,-166 956.93,-172 956.93,-172 956.93,-284 956.93,-284 956.93,-290 950.93,-296 944.93,-296 944.93,-296 724.93,-296 724.93,-296 718.93,-296 712.93,-290 712.93,-284 712.93,-284 712.93,-172 712.93,-172 712.93,-166 718.93,-160 724.93,-160"/>
<text text-anchor="middle" x="834.93" y="-280.8" font-family="Times,serif" font-size="14.00">AnsweredQuestion</text>
<polyline fill="none" stroke="black" points="712.93,-273 956.93,-273 "/>
<text text-anchor="start" x="720.93" y="-257.8" font-family="Times,serif" font-size="14.00">id :integer</text>
<text text-anchor="start" x="720.93" y="-242.8" font-family="Times,serif" font-size="14.00">correct :boolean</text>
<text text-anchor="start" x="720.93" y="-227.8" font-family="Times,serif" font-size="14.00">user_id :integer</text>
<text text-anchor="start" x="720.93" y="-212.8" font-family="Times,serif" font-size="14.00">question_id :integer</text>
<text text-anchor="start" x="720.93" y="-197.8" font-family="Times,serif" font-size="14.00">choice_id :integer</text>
<text text-anchor="start" x="720.93" y="-182.8" font-family="Times,serif" font-size="14.00">created_at :timestamp without time zone</text>
<text text-anchor="start" x="720.93" y="-167.8" font-family="Times,serif" font-size="14.00">updated_at :timestamp without time zone</text>
</g>
<!-- SubCategory&#45;&gt;AnsweredQuestion -->
<g id="edge3" class="edge"><title>SubCategory&#45;&gt;AnsweredQuestion</title>
<path fill="none" stroke="#0b8c6f" d="M956.409,-587.77C928.93,-506.614 887.709,-384.875 861.063,-306.179"/>
<polygon fill="#0b8c6f" stroke="#0b8c6f" points="956.447,-587.88 955.392,-598.795 958.05,-592.616 959.654,-597.352 959.654,-597.352 959.654,-597.352 958.05,-592.616 963.916,-595.909 956.447,-587.88 956.447,-587.88"/>
<polygon fill="#0b8c6f" stroke="#0b8c6f" points="860.933,-305.796 861.988,-294.881 859.329,-301.06 857.726,-296.324 857.726,-296.324 857.726,-296.324 859.329,-301.06 853.464,-297.767 860.933,-305.796 860.933,-305.796"/>
</g>
<!-- Question -->
<g id="node14" class="node"><title>Question</title>
<path fill="none" stroke="black" d="M368.93,-349C368.93,-349 588.93,-349 588.93,-349 594.93,-349 600.93,-355 600.93,-361 600.93,-361 600.93,-533 600.93,-533 600.93,-539 594.93,-545 588.93,-545 588.93,-545 368.93,-545 368.93,-545 362.93,-545 356.93,-539 356.93,-533 356.93,-533 356.93,-361 356.93,-361 356.93,-355 362.93,-349 368.93,-349"/>
<text text-anchor="middle" x="478.93" y="-529.8" font-family="Times,serif" font-size="14.00">Question</text>
<polyline fill="none" stroke="black" points="356.93,-522 600.93,-522 "/>
<text text-anchor="start" x="364.93" y="-506.8" font-family="Times,serif" font-size="14.00">id :integer</text>
<text text-anchor="start" x="364.93" y="-491.8" font-family="Times,serif" font-size="14.00">content :character varying</text>
<text text-anchor="start" x="364.93" y="-476.8" font-family="Times,serif" font-size="14.00">choice_id :integer</text>
<text text-anchor="start" x="364.93" y="-461.8" font-family="Times,serif" font-size="14.00">user_id :integer</text>
<text text-anchor="start" x="364.93" y="-446.8" font-family="Times,serif" font-size="14.00">sub_category_id :integer</text>
<text text-anchor="start" x="364.93" y="-431.8" font-family="Times,serif" font-size="14.00">created_at :timestamp without time zone</text>
<text text-anchor="start" x="364.93" y="-416.8" font-family="Times,serif" font-size="14.00">updated_at :timestamp without time zone</text>
<text text-anchor="start" x="364.93" y="-401.8" font-family="Times,serif" font-size="14.00">answered_questions_count :integer</text>
<text text-anchor="start" x="364.93" y="-386.8" font-family="Times,serif" font-size="14.00">explanation :character varying</text>
<text text-anchor="start" x="364.93" y="-371.8" font-family="Times,serif" font-size="14.00">picture :character varying</text>
<text text-anchor="start" x="364.93" y="-356.8" font-family="Times,serif" font-size="14.00">url :character varying</text>
</g>
<!-- SubCategory&#45;&gt;Question -->
<g id="edge1" class="edge"><title>SubCategory&#45;&gt;Question</title>
<path fill="none" stroke="#65af7a" d="M855.266,-614.599C780.306,-581.416 686.223,-539.766 610.88,-506.413"/>
<ellipse fill="none" stroke="#65af7a" cx="859.106" cy="-616.299" rx="4.00002" ry="4.00002"/>
<polygon fill="#65af7a" stroke="#65af7a" points="610.462,-506.228 603.14,-498.065 605.89,-504.204 601.318,-502.18 601.318,-502.18 601.318,-502.18 605.89,-504.204 599.497,-506.295 610.462,-506.228 610.462,-506.228"/>
</g>
<!-- Choice -->
<g id="node15" class="node"><title>Choice</title>
<path fill="none" stroke="black" d="M724.93,-1C724.93,-1 944.93,-1 944.93,-1 950.93,-1 956.93,-7 956.93,-13 956.93,-13 956.93,-95 956.93,-95 956.93,-101 950.93,-107 944.93,-107 944.93,-107 724.93,-107 724.93,-107 718.93,-107 712.93,-101 712.93,-95 712.93,-95 712.93,-13 712.93,-13 712.93,-7 718.93,-1 724.93,-1"/>
<text text-anchor="middle" x="834.93" y="-91.8" font-family="Times,serif" font-size="14.00">Choice</text>
<polyline fill="none" stroke="black" points="712.93,-84 956.93,-84 "/>
<text text-anchor="start" x="720.93" y="-68.8" font-family="Times,serif" font-size="14.00">id :integer</text>
<text text-anchor="start" x="720.93" y="-53.8" font-family="Times,serif" font-size="14.00">content :character varying</text>
<text text-anchor="start" x="720.93" y="-38.8" font-family="Times,serif" font-size="14.00">question_id :integer</text>
<text text-anchor="start" x="720.93" y="-23.8" font-family="Times,serif" font-size="14.00">created_at :timestamp without time zone</text>
<text text-anchor="start" x="720.93" y="-8.8" font-family="Times,serif" font-size="14.00">updated_at :timestamp without time zone</text>
</g>
<!-- SubCategory&#45;&gt;Choice -->
<g id="edge2" class="edge"><title>SubCategory&#45;&gt;Choice</title>
<path fill="none" stroke="#4c2ef1" d="M1004.08,-587.304C1024.16,-477.552 1043.18,-283.733 965.93,-144 959.789,-132.892 951.604,-122.897 942.311,-113.973"/>
<polygon fill="#4c2ef1" stroke="#4c2ef1" points="1004.04,-587.505 997.771,-596.503 1003.12,-592.419 1002.19,-597.333 1002.19,-597.333 1002.19,-597.333 1003.12,-592.419 1006.62,-598.163 1004.04,-587.505 1004.04,-587.505"/>
<polygon fill="#4c2ef1" stroke="#4c2ef1" points="942.061,-113.748 937.655,-103.706 938.35,-110.397 934.639,-107.046 934.639,-107.046 934.639,-107.046 938.35,-110.397 931.623,-110.386 942.061,-113.748 942.061,-113.748"/>
</g>
<!-- Point -->
<g id="node3" class="node"><title>Point</title>
<path fill="none" stroke="black" d="M1024.93,-801C1024.93,-801 1244.93,-801 1244.93,-801 1250.93,-801 1256.93,-807 1256.93,-813 1256.93,-813 1256.93,-955 1256.93,-955 1256.93,-961 1250.93,-967 1244.93,-967 1244.93,-967 1024.93,-967 1024.93,-967 1018.93,-967 1012.93,-961 1012.93,-955 1012.93,-955 1012.93,-813 1012.93,-813 1012.93,-807 1018.93,-801 1024.93,-801"/>
<text text-anchor="middle" x="1134.93" y="-951.8" font-family="Times,serif" font-size="14.00">Point</text>
<polyline fill="none" stroke="black" points="1012.93,-944 1256.93,-944 "/>
<text text-anchor="start" x="1020.93" y="-928.8" font-family="Times,serif" font-size="14.00">id :integer</text>
<text text-anchor="start" x="1020.93" y="-913.8" font-family="Times,serif" font-size="14.00">owner_id :integer</text>
<text text-anchor="start" x="1020.93" y="-898.8" font-family="Times,serif" font-size="14.00">owner_type :character varying</text>
<text text-anchor="start" x="1020.93" y="-883.8" font-family="Times,serif" font-size="14.00">points :integer</text>
<text text-anchor="start" x="1020.93" y="-868.8" font-family="Times,serif" font-size="14.00">point_action_id :integer</text>
<text text-anchor="start" x="1020.93" y="-853.8" font-family="Times,serif" font-size="14.00">recipient_id :integer</text>
<text text-anchor="start" x="1020.93" y="-838.8" font-family="Times,serif" font-size="14.00">recipient_type :character varying</text>
<text text-anchor="start" x="1020.93" y="-823.8" font-family="Times,serif" font-size="14.00">created_at :timestamp without time zone</text>
<text text-anchor="start" x="1020.93" y="-808.8" font-family="Times,serif" font-size="14.00">updated_at :timestamp without time zone</text>
</g>
<!-- Simulator -->
<g id="node4" class="node"><title>Simulator</title>
<path fill="none" stroke="black" d="M95.4299,-582.5C95.4299,-582.5 344.43,-582.5 344.43,-582.5 350.43,-582.5 356.43,-588.5 356.43,-594.5 356.43,-594.5 356.43,-751.5 356.43,-751.5 356.43,-757.5 350.43,-763.5 344.43,-763.5 344.43,-763.5 95.4299,-763.5 95.4299,-763.5 89.4299,-763.5 83.4299,-757.5 83.4299,-751.5 83.4299,-751.5 83.4299,-594.5 83.4299,-594.5 83.4299,-588.5 89.4299,-582.5 95.4299,-582.5"/>
<text text-anchor="middle" x="219.93" y="-748.3" font-family="Times,serif" font-size="14.00">Simulator</text>
<polyline fill="none" stroke="black" points="83.4299,-740.5 356.43,-740.5 "/>
<text text-anchor="start" x="91.4299" y="-725.3" font-family="Times,serif" font-size="14.00">id :integer</text>
<text text-anchor="start" x="91.4299" y="-710.3" font-family="Times,serif" font-size="14.00">user_id :integer</text>
<text text-anchor="start" x="91.4299" y="-695.3" font-family="Times,serif" font-size="14.00">time_left :time without time zone</text>
<text text-anchor="start" x="91.4299" y="-680.3" font-family="Times,serif" font-size="14.00">last_started :timestamp without time zone</text>
<text text-anchor="start" x="91.4299" y="-665.3" font-family="Times,serif" font-size="14.00">last_paused :timestamp without time zone</text>
<text text-anchor="start" x="91.4299" y="-650.3" font-family="Times,serif" font-size="14.00">time_completed :timestamp without time zone</text>
<text text-anchor="start" x="91.4299" y="-635.3" font-family="Times,serif" font-size="14.00">created_at :timestamp without time zone</text>
<text text-anchor="start" x="91.4299" y="-620.3" font-family="Times,serif" font-size="14.00">updated_at :timestamp without time zone</text>
<text text-anchor="start" x="91.4299" y="-605.3" font-family="Times,serif" font-size="14.00">simulator_type_id :integer</text>
<text text-anchor="start" x="91.4299" y="-590.3" font-family="Times,serif" font-size="14.00">status :integer</text>
</g>
<!-- SimulatorAnsweredQuestion -->
<g id="node8" class="node"><title>SimulatorAnsweredQuestion</title>
<path fill="none" stroke="black" d="M109.93,-145C109.93,-145 329.93,-145 329.93,-145 335.93,-145 341.93,-151 341.93,-157 341.93,-157 341.93,-299 341.93,-299 341.93,-305 335.93,-311 329.93,-311 329.93,-311 109.93,-311 109.93,-311 103.93,-311 97.9299,-305 97.9299,-299 97.9299,-299 97.9299,-157 97.9299,-157 97.9299,-151 103.93,-145 109.93,-145"/>
<text text-anchor="middle" x="219.93" y="-295.8" font-family="Times,serif" font-size="14.00">SimulatorAnsweredQuestion</text>
<polyline fill="none" stroke="black" points="97.9299,-288 341.93,-288 "/>
<text text-anchor="start" x="105.93" y="-272.8" font-family="Times,serif" font-size="14.00">id :integer</text>
<text text-anchor="start" x="105.93" y="-257.8" font-family="Times,serif" font-size="14.00">simulator_id :integer</text>
<text text-anchor="start" x="105.93" y="-242.8" font-family="Times,serif" font-size="14.00">question_id :integer</text>
<text text-anchor="start" x="105.93" y="-227.8" font-family="Times,serif" font-size="14.00">user_id :integer</text>
<text text-anchor="start" x="105.93" y="-212.8" font-family="Times,serif" font-size="14.00">choice_id :integer</text>
<text text-anchor="start" x="105.93" y="-197.8" font-family="Times,serif" font-size="14.00">created_at :timestamp without time zone</text>
<text text-anchor="start" x="105.93" y="-182.8" font-family="Times,serif" font-size="14.00">updated_at :timestamp without time zone</text>
<text text-anchor="start" x="105.93" y="-167.8" font-family="Times,serif" font-size="14.00">status :integer</text>
<text text-anchor="start" x="105.93" y="-152.8" font-family="Times,serif" font-size="14.00">marked_status :integer</text>
</g>
<!-- Simulator&#45;&gt;SimulatorAnsweredQuestion -->
<g id="edge4" class="edge"><title>Simulator&#45;&gt;SimulatorAnsweredQuestion</title>
<path fill="none" stroke="#ac26c8" d="M219.93,-574.33C219.93,-498.923 219.93,-395.304 219.93,-321.286"/>
<ellipse fill="none" stroke="#ac26c8" cx="219.93" cy="-578.352" rx="4" ry="4"/>
<polygon fill="#ac26c8" stroke="#ac26c8" points="219.93,-321.044 224.43,-311.044 219.93,-316.044 219.93,-311.044 219.93,-311.044 219.93,-311.044 219.93,-316.044 215.43,-311.044 219.93,-321.044 219.93,-321.044"/>
</g>
<!-- Simulator&#45;&gt;Question -->
<g id="edge5" class="edge"><title>Simulator&#45;&gt;Question</title>
<path fill="none" stroke="#64589c" d="M331.406,-575.588C340.508,-567.717 349.73,-559.74 358.89,-551.819"/>
<polygon fill="#64589c" stroke="#64589c" points="331.346,-575.64 320.839,-578.778 327.565,-578.911 323.783,-582.181 323.783,-582.181 323.783,-582.181 327.565,-578.911 326.726,-585.585 331.346,-575.64 331.346,-575.64"/>
<polygon fill="#64589c" stroke="#64589c" points="359.001,-551.722 369.508,-548.584 362.783,-548.452 366.565,-545.181 366.565,-545.181 366.565,-545.181 362.783,-548.452 363.621,-541.777 359.001,-551.722 359.001,-551.722"/>
</g>
<!-- SimulatorType -->
<g id="node5" class="node"><title>SimulatorType</title>
<path fill="none" stroke="black" d="M124.93,-801C124.93,-801 344.93,-801 344.93,-801 350.93,-801 356.93,-807 356.93,-813 356.93,-813 356.93,-955 356.93,-955 356.93,-961 350.93,-967 344.93,-967 344.93,-967 124.93,-967 124.93,-967 118.93,-967 112.93,-961 112.93,-955 112.93,-955 112.93,-813 112.93,-813 112.93,-807 118.93,-801 124.93,-801"/>
<text text-anchor="middle" x="234.93" y="-951.8" font-family="Times,serif" font-size="14.00">SimulatorType</text>
<polyline fill="none" stroke="black" points="112.93,-944 356.93,-944 "/>
<text text-anchor="start" x="120.93" y="-928.8" font-family="Times,serif" font-size="14.00">id :integer</text>
<text text-anchor="start" x="120.93" y="-913.8" font-family="Times,serif" font-size="14.00">name :character varying</text>
<text text-anchor="start" x="120.93" y="-898.8" font-family="Times,serif" font-size="14.00">total_questions :integer</text>
<text text-anchor="start" x="120.93" y="-883.8" font-family="Times,serif" font-size="14.00">time_duration :time without time zone</text>
<text text-anchor="start" x="120.93" y="-868.8" font-family="Times,serif" font-size="14.00">created_at :timestamp without time zone</text>
<text text-anchor="start" x="120.93" y="-853.8" font-family="Times,serif" font-size="14.00">updated_at :timestamp without time zone</text>
<text text-anchor="start" x="120.93" y="-838.8" font-family="Times,serif" font-size="14.00">description :character varying</text>
<text text-anchor="start" x="120.93" y="-823.8" font-family="Times,serif" font-size="14.00">limit :integer</text>
<text text-anchor="start" x="120.93" y="-808.8" font-family="Times,serif" font-size="14.00">points :integer</text>
</g>
<!-- SimulatorType&#45;&gt;Simulator -->
<g id="edge6" class="edge"><title>SimulatorType&#45;&gt;Simulator</title>
<path fill="none" stroke="#e0fc26" d="M228.464,-792.913C228.008,-786.56 227.547,-780.134 227.088,-773.733"/>
<ellipse fill="none" stroke="#e0fc26" cx="228.758" cy="-797.008" rx="4" ry="4"/>
<polygon fill="#e0fc26" stroke="#e0fc26" points="227.084,-773.681 230.857,-763.385 226.726,-768.694 226.368,-763.707 226.368,-763.707 226.368,-763.707 226.726,-768.694 221.88,-764.029 227.084,-773.681 227.084,-773.681"/>
</g>
<!-- SimulatedCategory -->
<g id="node6" class="node"><title>SimulatedCategory</title>
<path fill="none" stroke="black" d="M518.93,-627.5C518.93,-627.5 738.93,-627.5 738.93,-627.5 744.93,-627.5 750.93,-633.5 750.93,-639.5 750.93,-639.5 750.93,-706.5 750.93,-706.5 750.93,-712.5 744.93,-718.5 738.93,-718.5 738.93,-718.5 518.93,-718.5 518.93,-718.5 512.93,-718.5 506.93,-712.5 506.93,-706.5 506.93,-706.5 506.93,-639.5 506.93,-639.5 506.93,-633.5 512.93,-627.5 518.93,-627.5"/>
<text text-anchor="middle" x="628.93" y="-703.3" font-family="Times,serif" font-size="14.00">SimulatedCategory</text>
<polyline fill="none" stroke="black" points="506.93,-695.5 750.93,-695.5 "/>
<text text-anchor="start" x="514.93" y="-680.3" font-family="Times,serif" font-size="14.00">id :integer</text>
<text text-anchor="start" x="514.93" y="-665.3" font-family="Times,serif" font-size="14.00">category_id :integer</text>
<text text-anchor="start" x="514.93" y="-650.3" font-family="Times,serif" font-size="14.00">created_at :timestamp without time zone</text>
<text text-anchor="start" x="514.93" y="-635.3" font-family="Times,serif" font-size="14.00">updated_at :timestamp without time zone</text>
</g>
<!-- AnsweredQuestion&#45;&gt;Choice -->
<g id="edge7" class="edge"><title>AnsweredQuestion&#45;&gt;Choice</title>
<path fill="none" stroke="#097dcf" d="M834.93,-149.214C834.93,-138.525 834.93,-127.666 834.93,-117.304"/>
<polygon fill="#097dcf" stroke="#097dcf" points="834.93,-149.515 830.43,-159.515 834.93,-154.515 834.93,-159.515 834.93,-159.515 834.93,-159.515 834.93,-154.515 839.43,-159.515 834.93,-149.515 834.93,-149.515"/>
<polygon fill="#097dcf" stroke="#097dcf" points="834.93,-117.134 839.43,-107.134 834.93,-112.134 834.93,-107.134 834.93,-107.134 834.93,-107.134 834.93,-112.134 830.43,-107.134 834.93,-117.134 834.93,-117.134"/>
</g>
<!-- PointAction -->
<g id="node9" class="node"><title>PointAction</title>
<path fill="none" stroke="black" d="M1024.93,-1117.5C1024.93,-1117.5 1244.93,-1117.5 1244.93,-1117.5 1250.93,-1117.5 1256.93,-1123.5 1256.93,-1129.5 1256.93,-1129.5 1256.93,-1226.5 1256.93,-1226.5 1256.93,-1232.5 1250.93,-1238.5 1244.93,-1238.5 1244.93,-1238.5 1024.93,-1238.5 1024.93,-1238.5 1018.93,-1238.5 1012.93,-1232.5 1012.93,-1226.5 1012.93,-1226.5 1012.93,-1129.5 1012.93,-1129.5 1012.93,-1123.5 1018.93,-1117.5 1024.93,-1117.5"/>
<text text-anchor="middle" x="1134.93" y="-1223.3" font-family="Times,serif" font-size="14.00">PointAction</text>
<polyline fill="none" stroke="black" points="1012.93,-1215.5 1256.93,-1215.5 "/>
<text text-anchor="start" x="1020.93" y="-1200.3" font-family="Times,serif" font-size="14.00">id :integer</text>
<text text-anchor="start" x="1020.93" y="-1185.3" font-family="Times,serif" font-size="14.00">action :character varying</text>
<text text-anchor="start" x="1020.93" y="-1170.3" font-family="Times,serif" font-size="14.00">description :character varying</text>
<text text-anchor="start" x="1020.93" y="-1155.3" font-family="Times,serif" font-size="14.00">points_alloted :integer</text>
<text text-anchor="start" x="1020.93" y="-1140.3" font-family="Times,serif" font-size="14.00">created_at :timestamp without time zone</text>
<text text-anchor="start" x="1020.93" y="-1125.3" font-family="Times,serif" font-size="14.00">updated_at :timestamp without time zone</text>
</g>
<!-- PointAction&#45;&gt;Point -->
<g id="edge8" class="edge"><title>PointAction&#45;&gt;Point</title>
<path fill="none" stroke="#fe0018" d="M1134.93,-1109.17C1134.93,-1069.94 1134.93,-1020.03 1134.93,-977.268"/>
<ellipse fill="none" stroke="#fe0018" cx="1134.93" cy="-1113.2" rx="4" ry="4"/>
<polygon fill="#fe0018" stroke="#fe0018" points="1134.93,-977.13 1139.43,-967.13 1134.93,-972.13 1134.93,-967.13 1134.93,-967.13 1134.93,-967.13 1134.93,-972.13 1130.43,-967.13 1134.93,-977.13 1134.93,-977.13"/>
</g>
<!-- License -->
<g id="node10" class="node"><title>License</title>
<path fill="none" stroke="black" d="M686.93,-823.5C686.93,-823.5 906.93,-823.5 906.93,-823.5 912.93,-823.5 918.93,-829.5 918.93,-835.5 918.93,-835.5 918.93,-932.5 918.93,-932.5 918.93,-938.5 912.93,-944.5 906.93,-944.5 906.93,-944.5 686.93,-944.5 686.93,-944.5 680.93,-944.5 674.93,-938.5 674.93,-932.5 674.93,-932.5 674.93,-835.5 674.93,-835.5 674.93,-829.5 680.93,-823.5 686.93,-823.5"/>
<text text-anchor="middle" x="796.93" y="-929.3" font-family="Times,serif" font-size="14.00">License</text>
<polyline fill="none" stroke="black" points="674.93,-921.5 918.93,-921.5 "/>
<text text-anchor="start" x="682.93" y="-906.3" font-family="Times,serif" font-size="14.00">id :integer</text>
<text text-anchor="start" x="682.93" y="-891.3" font-family="Times,serif" font-size="14.00">user_id :integer</text>
<text text-anchor="start" x="682.93" y="-876.3" font-family="Times,serif" font-size="14.00">plan :integer</text>
<text text-anchor="start" x="682.93" y="-861.3" font-family="Times,serif" font-size="14.00">days_left :integer</text>
<text text-anchor="start" x="682.93" y="-846.3" font-family="Times,serif" font-size="14.00">created_at :timestamp without time zone</text>
<text text-anchor="start" x="682.93" y="-831.3" font-family="Times,serif" font-size="14.00">updated_at :timestamp without time zone</text>
</g>
<!-- LiveClass -->
<g id="node11" class="node"><title>LiveClass</title>
<path fill="none" stroke="black" d="M1286.93,-1095C1286.93,-1095 1506.93,-1095 1506.93,-1095 1512.93,-1095 1518.93,-1101 1518.93,-1107 1518.93,-1107 1518.93,-1249 1518.93,-1249 1518.93,-1255 1512.93,-1261 1506.93,-1261 1506.93,-1261 1286.93,-1261 1286.93,-1261 1280.93,-1261 1274.93,-1255 1274.93,-1249 1274.93,-1249 1274.93,-1107 1274.93,-1107 1274.93,-1101 1280.93,-1095 1286.93,-1095"/>
<text text-anchor="middle" x="1396.93" y="-1245.8" font-family="Times,serif" font-size="14.00">LiveClass</text>
<polyline fill="none" stroke="black" points="1274.93,-1238 1518.93,-1238 "/>
<text text-anchor="start" x="1282.93" y="-1222.8" font-family="Times,serif" font-size="14.00">id :integer</text>
<text text-anchor="start" x="1282.93" y="-1207.8" font-family="Times,serif" font-size="14.00">subject :character varying</text>
<text text-anchor="start" x="1282.93" y="-1192.8" font-family="Times,serif" font-size="14.00">professor :character varying</text>
<text text-anchor="start" x="1282.93" y="-1177.8" font-family="Times,serif" font-size="14.00">url :character varying</text>
<text text-anchor="start" x="1282.93" y="-1162.8" font-family="Times,serif" font-size="14.00">online_now :boolean</text>
<text text-anchor="start" x="1282.93" y="-1147.8" font-family="Times,serif" font-size="14.00">created_at :timestamp without time zone</text>
<text text-anchor="start" x="1282.93" y="-1132.8" font-family="Times,serif" font-size="14.00">updated_at :timestamp without time zone</text>
<text text-anchor="start" x="1282.93" y="-1117.8" font-family="Times,serif" font-size="14.00">time :timestamp without time zone</text>
<text text-anchor="start" x="1282.93" y="-1102.8" font-family="Times,serif" font-size="14.00">explanation :text</text>
</g>
<!-- Category -->
<g id="node12" class="node"><title>Category</title>
<path fill="none" stroke="black" d="M424.93,-823.5C424.93,-823.5 644.93,-823.5 644.93,-823.5 650.93,-823.5 656.93,-829.5 656.93,-835.5 656.93,-835.5 656.93,-932.5 656.93,-932.5 656.93,-938.5 650.93,-944.5 644.93,-944.5 644.93,-944.5 424.93,-944.5 424.93,-944.5 418.93,-944.5 412.93,-938.5 412.93,-932.5 412.93,-932.5 412.93,-835.5 412.93,-835.5 412.93,-829.5 418.93,-823.5 424.93,-823.5"/>
<text text-anchor="middle" x="534.93" y="-929.3" font-family="Times,serif" font-size="14.00">Category</text>
<polyline fill="none" stroke="black" points="412.93,-921.5 656.93,-921.5 "/>
<text text-anchor="start" x="420.93" y="-906.3" font-family="Times,serif" font-size="14.00">id :integer</text>
<text text-anchor="start" x="420.93" y="-891.3" font-family="Times,serif" font-size="14.00">name :character varying</text>
<text text-anchor="start" x="420.93" y="-876.3" font-family="Times,serif" font-size="14.00">user_id :integer</text>
<text text-anchor="start" x="420.93" y="-861.3" font-family="Times,serif" font-size="14.00">created_at :timestamp without time zone</text>
<text text-anchor="start" x="420.93" y="-846.3" font-family="Times,serif" font-size="14.00">updated_at :timestamp without time zone</text>
<text text-anchor="start" x="420.93" y="-831.3" font-family="Times,serif" font-size="14.00">sub_categories_count :integer</text>
</g>
<!-- Category&#45;&gt;SubCategory -->
<g id="edge9" class="edge"><title>Category&#45;&gt;SubCategory</title>
<path fill="none" stroke="#64091a" d="M630.944,-819.156C642.541,-812.348 654.373,-805.802 665.93,-800 705.912,-779.929 718.271,-780.308 759.93,-764 790.197,-752.151 822.688,-739.258 853.303,-727.028"/>
<ellipse fill="none" stroke="#64091a" cx="627.197" cy="-821.381" rx="4.00002" ry="4.00002"/>
<polygon fill="#64091a" stroke="#64091a" points="853.454,-726.968 864.41,-727.435 858.097,-725.112 862.74,-723.256 862.74,-723.256 862.74,-723.256 858.097,-725.112 861.07,-719.078 853.454,-726.968 853.454,-726.968"/>
</g>
<!-- Category&#45;&gt;SimulatedCategory -->
<g id="edge11" class="edge"><title>Category&#45;&gt;SimulatedCategory</title>
<path fill="none" stroke="#e6cf89" d="M565.128,-815.857C577.91,-787.438 592.601,-754.774 604.662,-727.958"/>
<ellipse fill="none" stroke="#e6cf89" cx="563.381" cy="-819.741" rx="4.00002" ry="4.00002"/>
<polygon fill="#e6cf89" stroke="#e6cf89" points="604.709,-727.854 612.915,-720.579 606.76,-723.294 608.81,-718.734 608.81,-718.734 608.81,-718.734 606.76,-723.294 604.706,-716.888 604.709,-727.854 604.709,-727.854"/>
</g>
<!-- Category&#45;&gt;Question -->
<g id="edge10" class="edge"><title>Category&#45;&gt;Question</title>
<path fill="none" stroke="#adfa8d" d="M510.275,-813.606C505.418,-797.504 500.909,-780.303 497.93,-764 485.365,-695.246 480.595,-616.821 478.976,-555.3"/>
<polygon fill="#adfa8d" stroke="#adfa8d" points="510.372,-813.921 509.035,-824.805 511.853,-818.697 513.333,-823.472 513.333,-823.472 513.333,-823.472 511.853,-818.697 517.632,-822.14 510.372,-813.921 510.372,-813.921"/>
<polygon fill="#adfa8d" stroke="#adfa8d" points="478.974,-555.184 483.233,-545.079 478.854,-550.185 478.734,-545.187 478.734,-545.187 478.734,-545.187 478.854,-550.185 474.236,-545.294 478.974,-555.184 478.974,-555.184"/>
</g>
<!-- User -->
<g id="node13" class="node"><title>User</title>
<path fill="none" stroke="black" d="M390.43,-1005C390.43,-1005 679.43,-1005 679.43,-1005 685.43,-1005 691.43,-1011 691.43,-1017 691.43,-1017 691.43,-1339 691.43,-1339 691.43,-1345 685.43,-1351 679.43,-1351 679.43,-1351 390.43,-1351 390.43,-1351 384.43,-1351 378.43,-1345 378.43,-1339 378.43,-1339 378.43,-1017 378.43,-1017 378.43,-1011 384.43,-1005 390.43,-1005"/>
<text text-anchor="middle" x="534.93" y="-1335.8" font-family="Times,serif" font-size="14.00">User</text>
<polyline fill="none" stroke="black" points="378.43,-1328 691.43,-1328 "/>
<text text-anchor="start" x="386.43" y="-1312.8" font-family="Times,serif" font-size="14.00">id :integer</text>
<text text-anchor="start" x="386.43" y="-1297.8" font-family="Times,serif" font-size="14.00">email :character varying</text>
<text text-anchor="start" x="386.43" y="-1282.8" font-family="Times,serif" font-size="14.00">encrypted_password :character varying</text>
<text text-anchor="start" x="386.43" y="-1267.8" font-family="Times,serif" font-size="14.00">reset_password_token :character varying</text>
<text text-anchor="start" x="386.43" y="-1252.8" font-family="Times,serif" font-size="14.00">reset_password_sent_at :timestamp without time zone</text>
<text text-anchor="start" x="386.43" y="-1237.8" font-family="Times,serif" font-size="14.00">remember_created_at :timestamp without time zone</text>
<text text-anchor="start" x="386.43" y="-1222.8" font-family="Times,serif" font-size="14.00">sign_in_count :integer</text>
<text text-anchor="start" x="386.43" y="-1207.8" font-family="Times,serif" font-size="14.00">current_sign_in_at :timestamp without time zone</text>
<text text-anchor="start" x="386.43" y="-1192.8" font-family="Times,serif" font-size="14.00">last_sign_in_at :timestamp without time zone</text>
<text text-anchor="start" x="386.43" y="-1177.8" font-family="Times,serif" font-size="14.00">current_sign_in_ip :character varying</text>
<text text-anchor="start" x="386.43" y="-1162.8" font-family="Times,serif" font-size="14.00">last_sign_in_ip :character varying</text>
<text text-anchor="start" x="386.43" y="-1147.8" font-family="Times,serif" font-size="14.00">created_at :timestamp without time zone</text>
<text text-anchor="start" x="386.43" y="-1132.8" font-family="Times,serif" font-size="14.00">updated_at :timestamp without time zone</text>
<text text-anchor="start" x="386.43" y="-1117.8" font-family="Times,serif" font-size="14.00">provider :character varying</text>
<text text-anchor="start" x="386.43" y="-1102.8" font-family="Times,serif" font-size="14.00">uid :character varying</text>
<text text-anchor="start" x="386.43" y="-1087.8" font-family="Times,serif" font-size="14.00">first_name :character varying</text>
<text text-anchor="start" x="386.43" y="-1072.8" font-family="Times,serif" font-size="14.00">last_name :character varying</text>
<text text-anchor="start" x="386.43" y="-1057.8" font-family="Times,serif" font-size="14.00">questions_count :integer</text>
<text text-anchor="start" x="386.43" y="-1042.8" font-family="Times,serif" font-size="14.00">image :character varying</text>
<text text-anchor="start" x="386.43" y="-1027.8" font-family="Times,serif" font-size="14.00">gender :boolean</text>
<text text-anchor="start" x="386.43" y="-1012.8" font-family="Times,serif" font-size="14.00">role :integer</text>
</g>
<!-- User&#45;&gt;SubCategory -->
<g id="edge13" class="edge"><title>User&#45;&gt;SubCategory</title>
<path fill="none" stroke="#dcc20e" d="M699.438,-1139.16C791.971,-1108.9 900.701,-1056.4 960.93,-968 1002.38,-907.163 1004.85,-821.95 999.041,-758.918"/>
<ellipse fill="none" stroke="#dcc20e" cx="695.481" cy="-1140.44" rx="4.00001" ry="4.00001"/>
<polygon fill="#dcc20e" stroke="#dcc20e" points="999.005,-758.554 1002.48,-748.153 998.503,-753.58 998,-748.605 998,-748.605 998,-748.605 998.503,-753.58 993.523,-749.057 999.005,-758.554 999.005,-758.554"/>
</g>
<!-- User&#45;&gt;Simulator -->
<g id="edge15" class="edge"><title>User&#45;&gt;Simulator</title>
<path fill="none" stroke="#6729a1" d="M371.15,-1005.67C370.079,-1005.1 369.006,-1004.55 367.93,-1004 315.121,-977.223 142.866,-1012.61 103.93,-968 54.8288,-911.749 76.7866,-869.558 103.93,-800 107.698,-790.344 112.59,-780.982 118.232,-772.012"/>
<ellipse fill="none" stroke="#6729a1" cx="374.663" cy="-1007.6" rx="4.00002" ry="4.00002"/>
<polygon fill="#6729a1" stroke="#6729a1" points="118.328,-771.867 127.607,-766.023 121.092,-767.701 123.857,-763.535 123.857,-763.535 123.857,-763.535 121.092,-767.701 120.108,-761.047 118.328,-771.867 118.328,-771.867"/>
</g>
<!-- User&#45;&gt;AnsweredQuestion -->
<g id="edge16" class="edge"><title>User&#45;&gt;AnsweredQuestion</title>
<path fill="none" stroke="#f098a2" d="M699.056,-1133.95C783.167,-1102.65 878.142,-1050.87 927.93,-968 966.384,-903.997 967.529,-863.301 927.93,-800 908.533,-768.993 873.874,-794.658 853.93,-764 762.916,-624.096 790.242,-417.21 814.667,-306.16"/>
<ellipse fill="none" stroke="#f098a2" cx="695.228" cy="-1135.35" rx="4.00001" ry="4.00001"/>
<polygon fill="#f098a2" stroke="#f098a2" points="814.674,-306.128 821.258,-297.358 815.771,-301.249 816.868,-296.371 816.868,-296.371 816.868,-296.371 815.771,-301.249 812.477,-295.384 814.674,-306.128 814.674,-306.128"/>
</g>
<!-- User&#45;&gt;SimulatorAnsweredQuestion -->
<g id="edge17" class="edge"><title>User&#45;&gt;SimulatorAnsweredQuestion</title>
<path fill="none" stroke="#76550b" d="M371.161,-1005.64C370.087,-1005.09 369.01,-1004.54 367.93,-1004 308.412,-974.376 115.021,-1017.76 70.9299,-968 -91.8883,-784.255 63.8938,-473.017 158.796,-319.773"/>
<ellipse fill="none" stroke="#76550b" cx="374.686" cy="-1007.55" rx="4.00002" ry="4.00002"/>
<polygon fill="#76550b" stroke="#76550b" points="158.819,-319.738 167.929,-313.635 161.465,-315.496 164.111,-311.253 164.111,-311.253 164.111,-311.253 161.465,-315.496 160.293,-308.872 158.819,-319.738 158.819,-319.738"/>
</g>
<!-- User&#45;&gt;License -->
<g id="edge18" class="edge"><title>User&#45;&gt;License</title>
<path fill="none" stroke="#960b86" d="M694.979,-998.624C710.062,-981.815 724.603,-965.608 737.748,-950.958"/>
<ellipse fill="none" stroke="#960b86" cx="692.28" cy="-1001.63" rx="4.00002" ry="4.00002"/>
<ellipse fill="#960b86" stroke="#960b86" cx="740.623" cy="-947.754" rx="4.00002" ry="4.00002"/>
</g>
<!-- User&#45;&gt;Category -->
<g id="edge12" class="edge"><title>User&#45;&gt;Category</title>
<path fill="none" stroke="#31bf6f" d="M534.93,-996.145C534.93,-981.693 534.93,-967.725 534.93,-954.853"/>
<ellipse fill="none" stroke="#31bf6f" cx="534.93" cy="-1000.61" rx="4" ry="4"/>
<polygon fill="#31bf6f" stroke="#31bf6f" points="534.93,-954.777 539.43,-944.777 534.93,-949.777 534.93,-944.777 534.93,-944.777 534.93,-944.777 534.93,-949.777 530.43,-944.777 534.93,-954.777 534.93,-954.777"/>
</g>
<!-- User&#45;&gt;Question -->
<g id="edge14" class="edge"><title>User&#45;&gt;Question</title>
<path fill="none" stroke="#30a188" d="M414.119,-997.389C410.201,-987.663 406.759,-977.839 403.93,-968 363.789,-828.375 402.63,-661.199 437.711,-554.804"/>
<ellipse fill="none" stroke="#30a188" cx="415.668" cy="-1001.11" rx="4.00002" ry="4.00002"/>
<polygon fill="#30a188" stroke="#30a188" points="437.811,-554.504 445.251,-546.447 439.397,-549.762 440.983,-545.02 440.983,-545.02 440.983,-545.02 439.397,-549.762 436.715,-543.593 437.811,-554.504 437.811,-554.504"/>
</g>
<!-- Question&#45;&gt;AnsweredQuestion -->
<g id="edge20" class="edge"><title>Question&#45;&gt;AnsweredQuestion</title>
<path fill="none" stroke="#2f0bbb" d="M608.065,-367.286C643.406,-345.744 681.532,-322.504 716.257,-301.337"/>
<ellipse fill="none" stroke="#2f0bbb" cx="604.362" cy="-369.543" rx="4.00002" ry="4.00002"/>
<polygon fill="#2f0bbb" stroke="#2f0bbb" points="716.47,-301.208 727.351,-299.845 720.739,-298.605 725.008,-296.003 725.008,-296.003 725.008,-296.003 720.739,-298.605 722.666,-292.16 716.47,-301.208 716.47,-301.208"/>
</g>
<!-- Question&#45;&gt;SimulatorAnsweredQuestion -->
<g id="edge21" class="edge"><title>Question&#45;&gt;SimulatorAnsweredQuestion</title>
<path fill="none" stroke="#d01531" d="M356.689,-343.582C346.322,-334.896 335.892,-326.158 325.668,-317.591"/>
<ellipse fill="none" stroke="#d01531" cx="359.999" cy="-346.356" rx="4.00002" ry="4.00002"/>
<polygon fill="#d01531" stroke="#d01531" points="325.558,-317.499 320.783,-307.628 321.725,-314.288 317.893,-311.077 317.893,-311.077 317.893,-311.077 321.725,-314.288 315.003,-314.526 325.558,-317.499 325.558,-317.499"/>
</g>
<!-- Question&#45;&gt;Choice -->
<g id="edge19" class="edge"><title>Question&#45;&gt;Choice</title>
<path fill="none" stroke="#cac211" d="M543.474,-342.3C584.825,-280.611 642.186,-203.112 703.93,-144 715.279,-133.135 728.088,-122.687 741.14,-113.01"/>
<ellipse fill="none" stroke="#cac211" cx="541.238" cy="-345.651" rx="4.00002" ry="4.00002"/>
<polygon fill="#cac211" stroke="#cac211" points="741.198,-112.967 751.933,-110.727 745.242,-110.027 749.287,-107.087 749.287,-107.087 749.287,-107.087 745.242,-110.027 746.641,-103.447 741.198,-112.967 741.198,-112.967"/>
</g>
</g>
</svg>
