<?xml version="1.0" encoding="UTF-8" standalone="no"?>
<!DOCTYPE svg PUBLIC "-//W3C//DTD SVG 1.1//EN"
 "http://www.w3.org/Graphics/SVG/1.1/DTD/svg11.dtd">
<!-- Generated by graphviz version 2.38.0 (20140413.2041)
 -->
<!-- Title: models_diagram Pages: 1 -->
<svg width="1820pt" height="590pt"
 viewBox="0.00 0.00 1819.64 590.00" xmlns="http://www.w3.org/2000/svg" xmlns:xlink="http://www.w3.org/1999/xlink">
<g id="graph0" class="graph" transform="scale(1 1) rotate(0) translate(4 586)">
<title>models_diagram</title>
<polygon fill="none" stroke="none" points="-4,4 -4,-586 1815.64,-586 1815.64,4 -4,4"/>
<!-- _diagram_info -->
<g id="node1" class="node"><title>_diagram_info</title>
<text text-anchor="start" x="673.637" y="-567.6" font-family="Times,serif" font-size="13.00">Models diagram</text>
<text text-anchor="start" x="673.637" y="-553.6" font-family="Times,serif" font-size="13.00">Date: Jul 04 2016 &#45; 13:41</text>
<text text-anchor="start" x="673.637" y="-539.6" font-family="Times,serif" font-size="13.00">Migration version: 20160704165705</text>
<text text-anchor="start" x="673.637" y="-525.6" font-family="Times,serif" font-size="13.00">Generated by RailRoady 1.5.1</text>
<text text-anchor="start" x="673.637" y="-511.6" font-family="Times,serif" font-size="13.00">http://railroady.prestonlee.com</text>
</g>
<!-- Course -->
<g id="node2" class="node"><title>Course</title>
<ellipse fill="none" stroke="black" cx="959.637" cy="-543" rx="42.4939" ry="18"/>
<text text-anchor="middle" x="959.637" y="-539.3" font-family="Times,serif" font-size="14.00">Course</text>
</g>
<!-- Category -->
<g id="node5" class="node"><title>Category</title>
<ellipse fill="none" stroke="black" cx="432.637" cy="-378" rx="53.8905" ry="18"/>
<text text-anchor="middle" x="432.637" y="-374.3" font-family="Times,serif" font-size="14.00">Category</text>
</g>
<!-- Course&#45;&gt;Category -->
<g id="edge1" class="edge"><title>Course&#45;&gt;Category</title>
<path fill="none" stroke="#bc00da" d="M936.556,-520.748C928.314,-514.312 918.591,-507.918 908.637,-504 772.587,-450.446 720.239,-514.554 581.637,-468 536.338,-452.785 489.98,-422.264 461.261,-401.241"/>
<ellipse fill="none" stroke="#bc00da" cx="940.009" cy="-523.575" rx="4.00002" ry="4.00002"/>
<polygon fill="#bc00da" stroke="#bc00da" points="460.96,-401.017 455.621,-391.438 456.948,-398.033 452.936,-395.049 452.936,-395.049 452.936,-395.049 456.948,-398.033 450.25,-398.66 460.96,-401.017 460.96,-401.017"/>
</g>
<!-- User -->
<g id="node9" class="node"><title>User</title>
<ellipse fill="none" stroke="black" cx="622.637" cy="-450" rx="32.4942" ry="18"/>
<text text-anchor="middle" x="622.637" y="-446.3" font-family="Times,serif" font-size="14.00">User</text>
</g>
<!-- Course&#45;&gt;User -->
<g id="edge4" class="edge"><title>Course&#45;&gt;User</title>
<path fill="none" stroke="#e108db" d="M935.172,-520.117C927.198,-514.027 917.981,-507.994 908.637,-504 820.353,-466.268 789.769,-486.897 695.637,-468 684.502,-465.765 672.474,-463.077 661.456,-460.506"/>
<polygon fill="#e108db" stroke="#e108db" points="935.192,-520.134 940.164,-529.908 939.088,-523.268 942.984,-526.401 942.984,-526.401 942.984,-526.401 939.088,-523.268 945.805,-522.895 935.192,-520.134 935.192,-520.134"/>
<polygon fill="#e108db" stroke="#e108db" points="661.408,-460.495 652.712,-453.815 656.543,-459.344 651.677,-458.194 651.677,-458.194 651.677,-458.194 656.543,-459.344 650.641,-462.573 661.408,-460.495 661.408,-460.495"/>
</g>
<!-- Test -->
<g id="node17" class="node"><title>Test</title>
<ellipse fill="none" stroke="black" cx="1237.64" cy="-378" rx="31.6951" ry="18"/>
<text text-anchor="middle" x="1237.64" y="-374.3" font-family="Times,serif" font-size="14.00">Test</text>
</g>
<!-- Course&#45;&gt;Test -->
<g id="edge5" class="edge"><title>Course&#45;&gt;Test</title>
<path fill="none" stroke="#2767b1" d="M1008.78,-536.968C1059.18,-529.538 1137.4,-511.445 1189.64,-468 1209.18,-451.75 1221.97,-425.418 1229.39,-405.603"/>
<ellipse fill="none" stroke="#2767b1" cx="1004.59" cy="-537.556" rx="4.00001" ry="4.00001"/>
<polygon fill="#2767b1" stroke="#2767b1" points="1229.48,-405.358 1237.04,-397.415 1231.14,-400.64 1232.79,-395.923 1232.79,-395.923 1232.79,-395.923 1231.14,-400.64 1228.55,-394.431 1229.48,-405.358 1229.48,-405.358"/>
</g>
<!-- CourseUser -->
<g id="node27" class="node"><title>CourseUser</title>
<ellipse fill="none" stroke="black" cx="1093.64" cy="-378" rx="63.8893" ry="18"/>
<text text-anchor="middle" x="1093.64" y="-374.3" font-family="Times,serif" font-size="14.00">CourseUser</text>
</g>
<!-- Course&#45;&gt;CourseUser -->
<g id="edge3" class="edge"><title>Course&#45;&gt;CourseUser</title>
<path fill="none" stroke="#b1b51b" d="M1010.06,-540.179C1060.35,-535.35 1135.18,-519.335 1171.64,-468 1180.9,-454.955 1179.12,-446.14 1171.64,-432 1164.1,-417.757 1150.82,-406.632 1137.34,-398.331"/>
<ellipse fill="none" stroke="#b1b51b" cx="1005.89" cy="-540.54" rx="4" ry="4"/>
<polygon fill="#b1b51b" stroke="#b1b51b" points="1137.19,-398.245 1130.74,-389.374 1132.85,-395.763 1128.5,-393.281 1128.5,-393.281 1128.5,-393.281 1132.85,-395.763 1126.27,-397.187 1137.19,-398.245 1137.19,-398.245"/>
</g>
<!-- Section -->
<g id="node28" class="node"><title>Section</title>
<ellipse fill="none" stroke="black" cx="832.637" cy="-450" rx="45.4919" ry="18"/>
<text text-anchor="middle" x="832.637" y="-446.3" font-family="Times,serif" font-size="14.00">Section</text>
</g>
<!-- Course&#45;&gt;Section -->
<g id="edge2" class="edge"><title>Course&#45;&gt;Section</title>
<path fill="none" stroke="#d37063" d="M933.448,-522.241C925.516,-516.323 916.754,-509.852 908.637,-504 893.617,-493.171 876.739,-481.365 862.71,-471.65"/>
<ellipse fill="none" stroke="#d37063" cx="936.681" cy="-524.66" rx="4.00002" ry="4.00002"/>
<polygon fill="#d37063" stroke="#d37063" points="862.613,-471.583 856.943,-462.196 858.499,-468.741 854.385,-465.898 854.385,-465.898 854.385,-465.898 858.499,-468.741 851.828,-469.601 862.613,-471.583 862.613,-471.583"/>
</g>
<!-- License -->
<g id="node3" class="node"><title>License</title>
<ellipse fill="none" stroke="black" cx="549.637" cy="-378" rx="45.4919" ry="18"/>
<text text-anchor="middle" x="549.637" y="-374.3" font-family="Times,serif" font-size="14.00">License</text>
</g>
<!-- Tutorial -->
<g id="node4" class="node"><title>Tutorial</title>
<ellipse fill="none" stroke="black" cx="1023.64" cy="-450" rx="48.9926" ry="18"/>
<text text-anchor="middle" x="1023.64" y="-446.3" font-family="Times,serif" font-size="14.00">Tutorial</text>
</g>
<!-- Resource -->
<g id="node32" class="node"><title>Resource</title>
<ellipse fill="none" stroke="black" cx="923.637" cy="-378" rx="53.0913" ry="18"/>
<text text-anchor="middle" x="923.637" y="-374.3" font-family="Times,serif" font-size="14.00">Resource</text>
</g>
<!-- Tutorial&#45;&gt;Resource -->
<g id="edge6" class="edge"><title>Tutorial&#45;&gt;Resource</title>
<path fill="none" stroke="#ce25e3" d="M995,-428.954C982.125,-419.941 966.922,-409.299 953.864,-400.159"/>
<ellipse fill="none" stroke="#ce25e3" cx="998.662" cy="-431.517" rx="4.00002" ry="4.00002"/>
<polygon fill="#ce25e3" stroke="#ce25e3" points="953.831,-400.136 948.219,-390.714 949.735,-397.268 945.639,-394.401 945.639,-394.401 945.639,-394.401 949.735,-397.268 943.058,-398.088 953.831,-400.136 953.831,-400.136"/>
</g>
<!-- SubCategory -->
<g id="node6" class="node"><title>SubCategory</title>
<ellipse fill="none" stroke="black" cx="546.637" cy="-306" rx="70.6878" ry="18"/>
<text text-anchor="middle" x="546.637" y="-302.3" font-family="Times,serif" font-size="14.00">SubCategory</text>
</g>
<!-- Category&#45;&gt;SubCategory -->
<g id="edge7" class="edge"><title>Category&#45;&gt;SubCategory</title>
<path fill="none" stroke="#1d2c42" d="M464.221,-357.606C479.104,-348.468 496.892,-337.545 512.128,-328.19"/>
<ellipse fill="none" stroke="#1d2c42" cx="460.782" cy="-359.718" rx="4.00002" ry="4.00002"/>
<polygon fill="#1d2c42" stroke="#1d2c42" points="512.24,-328.121 523.117,-326.723 516.501,-325.505 520.762,-322.888 520.762,-322.888 520.762,-322.888 516.501,-325.505 518.408,-319.053 512.24,-328.121 512.24,-328.121"/>
</g>
<!-- Question -->
<g id="node11" class="node"><title>Question</title>
<ellipse fill="none" stroke="black" cx="424.637" cy="-234" rx="51.9908" ry="18"/>
<text text-anchor="middle" x="424.637" y="-230.3" font-family="Times,serif" font-size="14.00">Question</text>
</g>
<!-- Category&#45;&gt;Question -->
<g id="edge8" class="edge"><title>Category&#45;&gt;Question</title>
<path fill="none" stroke="#0bb406" d="M431.629,-349.784C430.923,-332.158 429.884,-308.712 428.637,-288 428.136,-279.674 427.49,-270.62 426.864,-262.39"/>
<polygon fill="#0bb406" stroke="#0bb406" points="431.635,-349.938 427.528,-360.105 431.829,-354.934 432.024,-359.93 432.024,-359.93 432.024,-359.93 431.829,-354.934 436.521,-359.755 431.635,-349.938 431.635,-349.938"/>
<polygon fill="#0bb406" stroke="#0bb406" points="426.845,-262.146 430.553,-251.826 426.456,-257.162 426.067,-252.177 426.067,-252.177 426.067,-252.177 426.456,-257.162 421.58,-252.527 426.845,-262.146 426.845,-262.146"/>
</g>
<!-- SimulatedCategory -->
<g id="node21" class="node"><title>SimulatedCategory</title>
<ellipse fill="none" stroke="black" cx="318.637" cy="-306" rx="100.983" ry="18"/>
<text text-anchor="middle" x="318.637" y="-302.3" font-family="Times,serif" font-size="14.00">SimulatedCategory</text>
</g>
<!-- Category&#45;&gt;SimulatedCategory -->
<g id="edge9" class="edge"><title>Category&#45;&gt;SimulatedCategory</title>
<path fill="none" stroke="#776b12" d="M400.686,-357.381C386.231,-348.505 369.095,-337.983 354.231,-328.856"/>
<ellipse fill="none" stroke="#776b12" cx="404.492" cy="-359.718" rx="4.00002" ry="4.00002"/>
<polygon fill="#776b12" stroke="#776b12" points="353.835,-328.613 347.668,-319.545 349.574,-325.996 345.313,-323.38 345.313,-323.38 345.313,-323.38 349.574,-325.996 342.959,-327.215 353.835,-328.613 353.835,-328.613"/>
</g>
<!-- Choice -->
<g id="node8" class="node"><title>Choice</title>
<ellipse fill="none" stroke="black" cx="546.637" cy="-90" rx="40.0939" ry="18"/>
<text text-anchor="middle" x="546.637" y="-86.3" font-family="Times,serif" font-size="14.00">Choice</text>
</g>
<!-- SubCategory&#45;&gt;Choice -->
<g id="edge11" class="edge"><title>SubCategory&#45;&gt;Choice</title>
<path fill="none" stroke="#bd39b3" d="M534.694,-278.637C524.136,-253.789 509.525,-215.213 503.637,-180 500.999,-164.219 498.289,-159.08 503.637,-144 507.579,-132.885 514.956,-122.401 522.5,-113.738"/>
<polygon fill="#bd39b3" stroke="#bd39b3" points="534.811,-278.909 534.666,-289.874 536.803,-283.495 538.794,-288.082 538.794,-288.082 538.794,-288.082 536.803,-283.495 542.921,-286.29 534.811,-278.909 534.811,-278.909"/>
<polygon fill="#bd39b3" stroke="#bd39b3" points="522.577,-113.655 532.68,-109.391 525.98,-109.992 529.383,-106.328 529.383,-106.328 529.383,-106.328 525.98,-109.992 526.086,-103.266 522.577,-113.655 522.577,-113.655"/>
</g>
<!-- AnsweredQuestion -->
<g id="node10" class="node"><title>AnsweredQuestion</title>
<ellipse fill="none" stroke="black" cx="609.637" cy="-162" rx="97.4827" ry="18"/>
<text text-anchor="middle" x="609.637" y="-158.3" font-family="Times,serif" font-size="14.00">AnsweredQuestion</text>
</g>
<!-- SubCategory&#45;&gt;AnsweredQuestion -->
<g id="edge12" class="edge"><title>SubCategory&#45;&gt;AnsweredQuestion</title>
<path fill="none" stroke="#13efd5" d="M558.423,-278.436C569.688,-253.043 586.58,-214.969 597.848,-189.573"/>
<polygon fill="#13efd5" stroke="#13efd5" points="558.292,-278.731 550.123,-286.047 556.264,-283.301 554.237,-287.871 554.237,-287.871 554.237,-287.871 556.264,-283.301 558.35,-289.696 558.292,-278.731 558.292,-278.731"/>
<polygon fill="#13efd5" stroke="#13efd5" points="597.956,-189.33 606.124,-182.014 599.983,-184.76 602.011,-180.189 602.011,-180.189 602.011,-180.189 599.983,-184.76 597.898,-178.364 597.956,-189.33 597.956,-189.33"/>
</g>
<!-- SubCategory&#45;&gt;Question -->
<g id="edge10" class="edge"><title>SubCategory&#45;&gt;Question</title>
<path fill="none" stroke="#4344d6" d="M512.233,-285.26C495.621,-275.728 475.736,-264.319 459.115,-254.782"/>
<ellipse fill="none" stroke="#4344d6" cx="515.789" cy="-287.3" rx="4.00002" ry="4.00002"/>
<polygon fill="#4344d6" stroke="#4344d6" points="458.931,-254.677 452.497,-245.797 454.595,-252.189 450.258,-249.7 450.258,-249.7 450.258,-249.7 454.595,-252.189 448.018,-253.603 458.931,-254.677 458.931,-254.677"/>
</g>
<!-- Plan -->
<g id="node7" class="node"><title>Plan</title>
<ellipse fill="none" stroke="black" cx="1303.64" cy="-306" rx="30.5947" ry="18"/>
<text text-anchor="middle" x="1303.64" y="-302.3" font-family="Times,serif" font-size="14.00">Plan</text>
</g>
<!-- Plan&#45;&gt;Course -->
<g id="edge14" class="edge"><title>Plan&#45;&gt;Course</title>
<path fill="none" stroke="#6f8a72" d="M1299.15,-334.19C1295.4,-352.426 1288.96,-376.569 1278.64,-396 1258.96,-433.038 1252.86,-445.24 1217.64,-468 1153.29,-509.574 1065.19,-528.269 1010.38,-536.326"/>
<polygon fill="#6f8a72" stroke="#6f8a72" points="1299.18,-334.038 1305.48,-325.061 1300.12,-329.127 1301.06,-324.216 1301.06,-324.216 1301.06,-324.216 1300.12,-329.127 1296.64,-323.37 1299.18,-334.038 1299.18,-334.038"/>
<polygon fill="#6f8a72" stroke="#6f8a72" points="1010.11,-536.363 999.582,-533.298 1005.16,-537.058 1000.21,-537.754 1000.21,-537.754 1000.21,-537.754 1005.16,-537.058 1000.83,-542.21 1010.11,-536.363 1010.11,-536.363"/>
</g>
<!-- CourseUserPlan -->
<g id="node29" class="node"><title>CourseUserPlan</title>
<ellipse fill="none" stroke="black" cx="1134.64" cy="-234" rx="83.3857" ry="18"/>
<text text-anchor="middle" x="1134.64" y="-230.3" font-family="Times,serif" font-size="14.00">CourseUserPlan</text>
</g>
<!-- Plan&#45;&gt;CourseUserPlan -->
<g id="edge13" class="edge"><title>Plan&#45;&gt;CourseUserPlan</title>
<path fill="none" stroke="#111711" d="M1271.73,-291.785C1246.04,-281.144 1209.58,-266.043 1180.72,-254.089"/>
<ellipse fill="none" stroke="#111711" cx="1275.73" cy="-293.44" rx="4.00001" ry="4.00001"/>
<polygon fill="#111711" stroke="#111711" points="1180.49,-253.993 1172.97,-246.009 1175.87,-252.079 1171.25,-250.166 1171.25,-250.166 1171.25,-250.166 1175.87,-252.079 1169.53,-254.324 1180.49,-253.993 1180.49,-253.993"/>
</g>
<!-- Answer -->
<g id="node15" class="node"><title>Answer</title>
<ellipse fill="none" stroke="black" cx="734.637" cy="-18" rx="46.2923" ry="18"/>
<text text-anchor="middle" x="734.637" y="-14.3" font-family="Times,serif" font-size="14.00">Answer</text>
</g>
<!-- Choice&#45;&gt;Answer -->
<g id="edge15" class="edge"><title>Choice&#45;&gt;Answer</title>
<path fill="none" stroke="#5f1e5d" d="M584.394,-74.9415C615.715,-63.2794 660.212,-46.7116 692.649,-34.634"/>
<ellipse fill="none" stroke="#5f1e5d" cx="580.591" cy="-76.3575" rx="4.00001" ry="4.00001"/>
<polygon fill="#5f1e5d" stroke="#5f1e5d" points="692.929,-34.5297 703.871,-35.2574 697.615,-32.785 702.301,-31.0403 702.301,-31.0403 702.301,-31.0403 697.615,-32.785 700.73,-26.8231 692.929,-34.5297 692.929,-34.5297"/>
</g>
<!-- User&#45;&gt;License -->
<g id="edge23" class="edge"><title>User&#45;&gt;License</title>
<path fill="none" stroke="#9d6af6" d="M601.2,-428.444C592.007,-419.628 581.267,-409.33 571.976,-400.421"/>
<ellipse fill="none" stroke="#9d6af6" cx="604.269" cy="-431.386" rx="4.00002" ry="4.00002"/>
<ellipse fill="#9d6af6" stroke="#9d6af6" cx="568.998" cy="-397.565" rx="4.00002" ry="4.00002"/>
</g>
<!-- User&#45;&gt;Category -->
<g id="edge16" class="edge"><title>User&#45;&gt;Category</title>
<path fill="none" stroke="#688e9d" d="M588.364,-436.373C557.251,-424.91 511.178,-407.936 477.213,-395.423"/>
<ellipse fill="none" stroke="#688e9d" cx="592.465" cy="-437.884" rx="4.00001" ry="4.00001"/>
<polygon fill="#688e9d" stroke="#688e9d" points="476.918,-395.314 469.09,-387.634 472.226,-393.585 467.535,-391.857 467.535,-391.857 467.535,-391.857 472.226,-393.585 465.979,-396.079 476.918,-395.314 476.918,-395.314"/>
</g>
<!-- User&#45;&gt;SubCategory -->
<g id="edge17" class="edge"><title>User&#45;&gt;SubCategory</title>
<path fill="none" stroke="#e68d5a" d="M621.319,-423.807C619.413,-405.149 614.792,-379.663 603.637,-360 597.178,-348.614 587.445,-338.256 577.841,-329.778"/>
<ellipse fill="none" stroke="#e68d5a" cx="621.672" cy="-427.868" rx="4" ry="4"/>
<polygon fill="#e68d5a" stroke="#e68d5a" points="577.549,-329.534 572.765,-319.666 573.713,-326.326 569.878,-323.118 569.878,-323.118 569.878,-323.118 573.713,-326.326 566.991,-326.569 577.549,-329.534 577.549,-329.534"/>
</g>
<!-- User&#45;&gt;AnsweredQuestion -->
<g id="edge19" class="edge"><title>User&#45;&gt;AnsweredQuestion</title>
<path fill="none" stroke="#886391" d="M623.639,-423.799C623.976,-415.004 624.34,-405.066 624.637,-396 626.209,-348.018 629.879,-335.899 626.637,-288 624.347,-254.158 618.605,-215.513 614.427,-190.263"/>
<ellipse fill="none" stroke="#886391" cx="623.484" cy="-427.819" rx="4" ry="4"/>
<polygon fill="#886391" stroke="#886391" points="614.412,-190.175 617.184,-179.565 613.58,-185.245 612.747,-180.315 612.747,-180.315 612.747,-180.315 613.58,-185.245 608.31,-181.064 614.412,-190.175 614.412,-190.175"/>
</g>
<!-- User&#45;&gt;Answer -->
<g id="edge22" class="edge"><title>User&#45;&gt;Answer</title>
<path fill="none" stroke="#f5be57" d="M632.941,-424.922C652.367,-378.476 694.362,-272.886 715.637,-180 726.251,-133.661 731.13,-78.3829 733.222,-46.1341"/>
<ellipse fill="none" stroke="#f5be57" cx="631.356" cy="-428.688" rx="4.00002" ry="4.00002"/>
<polygon fill="#f5be57" stroke="#f5be57" points="733.223,-46.1083 738.32,-36.399 733.526,-41.1175 733.828,-36.1266 733.828,-36.1266 733.828,-36.1266 733.526,-41.1175 729.337,-35.8543 733.223,-46.1083 733.223,-46.1083"/>
</g>
<!-- SimulatorAnsweredQuestion -->
<g id="node22" class="node"><title>SimulatorAnsweredQuestion</title>
<ellipse fill="none" stroke="black" cx="143.637" cy="-162" rx="143.775" ry="18"/>
<text text-anchor="middle" x="143.637" y="-158.3" font-family="Times,serif" font-size="14.00">SimulatorAnsweredQuestion</text>
</g>
<!-- User&#45;&gt;SimulatorAnsweredQuestion -->
<g id="edge20" class="edge"><title>User&#45;&gt;SimulatorAnsweredQuestion</title>
<path fill="none" stroke="#410d0c" d="M581.961,-448.278C480.171,-445.884 217.141,-435.901 140.637,-396 91.3662,-370.302 64.2718,-341.939 77.6373,-288 86.8367,-250.874 109.299,-212.621 125.464,-188.375"/>
<ellipse fill="none" stroke="#410d0c" cx="586.156" cy="-448.373" rx="4" ry="4"/>
<polygon fill="#410d0c" stroke="#410d0c" points="125.468,-188.368 134.817,-182.637 128.283,-184.236 131.098,-180.103 131.098,-180.103 131.098,-180.103 128.283,-184.236 127.379,-177.57 125.468,-188.368 125.468,-188.368"/>
</g>
<!-- Simulator -->
<g id="node24" class="node"><title>Simulator</title>
<ellipse fill="none" stroke="black" cx="143.637" cy="-306" rx="56.59" ry="18"/>
<text text-anchor="middle" x="143.637" y="-302.3" font-family="Times,serif" font-size="14.00">Simulator</text>
</g>
<!-- User&#45;&gt;Simulator -->
<g id="edge18" class="edge"><title>User&#45;&gt;Simulator</title>
<path fill="none" stroke="#af632d" d="M582.131,-447.005C475.565,-441.386 193.447,-423.996 162.637,-396 145.787,-380.689 141.887,-354.415 141.696,-334.372"/>
<ellipse fill="none" stroke="#af632d" cx="586.4" cy="-447.227" rx="4" ry="4"/>
<polygon fill="#af632d" stroke="#af632d" points="141.698,-334.266 146.398,-324.359 141.799,-329.267 141.899,-324.268 141.899,-324.268 141.899,-324.268 141.799,-329.267 137.4,-324.178 141.698,-334.266 141.698,-334.266"/>
</g>
<!-- User&#45;&gt;CourseUser -->
<g id="edge21" class="edge"><title>User&#45;&gt;CourseUser</title>
<path fill="none" stroke="#46a53a" d="M659.718,-439.568C671.181,-436.867 683.885,-434.092 695.637,-432 823.506,-409.24 857.026,-414.1 985.637,-396 1000.07,-393.969 1015.56,-391.627 1030.17,-389.343"/>
<ellipse fill="none" stroke="#46a53a" cx="655.51" cy="-440.577" rx="4.00001" ry="4.00001"/>
<polygon fill="#46a53a" stroke="#46a53a" points="1030.25,-389.331 1040.83,-392.221 1035.19,-388.554 1040.13,-387.776 1040.13,-387.776 1040.13,-387.776 1035.19,-388.554 1039.43,-383.331 1030.25,-389.331 1030.25,-389.331"/>
</g>
<!-- AnsweredQuestion&#45;&gt;Choice -->
<g id="edge24" class="edge"><title>AnsweredQuestion&#45;&gt;Choice</title>
<path fill="none" stroke="#b8fddb" d="M587.679,-136.602C581.408,-129.634 574.58,-122.047 568.325,-115.097"/>
<polygon fill="#b8fddb" stroke="#b8fddb" points="587.697,-136.622 591.042,-147.065 591.042,-140.338 594.387,-144.055 594.387,-144.055 594.387,-144.055 591.042,-140.338 597.732,-141.045 587.697,-136.622 587.697,-136.622"/>
<polygon fill="#b8fddb" stroke="#b8fddb" points="568.003,-114.74 564.658,-104.297 564.658,-111.023 561.314,-107.307 561.314,-107.307 561.314,-107.307 564.658,-111.023 557.969,-110.317 568.003,-114.74 568.003,-114.74"/>
</g>
<!-- Question&#45;&gt;Choice -->
<g id="edge26" class="edge"><title>Question&#45;&gt;Choice</title>
<path fill="none" stroke="#dd32a3" d="M433.669,-208.111C441.425,-189.093 453.989,-163.003 470.637,-144 482.576,-130.373 498.719,-118.478 513.057,-109.429"/>
<ellipse fill="none" stroke="#dd32a3" cx="432.109" cy="-212.066" rx="4.00001" ry="4.00001"/>
<polygon fill="#dd32a3" stroke="#dd32a3" points="513.155,-109.37 524.037,-108.016 517.426,-106.771 521.698,-104.172 521.698,-104.172 521.698,-104.172 517.426,-106.771 519.359,-100.327 513.155,-109.37 513.155,-109.37"/>
</g>
<!-- Question&#45;&gt;AnsweredQuestion -->
<g id="edge27" class="edge"><title>Question&#45;&gt;AnsweredQuestion</title>
<path fill="none" stroke="#f5d450" d="M466.116,-217.305C493.661,-206.883 529.989,-193.137 559.204,-182.083"/>
<ellipse fill="none" stroke="#f5d450" cx="462.31" cy="-218.745" rx="4.00001" ry="4.00001"/>
<polygon fill="#f5d450" stroke="#f5d450" points="559.463,-181.985 570.409,-182.655 564.14,-180.215 568.816,-178.446 568.816,-178.446 568.816,-178.446 564.14,-180.215 567.224,-174.237 559.463,-181.985 559.463,-181.985"/>
</g>
<!-- Question&#45;&gt;Question -->
<g id="edge29" class="edge"><title>Question&#45;&gt;Question</title>
<path fill="none" stroke="#5f88c3" d="M468.875,-247.498C483.227,-247.398 494.633,-242.899 494.633,-234 494.633,-225.513 484.259,-221.028 470.848,-220.544"/>
<ellipse fill="none" stroke="#5f88c3" cx="464.647" cy="-247.294" rx="4" ry="4"/>
<polygon fill="#5f88c3" stroke="#5f88c3" points="470.645,-220.551 460.495,-216.402 465.648,-220.725 460.651,-220.899 460.651,-220.899 460.651,-220.899 465.648,-220.725 460.808,-225.396 470.645,-220.551 470.645,-220.551"/>
</g>
<!-- Question&#45;&gt;Answer -->
<g id="edge25" class="edge"><title>Question&#45;&gt;Answer</title>
<path fill="none" stroke="#05b6cb" d="M427.514,-207.532C430.252,-189.231 435.377,-164.308 444.637,-144 461.122,-107.846 464.36,-93.7134 497.637,-72 552.309,-36.3269 627.543,-24.4176 678.468,-20.5759"/>
<ellipse fill="none" stroke="#05b6cb" cx="426.902" cy="-211.972" rx="4.00001" ry="4.00001"/>
<polygon fill="#05b6cb" stroke="#05b6cb" points="678.655,-20.5635 688.935,-24.3815 683.644,-20.2276 688.632,-19.8917 688.632,-19.8917 688.632,-19.8917 683.644,-20.2276 688.33,-15.4019 678.655,-20.5635 678.655,-20.5635"/>
</g>
<!-- Question&#45;&gt;SimulatorAnsweredQuestion -->
<g id="edge28" class="edge"><title>Question&#45;&gt;SimulatorAnsweredQuestion</title>
<path fill="none" stroke="#e6bb3e" d="M375.808,-220.836C331.369,-209.766 265.216,-193.287 214.88,-180.747"/>
<ellipse fill="none" stroke="#e6bb3e" cx="379.896" cy="-221.854" rx="4.00001" ry="4.00001"/>
<polygon fill="#e6bb3e" stroke="#e6bb3e" points="214.738,-180.712 206.122,-173.928 209.886,-179.503 205.035,-178.295 205.035,-178.295 205.035,-178.295 209.886,-179.503 203.947,-182.661 214.738,-180.712 214.738,-180.712"/>
</g>
<!-- LiveClass -->
<g id="node12" class="node"><title>LiveClass</title>
<ellipse fill="none" stroke="black" cx="1209.64" cy="-543" rx="53.8905" ry="18"/>
<text text-anchor="middle" x="1209.64" y="-539.3" font-family="Times,serif" font-size="14.00">LiveClass</text>
</g>
<!-- Career -->
<g id="node13" class="node"><title>Career</title>
<ellipse fill="none" stroke="black" cx="1449.64" cy="-450" rx="42.4939" ry="18"/>
<text text-anchor="middle" x="1449.64" y="-446.3" font-family="Times,serif" font-size="14.00">Career</text>
</g>
<!-- Video -->
<g id="node14" class="node"><title>Video</title>
<ellipse fill="none" stroke="black" cx="1126.64" cy="-450" rx="36.2938" ry="18"/>
<text text-anchor="middle" x="1126.64" y="-446.3" font-family="Times,serif" font-size="14.00">Video</text>
</g>
<!-- Video&#45;&gt;Resource -->
<g id="edge30" class="edge"><title>Video&#45;&gt;Resource</title>
<path fill="none" stroke="#e389d9" d="M1090.89,-435.356C1087.77,-434.206 1084.65,-433.073 1081.64,-432 1043.7,-418.477 1000.3,-403.989 968.602,-393.585"/>
<ellipse fill="none" stroke="#e389d9" cx="1094.86" cy="-436.833" rx="4.00001" ry="4.00001"/>
<ellipse fill="#e389d9" stroke="#e389d9" cx="964.606" cy="-392.276" rx="4.00001" ry="4.00001"/>
</g>
<!-- Point -->
<g id="node16" class="node"><title>Point</title>
<ellipse fill="none" stroke="black" cx="1653.64" cy="-450" rx="35.194" ry="18"/>
<text text-anchor="middle" x="1653.64" y="-446.3" font-family="Times,serif" font-size="14.00">Point</text>
</g>
<!-- Test&#45;&gt;Question -->
<g id="edge31" class="edge"><title>Test&#45;&gt;Question</title>
<path fill="none" stroke="#f0cc1b" d="M1241.97,-351.919C1243.9,-331.638 1242.68,-303.926 1225.64,-288 1198.71,-262.847 669.539,-243.079 486.388,-236.967"/>
<ellipse fill="none" stroke="#f0cc1b" cx="1241.47" cy="-356.129" rx="4.00001" ry="4.00001"/>
<polygon fill="#f0cc1b" stroke="#f0cc1b" points="486.372,-236.967 476.526,-232.138 481.374,-236.801 476.377,-236.635 476.377,-236.635 476.377,-236.635 481.374,-236.801 476.228,-241.133 486.372,-236.967 486.372,-236.967"/>
</g>
<!-- Test&#45;&gt;Answer -->
<g id="edge32" class="edge"><title>Test&#45;&gt;Answer</title>
<path fill="none" stroke="#76d33c" d="M1274.1,-367.664C1297.42,-359.814 1326.44,-346.219 1343.64,-324 1368.4,-292.016 1362.64,-275.447 1362.64,-235 1362.64,-235 1362.64,-235 1362.64,-161 1362.64,-44.3548 945.246,-23.5218 791.021,-19.8054"/>
<ellipse fill="none" stroke="#76d33c" cx="1270.24" cy="-368.895" rx="4.00001" ry="4.00001"/>
<polygon fill="#76d33c" stroke="#76d33c" points="790.813,-19.8008 780.917,-15.0765 785.814,-19.6881 780.816,-19.5754 780.816,-19.5754 780.816,-19.5754 785.814,-19.6881 780.714,-24.0742 790.813,-19.8008 790.813,-19.8008"/>
</g>
<!-- CourseUserTest -->
<g id="node23" class="node"><title>CourseUserTest</title>
<ellipse fill="none" stroke="black" cx="1131.64" cy="-306" rx="85.2851" ry="18"/>
<text text-anchor="middle" x="1131.64" y="-302.3" font-family="Times,serif" font-size="14.00">CourseUserTest</text>
</g>
<!-- Test&#45;&gt;CourseUserTest -->
<g id="edge33" class="edge"><title>Test&#45;&gt;CourseUserTest</title>
<path fill="none" stroke="#bb22af" d="M1210.84,-359.301C1196.83,-350.054 1179.57,-338.656 1164.74,-328.863"/>
<ellipse fill="none" stroke="#bb22af" cx="1214.36" cy="-361.629" rx="4.00002" ry="4.00002"/>
<polygon fill="#bb22af" stroke="#bb22af" points="1164.68,-328.822 1158.82,-319.556 1160.51,-326.066 1156.34,-323.311 1156.34,-323.311 1156.34,-323.311 1160.51,-326.066 1153.86,-327.066 1164.68,-328.822 1164.68,-328.822"/>
</g>
<!-- Blog -->
<g id="node18" class="node"><title>Blog</title>
<ellipse fill="none" stroke="black" cx="926.637" cy="-450" rx="30.5947" ry="18"/>
<text text-anchor="middle" x="926.637" y="-446.3" font-family="Times,serif" font-size="14.00">Blog</text>
</g>
<!-- Blog&#45;&gt;Resource -->
<g id="edge34" class="edge"><title>Blog&#45;&gt;Resource</title>
<path fill="none" stroke="#3bc7ca" d="M925.55,-423.64C925.281,-417.348 924.992,-410.605 924.722,-404.316"/>
<ellipse fill="none" stroke="#3bc7ca" cx="925.724" cy="-427.7" rx="4" ry="4"/>
<ellipse fill="#3bc7ca" stroke="#3bc7ca" cx="924.542" cy="-400.101" rx="4" ry="4"/>
</g>
<!-- School -->
<g id="node19" class="node"><title>School</title>
<ellipse fill="none" stroke="black" cx="1389.64" cy="-543" rx="40.0939" ry="18"/>
<text text-anchor="middle" x="1389.64" y="-539.3" font-family="Times,serif" font-size="14.00">School</text>
</g>
<!-- School&#45;&gt;Career -->
<g id="edge35" class="edge"><title>School&#45;&gt;Career</title>
<path fill="none" stroke="#993fe4" d="M1405.23,-518.357C1413.76,-505.409 1424.34,-489.363 1433.03,-476.18"/>
<ellipse fill="none" stroke="#993fe4" cx="1402.84" cy="-521.97" rx="4.00002" ry="4.00002"/>
<polygon fill="#993fe4" stroke="#993fe4" points="1433.2,-475.934 1442.46,-470.062 1435.95,-471.759 1438.7,-467.585 1438.7,-467.585 1438.7,-467.585 1435.95,-471.759 1434.95,-465.108 1433.2,-475.934 1433.2,-475.934"/>
</g>
<!-- Student -->
<g id="node20" class="node"><title>Student</title>
<polygon fill="none" stroke="black" stroke-dasharray="1,5" points="1811.64,-561 1737.64,-561 1737.64,-525 1811.64,-525 1811.64,-561"/>
<text text-anchor="middle" x="1774.64" y="-539.3" font-family="Times,serif" font-size="14.00">Student</text>
</g>
<!-- Simulator&#45;&gt;Question -->
<g id="edge37" class="edge"><title>Simulator&#45;&gt;Question</title>
<path fill="none" stroke="#f14028" d="M195.926,-291.251C200.224,-290.143 204.503,-289.048 208.637,-288 264.89,-273.743 329.541,-257.959 373.34,-247.355"/>
<polygon fill="#f14028" stroke="#f14028" points="195.601,-291.335 184.792,-289.486 190.761,-292.588 185.921,-293.842 185.921,-293.842 185.921,-293.842 190.761,-292.588 187.049,-298.198 195.601,-291.335 195.601,-291.335"/>
<polygon fill="#f14028" stroke="#f14028" points="373.462,-247.325 384.24,-249.348 378.322,-246.15 383.182,-244.974 383.182,-244.974 383.182,-244.974 378.322,-246.15 382.124,-240.6 373.462,-247.325 373.462,-247.325"/>
</g>
<!-- Simulator&#45;&gt;SimulatorAnsweredQuestion -->
<g id="edge36" class="edge"><title>Simulator&#45;&gt;SimulatorAnsweredQuestion</title>
<path fill="none" stroke="#168066" d="M143.637,-279.558C143.637,-254.444 143.637,-216.164 143.637,-190.393"/>
<ellipse fill="none" stroke="#168066" cx="143.637" cy="-283.871" rx="4" ry="4"/>
<polygon fill="#168066" stroke="#168066" points="143.637,-190.189 148.137,-180.189 143.637,-185.189 143.637,-180.189 143.637,-180.189 143.637,-180.189 143.637,-185.189 139.137,-180.189 143.637,-190.189 143.637,-190.189"/>
</g>
<!-- PointAction -->
<g id="node25" class="node"><title>PointAction</title>
<ellipse fill="none" stroke="black" cx="1653.64" cy="-543" rx="65.7887" ry="18"/>
<text text-anchor="middle" x="1653.64" y="-539.3" font-family="Times,serif" font-size="14.00">PointAction</text>
</g>
<!-- PointAction&#45;&gt;Point -->
<g id="edge38" class="edge"><title>PointAction&#45;&gt;Point</title>
<path fill="none" stroke="#66f99b" d="M1653.64,-516.729C1653.64,-504.725 1653.64,-490.362 1653.64,-478.129"/>
<ellipse fill="none" stroke="#66f99b" cx="1653.64" cy="-520.884" rx="4" ry="4"/>
<polygon fill="#66f99b" stroke="#66f99b" points="1653.64,-478.04 1658.14,-468.04 1653.64,-473.04 1653.64,-468.04 1653.64,-468.04 1653.64,-468.04 1653.64,-473.04 1649.14,-468.04 1653.64,-478.04 1653.64,-478.04"/>
</g>
<!-- ResourceProgress -->
<g id="node26" class="node"><title>ResourceProgress</title>
<ellipse fill="none" stroke="black" cx="895.637" cy="-306" rx="94.7833" ry="18"/>
<text text-anchor="middle" x="895.637" y="-302.3" font-family="Times,serif" font-size="14.00">ResourceProgress</text>
</g>
<!-- CourseUser&#45;&gt;Plan -->
<g id="edge42" class="edge"><title>CourseUser&#45;&gt;Plan</title>
<path fill="none" stroke="#2aa79f" d="M1142.66,-360.66C1181.02,-347.873 1233.47,-330.39 1267.93,-318.903"/>
<polygon fill="#2aa79f" stroke="#2aa79f" points="1142.62,-360.671 1131.71,-359.564 1137.88,-362.252 1133.14,-363.834 1133.14,-363.834 1133.14,-363.834 1137.88,-362.252 1134.56,-368.103 1142.62,-360.671 1142.62,-360.671"/>
<polygon fill="#2aa79f" stroke="#2aa79f" points="1268.09,-318.849 1279,-319.956 1272.83,-317.268 1277.58,-315.687 1277.58,-315.687 1277.58,-315.687 1272.83,-317.268 1276.15,-311.417 1268.09,-318.849 1268.09,-318.849"/>
</g>
<!-- CourseUser&#45;&gt;CourseUserTest -->
<g id="edge40" class="edge"><title>CourseUser&#45;&gt;CourseUserTest</title>
<path fill="none" stroke="#324104" d="M1106.76,-352.827C1110.19,-346.515 1113.9,-339.681 1117.38,-333.266"/>
<ellipse fill="none" stroke="#324104" cx="1104.74" cy="-356.54" rx="4.00002" ry="4.00002"/>
<polygon fill="#324104" stroke="#324104" points="1117.49,-333.064 1126.21,-326.422 1119.87,-328.67 1122.26,-324.275 1122.26,-324.275 1122.26,-324.275 1119.87,-328.67 1118.3,-322.128 1117.49,-333.064 1117.49,-333.064"/>
</g>
<!-- CourseUser&#45;&gt;ResourceProgress -->
<g id="edge39" class="edge"><title>CourseUser&#45;&gt;ResourceProgress</title>
<path fill="none" stroke="#c8b4a6" d="M1047.77,-360.783C1018.04,-350.275 979.245,-336.558 948.27,-325.607"/>
<ellipse fill="none" stroke="#c8b4a6" cx="1051.69" cy="-362.17" rx="4.00001" ry="4.00001"/>
<polygon fill="#c8b4a6" stroke="#c8b4a6" points="947.937,-325.49 940.009,-317.914 943.223,-323.823 938.509,-322.157 938.509,-322.157 938.509,-322.157 943.223,-323.823 937.009,-326.399 947.937,-325.49 947.937,-325.49"/>
</g>
<!-- CourseUser&#45;&gt;CourseUserPlan -->
<g id="edge41" class="edge"><title>CourseUser&#45;&gt;CourseUserPlan</title>
<path fill="none" stroke="#d75df3" d="M1063.04,-356.116C1052.99,-347.473 1043.03,-336.524 1037.64,-324 1031.31,-309.304 1029.47,-301.761 1037.64,-288 1046.8,-272.547 1062.24,-261.308 1078.13,-253.268"/>
<ellipse fill="none" stroke="#d75df3" cx="1066.17" cy="-358.666" rx="4.00002" ry="4.00002"/>
<polygon fill="#d75df3" stroke="#d75df3" points="1078.44,-253.126 1089.4,-252.974 1082.97,-251.011 1087.5,-248.896 1087.5,-248.896 1087.5,-248.896 1082.97,-251.011 1085.6,-244.818 1078.44,-253.126 1078.44,-253.126"/>
</g>
<!-- Section&#45;&gt;ResourceProgress -->
<g id="edge44" class="edge"><title>Section&#45;&gt;ResourceProgress</title>
<path fill="none" stroke="#581bb2" d="M838.956,-423.927C843.982,-405.725 851.797,-380.757 861.637,-360 866.086,-350.616 871.915,-340.898 877.487,-332.386"/>
<ellipse fill="none" stroke="#581bb2" cx="837.885" cy="-427.911" rx="4.00001" ry="4.00001"/>
<polygon fill="#581bb2" stroke="#581bb2" points="877.541,-332.307 886.863,-326.533 880.337,-328.162 883.133,-324.017 883.133,-324.017 883.133,-324.017 880.337,-328.162 879.402,-321.5 877.541,-332.307 877.541,-332.307"/>
</g>
<!-- Section&#45;&gt;Resource -->
<g id="edge43" class="edge"><title>Section&#45;&gt;Resource</title>
<path fill="none" stroke="#d40eab" d="M859.439,-428.383C870.692,-419.727 883.793,-409.65 895.214,-400.864"/>
<ellipse fill="none" stroke="#d40eab" cx="856.004" cy="-431.026" rx="4.00002" ry="4.00002"/>
<polygon fill="#d40eab" stroke="#d40eab" points="895.257,-400.831 905.927,-398.301 899.22,-397.782 903.183,-394.734 903.183,-394.734 903.183,-394.734 899.22,-397.782 900.439,-391.167 895.257,-400.831 895.257,-400.831"/>
</g>
<!-- SimulatorType -->
<g id="node30" class="node"><title>SimulatorType</title>
<ellipse fill="none" stroke="black" cx="250.637" cy="-378" rx="79.0865" ry="18"/>
<text text-anchor="middle" x="250.637" y="-374.3" font-family="Times,serif" font-size="14.00">SimulatorType</text>
</g>
<!-- SimulatorType&#45;&gt;Simulator -->
<g id="edge45" class="edge"><title>SimulatorType&#45;&gt;Simulator</title>
<path fill="none" stroke="#f2609f" d="M218.945,-356.267C205.346,-347.37 189.479,-336.99 175.825,-328.057"/>
<ellipse fill="none" stroke="#f2609f" cx="222.473" cy="-358.575" rx="4.00002" ry="4.00002"/>
<polygon fill="#f2609f" stroke="#f2609f" points="175.587,-327.901 169.682,-318.661 171.402,-325.164 167.218,-322.427 167.218,-322.427 167.218,-322.427 171.402,-325.164 164.755,-326.193 175.587,-327.901 175.587,-327.901"/>
</g>
<!-- University -->
<g id="node31" class="node"><title>University</title>
<ellipse fill="none" stroke="black" cx="1508.64" cy="-543" rx="61.1893" ry="18"/>
<text text-anchor="middle" x="1508.64" y="-539.3" font-family="Times,serif" font-size="14.00">University</text>
</g>
<!-- University&#45;&gt;Career -->
<g id="edge46" class="edge"><title>University&#45;&gt;Career</title>
<path fill="none" stroke="#58d508" d="M1493.03,-517.921C1484.63,-504.974 1474.29,-489.029 1465.81,-475.951"/>
<ellipse fill="none" stroke="#58d508" cx="1495.36" cy="-521.527" rx="4.00002" ry="4.00002"/>
<polygon fill="#58d508" stroke="#58d508" points="1465.73,-475.817 1464.06,-464.979 1463.01,-471.622 1460.29,-467.427 1460.29,-467.427 1460.29,-467.427 1463.01,-471.622 1456.51,-469.875 1465.73,-475.817 1465.73,-475.817"/>
</g>
<!-- Resource&#45;&gt;ResourceProgress -->
<g id="edge47" class="edge"><title>Resource&#45;&gt;ResourceProgress</title>
<path fill="none" stroke="#c8c620" d="M913.856,-352.548C911.409,-346.428 908.771,-339.835 906.284,-333.616"/>
<ellipse fill="none" stroke="#c8c620" cx="915.374" cy="-356.341" rx="4.00001" ry="4.00001"/>
<polygon fill="#c8c620" stroke="#c8c620" points="906.261,-333.56 906.726,-322.604 904.404,-328.918 902.547,-324.275 902.547,-324.275 902.547,-324.275 904.404,-328.918 898.369,-325.947 906.261,-333.56 906.261,-333.56"/>
</g>
<!-- Task -->
<g id="node33" class="node"><title>Task</title>
<ellipse fill="none" stroke="black" cx="736.637" cy="-450" rx="32.4942" ry="18"/>
<text text-anchor="middle" x="736.637" y="-446.3" font-family="Times,serif" font-size="14.00">Task</text>
</g>
<!-- Task&#45;&gt;Question -->
<g id="edge50" class="edge"><title>Task&#45;&gt;Question</title>
<path fill="none" stroke="#225aa1" d="M726.695,-424.627C710.903,-389.04 676.67,-323.268 626.637,-288 584.936,-258.605 528.046,-245.512 485.264,-239.681"/>
<ellipse fill="none" stroke="#225aa1" cx="728.369" cy="-428.487" rx="4.00002" ry="4.00002"/>
<polygon fill="#225aa1" stroke="#225aa1" points="485.183,-239.671 475.827,-233.949 480.222,-239.042 475.262,-238.414 475.262,-238.414 475.262,-238.414 480.222,-239.042 474.696,-242.878 485.183,-239.671 485.183,-239.671"/>
</g>
<!-- Task&#45;&gt;Answer -->
<g id="edge49" class="edge"><title>Task&#45;&gt;Answer</title>
<path fill="none" stroke="#2d551e" d="M743.592,-424.136C754.056,-384.475 772.637,-304.291 772.637,-235 772.637,-235 772.637,-235 772.637,-161 772.637,-119.633 757.402,-73.7216 746.226,-45.6051"/>
<ellipse fill="none" stroke="#2d551e" cx="742.529" cy="-428.102" rx="4.00001" ry="4.00001"/>
<polygon fill="#2d551e" stroke="#2d551e" points="746.119,-45.346 746.491,-34.3864 744.223,-40.7194 742.327,-36.0929 742.327,-36.0929 742.327,-36.0929 744.223,-40.7194 738.163,-37.7995 746.119,-45.346 746.119,-45.346"/>
</g>
<!-- Task&#45;&gt;Resource -->
<g id="edge48" class="edge"><title>Task&#45;&gt;Resource</title>
<path fill="none" stroke="#40fcf3" d="M769.503,-435.572C772.585,-434.351 775.666,-433.144 778.637,-432 812.703,-418.884 851.563,-404.723 880.473,-394.341"/>
<ellipse fill="none" stroke="#40fcf3" cx="765.615" cy="-437.127" rx="4.00001" ry="4.00001"/>
<ellipse fill="#40fcf3" stroke="#40fcf3" cx="884.586" cy="-392.867" rx="4.00001" ry="4.00001"/>
</g>
</g>
</svg>
