<?xml version="1.0" encoding="UTF-8" standalone="no"?>
<!DOCTYPE svg PUBLIC "-//W3C//DTD SVG 1.1//EN"
 "http://www.w3.org/Graphics/SVG/1.1/DTD/svg11.dtd">
<!-- Generated by graphviz version 2.38.0 (20140413.2041)
 -->
<!-- Title: models_diagram Pages: 1 -->
<svg width="1262pt" height="518pt"
 viewBox="0.00 0.00 1262.19 518.00" xmlns="http://www.w3.org/2000/svg" xmlns:xlink="http://www.w3.org/1999/xlink">
<g id="graph0" class="graph" transform="scale(1 1) rotate(0) translate(4 514)">
<title>models_diagram</title>
<polygon fill="none" stroke="none" points="-4,4 -4,-514 1258.19,-514 1258.19,4 -4,4"/>
<!-- _diagram_info -->
<g id="node1" class="node"><title>_diagram_info</title>
<text text-anchor="start" x="245.193" y="-495.6" font-family="Times,serif" font-size="13.00">Models diagram</text>
<text text-anchor="start" x="245.193" y="-481.6" font-family="Times,serif" font-size="13.00">Date: Aug 08 2016 &#45; 16:58</text>
<text text-anchor="start" x="245.193" y="-467.6" font-family="Times,serif" font-size="13.00">Migration version: 20160808202331</text>
<text text-anchor="start" x="245.193" y="-453.6" font-family="Times,serif" font-size="13.00">Generated by RailRoady 1.5.1</text>
<text text-anchor="start" x="245.193" y="-439.6" font-family="Times,serif" font-size="13.00">http://railroady.prestonlee.com</text>
</g>
<!-- Course -->
<g id="node2" class="node"><title>Course</title>
<ellipse fill="none" stroke="black" cx="531.193" cy="-471" rx="42.4939" ry="18"/>
<text text-anchor="middle" x="531.193" y="-467.3" font-family="Times,serif" font-size="14.00">Course</text>
</g>
<!-- Category -->
<g id="node4" class="node"><title>Category</title>
<ellipse fill="none" stroke="black" cx="593.193" cy="-306" rx="53.8905" ry="18"/>
<text text-anchor="middle" x="593.193" y="-302.3" font-family="Times,serif" font-size="14.00">Category</text>
</g>
<!-- Course&#45;&gt;Category -->
<g id="edge1" class="edge"><title>Course&#45;&gt;Category</title>
<path fill="none" stroke="#171561" d="M546.322,-446.626C554.934,-432.451 565.339,-413.732 572.193,-396 579.955,-375.917 585.387,-352.135 588.778,-334.209"/>
<ellipse fill="none" stroke="#171561" cx="544.114" cy="-450.193" rx="4.00002" ry="4.00002"/>
<polygon fill="#171561" stroke="#171561" points="588.818,-333.989 595.015,-324.942 589.702,-329.068 590.586,-324.147 590.586,-324.147 590.586,-324.147 589.702,-329.068 586.157,-323.351 588.818,-333.989 588.818,-333.989"/>
</g>
<!-- User -->
<g id="node8" class="node"><title>User</title>
<ellipse fill="none" stroke="black" cx="531.193" cy="-378" rx="32.4942" ry="18"/>
<text text-anchor="middle" x="531.193" y="-374.3" font-family="Times,serif" font-size="14.00">User</text>
</g>
<!-- Course&#45;&gt;User -->
<g id="edge4" class="edge"><title>Course&#45;&gt;User</title>
<path fill="none" stroke="#7b692f" d="M531.193,-442.549C531.193,-431.083 531.193,-417.792 531.193,-406.339"/>
<polygon fill="#7b692f" stroke="#7b692f" points="531.193,-442.884 526.693,-452.884 531.193,-447.884 531.193,-452.884 531.193,-452.884 531.193,-452.884 531.193,-447.884 535.693,-452.884 531.193,-442.884 531.193,-442.884"/>
<polygon fill="#7b692f" stroke="#7b692f" points="531.193,-406.04 535.693,-396.04 531.193,-401.04 531.193,-396.04 531.193,-396.04 531.193,-396.04 531.193,-401.04 526.693,-396.04 531.193,-406.04 531.193,-406.04"/>
</g>
<!-- LiveClass -->
<g id="node10" class="node"><title>LiveClass</title>
<ellipse fill="none" stroke="black" cx="427.193" cy="-378" rx="53.8905" ry="18"/>
<text text-anchor="middle" x="427.193" y="-374.3" font-family="Times,serif" font-size="14.00">LiveClass</text>
</g>
<!-- Course&#45;&gt;LiveClass -->
<g id="edge6" class="edge"><title>Course&#45;&gt;LiveClass</title>
<path fill="none" stroke="#2a81c0" d="M507.478,-449.25C490.906,-434.749 468.824,-415.427 452.013,-400.718"/>
<ellipse fill="none" stroke="#2a81c0" cx="510.54" cy="-451.929" rx="4.00002" ry="4.00002"/>
<ellipse fill="#2a81c0" stroke="#2a81c0" cx="448.633" cy="-397.761" rx="4.00002" ry="4.00002"/>
</g>
<!-- Test -->
<g id="node16" class="node"><title>Test</title>
<ellipse fill="none" stroke="black" cx="350.193" cy="-234" rx="31.6951" ry="18"/>
<text text-anchor="middle" x="350.193" y="-230.3" font-family="Times,serif" font-size="14.00">Test</text>
</g>
<!-- Course&#45;&gt;Test -->
<g id="edge5" class="edge"><title>Course&#45;&gt;Test</title>
<path fill="none" stroke="#976eb8" d="M506.82,-449.213C498.727,-443.046 489.419,-436.694 480.193,-432 432.08,-407.522 398.065,-438.032 364.193,-396 333.56,-357.988 338.101,-297.27 344.153,-262.273"/>
<ellipse fill="none" stroke="#976eb8" cx="510.159" cy="-451.837" rx="4.00002" ry="4.00002"/>
<polygon fill="#976eb8" stroke="#976eb8" points="344.182,-262.117 350.464,-253.129 345.112,-257.204 346.042,-252.292 346.042,-252.292 346.042,-252.292 345.112,-257.204 341.621,-251.455 344.182,-262.117 344.182,-262.117"/>
</g>
<!-- CourseUser -->
<g id="node23" class="node"><title>CourseUser</title>
<ellipse fill="none" stroke="black" cx="225.193" cy="-234" rx="63.8893" ry="18"/>
<text text-anchor="middle" x="225.193" y="-230.3" font-family="Times,serif" font-size="14.00">CourseUser</text>
</g>
<!-- Course&#45;&gt;CourseUser -->
<g id="edge3" class="edge"><title>Course&#45;&gt;CourseUser</title>
<path fill="none" stroke="#b4024f" d="M507.345,-449.276C499.166,-442.998 489.675,-436.565 480.193,-432 423.467,-404.692 395.236,-431.425 343.193,-396 292.392,-361.421 255.351,-297.496 237.382,-261.472"/>
<ellipse fill="none" stroke="#b4024f" cx="510.746" cy="-451.979" rx="4.00002" ry="4.00002"/>
<polygon fill="#b4024f" stroke="#b4024f" points="237.197,-261.092 236.871,-250.131 235.011,-256.596 232.824,-252.099 232.824,-252.099 232.824,-252.099 235.011,-256.596 228.777,-254.067 237.197,-261.092 237.197,-261.092"/>
</g>
<!-- Section -->
<g id="node24" class="node"><title>Section</title>
<ellipse fill="none" stroke="black" cx="766.193" cy="-234" rx="45.4919" ry="18"/>
<text text-anchor="middle" x="766.193" y="-230.3" font-family="Times,serif" font-size="14.00">Section</text>
</g>
<!-- Course&#45;&gt;Section -->
<g id="edge2" class="edge"><title>Course&#45;&gt;Section</title>
<path fill="none" stroke="#98be34" d="M552.884,-448.308C597.087,-404.106 697.251,-303.941 742.828,-258.365"/>
<ellipse fill="none" stroke="#98be34" cx="549.805" cy="-451.388" rx="4.00002" ry="4.00002"/>
<polygon fill="#98be34" stroke="#98be34" points="743.097,-258.096 753.35,-254.207 746.632,-254.56 750.168,-251.025 750.168,-251.025 750.168,-251.025 746.632,-254.56 746.986,-247.843 743.097,-258.096 743.097,-258.096"/>
</g>
<!-- Tutorial -->
<g id="node3" class="node"><title>Tutorial</title>
<ellipse fill="none" stroke="black" cx="899.193" cy="-162" rx="48.9926" ry="18"/>
<text text-anchor="middle" x="899.193" y="-158.3" font-family="Times,serif" font-size="14.00">Tutorial</text>
</g>
<!-- SubCategory -->
<g id="node5" class="node"><title>SubCategory</title>
<ellipse fill="none" stroke="black" cx="632.193" cy="-234" rx="70.6878" ry="18"/>
<text text-anchor="middle" x="632.193" y="-230.3" font-family="Times,serif" font-size="14.00">SubCategory</text>
</g>
<!-- Category&#45;&gt;SubCategory -->
<g id="edge7" class="edge"><title>Category&#45;&gt;SubCategory</title>
<path fill="none" stroke="#40b7c3" d="M606.66,-280.827C610.177,-274.515 613.985,-267.681 617.559,-261.266"/>
<ellipse fill="none" stroke="#40b7c3" cx="604.58" cy="-284.561" rx="4.00002" ry="4.00002"/>
<polygon fill="#40b7c3" stroke="#40b7c3" points="617.701,-261.011 626.499,-254.465 620.134,-256.643 622.568,-252.275 622.568,-252.275 622.568,-252.275 620.134,-256.643 618.637,-250.085 617.701,-261.011 617.701,-261.011"/>
</g>
<!-- Question -->
<g id="node9" class="node"><title>Question</title>
<ellipse fill="none" stroke="black" cx="532.193" cy="-162" rx="51.9908" ry="18"/>
<text text-anchor="middle" x="532.193" y="-158.3" font-family="Times,serif" font-size="14.00">Question</text>
</g>
<!-- Category&#45;&gt;Question -->
<g id="edge8" class="edge"><title>Category&#45;&gt;Question</title>
<path fill="none" stroke="#ae55d5" d="M570.95,-280.878C564.046,-272.293 556.996,-262.211 552.193,-252 542.95,-232.354 537.871,-208.226 535.147,-190.051"/>
<polygon fill="#ae55d5" stroke="#ae55d5" points="571.012,-280.951 574.002,-291.501 574.229,-284.778 577.447,-288.605 577.447,-288.605 577.447,-288.605 574.229,-284.778 580.891,-285.71 571.012,-280.951 571.012,-280.951"/>
<polygon fill="#ae55d5" stroke="#ae55d5" points="535.144,-190.025 538.261,-179.512 534.472,-185.071 533.801,-180.116 533.801,-180.116 533.801,-180.116 534.472,-185.071 529.342,-180.72 535.144,-190.025 535.144,-190.025"/>
</g>
<!-- SubCategory&#45;&gt;Tutorial -->
<g id="edge11" class="edge"><title>SubCategory&#45;&gt;Tutorial</title>
<path fill="none" stroke="#8f27cc" d="M689.658,-219.031C731.727,-208.658 790.138,-193.95 841.193,-180 844.957,-178.971 848.851,-177.883 852.759,-176.774"/>
<ellipse fill="none" stroke="#8f27cc" cx="685.618" cy="-220.025" rx="4.00001" ry="4.00001"/>
<polygon fill="#8f27cc" stroke="#8f27cc" points="852.82,-176.756 863.674,-178.321 857.626,-175.376 862.432,-173.996 862.432,-173.996 862.432,-173.996 857.626,-175.376 861.189,-169.671 852.82,-176.756 852.82,-176.756"/>
</g>
<!-- Choice -->
<g id="node7" class="node"><title>Choice</title>
<ellipse fill="none" stroke="black" cx="558.193" cy="-90" rx="40.0939" ry="18"/>
<text text-anchor="middle" x="558.193" y="-86.3" font-family="Times,serif" font-size="14.00">Choice</text>
</g>
<!-- SubCategory&#45;&gt;Choice -->
<g id="edge10" class="edge"><title>SubCategory&#45;&gt;Choice</title>
<path fill="none" stroke="#5339dd" d="M629.716,-205.873C627.124,-187.478 621.855,-163.126 611.193,-144 604.708,-132.368 594.938,-121.565 585.545,-112.789"/>
<polygon fill="#5339dd" stroke="#5339dd" points="629.732,-206.006 626.487,-216.48 630.343,-210.968 630.954,-215.931 630.954,-215.931 630.954,-215.931 630.343,-210.968 635.42,-215.381 629.732,-206.006 629.732,-206.006"/>
<polygon fill="#5339dd" stroke="#5339dd" points="585.295,-112.566 580.816,-102.557 581.56,-109.243 577.824,-105.919 577.824,-105.919 577.824,-105.919 581.56,-109.243 574.833,-109.281 585.295,-112.566 585.295,-112.566"/>
</g>
<!-- SubCategory&#45;&gt;Question -->
<g id="edge9" class="edge"><title>SubCategory&#45;&gt;Question</title>
<path fill="none" stroke="#74dcb5" d="M602.158,-211.976C589.637,-203.211 575.118,-193.047 562.561,-184.258"/>
<ellipse fill="none" stroke="#74dcb5" cx="605.722" cy="-214.471" rx="4.00002" ry="4.00002"/>
<polygon fill="#74dcb5" stroke="#74dcb5" points="562.423,-184.161 556.811,-174.74 558.327,-181.294 554.231,-178.427 554.231,-178.427 554.231,-178.427 558.327,-181.294 551.65,-182.113 562.423,-184.161 562.423,-184.161"/>
</g>
<!-- Plan -->
<g id="node6" class="node"><title>Plan</title>
<ellipse fill="none" stroke="black" cx="53.1926" cy="-162" rx="30.5947" ry="18"/>
<text text-anchor="middle" x="53.1926" y="-158.3" font-family="Times,serif" font-size="14.00">Plan</text>
</g>
<!-- Plan&#45;&gt;CourseUser -->
<g id="edge13" class="edge"><title>Plan&#45;&gt;CourseUser</title>
<path fill="none" stroke="#8a3eeb" d="M88.5276,-175.234C116.626,-185.996 155.792,-201.828 185.054,-214.198"/>
<polygon fill="#8a3eeb" stroke="#8a3eeb" points="88.435,-175.199 80.6804,-167.446 83.7599,-173.426 79.0848,-171.654 79.0848,-171.654 79.0848,-171.654 83.7599,-173.426 77.4891,-175.861 88.435,-175.199 88.435,-175.199"/>
<polygon fill="#8a3eeb" stroke="#8a3eeb" points="185.15,-214.239 192.59,-222.295 189.751,-216.197 194.352,-218.155 194.352,-218.155 194.352,-218.155 189.751,-216.197 196.114,-214.014 185.15,-214.239 185.15,-214.239"/>
</g>
<!-- CourseUserPlan -->
<g id="node25" class="node"><title>CourseUserPlan</title>
<ellipse fill="none" stroke="black" cx="83.1926" cy="-90" rx="83.3857" ry="18"/>
<text text-anchor="middle" x="83.1926" y="-86.3" font-family="Times,serif" font-size="14.00">CourseUserPlan</text>
</g>
<!-- Plan&#45;&gt;CourseUserPlan -->
<g id="edge12" class="edge"><title>Plan&#45;&gt;CourseUserPlan</title>
<path fill="none" stroke="#734e38" d="M63.5735,-136.778C66.2452,-130.544 69.1335,-123.805 71.8512,-117.463"/>
<ellipse fill="none" stroke="#734e38" cx="61.8779" cy="-140.734" rx="4.00002" ry="4.00002"/>
<polygon fill="#734e38" stroke="#734e38" points="71.9864,-117.148 80.0618,-109.729 73.956,-112.552 75.9257,-107.956 75.9257,-107.956 75.9257,-107.956 73.956,-112.552 71.7895,-106.184 71.9864,-117.148 71.9864,-117.148"/>
</g>
<!-- Answer -->
<g id="node14" class="node"><title>Answer</title>
<ellipse fill="none" stroke="black" cx="433.193" cy="-18" rx="46.2923" ry="18"/>
<text text-anchor="middle" x="433.193" y="-14.3" font-family="Times,serif" font-size="14.00">Answer</text>
</g>
<!-- Choice&#45;&gt;Answer -->
<g id="edge14" class="edge"><title>Choice&#45;&gt;Answer</title>
<path fill="none" stroke="#4d328f" d="M526.909,-71.4812C508.754,-61.3141 485.87,-48.4992 467.26,-38.0777"/>
<ellipse fill="none" stroke="#4d328f" cx="530.601" cy="-73.5489" rx="4.00002" ry="4.00002"/>
<polygon fill="#4d328f" stroke="#4d328f" points="467.232,-38.0622 460.706,-29.2498 462.87,-35.6191 458.507,-33.1761 458.507,-33.1761 458.507,-33.1761 462.87,-35.6191 456.308,-37.1024 467.232,-38.0622 467.232,-38.0622"/>
</g>
<!-- User&#45;&gt;Category -->
<g id="edge15" class="edge"><title>User&#45;&gt;Category</title>
<path fill="none" stroke="#3d5a98" d="M550.379,-355.338C557.205,-347.631 564.931,-338.908 571.922,-331.015"/>
<ellipse fill="none" stroke="#3d5a98" cx="547.605" cy="-358.47" rx="4.00002" ry="4.00002"/>
<polygon fill="#3d5a98" stroke="#3d5a98" points="571.977,-330.953 581.976,-326.451 575.292,-327.21 578.607,-323.467 578.607,-323.467 578.607,-323.467 575.292,-327.21 575.239,-320.484 571.977,-330.953 571.977,-330.953"/>
</g>
<!-- User&#45;&gt;SubCategory -->
<g id="edge16" class="edge"><title>User&#45;&gt;SubCategory</title>
<path fill="none" stroke="#9fe9c6" d="M524.269,-352.299C520.44,-333.33 518.524,-307.213 530.193,-288 540.332,-271.306 557.627,-259.629 575.126,-251.575"/>
<ellipse fill="none" stroke="#9fe9c6" cx="525.175" cy="-356.305" rx="4.00001" ry="4.00001"/>
<polygon fill="#9fe9c6" stroke="#9fe9c6" points="575.616,-251.366 586.58,-251.606 580.22,-249.415 584.823,-247.463 584.823,-247.463 584.823,-247.463 580.22,-249.415 583.067,-243.32 575.616,-251.366 575.616,-251.366"/>
</g>
<!-- User&#45;&gt;Answer -->
<g id="edge18" class="edge"><title>User&#45;&gt;Answer</title>
<path fill="none" stroke="#1b6f7c" d="M507.947,-356.916C483.689,-334.27 447.144,-294.961 432.193,-252 407.503,-181.059 419.157,-90.4433 427.42,-46.0193"/>
<ellipse fill="none" stroke="#1b6f7c" cx="511.182" cy="-359.877" rx="4.00002" ry="4.00002"/>
<polygon fill="#1b6f7c" stroke="#1b6f7c" points="427.458,-45.8247 433.79,-36.8714 428.416,-40.9172 429.373,-36.0097 429.373,-36.0097 429.373,-36.0097 428.416,-40.9172 424.956,-35.148 427.458,-45.8247 427.458,-45.8247"/>
</g>
<!-- User&#45;&gt;CourseUser -->
<g id="edge17" class="edge"><title>User&#45;&gt;CourseUser</title>
<path fill="none" stroke="#611e0c" d="M498.594,-363.427C495.755,-362.262 492.924,-361.107 490.193,-360 449.88,-343.67 438.822,-341.924 399.193,-324 350.947,-302.179 296.864,-273.89 261.987,-255.126"/>
<ellipse fill="none" stroke="#611e0c" cx="502.369" cy="-364.982" rx="4.00002" ry="4.00002"/>
<polygon fill="#611e0c" stroke="#611e0c" points="261.915,-255.087 255.254,-246.376 257.515,-252.712 253.115,-250.336 253.115,-250.336 253.115,-250.336 257.515,-252.712 250.977,-254.295 261.915,-255.087 261.915,-255.087"/>
</g>
<!-- Question&#45;&gt;Choice -->
<g id="edge20" class="edge"><title>Question&#45;&gt;Choice</title>
<path fill="none" stroke="#673dc2" d="M541.318,-136.431C543.627,-130.214 546.116,-123.514 548.454,-117.22"/>
<ellipse fill="none" stroke="#673dc2" cx="539.879" cy="-140.305" rx="4.00001" ry="4.00001"/>
<polygon fill="#673dc2" stroke="#673dc2" points="548.475,-117.163 556.175,-109.356 550.216,-112.476 551.957,-107.789 551.957,-107.789 551.957,-107.789 550.216,-112.476 547.738,-106.222 548.475,-117.163 548.475,-117.163"/>
</g>
<!-- Question&#45;&gt;Question -->
<g id="edge21" class="edge"><title>Question&#45;&gt;Question</title>
<path fill="none" stroke="#c8e4f6" d="M576.43,-175.498C590.783,-175.398 602.188,-170.899 602.188,-162 602.188,-153.513 591.814,-149.028 578.404,-148.544"/>
<ellipse fill="none" stroke="#c8e4f6" cx="572.202" cy="-175.294" rx="4" ry="4"/>
<polygon fill="#c8e4f6" stroke="#c8e4f6" points="578.201,-148.551 568.05,-144.402 573.204,-148.725 568.207,-148.899 568.207,-148.899 568.207,-148.899 573.204,-148.725 568.363,-153.396 578.201,-148.551 578.201,-148.551"/>
</g>
<!-- Question&#45;&gt;Answer -->
<g id="edge19" class="edge"><title>Question&#45;&gt;Answer</title>
<path fill="none" stroke="#50320e" d="M515.845,-137.552C497.804,-111.674 468.887,-70.1983 450.479,-43.794"/>
<ellipse fill="none" stroke="#50320e" cx="518.355" cy="-141.152" rx="4.00002" ry="4.00002"/>
<polygon fill="#50320e" stroke="#50320e" points="450.389,-43.6648 448.361,-32.888 447.529,-39.5632 444.669,-35.4616 444.669,-35.4616 444.669,-35.4616 447.529,-39.5632 440.978,-38.0352 450.389,-43.6648 450.389,-43.6648"/>
</g>
<!-- Career -->
<g id="node11" class="node"><title>Career</title>
<ellipse fill="none" stroke="black" cx="750.193" cy="-378" rx="42.4939" ry="18"/>
<text text-anchor="middle" x="750.193" y="-374.3" font-family="Times,serif" font-size="14.00">Career</text>
</g>
<!-- EventType -->
<g id="node12" class="node"><title>EventType</title>
<ellipse fill="none" stroke="black" cx="951.193" cy="-471" rx="61.99" ry="18"/>
<text text-anchor="middle" x="951.193" y="-467.3" font-family="Times,serif" font-size="14.00">EventType</text>
</g>
<!-- Event -->
<g id="node26" class="node"><title>Event</title>
<ellipse fill="none" stroke="black" cx="951.193" cy="-378" rx="38.1938" ry="18"/>
<text text-anchor="middle" x="951.193" y="-374.3" font-family="Times,serif" font-size="14.00">Event</text>
</g>
<!-- EventType&#45;&gt;Event -->
<g id="edge22" class="edge"><title>EventType&#45;&gt;Event</title>
<path fill="none" stroke="#4a1393" d="M951.193,-444.729C951.193,-432.725 951.193,-418.362 951.193,-406.129"/>
<ellipse fill="none" stroke="#4a1393" cx="951.193" cy="-448.884" rx="4" ry="4"/>
<polygon fill="#4a1393" stroke="#4a1393" points="951.193,-406.04 955.693,-396.04 951.193,-401.04 951.193,-396.04 951.193,-396.04 951.193,-396.04 951.193,-401.04 946.693,-396.04 951.193,-406.04 951.193,-406.04"/>
</g>
<!-- Video -->
<g id="node13" class="node"><title>Video</title>
<ellipse fill="none" stroke="black" cx="866.193" cy="-234" rx="36.2938" ry="18"/>
<text text-anchor="middle" x="866.193" y="-230.3" font-family="Times,serif" font-size="14.00">Video</text>
</g>
<!-- Video&#45;&gt;Tutorial -->
<g id="edge24" class="edge"><title>Video&#45;&gt;Tutorial</title>
<path fill="none" stroke="#9e13db" d="M877.477,-209.062C880.791,-202.034 884.417,-194.343 887.74,-187.293"/>
<ellipse fill="none" stroke="#9e13db" cx="875.719" cy="-212.793" rx="4.00002" ry="4.00002"/>
<ellipse fill="#9e13db" stroke="#9e13db" cx="889.493" cy="-183.574" rx="4.00002" ry="4.00002"/>
</g>
<!-- Resource -->
<g id="node28" class="node"><title>Resource</title>
<ellipse fill="none" stroke="black" cx="779.193" cy="-162" rx="53.0913" ry="18"/>
<text text-anchor="middle" x="779.193" y="-158.3" font-family="Times,serif" font-size="14.00">Resource</text>
</g>
<!-- Video&#45;&gt;Resource -->
<g id="edge23" class="edge"><title>Video&#45;&gt;Resource</title>
<path fill="none" stroke="#2f2f55" d="M841.384,-213.039C830.1,-203.96 816.744,-193.214 805.307,-184.012"/>
<ellipse fill="none" stroke="#2f2f55" cx="844.626" cy="-215.647" rx="4.00002" ry="4.00002"/>
<ellipse fill="#2f2f55" stroke="#2f2f55" cx="801.942" cy="-181.304" rx="4.00002" ry="4.00002"/>
</g>
<!-- Point -->
<g id="node15" class="node"><title>Point</title>
<ellipse fill="none" stroke="black" cx="1096.19" cy="-378" rx="35.194" ry="18"/>
<text text-anchor="middle" x="1096.19" y="-374.3" font-family="Times,serif" font-size="14.00">Point</text>
</g>
<!-- Test&#45;&gt;Question -->
<g id="edge25" class="edge"><title>Test&#45;&gt;Question</title>
<path fill="none" stroke="#4b2d68" d="M383.401,-220.228C413.029,-208.832 456.6,-192.074 488.943,-179.634"/>
<ellipse fill="none" stroke="#4b2d68" cx="379.616" cy="-221.683" rx="4.00001" ry="4.00001"/>
<polygon fill="#4b2d68" stroke="#4b2d68" points="489.259,-179.513 500.208,-180.123 493.926,-177.718 498.592,-175.923 498.592,-175.923 498.592,-175.923 493.926,-177.718 496.977,-171.723 489.259,-179.513 489.259,-179.513"/>
</g>
<!-- Test&#45;&gt;Answer -->
<g id="edge26" class="edge"><title>Test&#45;&gt;Answer</title>
<path fill="none" stroke="#44dd3c" d="M355.843,-208C363.613,-175.712 379.07,-118.178 400.193,-72 404.543,-62.4896 410.302,-52.6194 415.789,-44.0116"/>
<ellipse fill="none" stroke="#44dd3c" cx="354.866" cy="-212.133" rx="4.00001" ry="4.00001"/>
<polygon fill="#44dd3c" stroke="#44dd3c" points="415.847,-43.9234 425.1,-38.0378 418.593,-39.7449 421.339,-35.5664 421.339,-35.5664 421.339,-35.5664 418.593,-39.7449 417.578,-33.095 415.847,-43.9234 415.847,-43.9234"/>
</g>
<!-- CourseUserTest -->
<g id="node20" class="node"><title>CourseUserTest</title>
<ellipse fill="none" stroke="black" cx="225.193" cy="-162" rx="85.2851" ry="18"/>
<text text-anchor="middle" x="225.193" y="-158.3" font-family="Times,serif" font-size="14.00">CourseUserTest</text>
</g>
<!-- Test&#45;&gt;CourseUserTest -->
<g id="edge27" class="edge"><title>Test&#45;&gt;CourseUserTest</title>
<path fill="none" stroke="#fb0078" d="M321.272,-216.804C303.832,-207.038 281.43,-194.493 262.646,-183.974"/>
<ellipse fill="none" stroke="#fb0078" cx="324.929" cy="-218.852" rx="4.00002" ry="4.00002"/>
<polygon fill="#fb0078" stroke="#fb0078" points="262.478,-183.88 255.951,-175.067 258.115,-181.437 253.753,-178.994 253.753,-178.994 253.753,-178.994 258.115,-181.437 251.554,-182.92 262.478,-183.88 262.478,-183.88"/>
</g>
<!-- Blog -->
<g id="node17" class="node"><title>Blog</title>
<ellipse fill="none" stroke="black" cx="951.193" cy="-234" rx="30.5947" ry="18"/>
<text text-anchor="middle" x="951.193" y="-230.3" font-family="Times,serif" font-size="14.00">Blog</text>
</g>
<!-- Blog&#45;&gt;Tutorial -->
<g id="edge28" class="edge"><title>Blog&#45;&gt;Tutorial</title>
<path fill="none" stroke="#dfe94f" d="M934.485,-210.509C928.813,-202.873 922.461,-194.323 916.727,-186.603"/>
<ellipse fill="none" stroke="#dfe94f" cx="937.008" cy="-213.905" rx="4.00002" ry="4.00002"/>
<ellipse fill="#dfe94f" stroke="#dfe94f" cx="914.056" cy="-183.008" rx="4.00002" ry="4.00002"/>
</g>
<!-- Blog&#45;&gt;Resource -->
<g id="edge29" class="edge"><title>Blog&#45;&gt;Resource</title>
<path fill="none" stroke="#48ea2c" d="M919.625,-219.514C916.777,-218.319 913.934,-217.133 911.193,-216 880.657,-203.382 845.984,-189.477 819.839,-179.076"/>
<ellipse fill="none" stroke="#48ea2c" cx="923.427" cy="-221.118" rx="4.00002" ry="4.00002"/>
<ellipse fill="#48ea2c" stroke="#48ea2c" cx="816.076" cy="-177.58" rx="4.00001" ry="4.00001"/>
</g>
<!-- School -->
<g id="node18" class="node"><title>School</title>
<ellipse fill="none" stroke="black" cx="691.193" cy="-471" rx="40.0939" ry="18"/>
<text text-anchor="middle" x="691.193" y="-467.3" font-family="Times,serif" font-size="14.00">School</text>
</g>
<!-- School&#45;&gt;Career -->
<g id="edge30" class="edge"><title>School&#45;&gt;Career</title>
<path fill="none" stroke="#f894d1" d="M706.522,-446.357C714.917,-433.409 725.32,-417.363 733.867,-404.18"/>
<ellipse fill="none" stroke="#f894d1" cx="704.19" cy="-449.953" rx="4.00002" ry="4.00002"/>
<polygon fill="#f894d1" stroke="#f894d1" points="734,-403.976 743.216,-398.033 736.72,-399.78 739.44,-395.585 739.44,-395.585 739.44,-395.585 736.72,-399.78 735.664,-393.137 734,-403.976 734,-403.976"/>
</g>
<!-- Student -->
<g id="node19" class="node"><title>Student</title>
<polygon fill="none" stroke="black" stroke-dasharray="1,5" points="1254.19,-489 1180.19,-489 1180.19,-453 1254.19,-453 1254.19,-489"/>
<text text-anchor="middle" x="1217.19" y="-467.3" font-family="Times,serif" font-size="14.00">Student</text>
</g>
<!-- CourseUserTest&#45;&gt;Answer -->
<g id="edge31" class="edge"><title>CourseUserTest&#45;&gt;Answer</title>
<path fill="none" stroke="#821b5e" d="M255.818,-140.092C295.267,-113.161 363.425,-66.6295 402.774,-39.7668"/>
<ellipse fill="none" stroke="#821b5e" cx="252.356" cy="-142.455" rx="4.00002" ry="4.00002"/>
<polygon fill="#821b5e" stroke="#821b5e" points="402.923,-39.6648 413.719,-37.7429 407.053,-36.8456 411.182,-34.0264 411.182,-34.0264 411.182,-34.0264 407.053,-36.8456 408.645,-30.3099 402.923,-39.6648 402.923,-39.6648"/>
</g>
<!-- PointAction -->
<g id="node21" class="node"><title>PointAction</title>
<ellipse fill="none" stroke="black" cx="1096.19" cy="-471" rx="65.7887" ry="18"/>
<text text-anchor="middle" x="1096.19" y="-467.3" font-family="Times,serif" font-size="14.00">PointAction</text>
</g>
<!-- PointAction&#45;&gt;Point -->
<g id="edge32" class="edge"><title>PointAction&#45;&gt;Point</title>
<path fill="none" stroke="#d180e7" d="M1096.19,-444.729C1096.19,-432.725 1096.19,-418.362 1096.19,-406.129"/>
<ellipse fill="none" stroke="#d180e7" cx="1096.19" cy="-448.884" rx="4" ry="4"/>
<polygon fill="#d180e7" stroke="#d180e7" points="1096.19,-406.04 1100.69,-396.04 1096.19,-401.04 1096.19,-396.04 1096.19,-396.04 1096.19,-396.04 1096.19,-401.04 1091.69,-396.04 1096.19,-406.04 1096.19,-406.04"/>
</g>
<!-- ResourceProgress -->
<g id="node22" class="node"><title>ResourceProgress</title>
<ellipse fill="none" stroke="black" cx="711.193" cy="-90" rx="94.7833" ry="18"/>
<text text-anchor="middle" x="711.193" y="-86.3" font-family="Times,serif" font-size="14.00">ResourceProgress</text>
</g>
<!-- CourseUser&#45;&gt;Plan -->
<g id="edge36" class="edge"><title>CourseUser&#45;&gt;Plan</title>
<path fill="none" stroke="#6c326b" d="M178.747,-216.472C148.35,-204.629 109.616,-188.833 83.1916,-177.484"/>
<ellipse fill="none" stroke="#6c326b" cx="182.841" cy="-218.058" rx="4.00001" ry="4.00001"/>
<ellipse fill="#6c326b" stroke="#6c326b" cx="79.4169" cy="-175.85" rx="4.00002" ry="4.00002"/>
</g>
<!-- CourseUser&#45;&gt;CourseUserTest -->
<g id="edge34" class="edge"><title>CourseUser&#45;&gt;CourseUserTest</title>
<path fill="none" stroke="#f3184b" d="M225.193,-207.64C225.193,-202.063 225.193,-196.132 225.193,-190.476"/>
<ellipse fill="none" stroke="#f3184b" cx="225.193" cy="-211.697" rx="4" ry="4"/>
<polygon fill="#f3184b" stroke="#f3184b" points="225.193,-190.104 229.693,-180.104 225.193,-185.104 225.193,-180.104 225.193,-180.104 225.193,-180.104 225.193,-185.104 220.693,-180.104 225.193,-190.104 225.193,-190.104"/>
</g>
<!-- CourseUser&#45;&gt;ResourceProgress -->
<g id="edge33" class="edge"><title>CourseUser&#45;&gt;ResourceProgress</title>
<path fill="none" stroke="#59bbdd" d="M267.249,-215.89C315.794,-196.586 398.319,-165.132 471.193,-144 525.619,-128.217 588.164,-114.547 635.758,-105.044"/>
<ellipse fill="none" stroke="#59bbdd" cx="263.472" cy="-217.397" rx="4.00001" ry="4.00001"/>
<polygon fill="#59bbdd" stroke="#59bbdd" points="635.869,-105.022 646.552,-107.494 640.774,-104.051 645.679,-103.08 645.679,-103.08 645.679,-103.08 640.774,-104.051 644.805,-98.6656 635.869,-105.022 635.869,-105.022"/>
</g>
<!-- CourseUser&#45;&gt;CourseUserPlan -->
<g id="edge35" class="edge"><title>CourseUser&#45;&gt;CourseUserPlan</title>
<path fill="none" stroke="#83d8b3" d="M182.548,-215.359C165.101,-206.616 145.66,-194.742 131.193,-180 113.144,-161.609 100.013,-135.05 92.0934,-115.735"/>
<ellipse fill="none" stroke="#83d8b3" cx="186.283" cy="-217.168" rx="4.00002" ry="4.00002"/>
<ellipse fill="#83d8b3" stroke="#83d8b3" cx="90.5875" cy="-111.924" rx="4.00001" ry="4.00001"/>
</g>
<!-- Section&#45;&gt;ResourceProgress -->
<g id="edge38" class="edge"><title>Section&#45;&gt;ResourceProgress</title>
<path fill="none" stroke="#ea37cf" d="M740.594,-212.047C731.577,-203.172 722.398,-192.084 717.193,-180 708.832,-160.592 707.68,-136.588 708.426,-118.402"/>
<ellipse fill="none" stroke="#ea37cf" cx="743.536" cy="-214.81" rx="4.00002" ry="4.00002"/>
<polygon fill="#ea37cf" stroke="#ea37cf" points="708.441,-118.164 713.558,-108.466 708.754,-113.174 709.067,-108.184 709.067,-108.184 709.067,-108.184 708.754,-113.174 704.576,-107.902 708.441,-118.164 708.441,-118.164"/>
</g>
<!-- Section&#45;&gt;Resource -->
<g id="edge37" class="edge"><title>Section&#45;&gt;Resource</title>
<path fill="none" stroke="#1dc13d" d="M770.902,-207.64C771.965,-201.92 773.096,-195.828 774.171,-190.042"/>
<ellipse fill="none" stroke="#1dc13d" cx="770.137" cy="-211.764" rx="4.00001" ry="4.00001"/>
<polygon fill="#1dc13d" stroke="#1dc13d" points="774.19,-189.936 780.44,-180.926 775.103,-185.02 776.016,-180.104 776.016,-180.104 776.016,-180.104 775.103,-185.02 771.592,-179.283 774.19,-189.936 774.19,-189.936"/>
</g>
<!-- University -->
<g id="node27" class="node"><title>University</title>
<ellipse fill="none" stroke="black" cx="810.193" cy="-471" rx="61.1893" ry="18"/>
<text text-anchor="middle" x="810.193" y="-467.3" font-family="Times,serif" font-size="14.00">University</text>
</g>
<!-- University&#45;&gt;Career -->
<g id="edge39" class="edge"><title>University&#45;&gt;Career</title>
<path fill="none" stroke="#7167e2" d="M794.316,-445.921C785.78,-432.974 775.266,-417.029 766.644,-403.951"/>
<ellipse fill="none" stroke="#7167e2" cx="796.705" cy="-449.544" rx="4.00002" ry="4.00002"/>
<polygon fill="#7167e2" stroke="#7167e2" points="766.528,-403.775 764.78,-392.95 763.776,-399.601 761.023,-395.427 761.023,-395.427 761.023,-395.427 763.776,-399.601 757.267,-397.904 766.528,-403.775 766.528,-403.775"/>
</g>
<!-- Resource&#45;&gt;ResourceProgress -->
<g id="edge40" class="edge"><title>Resource&#45;&gt;ResourceProgress</title>
<path fill="none" stroke="#36143d" d="M757.651,-138.825C750.418,-131.379 742.312,-123.035 734.921,-115.427"/>
<ellipse fill="none" stroke="#36143d" cx="760.634" cy="-141.896" rx="4.00002" ry="4.00002"/>
<polygon fill="#36143d" stroke="#36143d" points="734.795,-115.297 731.055,-104.988 731.311,-111.71 727.827,-108.124 727.827,-108.124 727.827,-108.124 731.311,-111.71 724.6,-111.259 734.795,-115.297 734.795,-115.297"/>
</g>
<!-- Task -->
<g id="node29" class="node"><title>Task</title>
<ellipse fill="none" stroke="black" cx="473.193" cy="-234" rx="32.4942" ry="18"/>
<text text-anchor="middle" x="473.193" y="-230.3" font-family="Times,serif" font-size="14.00">Task</text>
</g>
<!-- Task&#45;&gt;Question -->
<g id="edge43" class="edge"><title>Task&#45;&gt;Question</title>
<path fill="none" stroke="#737bc3" d="M491.45,-211.338C497.811,-203.791 504.993,-195.271 511.534,-187.51"/>
<ellipse fill="none" stroke="#737bc3" cx="488.865" cy="-214.406" rx="4.00002" ry="4.00002"/>
<polygon fill="#737bc3" stroke="#737bc3" points="511.868,-187.113 521.754,-182.367 515.091,-183.29 518.313,-179.467 518.313,-179.467 518.313,-179.467 515.091,-183.29 514.872,-176.567 511.868,-187.113 511.868,-187.113"/>
</g>
<!-- Task&#45;&gt;Answer -->
<g id="edge42" class="edge"><title>Task&#45;&gt;Answer</title>
<path fill="none" stroke="#e1df96" d="M468.509,-207.945C460.946,-167.483 446.103,-88.072 438.286,-46.2493"/>
<ellipse fill="none" stroke="#e1df96" cx="469.252" cy="-211.917" rx="4.00001" ry="4.00001"/>
<polygon fill="#e1df96" stroke="#e1df96" points="438.251,-46.0622 440.837,-35.4056 437.332,-41.1473 436.414,-36.2325 436.414,-36.2325 436.414,-36.2325 437.332,-41.1473 431.99,-37.0593 438.251,-46.0622 438.251,-46.0622"/>
</g>
<!-- Task&#45;&gt;Resource -->
<g id="edge41" class="edge"><title>Task&#45;&gt;Resource</title>
<path fill="none" stroke="#291286" d="M510.863,-224.383C565.575,-211.867 667.163,-188.628 728.428,-174.613"/>
<ellipse fill="none" stroke="#291286" cx="506.71" cy="-225.332" rx="4.00001" ry="4.00001"/>
<ellipse fill="#291286" stroke="#291286" cx="732.53" cy="-173.675" rx="4.00001" ry="4.00001"/>
</g>
</g>
</svg>
