<?xml version="1.0" encoding="UTF-8" standalone="no"?>
<!DOCTYPE svg PUBLIC "-//W3C//DTD SVG 1.1//EN"
 "http://www.w3.org/Graphics/SVG/1.1/DTD/svg11.dtd">
<!-- Generated by graphviz version 2.36.0 (20140111.2315)
 -->
<!-- Title: models_diagram Pages: 1 -->
<svg width="889pt" height="518pt"
 viewBox="0.00 0.00 889.00 518.00" xmlns="http://www.w3.org/2000/svg" xmlns:xlink="http://www.w3.org/1999/xlink">
<g id="graph0" class="graph" transform="scale(1 1) rotate(0) translate(4 514)">
<title>models_diagram</title>
<polygon fill="none" stroke="none" points="-4,4 -4,-514 885,-514 885,4 -4,4"/>
<!-- _diagram_info -->
<g id="node1" class="node"><title>_diagram_info</title>
<text text-anchor="start" x="8" y="-495.6" font-family="Times,serif" font-size="13.00">Models diagram</text>
<text text-anchor="start" x="8" y="-481.6" font-family="Times,serif" font-size="13.00">Date: Apr 29 2016 &#45; 20:10</text>
<text text-anchor="start" x="8" y="-467.6" font-family="Times,serif" font-size="13.00">Migration version: 20160428023020</text>
<text text-anchor="start" x="8" y="-453.6" font-family="Times,serif" font-size="13.00">Generated by RailRoady 1.4.2</text>
<text text-anchor="start" x="8" y="-439.6" font-family="Times,serif" font-size="13.00">http://railroady.prestonlee.com</text>
</g>
<!-- SubCategory -->
<g id="node2" class="node"><title>SubCategory</title>
<ellipse fill="none" stroke="black" cx="441" cy="-234" rx="56.3173" ry="18"/>
<text text-anchor="middle" x="441" y="-230.3" font-family="Times,serif" font-size="14.00">SubCategory</text>
</g>
<!-- AnsweredQuestion -->
<g id="node11" class="node"><title>AnsweredQuestion</title>
<ellipse fill="none" stroke="black" cx="351" cy="-90" rx="77.4897" ry="18"/>
<text text-anchor="middle" x="351" y="-86.3" font-family="Times,serif" font-size="14.00">AnsweredQuestion</text>
</g>
<!-- SubCategory&#45;&gt;AnsweredQuestion -->
<g id="edge3" class="edge"><title>SubCategory&#45;&gt;AnsweredQuestion</title>
<path fill="none" stroke="#18eedc" d="M424.833,-207.492C408.575,-181.84 383.642,-142.502 367.327,-116.761"/>
<polygon fill="#18eedc" stroke="#18eedc" points="424.969,-207.707 426.522,-218.562 427.646,-211.93 430.322,-216.153 430.322,-216.153 430.322,-216.153 427.646,-211.93 434.123,-213.744 424.969,-207.707 424.969,-207.707"/>
<polygon fill="#18eedc" stroke="#18eedc" points="367.298,-116.714 365.745,-105.859 364.621,-112.491 361.944,-108.268 361.944,-108.268 361.944,-108.268 364.621,-112.491 358.143,-110.677 367.298,-116.714 367.298,-116.714"/>
</g>
<!-- Question -->
<g id="node21" class="node"><title>Question</title>
<ellipse fill="none" stroke="black" cx="527" cy="-162" rx="42.3701" ry="18"/>
<text text-anchor="middle" x="527" y="-158.3" font-family="Times,serif" font-size="14.00">Question</text>
</g>
<!-- SubCategory&#45;&gt;Question -->
<g id="edge1" class="edge"><title>SubCategory&#45;&gt;Question</title>
<path fill="none" stroke="#20fb2f" d="M466.803,-211.997C477.399,-203.373 489.664,-193.39 500.346,-184.695"/>
<ellipse fill="none" stroke="#20fb2f" cx="463.617" cy="-214.591" rx="4.00002" ry="4.00002"/>
<polygon fill="#20fb2f" stroke="#20fb2f" points="500.398,-184.653 510.994,-181.83 504.276,-181.497 508.154,-178.34 508.154,-178.34 508.154,-178.34 504.276,-181.497 505.313,-174.85 500.398,-184.653 500.398,-184.653"/>
</g>
<!-- Choice -->
<g id="node23" class="node"><title>Choice</title>
<ellipse fill="none" stroke="black" cx="457" cy="-18" rx="35.6194" ry="18"/>
<text text-anchor="middle" x="457" y="-14.3" font-family="Times,serif" font-size="14.00">Choice</text>
</g>
<!-- SubCategory&#45;&gt;Choice -->
<g id="edge2" class="edge"><title>SubCategory&#45;&gt;Choice</title>
<path fill="none" stroke="#3394e9" d="M443.04,-205.712C446.11,-164.65 451.885,-87.4166 454.957,-46.3297"/>
<polygon fill="#3394e9" stroke="#3394e9" points="443.028,-205.877 437.795,-215.514 442.655,-210.863 442.282,-215.849 442.282,-215.849 442.282,-215.849 442.655,-210.863 446.77,-216.185 443.028,-205.877 443.028,-205.877"/>
<polygon fill="#3394e9" stroke="#3394e9" points="454.966,-46.2046 460.199,-36.568 455.339,-41.2185 455.712,-36.2325 455.712,-36.2325 455.712,-36.2325 455.339,-41.2185 451.224,-35.8969 454.966,-46.2046 454.966,-46.2046"/>
</g>
<!-- Tutorial -->
<g id="node3" class="node"><title>Tutorial</title>
<ellipse fill="none" stroke="black" cx="46" cy="-378" rx="38.4949" ry="18"/>
<text text-anchor="middle" x="46" y="-374.3" font-family="Times,serif" font-size="14.00">Tutorial</text>
</g>
<!-- Resource -->
<g id="node6" class="node"><title>Resource</title>
<ellipse fill="none" stroke="black" cx="46" cy="-306" rx="43.319" ry="18"/>
<text text-anchor="middle" x="46" y="-302.3" font-family="Times,serif" font-size="14.00">Resource</text>
</g>
<!-- Tutorial&#45;&gt;Resource -->
<g id="edge4" class="edge"><title>Tutorial&#45;&gt;Resource</title>
<path fill="none" stroke="#f6f700" d="M46,-351.64C46,-346.063 46,-340.132 46,-334.476"/>
<ellipse fill="none" stroke="#f6f700" cx="46" cy="-355.697" rx="4" ry="4"/>
<polygon fill="#f6f700" stroke="#f6f700" points="46.0001,-334.104 50.5,-324.104 46,-329.104 46,-324.104 46,-324.104 46,-324.104 46,-329.104 41.5,-324.104 46.0001,-334.104 46.0001,-334.104"/>
</g>
<!-- Point -->
<g id="node4" class="node"><title>Point</title>
<ellipse fill="none" stroke="black" cx="516" cy="-378" rx="29.3722" ry="18"/>
<text text-anchor="middle" x="516" y="-374.3" font-family="Times,serif" font-size="14.00">Point</text>
</g>
<!-- Career -->
<g id="node5" class="node"><title>Career</title>
<ellipse fill="none" stroke="black" cx="685" cy="-378" rx="34.1708" ry="18"/>
<text text-anchor="middle" x="685" y="-374.3" font-family="Times,serif" font-size="14.00">Career</text>
</g>
<!-- Simulator -->
<g id="node7" class="node"><title>Simulator</title>
<ellipse fill="none" stroke="black" cx="638" cy="-234" rx="46.2191" ry="18"/>
<text text-anchor="middle" x="638" y="-230.3" font-family="Times,serif" font-size="14.00">Simulator</text>
</g>
<!-- SimulatorAnsweredQuestion -->
<g id="node12" class="node"><title>SimulatorAnsweredQuestion</title>
<ellipse fill="none" stroke="black" cx="638" cy="-90" rx="113.135" ry="18"/>
<text text-anchor="middle" x="638" y="-86.3" font-family="Times,serif" font-size="14.00">SimulatorAnsweredQuestion</text>
</g>
<!-- Simulator&#45;&gt;SimulatorAnsweredQuestion -->
<g id="edge5" class="edge"><title>Simulator&#45;&gt;SimulatorAnsweredQuestion</title>
<path fill="none" stroke="#7c72b3" d="M638,-207.558C638,-182.444 638,-144.164 638,-118.393"/>
<ellipse fill="none" stroke="#7c72b3" cx="638" cy="-211.871" rx="4" ry="4"/>
<polygon fill="#7c72b3" stroke="#7c72b3" points="638,-118.189 642.5,-108.189 638,-113.189 638,-108.189 638,-108.189 638,-108.189 638,-113.189 633.5,-108.189 638,-118.189 638,-118.189"/>
</g>
<!-- Simulator&#45;&gt;Question -->
<g id="edge6" class="edge"><title>Simulator&#45;&gt;Question</title>
<path fill="none" stroke="#97bf54" d="M606.267,-212.989C591.36,-203.587 573.632,-192.407 558.725,-183.007"/>
<polygon fill="#97bf54" stroke="#97bf54" points="606.272,-212.991 612.33,-222.132 610.502,-215.659 614.731,-218.326 614.731,-218.326 614.731,-218.326 610.502,-215.659 617.131,-214.519 606.272,-212.991 606.272,-212.991"/>
<polygon fill="#97bf54" stroke="#97bf54" points="558.317,-182.749 552.259,-173.609 554.088,-180.082 549.858,-177.415 549.858,-177.415 549.858,-177.415 554.088,-180.082 547.458,-181.222 558.317,-182.749 558.317,-182.749"/>
</g>
<!-- SimulatorType -->
<g id="node8" class="node"><title>SimulatorType</title>
<ellipse fill="none" stroke="black" cx="571" cy="-306" rx="63.5411" ry="18"/>
<text text-anchor="middle" x="571" y="-302.3" font-family="Times,serif" font-size="14.00">SimulatorType</text>
</g>
<!-- SimulatorType&#45;&gt;Simulator -->
<g id="edge7" class="edge"><title>SimulatorType&#45;&gt;Simulator</title>
<path fill="none" stroke="#50e0bd" d="M592.458,-282.582C599.84,-274.869 608.122,-266.216 615.579,-258.425"/>
<ellipse fill="none" stroke="#50e0bd" cx="589.644" cy="-285.521" rx="4.00002" ry="4.00002"/>
<polygon fill="#50e0bd" stroke="#50e0bd" points="615.782,-258.212 625.948,-254.1 619.24,-254.6 622.697,-250.988 622.697,-250.988 622.697,-250.988 619.24,-254.6 619.446,-247.877 615.782,-258.212 615.782,-258.212"/>
</g>
<!-- SimulatedCategory -->
<g id="node9" class="node"><title>SimulatedCategory</title>
<ellipse fill="none" stroke="black" cx="287" cy="-234" rx="78.9404" ry="18"/>
<text text-anchor="middle" x="287" y="-230.3" font-family="Times,serif" font-size="14.00">SimulatedCategory</text>
</g>
<!-- Video -->
<g id="node10" class="node"><title>Video</title>
<ellipse fill="none" stroke="black" cx="135" cy="-378" rx="32.2457" ry="18"/>
<text text-anchor="middle" x="135" y="-374.3" font-family="Times,serif" font-size="14.00">Video</text>
</g>
<!-- Video&#45;&gt;Resource -->
<g id="edge8" class="edge"><title>Video&#45;&gt;Resource</title>
<path fill="none" stroke="#cfec71" d="M110.352,-357.614C98.4216,-348.23 84.0966,-336.964 71.9938,-327.445"/>
<ellipse fill="none" stroke="#cfec71" cx="113.845" cy="-360.362" rx="4.00002" ry="4.00002"/>
<ellipse fill="#cfec71" stroke="#cfec71" cx="68.672" cy="-324.832" rx="4.00002" ry="4.00002"/>
</g>
<!-- AnsweredQuestion&#45;&gt;Choice -->
<g id="edge9" class="edge"><title>AnsweredQuestion&#45;&gt;Choice</title>
<path fill="none" stroke="#871e05" d="M384.136,-67.1174C398.078,-57.911 414.163,-47.2889 427.667,-38.3705"/>
<polygon fill="#871e05" stroke="#871e05" points="383.93,-67.254 373.105,-69.0096 379.757,-70.0093 375.585,-72.7646 375.585,-72.7646 375.585,-72.7646 379.757,-70.0093 378.065,-76.5197 383.93,-67.254 383.93,-67.254"/>
<polygon fill="#871e05" stroke="#871e05" points="427.776,-38.2986 438.601,-36.5431 431.949,-35.5433 436.121,-32.788 436.121,-32.788 436.121,-32.788 431.949,-35.5433 433.641,-29.0329 427.776,-38.2986 427.776,-38.2986"/>
</g>
<!-- PointAction -->
<g id="node13" class="node"><title>PointAction</title>
<ellipse fill="none" stroke="black" cx="516" cy="-471" rx="52.9443" ry="18"/>
<text text-anchor="middle" x="516" y="-467.3" font-family="Times,serif" font-size="14.00">PointAction</text>
</g>
<!-- PointAction&#45;&gt;Point -->
<g id="edge10" class="edge"><title>PointAction&#45;&gt;Point</title>
<path fill="none" stroke="#898e3f" d="M516,-444.729C516,-432.725 516,-418.362 516,-406.129"/>
<ellipse fill="none" stroke="#898e3f" cx="516" cy="-448.884" rx="4" ry="4"/>
<polygon fill="#898e3f" stroke="#898e3f" points="516,-406.04 520.5,-396.04 516,-401.04 516,-396.04 516,-396.04 516,-396.04 516,-401.04 511.5,-396.04 516,-406.04 516,-406.04"/>
</g>
<!-- University -->
<g id="node14" class="node"><title>University</title>
<ellipse fill="none" stroke="black" cx="635" cy="-471" rx="48.1437" ry="18"/>
<text text-anchor="middle" x="635" y="-467.3" font-family="Times,serif" font-size="14.00">University</text>
</g>
<!-- University&#45;&gt;Career -->
<g id="edge11" class="edge"><title>University&#45;&gt;Career</title>
<path fill="none" stroke="#7aec2d" d="M648.228,-445.925C655.247,-433.15 663.871,-417.455 671.002,-404.475"/>
<ellipse fill="none" stroke="#7aec2d" cx="646.097" cy="-449.804" rx="4.00002" ry="4.00002"/>
<polygon fill="#7aec2d" stroke="#7aec2d" points="671.072,-404.349 679.831,-397.752 673.48,-399.967 675.887,-395.585 675.887,-395.585 675.887,-395.585 673.48,-399.967 671.943,-393.418 671.072,-404.349 671.072,-404.349"/>
</g>
<!-- License -->
<g id="node15" class="node"><title>License</title>
<ellipse fill="none" stroke="black" cx="729" cy="-306" rx="38.0212" ry="18"/>
<text text-anchor="middle" x="729" y="-302.3" font-family="Times,serif" font-size="14.00">License</text>
</g>
<!-- School -->
<g id="node16" class="node"><title>School</title>
<ellipse fill="none" stroke="black" cx="736" cy="-471" rx="35.1455" ry="18"/>
<text text-anchor="middle" x="736" y="-467.3" font-family="Times,serif" font-size="14.00">School</text>
</g>
<!-- School&#45;&gt;Career -->
<g id="edge12" class="edge"><title>School&#45;&gt;Career</title>
<path fill="none" stroke="#27cab0" d="M722.508,-445.925C715.348,-433.15 706.552,-417.455 699.277,-404.475"/>
<ellipse fill="none" stroke="#27cab0" cx="724.69" cy="-449.82" rx="4.00002" ry="4.00002"/>
<polygon fill="#27cab0" stroke="#27cab0" points="699.184,-404.308 698.22,-393.385 696.739,-399.947 694.295,-395.585 694.295,-395.585 694.295,-395.585 696.739,-399.947 690.369,-397.785 699.184,-404.308 699.184,-404.308"/>
</g>
<!-- LiveClass -->
<g id="node17" class="node"><title>LiveClass</title>
<ellipse fill="none" stroke="black" cx="835" cy="-471" rx="46.2191" ry="18"/>
<text text-anchor="middle" x="835" y="-467.3" font-family="Times,serif" font-size="14.00">LiveClass</text>
</g>
<!-- Category -->
<g id="node18" class="node"><title>Category</title>
<ellipse fill="none" stroke="black" cx="370" cy="-306" rx="42.3456" ry="18"/>
<text text-anchor="middle" x="370" y="-302.3" font-family="Times,serif" font-size="14.00">Category</text>
</g>
<!-- Category&#45;&gt;SubCategory -->
<g id="edge13" class="edge"><title>Category&#45;&gt;SubCategory</title>
<path fill="none" stroke="#b2c3f8" d="M392.029,-283.281C400.045,-275.378 409.137,-266.414 417.292,-258.374"/>
<ellipse fill="none" stroke="#b2c3f8" cx="388.959" cy="-286.308" rx="4.00002" ry="4.00002"/>
<polygon fill="#b2c3f8" stroke="#b2c3f8" points="417.339,-258.328 427.619,-254.511 420.9,-254.817 424.46,-251.307 424.46,-251.307 424.46,-251.307 420.9,-254.817 421.301,-248.103 417.339,-258.328 417.339,-258.328"/>
</g>
<!-- Category&#45;&gt;SimulatedCategory -->
<g id="edge15" class="edge"><title>Category&#45;&gt;SimulatedCategory</title>
<path fill="none" stroke="#a51907" d="M345.345,-284.206C335.559,-275.954 324.269,-266.432 314.242,-257.976"/>
<ellipse fill="none" stroke="#a51907" cx="348.522" cy="-286.886" rx="4.00002" ry="4.00002"/>
<polygon fill="#a51907" stroke="#a51907" points="314.17,-257.914 309.427,-248.027 310.348,-254.691 306.525,-251.467 306.525,-251.467 306.525,-251.467 310.348,-254.691 303.624,-254.907 314.17,-257.914 314.17,-257.914"/>
</g>
<!-- Category&#45;&gt;Question -->
<g id="edge14" class="edge"><title>Category&#45;&gt;Question</title>
<path fill="none" stroke="#cfaf56" d="M420.002,-297.361C449.096,-290.357 484.216,-277.066 506,-252 520.762,-235.014 525.614,-209.552 527.006,-190.208"/>
<polygon fill="#cfaf56" stroke="#cfaf56" points="419.756,-297.416 409.018,-295.192 414.875,-298.5 409.994,-299.585 409.994,-299.585 409.994,-299.585 414.875,-298.5 410.971,-303.978 419.756,-297.416 419.756,-297.416"/>
<polygon fill="#cfaf56" stroke="#cfaf56" points="527.007,-190.173 531.959,-180.389 527.235,-185.178 527.464,-180.183 527.464,-180.183 527.464,-180.183 527.235,-185.178 522.968,-179.978 527.007,-190.173 527.007,-190.173"/>
</g>
<!-- Course -->
<g id="node19" class="node"><title>Course</title>
<ellipse fill="none" stroke="black" cx="268" cy="-471" rx="35.6194" ry="18"/>
<text text-anchor="middle" x="268" y="-467.3" font-family="Times,serif" font-size="14.00">Course</text>
</g>
<!-- Course&#45;&gt;Tutorial -->
<g id="edge17" class="edge"><title>Course&#45;&gt;Tutorial</title>
<path fill="none" stroke="#5edced" d="M246.276,-448.916C239.012,-442.76 230.572,-436.488 222,-432 169.645,-404.59 150.328,-413.874 94,-396 91.0613,-395.067 88.0324,-394.074 84.9925,-393.052"/>
<ellipse fill="none" stroke="#5edced" cx="249.587" cy="-451.837" rx="4.00002" ry="4.00002"/>
<polygon fill="#5edced" stroke="#5edced" points="84.8003,-392.986 76.8039,-385.482 80.0713,-391.362 75.3424,-389.739 75.3424,-389.739 75.3424,-389.739 80.0713,-391.362 73.8809,-393.995 84.8003,-392.986 84.8003,-392.986"/>
</g>
<!-- Course&#45;&gt;Category -->
<g id="edge16" class="edge"><title>Course&#45;&gt;Category</title>
<path fill="none" stroke="#0d4f41" d="M282.785,-446.373C301.83,-415.939 334.793,-363.262 354.28,-332.121"/>
<ellipse fill="none" stroke="#0d4f41" cx="280.464" cy="-450.083" rx="4.00002" ry="4.00002"/>
<polygon fill="#0d4f41" stroke="#0d4f41" points="354.326,-332.047 363.446,-325.957 356.979,-327.809 359.631,-323.57 359.631,-323.57 359.631,-323.57 356.979,-327.809 355.816,-321.183 354.326,-332.047 354.326,-332.047"/>
</g>
<!-- User -->
<g id="node20" class="node"><title>User</title>
<ellipse fill="none" stroke="black" cx="441" cy="-378" rx="26.949" ry="18"/>
<text text-anchor="middle" x="441" y="-374.3" font-family="Times,serif" font-size="14.00">User</text>
</g>
<!-- Course&#45;&gt;User -->
<g id="edge19" class="edge"><title>Course&#45;&gt;User</title>
<path fill="none" stroke="#83a537" d="M300.61,-452.847C332.461,-436.093 380.515,-410.816 411.323,-394.61"/>
<polygon fill="#83a537" stroke="#83a537" points="300.542,-452.882 289.597,-453.555 296.117,-455.21 291.692,-457.538 291.692,-457.538 291.692,-457.538 296.117,-455.21 293.787,-461.52 300.542,-452.882 300.542,-452.882"/>
<polygon fill="#83a537" stroke="#83a537" points="411.443,-394.547 422.388,-393.875 415.868,-392.22 420.293,-389.892 420.293,-389.892 420.293,-389.892 415.868,-392.22 418.198,-385.909 411.443,-394.547 411.443,-394.547"/>
</g>
<!-- CourseUser -->
<g id="node22" class="node"><title>CourseUser</title>
<ellipse fill="none" stroke="black" cx="160" cy="-306" rx="51.4931" ry="18"/>
<text text-anchor="middle" x="160" y="-302.3" font-family="Times,serif" font-size="14.00">CourseUser</text>
</g>
<!-- Course&#45;&gt;CourseUser -->
<g id="edge18" class="edge"><title>Course&#45;&gt;CourseUser</title>
<path fill="none" stroke="#e73cb1" d="M252.563,-446.702C232.456,-416.355 197.435,-363.499 176.717,-332.231"/>
<ellipse fill="none" stroke="#e73cb1" cx="255.04" cy="-450.441" rx="4.00002" ry="4.00002"/>
<polygon fill="#e73cb1" stroke="#e73cb1" points="176.552,-331.981 174.78,-321.159 173.79,-327.813 171.028,-323.645 171.028,-323.645 171.028,-323.645 173.79,-327.813 167.277,-326.13 176.552,-331.981 176.552,-331.981"/>
</g>
<!-- User&#45;&gt;SubCategory -->
<g id="edge21" class="edge"><title>User&#45;&gt;SubCategory</title>
<path fill="none" stroke="#c79c93" d="M441,-351.558C441,-326.444 441,-288.164 441,-262.393"/>
<ellipse fill="none" stroke="#c79c93" cx="441" cy="-355.871" rx="4" ry="4"/>
<polygon fill="#c79c93" stroke="#c79c93" points="441,-262.189 445.5,-252.189 441,-257.189 441,-252.189 441,-252.189 441,-252.189 441,-257.189 436.5,-252.189 441,-262.189 441,-262.189"/>
</g>
<!-- User&#45;&gt;Simulator -->
<g id="edge23" class="edge"><title>User&#45;&gt;Simulator</title>
<path fill="none" stroke="#643faa" d="M470.049,-362.948C472.709,-361.877 475.385,-360.874 478,-360 549.183,-336.193 595.921,-382.458 643,-324 656.905,-306.734 653.683,-280.922 648.147,-261.536"/>
<ellipse fill="none" stroke="#643faa" cx="465.881" cy="-364.734" rx="4.00001" ry="4.00001"/>
<polygon fill="#643faa" stroke="#643faa" points="648.076,-261.315 649.309,-250.419 646.55,-256.554 645.024,-251.793 645.024,-251.793 645.024,-251.793 646.55,-256.554 640.739,-253.166 648.076,-261.315 648.076,-261.315"/>
</g>
<!-- User&#45;&gt;AnsweredQuestion -->
<g id="edge24" class="edge"><title>User&#45;&gt;AnsweredQuestion</title>
<path fill="none" stroke="#b7347c" d="M406.689,-371.337C350.872,-360.032 242.293,-328.795 199,-252 165.561,-192.684 251.174,-138.37 307.094,-110.535"/>
<ellipse fill="none" stroke="#b7347c" cx="410.925" cy="-372.161" rx="4.00001" ry="4.00001"/>
<polygon fill="#b7347c" stroke="#b7347c" points="307.14,-110.513 318.101,-110.183 311.636,-108.325 316.132,-106.136 316.132,-106.136 316.132,-106.136 311.636,-108.325 314.163,-102.09 307.14,-110.513 307.14,-110.513"/>
</g>
<!-- User&#45;&gt;SimulatorAnsweredQuestion -->
<g id="edge25" class="edge"><title>User&#45;&gt;SimulatorAnsweredQuestion</title>
<path fill="none" stroke="#5744ef" d="M469.247,-362.955C472.158,-361.832 475.109,-360.817 478,-360 542.189,-341.857 731.752,-373.915 776,-324 836.341,-255.93 726.641,-157.658 669.465,-113.72"/>
<ellipse fill="none" stroke="#5744ef" cx="465.39" cy="-364.575" rx="4.00002" ry="4.00002"/>
<polygon fill="#5744ef" stroke="#5744ef" points="669.409,-113.678 664.153,-104.054 665.423,-110.66 661.436,-107.642 661.436,-107.642 661.436,-107.642 665.423,-110.66 658.72,-111.23 669.409,-113.678 669.409,-113.678"/>
</g>
<!-- User&#45;&gt;License -->
<g id="edge27" class="edge"><title>User&#45;&gt;License</title>
<path fill="none" stroke="#b07ff8" d="M469.299,-363.132C472.2,-361.973 475.134,-360.902 478,-360 563.736,-333.024 589.858,-346.016 677,-324 681.66,-322.823 686.51,-321.446 691.293,-319.996"/>
<ellipse fill="none" stroke="#b07ff8" cx="465.447" cy="-364.778" rx="4.00002" ry="4.00002"/>
<ellipse fill="#b07ff8" stroke="#b07ff8" cx="695.416" cy="-318.703" rx="4.00001" ry="4.00001"/>
</g>
<!-- User&#45;&gt;Category -->
<g id="edge20" class="edge"><title>User&#45;&gt;Category</title>
<path fill="none" stroke="#b9450f" d="M420.499,-356.788C412.059,-348.467 402.233,-338.779 393.504,-330.173"/>
<ellipse fill="none" stroke="#b9450f" cx="423.44" cy="-359.688" rx="4.00002" ry="4.00002"/>
<polygon fill="#b9450f" stroke="#b9450f" points="393.299,-329.971 389.337,-319.745 389.738,-326.46 386.178,-322.95 386.178,-322.95 386.178,-322.95 389.738,-326.46 383.018,-326.154 393.299,-329.971 393.299,-329.971"/>
</g>
<!-- User&#45;&gt;Question -->
<g id="edge22" class="edge"><title>User&#45;&gt;Question</title>
<path fill="none" stroke="#5bc404" d="M454.931,-353.513C466.024,-335.254 482.251,-309.501 498,-288 510.307,-271.198 520.91,-271.583 528,-252 535.178,-232.174 534.42,-208.198 532.146,-190.128"/>
<ellipse fill="none" stroke="#5bc404" cx="452.574" cy="-357.42" rx="4.00002" ry="4.00002"/>
<polygon fill="#5bc404" stroke="#5bc404" points="532.11,-189.88 535.088,-179.327 531.373,-184.935 530.637,-179.989 530.637,-179.989 530.637,-179.989 531.373,-184.935 526.186,-180.652 532.11,-189.88 532.11,-189.88"/>
</g>
<!-- User&#45;&gt;CourseUser -->
<g id="edge26" class="edge"><title>User&#45;&gt;CourseUser</title>
<path fill="none" stroke="#4b5c49" d="M407.825,-368.935C365.568,-358.637 290.305,-340.207 226,-324 220.765,-322.681 215.3,-321.292 209.853,-319.9"/>
<ellipse fill="none" stroke="#4b5c49" cx="411.937" cy="-369.937" rx="4.00001" ry="4.00001"/>
<polygon fill="#4b5c49" stroke="#4b5c49" points="209.807,-319.888 201.238,-313.046 204.964,-318.647 200.121,-317.405 200.121,-317.405 200.121,-317.405 204.964,-318.647 199.003,-321.764 209.807,-319.888 209.807,-319.888"/>
</g>
<!-- Question&#45;&gt;AnsweredQuestion -->
<g id="edge29" class="edge"><title>Question&#45;&gt;AnsweredQuestion</title>
<path fill="none" stroke="#15a009" d="M489.446,-146.064C462.653,-135.408 426.441,-121.005 397.771,-109.602"/>
<ellipse fill="none" stroke="#15a009" cx="493.427" cy="-147.647" rx="4.00001" ry="4.00001"/>
<polygon fill="#15a009" stroke="#15a009" points="397.654,-109.556 390.025,-101.679 393.008,-107.708 388.362,-105.86 388.362,-105.86 388.362,-105.86 393.008,-107.708 386.699,-110.041 397.654,-109.556 397.654,-109.556"/>
</g>
<!-- Question&#45;&gt;SimulatorAnsweredQuestion -->
<g id="edge30" class="edge"><title>Question&#45;&gt;SimulatorAnsweredQuestion</title>
<path fill="none" stroke="#06ecb3" d="M556.795,-142.21C571.129,-133.171 588.398,-122.281 603.319,-112.871"/>
<ellipse fill="none" stroke="#06ecb3" cx="553.114" cy="-144.532" rx="4.00002" ry="4.00002"/>
<polygon fill="#06ecb3" stroke="#06ecb3" points="603.335,-112.861 614.194,-111.333 607.564,-110.194 611.793,-107.527 611.793,-107.527 611.793,-107.527 607.564,-110.194 609.393,-103.72 603.335,-112.861 603.335,-112.861"/>
</g>
<!-- Question&#45;&gt;Choice -->
<g id="edge28" class="edge"><title>Question&#45;&gt;Choice</title>
<path fill="none" stroke="#b5928b" d="M515.132,-136.925C502.518,-111.336 482.645,-71.0229 469.717,-44.7966"/>
<ellipse fill="none" stroke="#b5928b" cx="516.927" cy="-140.565" rx="4.00002" ry="4.00002"/>
<polygon fill="#b5928b" stroke="#b5928b" points="469.716,-44.7944 469.33,-33.8353 467.505,-40.3097 465.294,-35.825 465.294,-35.825 465.294,-35.825 467.505,-40.3097 461.258,-37.8147 469.716,-44.7944 469.716,-44.7944"/>
</g>
</g>
</svg>
