<?xml version="1.0" encoding="UTF-8" standalone="no"?>
<!DOCTYPE svg PUBLIC "-//W3C//DTD SVG 1.1//EN"
 "http://www.w3.org/Graphics/SVG/1.1/DTD/svg11.dtd">
<!-- Generated by graphviz version 2.38.0 (20140413.2041)
 -->
<!-- Title: models_diagram Pages: 1 -->
<svg width="1602pt" height="590pt"
 viewBox="0.00 0.00 1601.50 590.00" xmlns="http://www.w3.org/2000/svg" xmlns:xlink="http://www.w3.org/1999/xlink">
<g id="graph0" class="graph" transform="scale(1 1) rotate(0) translate(4 586)">
<title>models_diagram</title>
<polygon fill="none" stroke="none" points="-4,4 -4,-586 1597.5,-586 1597.5,4 -4,4"/>
<!-- _diagram_info -->
<g id="node1" class="node"><title>_diagram_info</title>
<text text-anchor="start" x="289.361" y="-567.6" font-family="Times,serif" font-size="13.00">Models diagram</text>
<text text-anchor="start" x="289.361" y="-553.6" font-family="Times,serif" font-size="13.00">Date: Jun 16 2016 &#45; 18:15</text>
<text text-anchor="start" x="289.361" y="-539.6" font-family="Times,serif" font-size="13.00">Migration version: 20160614025321</text>
<text text-anchor="start" x="289.361" y="-525.6" font-family="Times,serif" font-size="13.00">Generated by RailRoady 1.4.2</text>
<text text-anchor="start" x="289.361" y="-511.6" font-family="Times,serif" font-size="13.00">http://railroady.prestonlee.com</text>
</g>
<!-- Course -->
<g id="node2" class="node"><title>Course</title>
<ellipse fill="none" stroke="black" cx="575.361" cy="-543" rx="42.4939" ry="18"/>
<text text-anchor="middle" x="575.361" y="-539.3" font-family="Times,serif" font-size="14.00">Course</text>
</g>
<!-- Category -->
<g id="node5" class="node"><title>Category</title>
<ellipse fill="none" stroke="black" cx="654.361" cy="-378" rx="53.8905" ry="18"/>
<text text-anchor="middle" x="654.361" y="-374.3" font-family="Times,serif" font-size="14.00">Category</text>
</g>
<!-- Course&#45;&gt;Category -->
<g id="edge1" class="edge"><title>Course&#45;&gt;Category</title>
<path fill="none" stroke="#02a59d" d="M587.158,-517.66C601.772,-487.507 626.576,-436.329 641.615,-405.298"/>
<ellipse fill="none" stroke="#02a59d" cx="585.262" cy="-521.571" rx="4.00002" ry="4.00002"/>
<polygon fill="#02a59d" stroke="#02a59d" points="641.769,-404.981 650.18,-397.945 643.949,-400.482 646.13,-395.983 646.13,-395.983 646.13,-395.983 643.949,-400.482 642.081,-394.02 641.769,-404.981 641.769,-404.981"/>
</g>
<!-- User -->
<g id="node9" class="node"><title>User</title>
<ellipse fill="none" stroke="black" cx="950.361" cy="-450" rx="32.4942" ry="18"/>
<text text-anchor="middle" x="950.361" y="-446.3" font-family="Times,serif" font-size="14.00">User</text>
</g>
<!-- Course&#45;&gt;User -->
<g id="edge4" class="edge"><title>Course&#45;&gt;User</title>
<path fill="none" stroke="#a52040" d="M619.572,-529.708C647.537,-522.047 684.486,-512.135 717.361,-504 784.938,-487.279 864.037,-469.706 910.516,-459.583"/>
<polygon fill="#a52040" stroke="#a52040" points="619.342,-529.771 608.507,-528.082 614.521,-531.096 609.7,-532.421 609.7,-532.421 609.7,-532.421 614.521,-531.096 610.892,-536.76 619.342,-529.771 619.342,-529.771"/>
<polygon fill="#a52040" stroke="#a52040" points="910.711,-459.54 921.439,-461.815 915.597,-458.479 920.483,-457.417 920.483,-457.417 920.483,-457.417 915.597,-458.479 919.528,-453.02 910.711,-459.54 910.711,-459.54"/>
</g>
<!-- Test -->
<g id="node17" class="node"><title>Test</title>
<ellipse fill="none" stroke="black" cx="61.3609" cy="-378" rx="31.6951" ry="18"/>
<text text-anchor="middle" x="61.3609" y="-374.3" font-family="Times,serif" font-size="14.00">Test</text>
</g>
<!-- Course&#45;&gt;Test -->
<g id="edge5" class="edge"><title>Course&#45;&gt;Test</title>
<path fill="none" stroke="#622942" d="M552.344,-520.581C544.106,-514.134 534.369,-507.774 524.361,-504 431.738,-469.07 154.738,-533.324 80.3609,-468 63.1539,-452.887 59.3412,-426.356 59.2712,-406.181"/>
<ellipse fill="none" stroke="#622942" cx="555.795" cy="-523.421" rx="4.00002" ry="4.00002"/>
<polygon fill="#622942" stroke="#622942" points="59.2754,-406.02 64.0386,-396.142 59.4078,-401.021 59.5401,-396.023 59.5401,-396.023 59.5401,-396.023 59.4078,-401.021 55.0417,-395.904 59.2754,-406.02 59.2754,-406.02"/>
</g>
<!-- CourseUser -->
<g id="node27" class="node"><title>CourseUser</title>
<ellipse fill="none" stroke="black" cx="518.361" cy="-378" rx="63.8893" ry="18"/>
<text text-anchor="middle" x="518.361" y="-374.3" font-family="Times,serif" font-size="14.00">CourseUser</text>
</g>
<!-- Course&#45;&gt;CourseUser -->
<g id="edge3" class="edge"><title>Course&#45;&gt;CourseUser</title>
<path fill="none" stroke="#934ba5" d="M574.215,-516.767C572.439,-493.872 567.91,-459.581 556.361,-432 552.229,-422.131 545.969,-412.326 539.716,-403.883"/>
<ellipse fill="none" stroke="#934ba5" cx="574.5" cy="-520.955" rx="4" ry="4"/>
<polygon fill="#934ba5" stroke="#934ba5" points="539.68,-403.837 537.097,-393.18 536.612,-399.889 533.544,-395.941 533.544,-395.941 533.544,-395.941 536.612,-399.889 529.991,-398.703 539.68,-403.837 539.68,-403.837"/>
</g>
<!-- Section -->
<g id="node28" class="node"><title>Section</title>
<ellipse fill="none" stroke="black" cx="502.361" cy="-450" rx="45.4919" ry="18"/>
<text text-anchor="middle" x="502.361" y="-446.3" font-family="Times,serif" font-size="14.00">Section</text>
</g>
<!-- Course&#45;&gt;Section -->
<g id="edge2" class="edge"><title>Course&#45;&gt;Section</title>
<path fill="none" stroke="#9cab01" d="M557.053,-519.177C546.358,-505.845 532.863,-489.024 521.955,-475.425"/>
<ellipse fill="none" stroke="#9cab01" cx="559.807" cy="-522.611" rx="4.00002" ry="4.00002"/>
<polygon fill="#9cab01" stroke="#9cab01" points="521.802,-475.235 519.055,-464.619 518.674,-471.335 515.545,-467.435 515.545,-467.435 515.545,-467.435 518.674,-471.335 512.035,-470.251 521.802,-475.235 521.802,-475.235"/>
</g>
<!-- License -->
<g id="node3" class="node"><title>License</title>
<ellipse fill="none" stroke="black" cx="1305.36" cy="-378" rx="45.4919" ry="18"/>
<text text-anchor="middle" x="1305.36" y="-374.3" font-family="Times,serif" font-size="14.00">License</text>
</g>
<!-- Tutorial -->
<g id="node4" class="node"><title>Tutorial</title>
<ellipse fill="none" stroke="black" cx="299.361" cy="-450" rx="48.9926" ry="18"/>
<text text-anchor="middle" x="299.361" y="-446.3" font-family="Times,serif" font-size="14.00">Tutorial</text>
</g>
<!-- Resource -->
<g id="node31" class="node"><title>Resource</title>
<ellipse fill="none" stroke="black" cx="325.361" cy="-378" rx="53.0913" ry="18"/>
<text text-anchor="middle" x="325.361" y="-374.3" font-family="Times,serif" font-size="14.00">Resource</text>
</g>
<!-- Tutorial&#45;&gt;Resource -->
<g id="edge6" class="edge"><title>Tutorial&#45;&gt;Resource</title>
<path fill="none" stroke="#305853" d="M308.443,-424.548C310.662,-418.574 313.049,-412.148 315.31,-406.061"/>
<ellipse fill="none" stroke="#305853" cx="307.048" cy="-428.305" rx="4.00001" ry="4.00001"/>
<polygon fill="#305853" stroke="#305853" points="315.462,-405.65 323.163,-397.842 317.203,-400.962 318.944,-396.275 318.944,-396.275 318.944,-396.275 317.203,-400.962 314.726,-394.708 315.462,-405.65 315.462,-405.65"/>
</g>
<!-- SubCategory -->
<g id="node6" class="node"><title>SubCategory</title>
<ellipse fill="none" stroke="black" cx="1043.36" cy="-306" rx="70.6878" ry="18"/>
<text text-anchor="middle" x="1043.36" y="-302.3" font-family="Times,serif" font-size="14.00">SubCategory</text>
</g>
<!-- Category&#45;&gt;SubCategory -->
<g id="edge7" class="edge"><title>Category&#45;&gt;SubCategory</title>
<path fill="none" stroke="#f78162" d="M701.953,-363.605C707.135,-362.312 712.346,-361.081 717.361,-360 765,-349.728 893.101,-329.731 973.81,-317.451"/>
<ellipse fill="none" stroke="#f78162" cx="697.741" cy="-364.684" rx="4.00001" ry="4.00001"/>
<polygon fill="#f78162" stroke="#f78162" points="974.009,-317.421 984.572,-320.369 978.953,-316.67 983.896,-315.92 983.896,-315.92 983.896,-315.92 978.953,-316.67 983.22,-311.471 974.009,-317.421 974.009,-317.421"/>
</g>
<!-- Question -->
<g id="node11" class="node"><title>Question</title>
<ellipse fill="none" stroke="black" cx="638.361" cy="-234" rx="51.9908" ry="18"/>
<text text-anchor="middle" x="638.361" y="-230.3" font-family="Times,serif" font-size="14.00">Question</text>
</g>
<!-- Category&#45;&gt;Question -->
<g id="edge8" class="edge"><title>Category&#45;&gt;Question</title>
<path fill="none" stroke="#dfb0c7" d="M611.36,-358.959C596.928,-350.58 582.455,-339.072 574.361,-324 566.791,-309.904 567.552,-302.479 574.361,-288 580.536,-274.869 591.739,-263.874 603.065,-255.364"/>
<polygon fill="#dfb0c7" stroke="#dfb0c7" points="611.483,-359.025 618.145,-367.735 615.883,-361.4 620.283,-363.775 620.283,-363.775 620.283,-363.775 615.883,-361.4 622.42,-359.815 611.483,-359.025 611.483,-359.025"/>
<polygon fill="#dfb0c7" stroke="#dfb0c7" points="603.078,-255.355 613.849,-253.296 607.171,-252.484 611.265,-249.612 611.265,-249.612 611.265,-249.612 607.171,-252.484 608.68,-245.928 603.078,-255.355 603.078,-255.355"/>
</g>
<!-- SimulatedCategory -->
<g id="node21" class="node"><title>SimulatedCategory</title>
<ellipse fill="none" stroke="black" cx="684.361" cy="-306" rx="100.983" ry="18"/>
<text text-anchor="middle" x="684.361" y="-302.3" font-family="Times,serif" font-size="14.00">SimulatedCategory</text>
</g>
<!-- Category&#45;&gt;SimulatedCategory -->
<g id="edge9" class="edge"><title>Category&#45;&gt;SimulatedCategory</title>
<path fill="none" stroke="#a68472" d="M664.841,-352.548C667.463,-346.428 670.289,-339.835 672.954,-333.616"/>
<ellipse fill="none" stroke="#a68472" cx="663.199" cy="-356.378" rx="4.00002" ry="4.00002"/>
<polygon fill="#a68472" stroke="#a68472" points="673.018,-333.467 681.093,-326.048 674.988,-328.871 676.957,-324.275 676.957,-324.275 676.957,-324.275 674.988,-328.871 672.821,-322.503 673.018,-333.467 673.018,-333.467"/>
</g>
<!-- Choice -->
<g id="node8" class="node"><title>Choice</title>
<ellipse fill="none" stroke="black" cx="825.361" cy="-90" rx="40.0939" ry="18"/>
<text text-anchor="middle" x="825.361" y="-86.3" font-family="Times,serif" font-size="14.00">Choice</text>
</g>
<!-- SubCategory&#45;&gt;Choice -->
<g id="edge11" class="edge"><title>SubCategory&#45;&gt;Choice</title>
<path fill="none" stroke="#c5435b" d="M1036.52,-277.828C1026.29,-242.429 1003.74,-180.736 963.361,-144 937.888,-120.827 901.206,-107.385 872.063,-99.84"/>
<polygon fill="#c5435b" stroke="#c5435b" points="1036.64,-278.274 1034.97,-289.111 1037.97,-283.093 1039.31,-287.913 1039.31,-287.913 1039.31,-287.913 1037.97,-283.093 1043.64,-286.714 1036.64,-278.274 1036.64,-278.274"/>
<polygon fill="#c5435b" stroke="#c5435b" points="871.816,-99.7797 863.166,-93.0389 866.958,-98.5953 862.1,-97.4109 862.1,-97.4109 862.1,-97.4109 866.958,-98.5953 861.034,-101.783 871.816,-99.7797 871.816,-99.7797"/>
</g>
<!-- AnsweredQuestion -->
<g id="node10" class="node"><title>AnsweredQuestion</title>
<ellipse fill="none" stroke="black" cx="1107.36" cy="-162" rx="97.4827" ry="18"/>
<text text-anchor="middle" x="1107.36" y="-158.3" font-family="Times,serif" font-size="14.00">AnsweredQuestion</text>
</g>
<!-- SubCategory&#45;&gt;AnsweredQuestion -->
<g id="edge12" class="edge"><title>SubCategory&#45;&gt;AnsweredQuestion</title>
<path fill="none" stroke="#8f9f48" d="M1055.33,-278.436C1066.78,-253.043 1083.94,-214.969 1095.38,-189.573"/>
<polygon fill="#8f9f48" stroke="#8f9f48" points="1055.19,-278.755 1046.98,-286.022 1053.14,-283.313 1051.08,-287.871 1051.08,-287.871 1051.08,-287.871 1053.14,-283.313 1055.18,-289.721 1055.19,-278.755 1055.19,-278.755"/>
<polygon fill="#8f9f48" stroke="#8f9f48" points="1095.5,-189.306 1103.72,-182.038 1097.56,-184.748 1099.61,-180.189 1099.61,-180.189 1099.61,-180.189 1097.56,-184.748 1095.51,-178.34 1095.5,-189.306 1095.5,-189.306"/>
</g>
<!-- SubCategory&#45;&gt;Question -->
<g id="edge10" class="edge"><title>SubCategory&#45;&gt;Question</title>
<path fill="none" stroke="#78f22a" d="M978.579,-293.803C899.807,-280.188 768.196,-257.441 693.869,-244.594"/>
<ellipse fill="none" stroke="#78f22a" cx="982.679" cy="-294.512" rx="4.00001" ry="4.00001"/>
<polygon fill="#78f22a" stroke="#78f22a" points="693.626,-244.552 684.539,-238.415 688.699,-243.701 683.772,-242.849 683.772,-242.849 683.772,-242.849 688.699,-243.701 683.006,-247.283 693.626,-244.552 693.626,-244.552"/>
</g>
<!-- CourseTestUser -->
<g id="node7" class="node"><title>CourseTestUser</title>
<ellipse fill="none" stroke="black" cx="234.361" cy="-306" rx="85.2851" ry="18"/>
<text text-anchor="middle" x="234.361" y="-302.3" font-family="Times,serif" font-size="14.00">CourseTestUser</text>
</g>
<!-- Answer -->
<g id="node15" class="node"><title>Answer</title>
<ellipse fill="none" stroke="black" cx="600.361" cy="-18" rx="46.2923" ry="18"/>
<text text-anchor="middle" x="600.361" y="-14.3" font-family="Times,serif" font-size="14.00">Answer</text>
</g>
<!-- Choice&#45;&gt;Answer -->
<g id="edge13" class="edge"><title>Choice&#45;&gt;Answer</title>
<path fill="none" stroke="#006c4b" d="M785.471,-76.5897C746.153,-64.3576 686.177,-45.6984 645.222,-32.9568"/>
<ellipse fill="none" stroke="#006c4b" cx="789.304" cy="-77.7824" rx="4.00001" ry="4.00001"/>
<polygon fill="#006c4b" stroke="#006c4b" points="645.05,-32.9034 636.839,-25.6358 640.276,-31.4181 635.502,-29.9327 635.502,-29.9327 635.502,-29.9327 640.276,-31.4181 634.165,-34.2296 645.05,-32.9034 645.05,-32.9034"/>
</g>
<!-- User&#45;&gt;License -->
<g id="edge21" class="edge"><title>User&#45;&gt;License</title>
<path fill="none" stroke="#8ac7ea" d="M982.478,-435.082C985.779,-433.929 989.113,-432.873 992.361,-432 1102.47,-402.391 1134.86,-419.842 1246.36,-396 1251.75,-394.847 1257.38,-393.465 1262.92,-391.995"/>
<ellipse fill="none" stroke="#8ac7ea" cx="978.639" cy="-436.512" rx="4.00001" ry="4.00001"/>
<ellipse fill="#8ac7ea" stroke="#8ac7ea" cx="1267.08" cy="-390.853" rx="4.00001" ry="4.00001"/>
</g>
<!-- User&#45;&gt;Category -->
<g id="edge14" class="edge"><title>User&#45;&gt;Category</title>
<path fill="none" stroke="#7c7fc3" d="M912.54,-440.883C866.354,-430.859 785.914,-413.039 717.361,-396 713.217,-394.97 708.929,-393.875 704.627,-392.756"/>
<ellipse fill="none" stroke="#7c7fc3" cx="916.569" cy="-441.756" rx="4.00001" ry="4.00001"/>
<polygon fill="#7c7fc3" stroke="#7c7fc3" points="704.299,-392.67 695.775,-385.771 699.464,-391.396 694.629,-390.122 694.629,-390.122 694.629,-390.122 699.464,-391.396 693.482,-394.474 704.299,-392.67 704.299,-392.67"/>
</g>
<!-- User&#45;&gt;SubCategory -->
<g id="edge15" class="edge"><title>User&#45;&gt;SubCategory</title>
<path fill="none" stroke="#7c4552" d="M965.496,-425.891C982.306,-400.224 1009.36,-358.916 1026.74,-332.371"/>
<ellipse fill="none" stroke="#7c4552" cx="963.221" cy="-429.365" rx="4.00002" ry="4.00002"/>
<polygon fill="#7c4552" stroke="#7c4552" points="1026.76,-332.344 1036.01,-326.444 1029.5,-328.161 1032.24,-323.979 1032.24,-323.979 1032.24,-323.979 1029.5,-328.161 1028.48,-321.513 1026.76,-332.344 1026.76,-332.344"/>
</g>
<!-- User&#45;&gt;AnsweredQuestion -->
<g id="edge17" class="edge"><title>User&#45;&gt;AnsweredQuestion</title>
<path fill="none" stroke="#67f3ce" d="M979.508,-432.41C1024.62,-406.049 1107.78,-354.472 1123.36,-324 1145.38,-280.935 1130.54,-222.965 1118.46,-189.623"/>
<ellipse fill="none" stroke="#67f3ce" cx="975.805" cy="-434.561" rx="4.00002" ry="4.00002"/>
<polygon fill="#67f3ce" stroke="#67f3ce" points="1118.4,-189.458 1119.05,-178.512 1116.62,-184.784 1114.85,-180.11 1114.85,-180.11 1114.85,-180.11 1116.62,-184.784 1110.64,-181.709 1118.4,-189.458 1118.4,-189.458"/>
</g>
<!-- User&#45;&gt;Answer -->
<g id="edge20" class="edge"><title>User&#45;&gt;Answer</title>
<path fill="none" stroke="#ca1ca6" d="M983.44,-435.448C1018.02,-421.239 1068.5,-400.373 1077.36,-396 1148.6,-360.856 1232.36,-386.438 1232.36,-307 1232.36,-307 1232.36,-307 1232.36,-161 1232.36,-43.5791 811.819,-23.2367 656.832,-19.7268"/>
<ellipse fill="none" stroke="#ca1ca6" cx="979.591" cy="-437.028" rx="4.00001" ry="4.00001"/>
<polygon fill="#ca1ca6" stroke="#ca1ca6" points="656.575,-19.7215 646.672,-15.0116 651.576,-19.616 646.577,-19.5106 646.577,-19.5106 646.577,-19.5106 651.576,-19.616 646.482,-24.0096 656.575,-19.7215 656.575,-19.7215"/>
</g>
<!-- SimulatorAnsweredQuestion -->
<g id="node22" class="node"><title>SimulatorAnsweredQuestion</title>
<ellipse fill="none" stroke="black" cx="810.361" cy="-162" rx="143.775" ry="18"/>
<text text-anchor="middle" x="810.361" y="-158.3" font-family="Times,serif" font-size="14.00">SimulatorAnsweredQuestion</text>
</g>
<!-- User&#45;&gt;SimulatorAnsweredQuestion -->
<g id="edge18" class="edge"><title>User&#45;&gt;SimulatorAnsweredQuestion</title>
<path fill="none" stroke="#3ee079" d="M950.881,-423.388C950.571,-390.446 946.659,-332.214 925.361,-288 905.529,-246.83 867.566,-209.699 840.691,-186.803"/>
<ellipse fill="none" stroke="#3ee079" cx="950.884" cy="-427.586" rx="4" ry="4"/>
<polygon fill="#3ee079" stroke="#3ee079" points="840.416,-186.573 835.622,-176.711 836.577,-183.369 832.739,-180.166 832.739,-180.166 832.739,-180.166 836.577,-183.369 829.855,-183.62 840.416,-186.573 840.416,-186.573"/>
</g>
<!-- Simulator -->
<g id="node24" class="node"><title>Simulator</title>
<ellipse fill="none" stroke="black" cx="859.361" cy="-306" rx="56.59" ry="18"/>
<text text-anchor="middle" x="859.361" y="-302.3" font-family="Times,serif" font-size="14.00">Simulator</text>
</g>
<!-- User&#45;&gt;Simulator -->
<g id="edge16" class="edge"><title>User&#45;&gt;Simulator</title>
<path fill="none" stroke="#ea7f3a" d="M935.454,-425.714C923.957,-407.756 907.656,-382.303 893.361,-360 887.581,-350.983 881.246,-341.106 875.627,-332.347"/>
<ellipse fill="none" stroke="#ea7f3a" cx="937.911" cy="-429.551" rx="4.00002" ry="4.00002"/>
<polygon fill="#ea7f3a" stroke="#ea7f3a" points="875.484,-332.124 873.871,-321.277 872.783,-327.915 870.083,-323.707 870.083,-323.707 870.083,-323.707 872.783,-327.915 866.296,-326.137 875.484,-332.124 875.484,-332.124"/>
</g>
<!-- User&#45;&gt;CourseUser -->
<g id="edge19" class="edge"><title>User&#45;&gt;CourseUser</title>
<path fill="none" stroke="#a21fdd" d="M910.897,-444.253C844.606,-436.037 706.81,-417.926 591.361,-396 586.008,-394.983 580.452,-393.844 574.904,-392.65"/>
<ellipse fill="none" stroke="#a21fdd" cx="915.033" cy="-444.762" rx="4.00001" ry="4.00001"/>
<polygon fill="#a21fdd" stroke="#a21fdd" points="574.736,-392.613 565.942,-386.062 569.854,-391.535 564.971,-390.456 564.971,-390.456 564.971,-390.456 569.854,-391.535 564.001,-394.85 574.736,-392.613 574.736,-392.613"/>
</g>
<!-- AnsweredQuestion&#45;&gt;Choice -->
<g id="edge22" class="edge"><title>AnsweredQuestion&#45;&gt;Choice</title>
<path fill="none" stroke="#826f83" d="M1041.66,-144.692C988.655,-131.534 915.556,-113.389 869.378,-101.926"/>
<polygon fill="#826f83" stroke="#826f83" points="1041.94,-144.761 1050.56,-151.538 1046.79,-145.966 1051.65,-147.17 1051.65,-147.17 1051.65,-147.17 1046.79,-145.966 1052.73,-142.803 1041.94,-144.761 1041.94,-144.761"/>
<polygon fill="#826f83" stroke="#826f83" points="869.372,-101.925 860.751,-95.1481 864.519,-100.72 859.667,-99.5156 859.667,-99.5156 859.667,-99.5156 864.519,-100.72 858.582,-103.883 869.372,-101.925 869.372,-101.925"/>
</g>
<!-- Question&#45;&gt;Choice -->
<g id="edge24" class="edge"><title>Question&#45;&gt;Choice</title>
<path fill="none" stroke="#740b58" d="M637.262,-207.769C637.781,-188.059 641.716,-161.211 657.361,-144 687.259,-111.109 737.357,-98.4814 775.082,-93.7105"/>
<ellipse fill="none" stroke="#740b58" cx="637.246" cy="-211.996" rx="4" ry="4"/>
<polygon fill="#740b58" stroke="#740b58" points="775.43,-93.6718 785.867,-97.0351 780.399,-93.1173 785.368,-92.5628 785.368,-92.5628 785.368,-92.5628 780.399,-93.1173 784.869,-88.0906 775.43,-93.6718 775.43,-93.6718"/>
</g>
<!-- Question&#45;&gt;AnsweredQuestion -->
<g id="edge25" class="edge"><title>Question&#45;&gt;AnsweredQuestion</title>
<path fill="none" stroke="#289d26" d="M692.966,-224.85C774.488,-212.683 928.636,-189.675 1024.21,-175.41"/>
<ellipse fill="none" stroke="#289d26" cx="689.001" cy="-225.442" rx="4.00001" ry="4.00001"/>
<polygon fill="#289d26" stroke="#289d26" points="1024.25,-175.405 1034.8,-178.38 1029.19,-174.667 1034.14,-173.929 1034.14,-173.929 1034.14,-173.929 1029.19,-174.667 1033.47,-169.478 1024.25,-175.405 1024.25,-175.405"/>
</g>
<!-- Question&#45;&gt;Question -->
<g id="edge27" class="edge"><title>Question&#45;&gt;Question</title>
<path fill="none" stroke="#6d002f" d="M682.598,-247.498C696.951,-247.398 708.356,-242.899 708.356,-234 708.356,-225.513 697.983,-221.028 684.572,-220.544"/>
<ellipse fill="none" stroke="#6d002f" cx="678.37" cy="-247.294" rx="4" ry="4"/>
<polygon fill="#6d002f" stroke="#6d002f" points="684.369,-220.551 674.218,-216.402 679.372,-220.725 674.375,-220.899 674.375,-220.899 674.375,-220.899 679.372,-220.725 674.532,-225.396 684.369,-220.551 684.369,-220.551"/>
</g>
<!-- Question&#45;&gt;Answer -->
<g id="edge23" class="edge"><title>Question&#45;&gt;Answer</title>
<path fill="none" stroke="#6e5de5" d="M633.912,-207.945C626.727,-167.483 612.626,-88.072 605.2,-46.2493"/>
<ellipse fill="none" stroke="#6e5de5" cx="634.616" cy="-211.911" rx="4.00001" ry="4.00001"/>
<polygon fill="#6e5de5" stroke="#6e5de5" points="605.169,-46.0784 607.852,-35.4457 604.295,-41.1554 603.421,-36.2325 603.421,-36.2325 603.421,-36.2325 604.295,-41.1554 598.99,-37.0192 605.169,-46.0784 605.169,-46.0784"/>
</g>
<!-- Question&#45;&gt;SimulatorAnsweredQuestion -->
<g id="edge26" class="edge"><title>Question&#45;&gt;SimulatorAnsweredQuestion</title>
<path fill="none" stroke="#3e815f" d="M678.258,-216.763C702.886,-206.74 734.675,-193.803 760.897,-183.131"/>
<ellipse fill="none" stroke="#3e815f" cx="674.418" cy="-218.326" rx="4.00001" ry="4.00001"/>
<polygon fill="#3e815f" stroke="#3e815f" points="761.02,-183.081 771.978,-183.479 765.651,-181.196 770.282,-179.311 770.282,-179.311 770.282,-179.311 765.651,-181.196 768.586,-175.143 761.02,-183.081 761.02,-183.081"/>
</g>
<!-- LiveClass -->
<g id="node12" class="node"><title>LiveClass</title>
<ellipse fill="none" stroke="black" cx="780.361" cy="-543" rx="53.8905" ry="18"/>
<text text-anchor="middle" x="780.361" y="-539.3" font-family="Times,serif" font-size="14.00">LiveClass</text>
</g>
<!-- Career -->
<g id="node13" class="node"><title>Career</title>
<ellipse fill="none" stroke="black" cx="1043.36" cy="-450" rx="42.4939" ry="18"/>
<text text-anchor="middle" x="1043.36" y="-446.3" font-family="Times,serif" font-size="14.00">Career</text>
</g>
<!-- Video -->
<g id="node14" class="node"><title>Video</title>
<ellipse fill="none" stroke="black" cx="402.361" cy="-450" rx="36.2938" ry="18"/>
<text text-anchor="middle" x="402.361" y="-446.3" font-family="Times,serif" font-size="14.00">Video</text>
</g>
<!-- Video&#45;&gt;Resource -->
<g id="edge28" class="edge"><title>Video&#45;&gt;Resource</title>
<path fill="none" stroke="#02c0b0" d="M379.461,-428.182C369.92,-419.509 358.841,-409.437 349.203,-400.675"/>
<ellipse fill="none" stroke="#02c0b0" cx="382.693" cy="-431.12" rx="4.00002" ry="4.00002"/>
<ellipse fill="#02c0b0" stroke="#02c0b0" cx="346.068" cy="-397.824" rx="4.00002" ry="4.00002"/>
</g>
<!-- Point -->
<g id="node16" class="node"><title>Point</title>
<ellipse fill="none" stroke="black" cx="1247.36" cy="-450" rx="35.194" ry="18"/>
<text text-anchor="middle" x="1247.36" y="-446.3" font-family="Times,serif" font-size="14.00">Point</text>
</g>
<!-- Test&#45;&gt;CourseTestUser -->
<g id="edge31" class="edge"><title>Test&#45;&gt;CourseTestUser</title>
<path fill="none" stroke="#b580a6" d="M94.0059,-363.791C120.374,-353.122 157.83,-337.966 187.418,-325.994"/>
<ellipse fill="none" stroke="#b580a6" cx="90.2246" cy="-365.321" rx="4.00001" ry="4.00001"/>
<polygon fill="#b580a6" stroke="#b580a6" points="187.453,-325.98 198.411,-326.401 192.088,-324.105 196.723,-322.229 196.723,-322.229 196.723,-322.229 192.088,-324.105 195.035,-318.058 187.453,-325.98 187.453,-325.98"/>
</g>
<!-- Test&#45;&gt;Question -->
<g id="edge29" class="edge"><title>Test&#45;&gt;Question</title>
<path fill="none" stroke="#371f38" d="M67.1588,-352.159C73.3994,-331.386 85.5131,-302.839 107.361,-288 145.463,-262.121 444.796,-244.466 576.511,-237.874"/>
<ellipse fill="none" stroke="#371f38" cx="66.0521" cy="-356.118" rx="4.00001" ry="4.00001"/>
<polygon fill="#371f38" stroke="#371f38" points="576.847,-237.858 587.057,-241.858 581.841,-237.611 586.835,-237.363 586.835,-237.363 586.835,-237.363 581.841,-237.611 586.612,-232.869 576.847,-237.858 576.847,-237.858"/>
</g>
<!-- Test&#45;&gt;Answer -->
<g id="edge30" class="edge"><title>Test&#45;&gt;Answer</title>
<path fill="none" stroke="#b425c8" d="M56.8054,-351.878C52.0758,-323.574 45.3609,-276.144 45.3609,-235 45.3609,-235 45.3609,-235 45.3609,-161 45.3609,-58.7549 403.358,-29.1492 544.306,-21.4553"/>
<ellipse fill="none" stroke="#b425c8" cx="57.5245" cy="-356.078" rx="4.00001" ry="4.00001"/>
<polygon fill="#b425c8" stroke="#b425c8" points="544.485,-21.4459 554.708,-25.4117 549.478,-21.182 554.471,-20.918 554.471,-20.918 554.471,-20.918 549.478,-21.182 554.233,-16.4243 544.485,-21.4459 544.485,-21.4459"/>
</g>
<!-- Blog -->
<g id="node18" class="node"><title>Blog</title>
<ellipse fill="none" stroke="black" cx="202.361" cy="-450" rx="30.5947" ry="18"/>
<text text-anchor="middle" x="202.361" y="-446.3" font-family="Times,serif" font-size="14.00">Blog</text>
</g>
<!-- Blog&#45;&gt;Resource -->
<g id="edge32" class="edge"><title>Blog&#45;&gt;Resource</title>
<path fill="none" stroke="#5082ed" d="M230.507,-432.982C248.877,-422.527 272.94,-408.833 292.232,-397.854"/>
<ellipse fill="none" stroke="#5082ed" cx="226.982" cy="-434.988" rx="4.00002" ry="4.00002"/>
<ellipse fill="#5082ed" stroke="#5082ed" cx="295.894" cy="-395.77" rx="4.00002" ry="4.00002"/>
</g>
<!-- School -->
<g id="node19" class="node"><title>School</title>
<ellipse fill="none" stroke="black" cx="983.361" cy="-543" rx="40.0939" ry="18"/>
<text text-anchor="middle" x="983.361" y="-539.3" font-family="Times,serif" font-size="14.00">School</text>
</g>
<!-- School&#45;&gt;Career -->
<g id="edge33" class="edge"><title>School&#45;&gt;Career</title>
<path fill="none" stroke="#c7dbc9" d="M998.95,-518.357C1007.49,-505.409 1018.07,-489.363 1026.76,-476.18"/>
<ellipse fill="none" stroke="#c7dbc9" cx="996.568" cy="-521.97" rx="4.00002" ry="4.00002"/>
<polygon fill="#c7dbc9" stroke="#c7dbc9" points="1026.92,-475.934 1036.18,-470.062 1029.67,-471.759 1032.43,-467.585 1032.43,-467.585 1032.43,-467.585 1029.67,-471.759 1028.67,-465.108 1026.92,-475.934 1026.92,-475.934"/>
</g>
<!-- Student -->
<g id="node20" class="node"><title>Student</title>
<polygon fill="none" stroke="black" stroke-dasharray="1,5" points="1405.36,-561 1331.36,-561 1331.36,-525 1405.36,-525 1405.36,-561"/>
<text text-anchor="middle" x="1368.36" y="-539.3" font-family="Times,serif" font-size="14.00">Student</text>
</g>
<!-- CourseUserTest -->
<g id="node23" class="node"><title>CourseUserTest</title>
<ellipse fill="none" stroke="black" cx="1508.36" cy="-543" rx="85.2851" ry="18"/>
<text text-anchor="middle" x="1508.36" y="-539.3" font-family="Times,serif" font-size="14.00">CourseUserTest</text>
</g>
<!-- Simulator&#45;&gt;Question -->
<g id="edge35" class="edge"><title>Simulator&#45;&gt;Question</title>
<path fill="none" stroke="#7298da" d="M811.126,-289.722C773.628,-277.845 721.928,-261.469 684.875,-249.733"/>
<polygon fill="#7298da" stroke="#7298da" points="811.332,-289.787 819.507,-297.097 816.099,-291.297 820.866,-292.807 820.866,-292.807 820.866,-292.807 816.099,-291.297 822.224,-288.517 811.332,-289.787 811.332,-289.787"/>
<polygon fill="#7298da" stroke="#7298da" points="684.846,-249.724 676.671,-242.414 680.079,-248.214 675.312,-246.704 675.312,-246.704 675.312,-246.704 680.079,-248.214 673.954,-250.994 684.846,-249.724 684.846,-249.724"/>
</g>
<!-- Simulator&#45;&gt;SimulatorAnsweredQuestion -->
<g id="edge34" class="edge"><title>Simulator&#45;&gt;SimulatorAnsweredQuestion</title>
<path fill="none" stroke="#b9406a" d="M850.837,-280.297C842.11,-255.006 828.588,-215.82 819.607,-189.794"/>
<ellipse fill="none" stroke="#b9406a" cx="852.146" cy="-284.09" rx="4.00001" ry="4.00001"/>
<polygon fill="#b9406a" stroke="#b9406a" points="819.554,-189.642 820.546,-178.721 817.923,-184.916 816.292,-180.189 816.292,-180.189 816.292,-180.189 817.923,-184.916 812.039,-181.657 819.554,-189.642 819.554,-189.642"/>
</g>
<!-- PointAction -->
<g id="node25" class="node"><title>PointAction</title>
<ellipse fill="none" stroke="black" cx="1247.36" cy="-543" rx="65.7887" ry="18"/>
<text text-anchor="middle" x="1247.36" y="-539.3" font-family="Times,serif" font-size="14.00">PointAction</text>
</g>
<!-- PointAction&#45;&gt;Point -->
<g id="edge36" class="edge"><title>PointAction&#45;&gt;Point</title>
<path fill="none" stroke="#b45aea" d="M1247.36,-516.729C1247.36,-504.725 1247.36,-490.362 1247.36,-478.129"/>
<ellipse fill="none" stroke="#b45aea" cx="1247.36" cy="-520.884" rx="4" ry="4"/>
<polygon fill="#b45aea" stroke="#b45aea" points="1247.36,-478.04 1251.86,-468.04 1247.36,-473.04 1247.36,-468.04 1247.36,-468.04 1247.36,-468.04 1247.36,-473.04 1242.86,-468.04 1247.36,-478.04 1247.36,-478.04"/>
</g>
<!-- ResourceProgress -->
<g id="node26" class="node"><title>ResourceProgress</title>
<ellipse fill="none" stroke="black" cx="432.361" cy="-306" rx="94.7833" ry="18"/>
<text text-anchor="middle" x="432.361" y="-302.3" font-family="Times,serif" font-size="14.00">ResourceProgress</text>
</g>
<!-- CourseUser&#45;&gt;CourseTestUser -->
<g id="edge38" class="edge"><title>CourseUser&#45;&gt;CourseTestUser</title>
<path fill="none" stroke="#2c4b9a" d="M464.187,-363.647C416.693,-351.941 347.616,-334.915 297.603,-322.588"/>
<ellipse fill="none" stroke="#2c4b9a" cx="468.216" cy="-364.64" rx="4.00001" ry="4.00001"/>
<polygon fill="#2c4b9a" stroke="#2c4b9a" points="297.576,-322.581 288.943,-315.819 292.721,-321.385 287.866,-320.188 287.866,-320.188 287.866,-320.188 292.721,-321.385 286.789,-324.557 297.576,-322.581 297.576,-322.581"/>
</g>
<!-- CourseUser&#45;&gt;ResourceProgress -->
<g id="edge37" class="edge"><title>CourseUser&#45;&gt;ResourceProgress</title>
<path fill="none" stroke="#7a53d9" d="M492.052,-355.586C482.096,-347.482 470.726,-338.228 460.6,-329.985"/>
<ellipse fill="none" stroke="#7a53d9" cx="495.312" cy="-358.24" rx="4.00002" ry="4.00002"/>
<polygon fill="#7a53d9" stroke="#7a53d9" points="460.552,-329.946 455.637,-320.143 456.674,-326.79 452.796,-323.633 452.796,-323.633 452.796,-323.633 456.674,-326.79 449.955,-327.123 460.552,-329.946 460.552,-329.946"/>
</g>
<!-- Section&#45;&gt;ResourceProgress -->
<g id="edge40" class="edge"><title>Section&#45;&gt;ResourceProgress</title>
<path fill="none" stroke="#f3f81c" d="M473.689,-429.005C463.106,-420.125 452.07,-408.781 445.361,-396 435.35,-376.93 432.353,-352.573 431.718,-334.162"/>
<ellipse fill="none" stroke="#f3f81c" cx="477.056" cy="-431.704" rx="4.00002" ry="4.00002"/>
<polygon fill="#f3f81c" stroke="#f3f81c" points="431.717,-334.094 436.081,-324.034 431.649,-329.094 431.581,-324.095 431.581,-324.095 431.581,-324.095 431.649,-329.094 427.082,-324.156 431.717,-334.094 431.717,-334.094"/>
</g>
<!-- Section&#45;&gt;Resource -->
<g id="edge39" class="edge"><title>Section&#45;&gt;Resource</title>
<path fill="none" stroke="#2c851e" d="M463.432,-433.604C435.257,-422.462 397.189,-407.407 368.161,-395.927"/>
<ellipse fill="none" stroke="#2c851e" cx="467.405" cy="-435.175" rx="4.00001" ry="4.00001"/>
<polygon fill="#2c851e" stroke="#2c851e" points="367.99,-395.859 360.346,-387.997 363.34,-394.02 358.691,-392.181 358.691,-392.181 358.691,-392.181 363.34,-394.02 357.036,-396.366 367.99,-395.859 367.99,-395.859"/>
</g>
<!-- SimulatorType -->
<g id="node29" class="node"><title>SimulatorType</title>
<ellipse fill="none" stroke="black" cx="805.361" cy="-378" rx="79.0865" ry="18"/>
<text text-anchor="middle" x="805.361" y="-374.3" font-family="Times,serif" font-size="14.00">SimulatorType</text>
</g>
<!-- SimulatorType&#45;&gt;Simulator -->
<g id="edge41" class="edge"><title>SimulatorType&#45;&gt;Simulator</title>
<path fill="none" stroke="#ada0ed" d="M823.442,-353.562C828.85,-346.552 834.795,-338.844 840.266,-331.753"/>
<ellipse fill="none" stroke="#ada0ed" cx="820.876" cy="-356.888" rx="4.00002" ry="4.00002"/>
<polygon fill="#ada0ed" stroke="#ada0ed" points="840.301,-331.707 849.972,-326.538 843.355,-327.748 846.409,-323.789 846.409,-323.789 846.409,-323.789 843.355,-327.748 842.846,-321.04 840.301,-331.707 840.301,-331.707"/>
</g>
<!-- University -->
<g id="node30" class="node"><title>University</title>
<ellipse fill="none" stroke="black" cx="1102.36" cy="-543" rx="61.1893" ry="18"/>
<text text-anchor="middle" x="1102.36" y="-539.3" font-family="Times,serif" font-size="14.00">University</text>
</g>
<!-- University&#45;&gt;Career -->
<g id="edge42" class="edge"><title>University&#45;&gt;Career</title>
<path fill="none" stroke="#d6a11c" d="M1086.75,-517.921C1078.36,-504.974 1068.02,-489.029 1059.54,-475.951"/>
<ellipse fill="none" stroke="#d6a11c" cx="1089.09" cy="-521.527" rx="4.00002" ry="4.00002"/>
<polygon fill="#d6a11c" stroke="#d6a11c" points="1059.45,-475.817 1057.79,-464.979 1056.73,-471.622 1054.01,-467.427 1054.01,-467.427 1054.01,-467.427 1056.73,-471.622 1050.24,-469.875 1059.45,-475.817 1059.45,-475.817"/>
</g>
<!-- Resource&#45;&gt;ResourceProgress -->
<g id="edge43" class="edge"><title>Resource&#45;&gt;ResourceProgress</title>
<path fill="none" stroke="#4c1c6c" d="M355.566,-357.239C368.898,-348.517 384.629,-338.227 398.37,-329.237"/>
<ellipse fill="none" stroke="#4c1c6c" cx="352.19" cy="-359.448" rx="4.00002" ry="4.00002"/>
<polygon fill="#4c1c6c" stroke="#4c1c6c" points="398.699,-329.022 409.531,-327.313 402.883,-326.285 407.067,-323.547 407.067,-323.547 407.067,-323.547 402.883,-326.285 404.603,-319.782 398.699,-329.022 398.699,-329.022"/>
</g>
<!-- Task -->
<g id="node32" class="node"><title>Task</title>
<ellipse fill="none" stroke="black" cx="121.361" cy="-450" rx="32.4942" ry="18"/>
<text text-anchor="middle" x="121.361" y="-446.3" font-family="Times,serif" font-size="14.00">Task</text>
</g>
<!-- Task&#45;&gt;Question -->
<g id="edge46" class="edge"><title>Task&#45;&gt;Question</title>
<path fill="none" stroke="#dbbe81" d="M115.823,-424.037C109.553,-388.456 104.413,-323.539 140.361,-288 170.845,-257.863 449.885,-242.706 576.448,-237.334"/>
<ellipse fill="none" stroke="#dbbe81" cx="116.587" cy="-428.069" rx="4.00001" ry="4.00001"/>
<polygon fill="#dbbe81" stroke="#dbbe81" points="576.76,-237.321 586.939,-241.4 581.756,-237.112 586.752,-236.904 586.752,-236.904 586.752,-236.904 581.756,-237.112 586.564,-232.408 576.76,-237.321 576.76,-237.321"/>
</g>
<!-- Task&#45;&gt;Answer -->
<g id="edge45" class="edge"><title>Task&#45;&gt;Answer</title>
<path fill="none" stroke="#b20a66" d="M84.6945,-438.53C62.798,-430.409 36.2419,-416.937 20.3609,-396 -4.08269,-363.775 1.3609,-347.447 1.3609,-307 1.3609,-307 1.3609,-307 1.3609,-161 1.3609,-105.373 39.2045,-96.0552 89.3609,-72 168.596,-33.9985 428.616,-23.0971 544.161,-20.0916"/>
<ellipse fill="none" stroke="#b20a66" cx="88.749" cy="-439.956" rx="4.00001" ry="4.00001"/>
<polygon fill="#b20a66" stroke="#b20a66" points="544.222,-20.0901 554.331,-24.3391 549.22,-19.9653 554.219,-19.8405 554.219,-19.8405 554.219,-19.8405 549.22,-19.9653 554.106,-15.3419 544.222,-20.0901 544.222,-20.0901"/>
</g>
<!-- Task&#45;&gt;Resource -->
<g id="edge44" class="edge"><title>Task&#45;&gt;Resource</title>
<path fill="none" stroke="#aec0a3" d="M153.887,-435.241C156.742,-434.116 159.596,-433.021 162.361,-432 201.384,-417.591 246.393,-403.115 279.215,-392.941"/>
<ellipse fill="none" stroke="#aec0a3" cx="150.101" cy="-436.764" rx="4.00001" ry="4.00001"/>
<ellipse fill="#aec0a3" stroke="#aec0a3" cx="283.042" cy="-391.759" rx="4.00001" ry="4.00001"/>
</g>
</g>
</svg>
