<?xml version="1.0" encoding="UTF-8" standalone="no"?>
<!DOCTYPE svg PUBLIC "-//W3C//DTD SVG 1.1//EN"
 "http://www.w3.org/Graphics/SVG/1.1/DTD/svg11.dtd">
<!-- Generated by graphviz version 2.38.0 (20140413.2041)
 -->
<!-- Title: models_diagram Pages: 1 -->
<svg width="1074pt" height="446pt"
 viewBox="0.00 0.00 1073.71 446.00" xmlns="http://www.w3.org/2000/svg" xmlns:xlink="http://www.w3.org/1999/xlink">
<g id="graph0" class="graph" transform="scale(1 1) rotate(0) translate(4 442)">
<title>models_diagram</title>
<polygon fill="none" stroke="none" points="-4,4 -4,-442 1069.71,-442 1069.71,4 -4,4"/>
<!-- _diagram_info -->
<g id="node1" class="node"><title>_diagram_info</title>
<text text-anchor="start" x="115.712" y="-423.6" font-family="Times,serif" font-size="13.00">Models diagram</text>
<text text-anchor="start" x="115.712" y="-409.6" font-family="Times,serif" font-size="13.00">Date: Sep 01 2016 &#45; 15:13</text>
<text text-anchor="start" x="115.712" y="-395.6" font-family="Times,serif" font-size="13.00">Migration version: 20160809193501</text>
<text text-anchor="start" x="115.712" y="-381.6" font-family="Times,serif" font-size="13.00">Generated by RailRoady 1.5.1</text>
<text text-anchor="start" x="115.712" y="-367.6" font-family="Times,serif" font-size="13.00">http://railroady.prestonlee.com</text>
</g>
<!-- Course -->
<g id="node2" class="node"><title>Course</title>
<ellipse fill="none" stroke="black" cx="401.712" cy="-399" rx="42.4939" ry="18"/>
<text text-anchor="middle" x="401.712" y="-395.3" font-family="Times,serif" font-size="14.00">Course</text>
</g>
<!-- Category -->
<g id="node4" class="node"><title>Category</title>
<ellipse fill="none" stroke="black" cx="199.712" cy="-306" rx="53.8905" ry="18"/>
<text text-anchor="middle" x="199.712" y="-302.3" font-family="Times,serif" font-size="14.00">Category</text>
</g>
<!-- Course&#45;&gt;Category -->
<g id="edge1" class="edge"><title>Course&#45;&gt;Category</title>
<path fill="none" stroke="#38e7bf" d="M377.235,-377.415C369.136,-371.259 359.851,-364.862 350.712,-360 318.98,-343.117 280.755,-329.762 250.705,-320.681"/>
<ellipse fill="none" stroke="#38e7bf" cx="380.577" cy="-380.027" rx="4.00002" ry="4.00002"/>
<polygon fill="#38e7bf" stroke="#38e7bf" points="250.438,-320.602 242.125,-313.451 245.643,-319.184 240.849,-317.766 240.849,-317.766 240.849,-317.766 245.643,-319.184 239.573,-322.082 250.438,-320.602 250.438,-320.602"/>
</g>
<!-- User -->
<g id="node8" class="node"><title>User</title>
<ellipse fill="none" stroke="black" cx="406.712" cy="-234" rx="32.4942" ry="18"/>
<text text-anchor="middle" x="406.712" y="-230.3" font-family="Times,serif" font-size="14.00">User</text>
</g>
<!-- Course&#45;&gt;User -->
<g id="edge4" class="edge"><title>Course&#45;&gt;User</title>
<path fill="none" stroke="#85e1b5" d="M402.547,-370.791C403.467,-340.795 404.939,-292.803 405.865,-262.638"/>
<polygon fill="#85e1b5" stroke="#85e1b5" points="402.545,-370.869 397.74,-380.726 402.391,-375.867 402.238,-380.864 402.238,-380.864 402.238,-380.864 402.391,-375.867 406.736,-381.002 402.545,-370.869 402.545,-370.869"/>
<polygon fill="#85e1b5" stroke="#85e1b5" points="405.872,-262.392 410.677,-252.535 406.026,-257.394 406.179,-252.397 406.179,-252.397 406.179,-252.397 406.026,-257.394 401.681,-252.259 405.872,-262.392 405.872,-262.392"/>
</g>
<!-- LiveClass -->
<g id="node10" class="node"><title>LiveClass</title>
<ellipse fill="none" stroke="black" cx="325.712" cy="-306" rx="53.8905" ry="18"/>
<text text-anchor="middle" x="325.712" y="-302.3" font-family="Times,serif" font-size="14.00">LiveClass</text>
</g>
<!-- Course&#45;&gt;LiveClass -->
<g id="edge6" class="edge"><title>Course&#45;&gt;LiveClass</title>
<path fill="none" stroke="#52dbf2" d="M382.652,-375.177C371.097,-361.342 356.404,-343.749 344.838,-329.9"/>
<ellipse fill="none" stroke="#52dbf2" cx="385.561" cy="-378.661" rx="4.00002" ry="4.00002"/>
<ellipse fill="#52dbf2" stroke="#52dbf2" cx="342.002" cy="-326.505" rx="4.00002" ry="4.00002"/>
</g>
<!-- Test -->
<g id="node16" class="node"><title>Test</title>
<ellipse fill="none" stroke="black" cx="32.7125" cy="-234" rx="31.6951" ry="18"/>
<text text-anchor="middle" x="32.7125" y="-230.3" font-family="Times,serif" font-size="14.00">Test</text>
</g>
<!-- Course&#45;&gt;Test -->
<g id="edge5" class="edge"><title>Course&#45;&gt;Test</title>
<path fill="none" stroke="#6424b0" d="M378.497,-377.075C370.245,-370.663 360.55,-364.2 350.712,-360 262.011,-322.13 224.086,-364.841 136.712,-324 103.114,-308.295 71.8302,-278.663 52.5251,-257.92"/>
<ellipse fill="none" stroke="#6424b0" cx="381.954" cy="-379.878" rx="4.00002" ry="4.00002"/>
<polygon fill="#6424b0" stroke="#6424b0" points="52.4618,-257.851 49.0617,-247.425 49.0973,-254.152 45.7329,-250.453 45.7329,-250.453 45.7329,-250.453 49.0973,-254.152 42.404,-253.481 52.4618,-257.851 52.4618,-257.851"/>
</g>
<!-- CourseUser -->
<g id="node23" class="node"><title>CourseUser</title>
<ellipse fill="none" stroke="black" cx="459.712" cy="-162" rx="63.8893" ry="18"/>
<text text-anchor="middle" x="459.712" y="-158.3" font-family="Times,serif" font-size="14.00">CourseUser</text>
</g>
<!-- Course&#45;&gt;CourseUser -->
<g id="edge3" class="edge"><title>Course&#45;&gt;CourseUser</title>
<path fill="none" stroke="#b543c5" d="M410.799,-373.648C421.177,-344.944 437.975,-295.623 447.712,-252 452.269,-231.586 455.346,-208.126 457.242,-190.419"/>
<ellipse fill="none" stroke="#b543c5" cx="409.424" cy="-377.417" rx="4.00001" ry="4.00001"/>
<polygon fill="#b543c5" stroke="#b543c5" points="457.267,-190.165 462.75,-180.668 457.77,-185.19 458.273,-180.216 458.273,-180.216 458.273,-180.216 457.77,-185.19 453.795,-179.763 457.267,-190.165 457.267,-190.165"/>
</g>
<!-- Section -->
<g id="node24" class="node"><title>Section</title>
<ellipse fill="none" stroke="black" cx="768.712" cy="-234" rx="45.4919" ry="18"/>
<text text-anchor="middle" x="768.712" y="-230.3" font-family="Times,serif" font-size="14.00">Section</text>
</g>
<!-- Course&#45;&gt;Section -->
<g id="edge2" class="edge"><title>Course&#45;&gt;Section</title>
<path fill="none" stroke="#b12641" d="M428.439,-378.268C436.528,-372.351 445.455,-365.874 453.712,-360 499.522,-327.412 506.277,-310.691 557.712,-288 623.211,-259.105 645.627,-270.763 714.712,-252 718.087,-251.083 721.567,-250.093 725.057,-249.068"/>
<ellipse fill="none" stroke="#b12641" cx="425.101" cy="-380.716" rx="4.00002" ry="4.00002"/>
<polygon fill="#b12641" stroke="#b12641" points="725.269,-249.004 736.143,-250.424 730.056,-247.56 734.843,-246.115 734.843,-246.115 734.843,-246.115 730.056,-247.56 733.543,-241.807 725.269,-249.004 725.269,-249.004"/>
</g>
<!-- Tutorial -->
<g id="node3" class="node"><title>Tutorial</title>
<ellipse fill="none" stroke="black" cx="589.712" cy="-162" rx="48.9926" ry="18"/>
<text text-anchor="middle" x="589.712" y="-158.3" font-family="Times,serif" font-size="14.00">Tutorial</text>
</g>
<!-- SubCategory -->
<g id="node5" class="node"><title>SubCategory</title>
<ellipse fill="none" stroke="black" cx="201.712" cy="-234" rx="70.6878" ry="18"/>
<text text-anchor="middle" x="201.712" y="-230.3" font-family="Times,serif" font-size="14.00">SubCategory</text>
</g>
<!-- Category&#45;&gt;SubCategory -->
<g id="edge7" class="edge"><title>Category&#45;&gt;SubCategory</title>
<path fill="none" stroke="#db14cf" d="M200.437,-279.64C200.596,-274.063 200.766,-268.132 200.927,-262.476"/>
<ellipse fill="none" stroke="#db14cf" cx="200.321" cy="-283.698" rx="4" ry="4"/>
<polygon fill="#db14cf" stroke="#db14cf" points="200.938,-262.1 205.722,-252.233 201.081,-257.102 201.224,-252.104 201.224,-252.104 201.224,-252.104 201.081,-257.102 196.726,-251.976 200.938,-262.1 200.938,-262.1"/>
</g>
<!-- Question -->
<g id="node9" class="node"><title>Question</title>
<ellipse fill="none" stroke="black" cx="102.712" cy="-162" rx="51.9908" ry="18"/>
<text text-anchor="middle" x="102.712" y="-158.3" font-family="Times,serif" font-size="14.00">Question</text>
</g>
<!-- Category&#45;&gt;Question -->
<g id="edge8" class="edge"><title>Category&#45;&gt;Question</title>
<path fill="none" stroke="#d6158a" d="M159.664,-285.918C145.691,-277.384 131.157,-266.041 121.712,-252 109.418,-233.723 104.88,-208.958 103.296,-190.192"/>
<polygon fill="#d6158a" stroke="#d6158a" points="160.038,-286.133 166.462,-295.021 164.372,-288.627 168.706,-291.121 168.706,-291.121 168.706,-291.121 164.372,-288.627 170.95,-287.22 160.038,-286.133 160.038,-286.133"/>
<polygon fill="#d6158a" stroke="#d6158a" points="103.295,-190.178 107.17,-179.919 102.987,-185.187 102.678,-180.197 102.678,-180.197 102.678,-180.197 102.987,-185.187 98.187,-180.474 103.295,-190.178 103.295,-190.178"/>
</g>
<!-- SubCategory&#45;&gt;Tutorial -->
<g id="edge11" class="edge"><title>SubCategory&#45;&gt;Tutorial</title>
<path fill="none" stroke="#407117" d="M261.718,-219.96C268.782,-218.557 275.899,-217.204 282.712,-216 393.256,-196.461 423.074,-204.107 532.712,-180 536.573,-179.151 540.554,-178.176 544.533,-177.131"/>
<ellipse fill="none" stroke="#407117" cx="257.391" cy="-220.833" rx="4.00001" ry="4.00001"/>
<polygon fill="#407117" stroke="#407117" points="544.708,-177.083 555.545,-178.762 549.528,-175.753 554.348,-174.424 554.348,-174.424 554.348,-174.424 549.528,-175.753 553.151,-170.086 544.708,-177.083 544.708,-177.083"/>
</g>
<!-- Choice -->
<g id="node7" class="node"><title>Choice</title>
<ellipse fill="none" stroke="black" cx="73.7125" cy="-90" rx="40.0939" ry="18"/>
<text text-anchor="middle" x="73.7125" y="-86.3" font-family="Times,serif" font-size="14.00">Choice</text>
</g>
<!-- SubCategory&#45;&gt;Choice -->
<g id="edge10" class="edge"><title>SubCategory&#45;&gt;Choice</title>
<path fill="none" stroke="#8f42ab" d="M201.58,-205.566C200.154,-186.485 195.468,-161.44 181.712,-144 172.497,-132.316 140.077,-117.217 113.142,-106.126"/>
<polygon fill="#8f42ab" stroke="#8f42ab" points="201.589,-205.75 197.585,-215.959 201.834,-210.744 202.08,-215.738 202.08,-215.738 202.08,-215.738 201.834,-210.744 206.575,-215.517 201.589,-205.75 201.589,-205.75"/>
<polygon fill="#8f42ab" stroke="#8f42ab" points="112.79,-105.984 105.206,-98.063 108.154,-104.109 103.519,-102.235 103.519,-102.235 103.519,-102.235 108.154,-104.109 101.832,-106.407 112.79,-105.984 112.79,-105.984"/>
</g>
<!-- SubCategory&#45;&gt;Question -->
<g id="edge9" class="edge"><title>SubCategory&#45;&gt;Question</title>
<path fill="none" stroke="#e36664" d="M171.979,-211.976C159.583,-203.211 145.208,-193.047 132.777,-184.258"/>
<ellipse fill="none" stroke="#e36664" cx="175.485" cy="-214.455" rx="4.00002" ry="4.00002"/>
<polygon fill="#e36664" stroke="#e36664" points="132.695,-184.2 127.128,-174.752 128.613,-181.313 124.53,-178.427 124.53,-178.427 124.53,-178.427 128.613,-181.313 121.932,-182.101 132.695,-184.2 132.695,-184.2"/>
</g>
<!-- Plan -->
<g id="node6" class="node"><title>Plan</title>
<ellipse fill="none" stroke="black" cx="464.712" cy="-90" rx="30.5947" ry="18"/>
<text text-anchor="middle" x="464.712" y="-86.3" font-family="Times,serif" font-size="14.00">Plan</text>
</g>
<!-- Plan&#45;&gt;CourseUser -->
<g id="edge13" class="edge"><title>Plan&#45;&gt;CourseUser</title>
<path fill="none" stroke="#8c3970" d="M469.363,-118.355C469.194,-123.499 468.806,-128.873 468.231,-134.005"/>
<polygon fill="#8c3970" stroke="#8c3970" points="469.363,-118.275 473.891,-108.288 469.377,-113.275 469.391,-108.275 469.391,-108.275 469.391,-108.275 469.377,-113.275 464.891,-108.263 469.363,-118.275 469.363,-118.275"/>
<polygon fill="#8c3970" stroke="#8c3970" points="468.21,-134.155 462.346,-143.421 467.506,-139.105 466.801,-144.055 466.801,-144.055 466.801,-144.055 467.506,-139.105 471.256,-144.689 468.21,-134.155 468.21,-134.155"/>
</g>
<!-- CourseUserPlan -->
<g id="node25" class="node"><title>CourseUserPlan</title>
<ellipse fill="none" stroke="black" cx="434.712" cy="-18" rx="83.3857" ry="18"/>
<text text-anchor="middle" x="434.712" y="-14.3" font-family="Times,serif" font-size="14.00">CourseUserPlan</text>
</g>
<!-- Plan&#45;&gt;CourseUserPlan -->
<g id="edge12" class="edge"><title>Plan&#45;&gt;CourseUserPlan</title>
<path fill="none" stroke="#33e89a" d="M454.332,-64.7779C451.66,-58.544 448.772,-51.8046 446.054,-45.4634"/>
<ellipse fill="none" stroke="#33e89a" cx="456.027" cy="-68.7344" rx="4.00002" ry="4.00002"/>
<polygon fill="#33e89a" stroke="#33e89a" points="445.919,-45.1477 446.116,-34.1835 443.949,-40.5519 441.979,-35.9562 441.979,-35.9562 441.979,-35.9562 443.949,-40.5519 437.843,-37.7289 445.919,-45.1477 445.919,-45.1477"/>
</g>
<!-- Answer -->
<g id="node14" class="node"><title>Answer</title>
<ellipse fill="none" stroke="black" cx="144.712" cy="-18" rx="46.2923" ry="18"/>
<text text-anchor="middle" x="144.712" y="-14.3" font-family="Times,serif" font-size="14.00">Answer</text>
</g>
<!-- Choice&#45;&gt;Answer -->
<g id="edge14" class="edge"><title>Choice&#45;&gt;Answer</title>
<path fill="none" stroke="#66e0db" d="M95.7418,-67.2809C103.758,-59.3781 112.849,-50.4145 121.004,-42.3743"/>
<ellipse fill="none" stroke="#66e0db" cx="92.6719" cy="-70.3076" rx="4.00002" ry="4.00002"/>
<polygon fill="#66e0db" stroke="#66e0db" points="121.051,-42.3278 131.332,-38.5115 124.612,-38.8174 128.173,-35.307 128.173,-35.307 128.173,-35.307 124.612,-38.8174 125.013,-32.1025 121.051,-42.3278 121.051,-42.3278"/>
</g>
<!-- User&#45;&gt;Answer -->
<g id="edge16" class="edge"><title>User&#45;&gt;Answer</title>
<path fill="none" stroke="#54c855" d="M397.036,-208.734C379.861,-166.144 344.812,-81.5259 333.712,-72 296.522,-40.0822 241.471,-27.2993 200.364,-22.2252"/>
<ellipse fill="none" stroke="#54c855" cx="398.533" cy="-212.459" rx="4.00002" ry="4.00002"/>
<polygon fill="#54c855" stroke="#54c855" points="200.17,-22.2038 190.731,-16.6221 195.201,-21.6491 190.232,-21.0944 190.232,-21.0944 190.232,-21.0944 195.201,-21.6491 189.733,-25.5666 200.17,-22.2038 200.17,-22.2038"/>
</g>
<!-- User&#45;&gt;CourseUser -->
<g id="edge15" class="edge"><title>User&#45;&gt;CourseUser</title>
<path fill="none" stroke="#cb430a" d="M423.742,-210.509C429.169,-203.341 435.206,-195.367 440.761,-188.03"/>
<ellipse fill="none" stroke="#cb430a" cx="421.154" cy="-213.927" rx="4.00002" ry="4.00002"/>
<polygon fill="#cb430a" stroke="#cb430a" points="440.958,-187.77 450.582,-182.514 443.976,-183.784 446.995,-179.797 446.995,-179.797 446.995,-179.797 443.976,-183.784 443.407,-177.081 440.958,-187.77 440.958,-187.77"/>
</g>
<!-- Question&#45;&gt;Choice -->
<g id="edge18" class="edge"><title>Question&#45;&gt;Choice</title>
<path fill="none" stroke="#3602a3" d="M92.5337,-136.431C89.9583,-130.214 87.1827,-123.514 84.5749,-117.22"/>
<ellipse fill="none" stroke="#3602a3" cx="94.1614" cy="-140.36" rx="4.00001" ry="4.00001"/>
<polygon fill="#3602a3" stroke="#3602a3" points="84.4954,-117.028 84.8253,-106.067 82.5817,-112.408 80.6679,-107.789 80.6679,-107.789 80.6679,-107.789 82.5817,-112.408 76.5106,-109.511 84.4954,-117.028 84.4954,-117.028"/>
</g>
<!-- Question&#45;&gt;Question -->
<g id="edge19" class="edge"><title>Question&#45;&gt;Question</title>
<path fill="none" stroke="#4e4733" d="M146.95,-175.498C161.303,-175.398 172.708,-170.899 172.708,-162 172.708,-153.513 162.334,-149.028 148.923,-148.544"/>
<ellipse fill="none" stroke="#4e4733" cx="142.722" cy="-175.294" rx="4" ry="4"/>
<polygon fill="#4e4733" stroke="#4e4733" points="148.72,-148.551 138.57,-144.402 143.724,-148.725 138.727,-148.899 138.727,-148.899 138.727,-148.899 143.724,-148.725 138.883,-153.396 148.72,-148.551 148.72,-148.551"/>
</g>
<!-- Question&#45;&gt;Answer -->
<g id="edge17" class="edge"><title>Question&#45;&gt;Answer</title>
<path fill="none" stroke="#9661f1" d="M62.7055,-143.871C47.9999,-135.373 32.9426,-123.543 24.7125,-108 17.2251,-93.86 15.9783,-85.4057 24.7125,-72 39.8588,-48.7526 67.7658,-35.6287 92.8578,-28.2577"/>
<ellipse fill="none" stroke="#9661f1" cx="66.3534" cy="-145.861" rx="4.00002" ry="4.00002"/>
<polygon fill="#9661f1" stroke="#9661f1" points="93.0091,-28.217 103.835,-29.9614 97.8371,-26.9166 102.665,-25.6163 102.665,-25.6163 102.665,-25.6163 97.8371,-26.9166 101.495,-21.2711 93.0091,-28.217 93.0091,-28.217"/>
</g>
<!-- Career -->
<g id="node11" class="node"><title>Career</title>
<ellipse fill="none" stroke="black" cx="608.712" cy="-306" rx="42.4939" ry="18"/>
<text text-anchor="middle" x="608.712" y="-302.3" font-family="Times,serif" font-size="14.00">Career</text>
</g>
<!-- EventType -->
<g id="node12" class="node"><title>EventType</title>
<ellipse fill="none" stroke="black" cx="762.712" cy="-399" rx="61.99" ry="18"/>
<text text-anchor="middle" x="762.712" y="-395.3" font-family="Times,serif" font-size="14.00">EventType</text>
</g>
<!-- Event -->
<g id="node26" class="node"><title>Event</title>
<ellipse fill="none" stroke="black" cx="762.712" cy="-306" rx="38.1938" ry="18"/>
<text text-anchor="middle" x="762.712" y="-302.3" font-family="Times,serif" font-size="14.00">Event</text>
</g>
<!-- EventType&#45;&gt;Event -->
<g id="edge20" class="edge"><title>EventType&#45;&gt;Event</title>
<path fill="none" stroke="#bc593b" d="M762.712,-372.729C762.712,-360.725 762.712,-346.362 762.712,-334.129"/>
<ellipse fill="none" stroke="#bc593b" cx="762.713" cy="-376.884" rx="4" ry="4"/>
<polygon fill="#bc593b" stroke="#bc593b" points="762.713,-334.04 767.212,-324.04 762.713,-329.04 762.712,-324.04 762.712,-324.04 762.712,-324.04 762.713,-329.04 758.212,-324.04 762.713,-334.04 762.713,-334.04"/>
</g>
<!-- Video -->
<g id="node13" class="node"><title>Video</title>
<ellipse fill="none" stroke="black" cx="589.712" cy="-234" rx="36.2938" ry="18"/>
<text text-anchor="middle" x="589.712" y="-230.3" font-family="Times,serif" font-size="14.00">Video</text>
</g>
<!-- Video&#45;&gt;Tutorial -->
<g id="edge22" class="edge"><title>Video&#45;&gt;Tutorial</title>
<path fill="none" stroke="#74282a" d="M589.712,-207.64C589.712,-201.348 589.712,-194.605 589.712,-188.316"/>
<ellipse fill="none" stroke="#74282a" cx="589.713" cy="-211.697" rx="4" ry="4"/>
<ellipse fill="#74282a" stroke="#74282a" cx="589.713" cy="-184.104" rx="4" ry="4"/>
</g>
<!-- Resource -->
<g id="node28" class="node"><title>Resource</title>
<ellipse fill="none" stroke="black" cx="709.712" cy="-162" rx="53.0913" ry="18"/>
<text text-anchor="middle" x="709.712" y="-158.3" font-family="Times,serif" font-size="14.00">Resource</text>
</g>
<!-- Video&#45;&gt;Resource -->
<g id="edge21" class="edge"><title>Video&#45;&gt;Resource</title>
<path fill="none" stroke="#2e5ab2" d="M619.287,-215.748C636.778,-205.545 658.959,-192.606 676.976,-182.096"/>
<ellipse fill="none" stroke="#2e5ab2" cx="615.739" cy="-217.818" rx="4.00002" ry="4.00002"/>
<ellipse fill="#2e5ab2" stroke="#2e5ab2" cx="680.454" cy="-180.067" rx="4.00002" ry="4.00002"/>
</g>
<!-- Point -->
<g id="node15" class="node"><title>Point</title>
<ellipse fill="none" stroke="black" cx="907.712" cy="-306" rx="35.194" ry="18"/>
<text text-anchor="middle" x="907.712" y="-302.3" font-family="Times,serif" font-size="14.00">Point</text>
</g>
<!-- Test&#45;&gt;Question -->
<g id="edge23" class="edge"><title>Test&#45;&gt;Question</title>
<path fill="none" stroke="#8d8a6c" d="M53.8248,-211.888C61.8739,-203.839 71.0926,-194.62 79.3397,-186.373"/>
<ellipse fill="none" stroke="#8d8a6c" cx="50.7299" cy="-214.983" rx="4.00002" ry="4.00002"/>
<polygon fill="#8d8a6c" stroke="#8d8a6c" points="79.5078,-186.205 89.7609,-182.316 83.0434,-182.669 86.5789,-179.134 86.5789,-179.134 86.5789,-179.134 83.0434,-182.669 83.3969,-175.952 79.5078,-186.205 79.5078,-186.205"/>
</g>
<!-- Test&#45;&gt;Answer -->
<g id="edge24" class="edge"><title>Test&#45;&gt;Answer</title>
<path fill="none" stroke="#7b09b6" d="M20.8779,-208.698C6.34006,-174.983 -13.1781,-113.49 14.7125,-72 31.7879,-46.5986 63.3927,-33.3646 91.1637,-26.4732"/>
<ellipse fill="none" stroke="#7b09b6" cx="22.6192" cy="-212.595" rx="4.00002" ry="4.00002"/>
<polygon fill="#7b09b6" stroke="#7b09b6" points="91.433,-26.4125 102.179,-28.6 96.3103,-25.3114 101.188,-24.2104 101.188,-24.2104 101.188,-24.2104 96.3103,-25.3114 100.197,-19.8209 91.433,-26.4125 91.433,-26.4125"/>
</g>
<!-- CourseUserTest -->
<g id="node20" class="node"><title>CourseUserTest</title>
<ellipse fill="none" stroke="black" cx="216.712" cy="-90" rx="85.2851" ry="18"/>
<text text-anchor="middle" x="216.712" y="-86.3" font-family="Times,serif" font-size="14.00">CourseUserTest</text>
</g>
<!-- Test&#45;&gt;CourseUserTest -->
<g id="edge25" class="edge"><title>Test&#45;&gt;CourseUserTest</title>
<path fill="none" stroke="#96039c" d="M28.3007,-207.659C26.3965,-188.116 27.2675,-161.547 41.7125,-144 55.2078,-127.607 102.386,-113.874 144.359,-104.497"/>
<ellipse fill="none" stroke="#96039c" cx="28.8104" cy="-211.85" rx="4.00001" ry="4.00001"/>
<polygon fill="#96039c" stroke="#96039c" points="144.562,-104.453 155.29,-106.724 149.448,-103.39 154.334,-102.327 154.334,-102.327 154.334,-102.327 149.448,-103.39 153.377,-97.93 144.562,-104.453 144.562,-104.453"/>
</g>
<!-- Blog -->
<g id="node17" class="node"><title>Blog</title>
<ellipse fill="none" stroke="black" cx="674.712" cy="-234" rx="30.5947" ry="18"/>
<text text-anchor="middle" x="674.712" y="-230.3" font-family="Times,serif" font-size="14.00">Blog</text>
</g>
<!-- Blog&#45;&gt;Tutorial -->
<g id="edge26" class="edge"><title>Blog&#45;&gt;Tutorial</title>
<path fill="none" stroke="#5c7c66" d="M651.217,-213.651C640.011,-204.423 626.585,-193.366 615.14,-183.941"/>
<ellipse fill="none" stroke="#5c7c66" cx="654.424" cy="-216.292" rx="4.00002" ry="4.00002"/>
<ellipse fill="#5c7c66" stroke="#5c7c66" cx="611.75" cy="-181.149" rx="4.00002" ry="4.00002"/>
</g>
<!-- Blog&#45;&gt;Resource -->
<g id="edge27" class="edge"><title>Blog&#45;&gt;Resource</title>
<path fill="none" stroke="#fb5ced" d="M686.681,-209.062C690.195,-202.034 694.041,-194.343 697.566,-187.293"/>
<ellipse fill="none" stroke="#fb5ced" cx="684.796" cy="-212.833" rx="4.00002" ry="4.00002"/>
<ellipse fill="#fb5ced" stroke="#fb5ced" cx="699.446" cy="-183.534" rx="4.00002" ry="4.00002"/>
</g>
<!-- School -->
<g id="node18" class="node"><title>School</title>
<ellipse fill="none" stroke="black" cx="502.712" cy="-399" rx="40.0939" ry="18"/>
<text text-anchor="middle" x="502.712" y="-395.3" font-family="Times,serif" font-size="14.00">School</text>
</g>
<!-- School&#45;&gt;Career -->
<g id="edge28" class="edge"><title>School&#45;&gt;Career</title>
<path fill="none" stroke="#dedc16" d="M526.963,-377.181C543.625,-362.877 565.722,-343.907 582.742,-329.296"/>
<ellipse fill="none" stroke="#dedc16" cx="523.729" cy="-379.958" rx="4.00002" ry="4.00002"/>
<polygon fill="#dedc16" stroke="#dedc16" points="583.055,-329.026 593.574,-325.927 586.849,-325.77 590.643,-322.513 590.643,-322.513 590.643,-322.513 586.849,-325.77 587.712,-319.098 583.055,-329.026 583.055,-329.026"/>
</g>
<!-- Student -->
<g id="node19" class="node"><title>Student</title>
<polygon fill="none" stroke="black" stroke-dasharray="1,5" points="1065.71,-417 991.712,-417 991.712,-381 1065.71,-381 1065.71,-417"/>
<text text-anchor="middle" x="1028.71" y="-395.3" font-family="Times,serif" font-size="14.00">Student</text>
</g>
<!-- CourseUserTest&#45;&gt;Answer -->
<g id="edge29" class="edge"><title>CourseUserTest&#45;&gt;Answer</title>
<path fill="none" stroke="#06f64a" d="M193.38,-66.3161C185.584,-58.736 176.879,-50.2726 169.01,-42.6228"/>
<ellipse fill="none" stroke="#06f64a" cx="196.415" cy="-69.2666" rx="4.00002" ry="4.00002"/>
<polygon fill="#06f64a" stroke="#06f64a" points="168.655,-42.2778 164.622,-32.0805 165.07,-38.7924 161.485,-35.307 161.485,-35.307 161.485,-35.307 165.07,-38.7924 158.349,-38.5335 168.655,-42.2778 168.655,-42.2778"/>
</g>
<!-- PointAction -->
<g id="node21" class="node"><title>PointAction</title>
<ellipse fill="none" stroke="black" cx="907.712" cy="-399" rx="65.7887" ry="18"/>
<text text-anchor="middle" x="907.712" y="-395.3" font-family="Times,serif" font-size="14.00">PointAction</text>
</g>
<!-- PointAction&#45;&gt;Point -->
<g id="edge30" class="edge"><title>PointAction&#45;&gt;Point</title>
<path fill="none" stroke="#196596" d="M907.712,-372.729C907.712,-360.725 907.712,-346.362 907.712,-334.129"/>
<ellipse fill="none" stroke="#196596" cx="907.713" cy="-376.884" rx="4" ry="4"/>
<polygon fill="#196596" stroke="#196596" points="907.713,-334.04 912.212,-324.04 907.713,-329.04 907.712,-324.04 907.712,-324.04 907.712,-324.04 907.713,-329.04 903.212,-324.04 907.713,-334.04 907.713,-334.04"/>
</g>
<!-- ResourceProgress -->
<g id="node22" class="node"><title>ResourceProgress</title>
<ellipse fill="none" stroke="black" cx="709.712" cy="-90" rx="94.7833" ry="18"/>
<text text-anchor="middle" x="709.712" y="-86.3" font-family="Times,serif" font-size="14.00">ResourceProgress</text>
</g>
<!-- CourseUser&#45;&gt;Plan -->
<g id="edge34" class="edge"><title>CourseUser&#45;&gt;Plan</title>
<path fill="none" stroke="#ccb0ea" d="M455.01,-135.514C455.154,-129.123 455.653,-122.273 456.439,-115.909"/>
<ellipse fill="none" stroke="#ccb0ea" cx="455.021" cy="-139.697" rx="4" ry="4"/>
<ellipse fill="#ccb0ea" stroke="#ccb0ea" cx="457.088" cy="-111.578" rx="4.00001" ry="4.00001"/>
</g>
<!-- CourseUser&#45;&gt;CourseUserTest -->
<g id="edge32" class="edge"><title>CourseUser&#45;&gt;CourseUserTest</title>
<path fill="none" stroke="#6bc4ca" d="M409.133,-146.43C369.997,-135.156 315.758,-119.532 274.837,-107.744"/>
<ellipse fill="none" stroke="#6bc4ca" cx="412.985" cy="-147.539" rx="4.00001" ry="4.00001"/>
<polygon fill="#6bc4ca" stroke="#6bc4ca" points="274.612,-107.679 266.249,-100.587 269.808,-106.295 265.003,-104.911 265.003,-104.911 265.003,-104.911 269.808,-106.295 263.757,-109.235 274.612,-107.679 274.612,-107.679"/>
</g>
<!-- CourseUser&#45;&gt;ResourceProgress -->
<g id="edge31" class="edge"><title>CourseUser&#45;&gt;ResourceProgress</title>
<path fill="none" stroke="#8535e8" d="M511.112,-146.608C551.143,-135.399 606.817,-119.811 649.035,-107.99"/>
<ellipse fill="none" stroke="#8535e8" cx="507.111" cy="-147.728" rx="4.00001" ry="4.00001"/>
<polygon fill="#8535e8" stroke="#8535e8" points="649.285,-107.92 660.128,-109.557 654.099,-106.572 658.914,-105.224 658.914,-105.224 658.914,-105.224 654.099,-106.572 657.701,-100.89 649.285,-107.92 649.285,-107.92"/>
</g>
<!-- CourseUser&#45;&gt;CourseUserPlan -->
<g id="edge33" class="edge"><title>CourseUser&#45;&gt;CourseUserPlan</title>
<path fill="none" stroke="#3ce274" d="M439.989,-137.556C433.85,-128.838 427.866,-118.499 424.712,-108 418.39,-86.951 422.098,-62.0127 426.687,-43.8975"/>
<ellipse fill="none" stroke="#3ce274" cx="442.512" cy="-140.96" rx="4.00002" ry="4.00002"/>
<ellipse fill="#3ce274" stroke="#3ce274" cx="427.769" cy="-39.9507" rx="4.00001" ry="4.00001"/>
</g>
<!-- Section&#45;&gt;ResourceProgress -->
<g id="edge36" class="edge"><title>Section&#45;&gt;ResourceProgress</title>
<path fill="none" stroke="#fbf801" d="M775.351,-208.057C778.941,-189.527 780.969,-164.091 771.712,-144 766.195,-132.025 756.49,-121.75 746.372,-113.522"/>
<ellipse fill="none" stroke="#fbf801" cx="774.471" cy="-212.13" rx="4.00001" ry="4.00001"/>
<polygon fill="#fbf801" stroke="#fbf801" points="746.216,-113.404 740.958,-103.781 742.229,-110.386 738.242,-107.369 738.242,-107.369 738.242,-107.369 742.229,-110.386 735.527,-110.957 746.216,-113.404 746.216,-113.404"/>
</g>
<!-- Section&#45;&gt;Resource -->
<g id="edge35" class="edge"><title>Section&#45;&gt;Resource</title>
<path fill="none" stroke="#e7c55c" d="M749.704,-210.448C743.503,-203.091 736.591,-194.89 730.281,-187.403"/>
<ellipse fill="none" stroke="#e7c55c" cx="752.451" cy="-213.706" rx="4.00002" ry="4.00002"/>
<polygon fill="#e7c55c" stroke="#e7c55c" points="730.177,-187.28 727.173,-176.733 726.954,-183.457 723.732,-179.633 723.732,-179.633 723.732,-179.633 726.954,-183.457 720.291,-182.534 730.177,-187.28 730.177,-187.28"/>
</g>
<!-- University -->
<g id="node27" class="node"><title>University</title>
<ellipse fill="none" stroke="black" cx="621.712" cy="-399" rx="61.1893" ry="18"/>
<text text-anchor="middle" x="621.712" y="-395.3" font-family="Times,serif" font-size="14.00">University</text>
</g>
<!-- University&#45;&gt;Career -->
<g id="edge37" class="edge"><title>University&#45;&gt;Career</title>
<path fill="none" stroke="#2c458e" d="M618.102,-372.729C616.387,-360.725 614.336,-346.362 612.588,-334.129"/>
<ellipse fill="none" stroke="#2c458e" cx="618.702" cy="-376.924" rx="4.00001" ry="4.00001"/>
<polygon fill="#2c458e" stroke="#2c458e" points="612.561,-333.939 615.602,-323.403 611.854,-328.989 611.147,-324.04 611.147,-324.04 611.147,-324.04 611.854,-328.989 606.692,-324.676 612.561,-333.939 612.561,-333.939"/>
</g>
<!-- Resource&#45;&gt;ResourceProgress -->
<g id="edge38" class="edge"><title>Resource&#45;&gt;ResourceProgress</title>
<path fill="none" stroke="#1a909f" d="M709.712,-135.64C709.712,-130.063 709.712,-124.132 709.712,-118.476"/>
<ellipse fill="none" stroke="#1a909f" cx="709.713" cy="-139.697" rx="4" ry="4"/>
<polygon fill="#1a909f" stroke="#1a909f" points="709.713,-118.104 714.212,-108.104 709.713,-113.104 709.712,-108.104 709.712,-108.104 709.712,-108.104 709.713,-113.104 705.212,-108.104 709.713,-118.104 709.713,-118.104"/>
</g>
<!-- Task -->
<g id="node29" class="node"><title>Task</title>
<ellipse fill="none" stroke="black" cx="323.712" cy="-234" rx="32.4942" ry="18"/>
<text text-anchor="middle" x="323.712" y="-230.3" font-family="Times,serif" font-size="14.00">Task</text>
</g>
<!-- Task&#45;&gt;Question -->
<g id="edge41" class="edge"><title>Task&#45;&gt;Question</title>
<path fill="none" stroke="#b96454" d="M290.92,-219.374C287.822,-218.193 284.718,-217.05 281.712,-216 238.505,-200.899 188.496,-186.33 152.337,-176.302"/>
<ellipse fill="none" stroke="#b96454" cx="294.818" cy="-220.897" rx="4.00001" ry="4.00001"/>
<polygon fill="#b96454" stroke="#b96454" points="152.164,-176.254 143.719,-169.259 147.344,-174.925 142.523,-173.597 142.523,-173.597 142.523,-173.597 147.344,-174.925 141.328,-177.935 152.164,-176.254 152.164,-176.254"/>
</g>
<!-- Task&#45;&gt;Answer -->
<g id="edge40" class="edge"><title>Task&#45;&gt;Answer</title>
<path fill="none" stroke="#a4ba01" d="M329.581,-207.571C335.978,-172.954 341.58,-110.869 310.712,-72 284.573,-39.0844 237.911,-26.2859 200.702,-21.4636"/>
<ellipse fill="none" stroke="#a4ba01" cx="328.738" cy="-211.826" rx="4.00001" ry="4.00001"/>
<polygon fill="#a4ba01" stroke="#a4ba01" points="200.42,-21.4317 190.99,-15.8336 195.451,-20.8683 190.483,-20.305 190.483,-20.305 190.483,-20.305 195.451,-20.8683 189.976,-24.7763 200.42,-21.4317 200.42,-21.4317"/>
</g>
<!-- Task&#45;&gt;Resource -->
<g id="edge39" class="edge"><title>Task&#45;&gt;Resource</title>
<path fill="none" stroke="#82c367" d="M355.817,-219.035C359.121,-217.892 362.459,-216.851 365.712,-216 487.952,-184.032 523.813,-204.767 647.712,-180 652.74,-178.995 657.96,-177.803 663.141,-176.524"/>
<ellipse fill="none" stroke="#82c367" cx="351.978" cy="-220.458" rx="4.00001" ry="4.00001"/>
<ellipse fill="#82c367" stroke="#82c367" cx="667.342" cy="-175.449" rx="4.00001" ry="4.00001"/>
</g>
</g>
</svg>
