<?xml version="1.0" encoding="UTF-8" standalone="no"?>
<!DOCTYPE svg PUBLIC "-//W3C//DTD SVG 1.1//EN"
 "http://www.w3.org/Graphics/SVG/1.1/DTD/svg11.dtd">
<!-- Generated by graphviz version 2.38.0 (20140413.2041)
 -->
<!-- Title: models_diagram Pages: 1 -->
<svg width="1640pt" height="590pt"
 viewBox="0.00 0.00 1639.68 590.00" xmlns="http://www.w3.org/2000/svg" xmlns:xlink="http://www.w3.org/1999/xlink">
<g id="graph0" class="graph" transform="scale(1 1) rotate(0) translate(4 586)">
<title>models_diagram</title>
<polygon fill="none" stroke="none" points="-4,4 -4,-586 1635.68,-586 1635.68,4 -4,4"/>
<!-- _diagram_info -->
<g id="node1" class="node"><title>_diagram_info</title>
<text text-anchor="start" x="245.037" y="-567.6" font-family="Times,serif" font-size="13.00">Models diagram</text>
<text text-anchor="start" x="245.037" y="-553.6" font-family="Times,serif" font-size="13.00">Date: Jun 02 2016 &#45; 16:33</text>
<text text-anchor="start" x="245.037" y="-539.6" font-family="Times,serif" font-size="13.00">Migration version: 20160602202339</text>
<text text-anchor="start" x="245.037" y="-525.6" font-family="Times,serif" font-size="13.00">Generated by RailRoady 1.4.2</text>
<text text-anchor="start" x="245.037" y="-511.6" font-family="Times,serif" font-size="13.00">http://railroady.prestonlee.com</text>
</g>
<!-- Course -->
<g id="node2" class="node"><title>Course</title>
<ellipse fill="none" stroke="black" cx="531.037" cy="-543" rx="42.4939" ry="18"/>
<text text-anchor="middle" x="531.037" y="-539.3" font-family="Times,serif" font-size="14.00">Course</text>
</g>
<!-- Category -->
<g id="node5" class="node"><title>Category</title>
<ellipse fill="none" stroke="black" cx="217.037" cy="-378" rx="53.8905" ry="18"/>
<text text-anchor="middle" x="217.037" y="-374.3" font-family="Times,serif" font-size="14.00">Category</text>
</g>
<!-- Course&#45;&gt;Category -->
<g id="edge1" class="edge"><title>Course&#45;&gt;Category</title>
<path fill="none" stroke="#18187f" d="M505.831,-521.678C497.815,-515.641 488.761,-509.245 480.037,-504 448.006,-484.74 437.8,-484.031 404.037,-468 352.837,-443.689 293.785,-415.571 255.965,-397.553"/>
<ellipse fill="none" stroke="#18187f" cx="509.115" cy="-524.197" rx="4.00002" ry="4.00002"/>
<polygon fill="#18187f" stroke="#18187f" points="255.853,-397.499 248.761,-389.136 251.339,-395.349 246.826,-393.198 246.826,-393.198 246.826,-393.198 251.339,-395.349 244.89,-397.26 255.853,-397.499 255.853,-397.499"/>
</g>
<!-- User -->
<g id="node8" class="node"><title>User</title>
<ellipse fill="none" stroke="black" cx="445.037" cy="-450" rx="32.4942" ry="18"/>
<text text-anchor="middle" x="445.037" y="-446.3" font-family="Times,serif" font-size="14.00">User</text>
</g>
<!-- Course&#45;&gt;User -->
<g id="edge4" class="edge"><title>Course&#45;&gt;User</title>
<path fill="none" stroke="#0409cd" d="M508.872,-518.546C495.898,-504.818 479.587,-487.558 466.7,-473.922"/>
<polygon fill="#0409cd" stroke="#0409cd" points="509.189,-518.881 512.787,-529.24 512.623,-522.515 516.057,-526.149 516.057,-526.149 516.057,-526.149 512.623,-522.515 519.328,-523.058 509.189,-518.881 509.189,-518.881"/>
<polygon fill="#0409cd" stroke="#0409cd" points="466.428,-473.634 462.83,-463.275 462.994,-470 459.559,-466.366 459.559,-466.366 459.559,-466.366 462.994,-470 456.289,-469.457 466.428,-473.634 466.428,-473.634"/>
</g>
<!-- CourseUser -->
<g id="node24" class="node"><title>CourseUser</title>
<ellipse fill="none" stroke="black" cx="789.037" cy="-378" rx="63.8893" ry="18"/>
<text text-anchor="middle" x="789.037" y="-374.3" font-family="Times,serif" font-size="14.00">CourseUser</text>
</g>
<!-- Course&#45;&gt;CourseUser -->
<g id="edge3" class="edge"><title>Course&#45;&gt;CourseUser</title>
<path fill="none" stroke="#b9b0b1" d="M560.823,-523.182C609.314,-492.546 704.991,-432.099 755.688,-400.069"/>
<ellipse fill="none" stroke="#b9b0b1" cx="557.315" cy="-525.398" rx="4.00002" ry="4.00002"/>
<polygon fill="#b9b0b1" stroke="#b9b0b1" points="755.86,-399.961 766.717,-398.424 760.087,-397.29 764.314,-394.62 764.314,-394.62 764.314,-394.62 760.087,-397.29 761.91,-390.816 755.86,-399.961 755.86,-399.961"/>
</g>
<!-- Section -->
<g id="node25" class="node"><title>Section</title>
<ellipse fill="none" stroke="black" cx="1256.04" cy="-450" rx="45.4919" ry="18"/>
<text text-anchor="middle" x="1256.04" y="-446.3" font-family="Times,serif" font-size="14.00">Section</text>
</g>
<!-- Course&#45;&gt;Section -->
<g id="edge2" class="edge"><title>Course&#45;&gt;Section</title>
<path fill="none" stroke="#cd205c" d="M579.711,-536.76C731.456,-520.409 1186.75,-471.216 1202.04,-468 1205.72,-467.226 1209.5,-466.303 1213.28,-465.294"/>
<ellipse fill="none" stroke="#cd205c" cx="575.412" cy="-537.224" rx="4" ry="4"/>
<polygon fill="#cd205c" stroke="#cd205c" points="1213.57,-465.212 1224.42,-466.79 1218.37,-463.838 1223.18,-462.464 1223.18,-462.464 1223.18,-462.464 1218.37,-463.838 1221.94,-458.137 1213.57,-465.212 1213.57,-465.212"/>
</g>
<!-- License -->
<g id="node3" class="node"><title>License</title>
<ellipse fill="none" stroke="black" cx="334.037" cy="-378" rx="45.4919" ry="18"/>
<text text-anchor="middle" x="334.037" y="-374.3" font-family="Times,serif" font-size="14.00">License</text>
</g>
<!-- Tutorial -->
<g id="node4" class="node"><title>Tutorial</title>
<ellipse fill="none" stroke="black" cx="1144.04" cy="-450" rx="48.9926" ry="18"/>
<text text-anchor="middle" x="1144.04" y="-446.3" font-family="Times,serif" font-size="14.00">Tutorial</text>
</g>
<!-- Resource -->
<g id="node28" class="node"><title>Resource</title>
<ellipse fill="none" stroke="black" cx="1047.04" cy="-378" rx="53.0913" ry="18"/>
<text text-anchor="middle" x="1047.04" y="-374.3" font-family="Times,serif" font-size="14.00">Resource</text>
</g>
<!-- Tutorial&#45;&gt;Resource -->
<g id="edge5" class="edge"><title>Tutorial&#45;&gt;Resource</title>
<path fill="none" stroke="#7acafc" d="M1115.83,-428.641C1103.56,-419.789 1089.18,-409.413 1076.75,-400.442"/>
<ellipse fill="none" stroke="#7acafc" cx="1119.27" cy="-431.124" rx="4.00002" ry="4.00002"/>
<polygon fill="#7acafc" stroke="#7acafc" points="1076.61,-400.344 1071.14,-390.843 1072.56,-397.418 1068.5,-394.492 1068.5,-394.492 1068.5,-394.492 1072.56,-397.418 1065.87,-398.141 1076.61,-400.344 1076.61,-400.344"/>
</g>
<!-- SubCategory -->
<g id="node6" class="node"><title>SubCategory</title>
<ellipse fill="none" stroke="black" cx="309.037" cy="-306" rx="70.6878" ry="18"/>
<text text-anchor="middle" x="309.037" y="-302.3" font-family="Times,serif" font-size="14.00">SubCategory</text>
</g>
<!-- Category&#45;&gt;SubCategory -->
<g id="edge6" class="edge"><title>Category&#45;&gt;SubCategory</title>
<path fill="none" stroke="#b14c97" d="M244.447,-356.145C255.448,-347.775 268.154,-338.107 279.371,-329.572"/>
<ellipse fill="none" stroke="#b14c97" cx="241.097" cy="-358.694" rx="4.00002" ry="4.00002"/>
<polygon fill="#b14c97" stroke="#b14c97" points="279.647,-329.362 290.33,-326.888 283.626,-326.335 287.605,-323.307 287.605,-323.307 287.605,-323.307 283.626,-326.335 284.88,-319.726 279.647,-329.362 279.647,-329.362"/>
</g>
<!-- Question -->
<g id="node10" class="node"><title>Question</title>
<ellipse fill="none" stroke="black" cx="408.037" cy="-234" rx="51.9908" ry="18"/>
<text text-anchor="middle" x="408.037" y="-230.3" font-family="Times,serif" font-size="14.00">Question</text>
</g>
<!-- Category&#45;&gt;Question -->
<g id="edge7" class="edge"><title>Category&#45;&gt;Question</title>
<path fill="none" stroke="#409c4f" d="M266.712,-363.023C315.971,-348.962 384.733,-328.704 389.037,-324 404.247,-307.38 408.408,-281.662 409.109,-262.138"/>
<polygon fill="#409c4f" stroke="#409c4f" points="266.455,-363.096 255.605,-361.506 261.646,-364.465 256.837,-365.834 256.837,-365.834 256.837,-365.834 261.646,-364.465 258.069,-370.162 266.455,-363.096 266.455,-363.096"/>
<polygon fill="#409c4f" stroke="#409c4f" points="409.11,-262.025 413.691,-252.062 409.151,-257.025 409.191,-252.025 409.191,-252.025 409.191,-252.025 409.151,-257.025 404.692,-251.989 409.11,-262.025 409.11,-262.025"/>
</g>
<!-- SimulatedCategory -->
<g id="node19" class="node"><title>SimulatedCategory</title>
<ellipse fill="none" stroke="black" cx="119.037" cy="-306" rx="100.983" ry="18"/>
<text text-anchor="middle" x="119.037" y="-302.3" font-family="Times,serif" font-size="14.00">SimulatedCategory</text>
</g>
<!-- Category&#45;&gt;SimulatedCategory -->
<g id="edge8" class="edge"><title>Category&#45;&gt;SimulatedCategory</title>
<path fill="none" stroke="#127f43" d="M188.778,-356.815C176.842,-348.289 162.894,-338.326 150.621,-329.559"/>
<ellipse fill="none" stroke="#127f43" cx="192.033" cy="-359.14" rx="4.00002" ry="4.00002"/>
<polygon fill="#127f43" stroke="#127f43" points="150.574,-329.526 145.052,-320.052 146.506,-326.62 142.437,-323.714 142.437,-323.714 142.437,-323.714 146.506,-326.62 139.821,-327.376 150.574,-329.526 150.574,-329.526"/>
</g>
<!-- Choice -->
<g id="node7" class="node"><title>Choice</title>
<ellipse fill="none" stroke="black" cx="297.037" cy="-90" rx="40.0939" ry="18"/>
<text text-anchor="middle" x="297.037" y="-86.3" font-family="Times,serif" font-size="14.00">Choice</text>
</g>
<!-- SubCategory&#45;&gt;Choice -->
<g id="edge10" class="edge"><title>SubCategory&#45;&gt;Choice</title>
<path fill="none" stroke="#6327ec" d="M307.507,-277.712C305.205,-236.65 300.874,-159.417 298.57,-118.33"/>
<polygon fill="#6327ec" stroke="#6327ec" points="307.516,-277.865 303.583,-288.101 307.796,-282.857 308.076,-287.849 308.076,-287.849 308.076,-287.849 307.796,-282.857 312.569,-287.597 307.516,-277.865 307.516,-277.865"/>
<polygon fill="#6327ec" stroke="#6327ec" points="298.564,-118.217 302.497,-107.98 298.284,-113.225 298.004,-108.232 298.004,-108.232 298.004,-108.232 298.284,-113.225 293.511,-108.484 298.564,-118.217 298.564,-118.217"/>
</g>
<!-- AnsweredQuestion -->
<g id="node9" class="node"><title>AnsweredQuestion</title>
<ellipse fill="none" stroke="black" cx="168.037" cy="-162" rx="97.4827" ry="18"/>
<text text-anchor="middle" x="168.037" y="-158.3" font-family="Times,serif" font-size="14.00">AnsweredQuestion</text>
</g>
<!-- SubCategory&#45;&gt;AnsweredQuestion -->
<g id="edge11" class="edge"><title>SubCategory&#45;&gt;AnsweredQuestion</title>
<path fill="none" stroke="#413399" d="M285.431,-281.226C259.52,-255.131 218.144,-213.462 192.066,-187.199"/>
<polygon fill="#413399" stroke="#413399" points="285.541,-281.337 289.394,-291.604 289.064,-284.885 292.587,-288.433 292.587,-288.433 292.587,-288.433 289.064,-284.885 295.78,-285.262 285.541,-281.337 285.541,-281.337"/>
<polygon fill="#413399" stroke="#413399" points="191.866,-186.998 188.013,-176.731 188.343,-183.45 184.82,-179.902 184.82,-179.902 184.82,-179.902 188.343,-183.45 181.627,-183.072 191.866,-186.998 191.866,-186.998"/>
</g>
<!-- SubCategory&#45;&gt;Question -->
<g id="edge9" class="edge"><title>SubCategory&#45;&gt;Question</title>
<path fill="none" stroke="#0f6c57" d="M338.771,-283.976C351.167,-275.211 365.542,-265.047 377.972,-256.258"/>
<ellipse fill="none" stroke="#0f6c57" cx="335.265" cy="-286.455" rx="4.00002" ry="4.00002"/>
<polygon fill="#0f6c57" stroke="#0f6c57" points="378.054,-256.2 388.818,-254.101 382.137,-253.313 386.22,-250.427 386.22,-250.427 386.22,-250.427 382.137,-253.313 383.622,-246.752 378.054,-256.2 378.054,-256.2"/>
</g>
<!-- Answer -->
<g id="node14" class="node"><title>Answer</title>
<ellipse fill="none" stroke="black" cx="541.037" cy="-18" rx="46.2923" ry="18"/>
<text text-anchor="middle" x="541.037" y="-14.3" font-family="Times,serif" font-size="14.00">Answer</text>
</g>
<!-- Choice&#45;&gt;Answer -->
<g id="edge12" class="edge"><title>Choice&#45;&gt;Answer</title>
<path fill="none" stroke="#525bcd" d="M337.687,-77.0434C343.508,-75.3434 349.424,-73.6224 355.037,-72 402.711,-58.2214 457.332,-42.6875 494.989,-32.0173"/>
<ellipse fill="none" stroke="#525bcd" cx="333.685" cy="-78.2141" rx="4.00001" ry="4.00001"/>
<polygon fill="#525bcd" stroke="#525bcd" points="495.039,-32.0031 505.887,-33.6077 499.85,-30.6405 504.661,-29.278 504.661,-29.278 504.661,-29.278 499.85,-30.6405 503.434,-24.9483 495.039,-32.0031 495.039,-32.0031"/>
</g>
<!-- User&#45;&gt;License -->
<g id="edge20" class="edge"><title>User&#45;&gt;License</title>
<path fill="none" stroke="#8c7b68" d="M417.367,-431.55C401.161,-421.33 380.683,-408.416 364.084,-397.948"/>
<ellipse fill="none" stroke="#8c7b68" cx="421.036" cy="-433.864" rx="4.00002" ry="4.00002"/>
<ellipse fill="#8c7b68" stroke="#8c7b68" cx="360.614" cy="-395.76" rx="4.00002" ry="4.00002"/>
</g>
<!-- User&#45;&gt;Category -->
<g id="edge13" class="edge"><title>User&#45;&gt;Category</title>
<path fill="none" stroke="#f6461d" d="M409.347,-438.042C370.547,-426.13 308.326,-407.027 265.212,-393.79"/>
<ellipse fill="none" stroke="#f6461d" cx="413.256" cy="-439.243" rx="4.00001" ry="4.00001"/>
<polygon fill="#f6461d" stroke="#f6461d" points="265.065,-393.745 256.826,-386.508 260.285,-392.278 255.505,-390.81 255.505,-390.81 255.505,-390.81 260.285,-392.278 254.184,-395.112 265.065,-393.745 265.065,-393.745"/>
</g>
<!-- User&#45;&gt;SubCategory -->
<g id="edge14" class="edge"><title>User&#45;&gt;SubCategory</title>
<path fill="none" stroke="#42f03b" d="M433.37,-425.327C423.185,-406.233 407.074,-379.446 388.037,-360 376.096,-347.801 360.919,-336.813 347.066,-328.047"/>
<ellipse fill="none" stroke="#42f03b" cx="435.256" cy="-428.943" rx="4.00002" ry="4.00002"/>
<polygon fill="#42f03b" stroke="#42f03b" points="346.728,-327.84 340.552,-318.779 342.465,-325.229 338.201,-322.617 338.201,-322.617 338.201,-322.617 342.465,-325.229 335.851,-326.454 346.728,-327.84 346.728,-327.84"/>
</g>
<!-- User&#45;&gt;AnsweredQuestion -->
<g id="edge16" class="edge"><title>User&#45;&gt;AnsweredQuestion</title>
<path fill="none" stroke="#afaddc" d="M405.419,-444.304C306.139,-431.576 51.6131,-392.677 9.0374,-324 -27.508,-265.05 61.9817,-210.834 121.045,-182.861"/>
<ellipse fill="none" stroke="#afaddc" cx="409.447" cy="-444.814" rx="4.00001" ry="4.00001"/>
<polygon fill="#afaddc" stroke="#afaddc" points="121.165,-182.805 132.131,-182.683 125.702,-180.702 130.239,-178.6 130.239,-178.6 130.239,-178.6 125.702,-180.702 128.346,-174.517 121.165,-182.805 121.165,-182.805"/>
</g>
<!-- User&#45;&gt;Answer -->
<g id="edge19" class="edge"><title>User&#45;&gt;Answer</title>
<path fill="none" stroke="#a57020" d="M485.054,-444.553C541.043,-437.478 638.554,-421.762 662.037,-396 738.094,-312.564 742.421,-246.007 694.037,-144 670.323,-94.0028 615.736,-57.3788 578.605,-37.1284"/>
<ellipse fill="none" stroke="#a57020" cx="480.745" cy="-445.085" rx="4.00001" ry="4.00001"/>
<polygon fill="#a57020" stroke="#a57020" points="578.404,-37.0218 571.68,-28.3595 573.987,-34.6782 569.57,-32.3346 569.57,-32.3346 569.57,-32.3346 573.987,-34.6782 567.461,-36.3097 578.404,-37.0218 578.404,-37.0218"/>
</g>
<!-- SimulatorAnsweredQuestion -->
<g id="node20" class="node"><title>SimulatorAnsweredQuestion</title>
<ellipse fill="none" stroke="black" cx="541.037" cy="-162" rx="143.775" ry="18"/>
<text text-anchor="middle" x="541.037" y="-158.3" font-family="Times,serif" font-size="14.00">SimulatorAnsweredQuestion</text>
</g>
<!-- User&#45;&gt;SimulatorAnsweredQuestion -->
<g id="edge17" class="edge"><title>User&#45;&gt;SimulatorAnsweredQuestion</title>
<path fill="none" stroke="#18e77a" d="M484.286,-443.964C535.613,-436.48 621.228,-420.604 640.037,-396 691.135,-329.16 610.461,-232 566.51,-187.238"/>
<ellipse fill="none" stroke="#18e77a" cx="480.319" cy="-444.529" rx="4.00001" ry="4.00001"/>
<polygon fill="#18e77a" stroke="#18e77a" points="566.355,-187.082 562.466,-176.829 562.819,-183.547 559.284,-180.011 559.284,-180.011 559.284,-180.011 562.819,-183.547 556.102,-183.193 566.355,-187.082 566.355,-187.082"/>
</g>
<!-- Simulator -->
<g id="node21" class="node"><title>Simulator</title>
<ellipse fill="none" stroke="black" cx="493.037" cy="-306" rx="56.59" ry="18"/>
<text text-anchor="middle" x="493.037" y="-302.3" font-family="Times,serif" font-size="14.00">Simulator</text>
</g>
<!-- User&#45;&gt;Simulator -->
<g id="edge15" class="edge"><title>User&#45;&gt;Simulator</title>
<path fill="none" stroke="#623383" d="M448.458,-423.543C451.372,-405.437 456.334,-380.748 464.037,-360 467.433,-350.855 472.188,-341.36 476.868,-332.976"/>
<ellipse fill="none" stroke="#623383" cx="447.793" cy="-427.902" rx="4.00001" ry="4.00001"/>
<polygon fill="#623383" stroke="#623383" points="477.022,-332.709 485.934,-326.319 479.532,-328.385 482.042,-324.06 482.042,-324.06 482.042,-324.06 479.532,-328.385 478.15,-321.802 477.022,-332.709 477.022,-332.709"/>
</g>
<!-- User&#45;&gt;CourseUser -->
<g id="edge18" class="edge"><title>User&#45;&gt;CourseUser</title>
<path fill="none" stroke="#f7085c" d="M483.311,-441.598C535.032,-431.543 630.09,-412.884 711.037,-396 717.27,-394.7 723.777,-393.319 730.26,-391.928"/>
<ellipse fill="none" stroke="#f7085c" cx="479.318" cy="-442.373" rx="4.00001" ry="4.00001"/>
<polygon fill="#f7085c" stroke="#f7085c" points="730.609,-391.853 741.333,-394.144 735.497,-390.799 740.384,-389.745 740.384,-389.745 740.384,-389.745 735.497,-390.799 739.436,-385.346 730.609,-391.853 730.609,-391.853"/>
</g>
<!-- AnsweredQuestion&#45;&gt;Choice -->
<g id="edge21" class="edge"><title>AnsweredQuestion&#45;&gt;Choice</title>
<path fill="none" stroke="#85b507" d="M206.785,-139.974C224.775,-130.212 245.963,-118.715 263.288,-109.314"/>
<polygon fill="#85b507" stroke="#85b507" points="206.746,-139.995 195.811,-140.809 202.352,-142.38 197.957,-144.765 197.957,-144.765 197.957,-144.765 202.352,-142.38 200.103,-148.72 206.746,-139.995 206.746,-139.995"/>
<polygon fill="#85b507" stroke="#85b507" points="263.68,-109.101 274.616,-108.286 268.075,-106.716 272.47,-104.331 272.47,-104.331 272.47,-104.331 268.075,-106.716 270.324,-100.376 263.68,-109.101 263.68,-109.101"/>
</g>
<!-- Question&#45;&gt;Choice -->
<g id="edge23" class="edge"><title>Question&#45;&gt;Choice</title>
<path fill="none" stroke="#60d299" d="M383.893,-210.934C374.435,-201.773 363.779,-190.777 355.037,-180 338.638,-159.782 322.691,-134.802 311.682,-116.458"/>
<ellipse fill="none" stroke="#60d299" cx="387.009" cy="-213.908" rx="4.00002" ry="4.00002"/>
<polygon fill="#60d299" stroke="#60d299" points="311.641,-116.389 310.419,-105.491 309.094,-112.086 306.547,-107.784 306.547,-107.784 306.547,-107.784 309.094,-112.086 302.674,-110.076 311.641,-116.389 311.641,-116.389"/>
</g>
<!-- Question&#45;&gt;AnsweredQuestion -->
<g id="edge24" class="edge"><title>Question&#45;&gt;AnsweredQuestion</title>
<path fill="none" stroke="#63825d" d="M361.735,-219.495C323.482,-208.338 268.923,-192.425 227.452,-180.329"/>
<ellipse fill="none" stroke="#63825d" cx="365.637" cy="-220.633" rx="4.00001" ry="4.00001"/>
<polygon fill="#63825d" stroke="#63825d" points="227.345,-180.298 219.005,-173.178 222.545,-178.898 217.745,-177.498 217.745,-177.498 217.745,-177.498 222.545,-178.898 216.485,-181.818 227.345,-180.298 227.345,-180.298"/>
</g>
<!-- Question&#45;&gt;Question -->
<g id="edge26" class="edge"><title>Question&#45;&gt;Question</title>
<path fill="none" stroke="#33ce4b" d="M452.275,-247.498C466.627,-247.398 478.033,-242.899 478.033,-234 478.033,-225.513 467.659,-221.028 454.248,-220.544"/>
<ellipse fill="none" stroke="#33ce4b" cx="448.047" cy="-247.294" rx="4" ry="4"/>
<polygon fill="#33ce4b" stroke="#33ce4b" points="454.045,-220.551 443.895,-216.402 449.048,-220.725 444.051,-220.899 444.051,-220.899 444.051,-220.899 449.048,-220.725 444.208,-225.396 454.045,-220.551 454.045,-220.551"/>
</g>
<!-- Question&#45;&gt;Answer -->
<g id="edge22" class="edge"><title>Question&#45;&gt;Answer</title>
<path fill="none" stroke="#74de71" d="M394.357,-208.776C385.854,-190.322 378.239,-164.658 388.037,-144 411.752,-94.0028 466.339,-57.3788 503.47,-37.1284"/>
<ellipse fill="none" stroke="#74de71" cx="396.244" cy="-212.617" rx="4.00002" ry="4.00002"/>
<polygon fill="#74de71" stroke="#74de71" points="503.671,-37.0218 514.614,-36.3097 508.088,-34.6782 512.504,-32.3346 512.504,-32.3346 512.504,-32.3346 508.088,-34.6782 510.395,-28.3595 503.671,-37.0218 503.671,-37.0218"/>
</g>
<!-- Question&#45;&gt;SimulatorAnsweredQuestion -->
<g id="edge25" class="edge"><title>Question&#45;&gt;SimulatorAnsweredQuestion</title>
<path fill="none" stroke="#73c49b" d="M442.589,-214.815C460.186,-205.554 481.698,-194.231 500.119,-184.536"/>
<ellipse fill="none" stroke="#73c49b" cx="438.813" cy="-216.803" rx="4.00002" ry="4.00002"/>
<polygon fill="#73c49b" stroke="#73c49b" points="500.309,-184.436 511.254,-183.761 504.734,-182.107 509.158,-179.779 509.158,-179.779 509.158,-179.779 504.734,-182.107 507.062,-175.796 500.309,-184.436 500.309,-184.436"/>
</g>
<!-- LiveClass -->
<g id="node11" class="node"><title>LiveClass</title>
<ellipse fill="none" stroke="black" cx="947.037" cy="-543" rx="53.8905" ry="18"/>
<text text-anchor="middle" x="947.037" y="-539.3" font-family="Times,serif" font-size="14.00">LiveClass</text>
</g>
<!-- Career -->
<g id="node12" class="node"><title>Career</title>
<ellipse fill="none" stroke="black" cx="1362.04" cy="-450" rx="42.4939" ry="18"/>
<text text-anchor="middle" x="1362.04" y="-446.3" font-family="Times,serif" font-size="14.00">Career</text>
</g>
<!-- Video -->
<g id="node13" class="node"><title>Video</title>
<ellipse fill="none" stroke="black" cx="962.037" cy="-450" rx="36.2938" ry="18"/>
<text text-anchor="middle" x="962.037" y="-446.3" font-family="Times,serif" font-size="14.00">Video</text>
</g>
<!-- Video&#45;&gt;Resource -->
<g id="edge27" class="edge"><title>Video&#45;&gt;Resource</title>
<path fill="none" stroke="#e27321" d="M986.276,-429.039C997.3,-419.96 1010.35,-409.214 1021.52,-400.012"/>
<ellipse fill="none" stroke="#e27321" cx="983.151" cy="-431.612" rx="4.00002" ry="4.00002"/>
<ellipse fill="#e27321" stroke="#e27321" cx="1024.77" cy="-397.339" rx="4.00002" ry="4.00002"/>
</g>
<!-- Point -->
<g id="node15" class="node"><title>Point</title>
<ellipse fill="none" stroke="black" cx="1566.04" cy="-450" rx="35.194" ry="18"/>
<text text-anchor="middle" x="1566.04" y="-446.3" font-family="Times,serif" font-size="14.00">Point</text>
</g>
<!-- Test -->
<g id="node16" class="node"><title>Test</title>
<ellipse fill="none" stroke="black" cx="599.037" cy="-306" rx="31.6951" ry="18"/>
<text text-anchor="middle" x="599.037" y="-302.3" font-family="Times,serif" font-size="14.00">Test</text>
</g>
<!-- Test&#45;&gt;Question -->
<g id="edge28" class="edge"><title>Test&#45;&gt;Question</title>
<path fill="none" stroke="#f76055" d="M566.8,-291.089C564.182,-290.023 561.57,-288.982 559.037,-288 524.125,-274.47 484.124,-260.498 454.068,-250.298"/>
<ellipse fill="none" stroke="#f76055" cx="570.905" cy="-292.789" rx="4.00001" ry="4.00001"/>
<polygon fill="#f76055" stroke="#f76055" points="453.751,-250.191 445.718,-242.726 449.014,-248.59 444.277,-246.99 444.277,-246.99 444.277,-246.99 449.014,-248.59 442.837,-251.253 453.751,-250.191 453.751,-250.191"/>
</g>
<!-- Blog -->
<g id="node17" class="node"><title>Blog</title>
<ellipse fill="none" stroke="black" cx="1047.04" cy="-450" rx="30.5947" ry="18"/>
<text text-anchor="middle" x="1047.04" y="-446.3" font-family="Times,serif" font-size="14.00">Blog</text>
</g>
<!-- Blog&#45;&gt;Resource -->
<g id="edge29" class="edge"><title>Blog&#45;&gt;Resource</title>
<path fill="none" stroke="#aec5a5" d="M1047.04,-423.64C1047.04,-417.348 1047.04,-410.605 1047.04,-404.316"/>
<ellipse fill="none" stroke="#aec5a5" cx="1047.04" cy="-427.697" rx="4" ry="4"/>
<ellipse fill="#aec5a5" stroke="#aec5a5" cx="1047.04" cy="-400.104" rx="4" ry="4"/>
</g>
<!-- School -->
<g id="node18" class="node"><title>School</title>
<ellipse fill="none" stroke="black" cx="1302.04" cy="-543" rx="40.0939" ry="18"/>
<text text-anchor="middle" x="1302.04" y="-539.3" font-family="Times,serif" font-size="14.00">School</text>
</g>
<!-- School&#45;&gt;Career -->
<g id="edge30" class="edge"><title>School&#45;&gt;Career</title>
<path fill="none" stroke="#4da786" d="M1317.63,-518.357C1326.16,-505.409 1336.74,-489.363 1345.43,-476.18"/>
<ellipse fill="none" stroke="#4da786" cx="1315.24" cy="-521.97" rx="4.00002" ry="4.00002"/>
<polygon fill="#4da786" stroke="#4da786" points="1345.6,-475.934 1354.86,-470.062 1348.35,-471.759 1351.1,-467.585 1351.1,-467.585 1351.1,-467.585 1348.35,-471.759 1347.35,-465.108 1345.6,-475.934 1345.6,-475.934"/>
</g>
<!-- Simulator&#45;&gt;Question -->
<g id="edge32" class="edge"><title>Simulator&#45;&gt;Question</title>
<path fill="none" stroke="#616a33" d="M466.892,-283.469C456.824,-275.178 445.312,-265.696 435.154,-257.331"/>
<ellipse fill="none" stroke="#616a33" cx="470.235" cy="-286.222" rx="4.00002" ry="4.00002"/>
<polygon fill="#616a33" stroke="#616a33" points="435.071,-257.263 430.212,-247.432 431.211,-254.085 427.352,-250.906 427.352,-250.906 427.352,-250.906 431.211,-254.085 424.491,-254.38 435.071,-257.263 435.071,-257.263"/>
</g>
<!-- Simulator&#45;&gt;SimulatorAnsweredQuestion -->
<g id="edge31" class="edge"><title>Simulator&#45;&gt;SimulatorAnsweredQuestion</title>
<path fill="none" stroke="#87a223" d="M501.512,-279.929C510.07,-254.613 523.24,-215.65 531.995,-189.75"/>
<ellipse fill="none" stroke="#87a223" cx="500.108" cy="-284.082" rx="4.00001" ry="4.00001"/>
<polygon fill="#87a223" stroke="#87a223" points="532.025,-189.663 539.49,-181.63 533.626,-184.926 535.227,-180.189 535.227,-180.189 535.227,-180.189 533.626,-184.926 530.964,-178.748 532.025,-189.663 532.025,-189.663"/>
</g>
<!-- PointAction -->
<g id="node22" class="node"><title>PointAction</title>
<ellipse fill="none" stroke="black" cx="1566.04" cy="-543" rx="65.7887" ry="18"/>
<text text-anchor="middle" x="1566.04" y="-539.3" font-family="Times,serif" font-size="14.00">PointAction</text>
</g>
<!-- PointAction&#45;&gt;Point -->
<g id="edge33" class="edge"><title>PointAction&#45;&gt;Point</title>
<path fill="none" stroke="#486c59" d="M1566.04,-516.729C1566.04,-504.725 1566.04,-490.362 1566.04,-478.129"/>
<ellipse fill="none" stroke="#486c59" cx="1566.04" cy="-520.884" rx="4" ry="4"/>
<polygon fill="#486c59" stroke="#486c59" points="1566.04,-478.04 1570.54,-468.04 1566.04,-473.04 1566.04,-468.04 1566.04,-468.04 1566.04,-468.04 1566.04,-473.04 1561.54,-468.04 1566.04,-478.04 1566.04,-478.04"/>
</g>
<!-- ResourceProgress -->
<g id="node23" class="node"><title>ResourceProgress</title>
<ellipse fill="none" stroke="black" cx="1047.04" cy="-306" rx="94.7833" ry="18"/>
<text text-anchor="middle" x="1047.04" y="-302.3" font-family="Times,serif" font-size="14.00">ResourceProgress</text>
</g>
<!-- CourseUser&#45;&gt;Test -->
<g id="edge35" class="edge"><title>CourseUser&#45;&gt;Test</title>
<path fill="none" stroke="#1b70fd" d="M744.265,-360.505C710.785,-348.17 665.621,-331.531 634.597,-320.101"/>
<ellipse fill="none" stroke="#1b70fd" cx="748.199" cy="-361.954" rx="4.00001" ry="4.00001"/>
<polygon fill="#1b70fd" stroke="#1b70fd" points="634.436,-320.042 626.609,-312.362 629.745,-318.313 625.053,-316.585 625.053,-316.585 625.053,-316.585 629.745,-318.313 623.497,-320.807 634.436,-320.042 634.436,-320.042"/>
</g>
<!-- CourseUser&#45;&gt;ResourceProgress -->
<g id="edge34" class="edge"><title>CourseUser&#45;&gt;ResourceProgress</title>
<path fill="none" stroke="#24a324" d="M841.229,-362.839C882.82,-351.555 941.163,-335.726 985.114,-323.801"/>
<ellipse fill="none" stroke="#24a324" cx="837.25" cy="-363.919" rx="4.00001" ry="4.00001"/>
<polygon fill="#24a324" stroke="#24a324" points="985.175,-323.784 996.004,-325.509 990,-322.475 994.826,-321.166 994.826,-321.166 994.826,-321.166 990,-322.475 993.648,-316.823 985.175,-323.784 985.175,-323.784"/>
</g>
<!-- Section&#45;&gt;ResourceProgress -->
<g id="edge37" class="edge"><title>Section&#45;&gt;ResourceProgress</title>
<path fill="none" stroke="#c31402" d="M1227.23,-429.427C1188.61,-403.185 1120.22,-356.722 1079.72,-329.203"/>
<ellipse fill="none" stroke="#c31402" cx="1230.76" cy="-431.824" rx="4.00002" ry="4.00002"/>
<polygon fill="#c31402" stroke="#c31402" points="1079.55,-329.087 1073.8,-319.745 1075.41,-326.277 1071.27,-323.467 1071.27,-323.467 1071.27,-323.467 1075.41,-326.277 1068.75,-327.189 1079.55,-329.087 1079.55,-329.087"/>
</g>
<!-- Section&#45;&gt;Resource -->
<g id="edge36" class="edge"><title>Section&#45;&gt;Resource</title>
<path fill="none" stroke="#5a931e" d="M1214.6,-435.12C1179.69,-423.43 1129.8,-406.719 1093.54,-394.575"/>
<ellipse fill="none" stroke="#5a931e" cx="1218.67" cy="-436.483" rx="4.00001" ry="4.00001"/>
<polygon fill="#5a931e" stroke="#5a931e" points="1093.18,-394.455 1085.13,-387.012 1088.44,-392.867 1083.7,-391.279 1083.7,-391.279 1083.7,-391.279 1088.44,-392.867 1082.27,-395.546 1093.18,-394.455 1093.18,-394.455"/>
</g>
<!-- SimulatorType -->
<g id="node26" class="node"><title>SimulatorType</title>
<ellipse fill="none" stroke="black" cx="552.037" cy="-378" rx="79.0865" ry="18"/>
<text text-anchor="middle" x="552.037" y="-374.3" font-family="Times,serif" font-size="14.00">SimulatorType</text>
</g>
<!-- SimulatorType&#45;&gt;Simulator -->
<g id="edge38" class="edge"><title>SimulatorType&#45;&gt;Simulator</title>
<path fill="none" stroke="#e81dfb" d="M532.519,-353.843C526.57,-346.784 520.007,-338.997 513.968,-331.833"/>
<ellipse fill="none" stroke="#e81dfb" cx="535.177" cy="-356.996" rx="4.00002" ry="4.00002"/>
<polygon fill="#e81dfb" stroke="#e81dfb" points="513.633,-331.435 510.629,-320.889 510.411,-327.612 507.188,-323.789 507.188,-323.789 507.188,-323.789 510.411,-327.612 503.747,-326.689 513.633,-331.435 513.633,-331.435"/>
</g>
<!-- University -->
<g id="node27" class="node"><title>University</title>
<ellipse fill="none" stroke="black" cx="1421.04" cy="-543" rx="61.1893" ry="18"/>
<text text-anchor="middle" x="1421.04" y="-539.3" font-family="Times,serif" font-size="14.00">University</text>
</g>
<!-- University&#45;&gt;Career -->
<g id="edge39" class="edge"><title>University&#45;&gt;Career</title>
<path fill="none" stroke="#3872e4" d="M1405.43,-517.921C1397.03,-504.974 1386.69,-489.029 1378.21,-475.951"/>
<ellipse fill="none" stroke="#3872e4" cx="1407.76" cy="-521.527" rx="4.00002" ry="4.00002"/>
<polygon fill="#3872e4" stroke="#3872e4" points="1378.13,-475.817 1376.46,-464.979 1375.41,-471.622 1372.69,-467.427 1372.69,-467.427 1372.69,-467.427 1375.41,-471.622 1368.91,-469.875 1378.13,-475.817 1378.13,-475.817"/>
</g>
<!-- Resource&#45;&gt;ResourceProgress -->
<g id="edge40" class="edge"><title>Resource&#45;&gt;ResourceProgress</title>
<path fill="none" stroke="#142725" d="M1047.04,-351.64C1047.04,-346.063 1047.04,-340.132 1047.04,-334.476"/>
<ellipse fill="none" stroke="#142725" cx="1047.04" cy="-355.697" rx="4" ry="4"/>
<polygon fill="#142725" stroke="#142725" points="1047.04,-334.104 1051.54,-324.104 1047.04,-329.104 1047.04,-324.104 1047.04,-324.104 1047.04,-324.104 1047.04,-329.104 1042.54,-324.104 1047.04,-334.104 1047.04,-334.104"/>
</g>
<!-- Task -->
<g id="node29" class="node"><title>Task</title>
<ellipse fill="none" stroke="black" cx="875.037" cy="-450" rx="32.4942" ry="18"/>
<text text-anchor="middle" x="875.037" y="-446.3" font-family="Times,serif" font-size="14.00">Task</text>
</g>
<!-- Task&#45;&gt;Question -->
<g id="edge42" class="edge"><title>Task&#45;&gt;Question</title>
<path fill="none" stroke="#0465c3" d="M878.039,-423.612C878.914,-404.044 876.778,-377.462 862.037,-360 810.834,-299.346 576.083,-258.786 465.705,-242.735"/>
<ellipse fill="none" stroke="#0465c3" cx="877.755" cy="-427.796" rx="4" ry="4"/>
<polygon fill="#0465c3" stroke="#0465c3" points="465.639,-242.726 456.38,-236.849 460.69,-242.015 455.74,-241.304 455.74,-241.304 455.74,-241.304 460.69,-242.015 455.101,-245.758 465.639,-242.726 465.639,-242.726"/>
</g>
<!-- Task&#45;&gt;Answer -->
<g id="edge43" class="edge"><title>Task&#45;&gt;Answer</title>
<path fill="none" stroke="#e972a7" d="M887.23,-425.209C900.252,-397.552 919.037,-350.172 919.037,-307 919.037,-307 919.037,-307 919.037,-161 919.037,-92.1387 696.424,-45.3404 592.87,-27.2963"/>
<ellipse fill="none" stroke="#e972a7" cx="885.468" cy="-428.864" rx="4.00002" ry="4.00002"/>
<polygon fill="#e972a7" stroke="#e972a7" points="592.79,-27.2825 583.696,-21.1545 587.862,-26.4361 582.934,-25.5896 582.934,-25.5896 582.934,-25.5896 587.862,-26.4361 582.172,-30.0247 592.79,-27.2825 592.79,-27.2825"/>
</g>
<!-- Task&#45;&gt;Resource -->
<g id="edge41" class="edge"><title>Task&#45;&gt;Resource</title>
<path fill="none" stroke="#873e65" d="M907.844,-435.648C935.992,-424.193 976.659,-407.642 1006.77,-395.386"/>
<ellipse fill="none" stroke="#873e65" cx="904.122" cy="-437.163" rx="4.00002" ry="4.00002"/>
<ellipse fill="#873e65" stroke="#873e65" cx="1010.48" cy="-393.877" rx="4.00002" ry="4.00002"/>
</g>
</g>
</svg>
