<?xml version="1.0" encoding="UTF-8" standalone="no"?>
<!DOCTYPE svg PUBLIC "-//W3C//DTD SVG 1.1//EN"
 "http://www.w3.org/Graphics/SVG/1.1/DTD/svg11.dtd">
<!-- Generated by graphviz version 2.36.0 (20140111.2315)
 -->
<!-- Title: models_diagram Pages: 1 -->
<svg width="730pt" height="446pt"
 viewBox="0.00 0.00 730.00 446.00" xmlns="http://www.w3.org/2000/svg" xmlns:xlink="http://www.w3.org/1999/xlink">
<g id="graph0" class="graph" transform="scale(1 1) rotate(0) translate(4 442)">
<title>models_diagram</title>
<polygon fill="none" stroke="none" points="-4,4 -4,-442 726,-442 726,4 -4,4"/>
<!-- _diagram_info -->
<g id="node1" class="node"><title>_diagram_info</title>
<text text-anchor="start" x="25" y="-423.6" font-family="Times,serif" font-size="13.00">Models diagram</text>
<text text-anchor="start" x="25" y="-409.6" font-family="Times,serif" font-size="13.00">Date: Apr 05 2016 &#45; 20:32</text>
<text text-anchor="start" x="25" y="-395.6" font-family="Times,serif" font-size="13.00">Migration version: 20160307003117</text>
<text text-anchor="start" x="25" y="-381.6" font-family="Times,serif" font-size="13.00">Generated by RailRoady 1.4.2</text>
<text text-anchor="start" x="25" y="-367.6" font-family="Times,serif" font-size="13.00">http://railroady.prestonlee.com</text>
</g>
<!-- SubCategory -->
<g id="node2" class="node"><title>SubCategory</title>
<ellipse fill="none" stroke="black" cx="526" cy="-234" rx="56.3173" ry="18"/>
<text text-anchor="middle" x="526" y="-230.3" font-family="Times,serif" font-size="14.00">SubCategory</text>
</g>
<!-- AnsweredQuestion -->
<g id="node7" class="node"><title>AnsweredQuestion</title>
<ellipse fill="none" stroke="black" cx="420" cy="-90" rx="77.4897" ry="18"/>
<text text-anchor="middle" x="420" y="-86.3" font-family="Times,serif" font-size="14.00">AnsweredQuestion</text>
</g>
<!-- SubCategory&#45;&gt;AnsweredQuestion -->
<g id="edge3" class="edge"><title>SubCategory&#45;&gt;AnsweredQuestion</title>
<path fill="none" stroke="#1a639e" d="M507.427,-208.119C488.13,-182.269 458.101,-142.041 438.742,-116.107"/>
<polygon fill="#1a639e" stroke="#1a639e" points="507.651,-208.419 510.027,-219.125 510.642,-212.426 513.633,-216.433 513.633,-216.433 513.633,-216.433 510.642,-212.426 517.239,-213.741 507.651,-208.419 507.651,-208.419"/>
<polygon fill="#1a639e" stroke="#1a639e" points="438.599,-115.915 436.223,-105.21 435.608,-111.909 432.617,-107.902 432.617,-107.902 432.617,-107.902 435.608,-111.909 429.011,-110.594 438.599,-115.915 438.599,-115.915"/>
</g>
<!-- Question -->
<g id="node14" class="node"><title>Question</title>
<ellipse fill="none" stroke="black" cx="227" cy="-162" rx="42.3701" ry="18"/>
<text text-anchor="middle" x="227" y="-158.3" font-family="Times,serif" font-size="14.00">Question</text>
</g>
<!-- SubCategory&#45;&gt;Question -->
<g id="edge1" class="edge"><title>SubCategory&#45;&gt;Question</title>
<path fill="none" stroke="#2ef6ae" d="M473.997,-220.825C417.367,-207.568 327.641,-186.561 273.342,-173.849"/>
<ellipse fill="none" stroke="#2ef6ae" cx="477.987" cy="-221.759" rx="4.00001" ry="4.00001"/>
<polygon fill="#2ef6ae" stroke="#2ef6ae" points="273.04,-173.779 264.33,-167.118 268.172,-172.639 263.304,-171.499 263.304,-171.499 263.304,-171.499 268.172,-172.639 262.278,-175.881 273.04,-173.779 273.04,-173.779"/>
</g>
<!-- Choice -->
<g id="node15" class="node"><title>Choice</title>
<ellipse fill="none" stroke="black" cx="420" cy="-18" rx="35.6194" ry="18"/>
<text text-anchor="middle" x="420" y="-14.3" font-family="Times,serif" font-size="14.00">Choice</text>
</g>
<!-- SubCategory&#45;&gt;Choice -->
<g id="edge2" class="edge"><title>SubCategory&#45;&gt;Choice</title>
<path fill="none" stroke="#0ba9c3" d="M529.394,-205.745C532.213,-171.664 532.238,-112.842 506,-72 494.722,-54.4455 475.354,-41.7607 457.849,-33.2107"/>
<polygon fill="#0ba9c3" stroke="#0ba9c3" points="529.376,-205.933 523.932,-215.452 528.893,-210.91 528.41,-215.886 528.41,-215.886 528.41,-215.886 528.893,-210.91 532.889,-216.321 529.376,-205.933 529.376,-205.933"/>
<polygon fill="#0ba9c3" stroke="#0ba9c3" points="457.475,-33.0394 450.251,-24.7888 452.927,-30.9604 448.38,-28.8814 448.38,-28.8814 448.38,-28.8814 452.927,-30.9604 446.509,-32.974 457.475,-33.0394 457.475,-33.0394"/>
</g>
<!-- Point -->
<g id="node3" class="node"><title>Point</title>
<ellipse fill="none" stroke="black" cx="559" cy="-306" rx="29.3722" ry="18"/>
<text text-anchor="middle" x="559" y="-302.3" font-family="Times,serif" font-size="14.00">Point</text>
</g>
<!-- Simulator -->
<g id="node4" class="node"><title>Simulator</title>
<ellipse fill="none" stroke="black" cx="113" cy="-234" rx="46.2191" ry="18"/>
<text text-anchor="middle" x="113" y="-230.3" font-family="Times,serif" font-size="14.00">Simulator</text>
</g>
<!-- SimulatorAnsweredQuestion -->
<g id="node8" class="node"><title>SimulatorAnsweredQuestion</title>
<ellipse fill="none" stroke="black" cx="113" cy="-90" rx="113.135" ry="18"/>
<text text-anchor="middle" x="113" y="-86.3" font-family="Times,serif" font-size="14.00">SimulatorAnsweredQuestion</text>
</g>
<!-- Simulator&#45;&gt;SimulatorAnsweredQuestion -->
<g id="edge4" class="edge"><title>Simulator&#45;&gt;SimulatorAnsweredQuestion</title>
<path fill="none" stroke="#f68d70" d="M113,-207.558C113,-182.444 113,-144.164 113,-118.393"/>
<ellipse fill="none" stroke="#f68d70" cx="113" cy="-211.871" rx="4" ry="4"/>
<polygon fill="#f68d70" stroke="#f68d70" points="113,-118.189 117.5,-108.189 113,-113.189 113,-108.189 113,-108.189 113,-108.189 113,-113.189 108.5,-108.189 113,-118.189 113,-118.189"/>
</g>
<!-- Simulator&#45;&gt;Question -->
<g id="edge5" class="edge"><title>Simulator&#45;&gt;Question</title>
<path fill="none" stroke="#1753cc" d="M145.371,-213.123C160.944,-203.561 179.553,-192.134 195.068,-182.607"/>
<polygon fill="#1753cc" stroke="#1753cc" points="145.143,-213.263 134.266,-214.661 140.882,-215.88 136.621,-218.496 136.621,-218.496 136.621,-218.496 140.882,-215.88 138.976,-222.331 145.143,-213.263 145.143,-213.263"/>
<polygon fill="#1753cc" stroke="#1753cc" points="195.278,-182.479 206.154,-181.081 199.539,-179.862 203.799,-177.246 203.799,-177.246 203.799,-177.246 199.539,-179.862 201.445,-173.411 195.278,-182.479 195.278,-182.479"/>
</g>
<!-- SimulatorType -->
<g id="node5" class="node"><title>SimulatorType</title>
<ellipse fill="none" stroke="black" cx="113" cy="-306" rx="63.5411" ry="18"/>
<text text-anchor="middle" x="113" y="-302.3" font-family="Times,serif" font-size="14.00">SimulatorType</text>
</g>
<!-- SimulatorType&#45;&gt;Simulator -->
<g id="edge6" class="edge"><title>SimulatorType&#45;&gt;Simulator</title>
<path fill="none" stroke="#cebbdb" d="M113,-279.64C113,-274.063 113,-268.132 113,-262.476"/>
<ellipse fill="none" stroke="#cebbdb" cx="113" cy="-283.697" rx="4" ry="4"/>
<polygon fill="#cebbdb" stroke="#cebbdb" points="113,-262.104 117.5,-252.104 113,-257.104 113,-252.104 113,-252.104 113,-252.104 113,-257.104 108.5,-252.104 113,-262.104 113,-262.104"/>
</g>
<!-- SimulatedCategory -->
<g id="node6" class="node"><title>SimulatedCategory</title>
<ellipse fill="none" stroke="black" cx="334" cy="-234" rx="78.9404" ry="18"/>
<text text-anchor="middle" x="334" y="-230.3" font-family="Times,serif" font-size="14.00">SimulatedCategory</text>
</g>
<!-- AnsweredQuestion&#45;&gt;Choice -->
<g id="edge7" class="edge"><title>AnsweredQuestion&#45;&gt;Choice</title>
<path fill="none" stroke="#46ea00" d="M420,-61.6651C420,-56.6867 420,-51.4906 420,-46.5072"/>
<polygon fill="#46ea00" stroke="#46ea00" points="420,-61.6966 415.5,-71.6966 420,-66.6966 420,-71.6966 420,-71.6966 420,-71.6966 420,-66.6966 424.5,-71.6967 420,-61.6966 420,-61.6966"/>
<polygon fill="#46ea00" stroke="#46ea00" points="420,-46.1043 424.5,-36.1043 420,-41.1043 420,-36.1043 420,-36.1043 420,-36.1043 420,-41.1043 415.5,-36.1044 420,-46.1043 420,-46.1043"/>
</g>
<!-- PointAction -->
<g id="node9" class="node"><title>PointAction</title>
<ellipse fill="none" stroke="black" cx="559" cy="-399" rx="52.9443" ry="18"/>
<text text-anchor="middle" x="559" y="-395.3" font-family="Times,serif" font-size="14.00">PointAction</text>
</g>
<!-- PointAction&#45;&gt;Point -->
<g id="edge8" class="edge"><title>PointAction&#45;&gt;Point</title>
<path fill="none" stroke="#ca47a7" d="M559,-372.729C559,-360.725 559,-346.362 559,-334.129"/>
<ellipse fill="none" stroke="#ca47a7" cx="559" cy="-376.884" rx="4" ry="4"/>
<polygon fill="#ca47a7" stroke="#ca47a7" points="559,-334.04 563.5,-324.04 559,-329.04 559,-324.04 559,-324.04 559,-324.04 559,-329.04 554.5,-324.04 559,-334.04 559,-334.04"/>
</g>
<!-- License -->
<g id="node10" class="node"><title>License</title>
<ellipse fill="none" stroke="black" cx="375" cy="-306" rx="38.0212" ry="18"/>
<text text-anchor="middle" x="375" y="-302.3" font-family="Times,serif" font-size="14.00">License</text>
</g>
<!-- LiveClass -->
<g id="node11" class="node"><title>LiveClass</title>
<ellipse fill="none" stroke="black" cx="676" cy="-399" rx="46.2191" ry="18"/>
<text text-anchor="middle" x="676" y="-395.3" font-family="Times,serif" font-size="14.00">LiveClass</text>
</g>
<!-- Category -->
<g id="node12" class="node"><title>Category</title>
<ellipse fill="none" stroke="black" cx="276" cy="-306" rx="42.3456" ry="18"/>
<text text-anchor="middle" x="276" y="-302.3" font-family="Times,serif" font-size="14.00">Category</text>
</g>
<!-- Category&#45;&gt;SubCategory -->
<g id="edge9" class="edge"><title>Category&#45;&gt;SubCategory</title>
<path fill="none" stroke="#67819b" d="M315.885,-291.717C319.968,-290.43 324.061,-289.17 328,-288 376.9,-273.474 433.121,-258.597 473.13,-248.317"/>
<ellipse fill="none" stroke="#67819b" cx="311.902" cy="-292.989" rx="4.00001" ry="4.00001"/>
<polygon fill="#67819b" stroke="#67819b" points="473.251,-248.287 484.055,-250.165 478.095,-247.046 482.938,-245.806 482.938,-245.806 482.938,-245.806 478.095,-247.046 481.822,-241.447 473.251,-248.287 473.251,-248.287"/>
</g>
<!-- Category&#45;&gt;SimulatedCategory -->
<g id="edge11" class="edge"><title>Category&#45;&gt;SimulatedCategory</title>
<path fill="none" stroke="#ce060e" d="M294.607,-282.543C300.609,-275.3 307.295,-267.231 313.429,-259.826"/>
<ellipse fill="none" stroke="#ce060e" cx="292.004" cy="-285.685" rx="4.00002" ry="4.00002"/>
<polygon fill="#ce060e" stroke="#ce060e" points="313.431,-259.824 323.277,-254.995 316.621,-255.974 319.812,-252.124 319.812,-252.124 319.812,-252.124 316.621,-255.974 316.346,-249.253 313.431,-259.824 313.431,-259.824"/>
</g>
<!-- Category&#45;&gt;Question -->
<g id="edge10" class="edge"><title>Category&#45;&gt;Question</title>
<path fill="none" stroke="#361bfc" d="M259.63,-279.748C254.664,-271.207 249.581,-261.437 246,-252 238.398,-231.966 233.518,-208.181 230.609,-190.241"/>
<polygon fill="#361bfc" stroke="#361bfc" points="259.723,-279.902 261.045,-290.788 262.309,-284.181 264.896,-288.46 264.896,-288.46 264.896,-288.46 262.309,-284.181 268.747,-286.133 259.723,-279.902 259.723,-279.902"/>
<polygon fill="#361bfc" stroke="#361bfc" points="230.582,-190.057 233.532,-179.496 229.832,-185.114 229.083,-180.17 229.083,-180.17 229.083,-180.17 229.832,-185.114 224.634,-180.844 230.582,-190.057 230.582,-190.057"/>
</g>
<!-- User -->
<g id="node13" class="node"><title>User</title>
<ellipse fill="none" stroke="black" cx="276" cy="-399" rx="26.949" ry="18"/>
<text text-anchor="middle" x="276" y="-395.3" font-family="Times,serif" font-size="14.00">User</text>
</g>
<!-- User&#45;&gt;SubCategory -->
<g id="edge13" class="edge"><title>User&#45;&gt;SubCategory</title>
<path fill="none" stroke="#9b5914" d="M309.352,-389.69C347.36,-379.044 410.023,-357.819 455,-324 478.153,-306.591 498.066,-279.947 510.86,-260.346"/>
<ellipse fill="none" stroke="#9b5914" cx="305.028" cy="-390.871" rx="4.00001" ry="4.00001"/>
<polygon fill="#9b5914" stroke="#9b5914" points="510.865,-260.338 520.023,-254.306 513.545,-256.116 516.224,-251.895 516.224,-251.895 516.224,-251.895 513.545,-256.116 512.425,-249.483 510.865,-260.338 510.865,-260.338"/>
</g>
<!-- User&#45;&gt;Simulator -->
<g id="edge15" class="edge"><title>User&#45;&gt;Simulator</title>
<path fill="none" stroke="#4a9c14" d="M259.296,-376.292C253.511,-370.136 246.56,-364.021 239,-360 159.647,-317.791 97.6209,-392.98 40,-324 29.7426,-311.721 32.7337,-302.255 40,-288 47.5265,-273.234 61.304,-261.62 74.8786,-253.074"/>
<ellipse fill="none" stroke="#4a9c14" cx="262.027" cy="-379.387" rx="4.00002" ry="4.00002"/>
<polygon fill="#4a9c14" stroke="#4a9c14" points="75.0761,-252.959 85.9786,-251.781 79.3891,-250.429 83.702,-247.9 83.702,-247.9 83.702,-247.9 79.3891,-250.429 81.4255,-244.018 75.0761,-252.959 75.0761,-252.959"/>
</g>
<!-- User&#45;&gt;AnsweredQuestion -->
<g id="edge16" class="edge"><title>User&#45;&gt;AnsweredQuestion</title>
<path fill="none" stroke="#f3df6e" d="M309.949,-391.488C344.937,-382.771 397.696,-363.565 422,-324 461.777,-259.244 442.096,-164.051 428.802,-117.967"/>
<ellipse fill="none" stroke="#f3df6e" cx="305.793" cy="-392.469" rx="4.00001" ry="4.00001"/>
<polygon fill="#f3df6e" stroke="#f3df6e" points="428.724,-117.706 430.153,-106.833 427.284,-112.918 425.843,-108.13 425.843,-108.13 425.843,-108.13 427.284,-112.918 421.534,-109.426 428.724,-117.706 428.724,-117.706"/>
</g>
<!-- User&#45;&gt;SimulatorAnsweredQuestion -->
<g id="edge17" class="edge"><title>User&#45;&gt;SimulatorAnsweredQuestion</title>
<path fill="none" stroke="#a75455" d="M259.317,-376.254C253.532,-370.096 246.577,-363.99 239,-360 155.598,-316.086 90.7299,-396.085 30,-324 -23.1137,-260.955 50.1069,-161.438 90.0546,-115.603"/>
<ellipse fill="none" stroke="#a75455" cx="262.047" cy="-379.352" rx="4.00002" ry="4.00002"/>
<polygon fill="#a75455" stroke="#a75455" points="90.2144,-115.423 100.22,-110.935 93.5351,-111.685 96.8558,-107.947 96.8558,-107.947 96.8558,-107.947 93.5351,-111.685 93.4915,-104.958 90.2144,-115.423 90.2144,-115.423"/>
</g>
<!-- User&#45;&gt;License -->
<g id="edge18" class="edge"><title>User&#45;&gt;License</title>
<path fill="none" stroke="#1a45c4" d="M297.824,-377.94C313.925,-363.14 335.783,-343.048 352.127,-328.025"/>
<ellipse fill="none" stroke="#1a45c4" cx="294.414" cy="-381.074" rx="4.00002" ry="4.00002"/>
<ellipse fill="#1a45c4" stroke="#1a45c4" cx="355.373" cy="-325.041" rx="4.00002" ry="4.00002"/>
</g>
<!-- User&#45;&gt;Category -->
<g id="edge12" class="edge"><title>User&#45;&gt;Category</title>
<path fill="none" stroke="#72acee" d="M276,-372.729C276,-360.725 276,-346.362 276,-334.129"/>
<ellipse fill="none" stroke="#72acee" cx="276" cy="-376.884" rx="4" ry="4"/>
<polygon fill="#72acee" stroke="#72acee" points="276,-334.04 280.5,-324.04 276,-329.04 276,-324.04 276,-324.04 276,-324.04 276,-329.04 271.5,-324.04 276,-334.04 276,-334.04"/>
</g>
<!-- User&#45;&gt;Question -->
<g id="edge14" class="edge"><title>User&#45;&gt;Question</title>
<path fill="none" stroke="#100af8" d="M256.166,-377.288C244.307,-363.414 230.347,-344.071 224,-324 209.687,-278.738 215.682,-222.686 221.341,-190.072"/>
<ellipse fill="none" stroke="#100af8" cx="259.128" cy="-380.64" rx="4.00002" ry="4.00002"/>
<polygon fill="#100af8" stroke="#100af8" points="221.393,-189.791 227.642,-180.78 222.305,-184.875 223.218,-179.959 223.218,-179.959 223.218,-179.959 222.305,-184.875 218.793,-179.138 221.393,-189.791 221.393,-189.791"/>
</g>
<!-- Question&#45;&gt;AnsweredQuestion -->
<g id="edge20" class="edge"><title>Question&#45;&gt;AnsweredQuestion</title>
<path fill="none" stroke="#09d169" d="M265.695,-146.966C295.762,-136.06 337.685,-120.855 370.246,-109.046"/>
<ellipse fill="none" stroke="#09d169" cx="261.769" cy="-148.389" rx="4.00001" ry="4.00001"/>
<polygon fill="#09d169" stroke="#09d169" points="370.626,-108.908 381.561,-109.728 375.326,-107.203 380.027,-105.498 380.027,-105.498 380.027,-105.498 375.326,-107.203 378.492,-101.268 370.626,-108.908 370.626,-108.908"/>
</g>
<!-- Question&#45;&gt;SimulatorAnsweredQuestion -->
<g id="edge21" class="edge"><title>Question&#45;&gt;SimulatorAnsweredQuestion</title>
<path fill="none" stroke="#254385" d="M196.678,-142.381C181.955,-133.341 164.166,-122.418 148.782,-112.971"/>
<ellipse fill="none" stroke="#254385" cx="200.522" cy="-144.741" rx="4.00002" ry="4.00002"/>
<polygon fill="#254385" stroke="#254385" points="148.565,-112.838 142.398,-103.771 144.304,-110.222 140.044,-107.606 140.044,-107.606 140.044,-107.606 144.304,-110.222 137.689,-111.44 148.565,-112.838 148.565,-112.838"/>
</g>
<!-- Question&#45;&gt;Choice -->
<g id="edge19" class="edge"><title>Question&#45;&gt;Choice</title>
<path fill="none" stroke="#1fb30b" d="M250.104,-139.843C271.042,-121.103 303.107,-93.4671 333,-72 350.575,-59.3784 371.222,-46.7158 387.991,-36.9341"/>
<ellipse fill="none" stroke="#1fb30b" cx="246.951" cy="-142.681" rx="4.00002" ry="4.00002"/>
<polygon fill="#1fb30b" stroke="#1fb30b" points="388.202,-36.8124 399.112,-35.7125 392.533,-34.3136 396.863,-31.8147 396.863,-31.8147 396.863,-31.8147 392.533,-34.3136 394.615,-27.917 388.202,-36.8124 388.202,-36.8124"/>
</g>
</g>
</svg>
